<?xml version="1.0" encoding="UTF-8" standalone="no"?>
<!-- Created with Inkscape (http://www.inkscape.org/) -->

<svg
   xmlns:dc="http://purl.org/dc/elements/1.1/"
   xmlns:cc="http://creativecommons.org/ns#"
   xmlns:rdf="http://www.w3.org/1999/02/22-rdf-syntax-ns#"
   xmlns:svg="http://www.w3.org/2000/svg"
   xmlns="http://www.w3.org/2000/svg"
   xmlns:sodipodi="http://sodipodi.sourceforge.net/DTD/sodipodi-0.dtd"
   xmlns:inkscape="http://www.inkscape.org/namespaces/inkscape"
   width="77.506676mm"
   height="97.985634mm"
   viewBox="0 0 274.62995 347.19318"
   id="svg8151"
   version="1.1"
   inkscape:version="0.91 r13725"
   sodipodi:docname="eagle_abstract.svg">
  <defs
     id="defs8153" />
  <sodipodi:namedview
     id="base"
     pagecolor="#ffffff"
     bordercolor="#666666"
     borderopacity="1.0"
     inkscape:pageopacity="0.0"
     inkscape:pageshadow="2"
     inkscape:zoom="1"
     inkscape:cx="-53.729279"
     inkscape:cy="105.5662"
     inkscape:document-units="px"
     inkscape:current-layer="layer1"
     showgrid="false"
     fit-margin-top="0"
     fit-margin-left="0"
     fit-margin-right="0"
     fit-margin-bottom="0"
     inkscape:window-width="1920"
     inkscape:window-height="1005"
     inkscape:window-x="-9"
     inkscape:window-y="-9"
     inkscape:window-maximized="1" />
  <metadata
     id="metadata8156">
    <rdf:RDF>
      <cc:Work
         rdf:about="">
        <dc:format>image/svg+xml</dc:format>
        <dc:type
           rdf:resource="http://purl.org/dc/dcmitype/StillImage" />
        <dc:title></dc:title>
      </cc:Work>
    </rdf:RDF>
  </metadata>
  <g
     inkscape:label="Layer 1"
     inkscape:groupmode="layer"
     id="layer1"
     transform="translate(-51.58642,-290.73523)">
    <path
       style="fill:#000000"
       d="m 188.19326,634.29644 c -0.71895,-4.51452 -1.89458,-13.74876 -2.61251,-20.52053 -1.77352,-16.72854 -7.30389,-28.68731 -15.1406,-32.73985 -7.90767,-4.08921 -7.93289,-5.56648 -0.1539,-9.00983 3.40019,-1.50508 7.00041,-4.26991 8.00052,-6.14407 1.50196,-2.81476 0.71847,-3.44889 -4.50368,-3.64498 -7.78432,-0.29232 -13.78303,-7.1166 -13.78303,-15.67999 l 0,-6.22847 5.03213,5.42979 c 2.76771,2.98638 6.39543,5.42978 8.06164,5.42978 7.58543,0 12.97886,-12.89418 10.51467,-25.13765 -2.82342,-14.02841 -2.46974,-14.05497 -17.2869,1.29825 l -14.09521,14.60516 0.923,10.26026 c 0.71159,7.91046 -0.0361,11.78765 -3.26519,16.92944 -5.01788,7.99037 -9.36315,9.08015 -5.90016,1.47976 1.98324,-4.35278 1.6953,-6.08967 -1.78599,-10.77328 -6.25439,-8.41446 -13.71192,-8.33922 -22.27586,0.22472 -7.54037,7.54037 -9.70621,18.48645 -4.65688,23.53578 1.50945,1.50945 1.63255,2.46246 0.31804,2.46246 -6.40796,0 -12.02928,-13.30442 -10.05893,-23.80728 1.58229,-8.43435 13.71791,-21.31055 20.17215,-21.40314 4.16671,-0.0597 4.25391,-0.28926 1.0383,-2.73231 -4.76832,-3.62272 -8.16882,-13.20706 -6.56624,-18.50702 1.7206,-5.69036 9.01696,-13.58032 12.55862,-13.58032 2.12505,0 2.2848,0.94879 0.66832,3.9692 -1.16834,2.18306 -2.12425,5.80974 -2.12425,8.05928 0,4.31243 8.90686,12.59616 13.54367,12.59616 8.51508,0 29.54943,-30.11179 29.54943,-42.30158 l 0,-4.70909 -5.03685,5.03684 c -5.54984,5.54986 -18.40341,6.91335 -26.13996,2.77288 -3.95385,-2.11606 -3.68573,-2.50783 4.10294,-5.99491 14.33429,-6.41765 20.40837,-26.06261 10.94397,-35.39521 l -4.63368,-4.56914 -5.00861,5.75757 c -3.60997,4.14981 -5.00859,8.17673 -5.00859,14.42078 0,8.77739 -3.55451,15.85066 -11.22317,22.33348 -6.22741,5.26442 -9.99524,4.66725 -8.48627,-1.345 1.90659,-7.59639 -1.98907,-8.14301 -7.08001,-0.99346 -6.71637,9.43229 -20.001589,18.31138 -27.384835,18.30247 l -6.361283,-0.008 6.561214,-4.00062 c 4.937117,-3.01034 7.34988,-6.65626 9.747253,-14.72914 4.115271,-13.8576 4.140361,-13.70324 -2.351304,-14.46445 l -5.537343,-0.64878 6.775941,-7.6952 6.775937,-7.6952 -9.548712,0 c -23.747179,0 -46.137541,-22.69497 -43.702657,-44.29718 1.4058,-12.47221 10.026926,-24.87334 20.642115,-29.6928 10.53916,-4.78493 14.249272,-4.90116 23.055556,-0.7223 15.517908,7.36373 12.378678,31.61915 -4.092266,31.61915 -2.628803,0 -2.789089,-0.70663 -0.860734,-3.79439 2.750818,-4.4048 0.96937,-13.75451 -2.903922,-15.24083 -1.927473,-0.73962 -2.441656,0.82127 -1.873565,5.68745 0.956646,8.1943 -2.595417,10.89162 -7.955297,6.041 -8.31414,-7.5242 -20.110839,4.79119 -17.2157,17.97266 1.598098,7.27613 9.819567,17.24504 17.495887,21.21464 7.640409,3.95102 8.632516,3.79373 6.085815,-0.96482 -3.283162,-6.13467 -2.52341,-13.50197 1.795444,-17.41048 3.752795,-3.39623 4.036758,-3.3031 6.669173,2.18696 5.914407,12.33493 21.316483,13.69337 44.521143,3.92664 16.59717,-6.98566 25.00968,-6.8351 33.56986,0.60076 14.18457,12.32147 20.84205,13.33933 30.7808,4.70598 14.52515,-12.61734 20.44592,-13.23759 42.65153,-4.46814 8.46472,3.34289 17.95947,6.10976 21.09946,6.1486 9.54293,0.118 19.64627,-5.2204 21.13949,-11.16979 1.60984,-6.41411 4.87233,-5.80873 9.06238,1.68159 2.77809,4.96626 2.73001,6.11303 -0.49335,11.76684 -3.55336,6.2326 -3.54815,6.2571 1.02602,4.83704 11.99296,-3.72324 22.03992,-16.53817 22.03992,-28.11196 0,-5.80312 -7.16079,-15.87002 -11.28866,-15.87002 -1.53042,0 -4.1677,1.38514 -5.86064,3.07808 -1.69294,1.69294 -4.00524,3.07808 -5.13842,3.07808 -3.01662,0 -4.892,-7.49471 -3.20523,-12.80925 1.28489,-4.04833 1.06455,-4.27257 -1.83431,-1.86675 -5.32267,4.41744 -6.2558,10.44579 -2.29444,14.82305 3.42445,3.78394 3.39976,3.95706 -0.56431,3.95706 -7.01803,0 -14.95916,-7.77608 -14.95916,-14.64824 0,-19.77972 23.40693,-26.33529 40.48666,-11.33911 8.95362,7.86138 12.86672,16.7119 12.86672,29.10142 0,11.52429 -3.60388,18.84445 -13.5973,27.61883 -9.71282,8.52796 -18.89405,12.36023 -29.61233,12.36023 l -8.45653,0 5.31256,6.31359 c 6.27675,7.45953 6.68242,10.10284 1.55044,10.10284 -5.8266,0 -6.2463,1.5543 -3.1752,11.75886 3.09762,10.29254 7.67581,16.49672 14.11948,19.13406 3.56973,1.46106 3.35605,1.69672 -1.64094,1.80985 -8.13555,0.18427 -15.70952,-4.26712 -25.69745,-15.10277 -4.76138,-5.16549 -9.20457,-9.39179 -9.87372,-9.39179 -0.66918,0 -0.81007,2.77027 -0.31315,6.15616 1.20211,8.1906 -2.57286,8.01583 -11.92195,-0.55198 -6.39983,-5.865 -7.51366,-8.35174 -8.86171,-19.78469 -1.05351,-8.93491 -2.71497,-13.93434 -5.24581,-15.78493 -5.37226,-3.92828 -10.89158,-0.19022 -12.51773,8.478 -2.26011,12.04734 5.68923,25.11165 17.45952,28.69382 4.78685,1.45681 4.83591,1.64244 1.14683,4.33995 -5.68045,4.15364 -18.07349,3.49368 -24.14995,-1.28607 -2.86963,-2.25725 -5.78203,-4.1041 -6.47199,-4.1041 -2.04335,0 1.11488,10.5896 6.18581,20.741 10.19448,20.40822 21.01341,27.79674 31.06174,21.21283 4.5404,-2.97496 5.03486,-4.45708 4.13891,-12.40595 -1.17035,-10.38327 0.71639,-11.25231 7.81057,-3.59758 6.20243,6.69255 6.59926,16.64913 0.94979,23.83126 l -4.08235,5.18988 4.87974,1.22473 c 2.68386,0.67361 7.7529,4.49708 11.26454,8.49661 5.22535,5.95134 6.3848,9.03921 6.3848,17.00415 0,10.26162 -4.28284,18.85367 -9.39791,18.85367 -2.56242,0 -2.51771,-0.74984 0.30126,-5.05211 2.7516,-4.19951 2.90767,-6.27198 0.92478,-12.28023 -4.43049,-13.42451 -16.65738,-19.02951 -26.48918,-12.14306 -3.99859,2.8007 -4.62034,4.64784 -3.74965,11.13938 1.42979,10.65982 -3.32815,8.68105 -7.89788,-3.28464 -2.66004,-6.9652 -2.93922,-10.31612 -1.26068,-15.1312 2.06923,-5.93581 1.57208,-6.76868 -12.35147,-20.69223 -7.97913,-7.97912 -15.01783,-13.99715 -15.64157,-13.37341 -0.62375,0.62374 -1.53297,6.64861 -2.0205,13.38858 -1.43828,19.88419 6.57685,28.07079 17.14047,17.50715 l 5.03687,-5.03685 0,6.93997 c 0,7.96849 -8.5294,16.37737 -14.91758,14.70681 -5.97958,-1.56368 -3.09754,3.26295 5.20082,8.71003 l 7.45382,4.89269 -6.45278,4.34852 c -10.3821,6.99648 -13.88459,15.31747 -16.68905,39.64869 -2.15781,18.72088 -2.75432,20.87471 -3.8595,13.93516 z M 175.39042,419.85687 c -5.13462,-8.13381 -13.30139,-11.19635 -16.4164,-6.15616 -1.81143,2.93093 -5.13014,2.5366 -5.13014,-0.60958 0,-1.46388 3.80117,-6.31187 8.44704,-10.77328 12.12568,-11.64424 18.83575,-29.6582 11.04745,-29.6582 -3.48472,0 -4.12742,-3.2134 -1.02603,-5.13014 1.12865,-0.69753 2.05206,-4.46553 2.05206,-8.37332 0,-5.53779 -1.10276,-7.60753 -4.99928,-9.38289 -6.38299,-2.90829 -11.41713,-0.98872 -11.41713,4.35345 0,2.51065 -1.35054,4.16852 -3.39582,4.16852 -1.8677,0 -6.94653,3.73257 -11.28629,8.29461 -11.04577,11.61154 -10.33785,4.85327 1.38768,-13.24767 12.33729,-19.04531 11.99753,-21.5789 -1.83275,-13.66601 -6.06269,3.4687 -13.45008,6.30675 -16.41643,6.30675 -5.81508,0 -13.60156,-6.37714 -13.60156,-11.13971 0,-3.87709 5.63773,-9.38082 9.60919,-9.38082 2.48633,0 2.87901,1.49718 1.84221,7.02381 -1.89252,10.088 4.57206,11.89947 13.94473,3.90748 3.74184,-3.19063 8.42039,-6.73601 10.39681,-7.87859 3.32215,-1.92058 3.16359,-2.73399 -2.09989,-10.77328 -6.57256,-10.03875 -10.57117,-11.10046 -11.49718,-3.0527 -0.77898,6.7701 -4.48887,7.50457 -5.40342,1.06974 -0.93084,-6.54931 8.09233,-14.92109 16.08204,-14.92109 8.55546,0 13.64625,2.99975 17.39575,10.25047 3.37181,6.52038 9.49813,6.57302 7.79677,0.0669 -1.30305,-4.9829 6.21834,-12.36951 12.59522,-12.36951 2.74811,0 7.36522,-0.90056 10.26026,-2.00126 4.54916,-1.7296 5.26372,-1.45101 5.26372,2.05205 0,2.70664 1.38545,4.05332 4.17002,4.05332 5.82262,0 16.82872,-4.85988 20.19286,-8.91638 3.82948,-4.61759 6.41792,-4.26831 6.41792,0.86601 0,2.34408 -2.77027,7.03222 -6.15616,10.41811 -3.44078,3.44078 -6.15616,8.3417 -6.15616,11.11107 0,2.72518 -1.75268,6.04945 -3.89484,7.38724 -2.70891,1.69176 -3.36787,3.41532 -2.16417,5.66055 0.95188,1.77548 2.286,6.69798 2.96472,10.93888 1.48915,9.30483 9.6271,15.95847 15.10083,12.34655 3.51798,-2.32141 3.63017,-3.20348 1.20154,-9.44753 -1.23831,-3.18372 -0.55937,-3.65177 4.46508,-3.07808 4.98984,0.56973 6.02563,1.71135 6.55986,7.23024 0.54123,5.59101 -0.33319,7.05408 -5.95269,9.96003 -7.45641,3.85585 -19.58453,2.85792 -27.38531,-2.25334 -4.50871,-2.95423 -4.67076,-2.87207 -3.75755,1.90513 0.52491,2.74587 -0.58305,10.28109 -2.46214,16.74492 -4.36256,15.00672 -2.01762,21.88387 8.95949,26.27605 9.56394,3.82673 14.38116,8.97243 9.98055,10.66111 -1.65166,0.6338 -3.83338,0.99707 -4.84822,0.8073 -5.88591,-1.1007 -9.55533,1.0267 -14.40111,8.34917 -4.77605,7.21711 -6.38699,8.20821 -13.34171,8.20821 -6.99643,0 -8.5081,-0.9478 -13.0914,-8.20821 z m 10.17264,-94.53624 c -1.73786,-2.81193 1.92705,-2.32506 4.92895,0.65481 2.07188,2.05667 2.31306,1.85329 1.21689,-1.02603 -0.75193,-1.9751 -2.54042,-3.59109 -3.97441,-3.59109 -3.25696,0 -7.63021,5.05583 -5.88386,6.80218 1.88211,1.88213 5.10644,-0.58436 3.71243,-2.83987 z"
       id="path8138"
       inkscape:connector-curvature="0"
       sodipodi:nodetypes="ssssssscsssscsssssssscssssssscsssscsssssccssccccsssssssssssssssssssssssssssssssssssscsssscsssssssssssssssscsssssssssssssscssscssscssssssssssssssssssssssssssssssssscssssssssssscssccssssss" />
  </g>
</svg>
