<?xml version="1.0" encoding="UTF-8" standalone="no"?>
<!-- Created with Inkscape (http://www.inkscape.org/) -->

<svg
   xmlns:dc="http://purl.org/dc/elements/1.1/"
   xmlns:cc="http://creativecommons.org/ns#"
   xmlns:rdf="http://www.w3.org/1999/02/22-rdf-syntax-ns#"
   xmlns:svg="http://www.w3.org/2000/svg"
   xmlns="http://www.w3.org/2000/svg"
   xmlns:sodipodi="http://sodipodi.sourceforge.net/DTD/sodipodi-0.dtd"
   xmlns:inkscape="http://www.inkscape.org/namespaces/inkscape"
   width="60.343292mm"
   height="85.441971mm"
   viewBox="0 0 213.81481 302.74714"
   id="svg8151"
   version="1.1"
   inkscape:version="0.91 r13725"
   sodipodi:docname="eagle_open_wings.svg">
  <defs
     id="defs8153" />
  <sodipodi:namedview
     id="base"
     pagecolor="#ffffff"
     bordercolor="#666666"
     borderopacity="1.0"
     inkscape:pageopacity="0.0"
     inkscape:pageshadow="2"
     inkscape:zoom="1"
     inkscape:cx="-77.959014"
     inkscape:cy="97.507265"
     inkscape:document-units="px"
     inkscape:current-layer="layer1"
     showgrid="false"
     fit-margin-top="0"
     fit-margin-left="0"
     fit-margin-right="0"
     fit-margin-bottom="0"
     inkscape:window-width="1920"
     inkscape:window-height="1005"
     inkscape:window-x="-9"
     inkscape:window-y="-9"
     inkscape:window-maximized="1" />
  <metadata
     id="metadata8156">
    <rdf:RDF>
      <cc:Work
         rdf:about="">
        <dc:format>image/svg+xml</dc:format>
        <dc:type
           rdf:resource="http://purl.org/dc/dcmitype/StillImage" />
        <dc:title></dc:title>
      </cc:Work>
    </rdf:RDF>
  </metadata>
  <g
     inkscape:label="Layer 1"
     inkscape:groupmode="layer"
     id="layer1"
     transform="translate(-75.816156,-327.12232)">
    <path
       style="fill:#000000"
       d="m 181.06555,620.79309 c 0,-6.47294 -0.60206,-8.70423 -2.09897,-7.77907 -1.46773,0.90711 -1.69972,0.2645 -0.77141,-2.13674 0.73016,-1.88867 1.74447,-5.49836 2.25399,-8.02151 0.90111,-4.4622 0.67613,-4.58187 -8.23417,-4.3798 -9.57588,0.21718 -12.06488,-3.10018 -3.12049,-4.15902 5.3042,-0.62791 7.31597,-3.50446 9.01334,-12.8879 l 1.13585,-6.2793 -3.26127,4.20611 c -2.38923,3.08142 -4.66424,4.04088 -8.50803,3.58818 -4.76912,-0.56168 -5.21454,-0.15806 -4.89286,4.43378 0.46476,6.63389 -3.73181,5.42803 -4.52391,-1.29994 -0.46343,-3.93634 1.41901,-7.03959 9.25126,-15.2509 8.72155,-9.14364 9.96901,-11.40862 11.03561,-20.03692 0.66141,-5.35038 0.93871,-13.361 0.61624,-17.80137 l -0.58631,-8.07339 -5.0153,4.93374 c -2.75841,2.71355 -5.48318,4.93374 -6.05505,4.93374 -1.11066,0 0.13026,-7.53594 2.21563,-13.45566 1.26404,-3.58817 1.26404,-3.58817 -1.61139,0 -2.83023,3.53177 -2.87831,3.51765 -3.05891,-0.89704 -0.16075,-3.93065 -0.47699,-3.68798 -2.55736,1.96267 -1.30563,3.54634 -3.71468,9.0407 -5.35341,12.20969 l -2.97955,5.7618 6.31666,-1.18502 c 4.52957,-0.84975 7.09507,-0.40659 9.06801,1.56635 4.70615,4.70614 3.08234,6.17299 -6.27471,5.66812 -12.11648,-0.65377 -23.2675,4.53993 -23.2675,10.83706 0,3.51948 -0.91404,4.44334 -4.39607,4.44334 -2.41784,0 -5.29728,1.41284 -6.39874,3.13965 -1.61474,2.53144 -1.80109,1.92325 -0.96203,-3.13965 0.99604,-6.01017 1.89571,-7.16417 9.35881,-12.00458 2.98898,-1.93858 2.83677,-2.14691 -1.63867,-2.24261 -2.71356,-0.0581 -4.93374,0.61546 -4.93374,1.49663 0,2.54592 -5.79801,4.08201 -7.81069,2.06935 -1.24181,-1.24183 -2.87229,-0.88369 -5.08225,1.11628 -5.17397,4.68239 -4.23956,-1.44219 0.96619,-6.33273 3.51716,-3.30421 5.53415,-3.78366 12.11009,-2.87861 l 7.89005,1.0859 -4.23546,-3.71343 c -2.3295,-2.04238 -6.16436,-3.71343 -8.52192,-3.71343 -2.35755,0 -4.28645,-0.80733 -4.28645,-1.79408 0,-0.98675 -1.61468,-3.40877 -3.58817,-5.38227 l -3.58818,-3.58817 8.1178,0 c 6.96194,0 8.35553,0.62527 9.78739,4.39139 1.97562,5.19623 9.75365,10.7468 13.20413,9.42272 2.16417,-0.83046 10.1547,-15.46054 10.1547,-18.59252 0,-0.67612 -2.01518,0.66383 -4.47815,2.97768 -5.94231,5.5825 -7.12024,3.83766 -3.87068,-5.73367 2.50816,-7.38758 5.26465,-20.5646 7.50874,-35.89449 0.62447,-4.26578 2.66361,-7.97954 5.68739,-10.35804 l 4.71391,-3.70794 -4.78062,-4.98988 c -3.97146,-4.14533 -4.78526,-6.64338 -4.80808,-14.75919 -0.0289,-10.27458 -2.52238,-17.51605 -4.27325,-12.41017 -0.49807,1.45248 -1.14701,4.65921 -1.44209,7.12608 -0.79589,6.65389 -3.50528,5.44215 -6.01724,-2.69113 l -2.21642,-7.17635 -0.18811,9.56846 c -0.21986,11.18301 -3.99738,12.15647 -5.73322,1.47741 -1.68186,-10.34715 -3.9772,-10.33762 -2.58431,0.0108 1.2705,9.439 -1.14522,17.88431 -4.51922,15.79906 -0.93723,-0.57928 -1.78454,-4.03308 -1.88289,-7.67515 -0.0983,-3.64207 -0.82132,-8.64029 -1.60659,-11.10716 -0.79751,-2.5054 -1.06314,4.22599 -0.60177,15.24975 0.74998,17.91992 -0.72146,27.09183 -3.84518,23.96809 -0.57486,-0.57486 -1.69502,-10.03752 -2.48924,-21.02814 -0.79423,-10.99062 -1.98245,-20.52136 -2.64052,-21.17942 -0.65807,-0.65807 -1.25323,10.03898 -1.32259,23.77123 -0.0694,13.73225 -0.73742,26.52882 -1.4846,28.43681 -2.85895,7.30064 -4.53946,-1.96221 -5.26669,-29.02977 -0.40439,-15.05069 -1.42804,-27.3649 -2.2748,-27.3649 -0.84673,0 -1.75775,16.7523 -2.02444,37.22732 -0.41266,31.67937 -0.886,37.22732 -3.17606,37.22732 -2.275441,0 -2.829706,-5.68129 -3.588175,-36.7788 -0.828294,-33.96016 -1.000168,-35.48585 -2.242609,-19.90788 -0.740061,9.27901 -1.364834,25.02213 -1.388373,34.98471 -0.05777,24.45254 -3.134701,37.66326 -7.340778,31.51749 -1.663819,-2.43113 -1.066191,-60.74549 1.03831,-101.31399 0.409501,-7.89398 0.36585,-12.33435 -0.09706,-9.86748 -2.023157,10.78268 -2.73898,12.64008 -4.461196,11.57569 -1.113375,-0.68811 -1.718,-10.2263 -1.546845,-24.40198 0.247872,-20.5314 -0.09921,-23.55025 -2.946465,-25.63226 -2.993543,-2.18893 -2.808806,-2.57645 2.549183,-5.34717 3.177149,-1.64295 6.762095,-2.49068 7.966556,-1.88379 1.204443,0.60687 0.768121,-0.0612 -0.969633,-1.48459 -2.6576,-2.17684 -2.764976,-2.91544 -0.675922,-4.64922 1.366,-1.13366 3.998806,-1.57772 5.850681,-0.98676 3.176504,1.01364 3.189367,0.92806 0.2274,-1.5124 -1.726809,-1.42276 -3.139653,-3.10336 -3.139653,-3.73464 0,-2.60306 10.604819,-0.89278 14.767549,2.38163 5.19657,4.08763 7.13995,3.08834 5.63729,-2.89871 -0.6233,-2.48339 -0.2598,-4.21887 0.88364,-4.21887 3.26354,0 7.41692,10.15249 7.41692,18.12983 0,7.42988 0.054,7.49459 3.58818,4.29627 3.51017,-3.17667 3.58756,-3.13395 3.56069,1.96454 -0.0328,6.24054 -1.35373,8.47009 -6.67918,11.27432 -6.03249,3.17654 -6.82156,9.63959 -2.31376,18.95145 4.33532,8.95562 4.33615,8.95592 29.24375,10.85726 l 13.94403,1.06441 5.452,-12.18851 c 2.99862,-6.70368 8.02655,-14.91554 11.1732,-18.24856 3.74873,-3.97075 4.94802,-6.34181 3.47859,-6.87733 -1.23343,-0.44951 -2.24261,-2.74027 -2.24261,-5.09058 0,-2.35031 -2.50566,-7.12707 -5.56813,-10.61502 -6.2366,-7.10312 -3.98359,-8.32355 5.11961,-2.77321 6.32407,3.85585 8.16387,1.85727 2.16085,-2.34739 -2.01845,-1.41379 -6.03735,-6.3036 -8.93091,-10.86627 -5.36954,-8.46687 -8.33512,-9.96529 -12.15756,-6.14283 -1.6745,1.67448 -2.15291,1.06393 -2.15291,-2.74744 0,-6.52889 2.93253,-7.31922 17.8326,-4.80599 9.1665,1.54613 14.38372,3.5688 19.31648,7.48888 4.86442,3.86574 8.16794,5.16371 11.78959,4.63216 7.10585,-1.04291 5.76294,4.57031 -1.41725,5.92402 -3.44061,0.64867 -5.14973,1.93867 -4.77224,3.60199 1.45691,6.41951 6.34404,14.21838 9.54693,15.23493 2.88791,0.91659 3.1149,1.58936 1.28155,3.7984 -1.2625,1.52123 -4.02446,2.34109 -6.37374,1.89199 -4.87809,-0.93249 -5.13099,0.0931 -1.35296,5.48706 1.53608,2.19305 4.5636,4.01305 6.72783,4.04443 3.88136,0.0563 3.88657,0.0937 0.38169,2.74283 -2.28874,1.72997 -5.37771,2.28506 -8.67989,1.55978 -4.70307,-1.03296 -4.96705,-0.82782 -3.19512,2.48308 1.06233,1.98497 2.89104,3.9289 4.0638,4.31982 3.17391,1.05797 0.03,4.98422 -3.99114,4.98422 -5.37848,0 -4.02313,3.97549 3.23282,9.48249 6.34513,4.81575 7.14115,4.95856 21.91218,3.93113 21.50585,-1.49587 22.57956,-1.85713 26.80508,-9.01887 5.46363,-9.26017 4.94535,-15.87391 -1.60974,-20.54153 -4.28471,-3.05099 -5.38226,-5.15802 -5.38226,-10.33257 0,-6.10051 0.16182,-6.28598 2.63407,-3.01747 2.4592,3.25133 2.6383,3.0061 2.69783,-3.6938 0.0614,-6.90512 5.56201,-18.83792 8.6837,-18.83792 0.83036,0 1.1472,2.47018 0.70408,5.48928 l -0.80566,5.48927 6.05013,-3.68849 c 3.32757,-2.02866 8.39542,-3.69149 11.26192,-3.69519 5.20239,-0.007 5.20564,3.2e-4 1.79409,3.88987 -1.87976,2.14311 -2.42523,3.31678 -1.21219,2.60817 1.21305,-0.70863 4.02073,-0.31694 6.23929,0.8704 3.90415,2.08943 3.91974,2.20079 0.48561,3.46557 -3.21179,1.18288 -3.08741,1.42799 1.31198,2.58541 6.72257,1.76861 10.00651,5.88001 5.94227,7.43959 -2.67369,1.02601 -2.90133,2.93583 -1.81398,15.2193 1.32647,14.98514 -0.28103,35.6785 -2.77162,35.6785 -0.82734,0 -1.87534,-2.62385 -2.32889,-5.83078 -0.45354,-3.20693 -0.41046,11.12334 0.0958,31.84505 1.52914,62.59721 1.43631,70.64934 -0.84069,72.92634 -4.21426,4.21426 -6.16673,-8.18375 -7.24659,-46.01502 -0.73253,-25.66305 -1.52191,-35.3877 -2.47572,-30.49949 -0.77014,3.94699 -0.91324,16.98087 -0.31796,28.9642 1.24561,25.07693 -0.12846,38.31408 -3.97723,38.31408 -2.15966,0 -2.58569,-5.93315 -2.60867,-36.33027 -0.0143,-19.98165 -0.69758,-37.38689 -1.51658,-38.67827 -1.50951,-2.38016 -3.81111,23.47741 -3.82894,43.01675 -0.0108,11.203 -1.32456,16.35269 -3.78544,14.83177 -0.88335,-0.54594 -1.6061,-13.05507 -1.6061,-27.79806 0,-14.83482 -0.72643,-26.80542 -1.62666,-26.80542 -0.89466,0 -2.14679,7.87156 -2.78251,17.49235 -1.60606,24.30556 -1.6052,24.3004 -4.11275,25.1262 -1.70831,0.56259 -2.2968,-4.74694 -2.47011,-22.28557 -0.20562,-20.81016 -0.37064,-21.91888 -1.7161,-11.53024 -2.52301,19.48067 -8.27189,18.79393 -6.64751,-0.7941 0.9833,-11.85728 -1.27443,-13.08078 -2.99281,-1.62185 -1.54688,10.31537 -5.12116,9.67567 -6.39134,-1.14386 l -0.93142,-7.93406 -1.41719,6.85951 c -1.17835,5.70353 -1.85286,6.49797 -4.00232,4.71407 -1.42181,-1.18 -2.58512,-4.46862 -2.58512,-7.30805 0,-2.83941 -0.80734,-5.16258 -1.79409,-5.16258 -1.00176,0 -1.79408,4.87728 -1.79408,11.04369 0,9.11843 -0.81016,12.10587 -4.64721,17.13651 l -4.64721,6.0928 4.3587,4.03951 c 3.26146,3.02261 4.67003,6.7253 5.59542,14.70854 0.68021,5.86799 2.92662,16.96225 4.99205,24.65394 2.06542,7.69168 3.32068,14.41951 2.78946,14.95072 -0.53122,0.53123 -2.64782,-0.71609 -4.70354,-2.77183 -2.05572,-2.05572 -3.73767,-2.89817 -3.73767,-1.87211 0,2.83414 6.85519,15.66508 9.11586,17.06224 3.02214,1.86779 10.60385,-2.92973 13.50936,-8.54836 2.23159,-4.31543 3.6181,-4.97786 10.16295,-4.85554 4.16834,0.0779 6.51745,0.56623 5.22025,1.08519 -1.29721,0.51896 -3.09374,2.87725 -3.99229,5.24062 -1.08924,2.86491 -3.05076,4.29707 -5.88532,4.29707 -2.33835,0 -5.78953,1.72873 -7.66926,3.84165 l -3.41772,3.84162 6.68045,-1.2229 c 8.08266,-1.4796 15.77422,2.71011 15.69109,8.5472 -0.0495,3.4731 -0.22574,3.53641 -1.88988,0.67884 -1.47307,-2.52948 -2.55408,-2.76684 -5.47695,-1.20257 -2.82454,1.51164 -4.34431,1.31303 -6.77331,-0.88519 -3.50147,-3.16877 -10.00464,-3.90917 -8.16301,-0.92937 0.64745,1.04762 3.11712,2.64231 5.48815,3.54377 3.32179,1.26295 4.31094,2.96649 4.31094,7.42451 0,4.49982 -0.47843,5.30705 -2.1529,3.63258 -1.1841,-1.1841 -3.54998,-2.15291 -5.25749,-2.15291 -1.83722,0 -3.33862,-1.62342 -3.67788,-3.97674 -0.32575,-2.25958 -2.89738,-5.16467 -5.95556,-6.72783 -2.96025,-1.51309 -5.81195,-3.32159 -6.33711,-4.01886 -0.52517,-0.69727 -5.57104,-1.03585 -11.21305,-0.75239 -11.08716,0.55703 -12.12812,-0.21669 -6.79052,-5.04714 2.51691,-2.27778 4.97641,-2.80683 8.97044,-1.9296 6.36132,1.39718 6.53201,0.94159 2.53962,-6.77885 -1.62973,-3.15153 -3.57868,-7.75363 -4.33101,-10.22691 -0.87947,-2.89117 -1.42295,-3.37577 -1.52209,-1.35717 -0.17833,3.63125 -2.95106,4.18388 -4.50065,0.89704 -1.30164,-2.76092 0.32118,6.19237 1.83961,10.14933 1.71247,4.46264 -1.78356,3.36112 -6.58859,-2.07593 l -4.36023,-4.93374 -0.55218,12.55861 c -0.84071,19.12061 0.3887,22.76964 11.37173,33.75269 10.11616,10.11616 12.76206,17.65712 6.97459,19.87799 -4.25739,1.63371 -4.61321,1.37768 -2.84994,-2.05066 2.48425,-4.83023 0.72918,-7.0656 -4.89894,-6.23957 -3.82663,0.56162 -5.90083,-0.31002 -8.22582,-3.45681 l -3.10892,-4.2078 1.00645,6.88791 c 1.23585,8.458 3.94799,11.95001 9.28119,11.95001 2.24047,0 4.47433,1.0443 4.96411,2.32065 0.66173,1.72442 -1.3632,2.24914 -7.88144,2.04232 -8.16717,-0.25916 -8.77196,0.0219 -8.77196,4.07659 0,2.39522 0.82602,5.89837 1.8356,7.7848 1.48108,2.76742 1.30782,3.22731 -0.89704,2.38124 -2.22765,-0.85483 -2.73265,0.64465 -2.73265,8.11376 0,5.03932 -0.80734,9.16239 -1.79408,9.16239 -0.98675,0 -1.79409,-4.08435 -1.79409,-9.07633 z M 148.57662,347.06524 c -1.98428,-2.39093 -1.81069,-2.73697 1.1764,-2.3451 1.9273,0.25282 5.64915,-0.14102 8.27081,-0.87507 4.5888,-1.28498 12.29465,1.20814 12.26202,3.96719 -0.009,0.70535 -4.37259,1.45689 -9.69832,1.67012 -6.95611,0.2785 -10.33868,-0.40224 -12.01091,-2.41714 z"
       id="path8079"
       inkscape:connector-curvature="0"
       sodipodi:nodetypes="csssssscssssssscsssscsscsssssssscssssscsssscsssssssscssssscssscscssssssssssssssscssssssssssssssscssscssssssssssssssssssscsssssssssscssscscssssssssssssssscscsssssssssscsssssscssssssssssssscscssscsssssssssssssssscsssssscsssssssssccssscss" />
  </g>
</svg>
