<?xml version="1.0" encoding="UTF-8" standalone="no"?>
<!-- Created with Inkscape (http://www.inkscape.org/) -->

<svg
   xmlns:dc="http://purl.org/dc/elements/1.1/"
   xmlns:cc="http://creativecommons.org/ns#"
   xmlns:rdf="http://www.w3.org/1999/02/22-rdf-syntax-ns#"
   xmlns:svg="http://www.w3.org/2000/svg"
   xmlns="http://www.w3.org/2000/svg"
   xmlns:sodipodi="http://sodipodi.sourceforge.net/DTD/sodipodi-0.dtd"
   xmlns:inkscape="http://www.inkscape.org/namespaces/inkscape"
   width="53.249054mm"
   height="82.521202mm"
   viewBox="0 0 188.67775 292.39796"
   id="svg8151"
   version="1.1"
   inkscape:version="0.91 r13725"
   sodipodi:docname="falcon.svg">
  <defs
     id="defs8153" />
  <sodipodi:namedview
     id="base"
     pagecolor="#ffffff"
     bordercolor="#666666"
     borderopacity="1.0"
     inkscape:pageopacity="0.0"
     inkscape:pageshadow="2"
     inkscape:zoom="1"
     inkscape:cx="-95.866418"
     inkscape:cy="87.133656"
     inkscape:document-units="px"
     inkscape:current-layer="layer1"
     showgrid="false"
     fit-margin-top="0"
     fit-margin-left="0"
     fit-margin-right="0"
     fit-margin-bottom="0"
     inkscape:window-width="1920"
     inkscape:window-height="1005"
     inkscape:window-x="-9"
     inkscape:window-y="-9"
     inkscape:window-maximized="1" />
  <metadata
     id="metadata8156">
    <rdf:RDF>
      <cc:Work
         rdf:about="">
        <dc:format>image/svg+xml</dc:format>
        <dc:type
           rdf:resource="http://purl.org/dc/dcmitype/StillImage" />
        <dc:title></dc:title>
      </cc:Work>
    </rdf:RDF>
  </metadata>
  <g
     inkscape:label="Layer 1"
     inkscape:groupmode="layer"
     id="layer1"
     transform="translate(-93.723561,-327.09788)">
    <path
       inkscape:connector-curvature="0"
       id="path8104"
       d="m 194.6296,617.18473 c 0.52077,-2.07093 -1.06267,-4.40009 -4.39007,-6.45752 -2.86254,-1.77002 -6.4666,-3.99452 -8.009,-4.94333 -5.94314,-3.65596 -22.41491,-6.33474 -25.12453,-4.08596 -4.12387,3.42252 -5.7252,-1.37988 -1.87771,-5.63129 3.65979,-4.04405 8.57098,-4.61193 14.13456,-1.63439 2.04197,1.09284 5.34288,1.72383 7.33532,1.40218 3.19316,-0.51546 2.83477,-1.41654 -3.02318,-7.60059 -5.28355,-5.57773 -7.57879,-6.78167 -11.19738,-5.87346 -3.34181,0.83875 -4.55158,0.37958 -4.55158,-1.72758 0,-1.57847 -1.29737,-3.14198 -2.88305,-3.47444 -2.29872,-0.48196 -1.53436,-2.84 3.77114,-11.63416 8.99276,-14.906 7.05128,-15.51247 -2.41731,-0.7551 -11.82529,18.43042 -13.52339,20.41666 -16.95763,19.83484 -1.77004,-0.29986 -5.28105,0.80639 -7.80223,2.45835 -4.84191,3.17252 -20.45035,4.18239 -20.45035,1.32312 0,-0.92423 -1.62731,-0.80949 -3.61624,0.25495 -4.9722,2.66102 -6.32054,2.4275 -5.05317,-0.87522 0.88386,-2.30332 0.18763,-2.22686 -3.857555,0.42364 l -4.936074,3.23426 1.216047,-6.08024 c 2.082241,-10.41126 15.795982,-28.02342 41.635412,-53.47114 21.72919,-21.39977 30.96217,-33.26512 28.10695,-36.12033 -0.45483,-0.45485 -2.52632,0.0824 -4.60332,1.19408 -5.39074,2.88503 -6.30747,2.53688 -4.91041,-1.86487 1.03773,-3.26955 0.53878,-3.78849 -3.14577,-3.27176 -3.22803,0.45272 -4.31087,-0.24586 -4.11946,-2.6576 0.16284,-2.05287 -1.05597,-3.27176 -3.27176,-3.27176 -2.3448,0 -3.53142,-1.32362 -3.53142,-3.93918 0,-2.73339 -0.85842,-3.60978 -2.80437,-2.86305 -3.25257,1.24813 -3.75069,-2.89285 -0.97242,-8.08407 1.50514,-2.81236 1.00484,-3.6306 -2.80437,-4.58665 -2.54997,-0.63999 -4.6363,-2.31145 -4.6363,-3.71434 0,-1.40288 -1.89295,-3.08329 -4.20655,-3.73426 -3.90786,-1.09951 -3.97655,-1.36024 -0.96749,-3.67199 2.98753,-2.29521 2.84234,-2.67793 -1.86957,-4.92826 l -5.10864,-2.43982 4.67394,-1.25469 c 4.51036,-1.21076 4.53535,-1.30061 0.71396,-2.56704 -2.17799,-0.72181 -5.46328,-2.97353 -7.30066,-5.00379 -3.21199,-3.54921 -3.20737,-3.69143 0.12021,-3.69143 2.81928,0 2.28513,-1.21307 -2.88135,-6.54351 l -6.34222,-6.54352 5.3772,0 5.37722,0 -7.81483,-6.68922 c -8.13275,-6.96133 -9.729018,-10.13697 -5.09544,-10.13697 1.87167,0 1.28887,-1.43053 -1.86958,-4.58897 -6.463105,-6.46309 -5.647689,-12.36252 0.85156,-6.1611 1.34706,1.28534 0.67402,-1.20509 -1.49566,-5.53426 -4.847143,-9.67153 -5.168392,-13.2326 -0.87207,-9.66696 2.37999,1.9752 2.16923,0.77903 -0.93479,-5.30534 -3.879909,-7.60527 -5.536373,-18.51789 -2.528729,-16.65907 0.813378,0.5027 1.190789,-2.1819 0.838692,-5.96578 -0.604154,-6.49281 -0.477022,-6.67566 2.260297,-3.25069 1.59526,1.996 2.91334,4.94058 2.92909,6.54352 0.0237,2.42135 0.30951,2.4708 1.68879,0.29225 1.24523,-1.96681 2.85179,-0.33132 6.42784,6.54352 4.04799,7.78211 4.80309,8.46015 5.00233,4.49175 0.22589,-4.49936 0.30914,-4.46445 2.22927,0.93479 2.14603,6.03455 12.84588,21.94425 13.98927,20.80084 0.38121,-0.38119 -0.7591,-4.37601 -2.53402,-8.87737 -1.7749,-4.50136 -3.37569,-13.23217 -3.5573,-19.40178 -0.18154,-6.1696 -0.96689,-15.25252 -1.74506,-20.1843 -1.82112,-11.54155 -0.32054,-12.85887 4.36191,-3.82921 l 3.72707,7.18733 -1.0337,-7.9457 c -1.58666,-12.19602 2.2034,-9.569 5.90072,4.08999 1.79185,6.61963 4.4139,13.56043 5.82675,15.42401 2.45296,3.23547 2.57385,3.21964 2.67976,-0.35084 0.0609,-2.05654 3.3567,3.10602 7.32379,11.47233 3.96709,8.36632 10.79733,20.48982 15.17832,26.94113 9.0553,13.33451 13.02787,24.67345 13.02787,37.18554 0,8.78422 3.92011,16.94505 8.13969,16.94505 1.2754,0 5.54565,-3.30447 9.48942,-7.34326 l 7.1705,-7.34327 -9.19869,-5.66001 c -6.66579,-4.1015 -10.16302,-7.87096 -12.70084,-13.68947 -1.92616,-4.4162 -4.23745,-8.51798 -5.13617,-9.11507 -0.89873,-0.59708 -1.81491,-5.00811 -2.03595,-9.80228 -0.22104,-4.79415 -1.03289,-8.72251 -1.80409,-8.72967 -0.7712,-0.007 -1.40218,-1.20017 -1.40218,-2.65117 0,-3.10961 10.42057,-12.31845 13.93934,-12.31845 1.33925,0 7.18345,-2.17391 12.98713,-4.83092 8.3023,-3.80092 12.13727,-4.56311 17.98689,-3.57481 4.08914,0.69084 7.43478,1.9994 7.43478,2.90788 0,0.90848 2.73426,2.35529 6.07613,3.21513 5.21256,1.34116 6.15107,2.47803 6.60353,7.99917 0.35298,4.30721 -0.0303,5.60202 -1.1588,3.91488 -1.88246,-2.81428 -9.05582,-2.21626 -8.12013,0.67695 0.328,1.01419 -1.77528,2.85767 -4.67394,4.09662 l -5.2703,2.25265 6.45004,0.0843 c 9.78353,0.12788 4.41109,3.93258 -7.63406,5.40633 -7.41802,0.9076 -10.14537,2.06229 -10.61301,4.49326 -0.48147,2.50288 0.63304,3.27176 4.74252,3.27176 2.95453,0 6.17113,0.73968 7.14799,1.64373 0.97685,0.90405 4.75596,2.59413 8.39798,3.75576 8.47392,2.70271 23.41995,20.19911 26.27823,30.76229 5.30294,19.59763 -2.39356,46.70621 -18.55904,65.36866 -7.7649,8.96428 -7.7766,9.00078 -4.75836,14.83745 2.20395,4.26194 2.75802,8.80305 2.04012,16.72027 -0.54208,5.97809 -0.31913,10.86924 0.4954,10.86924 3.56962,0 19.69274,-12.49027 20.31069,-15.7343 0.37528,-1.97013 -0.33817,-6.67419 -1.58544,-10.4535 -1.90852,-5.78288 -1.784,-7.80698 0.78595,-12.77674 1.9541,-3.77883 4.46536,-5.9053 6.9738,-5.9053 3.04063,0 3.45926,0.55524 1.86607,2.47492 -1.45754,1.75625 -1.47373,3.05523 -0.0557,4.47323 1.41802,1.41802 1.36111,3.1889 -0.19595,6.0983 -2.9996,5.60478 -0.29784,7.60278 3.21504,2.37755 2.98195,-4.43549 14.1159,-6.02267 16.39381,-2.33697 0.65532,1.06035 -0.91538,1.86958 -3.62883,1.86958 -2.63135,0 -4.78428,0.79913 -4.78428,1.77586 0,0.97672 -2.55177,5.55684 -5.6706,10.17808 -4.16108,6.16553 -5.35646,9.65388 -4.49051,13.10407 1.39919,5.5748 5.47348,9.40122 8.20964,7.71019 1.07331,-0.66334 1.95147,0.015 1.95147,1.5086 0,2.75325 -3.80042,4.98431 -8.49035,4.98431 -1.41669,0 -4.63662,-2.22252 -7.15543,-4.93894 l -4.57964,-4.93893 -12.61953,6.93656 c -8.37994,4.6062 -14.0244,6.58397 -16.80123,5.88703 -2.65665,-0.66678 -4.55201,-0.0845 -5.19705,1.5964 -0.94488,2.46234 -4.22062,2.43686 -12.30677,-0.0957 -2.01944,-0.63247 -2.1306,-1.34882 -0.46739,-3.01203 3.36812,-3.36812 2.60054,-4.9011 -2.02434,-4.04298 -2.3136,0.42927 -3.16243,0.2829 -1.88627,-0.32527 1.77514,-0.84597 1.66871,-1.75733 -0.45306,-3.87907 -3.10344,-3.10346 -6.54116,-1.88865 -6.54116,2.31149 0,4.22726 -8.46054,19.95621 -12.88495,23.95437 -5.06136,4.57372 -4.96636,5.97571 0.98697,14.56636 5.45804,7.87595 10.20906,8.88778 23.30661,4.96367 8.28665,-2.48274 12.93629,-0.0982 12.83641,6.58319 -0.0537,3.5874 -0.28995,3.67467 -2.4088,0.88953 -1.57979,-2.0766 -4.01895,-2.76896 -7.44648,-2.11375 -6.29937,1.2042 -8.57061,4.26707 -3.16418,4.26707 3.3336,0 3.87428,0.94834 3.3821,5.93215 -0.32222,3.26267 -1.57129,6.2553 -2.77571,6.65027 -1.39134,0.45627 -1.82313,-0.68427 -1.18413,-3.12778 0.78318,-2.99492 0.12227,-3.84591 -2.9871,-3.84591 -3.28928,0 -3.79292,0.79651 -2.8583,4.52032 0.83832,3.34013 0.1634,5.0401 -2.58523,6.5111 -3.11292,1.66598 -3.58688,1.46229 -2.90517,-1.24858 z M 223.6168,381.5799 c -1.34878,-0.44959 -3.34123,0.0714 -4.42764,1.15787 -1.38736,1.38734 -0.65742,1.63066 2.45234,0.81744 2.52804,-0.66111 3.37552,-1.50857 1.9753,-1.97531 z"
       style="fill:#000000"
       sodipodi:nodetypes="csssssssssssssssssscssccsscssssssssscssssscccsssssssssscsssscscsscssscssssscsssscsssssssssscsssssssssssssssssssssssssssscsscsssssssssssssssssssccscss" />
  </g>
</svg>
