<?xml version="1.0" encoding="UTF-8" standalone="no"?>
<!-- Created with Inkscape (http://www.inkscape.org/) -->
<svg
   xmlns:dc="http://purl.org/dc/elements/1.1/"
   xmlns:cc="http://creativecommons.org/ns#"
   xmlns:rdf="http://www.w3.org/1999/02/22-rdf-syntax-ns#"
   xmlns:svg="http://www.w3.org/2000/svg"
   xmlns="http://www.w3.org/2000/svg"
   xmlns:sodipodi="http://sodipodi.sourceforge.net/DTD/sodipodi-0.dtd"
   xmlns:inkscape="http://www.inkscape.org/namespaces/inkscape"
   width="200"
   height="150"
   id="svg2"
   sodipodi:version="0.32"
   inkscape:version="0.46"
   version="1.0"
   sodipodi:docname="leopard_passant.svg"
   inkscape:output_extension="org.inkscape.output.svg.inkscape">
  <defs
     id="defs4">
    <inkscape:perspective
       sodipodi:type="inkscape:persp3d"
       inkscape:vp_x="0 : 526.18109 : 1"
       inkscape:vp_y="0 : 1000 : 0"
       inkscape:vp_z="744.09448 : 526.18109 : 1"
       inkscape:persp3d-origin="372.04724 : 350.78739 : 1"
       id="perspective10" />
    <inkscape:perspective
       id="perspective8826"
       inkscape:persp3d-origin="372.04724 : 350.78739 : 1"
       inkscape:vp_z="744.09448 : 526.18109 : 1"
       inkscape:vp_y="0 : 1000 : 0"
       inkscape:vp_x="0 : 526.18109 : 1"
       sodipodi:type="inkscape:persp3d" />
    <inkscape:perspective
       sodipodi:type="inkscape:persp3d"
       inkscape:vp_x="0 : 526.18109 : 1"
       inkscape:vp_y="0 : 1000 : 0"
       inkscape:vp_z="744.09448 : 526.18109 : 1"
       inkscape:persp3d-origin="372.04724 : 350.78739 : 1"
       id="perspective2459" />
    <inkscape:perspective
       sodipodi:type="inkscape:persp3d"
       inkscape:vp_x="0 : 526.18109 : 1"
       inkscape:vp_y="0 : 1000 : 0"
       inkscape:vp_z="744.09448 : 526.18109 : 1"
       inkscape:persp3d-origin="372.04724 : 350.78739 : 1"
       id="perspective2410" />
    <inkscape:perspective
       id="perspective2425"
       inkscape:persp3d-origin="372.04724 : 350.78739 : 1"
       inkscape:vp_z="744.09448 : 526.18109 : 1"
       inkscape:vp_y="0 : 1000 : 0"
       inkscape:vp_x="0 : 526.18109 : 1"
       sodipodi:type="inkscape:persp3d" />
    <inkscape:perspective
       id="perspective3257"
       inkscape:persp3d-origin="372.04724 : 350.78739 : 1"
       inkscape:vp_z="744.09448 : 526.18109 : 1"
       inkscape:vp_y="0 : 1000 : 0"
       inkscape:vp_x="0 : 526.18109 : 1"
       sodipodi:type="inkscape:persp3d" />
    <inkscape:perspective
       id="perspective2492"
       inkscape:persp3d-origin="372.04724 : 350.78739 : 1"
       inkscape:vp_z="744.09448 : 526.18109 : 1"
       inkscape:vp_y="0 : 1000 : 0"
       inkscape:vp_x="0 : 526.18109 : 1"
       sodipodi:type="inkscape:persp3d" />
    <inkscape:perspective
       id="perspective3181"
       inkscape:persp3d-origin="372.04724 : 350.78739 : 1"
       inkscape:vp_z="744.09448 : 526.18109 : 1"
       inkscape:vp_y="0 : 1000 : 0"
       inkscape:vp_x="0 : 526.18109 : 1"
       sodipodi:type="inkscape:persp3d" />
    <inkscape:perspective
       id="perspective3085"
       inkscape:persp3d-origin="372.04724 : 350.78739 : 1"
       inkscape:vp_z="744.09448 : 526.18109 : 1"
       inkscape:vp_y="0 : 1000 : 0"
       inkscape:vp_x="0 : 526.18109 : 1"
       sodipodi:type="inkscape:persp3d" />
    <inkscape:perspective
       id="perspective3009"
       inkscape:persp3d-origin="372.04724 : 350.78739 : 1"
       inkscape:vp_z="744.09448 : 526.18109 : 1"
       inkscape:vp_y="0 : 1000 : 0"
       inkscape:vp_x="0 : 526.18109 : 1"
       sodipodi:type="inkscape:persp3d" />
  </defs>
  <sodipodi:namedview
     id="base"
     pagecolor="#ffffff"
     bordercolor="#666666"
     borderopacity="1.0"
     gridtolerance="10000"
     guidetolerance="10"
     objecttolerance="10"
     inkscape:pageopacity="0.0"
     inkscape:pageshadow="2"
     inkscape:zoom="3.2236842"
     inkscape:cx="100"
     inkscape:cy="114"
     inkscape:document-units="px"
     inkscape:current-layer="layer1"
     showgrid="false"
     inkscape:window-width="1679"
     inkscape:window-height="963"
     inkscape:window-x="1"
     inkscape:window-y="57" />
  <metadata
     id="metadata7">
    <rdf:RDF>
      <cc:Work
         rdf:about="">
        <dc:format>image/svg+xml</dc:format>
        <dc:type
           rdf:resource="http://purl.org/dc/dcmitype/StillImage" />
      </cc:Work>
    </rdf:RDF>
  </metadata>
  <g
     inkscape:label="Layer 1"
     inkscape:groupmode="layer"
     id="layer1"
     transform="translate(-292.049,-311.89686)">
    <g
       id="g2570"
       transform="translate(242.049,236.89686)">
      <path
         id="path6445"
         d="M 219.93687,224.07719 C 218.92019,223.36309 218.53728,222.45607 218.53724,220.76185 C 218.53719,218.21237 210.86998,217.11474 208.25306,219.28958 C 207.68391,219.76258 206.78956,219.98463 206.26562,219.78301 C 201.72066,218.03406 213.76482,205.48394 219.98823,205.48394 C 225.69427,205.48394 224.18092,202.31955 215.38865,195.86631 C 209.49106,191.53768 205.6977,187.44408 203.97615,183.55054 C 200.365,175.38346 200.75873,175.73986 198.07114,178.20522 C 194.53775,181.44645 193.98715,182.77399 195.22008,185.07938 C 196.61758,187.69246 196.21438,191.19796 194.56604,190.7657 C 193.22648,190.41442 192.08872,193.02514 192.08872,196.45022 C 192.08872,199.14451 194.62717,201.97429 196.5073,201.37589 C 198.33335,200.7947 198.14551,203.0026 196.21411,204.82215 C 195.14956,205.82505 194.17443,206.17962 193.06547,205.96704 C 191.7192,205.70896 191.45899,205.89481 191.45899,207.11444 C 191.45899,208.66029 189.3532,210.53589 187.61762,210.53589 C 187.04439,210.53589 186.22261,210.96214 185.79144,211.48313 C 185.3294,212.04142 183.94022,212.43434 182.40827,212.44004 C 178.80265,212.45345 178.44767,212.84118 177.93337,217.32768 C 177.3941,222.03203 175.74508,223.79725 171.88967,223.79725 C 168.87779,223.79725 168.26412,222.85997 170.03698,220.96756 C 172.60113,218.2305 167.39056,214.39323 164.52993,216.91195 C 163.38469,217.9203 161.94019,218.7453 161.31992,218.7453 C 160.09548,218.7453 157.45369,221.22877 157.45369,222.37982 C 157.45369,223.68565 156.15549,223.91705 154.59222,222.88989 C 153.4796,222.15882 153.04513,221.30182 153.04394,219.83586 C 153.04198,217.42551 146.39091,216.46794 144.09888,218.54801 C 139.94372,222.31893 140.31849,216.54485 144.54427,211.68591 C 146.4492,209.49556 148.00777,207.48824 148.00777,207.22519 C 148.00777,206.96214 148.34136,206.74692 148.74907,206.74692 C 149.15679,206.74692 150.2686,205.82337 151.21978,204.69457 C 152.52536,203.14518 153.17084,202.79698 153.85365,203.27371 C 154.35111,203.62103 155.52871,204.44991 156.47055,205.11566 C 158.18299,206.32612 158.18299,206.32612 160.68094,203.53692 C 164.46659,199.30991 166.43812,193.18195 164.41568,191.9285 C 163.7605,191.52244 163.94006,186.86562 164.67829,185.11827 C 165.01131,184.33001 164.85503,184.01315 164.13321,184.01315 C 162.64776,184.01315 162.87968,181.84837 164.71911,178.5444 C 166.02676,176.19561 166.17405,175.50161 165.53004,174.72345 C 164.69571,173.71533 166.19722,172.01477 167.92168,172.01477 C 168.35142,172.01477 169.33563,171.09122 170.10881,169.96242 C 171.60551,167.77734 175.08721,164.4408 175.87323,164.43833 C 176.13299,164.43752 176.34553,164.02059 176.34553,163.51183 C 176.34553,159.5657 160.9167,162.23404 145.174,168.90279 C 137.90012,171.98408 132.65482,172.86852 123.69453,172.52459 C 119.7493,172.37315 116.52138,172.35726 116.52138,172.48927 C 116.52138,173.82572 118.11273,175.17224 119.69217,175.17224 C 120.71904,175.17224 121.5592,175.46059 121.5592,175.81302 C 121.5592,176.75686 117.69325,178.95611 116.02932,178.95884 C 114.57859,178.96123 114.39235,179.2239 113.75616,182.16484 C 113.56284,183.05853 112.71322,184.81149 111.86812,186.06031 C 110.25098,188.44996 110.32266,189.0651 112.21824,189.0651 C 113.71481,189.0651 113.67624,189.77085 112.06758,191.82166 C 111.18862,192.94221 110.16043,193.48556 108.91894,193.48556 C 107.21854,193.48556 107.07546,193.6639 107.07546,195.78336 C 107.07546,198.22277 102.59849,204.4589 97.838309,208.65011 C 95.824423,210.42329 95.637886,210.89779 95.414352,214.81609 C 95.12067,219.96399 93.487605,221.90277 89.445131,221.90277 C 86.399975,221.90277 85.760317,220.97559 87.514018,219.10362 C 88.865545,217.66095 88.865545,217.66095 86.67098,215.46024 C 84.476415,213.25951 84.476415,213.25951 83.731333,215.06334 C 83.321539,216.05545 81.605263,218.02665 79.917389,219.44378 C 78.229514,220.86091 76.848525,222.40341 76.848525,222.87155 C 76.848525,224.30781 75.611494,224.58874 73.987057,223.52138 C 72.849373,222.77385 72.44043,221.94048 72.44043,220.36957 C 72.44043,218.23399 72.44043,218.23399 69.764087,218.54164 C 65.852586,218.99128 65.513424,219.17932 65.513424,220.89844 C 65.513424,223.31445 64.224116,223.59071 62.56124,221.53102 C 61.131535,219.76013 61.055184,218.73081 62.142721,215.88879 C 62.511966,214.92385 62.395413,214.89782 61.043382,215.64327 C 60.211577,216.1019 58.259043,216.63226 56.704416,216.82185 C 54.522054,217.088 53.826374,217.45443 53.652085,218.42956 C 53.275922,220.53415 52.419189,220.95356 51.044563,219.70605 C 46.13947,215.25455 59.787705,201.20842 65.499041,204.83016 C 67.704484,206.22871 70.426669,201.43908 74.935374,188.22714 C 80.527991,171.83898 80.794068,167.67602 76.540381,163.11573 C 74.715279,161.15908 73.441469,159.06562 72.946269,157.20893 C 72.272916,154.68428 71.968928,154.33295 70.457803,154.33295 C 67.983927,154.33295 67.649988,153.22353 69.531176,151.25449 C 70.985219,149.73254 71.098161,149.29885 70.544558,147.36314 C 69.644243,144.21512 69.719954,143.87172 71.850968,141.43783 C 73.780416,139.23414 73.780416,139.23414 71.706712,138.69529 C 69.633008,138.15643 69.633008,138.15643 71.667256,136.9514 C 73.747742,135.71898 74.724181,134.01327 74.011328,132.85662 C 73.79156,132.50003 74.481713,131.10677 75.545001,129.7605 C 76.60829,128.41422 77.478253,126.8474 77.478253,126.27867 C 77.478253,125.70993 77.974164,125.06825 78.580277,124.85269 C 82.415167,123.48888 82.382818,121.49528 78.525798,121.49528 C 77.064728,121.49528 75.260887,121.06794 74.517264,120.54562 C 73.25221,119.65706 73.063324,119.72652 71.581461,121.6253 C 70.071255,123.5604 69.942447,123.6045 68.808001,122.57497 C 68.153666,121.98114 67.303117,121.49528 66.917891,121.49528 C 65.3884,121.49528 65.463479,120.03794 67.080146,118.34577 C 68.310708,117.05774 68.667212,116.19145 68.362681,115.22926 C 68.010162,114.11546 68.365336,113.7061 70.52583,112.73611 C 73.11075,111.57556 73.11075,111.57556 69.469518,111.19201 C 65.359192,110.75906 61.735057,109.64753 61.735057,108.81985 C 61.735057,107.70611 65.534503,106.33944 68.630791,106.33944 C 72.414072,106.33944 72.512076,106.00025 69.552927,103.14797 C 66.892571,100.5837 65.513424,98.152987 65.513424,96.028467 C 65.513424,95.185447 65.088357,94.141937 64.568832,93.709557 C 61.716443,91.335647 65.215099,88.518167 75.581249,84.841207 C 84.905096,81.533957 85.176111,81.398317 86.868944,79.191837 C 90.007206,75.101357 95.199347,73.611683 96.246404,76.501358 C 97.781632,80.738287 98.249218,80.868797 102.78357,78.325927 C 107.44477,75.711929 108.35134,75.564445 109.81164,77.182577 C 111.23554,78.760387 111.28964,87.752637 109.8873,89.760377 C 108.99626,91.036067 109.04023,91.330697 110.45003,93.531977 C 112.6146,96.911767 113.80295,101.2398 114.62752,108.74667 C 116.05871,121.77618 117.36729,124.64864 122.81866,126.72704 C 131.08403,129.87831 130.59204,129.83697 146.59144,128.72431 C 170.12829,127.08746 183.31233,128.31857 200.59005,133.76666 C 219.85043,139.83993 224.13927,139.77103 230.9851,133.27837 C 242.49305,122.36411 242.4454,106.15103 230.88795,100.22928 C 223.10034,96.239097 213.10071,98.732407 218.65607,103.27918 C 222.54665,106.46342 218.40999,109.18962 212.66589,107.22691 C 203.8095,104.20078 206.49669,94.601997 217.35893,90.463097 C 228.94608,86.047977 246.27194,96.750397 249.37782,110.24159 C 253.1545,126.64665 239.06289,149.9125 225.35,149.9125 C 223.84026,149.9125 223.81342,152.83549 225.29456,155.95019 C 226.28765,158.03854 226.29539,158.30695 225.38191,158.97677 C 223.25511,160.5363 226.89053,164.43685 230.47085,164.43685 C 231.18075,164.43685 231.76158,164.67698 231.76158,164.97047 C 231.76158,165.99216 229.44837,167.59432 227.97324,167.59432 C 226.48812,167.59432 226.48812,167.59432 228.10331,169.33093 C 230.31238,171.70606 230.93056,173.06833 231.47039,176.75098 C 232.60481,184.4898 237.6483,189.6966 244.01,189.6966 C 247.05365,189.6966 247.39802,190.16383 246.00448,192.40266 C 245.52567,193.17191 244.98009,195.80543 244.79209,198.2549 C 244.43546,202.9014 242.26216,208.88377 240.35774,210.46115 C 239.38602,211.266 239.38392,211.392 240.33066,212.08622 C 242.00369,213.31299 240.96304,220.24421 238.85632,221.90601 C 235.50186,224.55202 230.37402,223.14956 233.03146,220.3129 C 234.4333,218.81654 234.4333,218.81654 232.62514,217.2222 C 230.81699,215.62787 230.81699,215.62787 229.02416,217.81808 C 228.0381,219.02269 226.88314,220.00829 226.45758,220.00829 C 225.53793,220.00829 223.29371,222.39354 222.74413,223.95513 C 222.26539,225.31536 221.73264,225.33853 219.93687,224.07719 z"
         style="fill:#ffff00;fill-opacity:1" />
      <path
         id="path3013"
         d="M 219.93687,224.07719 C 218.9202,223.36309 218.53728,222.45606 218.53725,220.76185 C 218.5372,218.21237 210.86998,217.11474 208.25307,219.28957 C 207.68391,219.76258 206.78956,219.98463 206.26562,219.78301 C 201.72066,218.03406 213.76482,205.48393 219.98823,205.48393 C 225.69427,205.48393 224.18092,202.31955 215.38866,195.86631 C 209.49107,191.53768 205.69771,187.44408 203.97615,183.55054 C 200.36501,175.38346 200.75873,175.73986 198.07114,178.20522 C 194.53775,181.44645 193.98715,182.77399 195.22009,185.07938 C 196.61758,187.69246 196.21438,191.19796 194.56604,190.7657 C 193.22648,190.41441 192.08873,193.02513 192.08873,196.45022 C 192.08873,199.14451 194.62718,201.97429 196.50731,201.37589 C 198.33335,200.7947 198.14551,203.0026 196.21412,204.82215 C 195.14956,205.82505 194.17443,206.17962 193.06548,205.96703 C 191.7192,205.70895 191.459,205.8948 191.459,207.11443 C 191.459,208.66029 189.35321,210.53588 187.61762,210.53588 C 187.04439,210.53588 186.22262,210.96214 185.79145,211.48312 C 185.3294,212.04142 183.94022,212.43434 182.40827,212.44003 C 178.80266,212.45345 178.44767,212.84118 177.93338,217.32767 C 177.39411,222.03202 175.74508,223.79725 171.88968,223.79725 C 168.87779,223.79725 168.26412,222.85997 170.03698,220.96756 C 172.60113,218.23049 167.39057,214.39323 164.52993,216.91194 C 163.3847,217.92029 161.9402,218.7453 161.31992,218.7453 C 160.09548,218.7453 157.45369,221.22877 157.45369,222.37982 C 157.45369,223.68565 156.1555,223.91705 154.59222,222.88988 C 153.47961,222.15882 153.04513,221.30181 153.04394,219.83586 C 153.04198,217.42551 146.39091,216.46794 144.09888,218.54801 C 139.94373,222.31892 140.31849,216.54484 144.54427,211.68591 C 146.4492,209.49556 148.00777,207.48824 148.00777,207.22519 C 148.00777,206.96214 148.34136,206.74692 148.74907,206.74692 C 149.15679,206.74692 150.2686,205.82336 151.21978,204.69457 C 152.52537,203.14518 153.17084,202.79697 153.85365,203.27371 C 154.35111,203.62103 155.52872,204.44991 156.47056,205.11565 C 158.18299,206.32611 158.18299,206.32611 160.68095,203.53692 C 164.46659,199.3099 166.43812,193.18195 164.41568,191.9285 C 163.7605,191.52244 163.94007,186.86562 164.67829,185.11827 C 165.01131,184.33 164.85503,184.01315 164.13321,184.01315 C 162.64776,184.01315 162.87969,181.84837 164.71912,178.5444 C 166.02676,176.19561 166.17406,175.50161 165.53005,174.72344 C 164.69571,173.71533 166.19723,172.01477 167.92168,172.01477 C 168.35142,172.01477 169.33564,171.09121 170.10882,169.96242 C 171.60551,167.77734 175.08721,164.4408 175.87323,164.43833 C 176.133,164.43752 176.34553,164.02059 176.34553,163.51182 C 176.34553,159.5657 160.9167,162.23403 145.174,168.90279 C 137.90012,171.98408 132.65482,172.86852 123.69453,172.52458 C 119.7493,172.37314 116.52138,172.35726 116.52138,172.48927 C 116.52138,173.82571 118.11273,175.17224 119.69217,175.17224 C 120.71904,175.17224 121.5592,175.46059 121.5592,175.81302 C 121.5592,176.75686 117.69325,178.95611 116.02932,178.95884 C 114.5786,178.96123 114.39235,179.2239 113.75616,182.16483 C 113.56284,183.05853 112.71322,184.81149 111.86812,186.06031 C 110.25099,188.44996 110.32266,189.0651 112.21825,189.0651 C 113.71482,189.0651 113.67624,189.77084 112.06758,191.82166 C 111.18862,192.94221 110.16043,193.48556 108.91894,193.48556 C 107.21855,193.48556 107.07547,193.6639 107.07547,195.78336 C 107.07547,198.22277 102.5985,204.45889 97.838308,208.65011 C 95.824428,210.42328 95.637888,210.89779 95.414358,214.81608 C 95.120668,219.96399 93.487608,221.90277 89.445132,221.90277 C 86.399976,221.90277 85.760317,220.97559 87.514019,219.10362 C 88.865546,217.66095 88.865546,217.66095 86.670981,215.46023 C 84.476416,213.25951 84.476416,213.25951 83.731334,215.06334 C 83.321539,216.05545 81.605264,218.02664 79.917389,219.44378 C 78.229515,220.86091 76.848526,222.4034 76.848526,222.87154 C 76.848526,224.30781 75.611495,224.58873 73.987057,223.52138 C 72.849373,222.77385 72.440431,221.94048 72.440431,220.36957 C 72.440431,218.23399 72.440431,218.23399 69.764087,218.54164 C 65.852587,218.99127 65.513424,219.17932 65.513424,220.89844 C 65.513424,223.31445 64.224117,223.59071 62.56124,221.53102 C 61.131535,219.76013 61.055184,218.73081 62.142721,215.88878 C 62.511966,214.92385 62.395413,214.89782 61.043383,215.64327 C 60.211578,216.10189 58.259043,216.63225 56.704416,216.82185 C 54.522054,217.088 53.826374,217.45443 53.652085,218.42955 C 53.275922,220.53415 52.419189,220.95355 51.044563,219.70604 C 46.13947,215.25455 59.787705,201.20842 65.499042,204.83016 C 67.704484,206.22871 70.426669,201.43908 74.935375,188.22713 C 80.527992,171.83898 80.794069,167.67602 76.540382,163.11573 C 74.715279,161.15908 73.441469,159.06562 72.94627,157.20893 C 72.272916,154.68428 71.968928,154.33295 70.457803,154.33295 C 67.983927,154.33295 67.649988,153.22353 69.531177,151.25449 C 70.98522,149.73254 71.098161,149.29885 70.544559,147.36314 C 69.644243,144.21512 69.719955,143.87172 71.850968,141.43783 C 73.780417,139.23414 73.780417,139.23414 71.706713,138.69529 C 69.633009,138.15643 69.633009,138.15643 71.667256,136.9514 C 73.747743,135.71898 74.724182,134.01327 74.011329,132.85662 C 73.79156,132.50003 74.481713,131.10678 75.545002,129.7605 C 76.60829,128.41422 77.478254,126.8474 77.478254,126.27867 C 77.478254,125.70994 77.974164,125.06825 78.580277,124.8527 C 82.415168,123.48889 82.382819,121.49529 78.525799,121.49529 C 77.064728,121.49529 75.260888,121.06794 74.517264,120.54562 C 73.252211,119.65706 73.063325,119.72653 71.581462,121.62531 C 70.071256,123.5604 69.942447,123.60451 68.808001,122.57497 C 68.153666,121.98114 67.303117,121.49529 66.917891,121.49529 C 65.3884,121.49529 65.46348,120.03794 67.080147,118.34577 C 68.310709,117.05774 68.667213,116.19145 68.362681,115.22927 C 68.010163,114.11546 68.365336,113.70611 70.525831,112.73611 C 73.11075,111.57556 73.11075,111.57556 69.469519,111.19202 C 65.359192,110.75906 61.735057,109.64753 61.735057,108.81985 C 61.735057,107.70611 65.534503,106.33944 68.630791,106.33944 C 72.414072,106.33944 72.512077,106.00025 69.552927,103.14798 C 66.892572,100.5837 65.513424,98.152998 65.513424,96.028477 C 65.513424,95.185452 65.088358,94.141943 64.568832,93.709566 C 61.716443,91.335655 65.215099,88.518169 75.58125,84.841209 C 84.905097,81.533963 85.176112,81.398323 86.868945,79.191846 C 90.007207,75.101363 95.199348,73.611689 96.246408,76.501364 C 97.781628,80.738295 98.249218,80.868801 102.78358,78.325934 C 107.44478,75.711935 108.35134,75.564451 109.81164,77.182582 C 111.23555,78.760396 111.28964,87.752646 109.8873,89.760383 C 108.99627,91.036073 109.04023,91.330705 110.45003,93.531983 C 112.6146,96.911776 113.80295,101.2398 114.62752,108.74667 C 116.05871,121.77618 117.36729,124.64864 122.81866,126.72704 C 131.08403,129.87831 130.59204,129.83697 146.59144,128.72431 C 170.12829,127.08746 183.31233,128.31858 200.59005,133.76666 C 219.85044,139.83993 224.13927,139.77102 230.98511,133.27837 C 242.49306,122.36411 242.4454,106.15103 230.88795,100.22929 C 223.10034,96.239107 213.10072,98.732413 218.65608,103.27918 C 222.54665,106.46342 218.41,109.18962 212.66589,107.22692 C 203.8095,104.20078 206.49669,94.602003 217.35893,90.463104 C 228.94608,86.047987 246.27195,96.750401 249.37782,110.24159 C 253.15451,126.64666 239.06289,149.9125 225.35001,149.9125 C 223.84027,149.9125 223.81343,152.83548 225.29457,155.95019 C 226.28765,158.03854 226.2954,158.30695 225.38192,158.97677 C 223.25511,160.5363 226.89053,164.43685 230.47085,164.43685 C 231.18075,164.43685 231.76158,164.67698 231.76158,164.97047 C 231.76158,165.99216 229.44838,167.59432 227.97325,167.59432 C 226.48813,167.59432 226.48813,167.59432 228.10332,169.33092 C 230.31239,171.70605 230.93057,173.06833 231.4704,176.75097 C 232.60481,184.4898 237.64831,189.69659 244.01,189.69659 C 247.05365,189.69659 247.39802,190.16382 246.00448,192.40266 C 245.52568,193.17191 244.9801,195.80542 244.79209,198.2549 C 244.43547,202.9014 242.26216,208.88377 240.35774,210.46115 C 239.38602,211.266 239.38393,211.392 240.33067,212.08621 C 242.0037,213.31299 240.96305,220.24421 238.85632,221.906 C 235.50187,224.55202 230.37403,223.14955 233.03147,220.3129 C 234.4333,218.81653 234.4333,218.81653 232.62515,217.2222 C 230.81699,215.62787 230.81699,215.62787 229.02416,217.81808 C 228.0381,219.02269 226.88314,220.00829 226.45759,220.00829 C 225.53793,220.00829 223.29372,222.39354 222.74413,223.95512 C 222.2654,225.31536 221.73265,225.33853 219.93687,224.07719 z M 223.13298,220.16865 C 224.71895,218.42045 224.36784,217.98639 221.78652,218.50411 C 220.28518,218.80522 219.79675,219.24033 219.79675,220.27667 C 219.79675,221.96935 221.22375,223.64896 221.60078,222.40007 C 221.73579,221.95289 222.42527,220.94875 223.13298,220.16865 z M 77.036115,219.53716 C 78.622082,217.78895 78.270973,217.3549 75.689651,217.87261 C 74.188318,218.17372 73.699886,218.60884 73.699886,219.64518 C 73.699886,221.33785 75.126883,223.01747 75.503919,221.76858 C 75.638919,221.3214 76.328408,220.31726 77.036115,219.53716 z M 174.35218,221.52596 C 175.35549,220.82124 175.72948,220.01318 175.59432,218.84212 C 175.36681,216.87083 173.63893,216.56011 173.30008,218.42955 C 173.17418,219.1242 172.48329,220.33193 171.7648,221.1134 C 170.10778,222.91566 171.95444,223.21011 174.35218,221.52596 z M 157.64128,218.90566 C 159.22725,217.15746 158.87614,216.7234 156.29482,217.24112 C 154.79348,217.54223 154.30505,217.97734 154.30505,219.01369 C 154.30505,220.70636 155.73205,222.38598 156.10909,221.13708 C 156.24409,220.6899 156.93358,219.68577 157.64128,218.90566 z M 237.32497,220.89447 C 238.32828,220.18975 238.70227,219.38168 238.56711,218.21062 C 238.33959,216.23933 236.61171,215.92862 236.27286,217.79806 C 236.14696,218.4927 235.45608,219.70044 234.73759,220.48191 C 233.08057,222.28417 234.92723,222.57862 237.32497,220.89447 z M 65.555275,217.45985 C 66.359492,217.02824 66.77288,216.1375 66.77288,214.83625 C 66.77288,212.87413 66.767491,212.871 65.448953,214.06761 C 63.102669,216.19692 62.208663,218.54863 63.128418,220.17186 C 63.930277,221.58702 63.930277,221.58702 64.133974,219.85017 C 64.246007,218.8949 64.885593,217.81926 65.555275,217.45985 z M 91.857828,219.63148 C 92.861138,218.92676 93.235128,218.1187 93.099968,216.94763 C 92.872458,214.97634 91.144574,214.66563 90.805729,216.53507 C 90.679822,217.22972 89.988945,218.43745 89.270447,219.21892 C 87.613426,221.02118 89.460093,221.31563 91.857828,219.63148 z M 53.939951,215.3815 C 55.512187,213.50777 55.837664,212.12124 54.849096,211.50856 C 54.125595,211.06016 51.029683,215.013 51.029683,216.38516 C 51.029683,218.35456 51.89843,219.88577 52.189595,218.42955 C 52.328485,217.73491 53.116146,216.36329 53.939951,215.3815 z M 211.1202,216.21933 C 212.80247,216.21933 213.49947,215.21756 213.49947,212.79971 C 213.49947,210.34537 212.79504,210.49797 209.98215,213.56169 C 207.23234,216.55671 205.96954,219.42822 208.3538,217.26444 C 208.98719,216.68963 210.23207,216.21933 211.1202,216.21933 z M 228.60068,213.71922 C 229.7378,210.81199 230.25171,210.06052 230.48986,210.95677 C 231.20084,213.63255 234.10162,216.52284 235.17748,215.62745 C 235.78516,215.1217 236.90794,214.94653 238.06042,215.17768 C 240.7512,215.71734 240.4731,214.49895 237.2717,211.72217 C 235.79971,210.44542 234.80615,209.18432 235.06379,208.91973 C 235.32143,208.65513 236.05172,208.9101 236.68666,209.48632 C 238.14632,210.81101 239.82811,209.25295 241.71572,204.82726 C 244.75049,197.71194 244.15738,196.14942 237.65755,194.1362 C 232.97924,192.68716 230.50213,191.19628 230.50213,189.82964 C 230.50213,189.03473 230.77521,189.09784 231.91901,190.15708 C 232.6983,190.87875 235.2976,192.07088 237.69522,192.80624 C 240.09286,193.54161 242.43072,194.45634 242.89048,194.83898 C 243.54611,195.38463 243.72641,195.20473 243.72641,194.00492 C 243.72641,193.16356 244.06646,192.13416 244.48208,191.71737 C 245.06983,191.12798 244.64306,190.95958 242.56163,190.95958 C 238.36215,190.95958 230.50213,184.94539 230.50213,181.7321 C 230.50213,180.75132 230.39351,180.75851 229.22779,181.81642 C 227.36089,183.51069 226.24262,182.17911 227.68215,179.97595 C 228.27375,179.07052 229.02767,178.32971 229.35753,178.32971 C 229.68739,178.32971 229.82283,177.83241 229.6585,177.22459 C 229.49418,176.61678 229.17721,175.30168 228.95413,174.30214 C 228.73105,173.3026 226.9336,170.77519 224.9598,168.68568 C 221.5405,165.06593 221.46026,164.90758 223.26026,165.33147 C 228.37148,166.53516 229.13308,166.49336 226.69382,165.14304 C 225.29972,164.37131 223.81256,162.71377 222.73817,160.73423 C 221.79125,158.98955 219.82108,156.55693 218.36001,155.32839 C 214.71688,152.26507 216.96645,152.26961 221.12927,155.33398 C 225.26129,158.37566 225.05305,156.80701 220.77293,152.64977 C 218.84911,150.78118 217.62634,149.13955 217.99033,148.91396 C 218.34745,148.69263 219.46674,149.30618 220.47765,150.2774 C 221.61253,151.36773 222.28846,151.6961 222.24454,151.13576 C 222.06843,148.88834 214.83842,143.32967 213.57854,144.47304 C 212.5179,145.4356 212.35633,145.44385 212.01537,144.55285 C 211.45547,143.08968 214.43632,141.82873 216.0565,142.84338 C 217.69578,143.87 219.48239,143.79107 220.42648,142.65032 C 220.85765,142.12934 221.52995,141.71141 221.92047,141.72159 C 222.311,141.73177 221.73238,142.55982 220.63466,143.5617 C 218.55792,145.45711 218.479,146.53722 220.49635,145.45454 C 221.13641,145.11103 222.37372,145.00959 223.24592,145.22911 C 226.18831,145.96968 227.30845,144.98081 225.33205,143.38746 C 224.22269,142.49311 223.80183,141.72551 224.12941,141.19399 C 224.50866,140.57862 225.13009,140.84168 226.6413,142.25733 C 228.58231,144.07559 228.73793,144.11176 231.30745,143.34196 C 233.96563,142.5456 233.96563,142.5456 231.1665,142.04803 C 227.31853,141.36402 229.33615,139.56978 233.32214,140.13104 C 235.26228,140.40424 236.29679,140.18177 237.744,139.18015 C 239.63318,137.87263 239.63318,137.87263 236.16968,138.24364 C 232.86986,138.59711 232.78058,138.56931 234.28049,137.65527 C 235.14637,137.1276 236.34111,136.68581 236.93547,136.67351 C 239.81918,136.6138 242.30858,134.55863 244.55967,130.3792 C 248.30078,123.43338 249.49056,111.40005 246.2346,113.43914 C 243.98331,114.84903 243.03262,112.86588 245.1433,111.16266 C 253.23026,104.63683 230.07069,88.180095 218.40803,92.165107 C 210.05343,95.019788 206.94821,101.75136 212.43764,105.10788 C 216.23957,107.43258 218.88692,106.48639 216.26351,103.74047 C 209.43202,96.589937 225.69547,93.431957 234.24097,100.24967 C 234.9733,100.83394 235.06721,100.76084 234.73303,99.866629 C 234.45845,99.131914 234.62597,98.761515 235.23285,98.761515 C 235.73491,98.761515 236.32928,99.542988 236.55366,100.49812 C 237.21148,103.2982 239.87238,105.79299 241.35335,104.99818 C 243.01433,104.10676 243.6365,104.8946 242.1141,105.9615 C 239.88536,107.52339 240.71274,115.34767 243.20645,116.29158 C 245.53206,117.17186 245.28564,118.44308 242.63429,119.24331 C 240.11637,120.00326 239.47449,122.48704 241.39335,124.04519 C 242.69683,125.10365 242.68968,125.11901 240.38249,126.21691 C 239.10449,126.82506 238.05886,127.60472 238.05886,127.94948 C 238.05886,133.77699 222.13719,141.93059 214.85013,139.83483 C 213.24212,139.37236 212.40279,139.4548 211.2926,140.18427 C 209.95494,141.0632 209.76698,141.03501 208.92473,139.82917 C 207.76357,138.16673 193.92547,133.37069 192.64204,134.18588 C 191.33283,135.01744 189.06733,134.86559 188.49908,133.90821 C 186.6915,130.86279 177.63585,130.15815 175.68125,132.91082 C 174.09881,135.13939 172.5669,134.59108 173.8193,132.24438 C 174.2258,131.48271 174.46458,130.78112 174.34993,130.6853 C 173.70492,130.14622 163.12124,129.85118 163.12124,130.37229 C 163.12124,130.7114 162.59964,130.65173 161.93712,130.23682 C 160.05482,129.05801 144.91835,130.3871 144.12961,131.80044 C 143.39463,133.11745 141.08077,133.20433 141.08077,131.91493 C 141.08077,131.29992 140.47337,130.97152 139.34902,130.9786 C 136.88135,130.99415 134.59837,134.2898 135.57155,136.43167 C 136.07406,137.53766 136.06981,138.13978 135.55585,138.65517 C 133.89208,140.32361 132.48376,134.99224 134.03312,132.89074 C 135.40662,131.02779 135.40662,131.02779 131.47412,130.83986 C 127.54162,130.65194 127.54162,130.65194 126.26022,134.74478 C 124.62249,139.97578 122.60162,141.46715 119.89602,139.44146 C 117.67618,137.77946 117.41332,136.89481 119.01454,136.47491 C 119.72141,136.28954 120.29975,136.38545 120.29975,136.68803 C 120.29975,138.40995 122.80501,138.50812 123.65745,136.81961 C 124.85954,134.43848 125.62745,130.082 124.74911,130.62637 C 124.38128,130.85434 123.45002,130.59814 122.67965,130.05703 C 121.27897,129.07321 121.27897,129.07321 122.83597,129.01674 C 123.86405,128.97946 123.36984,128.67811 121.38114,128.12965 C 116.44479,126.76828 115.13131,123.61275 113.09964,108.23392 C 111.5018,96.139101 109.07839,91.718392 105.14815,93.729078 C 103.13961,94.756625 102.66737,94.823561 102.66737,94.080702 C 102.66737,93.576066 103.2197,92.987389 103.89476,92.77253 C 108.15287,91.417271 111.0129,82.13737 108.43046,78.055626 C 107.40326,76.432056 99.576028,81.073119 97.917638,84.289073 C 96.861288,86.337565 95.418378,86.803078 95.904608,84.938521 C 96.762328,81.649391 87.296471,81.761372 78.422845,85.145329 C 75.998393,86.069894 73.200693,87.086466 72.205734,87.404379 C 69.15718,88.378464 67.170145,89.940087 67.965016,90.737187 C 68.977634,91.752644 68.819009,94.320304 67.717472,94.744189 C 65.459751,95.612986 67.800881,100.28017 71.838445,102.95959 C 74.210155,104.53352 74.606441,104.6128 76.428555,103.87793 C 80.221094,102.34838 80.871566,102.26321 80.455427,103.35069 C 80.193302,104.0357 80.96759,105.09024 82.896426,106.6752 C 89.611678,112.19328 88.983133,113.26236 79.015501,113.2762 C 73.611173,113.2837 71.777644,113.50957 70.829039,114.28466 C 69.624545,115.26884 69.625088,115.27604 70.866111,114.77679 C 72.523004,114.11025 84.848325,113.68355 84.219124,114.31452 C 83.951748,114.58264 80.905342,114.97306 77.449332,115.1821 C 71.240955,115.55763 71.143874,115.58826 69.345571,117.73937 C 67.147958,120.36812 67.381315,121.02916 69.762065,118.91918 C 71.018565,117.80558 71.188858,117.74697 70.38931,118.70329 C 69.785675,119.42528 69.301982,120.41988 69.314438,120.91352 C 69.32856,121.47321 69.861881,121.18788 70.731326,120.15548 C 72.949299,117.52181 74.561662,116.92273 75.476834,118.39226 C 76.191405,119.53968 76.366584,119.5566 78.119649,118.64751 C 79.247816,118.06248 79.997165,117.94053 79.997165,118.34195 C 79.997165,118.70938 79.359566,119.26701 78.580277,119.58113 C 77.193167,120.14024 77.197999,120.15308 78.810217,120.19227 C 79.715972,120.21429 81.177557,119.66395 82.058183,118.96931 C 84.08992,117.36667 84.630844,117.36667 83.775532,118.96931 C 83.318536,119.82561 83.311401,120.2323 83.753376,120.2323 C 84.111912,120.2323 84.4096,119.87708 84.414903,119.44293 C 84.421439,118.90789 84.639508,118.95875 85.091749,119.60081 C 85.587103,120.30407 85.662052,119.89744 85.38274,118.02207 C 85.032913,115.67324 85.073772,115.58206 85.965351,116.72191 C 86.492702,117.3961 86.924172,118.46175 86.924172,119.09001 C 86.924172,120.70539 88.109867,120.50907 88.763339,118.78549 C 89.406182,117.08994 91.187452,115.45612 91.763438,116.03373 C 91.983848,116.25476 91.727138,116.93464 91.192981,117.54458 C 88.719484,120.36899 89.345159,121.85267 91.860378,119.12719 C 94.544738,116.21841 95.405508,115.77983 94.823988,117.61717 C 94.094968,119.92054 96.197348,120.63456 98.159068,118.74984 C 99.117958,117.82858 100.35995,117.07483 100.91904,117.07483 C 104.02817,117.07483 107.15073,113.51308 106.206,111.04425 C 105.99944,110.50446 106.08912,110.22313 106.40529,110.41908 C 106.72146,110.61503 107.11041,110.27458 107.26962,109.66251 C 107.42883,109.05045 107.62563,109.68636 107.70695,111.07564 C 107.85481,113.60162 107.85481,113.60162 108.56716,110.75989 C 109.72738,106.13156 110.83595,104.75269 110.59798,108.23392 C 110.30516,112.51749 107.45327,118.33782 105.64719,118.33782 C 105.14043,118.33782 105.15283,118.11877 105.69006,117.58003 C 107.1249,116.14117 106.44087,115.72402 104.78649,117.029 C 103.87391,117.74885 102.4403,118.33782 101.60069,118.33782 C 100.76108,118.33782 100.23212,118.59417 100.42522,118.90749 C 101.38961,120.47228 96.509348,122.10265 94.828868,120.77708 C 93.944788,120.07971 93.221448,119.7613 93.221448,120.06951 C 93.221448,121.08978 88.693929,122.89111 87.965504,122.16064 C 86.729738,120.92141 84.659505,121.47169 83.221977,123.42151 C 82.440903,124.48093 81.095361,125.61708 80.231883,125.9463 C 79.368404,126.27551 78.840558,126.83472 79.05889,127.18898 C 79.304262,127.58711 80.143544,127.34204 81.256621,126.54724 C 82.260445,125.83045 83.220341,125.52579 83.425602,125.85884 C 83.628122,126.18745 83.173873,126.65362 82.41616,126.89478 C 80.946843,127.36243 80.172053,127.90429 77.666376,130.2166 C 76.79674,131.01912 76.249877,131.84085 76.451126,132.04266 C 76.652376,132.24447 77.381447,131.72995 78.071285,130.89928 C 78.761123,130.0686 79.334964,129.61449 79.346487,129.89014 C 79.35801,130.16579 78.658993,131.15749 77.793118,132.09391 C 76.927242,133.03033 76.218798,134.15462 76.218798,134.59232 C 76.218798,135.03002 75.652043,135.95649 74.959342,136.65113 C 73.699886,137.91412 73.699886,137.91412 75.350702,137.91412 C 76.980936,137.91412 76.965966,137.95585 74.149865,141.26137 C 71.298213,144.60862 71.298213,144.60862 71.989993,147.64019 C 72.644,150.50621 72.597817,150.73646 71.144215,151.85681 C 69.606655,153.04188 69.606655,153.04188 71.180975,153.06161 C 72.207609,153.07448 73.340894,152.36678 74.438596,151.02734 C 76.589677,148.40253 77.419983,149.15267 75.665057,152.13539 C 73.888925,155.15415 74.407672,158.63523 76.265582,156.16524 C 77.68093,154.28361 78.008387,154.64319 77.632728,157.66651 C 77.390678,159.61455 77.175775,159.9193 76.462645,159.3258 C 74.814747,157.95433 75.588392,159.77945 77.387713,161.50814 C 79.186357,163.23618 79.186357,163.23618 79.985115,160.3753 C 80.424432,158.80182 81.173618,157.19005 81.649975,156.7936 C 82.74871,155.87918 82.78796,156.74963 81.797478,160.06483 C 80.939178,162.93761 82.205346,166.31577 84.772656,168.00265 C 86.456434,169.109 87.512386,168.76312 86.454692,167.45171 C 82.776429,162.89108 87.668598,149.57838 94.598248,145.29126 C 98.736088,142.73132 99.552768,143.43724 95.561108,146.12353 C 91.13337,149.10331 83.185416,165.56556 87.450841,162.92199 C 87.893034,162.64793 88.042962,162.80667 87.84083,163.33489 C 87.660226,163.80686 87.935758,165.17143 88.453123,166.36729 C 89.393786,168.54156 89.393786,168.54156 89.418434,166.62972 C 89.445126,164.55943 91.090547,161.68653 91.945948,162.21667 C 92.236078,162.39649 92.173178,163.52476 91.806158,164.72395 C 91.273248,166.46521 91.359368,167.48327 92.233778,169.77932 C 93.507178,173.12301 94.199558,173.02764 94.806528,169.42493 C 95.321318,166.36941 95.828678,166.7254 97.574988,171.36743 C 98.682308,174.31091 98.746158,174.95463 98.004578,175.69829 C 97.262998,176.44195 97.068538,176.18601 96.696258,173.97636 C 96.258998,171.38094 96.258998,171.38094 95.096098,172.80297 C 94.123278,173.99257 93.734548,174.10381 92.717768,173.48353 C 91.632638,172.82156 91.425178,172.99082 90.782761,175.06227 C 90.387,176.33838 89.092206,180.50836 87.905443,184.3289 C 86.718678,188.14943 84.860788,194.20737 83.776799,197.79097 C 81.044938,206.82232 76.299309,211.79887 70.418902,211.79887 C 68.383369,211.79887 68.347199,211.84849 68.347199,214.64059 C 68.347199,218.92086 69.767605,218.43554 77.688163,211.44899 C 78.323139,210.8889 78.967408,210.55573 79.119874,210.70862 C 79.59403,211.18411 78.6396,213.06186 77.923762,213.06186 C 77.176222,213.06186 74.329614,215.56317 74.329614,216.22003 C 74.329614,216.44666 75.182342,216.50657 76.224566,216.35318 C 77.26838,216.19955 78.567872,216.44743 79.117726,216.90505 C 80.427131,217.9948 82.138036,215.84032 83.172603,211.79887 C 83.900053,208.95715 83.900053,208.95715 84.939817,210.51522 C 87.534236,214.40292 88.610464,215.27984 89.687382,214.38357 C 90.31661,213.8599 91.426868,213.68075 92.593288,213.91469 C 95.183578,214.4342 95.044798,213.19734 92.263058,210.97156 C 89.955342,209.12506 89.783302,207.47214 92.023998,208.67468 C 93.990708,209.73018 95.418498,208.88296 99.816308,204.05089 C 104.44765,198.96222 104.40143,199.08512 102.62449,196.58263 C 101.04426,194.35718 102.07771,194.11334 103.79752,196.30586 C 105.96949,199.07482 106.5209,196.41659 104.81562,191.39782 C 103.45913,187.40557 104.03765,186.22856 105.7294,189.53872 C 107.19426,192.40491 108.49274,192.87556 110.57604,191.29541 C 111.66803,190.46716 111.68242,190.36611 110.71092,190.34817 C 109.25012,190.32119 107.54699,187.59375 107.86227,185.78627 C 108.11649,184.3289 108.11649,184.3289 108.73092,185.80133 C 109.34536,187.27375 109.34536,187.27375 110.09999,185.61286 C 110.71246,184.26488 110.67355,183.60083 109.89347,182.08808 C 108.86238,180.08858 109.51861,179.55808 110.9234,181.25549 C 111.68337,182.17376 111.82475,182.05265 112.21352,180.15037 C 112.52582,178.62229 112.37315,177.70653 111.67735,176.93429 C 111.00909,176.19262 110.84294,175.30301 111.14659,174.09257 C 111.58862,172.33052 111.58862,172.33052 112.38419,174.22525 C 113.4799,176.83478 114.90603,177.8966 116.59374,177.35944 C 117.81621,176.97035 117.85924,176.84518 116.94655,176.33298 C 115.24718,175.3793 114.56581,173.46663 114.0313,168.14966 C 113.42694,162.13785 113.36153,162.04598 110.95557,163.82978 C 109.36233,165.01102 108.77566,165.12583 107.18123,164.56845 C 106.1429,164.20547 105.12757,164.07472 104.92495,164.27791 C 104.72234,164.4811 104.55655,164.23056 104.55655,163.72116 C 104.55655,162.72458 105.74923,161.27938 106.57168,161.27938 C 106.84876,161.27938 107.07547,161.70564 107.07547,162.22662 C 107.07547,163.55509 108.78758,163.4052 110.682,161.91087 C 112.85263,160.19866 113.30207,160.3034 116.18932,163.19434 C 118.63996,165.64812 118.71525,165.67496 119.8778,164.50915 C 120.93477,163.44922 121.2466,163.41429 122.72878,164.1898 C 125.54998,165.66594 128.34904,165.39784 126.89843,163.79043 C 125.97716,162.76959 125.90365,162.35673 126.53296,161.73808 C 127.15772,161.12391 127.60916,161.32304 128.7143,162.70024 C 129.48075,163.65538 130.45142,164.43685 130.87134,164.43685 C 133.18797,164.43685 131.00036,165.60025 126.75446,166.62627 C 120.33045,168.17863 119.22313,168.81388 122.89899,168.8381 C 124.70119,168.84998 126.11221,169.21873 126.59703,169.80454 C 127.64382,171.06939 128.54601,171.01134 128.04847,169.71116 C 127.71358,168.836 127.94201,168.74275 129.48513,169.12472 C 135.38936,170.5862 141.02128,170.22046 138.78402,168.52085 C 137.46139,167.51606 137.66423,167.43886 142.02536,167.28716 C 147.99364,167.07957 154.80722,163.53021 149.67456,163.30252 C 146.66472,163.169 145.20071,163.37261 144.56149,164.01362 C 143.03954,165.53985 131.33248,165.18823 132.37099,163.64748 C 132.42952,163.56065 132.15526,162.88599 131.76153,162.14823 C 130.88439,160.5047 132.67175,158.46507 134.40474,159.13195 C 135.39096,159.51146 135.39308,159.62352 134.43412,160.68612 C 132.40695,162.9324 140.4196,164.37534 144.22941,162.45009 C 144.74893,162.18754 146.83049,161.7929 148.85507,161.57309 C 152.53615,161.17343 152.53615,161.17343 151.10679,159.64767 C 148.88505,157.27611 151.29296,157.6383 153.81473,160.05499 C 155.19933,161.3819 156.23424,161.87966 157.11507,161.64235 C 157.82084,161.4522 159.05261,161.29274 159.85234,161.288 C 161.97382,161.27542 160.98004,160.17614 157.23488,158.39268 C 153.99019,156.84754 153.99019,156.84754 156.4738,157.14915 C 157.8398,157.31504 160.38625,158.15987 162.13259,159.02655 C 163.9575,159.93222 165.5431,160.36632 165.86118,160.04735 C 166.51124,159.39546 163.72583,157.84109 160.75976,157.20055 C 159.63413,156.95746 158.71315,156.4574 158.71315,156.08929 C 158.71315,154.92381 164.855,156.06377 168.09077,157.82984 C 169.95635,158.84806 171.82821,159.40184 172.94854,159.26699 C 175.63629,158.94347 170.64332,156.38067 165.58426,155.48704 C 161.39037,154.74623 160.61927,153.70146 164.2664,153.70146 C 167.48976,153.70146 172.63608,155.28755 174.70312,156.91804 C 175.64175,157.65843 176.82234,158.07355 177.37955,157.85913 C 179.17145,157.16959 177.27166,155.91845 171.48619,153.97794 C 165.95502,152.12272 165.95502,152.12272 169.23076,151.9329 C 171.3858,151.80802 173.20447,152.10503 174.54665,152.80105 C 179.44676,155.3421 181.44502,155.16038 178.20804,152.46809 C 176.03803,150.66322 175.85444,149.9125 177.58307,149.9125 C 178.98255,149.9125 183.27254,153.43505 183.27254,154.58418 C 183.27254,155.72921 187.68042,160.1842 190.51441,161.90345 C 196.05055,165.26196 204.67139,175.87477 204.68944,179.35382 C 204.71103,183.51788 209.58604,189.48053 217.66441,195.22357 C 226.08553,201.21027 226.27075,201.76407 222.36335,209.2729 C 222.03825,209.89765 220.70334,210.28331 218.4424,210.4057 C 215.01436,210.59127 215.01436,210.59127 215.01732,212.93168 C 215.01894,214.2189 214.77724,215.80133 214.4802,216.4482 C 213.15795,219.3276 218.14596,216.80414 222.85397,212.21186 C 226.26964,208.88015 227.23384,208.1915 226.52681,209.58864 C 225.99953,210.63061 224.41124,212.60644 222.99729,213.97939 C 219.87759,217.00862 219.83505,217.29794 222.55615,216.97938 C 223.74365,216.84036 224.88355,217.05089 225.13277,217.45527 C 225.98457,218.83737 227.04607,217.69379 228.60068,213.71922 z M 232.60133,203.95146 C 232.85903,203.27802 232.52599,202.14001 231.75236,201.05048 C 231.03813,200.04463 230.74184,199.09497 231.07736,198.88702 C 231.8923,198.38196 233.65077,201.01852 233.65077,202.74546 C 233.65077,203.51598 233.31923,204.35188 232.91402,204.60302 C 232.411,204.91478 232.3118,204.70808 232.60133,203.95146 z M 240.42974,203.23051 C 240.21114,203.0113 240.35177,202.12882 240.74224,201.26943 C 241.26994,200.108 241.26865,199.4122 240.73717,198.5588 C 240.34392,197.92734 240.19195,197.24042 240.39946,197.03233 C 241.05786,196.37208 242.46784,198.00728 242.44464,199.40419 C 242.41736,201.04661 240.97789,203.78019 240.42974,203.23051 z M 90.545107,200.92667 C 89.267038,199.32267 89.115278,197.22435 90.198757,196.13783 C 91.227228,195.10647 91.961998,195.18542 91.961998,196.32728 C 91.961998,196.84826 91.705148,197.27452 91.391218,197.27452 C 90.514758,197.27452 91.388848,199.8619 92.396288,200.24958 C 93.706368,200.75371 96.460548,197.92366 96.018638,196.52744 C 95.818088,195.89378 95.965298,195.38004 96.347418,195.38004 C 97.200048,195.38004 97.871068,196.99548 97.462228,198.06388 C 97.296098,198.49804 97.147488,199.10214 97.131988,199.40635 C 97.015328,201.69552 92.067648,202.8375 90.545107,200.92667 z M 234.01061,200.07113 C 233.46634,199.52534 233.02104,198.75808 233.02104,198.3661 C 233.02104,197.86191 233.2421,197.8751 233.77671,198.41121 C 234.66942,199.30642 236.7994,199.42572 236.7994,198.5805 C 236.7994,198.25684 235.94927,197.38497 234.91022,196.64302 C 232.03336,194.58878 232.41365,193.08168 235.34019,194.93905 C 238.64762,197.03814 239.21798,198.16719 237.77735,199.76352 C 236.37229,201.32046 235.34047,201.40473 234.01061,200.07113 z M 222.95066,195.40554 C 222.24706,194.95282 222.19165,194.62031 222.72984,194.08061 C 223.60888,193.1991 226.26092,193.93037 225.91908,194.96 C 225.5952,195.93554 224.11874,196.15715 222.95066,195.40554 z M 228.92781,195.38004 C 229.14186,195.03272 229.72534,194.74854 230.22443,194.74854 C 230.72351,194.74854 231.13185,195.03272 231.13185,195.38004 C 231.13185,195.72736 230.54837,196.01153 229.83523,196.01153 C 229.12209,196.01153 228.71375,195.72736 228.92781,195.38004 z M 219.90119,192.1845 C 220.01692,191.39154 220.48969,190.61781 220.95177,190.46509 C 221.52262,190.27642 221.72447,190.64954 221.5815,191.62915 C 221.46576,192.4221 220.993,193.19583 220.53092,193.34855 C 219.96007,193.53722 219.75822,193.16411 219.90119,192.1845 z M 93.064018,188.36093 C 91.015116,186.828 90.744653,184.11068 92.483878,182.53229 C 93.753898,181.37972 96.703608,181.12716 97.314678,182.11867 C 97.532288,182.47176 97.046478,182.75016 96.212748,182.75016 C 93.646058,182.75016 92.282698,184.16557 93.290558,185.78393 C 94.772018,188.16278 97.629548,187.98539 97.629548,185.51457 C 97.629548,185.03611 97.912928,184.64464 98.259278,184.64464 C 99.330818,184.64464 98.952568,187.54868 97.737388,188.65148 C 96.239208,190.01112 95.181768,189.94538 93.064018,188.36093 z M 220.05271,187.56015 C 219.52019,186.16854 220.28135,185.27614 222.0008,185.27614 C 223.63788,185.27614 224.66853,186.35006 223.80363,187.15467 C 222.58412,188.28917 220.42115,188.52299 220.05271,187.56015 z M 209.19795,183.97718 C 207.75793,182.63183 207.48212,181.12448 208.40774,179.65855 C 209.18341,178.4301 211.22857,179.29671 210.71585,180.63659 C 210.49839,181.20487 210.75951,182.15633 211.29613,182.75095 C 212.90878,184.53789 210.99518,185.65625 209.19795,183.97718 z M 213.71221,184.28973 C 213.21639,182.994 214.23634,181.17143 215.45729,181.17143 C 216.81729,181.17143 216.60451,184.89071 215.22932,185.15629 C 214.62198,185.27358 213.93953,184.88378 213.71221,184.28973 z M 104.20001,181.64505 C 104.28897,181.03724 104.54727,180.61098 104.77402,180.69781 C 105.00076,180.78464 105.50436,180.85568 105.89311,180.85568 C 106.38147,180.85568 106.35764,181.14847 105.81601,181.80292 C 104.76343,183.07476 104.00165,183.00034 104.20001,181.64505 z M 97.944408,181.48718 C 97.730348,181.13986 97.855318,180.85568 98.222108,180.85568 C 98.588898,180.85568 98.888998,181.13986 98.888998,181.48718 C 98.888998,181.8345 98.764038,182.11867 98.611298,182.11867 C 98.458568,182.11867 98.158468,181.8345 97.944408,181.48718 z M 101.88879,180.98458 C 101.68934,180.21974 101.80178,179.42313 102.13866,179.21434 C 103.15541,178.58419 103.53393,179.49298 102.87319,180.97791 C 102.25144,182.37522 102.25144,182.37522 101.88879,180.98458 z M 220.71272,178.67416 C 219.05364,177.01043 218.69724,174.63295 219.9227,173.40406 C 220.83638,172.48781 223.57512,172.39311 223.57512,173.27776 C 223.57512,173.62508 223.14116,173.90925 222.61077,173.90925 C 221.11553,173.90925 220.78125,175.71536 222.02203,177.09024 C 223.35641,178.56886 224.5639,178.68492 225.0623,177.38247 C 225.52508,176.17311 226.72376,176.14727 226.72376,177.34666 C 226.72376,179.97353 222.85947,180.82693 220.71272,178.67416 z M 105.69016,176.53186 C 103.68041,175.50436 103.16866,175.46677 101.39148,176.21611 C 98.529148,177.423 98.215688,177.29408 99.237328,175.33011 C 99.734178,174.37498 100.14867,172.74099 100.15841,171.69903 C 100.17944,169.4497 102.32472,164.43685 103.26631,164.43685 C 104.1411,164.43685 104.10861,164.6974 102.88967,167.45673 C 101.9063,169.68277 101.31034,174.54156 102.02085,174.54004 C 102.47394,174.53907 105.66367,171.35662 106.76717,169.80454 C 107.64398,168.57132 107.66561,168.5778 107.68517,170.07959 C 107.69618,170.92551 107.0945,172.2695 106.3481,173.06623 C 104.99102,174.51483 104.99102,174.51483 107.60477,175.68832 C 109.04234,176.33375 110.03086,177.05001 109.80149,177.28001 C 109.12752,177.95588 108.11514,177.77166 105.69016,176.53186 z M 207.83192,175.83607 C 207.83192,174.55589 209.50846,171.08213 210.54056,170.2238 C 211.86618,169.12138 213.22941,169.87204 212.18768,171.13078 C 211.77891,171.6247 210.96032,172.93407 210.3686,174.0405 C 209.27229,176.09042 207.83192,177.10998 207.83192,175.83607 z M 109.78151,169.17305 C 109.84367,166.97377 110.40651,166.35761 111.19082,167.63021 C 111.71613,168.48256 111.00786,171.38328 110.27444,171.38328 C 109.96896,171.38328 109.74715,170.38868 109.78151,169.17305 z M 214.61131,168.0648 C 212.70491,166.4952 212.46931,164.22485 214.02185,162.38449 C 215.02751,161.19239 218.21664,160.87969 218.85216,161.91087 C 219.06822,162.26145 218.59452,162.54667 217.7873,162.55204 C 214.88978,162.57131 213.67862,165.7071 216.07248,166.99185 C 217.35671,167.68108 219.16702,166.58222 219.16702,165.11345 C 219.16702,164.74132 219.4504,164.43685 219.79675,164.43685 C 220.8683,164.43685 220.49005,167.34088 219.27487,168.44368 C 217.73255,169.84338 216.66631,169.75675 214.61131,168.0648 z M 200.93988,167.95232 C 200.17454,167.02754 201.97767,164.43685 203.38666,164.43685 C 204.44236,164.43685 204.70376,165.55683 203.73508,165.92959 C 203.21754,166.12875 202.7941,166.58478 202.7941,166.94301 C 202.7941,168.15191 204.58316,167.60542 205.83023,166.01558 C 207.31051,164.12845 207.83192,164.02727 207.83192,165.62721 C 207.83192,168.12319 202.55471,169.90352 200.93988,167.95232 z M 199.01573,163.55717 C 199.01573,162.59161 200.33897,161.91087 202.21588,161.91087 C 203.7743,161.91087 203.76872,162.94433 202.20577,163.78314 C 200.49566,164.70093 199.01573,164.5961 199.01573,163.55717 z M 82.975253,162.79233 C 82.722706,162.53908 82.516077,161.89614 82.516077,161.36358 C 82.516077,160.65277 82.702371,160.5821 83.216649,161.09783 C 83.601964,161.48422 83.808593,162.12716 83.675826,162.52658 C 83.543058,162.926 83.2278,163.04559 82.975253,162.79233 z M 123.11817,161.88596 C 122.59156,161.0315 123.21273,160.22549 124.69803,159.83599 C 126.30761,159.4139 126.32051,160.06393 124.72966,161.42987 C 124.01729,162.04153 123.33335,162.2351 123.11817,161.88596 z M 87.786134,161.14558 C 87.911737,160.23694 90.41214,157.49042 91.113757,157.49042 C 91.233938,157.49042 91.332268,157.91668 91.332268,158.43766 C 91.332268,158.95864 91.023468,159.3849 90.646048,159.3849 C 90.268627,159.3849 89.437125,160.02429 88.798264,160.80576 C 87.882701,161.9257 87.668347,161.99767 87.786134,161.14558 z M 217.43527,160.17595 C 214.72832,158.64142 213.98184,157.49042 215.69358,157.49042 C 216.71168,157.49042 220.93798,161.01228 220.42605,161.43406 C 220.25311,161.57655 218.90726,161.0104 217.43527,160.17595 z M 102.66737,160.48405 C 102.66737,159.62194 105.11534,157.84027 105.61349,158.33982 C 105.781,158.5078 105.60174,159.23792 105.21515,159.96231 C 104.44868,161.39847 102.66737,161.76325 102.66737,160.48405 z M 206.96112,158.20367 C 205.58579,156.67969 205.95626,152.72546 207.59062,151.48455 C 208.96689,150.43961 210.98056,150.25601 210.98056,151.17548 C 210.98056,151.5228 210.59089,151.80698 210.11462,151.80698 C 208.51828,151.80698 207.10401,155.70344 208.24247,156.96495 C 209.61086,158.48124 210.84882,157.75772 212.34407,154.56778 C 213.05583,153.04934 214.03203,151.80698 214.51342,151.80698 C 215.6941,151.80698 215.59589,152.45263 214.1292,154.33295 C 213.4519,155.20125 212.89145,156.2466 212.88375,156.65594 C 212.83683,159.1499 208.77335,160.21178 206.96112,158.20367 z M 93.633918,156.96707 C 92.493918,155.70387 92.215158,153.06996 93.221448,153.06996 C 93.567798,153.06996 93.851178,153.37443 93.851178,153.74656 C 93.851178,155.54594 97.476838,156.7859 97.676338,155.05475 C 97.702078,154.83143 97.843088,154.00207 97.989698,153.21175 C 98.208238,152.03368 97.916178,151.70659 96.368588,151.3962 C 93.973298,150.9158 93.908308,149.9125 96.272488,149.9125 C 100.03709,149.9125 101.41949,154.60235 98.309478,156.82308 C 96.067048,158.4243 94.979238,158.45781 93.633918,156.96707 z M 117.00349,156.69791 C 114.3643,154.52499 115.38713,149.9125 118.50817,149.9125 C 120.05414,149.9125 119.99436,150.98715 118.42051,151.48807 C 117.54998,151.76513 117.24929,152.30476 117.42912,153.26722 C 117.57109,154.02704 117.7083,154.83143 117.73404,155.05475 C 117.93355,156.7859 121.5592,155.54594 121.5592,153.74656 C 121.5592,153.37443 121.84258,153.06996 122.18893,153.06996 C 123.26048,153.06996 122.88223,155.97399 121.66705,157.0768 C 120.12473,158.47649 119.05849,158.38986 117.00349,156.69791 z M 189.03616,156.64988 C 186.21549,153.63108 189.25506,148.64951 193.91769,148.64951 C 196.64637,148.64951 196.34575,149.56877 193.31974,150.47792 C 189.21577,151.71095 188.21321,156.22743 192.04348,156.22743 C 193.97109,156.22743 197.12655,153.58532 197.12655,151.9713 C 197.12655,151.5336 197.60829,151.17548 198.19709,151.17548 C 199.02972,151.17548 199.09969,151.34388 198.51195,151.93327 C 198.09633,152.35006 197.75138,153.13153 197.74539,153.66988 C 197.70793,157.04032 191.41341,159.19408 189.03616,156.64988 z M 140.13618,156.23454 C 137.79113,154.68593 136.9067,151.40197 138.39103,149.75462 C 139.4666,148.56092 142.65108,148.25273 143.28482,149.281 C 143.50088,149.63158 143.02718,149.9168 142.21996,149.92216 C 140.15723,149.93589 139.22474,150.69377 139.49317,152.13836 C 139.62065,152.8244 139.74663,153.56844 139.77313,153.79177 C 139.97839,155.52157 143.59968,154.28355 143.59968,152.48358 C 143.59968,152.11144 143.88306,151.80698 144.22941,151.80698 C 145.27808,151.80698 144.89499,154.55524 143.63522,156.06956 C 142.21386,157.77813 142.45633,157.76669 140.13618,156.23454 z M 108.33492,154.74657 C 108.33492,153.60367 110.38591,151.80698 111.69058,151.80698 C 112.89779,151.80698 113.02527,152.62412 112.09113,154.37446 C 111.34729,155.76825 108.33492,156.06667 108.33492,154.74657 z M 78.302689,153.29942 C 77.927261,152.31833 77.851719,146.34617 78.11423,138.40026 C 78.22493,135.04947 78.386074,134.6873 80.291824,133.50618 C 84.396777,130.96207 84.33104,132.3353 80.207844,135.26051 C 78.995225,136.12081 79.663111,136.03453 82.208354,135.00209 C 83.764576,134.37083 82.683757,136.27766 81.087123,136.98021 C 79.374298,137.7339 79.682171,138.9445 81.510576,138.64528 C 82.720933,138.44721 82.686658,138.58162 81.099189,140.25857 C 79.215479,142.24845 78.806513,143.77377 80.312029,143.19443 C 81.494009,142.73959 81.529125,143.50162 80.386514,144.81082 C 78.620771,146.834 78.435502,148.8308 80.061545,148.31327 C 81.492926,147.85769 81.49715,147.87158 80.425881,149.51113 C 79.735108,150.56833 79.485597,151.74346 79.737873,152.75143 C 80.183308,154.53116 78.953689,155.00066 78.302689,153.29942 z M 82.971171,150.78986 C 82.429757,150.24693 83.635981,148.01801 84.471215,148.01801 C 84.829468,148.01801 85.032031,148.63514 84.921354,149.38941 C 84.714936,150.79616 83.702481,151.52322 82.971171,150.78986 z M 171.58059,150.59476 C 171.25733,150.28694 170.42609,149.90939 169.73339,149.75577 C 168.54787,149.49285 168.5415,149.44712 169.62478,148.97663 C 170.3852,148.64638 171.12023,148.82236 171.79135,149.49536 C 172.83635,150.54329 172.63415,151.598 171.58059,150.59476 z M 210.61737,147.90546 C 207.89719,146.10695 205.9948,144.5274 206.38985,144.39534 C 207.85762,143.90472 216.64811,149.20114 216.64811,150.57613 C 216.64811,151.66672 215.61253,151.20812 210.61737,147.90546 z M 123.73463,147.73097 C 121.77828,145.76914 121.79172,144.84327 123.80823,142.66133 C 124.91775,141.46077 125.63143,141.11367 126.07525,141.55873 C 126.51906,142.00379 126.30666,142.62575 125.40054,143.53441 C 123.76004,145.17951 123.73666,145.89584 125.29617,146.73281 C 127.86384,148.11084 128.96305,147.54197 131.96444,143.28181 C 132.7325,142.19164 132.85699,142.16597 132.87428,143.09423 C 132.92608,145.87583 128.9038,150.34886 127.86556,148.66424 C 127.52311,148.10859 127.25987,148.08488 126.95344,148.58209 C 126.29204,149.65527 125.4249,149.42597 123.73463,147.73097 z M 157.73994,147.73097 C 155.78359,145.76914 155.79702,144.84327 157.81353,142.66133 C 158.92306,141.46077 159.63673,141.11367 160.08055,141.55873 C 160.52437,142.00379 160.31196,142.62575 159.40585,143.53441 C 157.76535,145.17951 157.74197,145.89584 159.30148,146.73281 C 161.86914,148.11084 162.96835,147.54197 165.96975,143.28181 C 166.73781,142.19164 166.86229,142.16597 166.87959,143.09423 C 166.93139,145.87583 162.90911,150.34886 161.87087,148.66424 C 161.52842,148.10859 161.26518,148.08488 160.95875,148.58209 C 160.29734,149.65527 159.4302,149.42597 157.73994,147.73097 z M 199.02537,148.49163 C 199.0427,147.07317 200.03127,146.08425 201.74308,145.77297 C 203.67018,145.42254 203.82769,145.89579 202.44353,147.8775 C 201.39656,149.37645 199.00933,149.80536 199.02537,148.49163 z M 73.436185,147.60826 C 73.218565,147.03956 73.188872,146.42548 73.370199,146.24365 C 73.551528,146.06181 73.728133,146.31561 73.762658,146.80765 C 73.797182,147.29969 74.052312,146.99184 74.329614,146.12353 C 74.8338,144.5448 74.8338,144.5448 74.896571,146.24414 C 74.969639,148.22225 74.013056,149.11577 73.436185,147.60826 z M 106.63229,146.95301 C 104.89044,144.40717 104.9863,142.58399 106.94317,141.04039 C 108.63053,139.7094 109.86459,140.42172 108.40577,141.88463 C 105.82803,144.46959 109.20368,147.53452 112.01539,145.162 C 113.91386,143.56005 115.26193,143.14936 115.26193,144.17292 C 115.26193,144.99411 111.55015,148.01801 110.54216,148.01801 C 110.07753,148.01801 109.28125,148.17815 108.77265,148.37387 C 108.20689,148.59157 107.37601,148.04 106.63229,146.95301 z M 177.99863,146.34759 C 179.01996,143.89635 178.55781,142.99737 176.2652,142.97573 C 174.89459,142.96281 173.4667,144.63499 174.54155,144.99428 C 175.5311,145.32505 174.66456,146.75503 173.47459,146.75503 C 172.09666,146.75503 172.35026,143.35866 173.82834,142.01726 C 176.96427,139.17133 181.73769,142.76593 179.74643,146.47385 C 178.1144,149.51284 176.72173,149.41224 177.99863,146.34759 z M 85.034988,145.2174 C 85.034988,143.9666 86.454956,141.70308 87.239621,141.70308 C 88.121471,141.70308 88.121415,141.88644 87.239036,143.59756 C 86.423697,145.17867 85.034988,146.19929 85.034988,145.2174 z M 144.01215,144.3372 C 142.87215,143.07399 142.59338,140.44009 143.59968,140.44009 C 143.94603,140.44009 144.22941,140.74456 144.22941,141.11669 C 144.22941,143.76475 147.75578,143.87702 148.41331,141.24989 C 148.85752,139.47503 147.91634,138.57062 145.60913,138.55528 C 144.80191,138.54991 144.32821,138.26469 144.54427,137.91412 C 145.17987,136.8828 148.36921,137.1957 149.37171,138.38774 C 152.39908,141.98745 147.15002,147.81424 144.01215,144.3372 z M 89.443083,143.69543 C 89.443083,143.40194 89.991982,142.66367 90.662858,142.05484 C 92.295698,140.57299 93.507718,141.35337 92.112068,142.98794 C 91.036717,144.24738 89.443083,144.66982 89.443083,143.69543 z M 194.24078,143.51319 C 193.98912,143.10486 194.27425,142.41607 194.87829,141.97315 C 195.90311,141.22169 195.89207,141.12943 194.70104,140.49022 C 193.01109,139.58325 190.00591,139.62387 189.06603,140.56639 C 188.49008,141.14396 188.13555,141.14889 187.57533,140.58709 C 186.75925,139.76872 186.87603,139.70314 191.1282,138.59176 C 193.70214,137.91902 197.65946,139.2016 198.22086,140.89051 C 198.56982,141.94034 194.80171,144.42334 194.24078,143.51319 z M 74.329614,142.96607 C 74.329614,142.61874 74.612992,142.33457 74.959342,142.33457 C 75.305692,142.33457 75.58907,142.61874 75.58907,142.96607 C 75.58907,143.31339 75.305692,143.59756 74.959342,143.59756 C 74.612992,143.59756 74.329614,143.31339 74.329614,142.96607 z M 187.50961,143.21556 C 186.82373,142.52776 187.65257,141.70308 189.02973,141.70308 C 189.76951,141.70308 190.1945,142.03435 190.04241,142.49244 C 189.74299,143.39422 188.14322,143.85095 187.50961,143.21556 z M 96.370088,142.29697 C 96.370088,141.53346 99.004578,139.8086 100.17072,139.8086 C 100.72154,139.8086 102.64074,139.09817 104.43561,138.22986 C 108.11375,136.4505 108.33492,136.39735 108.33492,137.29284 C 108.33492,137.97713 106.59831,138.84138 100.30589,141.28857 C 98.141198,142.13045 96.370088,142.58423 96.370088,142.29697 z M 216.9931,141.96282 C 216.13456,141.33328 216.04414,141.07443 216.68518,141.08125 C 217.9545,141.09478 219.41472,142.10653 218.75501,142.51538 C 218.45446,142.70166 217.6616,142.45301 216.9931,141.96282 z M 112.11329,141.43995 C 112.11329,140.94792 111.75907,140.41266 111.32613,140.25049 C 110.80514,140.05534 110.93309,139.7929 111.70454,139.47435 C 112.45504,139.16446 113.06832,139.30694 113.42665,139.87445 C 114.27605,141.21966 114.10893,142.33457 113.05788,142.33457 C 112.53835,142.33457 112.11329,141.93199 112.11329,141.43995 z M 205.31301,141.36424 C 204.44714,140.89406 203.17194,140.30772 202.47924,140.06126 C 201.29283,139.63913 201.28767,139.59704 202.39035,139.33558 C 203.90275,138.97696 209.21003,140.99968 208.74338,141.75685 C 208.2711,142.52314 207.22723,142.40367 205.31301,141.36424 z M 137.45983,140.60744 C 136.35952,140.22639 136.47249,138.54561 137.59841,138.54561 C 138.10757,138.54561 139.15268,137.69309 139.92088,136.65113 C 141.10991,135.03838 143.56118,133.83867 142.82402,135.23027 C 142.68603,135.49076 142.22325,136.58828 141.7956,137.6692 C 141.00528,139.66688 138.88768,141.10191 137.45983,140.60744 z M 97.351638,139.31941 C 96.818858,138.78514 98.264048,136.65113 99.158648,136.65113 C 99.847948,136.65113 100.77819,137.90804 100.77819,138.83939 C 100.77819,139.19363 97.661588,139.63024 97.351638,139.31941 z M 85.321041,138.49886 C 84.882828,137.78783 87.345724,134.75665 88.361665,134.75665 C 89.146465,134.75665 88.286121,138.08814 87.34654,138.68749 C 86.325763,139.33863 85.808935,139.29051 85.321041,138.49886 z M 157.92319,137.58136 C 155.36717,135.83963 154.92355,133.57678 156.71949,131.44131 C 157.72199,130.24928 160.91132,129.93638 161.54692,130.96769 C 161.76298,131.31826 161.28928,131.60348 160.48207,131.60885 C 158.41934,131.62257 157.48685,132.38045 157.75528,133.82504 C 157.88276,134.51109 158.00874,135.25512 158.03524,135.47845 C 158.24049,137.20826 161.86179,135.97023 161.86179,134.17026 C 161.86179,133.79813 162.14517,133.49366 162.49152,133.49366 C 163.54019,133.49366 163.15709,136.24192 161.89733,137.75624 C 160.45269,139.49279 160.74727,139.50576 157.92319,137.58136 z M 91.486548,135.86176 C 91.629128,135.42761 92.418468,134.97406 93.240648,134.85387 C 94.545778,134.66309 94.629638,134.76327 93.901368,135.64324 C 92.915158,136.83489 91.11342,136.99793 91.486548,135.86176 z M 177.44755,135.96905 C 176.24832,135.26861 175.98491,133.7917 176.95229,133.19215 C 177.286,132.98532 178.14263,133.40132 178.8559,134.11659 C 179.90295,135.16658 180.39895,135.28496 181.43079,134.73119 C 183.52264,133.60853 185.0346,134.16245 183.65488,135.54602 C 182.44581,136.75847 179.18015,136.98103 177.44755,135.96905 z M 98.888998,135.52849 C 98.888998,134.57861 101.3523,132.89254 101.76403,133.56059 C 101.98388,133.91732 101.63947,134.6075 100.99868,135.09433 C 99.684878,136.09245 98.888998,136.25624 98.888998,135.52849 z M 108.33492,135.6332 C 108.33492,135.28173 109.23563,134.32637 110.33651,133.51018 C 112.33809,132.0262 112.33809,132.0262 110.87376,131.48299 C 109.79687,131.08351 109.08563,131.23365 108.18558,132.05047 C 107.01562,133.11223 106.92308,133.10817 106.08467,131.95836 C 105.11934,130.63449 106.01937,128.73442 107.2504,129.49737 C 109.40239,130.83111 111.36925,130.16504 112.46332,127.73203 C 113.63848,125.11867 113.98384,124.88666 115.07301,125.97889 C 115.57679,126.48409 115.4279,127.01229 114.52709,127.91563 C 113.65829,128.78687 113.47784,129.38653 113.92271,129.92408 C 114.7626,130.93892 112.38883,134.75665 110.91794,134.75665 C 110.32852,134.75665 109.50622,135.09766 109.09059,135.51444 C 108.65888,135.94736 108.33492,135.99827 108.33492,135.6332 z M 117.5293,133.87164 C 117.90844,132.88083 119.56194,132.29357 120.79833,132.71061 C 122.09351,133.14748 120.41811,134.75665 118.66809,134.75665 C 117.65969,134.75665 117.29815,134.47568 117.5293,133.87164 z M 235.06963,133.69465 C 235.62886,133.13386 236.8842,132.64609 237.85928,132.61072 C 239.23319,132.56089 239.91568,132.01391 240.89211,130.18003 C 242.77493,126.64387 244.06831,127.50681 242.3974,131.18434 C 241.57218,133.00058 239.92103,133.8966 236.52815,134.36937 C 234.24978,134.68685 234.13374,134.63317 235.06963,133.69465 z M 89.443083,130.40376 C 89.443083,129.76362 91.361098,128.89163 91.800318,129.33208 C 91.958608,129.49081 91.901318,129.92375 91.673028,130.29418 C 91.170622,131.10937 89.443083,131.19426 89.443083,130.40376 z M 100.77819,129.74051 C 100.77819,129.41288 101.39388,128.71237 102.1464,128.18381 C 103.32857,127.35346 103.37552,127.16927 102.49172,126.82917 C 101.24548,126.3496 99.960998,122.71996 100.52029,121.25838 C 101.6301,118.35814 107.07547,119.18444 107.07547,122.25307 C 107.07547,123.60992 107.07547,123.60992 105.61799,122.23686 C 103.22476,119.98223 100.9198,120.99306 102.17164,123.74824 C 103.13249,125.86299 104.55079,126.15753 106.56879,124.66138 C 107.97593,123.61812 108.33492,123.54418 108.33492,124.29765 C 108.33492,124.81777 106.82144,126.38923 104.97163,127.78977 C 101.49346,130.42317 100.77819,130.75591 100.77819,129.74051 z M 115.89165,129.11048 C 115.89165,128.43633 116.20671,127.6895 116.59178,127.45084 C 117.59027,126.83201 118.47885,128.54555 117.66771,129.52565 C 116.69148,130.70524 115.89165,130.51827 115.89165,129.11048 z M 94.253178,128.12597 C 94.452538,127.60499 94.868718,127.17873 95.178008,127.17873 C 95.487298,127.17873 95.740358,127.60499 95.740358,128.12597 C 95.740358,128.64695 95.324188,129.07321 94.815538,129.07321 C 94.252188,129.07321 94.032378,128.70297 94.253178,128.12597 z M 88.834306,128.04028 C 88.803247,126.97708 90.49625,123.9099 91.448358,123.30445 C 93.288868,122.13408 94.165208,122.73243 92.729398,124.17913 C 91.953818,124.96061 90.764851,126.31043 90.087253,127.17873 C 89.409655,128.04703 88.845828,128.43473 88.834306,128.04028 z M 95.110638,125.28425 C 95.110638,124.93693 95.552428,124.65275 96.092388,124.65275 C 96.632358,124.65275 96.899008,124.93693 96.684958,125.28425 C 96.470898,125.63157 96.029108,125.91574 95.703198,125.91574 C 95.377288,125.91574 95.110638,125.63157 95.110638,125.28425 z M 107.52572,120.4474 C 107.34734,120.15543 108.44825,118.73204 109.9722,117.2843 C 111.49615,115.83657 112.74302,114.99742 112.74302,115.41954 C 112.74302,116.47055 107.9299,121.10892 107.52572,120.4474 z M 111.19559,119.64444 C 110.99632,119.32112 111.12129,118.87809 111.47329,118.65993 C 112.22479,118.19418 113.37274,118.78533 113.37274,119.63807 C 113.37274,120.40648 111.66831,120.41146 111.19559,119.64444 z M 95.375288,115.88416 C 93.454908,114.70982 89.443083,110.29296 89.443083,109.35303 C 89.443083,108.07151 91.328408,109.10381 92.667978,111.1188 C 93.491918,112.35816 95.228708,113.92688 96.527518,114.60485 C 98.847188,115.81569 99.651968,117.07712 98.101838,117.07247 C 97.668908,117.07117 96.441958,116.53643 95.375288,115.88416 z M 100.77819,115.77494 C 100.77819,115.40733 99.502988,113.94276 97.944408,112.52035 C 96.385828,111.09795 95.110638,109.5516 95.110638,109.08404 C 95.110638,107.81373 96.175468,108.05752 97.231628,109.56964 C 97.744758,110.30428 99.036028,111.4368 100.10112,112.08633 C 101.16621,112.73587 102.04626,113.76878 102.05679,114.3817 C 102.07499,115.44057 102.10792,115.44103 102.71781,114.39098 C 103.07084,113.78317 103.78527,113.28587 104.30542,113.28587 C 104.94581,113.28587 104.70269,113.79561 103.55245,114.8646 C 101.74257,116.54665 100.77819,116.8631 100.77819,115.77494 z M 102.95225,112.09806 C 102.2146,111.35834 102.80376,110.69218 104.03493,110.87385 C 105.81126,111.13596 106.22375,112.38374 104.53407,112.38374 C 103.82075,112.38374 103.10893,112.25518 102.95225,112.09806 z M 101.09604,110.76474 C 100.88034,110.41475 101.01638,110.1284 101.39836,110.1284 C 101.78033,110.1284 102.00959,109.66058 101.90782,109.0888 C 101.80605,108.51702 102.077,107.925 102.50994,107.77319 C 102.94288,107.62138 103.2971,107.96741 103.2971,108.54215 C 103.2971,109.91598 101.61794,111.61156 101.09604,110.76474 z M 103.92683,109.11512 C 103.92683,108.8807 104.42231,108.32558 105.02789,107.88153 C 106.06254,107.12286 106.04019,106.95375 104.65758,105.07842 C 102.65655,102.36429 103.50695,101.83796 105.94424,104.28209 C 107.64864,105.99127 107.80497,106.40521 107.07787,107.28377 C 106.09104,108.47616 103.92683,109.73398 103.92683,109.11512 z M 86.451876,106.80735 C 83.921847,105.53283 82.989029,104.44496 84.426195,104.44496 C 85.244293,104.44496 91.332268,107.51611 91.332268,107.92881 C 91.332268,108.61688 88.963399,108.07254 86.451876,106.80735 z M 97.144128,106.22103 C 97.281228,105.80859 97.730098,105.35859 98.141628,105.22103 C 98.601798,105.0672 98.742538,105.3559 98.507188,105.97092 C 98.067938,107.1188 96.766318,107.35763 97.144128,106.22103 z M 100.46332,106.33944 C 99.963368,105.52823 100.62763,104.44496 101.625,104.44496 C 102.04987,104.44496 102.39749,105.0133 102.39749,105.70795 C 102.39749,107.02406 101.13858,107.43508 100.46332,106.33944 z M 92.369868,105.85885 C 91.775438,104.89436 93.803458,102.88152 94.582518,103.66277 C 95.131538,104.21332 95.112118,104.62951 94.503058,105.36543 C 93.624088,106.42749 92.833078,106.61046 92.369868,105.85885 z M 108.41374,104.58872 C 108.37039,104.14681 107.16532,102.51282 105.73581,100.95763 C 102.99754,97.978632 103.19833,97.192625 106.11074,99.48995 C 107.70422,100.7469 107.81762,100.76053 107.6082,99.670032 C 107.48357,99.021116 106.44748,97.858912 105.30577,97.087357 C 103.27231,95.713165 103.25743,95.66977 104.57691,94.96163 C 105.31774,94.564036 106.08852,94.403842 106.28976,94.605643 C 106.491,94.807444 106.42337,94.972553 106.13948,94.972553 C 105.85558,94.972553 106.18893,95.469854 106.88026,96.077667 C 108.95513,97.901887 109.46912,99.498949 108.96346,102.55048 C 108.70446,104.11342 108.45709,105.03063 108.41374,104.58872 z M 97.676078,102.29095 C 96.728938,101.14652 97.778128,100.41775 99.557518,100.98409 C 100.58512,101.31115 100.69536,101.57391 100.10451,102.28784 C 99.172068,103.41451 98.606538,103.41523 97.676078,102.29095 z M 101.72278,101.28749 C 101.93684,100.94017 102.39535,100.656 102.7417,100.656 C 103.08805,100.656 103.19629,100.94017 102.98223,101.28749 C 102.76818,101.63481 102.30966,101.91898 101.96331,101.91898 C 101.61696,101.91898 101.50872,101.63481 101.72278,101.28749 z M 94.166038,100.0245 C 94.380098,99.677181 94.821888,99.393009 95.147798,99.393009 C 95.473708,99.393009 95.740358,99.677181 95.740358,100.0245 C 95.740358,100.37182 95.298568,100.656 94.758608,100.656 C 94.218638,100.656 93.951988,100.37182 94.166038,100.0245 z M 84.21913,99.270663 C 83.23316,98.529444 83.611854,98.422235 87.177303,98.433197 C 91.509858,98.446517 91.879988,99.279534 87.787581,99.806689 C 86.27209,100.0019 84.922079,99.799116 84.21913,99.270663 z M 70.551247,98.761515 C 70.551247,98.414194 70.851349,98.130021 71.21814,98.130021 C 71.58493,98.130021 71.709895,98.414194 71.495839,98.761515 C 71.281782,99.108837 70.981681,99.393009 70.828946,99.393009 C 70.676211,99.393009 70.551247,99.108837 70.551247,98.761515 z M 72.440431,97.461259 C 72.440431,97.09344 72.723808,96.968124 73.070158,97.182781 C 73.416509,97.397438 73.699886,97.69838 73.699886,97.851543 C 73.699886,98.004707 73.416509,98.130021 73.070158,98.130021 C 72.723808,98.130021 72.440431,97.829078 72.440431,97.461259 z M 96.999818,97.145512 C 96.999818,96.604032 97.287818,96.339496 97.639818,96.557653 C 97.991818,96.775812 98.116778,97.21884 97.917518,97.542163 C 97.377688,98.418072 96.999818,98.254747 96.999818,97.145512 z M 70.551247,96.23554 C 70.551247,95.888219 70.851349,95.604047 71.21814,95.604047 C 71.58493,95.604047 71.709895,95.888219 71.495839,96.23554 C 71.281782,96.582862 70.981681,96.867034 70.828946,96.867034 C 70.676211,96.867034 70.551247,96.582862 70.551247,96.23554 z M 84.247828,95.874342 C 83.295365,95.356173 82.516077,94.494409 82.516077,93.959311 C 82.516077,93.16809 82.825934,93.230822 84.175321,94.295226 C 85.120199,95.040551 86.762925,95.604047 87.990853,95.604047 C 89.268021,95.604047 89.988466,95.861507 89.757947,96.23554 C 89.190955,97.155525 86.248236,96.962624 84.247828,95.874342 z M 85.97958,93.953986 C 84.940529,93.398053 83.098575,92.56731 81.886349,92.107891 C 80.409233,91.548083 80.097691,91.256536 80.941757,91.223927 C 83.033512,91.143115 86.42841,88.667164 84.454846,88.661778 C 83.616241,88.659489 82.429743,89.111713 81.818183,89.666719 C 81.206623,90.221726 80.415529,90.495639 80.060196,90.275415 C 79.695796,90.049572 80.466753,88.921367 81.82859,87.687579 C 84.278988,85.467583 85.836617,84.717873 84.40526,86.447389 C 83.726684,87.267316 84.076033,87.412374 87.004497,87.52665 C 91.347348,87.696119 94.555038,87.851804 95.708878,87.949114 C 97.200158,88.074885 95.626748,89.164105 93.536318,89.453103 C 91.647128,89.714278 91.647128,89.714278 93.578168,90.543634 C 95.509208,91.37299 95.509208,91.37299 92.097338,93.172772 C 88.100605,95.281069 88.390695,95.244026 85.97958,93.953986 z M 88.309573,92.951774 C 87.32361,91.963046 87.341262,90.122354 88.341059,89.668617 C 88.773997,89.472138 88.591837,89.377414 87.93626,89.45812 C 85.945028,89.703253 85.121964,91.719359 86.572236,92.799311 C 88.055179,93.903593 89.374156,94.019341 88.309573,92.951774 z M 97.117888,92.40711 C 97.269418,91.951251 97.765328,91.45395 98.219918,91.301996 C 98.692208,91.144123 98.928358,91.380933 98.770928,91.854553 C 98.619398,92.310413 98.123488,92.807714 97.668908,92.959667 C 97.196608,93.117541 96.960458,92.880731 97.117888,92.40711 z M 103.64903,88.290318 C 104.93506,87.239527 104.93439,87.239565 101.56535,88.408477 C 100.95923,88.618772 101.21014,88.263557 102.12292,87.61911 C 103.46218,86.673561 103.62524,86.300627 102.96766,85.687063 C 102.32365,85.086151 101.95527,85.218553 101.21068,86.318557 C 99.976388,88.141991 98.389958,86.983695 99.436328,85.023057 C 101.38091,81.379387 106.49472,78.651202 107.32295,80.815594 C 108.50605,83.90734 106.24001,89.289111 103.75511,89.289111 C 102.44836,89.289111 102.44663,89.272788 103.64903,88.290318 z M 146.84892,215.58783 C 148.96596,215.58783 150.32927,213.15738 149.2971,211.22334 C 148.58989,209.8982 148.48785,209.94649 145.79431,212.88101 C 143.01127,215.91305 141.71768,218.81453 144.12156,216.63295 C 144.75495,216.05813 145.98226,215.58783 146.84892,215.58783 z M 152.46738,216.21933 C 152.78539,216.21933 153.0456,215.6548 153.0456,214.96481 C 153.0456,214.12211 153.78734,213.39951 155.30519,212.76354 C 156.54796,212.24282 158.68636,210.92597 160.05718,209.83721 C 161.42801,208.74845 162.69542,208.00389 162.87366,208.18263 C 163.58037,208.89132 158.20376,213.70079 156.27156,214.08831 C 153.56129,214.63189 154.14064,215.95703 156.97773,215.70355 C 158.2091,215.59353 159.40341,215.80666 159.63176,216.17717 C 160.50153,217.58844 162.27999,216.73568 165.1406,213.53571 C 167.97412,210.36603 168.10574,210.295 168.13181,211.92153 C 168.17293,214.4884 170.85958,217.37843 172.18173,216.27806 C 172.81096,215.75438 173.92122,215.57523 175.08763,215.80917 C 177.6751,216.32811 177.67428,214.2234 175.08607,211.79887 C 171.97801,208.88736 172.39715,208.04673 176.03067,209.90439 C 179.60738,211.73302 181.95957,211.1752 180.10766,208.93753 C 179.69274,208.43619 179.53054,207.56274 179.7472,206.99654 C 180.16878,205.89485 182.64281,208.32955 182.64281,209.84612 C 182.64281,210.22549 183.07489,210.53588 183.60299,210.53588 C 184.86862,210.53588 186.04343,207.49654 185.18072,206.45413 C 184.82993,206.03027 184.72692,205.49896 184.95181,205.27344 C 185.59425,204.6292 187.0509,206.14359 187.0509,207.45574 C 187.0509,208.81595 187.72201,208.9788 188.81414,207.88361 C 189.82963,206.86527 189.73571,204.80975 188.6052,203.31088 C 186.79698,200.91351 187.62107,200.24871 189.90659,202.26105 C 192.0249,204.12616 193.90394,204.71612 194.81528,203.80222 C 195.04494,203.57192 194.39133,202.8703 193.36282,202.24307 C 191.12461,200.87812 190.57866,199.05063 190.9755,194.25182 C 191.21786,191.32108 191.03627,190.33507 189.99377,188.92106 C 188.37734,186.72858 189.09837,185.87483 191.02977,187.69437 C 193.00274,189.55307 194.60764,189.4834 194.60764,187.53904 C 194.60764,186.60374 193.94055,185.52567 192.88441,184.75417 C 191.23451,183.54893 191.20772,183.4438 192.25468,182.28367 C 193.65934,180.72719 193.65529,178.57184 192.24616,177.7488 C 191.23956,177.16086 191.25592,177.10346 192.43508,177.08592 C 193.14509,177.07536 194.06607,177.40773 194.48169,177.82451 C 195.03317,178.37754 195.23737,178.38601 195.23737,177.85589 C 195.23737,177.45637 194.74145,176.8139 194.13534,176.42819 C 193.20358,175.83526 193.30319,175.76854 194.7801,175.99638 C 195.74083,176.14459 196.67853,176.01979 196.86388,175.71904 C 197.04923,175.4183 196.78941,175.17224 196.2865,175.17224 C 195.78358,175.17224 195.209,174.74598 195.00964,174.225 C 194.81028,173.70402 194.14236,173.28211 193.52537,173.28743 C 192.6706,173.2948 192.60352,173.42419 193.24355,173.83104 C 193.93153,174.26837 193.91823,174.42859 193.17006,174.71649 C 192.66767,174.90982 191.15618,174.38989 189.8112,173.56109 C 188.46621,172.73229 187.58827,172.04532 187.86022,172.03448 C 188.62047,172.00418 187.10048,169.4888 186.32191,169.4888 C 185.85374,169.4888 185.87041,169.77056 186.37464,170.37982 C 187.25592,171.44467 186.22421,172.36043 185.00429,171.59618 C 184.12723,171.04673 182.98711,170.74625 180.9837,170.53656 C 180.24437,170.45918 179.23155,170.05637 178.733,169.64145 C 177.77055,168.84045 176.38837,168.95825 173.82662,170.05961 C 172.52576,170.61889 172.79922,170.67512 175.40094,170.38335 C 177.71005,170.1244 178.29772,170.20805 177.60498,170.69709 C 176.86268,171.22113 177.13239,171.37606 178.86444,171.42054 C 180.07667,171.45166 181.73767,171.60115 182.55555,171.75273 C 184.54148,172.12078 192.3405,175.76175 191.96009,176.14322 C 191.47552,176.62916 187.68063,175.69812 187.68063,175.0933 C 187.68063,174.7894 187.38053,174.54075 187.01374,174.54075 C 186.64694,174.54075 186.52198,174.82492 186.73604,175.17224 C 187.31973,176.11933 186.6654,175.95608 183.0761,174.2591 C 179.9215,172.76765 176.59779,172.38126 171.46514,172.90932 C 170.3395,173.02513 168.99346,173.15541 168.47393,173.19882 C 167.95441,173.24224 167.52934,173.52706 167.52934,173.83176 C 167.52934,174.13646 169.15876,174.25582 171.15027,174.09701 C 176.4626,173.67338 177.1329,173.67167 178.86444,174.07736 C 180.69473,174.50617 190.55127,178.08288 191.46743,178.65068 C 192.46046,179.26613 192.18432,180.39811 191.14413,179.97601 C 187.84997,178.63925 187.9288,178.6422 188.94009,179.8936 C 189.83517,181.0012 189.80216,181.01899 188.31036,180.23304 C 187.44448,179.77686 186.56128,179.13547 186.34769,178.80772 C 185.85829,178.05679 176.92694,175.01019 176.4924,175.44595 C 176.31555,175.6233 176.9186,176.05349 177.83251,176.40193 C 178.74642,176.75037 179.49417,177.19 179.49417,177.37887 C 179.49417,177.82634 176.22004,177.04029 175.39135,176.39387 C 174.58764,175.76694 169.6915,176.21085 168.27574,177.03901 C 167.49152,177.49775 168.16932,177.66482 170.87222,177.67901 C 178.61728,177.71967 186.4362,179.6413 189.88468,182.35162 C 190.87382,183.12903 190.93464,183.3458 190.16806,183.36158 C 189.63121,183.37262 188.92277,183.11988 188.59374,182.79993 C 185.27827,179.57599 167.32446,177.8285 165.42084,180.54446 C 164.78069,181.45779 164.38812,182.33661 164.54847,182.49741 C 165.00354,182.95376 167.66812,183.46927 169.56501,183.46795 C 170.51146,183.46729 171.43113,183.70253 171.60873,183.9907 C 171.78633,184.27886 170.92336,184.46709 169.69102,184.40897 C 168.45868,184.35084 167.11394,184.51782 166.70271,184.78004 C 166.24333,185.07296 166.56208,185.2848 167.52934,185.32942 C 169.10366,185.40203 169.10366,185.40203 167.52934,185.84169 C 165.8699,186.30511 165.57264,188.65835 166.6247,193.00312 C 167.28138,195.71508 166.41835,198.80337 163.98638,202.4441 C 160.23882,208.05432 159.31198,208.6414 154.20257,208.6414 C 150.20219,208.6414 149.81196,208.7509 150.26432,209.74652 C 150.92562,211.20201 150.90411,214.33316 150.22236,215.85534 C 149.77487,216.85448 149.87451,216.99459 150.78373,216.64471 C 151.39171,216.41074 152.14935,216.21933 152.46738,216.21933 z M 182.39532,203.22206 C 182.18508,202.67267 182.01308,201.76332 182.01308,201.20128 C 182.01308,199.89004 182.98521,200.89539 183.55906,202.80009 C 184.04036,204.39761 182.99079,204.77819 182.39532,203.22206 z M 167.88012,200.47178 C 166.71019,199.1754 167.01258,197.90601 168.49133,197.90601 C 168.99312,197.90601 169.23205,198.29002 169.04096,198.78938 C 168.51286,200.16945 169.86533,200.59047 172.2701,199.7946 C 175.2978,198.79257 176.4738,199.36623 174.01532,200.64594 C 171.35235,202.03208 169.23395,201.97195 167.88012,200.47178 z M 183.92552,198.91459 C 183.60911,198.08003 183.04937,197.21074 182.68165,196.98284 C 181.72072,196.38729 181.85493,194.72732 182.83356,195.10392 C 183.74599,195.45503 185.79145,198.66104 185.79145,199.74005 C 185.79145,201.01646 184.50698,200.44823 183.92552,198.91459 z M 183.1151,191.86531 C 180.60992,190.55759 179.19303,189.0651 180.45672,189.0651 C 181.05682,189.0651 188.31036,192.86456 188.31036,193.1789 C 188.31036,193.92038 185.86985,193.30331 183.1151,191.86531 z M 186.72393,189.78443 C 184.57003,187.71134 179.9891,185.75682 178.56688,186.3041 C 177.03397,186.89399 173.99205,185.95733 175.11891,185.24242 C 175.87325,184.76385 175.84039,184.66231 174.92864,184.65431 C 174.32253,184.649 173.82662,184.41142 173.82662,184.12637 C 173.82662,183.69099 179.78398,184.11781 180.75362,184.62266 C 180.9268,184.71282 182.2326,185.33533 183.65541,186.006 C 186.74535,187.46251 188.94009,189.39883 188.94009,190.66844 C 188.94009,191.89273 188.89624,191.87523 186.72393,189.78443 z M 178.86444,185.62916 C 178.86444,185.47599 178.58106,185.17505 178.23471,184.96039 C 177.88836,184.74573 177.60498,184.87105 177.60498,185.23887 C 177.60498,185.60669 177.88836,185.90763 178.23471,185.90763 C 178.58106,185.90763 178.86444,185.78232 178.86444,185.62916 z M 166.90925,189.86294 C 166.90222,188.83239 167.51627,188.19218 169.18056,187.49484 C 171.80337,186.39589 173.82662,186.2547 173.82662,187.17062 C 173.82662,187.51794 173.38748,187.80211 172.85075,187.80211 C 171.62433,187.80211 167.99766,189.64022 167.38155,190.57407 C 167.11323,190.98077 166.91484,190.68207 166.90925,189.86294 z M 185.69822,184.34066 C 184.95439,183.59474 174.95163,182.0249 170.58171,181.96826 C 166.32483,181.91309 165.87133,181.79664 166.69535,180.97031 C 167.671,179.99192 169.05238,179.90006 173.92088,180.48979 C 180.76944,181.31938 191.22686,184.54394 187.31329,184.61936 C 186.59172,184.63327 185.86494,184.50785 185.69822,184.34066 z M 61.614373,214.05126 C 65.378569,212.65194 67.402608,211.21495 67.402608,209.94184 C 67.402608,207.49819 70.294841,205.83847 73.089822,206.67822 C 77.512308,208.00695 79.041468,206.51374 81.95511,198.02134 C 83.119751,194.62676 83.118721,194.58962 81.808752,192.74478 C 80.208127,190.49061 80.873998,189.40496 82.570284,191.50316 C 83.23317,192.32311 83.775532,192.70157 83.775532,192.34418 C 83.775532,191.98678 83.947539,191.24487 84.15777,190.69548 C 84.395646,190.07385 84.20254,189.69659 83.646468,189.69659 C 82.359467,189.69659 79.997165,186.23848 79.997165,184.35447 C 79.997165,183.2422 80.335157,182.75447 81.099189,182.76421 C 82.482326,182.78183 85.481162,185.03921 84.898135,185.62387 C 84.660039,185.86264 84.006433,185.5979 83.445675,185.03557 C 81.397114,182.98127 80.336062,184.47238 82.298813,186.64728 C 83.899623,188.42111 84.772844,188.04655 85.863435,185.11827 C 87.710973,180.15755 87.794966,179.12304 86.386593,178.67478 C 84.919269,178.20777 81.000368,173.95572 81.539229,173.41536 C 81.737371,173.21666 82.675818,173.78012 83.624669,174.6675 C 86.867102,177.69986 87.977892,177.94041 88.423384,175.7067 C 89.04679,172.58093 88.931335,172.31127 86.609087,171.46918 C 85.39674,171.02957 83.554786,169.95261 82.515856,169.07596 C 80.626893,167.48204 80.626893,167.48204 80.626893,171.82102 C 80.626893,176.56467 80.089138,178.82308 76.370492,189.69659 C 71.083569,205.15584 67.22471,209.7305 60.078568,209.01061 C 56.218032,208.62169 56.218032,208.62169 56.3002,212.14698 C 56.39216,216.0923 56.255606,216.04337 61.614373,214.05126 z M 82.561782,181.08627 C 81.234595,179.39429 80.737916,176.67071 81.886349,177.38247 C 82.232699,177.59713 82.516077,178.15698 82.516077,178.62659 C 82.516077,179.0962 83.387951,180.21611 84.453576,181.1153 C 86.125396,182.52598 86.218015,182.75016 85.12901,182.75016 C 84.434874,182.75016 83.279621,182.00141 82.561782,181.08627 z M 73.376816,209.79323 C 75.00219,209.05059 75.00219,209.05059 72.995012,208.20427 C 71.238979,207.46384 70.842331,207.48999 69.824949,208.41329 C 67.535048,210.49144 69.866374,211.39718 73.376816,209.79323 z M 220.93026,208.5151 C 222.9886,206.451 218.97923,205.9682 216.56044,207.9889 C 215.07379,209.23088 215.07379,209.23088 217.62419,209.25189 C 219.02691,209.26344 220.51464,208.93189 220.93026,208.5151 z M 63.750716,207.31054 C 64.795927,206.74959 64.881212,206.50153 64.181613,206.05722 C 62.88101,205.23122 60.723871,205.37028 59.928444,206.33141 C 58.577045,207.96431 61.254552,208.65019 63.750716,207.31054 z M 155.56451,207.16054 C 155.56451,205.69936 153.14066,204.96341 152.10562,206.11031 C 150.97951,207.35814 150.99801,207.37842 153.26286,207.37842 C 154.52877,207.37842 155.56451,207.28037 155.56451,207.16054 z M 76.218798,110.97039 C 76.218798,109.11908 76.106728,109.14373 75.022486,111.23351 C 74.41157,112.411 74.45089,112.65438 75.25205,112.65438 C 75.879541,112.65438 76.218798,112.06342 76.218798,110.97039 z M 83.400837,110.6927 C 80.838174,107.85113 77.560924,106.73649 77.106553,108.55193 C 76.497032,110.98727 77.787398,112.02288 81.431327,112.02288 C 84.60046,112.02288 84.60046,112.02288 83.400837,110.6927 z M 74.329614,109.62321 C 74.329614,108.35211 72.54984,107.60243 69.532213,107.60243 C 64.628901,107.60243 63.318551,108.31137 66.458016,109.26567 C 69.352012,110.14535 74.329614,110.37144 74.329614,109.62321 z M 76.218798,106.93366 C 76.218798,106.04123 75.782725,105.70795 74.615079,105.70795 C 73.027966,105.70795 73.023076,105.72362 74.142783,107.22161 C 75.401541,108.90564 76.218798,108.79228 76.218798,106.93366 z M 96.036248,80.04433 C 95.180808,78.780237 94.480908,77.359376 94.480908,76.886862 C 94.480908,75.335448 89.637545,77.60323 88.335723,79.76419 C 87.309774,81.467213 88.271953,81.463316 89.810733,79.758214 C 90.466651,79.031401 91.573238,78.142053 92.269808,77.781886 C 93.173928,77.314411 93.007088,77.692532 91.686748,79.103364 C 90.347092,80.534832 90.11011,81.079693 90.827161,81.079693 C 91.371648,81.079693 92.297448,80.344607 92.884478,79.446168 C 93.471508,78.54773 94.093498,77.954729 94.266678,78.12839 C 94.439848,78.302051 94.101238,79.179223 93.514208,80.077662 C 92.403708,81.777249 92.973998,82.292996 94.447648,80.92182 C 95.140178,80.277443 95.224768,80.335439 94.908218,81.237567 C 94.607608,82.094239 94.865648,82.342681 96.056008,82.342681 C 97.591588,82.342681 97.591588,82.342681 96.036248,80.04433 z"
         style="fill:#000000" />
    </g>
  </g>
</svg>
