<?xml version="1.0" encoding="UTF-8" standalone="no"?>
<!-- Created with Inkscape (http://www.inkscape.org/) -->

<svg
   xmlns:dc="http://purl.org/dc/elements/1.1/"
   xmlns:cc="http://creativecommons.org/ns#"
   xmlns:rdf="http://www.w3.org/1999/02/22-rdf-syntax-ns#"
   xmlns:svg="http://www.w3.org/2000/svg"
   xmlns="http://www.w3.org/2000/svg"
   xmlns:sodipodi="http://sodipodi.sourceforge.net/DTD/sodipodi-0.dtd"
   xmlns:inkscape="http://www.inkscape.org/namespaces/inkscape"
   width="72.765221mm"
   height="81.540947mm"
   viewBox="0 0 257.82952 288.92461"
   id="svg8151"
   version="1.1"
   inkscape:version="0.91 r13725"
   sodipodi:docname="lion_rompant_stylized.svg">
  <defs
     id="defs8153" />
  <sodipodi:namedview
     id="base"
     pagecolor="#ffffff"
     bordercolor="#666666"
     borderopacity="1.0"
     inkscape:pageopacity="0.0"
     inkscape:pageshadow="2"
     inkscape:zoom="1"
     inkscape:cx="-48.044251"
     inkscape:cy="96.969512"
     inkscape:document-units="px"
     inkscape:current-layer="layer1"
     showgrid="false"
     fit-margin-top="0"
     fit-margin-left="0"
     fit-margin-right="0"
     fit-margin-bottom="0"
     inkscape:window-width="1920"
     inkscape:window-height="1005"
     inkscape:window-x="-9"
     inkscape:window-y="-9"
     inkscape:window-maximized="1" />
  <metadata
     id="metadata8156">
    <rdf:RDF>
      <cc:Work
         rdf:about="">
        <dc:format>image/svg+xml</dc:format>
        <dc:type
           rdf:resource="http://purl.org/dc/dcmitype/StillImage" />
        <dc:title></dc:title>
      </cc:Work>
    </rdf:RDF>
  </metadata>
  <g
     inkscape:label="Layer 1"
     inkscape:groupmode="layer"
     id="layer1"
     transform="translate(-45.901393,-340.40711)">
    <path
       style="fill:#000000"
       d="m 123.05316,625.73832 c 0,-4.35592 -0.35356,-4.51167 -7.89463,-3.47805 -7.1187,0.97573 -8.19773,0.61945 -10.9789,-3.62516 -3.40592,-5.1981 -10.62224,-6.38 -12.2976,-2.01411 -1.83372,4.77862 -4.73623,2.86334 -4.76146,-3.14196 -0.0126,-3.20928 -0.50662,-7.63361 -1.09588,-9.83183 -0.89707,-3.34652 -1.64832,-3.68797 -4.61775,-2.09879 -4.20367,2.24973 -6.59816,0.65739 -3.56803,-2.37276 2.40577,-2.40575 2.90155,-5.68933 0.64883,-4.29705 -0.81167,0.50164 -1.41762,-3.1553 -1.34656,-8.12652 0.11042,-7.71806 -0.59221,-9.65943 -4.8087,-13.28826 -4.38886,-3.77719 -4.70616,-4.7583 -2.85377,-8.82387 1.1629,-2.55229 3.58337,-4.57416 5.47591,-4.57416 4.24065,0 12.59601,-4.2413 15.68303,-7.96093 2.71805,-3.27505 2.01208,-3.45026 -4.27337,-1.06053 -6.30808,2.39832 -5.80772,-0.26654 0.78082,-4.15847 6.6825,-3.94745 7.12654,-7.39557 0.74615,-5.7942 -4.17302,1.04737 -3.88436,0.44571 2.86804,-5.97769 4.12943,-3.92825 6.977711,-8.0004 6.329481,-9.04926 -0.648211,-1.04884 -4.843911,-1.90699 -9.323771,-1.90699 -16.35754,0 -24.84917,-9.84875 -24.76802,-28.72645 0.058,-13.49371 3.78349,-21.92659 18.63955,-42.19197 10.40488,-14.19342 11.67186,-21.54484 3.71316,-21.54484 -3.77989,0 -4.73458,1.1338 -6.04715,7.18162 -0.85723,3.94988 -1.84998,8.21287 -2.2061,9.47331 -0.35612,1.26045 -4.24352,3.83315 -8.63865,5.71712 -9.88946,4.23913 -12.48651,8.81249 -11.40367,20.08171 0.95119,9.89934 -1.08713,11.17264 -7.29953,4.55986 -5.02004,-5.34359 -5.15419,-15.31556 -0.28928,-21.50029 1.98798,-2.5273 7.66691,-6.42656 12.61986,-8.66499 6.60101,-2.9833 9.27568,-5.29641 10.0179,-8.66372 1.979,-8.97849 2.74149,-10.88851 5.41316,-13.5602 3.86812,-3.86812 10.79171,-3.33627 15.30356,1.17556 l 3.87929,3.87929 3.55964,-4.32814 c 6.16184,-7.49216 17.44846,-32.83798 19.00353,-42.67528 3.09332,-19.56817 -3.22341,-34.83879 -14.8184,-35.8233 -8.62931,-0.73269 -17.29875,7.22262 -17.29875,15.87382 0,4.74001 0.53664,5.49546 3.14195,4.42293 7.205274,-2.9663 9.286397,-2.82098 13.01628,0.9089 3.58296,3.58296 3.81261,5.03444 2.65389,16.77346 -1.30205,13.19101 -3.26135,19.135 -6.307468,19.135 -0.952731,0 -1.732241,-2.34009 -1.732241,-5.20023 0,-3.70499 -1.824771,-6.80238 -6.346391,-10.77241 -8.25933,-7.2518 -9.92647,-7.03421 -7.70651,1.00583 2.46162,8.91524 0.68141,16.27598 -5.92445,24.49609 -3.21954,4.00628 -5.93022,9.83703 -6.48051,13.93978 -1.20804,9.00649 -3.40574,8.98335 -5.84127,-0.0616 -2.07457,-7.70431 -1.59545,-11.18655 3.91572,-28.45957 1.98927,-6.23477 3.11662,-11.83619 2.50523,-12.44758 -2.14278,-2.14278 -10.93244,6.22542 -11.4957,10.94444 -0.68273,5.72031 -3.06042,6.13061 -5.80529,1.00176 -3.24796,-6.06886 -0.41756,-12.04229 8.8664,-18.71216 7.04181,-5.05901 9.40992,-8.21429 12.47574,-16.62258 6.96,-19.08845 22.830123,-28.90568 36.0844,-22.32176 10.50361,5.21758 13.4968,11.17784 14.21336,28.30273 1.07767,25.75537 -5.44463,41.4678 -32.21942,77.61751 -20.97036,28.31291 -26.91528,46.40659 -19.14628,58.27255 9.8745,15.0818 31.82864,4.16509 79.41731,-39.4903 11.74027,-10.76991 12.02326,-11.22208 7.03527,-11.24118 l -5.19701,-0.0199 5.84619,-4.60744 c 3.21543,-2.5341 6.75384,-6.36281 7.86317,-8.50825 1.71199,-3.31099 1.22037,-3.15427 -3.25133,1.03654 -6.84767,6.41751 -11.14705,6.7287 -7.07371,0.51201 4.22737,-6.45176 3.56334,-8.66014 -1.58891,-5.28426 -5.45803,3.57622 -5.55654,2.68305 -0.74434,-6.74964 2.05931,-4.03655 4.20094,-11.76481 4.75922,-17.17389 l 1.01503,-9.83472 -4.6776,4.6776 c -2.57269,2.57274 -5.94485,4.67765 -7.49371,4.67765 -2.47977,0 -2.51125,-0.48244 -0.26353,-4.03965 1.40392,-2.22182 2.88798,-9.08923 3.2979,-15.26093 l 0.74535,-11.22127 -6.54809,0 c -7.9581,0 -10.28328,-1.84813 -5.52968,-4.3952 1.93872,-1.03879 5.42551,-4.71647 7.74848,-8.17262 2.32294,-3.45615 6.01363,-6.54209 8.20151,-6.85763 4.17377,-0.60197 5.22934,-2.92947 2.18256,-4.81249 -0.98747,-0.6103 -1.7954,-3.24336 -1.7954,-5.85126 0,-3.68792 0.47878,-4.26284 2.15448,-2.58714 3.47545,3.47545 4.45951,2.52436 3.58104,-3.46101 l -0.82418,-5.6155 5.36802,3.96875 c 4.94524,3.65616 5.97094,3.78812 13.02274,1.67535 6.6751,-1.99992 7.92369,-1.92559 9.75642,0.58081 1.48381,2.02925 2.97116,2.38765 5.0592,1.21913 2.1531,-1.20493 4.14871,-0.54878 7.33718,2.41249 2.40884,2.23716 6.49778,5.51917 9.08655,7.29334 2.58878,1.77418 4.70685,4.34132 4.70685,5.70475 0,4.42274 -9.05452,9.92121 -16.33757,9.92121 -7.36741,0 -11.57856,4.32086 -9.49726,9.74466 1.21553,3.16758 5.29,3.76724 6.9831,1.02776 2.30537,-3.73014 5.75407,-1.55875 7.72528,4.86404 1.50219,4.89459 1.5127,6.98769 0.0397,7.8981 -1.10233,0.68129 -1.50787,2.53213 -0.90124,4.113 2.31043,6.0209 -2.69095,2.557 -5.29023,-3.66397 -2.47281,-5.91824 -2.99696,-6.27317 -5.52736,-3.74277 -7.20237,7.20237 3.34605,17.97323 19.82114,20.23913 7.95378,1.09392 8.68336,1.53161 5.92067,3.55174 -3.55162,2.597 -3.04135,3.06994 6.70452,6.21396 7.46122,2.40701 6.15277,5.33133 -2.40917,5.38436 l -4.43863,0.0275 3.77141,3.77143 3.7714,3.7714 8.64769,-3.82528 c 19.76877,-8.74468 27.67998,-18.66214 27.69039,-34.71261 0.004,-5.69136 0.74725,-11.75085 1.65237,-13.46553 0.90509,-1.71468 2.58381,-5.6585 3.7305,-8.76406 2.84609,-7.70813 8.32261,-13.21336 13.09668,-13.16533 3.92033,0.0395 3.91389,0.0829 -0.5188,3.49385 -3.6397,2.80079 -4.05564,3.88818 -2.19944,5.75019 1.81847,1.82415 3.01306,1.84408 5.8107,0.097 4.07928,-2.54756 12.54737,-2.9515 12.54737,-0.59854 0,0.88043 -2.01983,2.10772 -4.48851,2.72731 -6.43542,1.6152 -6.22062,8.14156 0.25277,7.68005 2.6077,-0.18589 5.09882,0.67191 5.53582,1.90625 0.46331,1.30864 -0.69159,2.24426 -2.77023,2.24426 -2.38422,0 -4.21755,1.87249 -5.53582,5.65412 -1.08416,3.10978 -1.97112,5.83951 -1.97112,6.06609 0,0.22658 2.319,1.37253 5.15331,2.54654 2.83431,1.17402 6.09629,4.20419 7.24883,6.73374 2.63976,5.79367 1.02562,7.67956 -2.65876,3.10638 -1.98047,-2.45821 -3.05787,-2.81007 -3.72187,-1.21548 -0.514,1.23434 -2.48308,2.24425 -4.37572,2.24425 -1.89266,0 -3.44119,0.80793 -3.44119,1.7954 0,0.98747 1.25958,1.79541 2.79907,1.79541 1.53948,0 2.29973,0.80793 1.68944,1.7954 -0.6103,0.98747 -2.67781,1.7954 -4.59448,1.7954 -4.60743,0 -4.42179,2.73094 0.41603,6.11947 3.48723,2.44256 3.57655,2.85674 0.8423,3.90596 -1.6822,0.64553 -5.65942,0.6918 -8.83823,0.10287 -5.64547,-1.04596 -5.67888,-1.01445 -1.43869,1.35765 4.33489,2.42507 4.33568,2.43128 0.56688,4.44829 -2.07574,1.11091 -6.85694,2.10037 -10.62488,2.1988 -5.99133,0.15655 -6.28768,0.35128 -2.36228,1.55255 l 4.48851,1.37359 -4.48851,1.92444 c -2.46868,1.05845 -3.43091,1.97566 -2.13829,2.03825 5.2289,0.25321 -0.26755,3.57614 -7.77828,4.70245 -8.96967,1.34508 -9.97134,2.83365 -3.9978,5.94108 3.49855,1.81994 2.89871,2.00665 -4.47817,1.39377 l -8.51781,-0.70766 9.1153,11.59902 c 5.01341,6.37945 8.68309,12.03123 8.15481,12.5595 -0.52826,0.52827 -4.37046,-1.95832 -8.53822,-5.52577 -8.88859,-7.60831 -10.81258,-7.26255 -5.00122,0.89876 3.42972,4.8166 3.60196,5.6108 1.00031,4.61244 -3.55012,-1.36229 -3.01288,-0.0842 3.75706,8.93838 7.66917,10.22098 18.89876,11.03317 20.52717,1.48462 0.4956,-2.90613 3.12759,-4.09339 13.80358,-6.22665 12.56445,-2.51061 13.31031,-2.47297 15.69771,0.792 3.52642,4.82267 3.11443,6.78404 -0.96627,4.60011 -4.4183,-2.3646 -7.29964,-2.37199 -7.29964,-0.0187 0,1.01191 2.04053,2.61565 4.53452,3.56386 5.20807,1.98011 7.18145,5.77983 5.35246,10.30608 -1.12805,2.79162 -1.44331,2.69152 -2.82735,-0.8977 -1.63663,-4.24434 -6.01273,-5.39068 -8.04233,-2.10675 -0.65702,1.0631 0.50719,3.51836 2.58716,5.45614 3.86809,3.60368 5.10771,11.32898 2.1147,13.17875 -0.91686,0.56666 -1.94597,-0.79953 -2.28688,-3.03599 -0.40204,-2.63761 -1.55106,-3.76241 -3.27031,-3.20144 -1.45776,0.47567 -7.24867,0.67811 -12.86869,0.44984 -11.23707,-0.45643 -14.1957,1.61044 -9.59015,6.69953 1.64228,1.81468 2.32737,3.68872 1.52243,4.16456 -2.65181,1.5676 -9.2804,-2.0299 -12.33774,-6.69599 -1.80185,-2.75004 -4.68239,-4.58517 -7.19707,-4.58517 -2.30603,0 -5.01632,-1.41388 -6.02282,-3.14196 -2.43035,-4.17266 -2.46992,-1.20439 -0.0443,3.3278 1.04218,1.94733 1.37917,5.16541 0.74888,7.1513 -1.00229,3.15787 -1.57768,2.76401 -4.58798,-3.14055 -1.89309,-3.71318 -3.44198,-8.35069 -3.44198,-10.30558 0,-3.51075 -0.0323,-3.51159 -2.63601,-0.0693 -2.5475,3.3681 -2.64215,3.33442 -2.81929,-1.0034 -0.16015,-3.92078 -0.35427,-4.05217 -1.53512,-1.03877 -1.28185,3.27119 -1.50764,3.2273 -4.36229,-0.84832 -1.65578,-2.36388 -3.0105,-6.49437 -3.0105,-9.17879 0,-2.68441 -0.92506,-5.45247 -2.05572,-6.15126 -1.43336,-0.88587 -1.76166,0.26767 -1.08446,3.81027 1.16576,6.09831 -1.80369,13.40694 -5.44716,13.40694 -2.11936,0 -2.19811,-0.51406 -0.40903,-2.66978 2.4524,-2.95496 1.055,-11.69344 -1.86995,-11.69344 -1.00147,0 -6.03566,2.17039 -11.18704,4.8231 -7.92025,4.07849 -12.41511,4.97931 -29.11563,5.83506 -18.89803,0.96833 -19.49491,1.11932 -13.84575,3.50245 3.24702,1.36977 6.68073,3.94244 7.63046,5.71703 2.38299,4.45266 2.16361,6.41298 -0.4277,3.82168 -4.90193,-4.90194 -19.39035,-1.26274 -19.39035,4.87046 0,4.50169 3.32525,6.91979 13.78887,10.02715 10.63326,3.15773 14.99815,7.51204 20.83183,20.78123 2.41913,5.50252 6.63515,11.76399 9.36892,13.91438 4.88538,3.84282 4.8996,3.90979 0.8301,3.90979 -2.27723,0 -5.6179,-1.33711 -7.42374,-2.97137 -3.06382,-2.77271 -3.28332,-2.75803 -3.28332,0.21985 0,2.63304 -0.47103,2.80029 -2.69311,0.95612 -2.20567,-1.83054 -2.6931,-1.70786 -2.6931,0.67787 0,3.62997 -2.4545,3.75232 -5.34743,0.26657 -1.90097,-2.29054 -3.01689,-2.02048 -8.29914,2.00849 -3.35658,2.56018 -6.10287,5.45263 -6.10287,6.42766 0,0.97504 2.51251,4.94509 5.58335,8.82234 6.18441,7.80846 8.10816,7.86982 19.52874,0.62304 3.4691,-2.20129 10.19838,-5.03377 14.95391,-6.2944 7.43823,-1.97176 9.02864,-1.90986 11.38159,0.44307 2.44989,2.44992 2.24253,2.73514 -1.9885,2.73514 -2.59799,0 -5.17482,0.4512 -5.7263,1.00268 -2.10286,2.10286 1.57775,4.83238 6.51622,4.83238 5.21848,0 10.7947,3.96154 10.7947,7.66894 0,1.43346 -0.63028,1.39596 -2.15448,-0.1282 -1.18497,-1.18496 -3.2048,-2.15448 -4.48851,-2.15448 -3.19727,0 -2.94796,6.2324 0.35908,8.97702 1.48121,1.22929 2.6931,3.90643 2.6931,5.94919 0,3.33051 -0.2318,3.41277 -2.24425,0.79637 -1.46295,-1.902 -5.64249,-3.1153 -12.00545,-3.48511 -9.12018,-0.5301 -9.83263,-0.27378 -10.84908,3.90306 -0.7354,3.02186 -1.53372,3.74907 -2.46374,2.24425 -0.75671,-1.22444 -3.08239,-2.22621 -5.16818,-2.22621 -2.08577,0 -5.26981,-1.3371 -7.07565,-2.97137 -1.96445,-1.77781 -3.28332,-2.1384 -3.28332,-0.8977 0,4.15794 -3.83281,1.92481 -6.45584,-3.76139 -2.61007,-5.65809 -2.66903,-5.68317 -1.9441,-0.82655 1.03331,6.92266 -2.67391,5.2922 -5.57122,-2.45026 l -2.30105,-6.14906 0.84162,6.73277 c 1.11986,8.95873 -1.87796,8.61588 -4.33138,-0.49537 -1.74475,-6.47954 -2.23005,-6.94441 -4.68595,-4.48851 -4.48019,4.48019 -5.68358,3.18969 -4.74991,-5.09376 0.75299,-6.68055 0.27857,-8.25668 -3.22372,-10.70977 -3.91314,-2.74088 -3.94398,-2.93427 -0.65462,-4.1043 7.57407,-2.69407 11.53837,-8.22007 11.34755,-15.81782 l -0.18377,-7.31751 -1.42914,6.05157 c -0.78605,3.32835 -3.0381,7.66048 -5.00457,9.62697 -3.57028,3.57027 -3.5741,3.56386 -2.66845,-4.47104 0.55552,-4.9286 0.13107,-8.52601 -1.09559,-9.28408 -1.28971,-0.79709 -2.01214,0.55754 -2.02956,3.80568 -0.0144,2.77382 -1.1524,8.27505 -2.52787,12.22493 -2.14596,6.16251 -2.13878,8.04876 0.0506,13.29234 2.81873,6.75092 2.54177,7.94545 -1.48405,6.4006 -3.57269,-1.37097 -6.78407,-8.65848 -6.78407,-15.39487 0,-3.41816 -0.71407,-4.96637 -1.94089,-4.20815 -1.10523,0.68308 -1.44312,3.18269 -0.7848,5.8057 1.01036,4.02555 0.80238,4.31262 -1.64993,2.2774 -1.54331,-1.28082 -2.80601,-5.01639 -2.80601,-8.30124 l 0,-5.97247 -6.22625,2.60151 c -3.42444,1.43081 -7.888046,2.60148 -9.91915,2.60148 -5.590063,0 -7.842693,7.76941 -5.311643,18.32003 1.13762,4.74214 2.67174,8.99497 3.40914,9.45071 2.186446,1.35129 14.969433,1.35203 20.274633,0.001 5.94652,-1.51417 20.0093,4.51361 22.83108,9.78617 2.46094,4.59828 2.39968,9.31606 -0.0659,5.08277 -1.0065,-1.72808 -3.06041,-3.14196 -4.56422,-3.14196 -2.19896,0 -2.00577,0.92607 0.98691,4.73064 2.04662,2.60184 3.68877,6.84348 3.64923,9.42586 l -0.0718,4.69523 -2.67854,-4.93735 c -1.47338,-2.71555 -3.29927,-4.93736 -4.05772,-4.93736 -2.45518,0 -5.68794,4.22557 -5.68794,7.43473 0,1.71917 -0.80794,3.62509 -1.79541,4.23539 -1.01693,0.6285 -1.7954,-0.86761 -1.7954,-3.4505 z m 86.17935,-244.40514 -8.07932,-2.31413 6.29576,-0.14453 c 3.46267,-0.0795 8.91773,0.60748 12.12237,1.52656 4.99736,1.43322 6.10528,1.15026 7.78492,-1.98816 2.2849,-4.26939 6.37714,-1.70637 4.61354,2.88952 -1.30745,3.40716 -10.90375,3.4201 -22.73727,0.0307 z"
       id="path8102-9"
       inkscape:connector-curvature="0"
       sodipodi:nodetypes="sssscsssscssssssssssssssssssssssscsssssssssssssssssssssssssscssssssscsssscsssssssscssssssssssssssssssscccscssccssssssscsssscsssssscssssscssssscscsssssssssssssscscssssssssssccscssssssssssssssssssssssssssssssscsssssscsssssscssssssscsssccsssssssscsssssscsscccsssscccssscc" />
  </g>
</svg>
