<?xml version="1.0" encoding="UTF-8" standalone="no"?>
<!-- Created with Inkscape (http://www.inkscape.org/) -->
<svg
   xmlns:dc="http://purl.org/dc/elements/1.1/"
   xmlns:cc="http://creativecommons.org/ns#"
   xmlns:rdf="http://www.w3.org/1999/02/22-rdf-syntax-ns#"
   xmlns:svg="http://www.w3.org/2000/svg"
   xmlns="http://www.w3.org/2000/svg"
   xmlns:sodipodi="http://sodipodi.sourceforge.net/DTD/sodipodi-0.dtd"
   xmlns:inkscape="http://www.inkscape.org/namespaces/inkscape"
   width="200.00003"
   height="204"
   id="svg2"
   sodipodi:version="0.32"
   inkscape:version="0.46"
   version="1.0"
   sodipodi:docname="pegasus_passant.svg"
   inkscape:output_extension="org.inkscape.output.svg.inkscape">
  <defs
     id="defs4">
    <inkscape:perspective
       sodipodi:type="inkscape:persp3d"
       inkscape:vp_x="0 : 526.18109 : 1"
       inkscape:vp_y="0 : 1000 : 0"
       inkscape:vp_z="744.09448 : 526.18109 : 1"
       inkscape:persp3d-origin="372.04724 : 350.78739 : 1"
       id="perspective10" />
    <inkscape:perspective
       id="perspective8826"
       inkscape:persp3d-origin="372.04724 : 350.78739 : 1"
       inkscape:vp_z="744.09448 : 526.18109 : 1"
       inkscape:vp_y="0 : 1000 : 0"
       inkscape:vp_x="0 : 526.18109 : 1"
       sodipodi:type="inkscape:persp3d" />
    <inkscape:perspective
       sodipodi:type="inkscape:persp3d"
       inkscape:vp_x="0 : 526.18109 : 1"
       inkscape:vp_y="0 : 1000 : 0"
       inkscape:vp_z="744.09448 : 526.18109 : 1"
       inkscape:persp3d-origin="372.04724 : 350.78739 : 1"
       id="perspective2459" />
    <inkscape:perspective
       sodipodi:type="inkscape:persp3d"
       inkscape:vp_x="0 : 526.18109 : 1"
       inkscape:vp_y="0 : 1000 : 0"
       inkscape:vp_z="744.09448 : 526.18109 : 1"
       inkscape:persp3d-origin="372.04724 : 350.78739 : 1"
       id="perspective2410" />
    <inkscape:perspective
       id="perspective2425"
       inkscape:persp3d-origin="372.04724 : 350.78739 : 1"
       inkscape:vp_z="744.09448 : 526.18109 : 1"
       inkscape:vp_y="0 : 1000 : 0"
       inkscape:vp_x="0 : 526.18109 : 1"
       sodipodi:type="inkscape:persp3d" />
    <inkscape:perspective
       id="perspective3257"
       inkscape:persp3d-origin="372.04724 : 350.78739 : 1"
       inkscape:vp_z="744.09448 : 526.18109 : 1"
       inkscape:vp_y="0 : 1000 : 0"
       inkscape:vp_x="0 : 526.18109 : 1"
       sodipodi:type="inkscape:persp3d" />
    <inkscape:perspective
       id="perspective2492"
       inkscape:persp3d-origin="372.04724 : 350.78739 : 1"
       inkscape:vp_z="744.09448 : 526.18109 : 1"
       inkscape:vp_y="0 : 1000 : 0"
       inkscape:vp_x="0 : 526.18109 : 1"
       sodipodi:type="inkscape:persp3d" />
  </defs>
  <sodipodi:namedview
     id="base"
     pagecolor="#ffffff"
     bordercolor="#666666"
     borderopacity="1.0"
     gridtolerance="10000"
     guidetolerance="10"
     objecttolerance="10"
     inkscape:pageopacity="0.0"
     inkscape:pageshadow="2"
     inkscape:zoom="3.2812498"
     inkscape:cx="100"
     inkscape:cy="112.00001"
     inkscape:document-units="px"
     inkscape:current-layer="layer1"
     showgrid="false"
     inkscape:window-width="1679"
     inkscape:window-height="963"
     inkscape:window-x="1"
     inkscape:window-y="57" />
  <metadata
     id="metadata7">
    <rdf:RDF>
      <cc:Work
         rdf:about="">
        <dc:format>image/svg+xml</dc:format>
        <dc:type
           rdf:resource="http://purl.org/dc/dcmitype/StillImage" />
      </cc:Work>
    </rdf:RDF>
  </metadata>
  <g
     inkscape:label="Layer 1"
     inkscape:groupmode="layer"
     id="layer1"
     transform="translate(-237.02858,-310.22885)">
    <g
       id="g2494"
       transform="translate(187.02858,262.22885)">
      <path
         id="path8263"
         d="M 141.8062,250.23892 C 141.8062,248.89645 150.019,242.10949 154.16795,240.02331 C 159.10173,237.54253 160.28929,236.02521 169.04685,221.01308 C 177.05521,207.28522 177.68963,205.49983 175.74759,202.1555 C 175.25251,201.30292 174.6662,200.18682 174.44469,199.67527 C 174.22318,199.16372 173.3092,197.21054 172.41362,195.33487 C 170.62455,191.58791 170.15951,183.25481 171.28037,175.02801 C 171.94932,170.11807 168.74057,169.71193 157.95784,173.34176 C 147.74901,176.77838 135.10305,179.89128 129.76504,180.28162 C 123.6786,180.72668 123.57581,180.92413 113.74074,211.06023 C 109.94118,222.70264 106.3246,233.34435 105.70389,234.70848 C 105.08319,236.0726 104.11135,238.49803 103.54426,240.09832 C 102.67282,242.55747 102.15763,243.12238 100.21663,243.74717 C 98.953529,244.15375 96.466196,245.84395 94.689228,247.50316 C 91.279445,250.687 78.311387,252.36223 78.311387,249.61886 C 78.311387,248.26186 86.543542,241.4797 90.770384,239.35436 C 98.422903,235.50653 102.02823,224.52109 103.81733,199.60019 C 105.20376,180.28839 105.15322,179.83073 101.53519,178.93121 C 100.574,178.69224 99.324167,178.08084 98.75778,177.57255 C 97.90423,176.80655 97.112264,176.76175 94.13034,177.31083 C 92.151636,177.67518 85.813034,177.97328 80.044561,177.97328 C 66.871999,177.97328 65.238927,178.46577 65.238927,182.43828 C 65.238927,185.43746 67.266958,196.57738 68.299621,199.25059 C 68.670483,200.21063 68.973916,202.35491 68.973916,204.01567 C 68.973916,207.99032 69.777897,209.93383 71.83873,210.94094 C 72.767725,211.39493 73.720206,212.18491 73.955354,212.69646 C 74.190501,213.20801 74.706558,214.25057 75.102145,215.01326 C 76.85181,218.38661 75.685999,226.33771 73.441725,226.33771 C 71.390761,226.33771 62.748934,216.28744 62.748934,213.90221 C 62.748934,213.30358 61.76662,211.64265 60.566014,210.21126 C 57.919401,207.05589 58.019442,207.53164 57.143009,193.93313 C 56.752635,187.87619 56.173525,182.0185 55.856097,180.91603 C 53.725569,173.51645 54.964862,172.3111 70.359683,166.80964 C 84.15209,161.88082 83.682658,162.19492 82.752953,158.51721 C 82.364336,156.97993 82.042762,154.65985 82.038346,153.36148 C 82.033928,152.06311 81.507546,149.32666 80.868606,147.28047 C 77.641753,136.94657 77.878372,124.01404 81.442284,115.92583 C 86.674962,104.05041 80.992647,97.84438 69.285165,102.64823 C 64.971647,104.41817 62.99922,104.53088 58.759386,103.24973 C 57.078696,102.74187 54.907734,102.32636 53.935026,102.32636 C 52.962318,102.32636 52.166465,102.07684 52.166465,101.77188 C 52.166465,100.57184 55.85117,97.36543 57.240579,97.35641 C 58.044743,97.35118 59.122882,97.07643 59.636443,96.74585 C 60.324242,96.3031 59.90613,96.14228 58.049073,96.13528 C 56.662458,96.13006 55.261838,95.86823 54.936582,95.55344 C 54.611327,95.23865 53.504836,94.88987 52.477714,94.77837 C 45.832943,94.05705 53.536013,86.83599 63.953053,84.02109 C 68.106462,82.89876 72.125806,81.57262 72.884928,81.07411 C 74.284104,80.1553 76.149122,76.28397 75.192586,76.28397 C 73.751107,76.28397 70.84141,72.9618 70.84141,71.31597 C 70.84141,67.60946 75.877281,64.11358 78.897375,65.72354 C 81.007575,66.84846 80.394767,67.65222 77.748287,67.23069 C 75.707017,66.90556 75.20847,67.04683 74.635798,68.11268 C 73.604356,70.03239 73.786547,70.58541 75.790482,71.61762 C 78.926605,73.23302 80.80138,72.89099 80.80138,70.70346 C 80.80138,67.53627 83.698868,65.60599 86.719775,66.76067 C 87.60494,67.09901 87.496533,67.37567 85.992565,68.61657 C 84.22512,70.07485 84.22512,70.07485 85.971703,71.62927 C 88.498904,73.87842 89.205105,73.62272 89.205105,70.45853 C 89.205105,65.57568 92.914469,63.33659 94.844576,67.05437 C 95.58194,68.47468 96.03094,68.80284 96.541307,68.29448 C 97.783888,67.05677 98.742994,67.56007 99.500905,69.84756 C 99.909902,71.08197 100.43166,71.79036 100.66037,71.42175 C 103.45922,66.91088 114.54572,68.78743 116.56458,74.11377 C 116.95693,75.1489 117.17125,74.90568 117.86115,72.64232 C 119.78121,66.34316 125.18234,63.40932 142.4287,59.29746 C 152.69238,56.85041 157.49904,55.15479 165.45583,51.17432 C 172.76704,47.51682 174.9039,47.72654 172.98862,51.91362 C 172.06116,53.9412 173.92483,53.68846 180.27454,50.92556 C 190.70881,46.3854 198.25918,47.28082 194.08734,52.56366 C 192.13637,55.03418 192.99206,54.94779 199.09712,52.0579 C 205.29335,49.12485 206.67829,49.1773 207.05812,52.35939 C 207.32224,54.57217 205.81283,56.77104 203.06627,58.17458 C 201.03825,59.21094 200.93688,59.3851 201.89887,60.18035 C 203.26851,61.31259 213.4119,57.98939 224.13089,52.89666 C 242.00424,44.40479 235.38471,58.69836 217.1912,67.88155 C 215.37675,68.79739 214.03657,69.69053 214.21303,69.8663 C 214.6067,70.25842 229.31432,62.93846 231.37427,61.32517 C 233.16255,59.92463 235.08759,59.81878 235.57885,61.09397 C 236.68322,63.96064 232.98868,68.638 226.56747,72.50253 C 224.24585,73.89978 220.92511,76.25136 219.18805,77.72827 C 217.45099,79.20518 215.13519,80.78266 214.04183,81.23377 C 212.05389,82.05397 212.05389,82.05397 214.37333,82.84822 C 221.40158,85.25495 215.69094,91.98872 202.81103,96.48206 C 198.76479,97.89365 198.76479,97.89365 201.76258,97.9398 C 212.29581,98.10197 204.85034,107.2342 192.16112,109.71644 C 190.39455,110.06201 189.97792,110.2843 190.98356,110.34471 C 205.13827,111.1951 198.51341,119.35878 182.96658,120.22389 C 175.88335,120.61803 175.88335,120.61803 178.60909,122.10962 C 180.10826,122.92999 182.7191,124.5974 184.41098,125.81497 C 186.35054,127.21078 189.11058,128.43445 191.88096,129.12679 C 196.91697,130.38533 202.5207,133.00516 210.73108,137.93948 C 216.46092,141.38304 217.91306,141.85765 219.55356,140.82296 C 220.93623,139.95089 219.979,138.59278 215.52334,135.10495 C 205.9559,127.61568 208.40018,116.15894 220.76878,110.51861 C 228.0125,107.21534 233.80641,108.21711 240.05998,113.85407 C 244.08387,117.4812 244.82965,117.63339 244.82965,114.82741 C 244.82965,112.60917 247.10948,112.22621 248.50453,114.21012 C 249.94898,116.26427 249.73287,117.90501 247.69827,120.33142 C 245.90335,122.47201 245.90126,122.48446 246.97481,124.6484 C 248.6966,128.11901 250.31286,136.13484 249.94805,139.39415 C 249.07888,147.15936 248.05231,152.62181 246.71802,156.58132 C 243.06089,167.43395 242.621,173.67531 245.70947,170.89125 C 247.3716,169.39294 248.25339,170.13264 248.25339,173.02527 C 248.25339,176.17982 246.2584,178.21725 243.66903,177.70713 C 241.88591,177.35584 241.88591,177.35584 244.05773,179.75036 C 246.85236,182.83155 248.53554,187.75087 247.97847,191.20927 C 247.75031,192.62578 247.3097,195.7748 246.99934,198.20711 C 246.25717,204.02355 244.13976,208.63015 240.23356,212.92658 C 236.80868,216.69362 236.66,217.05422 237.7891,218.8551 C 239.3472,221.34025 235.76236,223.11004 233.72117,220.86339 C 232.24065,219.23386 232.4428,216.92966 234.4858,212.14751 C 238.05467,203.79367 237.54724,201.80126 230.17862,195.23527 C 226.97422,192.3799 225.17955,190.15944 223.61884,187.11912 C 221.85777,183.6885 221.19771,182.93374 219.95864,182.93374 C 217.89282,182.93374 217.52438,182.06852 218.65929,179.88246 C 219.3082,178.63252 219.62044,176.26987 219.62456,172.57858 C 219.63261,165.3568 221.13521,162.10264 227.44313,155.64607 C 235.15073,147.75685 237.84561,137.97962 232.31251,137.97962 C 231.24694,137.97962 231.15527,138.40137 231.35055,142.405 C 231.73984,150.38589 228.78278,154.68559 222.84543,154.77188 C 219.35505,154.82261 219.35505,154.82261 218.58893,159.73233 C 218.16757,162.43268 217.2464,167.13915 216.5419,170.19116 C 214.30999,179.86011 215.42825,183.4084 222.99206,190.6578 C 227.54851,195.02484 227.54851,195.02484 227.02477,205.25578 C 226.73672,210.8828 226.32801,220.09064 226.11652,225.71765 C 225.60863,239.2313 225.46691,239.64271 220.56496,241.83344 C 217.77132,243.08194 216.43964,244.07755 215.87069,245.343 C 213.68024,250.21506 197.20854,254.53632 197.20854,250.23892 C 197.20854,248.21857 208.14564,239.97896 210.82741,239.97896 C 215.07338,239.97896 216.78058,233.19362 216.31375,218.17318 C 215.81573,202.14917 214.99943,200.33534 205.61227,194.39448 C 203.55802,193.0944 200.30188,190.51574 198.37641,188.6641 C 193.39158,183.87044 192.00743,193.76009 196.73036,200.42501 C 197.7937,201.92557 195.76351,205.81164 191.4532,210.52626 C 189.58249,212.57245 187.04241,215.78124 185.8086,217.65692 C 184.57478,219.53259 181.31278,224.13651 178.5597,227.88785 C 175.80664,231.6392 173.23598,235.68507 172.84713,236.87868 C 170.81534,243.11549 169.27262,244.51224 163.71688,245.14508 C 161.61848,245.3841 160.37802,246.06585 157.98544,248.29505 C 154.72896,251.32917 141.8062,252.88178 141.8062,250.23892 z"
         style="fill:#ffff00;fill-opacity:1" />
      <path
         id="path3261"
         d="M 141.80621,250.23891 C 141.80621,248.89644 150.01901,242.10947 154.16796,240.02329 C 159.10173,237.5425 160.2893,236.02519 169.04686,221.01304 C 177.05522,207.28516 177.68963,205.49978 175.7476,202.15543 C 175.25252,201.30285 174.66621,200.18675 174.4447,199.6752 C 174.22319,199.16366 173.30921,197.21047 172.41362,195.3348 C 170.62456,191.58783 170.15952,183.25473 171.28037,175.02792 C 171.94932,170.11797 168.74058,169.71183 157.95785,173.34166 C 147.74901,176.77829 135.10306,179.89119 129.76505,180.28153 C 123.67861,180.72659 123.57581,180.92404 113.74075,211.06018 C 109.94118,222.7026 106.3246,233.34433 105.7039,234.70845 C 105.08319,236.07258 104.11136,238.49801 103.54426,240.0983 C 102.67282,242.55745 102.15764,243.12237 100.21664,243.74715 C 98.95353,244.15373 96.4662,245.84393 94.68923,247.50315 C 91.27945,250.68699 78.31139,252.36222 78.31139,249.61886 C 78.31139,248.26185 86.543546,241.47968 90.77039,239.35434 C 98.42291,235.50651 102.02823,224.52105 103.81734,199.60013 C 105.20376,180.2883 105.15323,179.83064 101.53519,178.93112 C 100.57401,178.69215 99.32417,178.08075 98.75778,177.57246 C 97.90423,176.80645 97.11227,176.76166 94.13034,177.31074 C 92.15164,177.67509 85.813038,177.97319 80.044563,177.97319 C 66.872,177.97319 65.238928,178.46568 65.238928,182.43819 C 65.238928,185.43738 67.266959,196.57731 68.299622,199.25053 C 68.670484,200.21056 68.973917,202.35485 68.973917,204.01561 C 68.973917,207.99027 69.777898,209.93378 71.838731,210.94089 C 72.767727,211.39488 73.720208,212.18486 73.955355,212.69641 C 74.190503,213.20796 74.706559,214.25052 75.102147,215.01321 C 76.851812,218.38657 75.686001,226.33768 73.441726,226.33768 C 71.390762,226.33768 62.748935,216.28739 62.748935,213.90216 C 62.748935,213.30353 61.766621,211.6426 60.566014,210.2112 C 57.919401,207.05583 58.019443,207.53158 57.143009,193.93306 C 56.752635,187.87611 56.173525,182.01841 55.856098,180.91595 C 53.72557,173.51635 54.964863,172.311 70.359684,166.80954 C 84.152094,161.88072 83.682661,162.19481 82.752956,158.5171 C 82.364339,156.97981 82.042765,154.65973 82.038349,153.36136 C 82.033931,152.06299 81.507549,149.32654 80.868609,147.28035 C 77.641756,136.94643 77.878375,124.01389 81.442287,115.92567 C 86.674965,104.05023 80.99265,97.844193 69.285166,102.64805 C 64.971648,104.41799 62.99922,104.5307 58.759387,103.24955 C 57.078697,102.74169 54.907734,102.32618 53.935026,102.32618 C 52.962318,102.32618 52.166466,102.07666 52.166466,101.77169 C 52.166466,100.57165 55.85117,97.365243 57.240579,97.356223 C 58.044744,97.351003 59.122883,97.076253 59.636444,96.745663 C 60.324243,96.302913 59.906131,96.142093 58.049074,96.135103 C 56.662459,96.129873 55.261838,95.868043 54.936583,95.553253 C 54.611327,95.238463 53.504837,94.889683 52.477715,94.778183 C 45.832943,94.056863 53.536013,86.835793 63.953054,84.020895 C 68.106463,82.898557 72.125807,81.572414 72.88493,81.073911 C 74.284106,80.155096 76.149123,76.283764 75.192588,76.283764 C 73.751108,76.283764 70.841412,72.961584 70.841412,71.315759 C 70.841412,67.609246 75.877282,64.113355 78.897378,65.723323 C 81.007578,66.84824 80.39477,67.652 77.74829,67.23047 C 75.707019,66.905338 75.208471,67.046612 74.635799,68.112465 C 73.604358,70.032174 73.786549,70.585197 75.790484,71.617409 C 78.926608,73.232804 80.801383,72.890779 80.801383,70.703246 C 80.801383,67.536053 83.698871,65.605768 86.719779,66.760454 C 87.604944,67.098792 87.496537,67.375455 85.992569,68.616348 C 84.225123,70.074632 84.225123,70.074632 85.971706,71.629054 C 88.498907,73.87821 89.205109,73.622511 89.205109,70.458316 C 89.205109,65.575459 92.91447,63.336365 94.84458,67.054147 C 95.58194,68.474461 96.03094,68.802628 96.54131,68.294262 C 97.78389,67.056554 98.743,67.559856 99.50091,69.847347 C 99.90991,71.08176 100.43166,71.790147 100.66037,71.421541 C 103.45922,66.910665 114.54572,68.787217 116.56459,74.113562 C 116.95694,75.148693 117.17125,74.905469 117.86116,72.642104 C 119.78122,66.342941 125.18235,63.409101 142.42871,59.297237 C 152.69238,56.850179 157.49904,55.154562 165.45584,51.174087 C 172.82319,47.488493 175.28746,47.811828 172.79533,52.137094 C 171.61991,54.177104 173.40297,53.876809 180.4011,50.856163 C 190.75624,46.386509 198.22909,47.318693 194.08734,52.563423 C 192.13638,55.033946 192.99207,54.947561 199.09713,52.057661 C 205.29336,49.124608 206.6783,49.177057 207.05813,52.359154 C 207.32225,54.571933 205.81284,56.770811 203.06628,58.174351 C 201.03826,59.210712 200.93689,59.384872 201.89888,60.180122 C 203.26852,61.312361 213.4119,57.989165 224.1309,52.896421 C 242.00425,44.404547 235.38472,58.69813 217.19121,67.881332 C 215.37676,68.797178 214.03658,69.690315 214.21303,69.86608 C 214.60671,70.25821 229.31433,62.938238 231.37428,61.324944 C 233.16256,59.924405 235.0876,59.818551 235.57886,61.093742 C 236.68323,63.960414 232.98869,68.637784 226.56748,72.502323 C 224.24586,73.899567 220.92512,76.251151 219.18806,77.728065 C 217.451,79.20498 215.1352,80.782454 214.04184,81.233565 C 212.0539,82.053765 212.0539,82.053765 214.37334,82.848025 C 221.40159,85.254748 215.69095,91.988533 202.81103,96.481883 C 198.7648,97.893473 198.7648,97.893473 201.76259,97.939623 C 212.29582,98.101793 204.85034,107.23402 192.16113,109.71627 C 190.39456,110.06184 189.97793,110.28413 190.98357,110.34454 C 205.13827,111.19493 198.51342,119.35862 182.96659,120.22373 C 175.88336,120.61787 175.88336,120.61787 178.6091,122.10947 C 180.10826,122.92984 182.71911,124.59725 184.41099,125.81482 C 186.35054,127.21063 189.11059,128.4343 191.88097,129.12664 C 196.91698,130.38519 202.52071,133.00502 210.73108,137.93935 C 216.46093,141.38291 217.91306,141.85752 219.55357,140.82283 C 220.93624,139.95076 219.97901,138.59265 215.52335,135.10481 C 205.95591,127.61553 208.40018,116.15877 220.76879,110.51844 C 228.01251,107.21516 233.80642,108.21693 240.05999,113.85391 C 244.08389,117.48104 244.82966,117.63323 244.82966,114.82724 C 244.82966,112.609 247.10949,112.22605 248.50454,114.20996 C 249.94899,116.26411 249.73288,117.90485 247.69828,120.33126 C 245.90336,122.47185 245.90127,122.48431 246.97482,124.64825 C 248.69662,128.11886 250.31288,136.1347 249.94806,139.39401 C 249.07889,147.15924 248.05232,152.62169 246.71804,156.58121 C 243.0609,167.43384 242.62101,173.67521 245.70948,170.89115 C 247.37162,169.39284 248.2534,170.13254 248.2534,173.02517 C 248.2534,176.17973 246.25841,178.21716 243.66904,177.70704 C 241.88592,177.35575 241.88592,177.35575 244.05774,179.75027 C 246.85237,182.83146 248.53555,187.75079 247.97848,191.2092 C 247.75032,192.6257 247.30971,195.77473 246.99935,198.20704 C 246.25718,204.02349 244.13977,208.63009 240.23357,212.92653 C 236.80869,216.69357 236.66002,217.05417 237.78911,218.85505 C 239.34722,221.3402 235.76237,223.11 233.72118,220.86335 C 232.24066,219.23382 232.44281,216.92961 234.48581,212.14746 C 238.05468,203.79361 237.54726,201.80119 230.17863,195.2352 C 226.97423,192.37983 225.17956,190.15936 223.61885,187.11904 C 221.85778,183.68842 221.19772,182.93365 219.95865,182.93365 C 217.89283,182.93365 217.52439,182.06843 218.6593,179.88237 C 219.30821,178.63243 219.62045,176.26978 219.62457,172.57848 C 219.63262,165.3567 221.13522,162.10253 227.44314,155.64596 C 235.15074,147.75672 237.84562,137.97948 232.31252,137.97948 C 231.24695,137.97948 231.15528,138.40123 231.35056,142.40486 C 231.73985,150.38577 228.78279,154.68548 222.84544,154.77176 C 219.35506,154.82249 219.35506,154.82249 218.58894,159.73222 C 218.16758,162.43257 217.24641,167.13905 216.54191,170.19106 C 214.31,179.86002 215.42826,183.40831 222.99207,190.65773 C 227.54852,195.02477 227.54852,195.02477 227.02478,205.25572 C 226.73673,210.88274 226.32802,220.0906 226.11653,225.71762 C 225.60864,239.23128 225.46692,239.64269 220.56497,241.83342 C 217.77133,243.08192 216.43965,244.07753 215.8707,245.34299 C 213.68024,250.21505 197.20855,254.53632 197.20855,250.23891 C 197.20855,248.21856 208.14564,239.97894 210.82742,239.97894 C 215.07339,239.97894 216.78058,233.19359 216.31376,218.17313 C 215.81574,202.14911 214.99944,200.33528 205.61228,194.3944 C 203.55803,193.09433 200.30189,190.51566 198.37642,188.66402 C 193.39158,183.87036 192.00743,193.76002 196.73037,200.42495 C 197.7937,201.92551 195.76352,205.81158 191.45321,210.52621 C 189.58249,212.5724 187.04242,215.7812 185.8086,217.65687 C 184.57479,219.53254 181.31278,224.13647 178.55971,227.88782 C 175.80664,231.63917 173.23598,235.68504 172.84713,236.87865 C 170.81534,243.11548 169.27263,244.51223 163.71688,245.14507 C 161.61849,245.38409 160.37803,246.06584 157.98545,248.29504 C 154.72896,251.32916 141.80621,252.88178 141.80621,250.23891 z M 155.57987,248.27877 C 157.6051,246.45315 153.44849,242.06045 151.21137,243.66214 C 144.55011,248.43134 144.31218,249.22663 149.53842,249.25399 C 153.2307,249.27332 154.74835,249.02834 155.57987,248.27877 z M 210.98221,248.27877 C 213.00744,246.45315 208.85083,242.06045 206.61371,243.66214 C 199.95245,248.43134 199.71452,249.22663 204.94076,249.25399 C 208.63304,249.27332 210.15069,249.02834 210.98221,248.27877 z M 92.08505,247.65871 C 94.11028,245.8331 89.95367,241.44039 87.716556,243.04208 C 81.055295,247.81128 80.817361,248.60658 86.043602,248.63393 C 89.73588,248.65326 91.25353,248.40828 92.08505,247.65871 z M 159.76066,243.69929 C 160.83545,242.67619 162.01751,241.83911 162.38745,241.83911 C 162.7574,241.83911 163.53028,241.36838 164.10499,240.79304 C 165.08483,239.8121 165.16257,239.83365 165.35358,241.13931 C 165.74395,243.80781 167.59365,242.24182 170.18385,237.04991 C 171.58303,234.24533 174.80445,229.25368 177.34258,225.95734 C 179.8807,222.66101 183.49803,217.80074 185.38108,215.15672 C 187.26414,212.51271 190.00687,208.88474 191.47603,207.09459 C 194.54618,203.35365 194.03199,201.97298 188.67498,199.57332 C 187.23407,198.92787 185.88695,198.1287 185.68138,197.79738 C 184.92064,196.57131 187.04135,197.26064 190.59316,199.39395 C 195.36802,202.26184 195.76256,201.72266 191.29482,198.43509 C 187.72235,195.8063 186.82961,194.07016 190.32523,196.54949 C 192.9709,198.42599 192.70765,197.44262 189.8942,194.93942 C 187.60168,192.8997 188.77733,192.57453 191.13919,194.59507 C 192.1272,195.44029 192.22856,195.40749 192.22856,194.2425 C 192.22856,193.53603 191.45873,192.39942 190.51783,191.71671 C 189.57693,191.034 189.00991,190.2734 189.25779,190.02649 C 189.50568,189.77958 190.13544,189.93052 190.65727,190.3619 C 191.75817,191.27199 191.87578,190.7948 190.96731,189.10397 C 190.616,188.4501 188.80078,187.1952 186.93351,186.3153 C 183.94596,184.90751 182.10865,183.55371 183.1856,183.55371 C 184.17559,183.55371 188.11075,185.53286 190.04958,187.00588 C 191.24802,187.91639 192.22856,188.41529 192.22856,188.11455 C 192.22856,187.33077 185.64206,182.31359 184.61312,182.31359 C 184.13926,182.31359 183.20779,181.90393 182.5432,181.40323 C 181.36607,180.51639 181.37136,180.49235 182.74784,180.47314 C 184.22272,180.45256 188.42144,182.79372 190.82794,184.97852 C 191.95254,185.99951 192.22856,186.06175 192.22856,185.29433 C 192.22856,184.28531 188.64406,181.61358 184.45786,179.50238 C 178.63403,176.56528 174.69491,173.06325 179.64351,175.22224 C 180.23137,175.47871 181.0191,175.64224 181.39403,175.58564 C 181.76894,175.52903 182.83385,176.18259 183.76047,177.03798 C 184.68709,177.89338 185.67662,178.59325 185.95943,178.59325 C 186.24225,178.59325 186.83505,179.02702 187.27678,179.55719 C 187.71852,180.08735 188.59319,180.79474 189.2205,181.12915 C 190.69876,181.91718 190.72962,180.90911 189.2717,179.4569 C 188.67254,178.8601 188.27309,178.22325 188.38402,178.04169 C 188.49494,177.86013 188.12406,177.55028 187.55983,177.35313 C 186.9956,177.15599 186.59328,176.72655 186.6658,176.39884 C 187.04973,174.66374 179.61687,173.62126 175.42111,174.82173 C 173.86659,175.2665 173.86728,175.26823 176.04361,176.3826 C 178.54732,177.66459 181.0236,179.77913 181.0236,180.6351 C 181.0236,180.95716 180.11319,180.53348 179.00048,179.69359 C 176.31564,177.66704 174.17612,176.56637 174.17612,177.21173 C 174.17612,177.49898 176.04159,179.09837 178.32162,180.76592 C 180.60164,182.43346 182.13291,183.90879 181.72443,184.04442 C 181.31595,184.18004 180.54962,183.93379 180.02147,183.49718 C 179.2664,182.87298 178.96018,182.86619 178.5884,183.4654 C 178.23735,184.03117 177.72851,183.89269 176.61272,182.92771 C 175.10986,181.62799 175.10986,181.62799 176.66611,182.00572 C 178.22235,182.38344 178.22235,182.38344 176.47577,180.79837 C 174.14673,178.68471 172.16514,178.82236 174.30062,180.94947 C 174.88161,181.52819 174.88161,181.69354 174.30062,181.69354 C 172.18976,181.69354 174.04774,183.45505 177.75548,184.96901 C 181.90581,186.66371 181.92299,186.68037 179.1561,186.328 C 177.61542,186.1318 175.73443,185.56682 174.97614,185.07251 C 173.18987,183.9081 172.93112,183.9387 172.93112,185.31435 C 172.93112,186.47618 175.25182,187.89411 177.15334,187.89411 C 178.39356,187.89411 184.88929,191.0709 184.48088,191.4777 C 184.3267,191.63127 182.1046,190.88779 179.54287,189.82552 C 176.98113,188.76324 174.42216,187.89411 173.85626,187.89411 C 172.21217,187.89411 173.13682,189.29711 175.25839,190.0216 C 178.19528,191.0245 178.56039,191.84194 175.88799,191.43117 C 174.60408,191.23383 173.55362,191.23333 173.55362,191.43007 C 173.55362,192.00251 175.65717,193.43333 176.53048,193.45491 C 177.74619,193.48495 181.87981,195.30868 181.52753,195.65959 C 181.35718,195.82927 180.00991,195.54361 178.5336,195.02477 C 175.29245,193.88571 175.0097,194.07534 176.25167,196.55519 C 178.53694,201.11815 179.38691,207.47424 177.96877,209.3957 C 173.42598,215.55081 162.56388,235.35482 163.514,235.74997 C 164.07136,235.98178 164.24727,236.19238 163.9049,236.21798 C 163.56252,236.24358 162.21634,237.23978 160.91339,238.43176 C 159.61043,239.62374 158.06975,240.60327 157.48965,240.60849 C 155.07683,240.63021 154.65638,241.58984 156.16761,243.62588 C 157.88729,245.94275 157.41401,245.93308 159.76066,243.69929 z M 183.20234,204.63566 C 182.27843,203.61876 182.24371,203.39555 183.00938,203.39555 C 183.52294,203.39555 184.45014,203.9536 185.06984,204.63566 C 185.99374,205.65256 186.02847,205.87578 185.2628,205.87578 C 184.74924,205.87578 183.82203,205.31773 183.20234,204.63566 z M 183.82484,202.90809 C 181.59074,201.73857 181.03285,201.21213 181.84803,201.04268 C 182.47267,200.91285 183.47516,201.24962 184.07579,201.79106 C 184.67643,202.3325 185.46167,202.77549 185.82075,202.77549 C 186.17984,202.77549 186.82236,203.19403 187.24858,203.70558 C 188.33266,205.00669 187.43378,204.79732 183.82484,202.90809 z M 187.73401,202.25142 C 184.6104,200.47486 182.88012,199.05136 183.85596,199.06096 C 184.90324,199.07127 190.98357,202.77966 190.98357,203.40809 C 190.98357,204.15557 191.24649,204.24916 187.73401,202.25142 z M 178.84485,197.7811 C 177.47536,197.13558 176.85407,196.60012 177.46423,196.59117 C 178.73266,196.57258 182.89109,198.19883 182.89109,198.71348 C 182.89109,199.32542 181.38484,198.97833 178.84485,197.7811 z M 182.55425,196.53366 C 181.82429,195.3572 182.88891,195.06689 183.97306,196.14678 C 184.94349,197.11342 184.9452,197.19497 183.99497,197.19497 C 183.42825,197.19497 182.77993,196.89738 182.55425,196.53366 z M 184.44734,194.4172 C 183.42021,193.95614 181.62122,193.22267 180.44957,192.78728 C 179.27792,192.35188 178.6474,191.8867 179.0484,191.75356 C 179.98531,191.44248 185.4126,193.41818 186.60385,194.50397 C 187.7445,195.54366 186.87923,195.50884 184.44734,194.4172 z M 184.75859,188.42107 C 182.57984,187.22207 182.57984,187.22207 184.44734,187.5989 C 185.47446,187.80615 186.72501,188.3759 187.22635,188.865 C 188.45788,190.06649 187.4041,189.87693 184.75859,188.42107 z M 214.81856,243.70044 C 214.98509,243.06615 216.79813,241.70413 218.84781,240.6735 C 223.53349,238.31745 223.43916,238.57803 224.0381,226.33768 C 225.6477,193.44341 225.91649,196.51822 220.97885,191.34055 C 213.0255,183.00057 212.06141,179.19684 214.99768,167.74224 C 218.25806,155.02322 217.94036,152.01756 212.90745,147.9671 C 207.79343,143.85136 205.37049,140.76974 207.24847,140.76974 C 207.9681,140.76974 209.96818,142.34404 216.50461,148.05542 C 221.04938,152.02653 222.51609,152.1845 225.13971,148.9855 C 226.18857,147.70664 227.05611,147.0419 227.06759,147.50831 C 227.07907,147.97472 226.00092,149.4396 224.67171,150.76361 C 222.25495,153.17089 222.25495,153.17089 223.9407,153.17089 C 227.53099,153.17089 229.93779,148.07403 229.4144,141.57926 C 228.94409,135.74317 232.42525,133.84248 235.7872,138.09976 C 238.52169,141.56246 235.47881,149.97763 228.93395,157.05266 C 223.06299,163.39921 221.49993,166.85363 221.49206,173.49959 C 221.4876,177.26648 221.20591,179.06264 220.43607,180.23295 C 219.43264,181.75839 219.43858,181.81898 220.5703,181.60188 C 221.78761,181.36837 222.46097,180.32362 224.50761,175.49296 C 225.47098,173.21914 225.77702,172.91153 226.1611,173.83095 C 226.46194,174.55113 226.04721,176.31018 225.01443,178.69437 C 222.90529,183.56339 225.1083,188.7074 231.42514,193.66332 C 239.71357,200.16608 240.61079,203.94471 236.02948,213.05472 C 233.55132,217.98257 233.5858,219.56821 236.18141,220.04227 C 237.13344,220.21615 237.21027,220.10304 236.58156,219.45321 C 235.04265,217.86262 235.71939,215.37598 238.60883,212.00419 C 245.17775,204.33867 244.67889,200.84257 235.49967,190.21474 C 233.21475,187.56923 231.45106,185.08858 231.58037,184.70219 C 231.96408,183.55556 241.58681,194.5393 243.24701,198.01893 C 244.77685,201.22535 244.77685,201.22535 244.98814,199.03903 C 245.26074,196.21839 241.12501,188.52649 237.81649,185.70072 C 235.33718,183.58317 232.15853,178.59325 233.28894,178.59325 C 233.66165,178.59325 234.69826,179.79982 235.59252,181.27452 C 236.48677,182.74922 238.10824,184.5631 239.19578,185.30538 C 240.28332,186.04765 242.13265,188.35417 243.3054,190.43098 C 245.43768,194.207 245.43768,194.207 245.916,191.91385 C 246.70958,188.10928 245.05776,183.91903 241.15969,179.84834 C 236.03253,174.49412 235.08819,169.58531 238.2821,164.89028 C 239.30299,163.38958 240.14337,161.70434 240.1496,161.14531 C 240.15583,160.5863 240.74246,159.47019 241.45321,158.66508 C 242.61323,157.3511 242.71303,157.3282 242.42821,158.44138 C 241.71506,161.22868 240.00943,165.32293 239.17899,166.24092 C 235.51454,170.29169 241.86939,178.69315 245.87002,175.08683 C 247.30728,173.79123 247.50091,171.83369 246.07522,173.01227 C 240.84742,177.33395 240.64496,165.43095 245.72327,152.31971 C 249.9528,141.39984 246.96945,122.16802 241.04596,122.16802 C 240.26935,122.16802 238.71845,121.4007 237.59951,120.46286 C 234.86838,118.17378 230.06797,118.02024 228.32347,120.16616 C 227.59009,121.0683 227.02697,121.33043 226.757,120.89533 C 224.60442,117.42602 234.39314,115.84568 238.07729,119.06773 C 242.58502,123.01004 250.0336,119.39013 247.00841,114.72733 C 246.54785,114.01745 246.40272,114.25639 246.39544,115.73651 C 246.37376,120.14657 243.73594,119.92191 238.67583,115.07902 C 233.40511,110.03456 227.97331,109.18836 220.88993,112.30825 C 212.19929,116.13604 208.78325,126.59963 214.55258,131.72 C 216.19257,133.17551 216.20014,132.93502 214.6385,128.98865 C 212.10772,122.59318 216.38069,113.48721 221.91253,113.48721 C 222.38677,113.48721 223.47357,113.03114 224.32766,112.47372 C 226.36118,111.14653 233.56264,111.60025 235.09241,113.15195 C 236.04501,114.1182 235.98739,114.15551 234.24719,113.69935 C 218.00349,109.44142 209.16014,124.42023 220.74694,136.56598 C 225.08464,141.11294 218.59411,145.88189 213.59689,141.81952 C 205.38571,135.14443 188.49358,128.42637 188.49358,131.83583 C 188.49358,133.83007 186.91098,135.80928 185.31637,135.80928 C 184.28365,135.80928 184.26749,135.97109 185.1016,137.95957 C 186.91913,142.29249 185.17964,146.97032 181.75086,146.97032 C 180.71093,146.97032 180.59315,147.31601 180.85241,149.60715 C 181.18553,152.55096 180.27468,153.79198 177.01626,154.83389 C 174.33022,155.69278 174.45216,156.47646 177.50147,157.95212 C 179.44224,158.89133 180.72162,160.12813 181.9633,162.26545 C 190.91865,177.68052 200.07122,188.74459 207.16852,192.73478 C 216.55129,198.00987 217.81525,200.96877 218.22801,218.62464 C 218.60426,234.71921 217.17888,240.56894 212.8713,240.60849 C 210.49623,240.6303 210.06164,241.59378 211.53283,243.57586 C 213.01063,245.56685 214.31558,245.61633 214.81856,243.70044 z M 223.11609,204.1549 C 223.44671,200.95284 223.32665,200.05335 222.43804,199.0753 C 220.88298,197.36372 221.47114,196.32353 223.28028,197.58573 C 224.85498,198.68438 224.89772,204.47846 223.34978,207.00769 C 222.89838,207.74525 222.83069,206.91895 223.11609,204.1549 z M 236.87783,180.59965 C 232.72924,176.28643 232.27934,164.40222 236.1437,161.20766 C 237.39393,160.17412 237.35614,162.32441 236.09489,163.9854 C 233.56866,167.31226 235.28766,177.92262 238.83461,180.89617 C 239.99917,181.87246 240.19115,182.27544 239.49927,182.2913 C 238.96417,182.30356 237.78452,181.54232 236.87783,180.59965 z M 211.52601,166.87724 C 211.52601,166.572 210.83054,165.66517 209.98052,164.86205 C 208.43147,163.39848 207.91773,161.8517 208.98068,161.8517 C 209.81213,161.8517 212.77101,165.51914 212.77101,166.5497 C 212.77101,167.03509 212.49088,167.43221 212.14851,167.43221 C 211.80613,167.43221 211.52601,167.18247 211.52601,166.87724 z M 212.43994,160.24478 C 212.91384,156.4667 212.20667,153.84335 210.07406,151.46818 C 208.49201,149.70618 209.07559,149.04151 211.06481,150.33978 C 213.652,152.02834 215.09132,158.95901 213.63815,162.73107 C 212.74106,165.05971 212.02291,163.56955 212.43994,160.24478 z M 238.29343,159.67967 C 238.29343,159.50815 239.12848,158.04326 240.1491,156.42436 C 241.35046,154.51878 242.00894,153.89238 242.01659,154.64785 C 242.03054,156.02386 239.69061,159.99152 238.86516,159.99152 C 238.55071,159.99152 238.29343,159.85119 238.29343,159.67967 z M 242.54602,148.61406 C 242.66444,147.13091 242.48416,144.91752 242.1454,143.69542 C 241.45217,141.19463 241.79556,140.42539 243.11734,141.51808 C 244.43476,142.60715 243.79327,139.24448 242.11698,136.27433 C 240.7859,133.91581 241.3217,133.15659 243.08074,134.90872 C 243.61061,135.43651 244.13654,135.77629 244.24948,135.66379 C 244.8087,135.10676 243.01642,130.29005 242.12268,129.94805 C 238.54361,128.57847 237.42753,127.38551 239.37566,127.01181 C 240.34738,126.82541 240.31973,126.6666 239.10483,125.45646 C 237.34605,123.70458 233.66055,122.68732 231.72626,123.41985 C 230.91068,123.72871 230.09686,123.742 229.91532,123.44941 C 229.10851,122.14909 234.49476,121.70599 237.47478,122.82754 C 239.54126,123.60526 242.37706,126.52262 243.00047,128.51214 C 243.24288,129.28577 243.62815,130.05825 243.85662,130.22876 C 245.48217,131.44194 246.9949,137.47623 245.93752,138.52946 C 245.69091,138.7751 245.56987,139.90953 245.66855,141.05041 C 245.76723,142.19129 245.54882,143.30889 245.18319,143.53398 C 244.81756,143.75906 244.51841,145.43154 244.51841,147.2506 C 244.51841,150.21014 243.95498,151.31072 242.4399,151.31072 C 242.37984,151.31072 242.42759,150.09722 242.54602,148.61406 z M 216.50599,146.04023 C 215.38488,144.85153 215.26923,144.49009 216.01001,144.49009 C 216.54133,144.49009 217.32477,144.90863 217.75099,145.42017 C 218.75748,146.62817 220.52259,146.60133 222.44163,145.34886 C 224.35673,144.09896 224.49815,145.29557 222.59246,146.62513 C 220.55855,148.04415 218.18045,147.81562 216.50599,146.04023 z M 220.94276,131.1727 C 216.8709,126.77258 217.592,121.61079 222.8336,117.63769 C 225.02421,115.97721 228.83402,114.65906 228.12094,115.80832 C 227.90192,116.16131 227.01923,116.62599 226.1594,116.84095 C 223.19522,117.582 220.26634,121.13507 219.88965,124.44689 C 219.54937,127.43851 219.54937,127.43851 220.77679,124.95828 C 222.27051,121.93996 224.91456,119.31237 225.50328,120.26121 C 225.7308,120.62789 225.66216,120.9279 225.35075,120.9279 C 222.79177,120.9279 220.50992,128.092 222.30821,130.48027 C 225.64569,134.91267 224.8004,135.34133 220.94276,131.1727 z M 101.96632,237.29224 C 102.82226,235.10715 103.84577,232.93434 104.24079,232.46376 C 104.63581,231.99318 108.19733,221.70275 112.15528,209.59612 C 116.11323,197.4895 119.96696,185.9648 120.71911,183.98568 C 121.97367,180.6846 122.00422,180.30518 121.08896,179.3935 C 120.17369,178.48182 120.05681,178.53644 119.67429,180.05454 C 119.44495,180.9647 118.79836,181.96936 118.23743,182.28711 C 117.38181,182.77179 117.34372,183.07015 118.00093,184.13937 C 118.6279,185.1594 118.62908,185.6615 118.00681,186.654 C 117.16838,187.99129 115.96877,188.27125 115.35004,187.27405 C 115.13844,186.93302 115.55195,186.654 116.26895,186.654 C 117.37969,186.654 117.47399,186.4705 116.90628,185.41388 C 116.40165,184.47466 115.60288,184.17377 113.61424,184.17377 C 110.40397,184.17377 107.3962,181.55486 107.9935,179.27971 C 108.48076,177.42374 109.58238,177.95252 110.20362,180.34058 C 110.48592,181.42574 110.98021,182.31359 111.30206,182.31359 C 111.6239,182.31359 111.72598,181.89505 111.52891,181.38351 C 111.30602,180.80496 111.53283,180.45342 112.12899,180.45342 C 112.65611,180.45342 113.26521,181.01147 113.48254,181.69354 C 113.88189,182.94682 115.03879,183.43152 115.03879,182.34554 C 115.03879,182.02208 115.73643,181.00761 116.58911,180.09117 C 117.44178,179.17473 118.40093,177.55595 118.72056,176.49389 C 119.04018,175.43183 119.58427,173.65351 119.92965,172.54206 C 120.51397,170.66167 120.43075,170.45591 118.73194,169.58087 C 116.42964,168.39497 116.30032,167.14628 118.53772,167.70563 C 120.01367,168.07462 120.07689,168.02158 119.201,167.14913 C 118.11273,166.06512 117.24668,163.78618 117.73729,163.29749 C 117.91449,163.12099 118.486,163.79814 119.00731,164.80228 C 120.03002,166.77224 122.50247,168.67233 124.04311,168.67233 C 125.28983,168.67233 125.26993,169.69967 124.0096,170.40221 C 123.10573,170.90606 123.10573,171.03854 124.0096,171.93887 C 125.35016,173.27417 125.25352,173.7969 123.75376,173.32276 C 122.89928,173.05262 122.50877,173.21134 122.50877,173.82875 C 122.50877,175.18848 125.61709,175.52427 127.40459,174.35765 C 128.49866,173.64359 129.0211,173.56137 129.19336,174.07612 C 129.32719,174.47604 129.77677,174.67325 130.19245,174.51436 C 130.60812,174.35548 131.50043,174.64525 132.17535,175.1583 C 133.32625,176.03317 133.27289,176.06694 131.31636,175.70198 C 129.90847,175.43936 129.06605,175.57746 128.72524,176.12673 C 128.42264,176.61443 127.20047,176.90083 125.67576,176.84131 C 123.13029,176.74196 122.26155,177.50808 124.11593,178.21688 C 126.35662,179.07335 129.84374,178.635 129.75395,177.50815 C 129.66228,176.35759 129.70534,176.35155 133.09123,177.04048 C 134.87361,177.40314 135.12842,177.33653 134.49186,176.67439 C 133.2698,175.40323 133.5828,174.56268 134.85212,175.70689 C 136.38258,177.0865 139.85246,177.17864 138.4714,175.80299 C 137.95784,175.29144 137.16748,174.86409 136.71506,174.85331 C 134.90625,174.81022 131.63224,171.15256 133.40248,171.15256 C 133.91604,171.15256 134.33623,171.43015 134.33623,171.76944 C 134.33623,173.0866 139.8083,175.00466 142.56637,174.65426 C 144.03134,174.46814 146.01682,174.30169 146.97856,174.28436 C 147.94029,174.26703 148.55971,173.98296 148.35504,173.6531 C 148.15038,173.32324 147.15341,173.2186 146.13956,173.42057 C 144.8774,173.67202 144.2962,173.5416 144.2962,173.00692 C 144.2962,172.4233 145.40607,172.30514 148.68976,172.53917 C 151.70059,172.75375 153.3232,172.61335 153.84554,172.09306 C 154.26476,171.67548 155.9993,171.11141 157.70008,170.83955 C 160.35879,170.41457 160.57418,170.28168 159.23616,169.89183 C 158.15582,169.57705 158.91727,169.41474 161.72615,169.36103 C 163.95158,169.31847 168.29351,169.23888 171.37487,169.18414 C 177.41784,169.0768 181.0236,169.62694 181.0236,170.6563 C 181.0236,171.06154 179.63412,171.2015 177.28861,171.0325 C 174.56447,170.83623 173.55362,170.97397 173.55362,171.54144 C 173.55362,172.91909 174.77733,173.14368 179.84772,172.69661 C 185.28828,172.2169 185.80407,171.57765 182.23152,169.74223 C 181.0536,169.13706 180.14749,168.40678 180.21793,168.11937 C 180.28838,167.83198 179.6581,166.9531 178.81731,166.16632 C 176.38686,163.89199 177.04587,163.41617 179.71255,165.51994 C 183.19082,168.26398 183.72736,167.84714 180.40175,164.9845 C 178.86143,163.65861 177.80396,162.37179 178.05182,162.12491 C 178.29968,161.87802 179.06041,162.34335 179.74233,163.15899 C 181.24838,164.96036 181.41691,164.26615 179.99741,162.10821 C 178.35014,159.60401 175.2851,158.26736 173.61091,159.32308 C 172.90313,159.76939 173.12723,160.36973 174.77533,162.44246 C 177.62038,166.02055 176.53261,166.47749 173.52185,162.96901 C 171.61694,160.74918 170.49855,160.00543 168.57999,159.68257 C 167.21614,159.45305 165.11608,158.6 163.9132,157.7869 C 162.00462,156.49679 161.72585,156.44434 161.72382,157.37497 C 161.7142,161.78575 156.83018,163.84134 152.5443,161.23843 C 151.06383,160.33931 150.52118,160.231 150.52118,160.83462 C 150.52118,162.27133 148.22031,163.82474 146.3684,163.63834 C 145.39988,163.54085 143.90714,163.90137 143.05121,164.43949 C 141.03934,165.70435 133.7759,165.79371 130.8818,164.58923 C 126.855,162.91331 122.4804,153.17108 125.04558,151.59193 C 125.47381,151.3283 125.21051,150.64511 124.31456,149.69516 C 122.93865,148.23631 123.4371,147.52298 124.84941,148.92975 C 125.39728,149.47547 125.87303,149.28841 126.82069,148.15468 C 128.50822,146.13582 128.48306,147.67391 126.77092,151.19684 C 125.29788,154.22781 125.59426,156.10162 128.23557,160.45657 C 129.82891,163.08365 130.39974,162.99849 131.62388,159.95104 C 132.26369,158.35827 132.85424,157.64726 133.22806,158.01962 C 133.60189,158.39198 133.45644,159.3086 132.83296,160.50954 C 131.44149,163.1898 132.7959,164.90246 135.60474,164.01446 C 138.88725,162.97672 136.88259,154.95476 132.89182,153.15835 C 129.07681,151.44104 127.70453,150.2277 128.58519,149.35049 C 129.12791,148.80991 129.53096,148.82307 130.23411,149.40435 C 130.99295,150.03166 131.42036,149.93645 132.54956,148.88857 C 134.12142,147.4299 133.71785,146.66029 131.38109,146.66029 C 130.50136,146.66029 129.65846,146.29933 129.50799,145.85817 C 129.30951,145.27628 129.6768,145.16666 130.84577,145.4589 C 132.73787,145.93193 133.70367,144.42212 132.46216,142.93205 C 131.83477,142.17905 131.88269,142.00986 132.7233,142.00986 C 133.28953,142.00986 133.91729,142.43682 134.11833,142.95866 C 134.31937,143.4805 135.22098,144.33207 136.12191,144.85102 C 137.75997,145.79458 137.75997,145.79458 136.0481,145.44055 C 134.51017,145.12249 134.33422,145.26097 134.31644,146.80349 C 134.30554,147.74783 133.88536,149.06209 133.38269,149.72407 C 132.20557,151.27425 132.22571,151.93078 133.45037,151.93078 C 135.1064,151.93078 138.07087,155.37827 138.07469,157.30858 C 138.08126,160.62116 139.28499,163.71187 140.56857,163.71187 C 144.44018,163.71187 143.41956,153.0993 139.3016,150.53767 C 137.66535,149.51983 137.74259,148.94139 139.47184,149.26272 C 142.20057,149.76977 143.5048,148.05033 141.91678,146.03941 C 141.17122,145.0953 140.57359,143.59316 140.58873,142.70131 C 140.61472,141.16911 140.683,141.20567 141.8279,143.36481 C 143.33051,146.19855 143.93532,146.58627 145.52833,145.73706 C 147.56741,144.65006 147.03286,142.85854 144.06193,140.8225 C 142.27405,139.59723 141.22445,138.36556 141.00827,137.23917 C 140.70071,135.63656 140.73686,135.6018 141.5538,136.71466 C 142.035,137.37016 142.42871,138.13217 142.42871,138.40802 C 142.42871,138.68387 142.78387,138.90957 143.21795,138.90957 C 143.65204,138.90957 144.99698,139.5795 146.20671,140.39832 C 147.82198,141.49161 148.68712,141.73049 149.4637,141.2976 C 150.14822,140.91602 150.52118,140.92681 150.52118,141.32818 C 150.52118,141.66921 150.09209,142.18742 149.56765,142.47977 C 149.0432,142.77211 148.1328,143.97184 147.54453,145.14582 C 146.95626,146.31981 145.84467,147.55578 145.07433,147.89242 C 144.30398,148.22906 143.6737,148.72635 143.6737,148.9975 C 143.6737,149.26866 143.11506,149.69635 142.43228,149.94794 C 141.22306,150.39351 141.23164,150.46247 142.76336,152.60679 C 143.62824,153.81758 144.56789,156.27027 144.85148,158.05724 C 145.43189,161.71448 146.20901,162.82505 147.77019,162.22832 C 149.23299,161.6692 148.60168,151.10619 147.00012,149.34343 C 146.10507,148.35829 146.09523,148.21043 146.92474,148.21043 C 148.4001,148.21043 149.09797,149.47294 149.57453,153.00418 C 150.42102,159.27644 156.45475,163.52368 159.00694,159.64381 C 160.42557,157.48719 157.84039,151.87111 153.12923,146.87503 C 151.31111,144.94694 150.07241,143.21621 150.37658,143.02896 C 151.10079,142.58313 157.39305,149.07513 159.26117,152.19557 C 161.21184,155.45392 161.56551,153.94949 159.84277,149.72158 C 158.56518,146.58615 153.28142,140.76974 151.71072,140.76974 C 151.41189,140.76974 150.99729,140.09461 150.78937,139.26944 C 149.94785,135.9297 146.20032,133.5918 144.62171,135.42173 C 142.84497,137.48135 142.28958,137.49462 143.06661,135.45889 C 144.01514,132.97385 143.81832,132.38958 141.65059,131.25546 C 139.62747,130.19699 139.62747,130.19699 142.27308,130.46391 C 145.38587,130.77795 146.04318,129.17759 143.3837,127.75986 C 141.68159,126.85249 141.89025,125.63456 143.65237,126.19164 C 145.14837,126.6646 145.76296,124.95772 144.53654,123.73611 C 144.01307,123.21469 143.1846,122.78807 142.69549,122.78807 C 141.5996,122.78807 141.52375,121.77669 142.58433,121.30587 C 143.0123,121.11589 142.66214,121.02288 141.80621,121.09919 C 140.66642,121.2008 140.19313,121.65275 140.03758,122.78807 C 139.79048,124.59164 138.24659,126.50842 137.04099,126.50842 C 135.73938,126.50842 136.05578,125.39864 137.48635,124.94638 C 138.51989,124.61963 138.69419,124.20174 138.38386,122.79439 C 138.03208,121.199 138.20385,120.98207 140.36936,120.28704 C 144.25207,119.04085 145.40413,117.64079 143.05121,117.0279 C 141.60437,116.65102 141.36292,115.34738 142.73996,115.34738 C 143.25352,115.34738 143.6737,115.62641 143.6737,115.96744 C 143.6737,116.30847 144.35514,116.5875 145.188,116.5875 C 146.15559,116.5875 146.84496,117.03522 147.09744,117.82761 C 147.31478,118.50968 148.02446,119.06773 148.67452,119.06773 C 149.32458,119.06773 150.84026,119.53504 152.04269,120.10619 C 154.08743,121.07744 154.30351,121.07744 155.38095,120.10619 C 156.01455,119.53504 156.86105,119.06773 157.26206,119.06773 C 157.66306,119.06773 157.99116,118.64919 157.99116,118.13764 C 157.99116,117.6261 158.27129,117.20756 158.61366,117.20756 C 159.89678,117.20756 159.16872,115.96455 157.33123,115.01807 C 154.81664,113.72283 151.00102,114.02302 150.78321,115.53322 C 150.59011,116.87208 149.36165,118.44767 148.51087,118.44767 C 148.17379,118.44767 148.06922,118.00321 148.2785,117.45998 C 149.54007,114.18526 149.45379,113.48721 147.78743,113.48721 C 145.68896,113.48721 145.63479,111.87232 147.71994,111.47528 C 148.79347,111.27087 149.27619,111.45416 149.27619,112.06618 C 149.27619,113.58704 152.04977,112.75114 152.27635,111.162 C 152.49303,109.64227 153.63368,109.21425 153.63368,110.65266 C 153.63368,113.78029 160.87686,114.70169 164.02581,111.97464 C 166.15254,110.13285 165.56925,108.62228 162.28895,107.47665 C 159.70737,106.57503 154.10705,106.44308 153.28245,107.26445 C 152.44271,108.10089 149.03013,108.34642 148.65369,107.59748 C 148.4825,107.2569 148.89811,106.97787 149.57725,106.97742 C 151.41092,106.97621 151.46004,105.04146 149.6563,103.86424 C 148.31358,102.98791 147.78291,102.95539 145.89887,103.63399 C 143.37449,104.54325 142.16301,103.88654 143.95583,102.58074 C 145.8183,101.22421 151.10773,102.04339 152.72331,103.93857 C 154.81121,106.38781 167.32864,105.73425 167.32864,103.17599 C 167.32864,100.1334 160.46465,98.589353 153.41157,100.04536 C 146.66737,101.43761 139.36585,100.49136 142.40697,98.619213 C 143.38375,98.017903 145.28682,98.483483 146.16619,99.538913 C 147.4141,101.03665 152.38868,98.764013 152.38868,96.696163 C 152.38868,95.439713 150.23609,93.984533 149.26332,94.583383 C 148.92802,94.789793 148.65369,95.315963 148.65369,95.752643 C 148.65369,96.789533 145.71538,98.148083 145.21544,97.342333 C 145.01182,97.014163 145.28194,96.745663 145.81571,96.745663 C 147.09078,96.745663 147.05582,94.969873 145.75251,93.535383 C 144.46475,92.117993 145.17958,91.261953 146.80606,92.273713 C 148.50862,93.332813 150.19511,93.211183 153.08388,91.820953 C 155.91533,90.458313 158.40283,90.738573 156.40328,92.194953 C 155.77624,92.651653 154.75651,93.025313 154.1372,93.025313 C 152.8915,93.025313 152.63002,93.957603 153.6923,94.611543 C 154.06691,94.842163 154.25444,95.650773 154.10903,96.408443 C 153.6933,98.574693 161.73029,97.903873 167.49217,95.291393 C 172.00148,93.246843 172.20132,92.843673 169.64695,90.944043 C 168.09328,89.788603 167.73766,89.766233 163.52141,90.558663 C 158.62767,91.478423 154.86787,90.311163 154.34461,87.709653 C 154.16497,86.816483 154.50948,86.926813 156.12295,88.279123 C 158.52277,90.290533 160.76945,90.124733 166.03886,87.547363 C 171.80765,84.72574 168.91644,83.908859 159.01196,85.561993 C 155.15638,86.205513 153.52237,86.108863 154.34833,85.286143 C 154.51315,85.121977 156.74292,84.588404 159.3034,84.100425 C 165.7714,82.867745 176.04361,77.700874 176.04361,75.680184 C 176.04361,73.752027 168.76882,73.835308 166.42601,75.790285 C 166.10076,76.061699 165.4225,76.283764 164.91878,76.283764 C 164.41506,76.283764 163.56069,76.652723 163.02016,77.103674 C 162.47964,77.554625 160.84687,78.29685 159.39178,78.753064 C 157.93669,79.209278 156.74617,79.773509 156.74617,80.006911 C 156.74617,81.091069 153.75335,83.682208 152.07743,84.04904 C 150.20994,84.457805 150.20994,84.457805 152.02952,83.20228 C 155.9209,80.517193 155.4607,78.807329 150.83243,78.754633 C 148.79571,78.731444 148.54595,78.608334 149.4604,78.078334 C 150.07528,77.721962 151.54593,77.560265 152.72852,77.719008 C 155.10739,78.038333 155.46874,77.340909 153.84844,75.557516 C 152.95297,74.571908 152.943,74.423591 153.77223,74.423591 C 155.08332,74.423591 156.3406,76.06642 155.9016,77.205953 C 154.62463,80.520639 164.03122,75.697187 165.92146,72.068034 C 167.04554,69.909856 167.02546,69.908464 160.12293,71.66608 C 140.94296,76.549948 140.96154,76.53681 134.3741,89.873393 C 128.47081,101.82489 128.49734,101.49615 132.27466,115.89331 C 135.48703,128.13716 133.51099,134.41938 124.65245,140.12586 C 117.63827,144.64423 115.87653,150.62851 120.99037,152.56517 C 124.78146,154.00089 121.25781,156.35925 117.27689,155.05058 C 111.46685,153.14061 110.92639,146.0812 116.17175,140.61546 C 118.40252,138.29097 118.40252,138.29097 115.83631,139.29505 C 111.63922,140.93725 108.91743,144.13137 110.36112,145.72038 C 111.98621,147.50904 111.10049,147.94761 108.6875,146.54909 C 104.16531,143.92811 105.98279,138.746 112.17133,136.61578 C 115.35004,135.5216 115.35004,135.5216 110.95096,135.16881 C 97.75587,134.11057 95.25967,119.45222 108.32213,119.73159 C 110.37005,119.77538 110.37005,119.77538 107.86275,120.88777 C 100.89626,123.97848 105.18591,132.51273 112.75481,130.62051 C 116.94328,129.57339 117.7369,127.79797 115.10349,125.36621 C 112.0206,122.5194 109.84571,116.08184 108.81411,106.75002 C 107.11368,91.367963 100.51807,77.822823 96.99378,82.475075 C 94.89353,85.247511 95.06892,83.397781 97.32737,78.956889 C 99.49278,74.698951 99.54543,69.463131 97.42283,69.463131 C 96.56038,69.463131 93.71704,76.317988 93.39349,79.177251 C 93.22449,80.670778 92.82648,82.052646 92.50903,82.248072 C 92.19158,82.443497 92.43883,82.986269 93.05847,83.454231 C 93.67811,83.922193 93.90497,84.305071 93.5626,84.305071 C 92.1197,84.305071 90.49937,82.497274 91.26169,81.737946 C 92.31091,80.692839 92.20286,78.143936 91.10934,78.143936 C 89.79949,78.143936 89.295219,79.301602 90.15537,80.333962 C 90.75174,81.049718 90.68537,81.312187 89.82488,81.641096 C 88.114806,82.294739 85.494391,81.077943 85.2712,79.526587 C 85.161794,78.766129 84.811639,78.143936 84.493077,78.143936 C 84.174515,78.143936 83.913874,77.835058 83.913874,77.457539 C 83.913874,77.080021 84.32509,76.928322 84.827686,77.12043 C 85.330282,77.312538 85.907063,77.202878 86.10942,76.876741 C 86.865432,75.658284 87.684948,76.29813 87.000332,77.57233 C 85.539395,80.291413 86.945961,81.003881 88.962986,78.566473 C 90.00194,77.310983 91.27513,76.283764 91.7923,76.283764 C 92.30946,76.283764 92.61679,75.934981 92.47525,75.508692 C 92.29656,74.97053 89.94984,74.638856 84.797771,74.423591 C 77.107118,74.102259 74.142234,73.224216 72.758775,70.858274 C 72.224808,69.945102 72.121267,69.927973 72.105338,70.750176 C 72.067425,72.706997 76.012699,75.36627 80.733337,76.565794 C 84.337213,77.481547 74.998305,82.564633 63.844681,85.758143 C 57.487552,87.578313 56.546041,88.036933 54.472056,90.323583 C 51.382288,93.730173 51.470733,93.851633 56.679578,93.355103 C 64.919128,92.569673 66.899804,92.646863 68.182808,93.803413 C 69.809014,95.269333 70.385123,95.163693 69.89004,93.490363 C 69.513982,92.219313 69.629678,92.253823 71.190825,93.878323 C 72.133281,94.859013 74.190989,96.245993 75.763511,96.960483 C 78.06977,98.008363 78.359949,98.300313 77.264152,98.470323 C 76.516984,98.586243 74.976301,98.201353 73.840412,97.615003 C 70.004568,95.634953 68.118083,95.548173 63.273067,97.128943 C 60.783408,97.941233 58.266368,98.605833 57.679647,98.605833 C 56.68813,98.605833 54.359742,100.37714 54.78909,100.8048 C 54.894646,100.90994 56.518699,100.46729 58.398098,99.821143 C 62.753537,98.323703 66.18017,98.170643 64.341827,99.555643 C 63.677235,100.05634 62.416676,100.47027 61.540585,100.4755 C 58.488768,100.49369 58.336998,101.41937 61.24558,102.2748 C 63.868527,103.04623 64.327942,102.99492 67.918806,101.52945 C 73.591715,99.214283 77.022127,98.975583 82.265892,100.53112 C 91.39344,103.23876 98.23133,100.67905 98.23133,94.554583 C 98.23133,92.574873 99.6913,92.779563 99.9894,94.801063 C 100.24125,96.508963 97.35896,101.52094 95.89493,101.92087 C 91.59969,103.0942 87.947235,103.65673 86.498308,103.36808 C 84.796743,103.0291 84.796743,103.0291 85.379404,106.553 C 85.904019,109.72583 85.793916,110.47841 84.274226,114.10727 C 78.852592,127.05352 79.458884,142.86092 85.755497,152.72738 C 88.140979,156.46531 88.147648,156.97919 85.781369,154.72104 C 83.636357,152.67404 83.664524,152.55332 84.795612,158.94576 C 85.593808,163.45683 86.403867,165.7916 86.403867,163.58111 C 86.403867,163.05448 86.824053,162.27624 87.337614,161.8517 C 88.116303,161.20798 88.271362,161.29226 88.271362,162.35924 C 88.271362,163.06293 87.964858,163.82737 87.590243,164.05799 C 86.908802,164.47749 87.057249,166.09313 87.979256,168.29189 C 88.763476,170.16206 86.935526,169.19641 85.788167,167.13441 C 83.98767,163.8986 83.684505,163.91891 72.05879,168.0541 C 56.308002,173.65656 56.372039,173.60498 57.667903,179.64432 C 58.019501,181.28293 58.627455,187.36706 59.01891,193.1646 C 59.905351,206.293 59.80757,205.84037 62.433509,208.97109 C 63.634115,210.40248 64.61643,212.21388 64.61643,212.99641 C 64.61643,216.10704 66.662389,217.46891 69.259945,216.08732 C 72.849892,214.1779 73.029169,213.62718 70.537501,212.16283 C 68.000938,210.67208 67.106423,208.78563 67.106423,204.927 C 67.106423,203.42647 66.71739,201.00316 66.241905,199.54186 C 59.961398,180.24002 62.022311,176.11553 77.948267,176.11398 C 83.397719,176.11345 87.678389,175.93574 87.460865,175.71907 C 87.243342,175.5024 84.045257,175.31151 80.354011,175.29487 C 76.662764,175.27823 74.132871,175.15602 74.732026,175.02329 C 75.33118,174.89057 75.821397,174.49355 75.821397,174.14104 C 75.821397,173.77796 76.293656,173.68906 76.910769,173.93597 C 77.509924,174.17568 78.350296,174.51441 78.778264,174.6887 C 79.232599,174.87372 79.564625,174.52645 79.576184,173.85414 C 79.594835,172.76941 79.651156,172.77454 80.54842,173.94282 C 81.466093,175.13767 81.531674,175.14154 82.345099,174.04882 C 83.020328,173.14175 83.4406,173.04865 84.44443,173.58377 C 86.501212,174.68021 87.342719,174.38866 86.092618,173.01273 C 84.617034,171.38862 85.783442,171.41806 87.876163,173.05774 C 89.88019,174.62792 90.06056,173.73815 88.108524,171.9115 C 87.076687,170.94594 86.176855,170.67632 84.739311,170.90199 C 83.660552,171.07134 82.615268,170.94774 82.416458,170.62731 C 81.889429,169.77791 84.829258,169.20074 86.516291,169.8224 C 87.310393,170.11502 88.310268,170.23174 88.738235,170.08178 C 89.166203,169.9318 89.51636,170.11138 89.51636,170.48083 C 89.51636,170.85028 89.93654,171.15256 90.45011,171.15256 C 90.96367,171.15256 91.38385,171.44805 91.38385,171.80921 C 91.38385,172.17037 91.66398,172.29342 92.00635,172.08265 C 93.00905,171.46537 92.76345,165.17464 91.6951,164.11048 C 91.18154,163.59893 90.79385,162.53265 90.83356,161.74097 C 90.89712,160.4741 90.94188,160.45021 91.20696,161.54167 C 91.37261,162.22373 92.08925,163.40959 92.7995,164.17691 C 93.50975,164.94423 93.88544,165.57204 93.63437,165.57204 C 93.3833,165.57204 93.39585,165.92082 93.66228,166.34711 C 93.9287,166.7734 94.07246,167.69518 93.98174,168.3955 C 93.89102,169.09582 94.42411,170.21193 95.16637,170.87573 C 97.87121,173.29465 95.73034,165.62694 92.38957,160.93033 C 90.64497,158.47771 89.43153,156.14577 90.12064,156.56999 C 90.42407,156.75679 90.7624,156.29954 90.87247,155.55387 C 90.98254,154.8082 91.42498,154.08251 91.85567,153.94122 C 92.45475,153.74468 92.49132,154.07054 92.01129,155.32815 C 90.62894,158.94975 92.5992,159.33857 94.43341,155.80614 C 95.09746,154.52727 97.06402,152.09628 98.80355,150.40394 C 100.54307,148.71161 101.96632,146.82818 101.96632,146.21855 C 101.96632,145.60893 102.23565,145.11014 102.56483,145.11014 C 102.894,145.11014 103.46505,143.99404 103.83382,142.62991 C 104.42538,140.44164 105.70131,139.15077 105.70131,140.74057 C 105.70131,141.6593 104.24645,144.70949 103.3742,145.61948 C 102.94224,146.07012 102.58882,146.82307 102.58882,147.29269 C 102.58882,147.7623 101.86851,148.92072 100.98813,149.86693 C 98.87753,152.13539 93.86817,159.14482 93.89465,159.7926 C 93.9061,160.07253 95.16393,158.92695 96.68983,157.2469 C 99.99464,153.60819 101.02469,153.85101 98.30898,157.62858 C 95.75277,161.18429 94.7751,165.64037 97.17836,162.78178 C 99.20946,160.36586 99.78491,160.98655 98.21645,163.90148 C 96.9308,166.29081 96.62613,168.05227 97.49849,168.05227 C 97.78018,168.05227 98.6402,166.79666 99.40966,165.26201 C 100.18533,163.71496 101.24823,162.47175 101.79522,162.47175 C 102.67971,162.47175 102.67519,162.58907 101.75155,163.60568 C 101.18493,164.22934 100.72133,165.15012 100.72133,165.65187 C 100.72133,166.15361 100.37117,166.91775 99.9432,167.34994 C 99.32016,167.97915 99.35213,168.28191 100.10364,168.86909 C 101.10896,169.65458 101.04303,172.39267 100.01879,172.39267 C 99.68003,172.39267 99.57598,172.11365 99.78758,171.77262 C 99.99918,171.43158 99.87565,171.15256 99.51307,171.15256 C 99.15049,171.15256 98.85383,171.98964 98.85383,173.01273 C 98.85383,174.8766 99.74378,175.55303 100.28145,174.09783 C 100.43896,173.67154 100.78116,174.15984 101.04189,175.18293 C 101.97909,178.86039 103.50623,178.66679 103.55287,174.86463 C 103.56954,173.50596 103.95242,172.04516 104.40373,171.61842 C 105.07954,170.97941 105.14983,171.36211 104.80216,173.7878 C 104.52588,175.71544 104.60829,176.73308 105.04067,176.73308 C 105.40402,176.73308 105.70983,176.24478 105.72024,175.64798 C 105.73743,174.66252 105.8017,174.6701 106.42002,175.73048 C 106.79449,176.37266 107.07695,178.04682 107.04771,179.45083 C 106.3618,212.38622 101.01956,236.8701 93.87385,239.82758 C 91.01078,241.01256 91.07286,240.85029 92.66289,242.99248 C 94.86629,245.96105 99.74042,242.97466 101.96632,237.29224 z M 107.56881,213.43668 C 107.56881,212.72875 107.86533,211.967 108.22775,211.74389 C 108.60574,211.51119 108.71736,210.5703 108.48954,209.53709 C 108.22509,208.33778 108.33946,207.73595 108.83183,207.73595 C 109.30972,207.73595 109.43311,207.18766 109.18068,206.18581 C 108.70358,204.29237 109.46357,204.16394 110.58267,205.94888 C 111.17321,206.89079 111.21555,207.45182 110.7324,207.93307 C 110.36192,208.30209 110.0588,209.27154 110.0588,210.08738 C 110.0588,210.90322 109.49855,212.28017 108.8138,213.14727 C 107.64695,214.62486 107.56881,214.64303 107.56881,213.43668 z M 139.60187,172.35142 C 139.0027,171.38574 139.77684,170.86922 140.70179,171.61753 C 141.13804,171.97046 142.05521,172.3964 142.73996,172.56405 C 143.57093,172.7675 143.32438,172.89279 141.99857,172.9408 C 140.90606,172.98036 139.82755,172.71514 139.60187,172.35142 z M 149.16287,171.01741 C 149.49483,170.68675 150.28642,170.52598 150.92194,170.66017 C 151.77776,170.84086 151.62123,170.99678 150.31836,171.26138 C 149.18242,171.49207 148.7731,171.40565 149.16287,171.01741 z M 151.92181,169.48502 C 152.52096,169.32906 153.50139,169.32906 154.10055,169.48502 C 154.6997,169.64098 154.20949,169.76859 153.01118,169.76859 C 151.81287,169.76859 151.32265,169.64098 151.92181,169.48502 z M 126.46308,168.67648 C 125.09099,168.12504 124.04454,166.93588 124.51713,166.46515 C 124.66318,166.31968 125.88176,166.71943 127.22509,167.35349 C 128.56841,167.98754 130.08768,168.66116 130.60124,168.8504 C 131.1148,169.03964 130.69462,169.19883 129.66749,169.20413 C 128.64037,169.20944 127.19839,168.972 126.46308,168.67648 z M 172.61987,168.05227 C 172.13005,167.26282 173.57222,167.26282 174.79861,168.05227 C 175.55774,168.54093 175.47729,168.65512 174.36848,168.66284 C 173.61835,168.66806 172.83147,168.3933 172.61987,168.05227 z M 160.99762,167.55527 C 159.39863,167.45244 157.75361,166.96415 157.34204,166.47017 C 156.44544,165.39407 157.12421,165.33551 159.78494,166.25941 C 161.25866,166.77114 162.21682,166.76016 163.53461,166.21645 C 165.03548,165.59722 165.67029,165.68129 167.70808,166.7692 C 169.87569,167.92641 169.95663,168.05227 168.53329,168.05227 C 167.66531,168.05227 166.63086,167.72926 166.23452,167.33448 C 165.78302,166.88475 165.21347,166.82686 164.7094,167.17947 C 164.26692,167.48899 162.59662,167.65811 160.99762,167.55527 z M 168.80399,165.29897 C 167.73237,164.83445 166.66538,164.14781 166.43288,163.7731 C 165.84806,162.83055 166.31682,162.91106 169.35854,164.27564 C 170.8099,164.92674 172.41756,165.60228 172.93112,165.77683 C 173.45491,165.95486 173.18162,166.10503 172.30862,166.11888 C 171.45269,166.13245 169.8756,165.7635 168.80399,165.29897 z M 171.37487,163.37547 C 169.95896,162.18485 169.79045,161.84823 170.678,161.98342 C 171.32184,162.08149 172.26641,162.78953 172.77705,163.55685 C 173.97013,165.34968 173.67765,165.31185 171.37487,163.37547 z M 100.09883,159.48398 C 100.09883,158.73461 101.27983,157.86093 101.71153,158.29093 C 101.86821,158.447 101.56945,158.92764 101.04762,159.35903 C 100.45601,159.8481 100.09883,159.89514 100.09883,159.48398 z M 101.11871,153.48092 C 101.31578,152.96937 101.58712,152.55083 101.72167,152.55083 C 101.85623,152.55083 101.96632,152.96937 101.96632,153.48092 C 101.96632,153.99247 101.69499,154.41101 101.36336,154.41101 C 101.03173,154.41101 100.92164,153.99247 101.11871,153.48092 z M 96.98634,148.33803 C 96.98634,148.01033 97.43883,147.36815 97.99188,146.91096 C 98.86185,146.19179 98.96676,146.23733 98.77,147.2487 C 98.53555,148.45386 96.98634,149.39999 96.98634,148.33803 z M 96.45712,143.24997 C 97.1055,141.39731 98.24921,140.68993 98.21154,142.16487 C 98.18958,143.0246 96.74536,145.11014 96.17197,145.11014 C 95.97074,145.11014 96.09906,144.27307 96.45712,143.24997 z M 94.49944,140.61473 C 94.50114,140.18844 95.22391,139.00258 96.1056,137.97948 C 97.11884,136.80375 97.57481,136.53976 97.34485,137.26201 C 97.14475,137.89051 96.81179,139.07636 96.60495,139.89726 C 96.22003,141.42489 94.49386,142.0131 94.49944,140.61473 z M 93.51032,136.89438 C 93.70982,136.46809 94.03127,135.68694 94.22467,135.15849 C 94.41806,134.63005 95.14903,133.84141 95.84905,133.40595 C 96.54906,132.9705 96.99963,132.84481 96.85032,133.12665 C 96.701,133.40849 96.18892,134.54591 95.71236,135.65427 C 95.2358,136.76262 94.46378,137.66945 93.99674,137.66945 C 93.52971,137.66945 93.31082,137.32067 93.51032,136.89438 z M 138.35687,135.14797 C 137.6869,134.06818 138.44995,133.8395 139.30373,134.86421 C 139.79473,135.45351 139.84195,135.80928 139.42918,135.80928 C 139.06509,135.80928 138.58255,135.51169 138.35687,135.14797 z M 92.63194,133.17404 C 92.63676,131.96569 95.56952,128.6191 96.13439,129.17738 C 96.41194,129.4517 96.36132,129.87024 96.02189,130.10746 C 95.68246,130.3447 95.0663,131.30611 94.65264,132.24395 C 93.88326,133.98827 92.62639,134.56679 92.63194,133.17404 z M 92.65124,128.54542 C 92.63862,127.77159 93.1956,126.86998 93.92716,126.48 C 95.81173,125.47536 95.89355,125.99419 94.17993,128.0828 C 92.75977,129.81373 92.67234,129.84019 92.65124,128.54542 z M 92.62885,125.40638 C 92.62885,124.72566 96.46978,121.4468 96.83779,121.81336 C 97.19566,122.16983 93.78279,125.88836 93.09774,125.88836 C 92.83985,125.88836 92.62885,125.67147 92.62885,125.40638 z M 92.62885,122.47805 C 92.62885,121.9042 95.11262,119.68779 95.75569,119.68779 C 96.10596,119.68779 95.93368,120.38535 95.37285,121.23793 C 94.49775,122.56826 92.62885,123.41289 92.62885,122.47805 z M 94.49634,112.86715 C 94.49634,112.52612 94.77647,112.2471 95.11884,112.2471 C 95.46122,112.2471 95.74134,112.52612 95.74134,112.86715 C 95.74134,113.20819 95.46122,113.48721 95.11884,113.48721 C 94.77647,113.48721 94.49634,113.20819 94.49634,112.86715 z M 141.80621,111.66883 C 141.80621,110.94534 144.24768,110.13191 144.79196,110.67406 C 145.2585,111.13876 143.72669,112.22367 142.58433,112.2376 C 142.15636,112.24283 141.80621,111.98687 141.80621,111.66883 z M 94.97763,110.86643 C 95.39173,110.36943 95.55299,109.78594 95.33598,109.56979 C 94.74103,108.97717 96.37322,107.2853 97.52943,107.29613 C 98.34909,107.30381 98.37837,107.40922 97.68275,107.84807 C 97.20984,108.14641 96.78965,109.04524 96.749,109.84546 C 96.7023,110.76478 96.22404,111.38686 95.44991,111.53524 C 94.43896,111.72901 94.35638,111.61207 94.97763,110.86643 z M 140.56121,108.90766 C 140.56121,107.91154 142.29001,105.69044 142.90611,105.895 C 143.99878,106.2578 143.85534,107.32261 142.58433,108.28366 C 141.51896,109.08922 140.56121,109.38462 140.56121,108.90766 z M 94.49634,106.66658 C 94.49634,106.32555 94.84915,106.04652 95.28035,106.04652 C 96.37892,106.04652 97.91761,103.5738 96.83599,103.54657 C 96.31231,103.53339 96.38027,103.27643 97.04097,102.7715 C 97.58459,102.35606 98.19275,101.59761 98.39245,101.08606 C 98.59383,100.57022 98.77743,101.00184 98.80469,102.05515 C 98.83867,103.3683 98.31509,104.46846 97.1079,105.62048 C 95.26369,107.38042 94.49634,107.68779 94.49634,106.66658 z M 138.38247,104.80641 C 138.17087,104.46537 138.2944,104.18635 138.65698,104.18635 C 139.58016,104.18635 139.48309,102.49659 138.53809,102.11677 C 137.99063,101.89673 137.97744,101.78951 138.49363,101.75507 C 139.90021,101.66122 141.29861,103.61135 140.50648,104.56207 C 139.6575,105.58102 138.91602,105.66632 138.38247,104.80641 z M 137.44872,99.535923 C 137.44872,99.024373 137.86891,98.605833 138.38247,98.605833 C 139.50313,98.605833 139.60788,97.284203 138.56922,96.249613 C 137.52215,95.206643 138.75469,95.356373 140.20341,96.448133 C 141.2663,97.249133 141.3072,97.527433 140.56509,98.908643 C 139.65679,100.59916 137.44872,101.04361 137.44872,99.535923 z M 81.699462,92.765983 C 81.035408,92.282323 80.631713,91.756793 80.802362,91.598143 C 81.306583,91.129383 83.913874,92.308533 83.913874,93.005333 C 83.913874,93.890583 83.126682,93.805503 81.699462,92.765983 z M 56.380821,92.056003 C 55.736561,91.414273 56.912635,88.374883 57.805211,88.374883 C 58.962448,88.374883 59.318875,90.362073 58.366629,91.504963 C 57.572282,92.458333 56.956333,92.629253 56.380821,92.056003 z M 80.714721,89.934163 C 79.245138,88.703183 79.245138,88.703183 81.269401,89.375163 C 83.462839,90.103293 84.540374,91.165143 83.085828,91.165143 C 82.58999,91.165143 81.522992,90.611203 80.714721,89.934163 z M 80.466403,88.026613 C 80.241752,87.664543 79.314816,87.085463 78.406546,86.739773 C 76.755145,86.111243 76.755145,86.111243 78.31139,85.24985 C 79.712971,84.474063 79.743904,84.379963 78.622639,84.303013 C 77.048018,84.194949 81.226935,82.975639 82.980127,83.0316 C 86.266448,83.136498 91.11425,84.168348 88.738235,84.257208 C 86.174894,84.353075 85.452967,85.584623 87.960112,85.584623 C 88.816047,85.584623 89.51636,85.863653 89.51636,86.204683 C 89.51636,86.545713 88.746016,86.834633 87.804488,86.846713 C 86.862959,86.858793 85.392307,87.267453 84.536372,87.754823 C 82.670613,88.817213 81.025123,88.927093 80.466403,88.026613 z M 83.077184,85.26976 C 83.643706,84.053104 83.626819,83.724453 82.997781,83.724453 C 81.896059,83.724453 80.606046,85.388223 81.095779,86.177523 C 81.729465,87.198823 82.300821,86.937063 83.077184,85.26976 z M 144.9187,88.131193 C 144.9187,87.826653 145.33889,87.416873 145.85245,87.220573 C 147.39271,86.631833 146.91027,85.578343 144.9187,85.181589 C 142.36065,84.671985 142.56305,83.724453 145.22995,83.724453 C 147.74623,83.724453 148.16325,82.461044 146.11798,81.034093 C 144.45014,79.870475 145.55177,79.183002 147.75013,80.015542 C 149.3338,80.615291 149.41684,80.831867 149.05928,83.430294 C 148.67751,86.204683 148.67751,86.204683 151.15559,86.204683 C 152.51854,86.204683 153.63368,86.483713 153.63368,86.824743 C 153.63368,87.165773 152.52971,87.444803 151.18042,87.444803 C 149.83113,87.444803 148.55404,87.723823 148.34244,88.064853 C 147.86543,88.833643 144.9187,88.890743 144.9187,88.131193 z M 94.53455,79.575659 C 94.55556,78.958728 95.23255,77.058835 96.03898,75.353677 C 97.7497,71.736429 98.3705,73.887751 96.7386,77.778128 C 95.72023,80.205874 94.47859,81.218501 94.53455,79.575659 z M 73.827982,220.66662 C 73.598303,215.94376 72.169549,214.51167 70.206616,217.03681 C 68.5413,219.17909 68.666585,220.07225 70.963525,222.4328 C 73.704684,225.24987 74.040794,225.04262 73.827982,220.66662 z M 172.58458,156.75327 C 174.82237,153.5709 166.94675,143.39838 158.10149,138.04624 C 151.56448,134.09079 149.85522,137.11445 155.7585,142.19099 C 159.06815,145.03713 162.97115,151.34499 162.97115,153.84777 C 162.97115,157.06855 170.71673,159.40953 172.58458,156.75327 z M 165.14748,149.44521 C 164.5286,148.07815 162.34899,145.27739 160.30391,143.22128 C 158.25882,141.16517 156.73953,139.32955 156.92769,139.14212 C 157.87791,138.19563 167.32864,149.51178 167.32864,151.59604 C 167.32864,152.75956 166.09899,151.54702 165.14748,149.44521 z M 119.32659,153.48114 C 113.88698,150.53637 115.97995,144.04171 123.99302,139.00084 C 132.7384,133.4993 134.8379,121.08108 127.41917,118.73571 C 126.7727,118.53132 126.24375,118.10388 126.24375,117.78583 C 126.24375,116.95558 128.34905,117.07239 129.23175,117.95163 C 130.45919,119.17426 130.07894,117.91926 128.57812,115.79439 C 126.75757,113.21684 125.69501,112.3931 123.56839,111.91062 C 122.18299,111.59631 121.97116,111.3422 122.5327,110.66822 C 123.11738,109.96649 122.4093,109.78968 118.41055,109.6389 C 115.02927,109.5114 113.49878,109.20507 113.30322,108.6167 C 113.09078,107.97749 113.37659,107.90175 114.49827,108.30001 C 115.30911,108.58792 117.72307,108.74207 119.86261,108.64258 C 123.35449,108.4802 123.9034,108.62369 125.22522,110.04436 C 126.03512,110.91484 127.05921,111.62704 127.50099,111.62704 C 128.05751,111.62704 127.96867,111.25773 127.21173,110.4246 C 126.58334,109.73295 126.11925,108.24496 126.11925,106.9218 C 126.11925,104.51595 125.12186,103.04567 122.05464,100.93004 C 120.33002,99.740483 120.33002,99.740483 122.66439,100.13134 C 124.50789,100.44001 124.99876,100.32454 124.99876,99.582193 C 124.99876,98.369623 118.67208,95.444473 115.15528,95.031033 C 113.67343,94.856833 112.7085,94.478393 113.00164,94.186393 C 113.29479,93.894393 114.49584,93.932493 115.68228,94.271423 C 116.86452,94.609163 119.02419,94.885493 120.48154,94.885493 C 122.5604,94.885493 123.13126,95.112583 123.13126,95.939583 C 123.13126,96.747673 123.30216,96.823453 123.86355,96.264263 C 124.964,95.168123 122.82233,93.130633 120.08893,92.673273 C 115.60517,91.923023 115.2041,91.566863 118.31224,91.095553 C 121.09991,90.672833 126.29877,87.444803 124.1919,87.444803 C 123.6956,87.444803 121.99669,86.875153 120.41655,86.178923 C 118.23538,85.217873 117.25185,85.068564 116.3321,85.558873 C 113.85029,86.881883 112.81298,86.177433 115.18832,84.782106 C 118.33152,82.935712 118.40175,81.178707 115.30453,81.874506 C 114.08119,82.149332 112.58847,82.817512 111.98739,83.359351 C 110.04861,85.107041 109.76743,84.405277 111.63039,82.468382 C 112.65523,81.402878 113.82031,80.739562 114.32687,80.933188 C 115.35384,81.325725 117.52878,79.586821 117.52878,78.37321 C 117.52878,77.750665 117.1463,77.699421 115.93201,78.159283 C 113.96066,78.905852 113.79379,78.907914 113.79379,78.185721 C 113.79379,77.86767 114.37515,77.423654 115.0857,77.199019 C 117.28231,76.504576 115.91179,76.156577 113.54445,76.807668 C 112.31598,77.145535 109.76177,78.740221 107.86842,80.351415 C 105.97507,81.962608 104.24632,83.101905 104.02673,82.883186 C 103.26693,82.126363 109.3733,76.821148 111.75465,76.16916 C 113.04737,75.815231 114.31084,75.207932 114.56238,74.819608 C 116.24725,72.218501 110.51177,70.619449 105.86624,72.395119 C 105.18253,72.656455 105.02272,72.535396 105.35164,72.005281 C 105.61403,71.582396 106.43032,70.994614 107.16563,70.699097 C 108.12043,70.315369 108.21161,70.150561 107.48465,70.122492 C 104.43879,70.004885 102.33523,71.790061 100.65706,75.916685 C 98.3839,81.506405 100.48309,82.486451 104.18528,77.563895 C 106.81041,74.073424 112.27791,71.862045 113.48254,73.803534 C 113.71212,74.173544 112.95318,74.423591 111.60055,74.423591 C 108.20178,74.423591 100.71003,81.720813 102.4752,83.312005 C 103.96356,84.653665 104.6411,84.613899 106.01256,83.104396 C 106.63225,82.422333 107.46558,81.864281 107.86442,81.864281 C 108.26325,81.864281 109.52886,81.028972 110.67688,80.00804 C 111.82489,78.987107 112.89571,78.2828 113.05645,78.442912 C 113.5976,78.981946 111.67959,80.750328 108.08397,83.027476 C 105.32518,84.774644 104.64096,85.499002 105.0804,86.207233 C 105.53361,86.937673 105.80683,86.967663 106.42239,86.354513 C 107.60399,85.177546 109.18605,85.320821 108.1913,86.514713 C 107.76509,87.026263 107.04043,87.444803 106.58096,87.444803 C 105.94376,87.444803 106.04802,88.143583 107.02038,90.390073 C 108.38586,93.544783 109.70627,100.37937 110.4045,107.90669 C 111.2873,117.42385 116.7293,128.49463 118.8717,125.13171 C 119.74505,123.76083 119.45438,123.08964 117.48568,121.93126 C 115.39142,120.699 115.38236,119.78367 117.47546,120.89948 C 118.47917,121.43454 118.76908,121.41077 118.75307,120.7947 C 118.71688,119.40233 116.34097,117.05302 115.35149,117.43123 C 114.83713,117.62783 114.41629,117.51842 114.41629,117.1881 C 114.41629,116.04214 117.31844,116.5948 118.58859,117.98263 C 121.55947,121.22875 121.68031,124.55062 118.96079,128.21423 C 113.95184,134.96205 101.78885,132.5642 102.78525,125.02534 C 103.12193,122.47805 103.12193,122.47805 101.92163,123.94187 C 97.45423,129.39006 109.61137,136.7201 116.96457,133.01188 C 122.85272,130.04249 125.8879,125.91156 124.32238,122.99783 C 123.33834,121.16633 124.17998,120.21378 125.3609,121.82246 C 127.4854,124.71649 125.91474,128.88251 121.63147,131.71444 C 119.83641,132.90126 117.96887,134.35106 117.48138,134.93621 C 116.99389,135.52136 114.86548,136.77311 112.75158,137.71787 C 108.87619,139.44988 107.56881,140.84055 107.56881,143.23078 C 107.56881,144.36663 107.81276,144.25648 109.47593,142.36966 C 110.65969,141.02672 113.83216,139.00877 117.84003,137.0494 C 126.96958,132.58614 129.98747,128.86177 127.83467,124.71503 C 126.64809,122.42943 127.52924,122.12097 128.9734,124.3164 C 130.99485,127.38943 128.49857,133.37588 124.29224,135.54253 C 119.62662,137.94576 113.79379,144.63942 113.79379,147.59037 C 113.79379,150.64551 117.21,154.36135 120.01877,154.36135 C 120.53233,154.36135 120.22085,153.96526 119.32659,153.48114 z M 113.01567,106.52385 C 112.07414,106.20448 111.3038,105.54789 111.3038,105.06476 C 111.3038,103.91943 112.19449,103.94408 113.17129,105.11643 C 114.0521,106.17358 116.11499,106.31549 118.34191,105.47214 C 119.84853,104.90157 124.99995,105.76443 124.99768,106.58699 C 124.99596,107.21364 114.89229,107.16039 113.01567,106.52385 z M 109.4363,92.117043 C 109.4363,91.578513 109.97695,91.165143 110.6813,91.165143 C 111.36605,91.165143 111.92629,91.294843 111.92629,91.453353 C 111.92629,91.611873 111.36605,92.040233 110.6813,92.405263 C 109.6876,92.934983 109.4363,92.876803 109.4363,92.117043 z M 113.67707,90.741573 C 114.12643,90.562453 114.66334,90.584483 114.8702,90.790523 C 115.07705,90.996563 114.70938,91.143113 114.05317,91.116193 C 113.32799,91.086443 113.18049,90.939513 113.67707,90.741573 z M 178.17789,152.19651 C 181.19262,149.1936 176.81368,142.90589 166.9419,136.06277 C 163.02341,133.34648 162.46711,133.06789 157.67991,131.42448 C 155.41396,130.6466 154.99069,130.34114 156.12367,130.3014 C 161.01285,130.12991 169.82568,135.26744 176.6401,142.26168 C 180.66592,146.39375 184.13609,145.80313 184.13609,140.98588 C 184.13609,136.58699 174.5626,129.33661 164.21615,125.89972 C 161.99071,125.16047 159.54948,124.15793 158.79119,123.67186 C 156.90975,122.46582 156.74239,122.53388 156.77146,124.49323 C 156.79368,125.99167 157.34082,126.45573 161.28457,128.32109 C 166.42009,130.75014 170.06585,133.21204 167.32864,132.40251 C 166.4727,132.14937 165.33015,131.55672 164.78963,131.08551 C 164.24911,130.6143 163.3387,130.22876 162.76651,130.22876 C 162.19431,130.22876 161.72615,130.00142 161.72615,129.72355 C 161.72615,128.86226 157.12123,126.93779 156.86836,127.69341 C 156.74409,128.06476 156.27555,128.36859 155.82715,128.36859 C 155.37874,128.36859 154.85245,128.78242 154.65759,129.28822 C 154.456,129.81151 153.89072,130.05016 153.34599,129.84194 C 150.14424,128.61813 153.79995,134.318 157.37374,136.12187 C 161.67021,138.29052 168.83673,144.58847 170.79451,147.91607 C 173.52247,152.55274 176.23912,154.12769 178.17789,152.19651 z M 165.99698,138.8789 C 164.52739,137.60811 164.52739,137.60811 166.55051,138.5848 C 168.54129,139.54586 169.10834,140.14968 168.02009,140.14968 C 167.71566,140.14968 166.80525,139.57783 165.99698,138.8789 z M 162.21342,136.89438 C 161.24938,136.01185 159.28179,134.83026 156.12367,133.23731 C 154.62563,132.48169 154.31554,132.13063 155.13116,132.11365 C 155.78359,132.10005 157.23556,132.7865 158.35775,133.63908 C 159.47994,134.49166 160.62687,135.19543 160.9065,135.20301 C 161.74521,135.22576 164.5881,137.64074 163.79374,137.65566 C 163.39022,137.66325 162.67908,137.32067 162.21342,136.89438 z M 151.38862,135.4388 C 152.26049,135.10554 152.2626,134.88478 151.40959,133.24172 C 150.19196,130.8963 147.82188,129.73535 146.49338,130.83358 C 145.30474,131.8162 145.25176,133.32905 146.40599,133.32905 C 146.88161,133.32905 147.93208,133.87782 148.74035,134.54854 C 150.47795,135.99042 150.19463,135.89518 151.38862,135.4388 z M 185.87908,133.8251 C 188.34609,131.36776 184.38103,127.06198 175.53151,122.58835 C 168.89052,119.23118 160.48116,117.25439 160.48116,119.05046 C 160.48116,119.40099 160.88481,119.68779 161.37816,119.68779 C 161.87152,119.68779 162.44621,119.96345 162.65526,120.30037 C 162.89699,120.68997 162.00401,120.77214 160.202,120.52611 C 154.93958,119.80764 156.68806,121.73198 163.38776,124.03229 C 170.14742,126.35319 176.26523,129.40807 180.33499,132.49473 C 183.2342,134.69361 184.66296,135.03645 185.87908,133.8251 z M 173.20572,125.59805 C 172.54113,125.09735 172.29399,124.67882 172.65652,124.66797 C 173.01905,124.65712 173.85942,125.05791 174.52401,125.55862 C 175.1886,126.05931 175.43575,126.47785 175.07322,126.4887 C 174.71069,126.49955 173.87031,126.09875 173.20572,125.59805 z M 167.01739,122.76531 C 164.96314,121.77606 163.6249,120.95795 164.0435,120.94729 C 164.8641,120.92639 171.68612,124.01803 171.68612,124.41081 C 171.68612,124.88421 170.68393,124.53099 167.01739,122.76531 z M 154.40084,127.53661 C 155.70875,125.48919 152.58658,120.9279 149.87722,120.9279 C 149.20428,120.9279 148.65369,120.64888 148.65369,120.30784 C 148.65369,119.40607 147.45926,119.54884 146.43048,120.57358 C 145.29176,121.70784 145.3119,122.12802 146.57143,123.51432 C 147.94506,125.02622 148.65369,124.94486 148.65369,123.27526 C 148.65369,122.02116 148.73926,121.98752 149.64196,122.88668 C 151.3693,124.60724 149.26059,126.93515 146.31932,126.55471 C 145.89135,126.49935 145.5412,126.73734 145.5412,127.08357 C 145.5412,128.80571 153.33552,129.20427 154.40084,127.53661 z M 145.16377,119.946 C 145.39642,119.34212 145.2573,119.05865 144.80241,119.20969 C 143.87187,119.51865 143.35952,120.9279 144.17773,120.9279 C 144.512,120.9279 144.95572,120.48605 145.16377,119.946 z M 189.73857,117.78788 C 194.04297,117.09594 196.8215,115.74182 196.41766,114.5328 C 195.34559,111.32321 166.65788,110.22112 165.61105,113.3493 C 165.42398,113.90827 166.96449,114.1318 171.47863,114.20069 C 177.59986,114.29412 177.59986,114.29412 171.68612,114.73067 C 168.34918,114.977 165.04085,114.91485 164.09351,114.58804 C 161.04581,113.53666 159.93531,114.9475 162.75755,116.28531 C 166.92764,118.26204 181.67858,119.08352 189.73857,117.78788 z M 181.81028,114.28239 C 182.75651,114.13986 184.15713,114.14367 184.92277,114.29085 C 185.68841,114.43803 184.91421,114.55464 183.20234,114.54998 C 181.49047,114.54533 180.86404,114.42491 181.81028,114.28239 z M 177.28861,110.08447 C 190.92522,109.04175 205.30103,104.40504 205.30103,101.04945 C 205.30103,98.925653 197.25908,98.775033 190.36107,100.76963 C 188.47801,101.31412 182.87553,102.44733 177.91111,103.28786 C 163.65685,105.70127 159.10964,109.04442 172.88431,106.98361 C 176.32929,106.46821 179.63997,106.055 180.24138,106.06538 C 182.45314,106.10352 179.55486,107.11427 176.04361,107.5293 C 168.51129,108.41965 167.32864,108.68377 167.32864,109.47557 C 167.32864,110.41479 168.36566,110.85661 170.12988,110.66903 C 170.81463,110.59623 174.03605,110.33317 177.28861,110.08447 z M 184.75859,105.05605 C 186.64164,104.58672 188.60251,104.30618 189.11607,104.43263 C 189.62963,104.55909 189.43607,104.69492 188.68594,104.73448 C 187.9358,104.77404 187.14893,105.08543 186.93733,105.42646 C 186.72573,105.76749 185.37861,106.01567 183.94372,105.97795 C 181.33485,105.90939 181.33485,105.90939 184.75859,105.05605 z M 178.22235,102.01068 C 190.86725,99.899343 209.07607,92.874993 213.32022,88.471123 C 218.52221,83.07337 212.73035,83.002847 197.18969,88.274713 C 190.74323,90.461553 176.4126,94.265433 174.62044,94.265433 C 174.11731,94.265433 172.62099,94.733083 171.29527,95.304653 C 169.96956,95.876223 168.36888,96.436443 167.7382,96.549593 C 167.10753,96.662733 166.00869,97.161933 165.29634,97.658933 C 163.39154,98.987873 165.40929,99.604783 167.73932,98.405863 C 168.71175,97.905493 171.46825,97.292473 173.86487,97.043593 C 179.11387,96.498493 180.24575,96.304223 182.26859,95.601163 C 183.88148,95.040593 188.94914,93.584633 193.00608,92.516243 C 194.28964,92.178213 195.47482,92.119203 195.6398,92.385103 C 195.94253,92.873013 189.5734,94.885493 187.72649,94.885493 C 187.17832,94.885493 186.63646,95.148403 186.52233,95.469743 C 186.34459,95.970203 179.11515,97.631163 171.68612,98.878363 C 168.30444,99.446093 167.81692,99.935493 168.72463,101.85135 C 169.32193,103.11208 169.84428,103.41657 171.05708,103.21102 C 171.91662,103.06533 175.14099,102.52518 178.22235,102.01068 z M 129.65967,94.900963 C 130.86228,92.522263 131.84624,90.472023 131.84624,90.344893 C 131.84624,89.828713 128.10661,90.050923 127.77408,90.586863 C 127.57673,90.904913 126.66146,91.153443 125.74014,91.139153 C 123.18507,91.099513 127.72457,88.745953 130.42372,88.710903 C 132.74274,88.680783 134.52075,86.475223 132.99988,85.515263 C 132.34261,85.100401 132.39336,84.981472 133.23087,84.974063 C 133.82124,84.968841 134.73883,84.127491 135.26998,83.104396 C 136.43071,80.868579 135.53978,80.592436 132.39378,82.212923 C 130.86135,83.002261 130.65067,83.346684 131.25591,84.073095 C 131.83274,84.765402 131.82555,85.172361 131.22374,85.894653 C 130.14426,87.190243 129.19822,87.057383 129.6396,85.672163 C 130.07897,84.293276 128.52958,82.811819 127.18543,83.325595 C 126.66751,83.523561 126.24375,83.415264 126.24375,83.084935 C 126.24375,82.446739 126.31693,82.419345 128.73375,82.152781 C 130.41412,81.967442 134.6959,80.472593 135.31621,79.854721 C 135.5256,79.646145 134.8587,79.043728 133.8342,78.516015 C 131.89415,77.516712 129.94695,78.447964 130.86905,79.934102 C 131.0753,80.266508 130.97871,80.701821 130.65441,80.901464 C 130.33011,81.101107 129.88882,80.980875 129.67377,80.63428 C 129.45872,80.287686 128.66902,80.003066 127.91888,80.001791 C 126.76694,79.999833 126.89356,79.792337 128.73375,78.666478 C 131.30396,77.093972 130.30405,76.383767 127.53095,77.812171 C 126.45283,78.367505 125.62126,78.518905 125.62126,78.159859 C 125.62126,77.81007 125.30612,77.523879 124.92095,77.523879 C 124.47069,77.523879 124.35763,78.206196 124.60432,79.43481 C 125.05257,81.667248 124.14009,83.724453 122.70163,83.724453 C 121.7948,83.724453 121.78883,83.615235 122.6423,82.639353 C 123.16426,82.042548 123.47139,81.226209 123.32483,80.825267 C 122.60149,78.846423 124.41982,74.890715 125.57438,75.931477 C 126.46611,76.735318 127.04106,76.806925 128.41766,76.285596 C 129.3667,75.926187 130.63692,75.788215 131.24037,75.978991 C 132.34244,76.327404 134.33623,74.87094 134.33623,73.71746 C 134.33623,73.042032 131.99803,73.587048 130.79666,74.542508 C 130.32635,74.916548 129.59657,74.883552 128.78631,74.451613 C 128.0867,74.078662 126.73821,73.959136 125.78965,74.185999 C 124.06501,74.598477 124.06501,74.598477 125.53085,73.006792 C 127.38298,70.995652 126.7862,69.865981 124.17359,70.437558 C 122.41944,70.821323 122.30716,70.76225 123.06407,69.853802 C 124.97165,67.564327 129.09115,69.066108 128.091,71.686389 C 127.54095,73.12746 127.55187,73.130946 131.47286,72.766233 C 136.2761,72.319458 137.10883,73.104688 134.59902,75.714092 C 133.10322,77.269252 133.02107,77.523879 134.01513,77.523879 C 134.65138,77.523879 135.62704,77.934114 136.18326,78.435512 C 137.09097,79.253763 137.36871,79.079635 138.89458,76.735613 C 140.82233,73.774241 140.82418,72.57517 138.90249,71.620859 C 135.03693,69.701227 147.16529,65.417606 169.50738,60.811499 C 186.72735,57.261383 195.82449,53.025665 192.80847,49.962284 C 192.05415,49.196121 185.27313,50.574732 182.2569,52.107462 C 181.01523,52.738432 178.05882,53.730777 175.68709,54.312673 C 173.31538,54.894569 170.25438,55.870474 168.88488,56.481353 C 159.40072,60.711864 155.70252,62.120745 150.20994,63.595827 C 142.12119,65.768132 139.5,66.809689 136.73267,68.951138 C 135.4829,69.918247 133.52203,70.887235 132.37518,71.104443 C 130.09312,71.536654 131.32281,70.118525 134.82054,68.284352 C 137.05423,67.113026 135.80162,66.195797 132.55076,66.622306 C 129.66749,67.000588 129.66749,67.000588 131.46909,65.995031 C 132.65764,65.331639 134.02066,65.110703 135.47474,65.345742 C 137.0008,65.592417 139.41467,65.144757 143.32187,63.890454 C 146.42556,62.8941 151.34599,61.33447 154.25617,60.424612 C 162.99843,57.691374 173.01686,51.980244 171.57996,50.548977 C 171.40475,50.374451 168.63323,51.515302 165.42103,53.084203 C 157.04055,57.177388 152.62583,58.72674 142.42871,61.153394 C 122.63978,65.862649 119.39627,68.284597 119.39627,78.35186 C 119.39627,83.091928 119.52747,83.667259 120.7969,84.493857 C 123.14802,86.024813 124.79695,86.317123 125.74651,85.371283 C 126.48274,84.637942 126.80974,84.630018 127.76047,85.322483 C 128.94578,86.185803 128.65333,86.560163 123.80177,90.390003 C 122.93145,91.077033 123.01433,91.311643 124.53188,92.456903 C 125.47341,93.167453 126.24758,94.353343 126.25225,95.092223 C 126.26181,96.603363 126.88992,99.225893 127.24228,99.225893 C 127.36923,99.225893 128.45705,97.279673 129.65967,94.900963 z M 120.33002,80.004109 C 119.84312,79.219366 120.66719,79.219366 121.88627,80.004109 C 122.69096,80.522104 122.67453,80.606489 121.76738,80.614671 C 121.18843,80.619893 120.54162,80.34514 120.33002,80.004109 z M 120.99485,76.351982 C 120.78598,76.01535 121.11119,75.462514 121.71755,75.123456 C 122.762,74.539431 122.76288,74.485059 121.73422,74.090289 C 121.13703,73.861104 120.81181,73.410251 121.01151,73.088395 C 121.46509,72.357369 123.13126,73.650554 123.13126,74.73362 C 123.13126,75.849622 121.46589,77.111161 120.99485,76.351982 z M 171.06363,57.705938 C 171.06363,57.378051 172.25415,56.796044 173.70924,56.412588 C 175.16433,56.029131 178.29623,55.185128 180.66902,54.537023 C 184.58292,53.467976 186.16609,53.386454 185.24769,54.301255 C 184.98526,54.56265 171.93295,58.281711 171.21925,58.298447 C 171.13366,58.300454 171.06363,58.033825 171.06363,57.705938 z M 180.08985,91.796643 C 200.14248,86.276753 212.11342,81.418848 217.6698,76.546386 C 219.25514,75.156187 222.37304,72.816682 224.59847,71.347487 C 229.24249,68.281581 233.93594,63.996983 233.93594,62.823427 C 233.93594,61.838473 232.92005,61.771621 232.33289,62.717936 C 230.5138,65.649753 211.43635,72.640735 176.51048,83.174211 C 173.75345,84.00572 171.68612,84.970679 171.68612,85.426063 C 171.68612,85.864333 170.77572,86.775823 169.663,87.451593 C 167.67573,88.658513 167.66811,88.680323 169.23278,88.682593 C 170.10887,88.683873 171.36943,88.275253 172.03402,87.774543 C 172.69861,87.273843 173.68429,86.855303 174.22442,86.844463 C 174.76455,86.833613 176.96602,86.112573 179.1166,85.242142 C 183.13685,83.614972 186.55525,83.296428 183.14332,84.866911 C 182.14866,85.324747 180.5418,86.092063 179.57253,86.572073 C 178.60326,87.052073 177.3427,87.452113 176.77129,87.461063 C 173.30289,87.515343 170.97725,89.568593 172.40023,91.320153 C 174.03732,93.335253 174.41531,93.358673 180.08985,91.796643 z M 185.69233,88.064853 C 185.90393,87.723823 186.83087,87.464413 187.75219,87.488383 C 189.24794,87.527293 189.294,87.589023 188.18233,88.064853 C 186.45289,88.805103 185.23303,88.805103 185.69233,88.064853 z M 194.71856,84.973197 C 195.23212,84.637864 196.32927,84.359228 197.15668,84.354006 C 199.15466,84.341396 198.64826,84.69396 195.96355,85.184665 C 194.4307,85.464838 194.06162,85.402149 194.71856,84.973197 z M 185.72346,83.204727 C 186.35593,82.648879 193.55876,80.004109 194.4401,80.004109 C 195.77489,80.004109 193.42544,81.266157 189.91384,82.435474 C 185.69753,83.839443 184.8174,84.001013 185.72346,83.204727 z M 204.67853,80.721901 C 204.67853,80.076764 210.89874,78.134356 212.82572,78.177748 C 213.9672,78.203454 213.65553,78.479038 211.52601,79.327014 C 208.1058,80.688937 204.67853,81.3871 204.67853,80.721901 z M 181.95734,79.758313 C 210.92112,70.063156 222.23791,64.567049 229.73408,56.555086 C 234.71853,51.227668 233.64153,50.38929 226.43645,53.988074 C 220.80655,56.800083 209.1928,61.143348 190.9237,67.268996 C 174.57258,72.751542 168.29825,77.264634 180.56341,74.721087 C 182.48261,74.323086 182.51981,74.349729 181.33485,75.273623 C 180.6501,75.807509 179.61406,76.253198 179.03255,76.264044 C 178.45104,76.274889 177.22293,76.978252 176.30344,77.82707 C 175.38394,78.675889 173.00468,80.180186 171.01618,81.169953 C 167.58324,82.878689 166.95944,83.728765 169.14426,83.72091 C 169.68635,83.71896 175.45224,81.935792 181.95734,79.758313 z M 184.13609,73.493505 C 184.99202,73.006127 186.16254,72.597475 186.73724,72.58539 C 187.31194,72.573306 188.22225,72.125047 188.76014,71.58926 C 189.47837,70.873849 206.98679,64.502671 208.23456,64.502671 C 210.21792,64.502671 206.69694,66.205571 200.47667,68.25472 C 196.1114,69.692774 192.25969,71.086308 191.91732,71.351462 C 190.9427,72.106258 184.55239,74.425403 183.51359,74.401306 C 182.95611,74.388375 183.20696,74.022559 184.13609,73.493505 z M 78.228811,78.526252 C 79.397769,77.880677 79.506396,77.637449 78.754172,77.349925 C 78.22619,77.148114 77.323309,77.518583 76.717152,78.185752 C 75.465857,79.562997 76.094962,79.704703 78.228811,78.526252 z M 147.4627,73.475209 C 152.75302,71.682909 159.21915,70.119414 168.88488,68.295371 C 180.78285,66.050079 202.23409,57.601642 204.40093,54.307596 C 206.37179,51.311475 204.68833,51.152639 199.30989,53.827251 C 194.09068,56.422683 178.95014,60.789428 165.46114,63.589709 C 148.41287,67.128883 139.83035,70.009025 141.25107,71.714177 C 141.63504,72.175013 141.82647,73.384928 141.67647,74.402878 C 141.47249,75.7873 141.59121,76.098747 142.14758,75.638804 C 142.55668,75.300613 144.94848,74.326996 147.4627,73.475209 z M 142.58874,72.382446 C 143.01549,71.085071 152.70595,68.081658 161.4149,66.547559 C 165.9532,65.748129 161.53495,67.547035 155.81242,68.828631 C 152.38868,69.595398 147.95729,70.877234 145.96488,71.677156 C 143.73146,72.573845 142.43682,72.844299 142.58874,72.382446 z M 164.21615,66.444397 C 164.72971,66.16896 166.83064,65.588464 168.88488,65.154406 C 170.93913,64.720347 173.7053,63.965923 175.03194,63.477907 C 177.43998,62.592086 178.96408,62.851175 177.31544,63.866092 C 176.24707,64.523795 165.97519,66.990105 164.41284,66.964046 C 163.48068,66.948498 163.44618,66.85735 164.21615,66.444397 z M 181.95734,61.874876 C 182.64209,61.473423 184.88309,60.550722 186.93733,59.824429 C 188.99157,59.098136 191.16254,58.289125 191.76169,58.026628 C 192.40618,57.744269 192.85106,57.81148 192.85106,58.191207 C 192.85106,58.914945 186.59285,61.402384 184.77197,61.402384 C 184.12028,61.402384 183.41394,61.68141 183.20234,62.022441 C 182.99074,62.363473 182.34393,62.634014 181.76498,62.623644 C 180.88028,62.607797 180.91097,62.488343 181.95734,61.874876 z M 196.58605,56.814558 C 196.58605,56.550529 201.40498,53.961694 201.89645,53.961694 C 203.08834,53.961694 201.73722,55.24703 199.68594,56.064569 C 197.06961,57.107316 196.58605,57.224308 196.58605,56.814558 z M 93.80713,71.531569 C 94.56897,69.866075 93.77083,66.362844 92.62955,66.362844 C 91.17407,66.362844 89.90236,70.344614 90.81522,72.043608 C 91.68693,73.666041 92.92792,73.453657 93.80713,71.531569 z M 91.77212,71.447426 C 91.57472,71.129283 92.03206,70.343398 92.78843,69.701014 C 94.13757,68.555184 94.14614,68.555419 93.24062,69.713445 C 92.73296,70.362665 92.41097,71.013726 92.5251,71.160246 C 92.63922,71.306766 92.59724,71.561471 92.43181,71.726257 C 92.26637,71.891043 91.96951,71.765568 91.77212,71.447426 z M 91.38385,69.229025 C 91.38385,69.100267 91.87407,68.611971 92.47322,68.143925 C 93.46054,67.372653 93.48256,67.394585 92.70825,68.378031 C 91.89504,69.41089 91.38385,69.739354 91.38385,69.229025 z M 184.28576,67.644645 C 192.75624,64.838895 199.86099,62.262267 200.0741,61.918806 C 201.17061,60.151561 198.81532,60.398018 192.94772,62.664506 C 189.42474,64.025337 182.70944,66.29231 178.02484,67.702224 C 173.34024,69.112137 169.01716,70.686422 168.41801,71.200633 C 167.16031,72.280028 166.96124,73.450754 168.10676,73.031082 C 168.53473,72.874292 175.81527,70.450395 184.28576,67.644645 z M 83.769409,71.323304 C 83.147724,70.33173 83.147724,69.834647 83.769409,68.843074 C 84.200104,68.156126 84.276667,67.602959 83.941051,67.602959 C 83.126062,67.602959 82.04638,69.699775 82.04638,71.28254 C 82.04638,72.151848 82.448115,72.563419 83.296651,72.563419 C 84.391094,72.563419 84.450017,72.408857 83.769409,71.323304 z"
         style="fill:#000000" />
    </g>
  </g>
</svg>
