<?xml version="1.0" encoding="UTF-8" standalone="no"?>
<!-- Created with Inkscape (http://www.inkscape.org/) -->
<svg
   xmlns:dc="http://purl.org/dc/elements/1.1/"
   xmlns:cc="http://creativecommons.org/ns#"
   xmlns:rdf="http://www.w3.org/1999/02/22-rdf-syntax-ns#"
   xmlns:svg="http://www.w3.org/2000/svg"
   xmlns="http://www.w3.org/2000/svg"
   xmlns:sodipodi="http://sodipodi.sourceforge.net/DTD/sodipodi-0.dtd"
   xmlns:inkscape="http://www.inkscape.org/namespaces/inkscape"
   width="200.00002"
   height="132"
   id="svg2"
   sodipodi:version="0.32"
   inkscape:version="0.46"
   version="1.0"
   sodipodi:docname="serpent_nowed.svg"
   inkscape:output_extension="org.inkscape.output.svg.inkscape">
  <defs
     id="defs4">
    <inkscape:perspective
       sodipodi:type="inkscape:persp3d"
       inkscape:vp_x="0 : 526.18109 : 1"
       inkscape:vp_y="0 : 1000 : 0"
       inkscape:vp_z="744.09448 : 526.18109 : 1"
       inkscape:persp3d-origin="372.04724 : 350.78739 : 1"
       id="perspective10" />
    <inkscape:perspective
       id="perspective8826"
       inkscape:persp3d-origin="372.04724 : 350.78739 : 1"
       inkscape:vp_z="744.09448 : 526.18109 : 1"
       inkscape:vp_y="0 : 1000 : 0"
       inkscape:vp_x="0 : 526.18109 : 1"
       sodipodi:type="inkscape:persp3d" />
    <inkscape:perspective
       sodipodi:type="inkscape:persp3d"
       inkscape:vp_x="0 : 526.18109 : 1"
       inkscape:vp_y="0 : 1000 : 0"
       inkscape:vp_z="744.09448 : 526.18109 : 1"
       inkscape:persp3d-origin="372.04724 : 350.78739 : 1"
       id="perspective2459" />
    <inkscape:perspective
       sodipodi:type="inkscape:persp3d"
       inkscape:vp_x="0 : 526.18109 : 1"
       inkscape:vp_y="0 : 1000 : 0"
       inkscape:vp_z="744.09448 : 526.18109 : 1"
       inkscape:persp3d-origin="372.04724 : 350.78739 : 1"
       id="perspective2410" />
    <inkscape:perspective
       id="perspective2425"
       inkscape:persp3d-origin="372.04724 : 350.78739 : 1"
       inkscape:vp_z="744.09448 : 526.18109 : 1"
       inkscape:vp_y="0 : 1000 : 0"
       inkscape:vp_x="0 : 526.18109 : 1"
       sodipodi:type="inkscape:persp3d" />
  </defs>
  <sodipodi:namedview
     id="base"
     pagecolor="#ffffff"
     bordercolor="#666666"
     borderopacity="1.0"
     gridtolerance="10000"
     guidetolerance="10"
     objecttolerance="10"
     inkscape:pageopacity="0.0"
     inkscape:pageshadow="2"
     inkscape:zoom="3.2812498"
     inkscape:cx="100"
     inkscape:cy="112.00001"
     inkscape:document-units="px"
     inkscape:current-layer="layer1"
     showgrid="false"
     inkscape:window-width="1679"
     inkscape:window-height="963"
     inkscape:window-x="1"
     inkscape:window-y="57" />
  <metadata
     id="metadata7">
    <rdf:RDF>
      <cc:Work
         rdf:about="">
        <dc:format>image/svg+xml</dc:format>
        <dc:type
           rdf:resource="http://purl.org/dc/dcmitype/StillImage" />
      </cc:Work>
    </rdf:RDF>
  </metadata>
  <g
     inkscape:label="Layer 1"
     inkscape:groupmode="layer"
     id="layer1"
     transform="translate(-192.26667,-357.94314)">
    <g
       id="g2429"
       inkscape:label="Layer 1"
       transform="translate(142.26668,270.94314)">
      <path
         id="path2465"
         d="M 168.92077,218.24914 C 168.57152,217.74862 166.86064,217.35333 164.06654,217.12761 C 161.69335,216.93588 159.49891,216.62293 159.18999,216.43216 C 158.63886,216.09181 156.87289,215.77652 149.53426,214.70831 C 143.19754,213.78593 130.22405,208.62235 126.86761,205.68675 C 125.72623,204.68849 125.79817,204.67451 121.32864,206.7631 C 119.18078,207.7668 116.6334,208.76059 115.66781,208.97153 C 114.70221,209.18248 113.77194,209.58181 113.60053,209.85894 C 112.71491,211.2908 110.11761,212.02136 108.64803,211.25196 C 107.40277,210.60001 106.93833,210.60081 105.36513,211.25763 C 103.92998,211.85682 102.88224,211.90253 100.53257,211.46851 C 98.73884,211.13718 97.168843,211.10878 96.628209,211.3979 C 96.058182,211.70273 95.12568,211.63061 94.105255,211.20276 C 93.214962,210.82947 90.778907,210.1934 88.691797,209.78926 C 86.604688,209.38512 83.921261,208.52709 82.728627,207.88252 C 81.535993,207.23795 79.584411,206.39669 78.391777,206.01306 C 77.199143,205.62943 75.491508,204.77606 74.597032,204.11668 C 73.702557,203.4573 71.750974,202.2172 70.260181,201.36089 C 66.269767,199.06882 59.681464,190.50473 58.461293,186.02359 C 58.170706,184.9564 57.794965,183.7176 57.626313,183.2707 C 51.240058,166.34843 63.54452,143.49595 83.183899,135.80384 C 85.020609,135.08446 86.946971,134.25728 87.464702,133.96565 C 87.982434,133.67403 88.989342,133.43543 89.702276,133.43543 C 91.725456,133.43543 91.984776,132.82777 94.316649,122.62274 C 95.257203,118.50658 92.244035,117.68656 84.354946,119.91173 C 78.050846,121.68985 72.219381,121.90796 70.366202,120.43495 C 68.740973,119.14312 68.558596,117.31112 69.989128,116.64719 C 70.436366,116.43963 71.356789,115.98258 72.034513,115.63154 C 72.944047,115.16042 73.559557,115.14987 74.384894,115.59123 C 75.932636,116.41892 76.167721,115.96108 75.35216,113.70743 C 74.738948,112.01293 74.764751,111.68998 75.560974,111.09386 C 76.400322,110.46545 76.357596,110.13098 74.999504,106.69866 C 73.239429,102.25039 71.369198,103.71649 72.962625,108.2954 C 73.737249,110.52137 73.422313,111.46932 72.079247,110.95433 C 71.208945,110.62062 69.989128,107.73777 69.989128,106.01465 C 69.989128,103.30958 67.336416,102.96093 62.60262,105.04382 C 58.260597,106.95434 55.894363,108.82858 55.894363,110.35731 C 55.894363,111.78218 54.077129,113.67379 53.217991,113.14323 C 51.109515,111.84112 53.867621,107.62382 58.274009,105.41228 C 60.382603,104.35399 60.382603,104.35399 56.64769,103.4207 C 51.202532,102.06004 48.022855,98.724955 51.370365,97.885435 C 53.034402,97.468105 54.60368,98.276425 54.396414,99.444105 C 54.119948,101.00164 55.910723,101.64743 61.47568,101.99704 C 69.788998,102.51931 70.540331,102.11194 66.21685,99.426395 C 62.453357,97.088685 60.325648,91.916655 62.24428,89.769875 C 65.507264,86.118875 93.766279,86.061075 100.22186,89.692185 C 103.53164,91.553855 109.56289,97.496485 109.56289,98.895965 C 109.56289,99.421115 109.76822,99.850785 110.01917,99.850785 C 111.65739,99.850785 113.5157,112.74156 112.8694,119.62239 C 112.01696,128.69805 112.16781,130.8551 113.5734,129.68946 C 115.23345,128.3128 129.23952,129.41681 135.91113,131.45018 C 141.41974,133.12911 152.13295,137.72061 153.49055,138.98443 C 154.88825,140.28558 156.11881,140.17765 156.67924,138.70473 C 157.31717,137.02815 165.58292,128.65696 168.92354,126.30424 C 172.63891,123.68759 180.10092,119.89323 181.53148,119.89323 C 181.78999,119.89323 183.02014,119.40145 184.26516,118.80039 C 185.51017,118.19934 187.69053,117.55626 189.11041,117.37134 C 190.53029,117.18642 191.98626,116.80405 192.3459,116.52164 C 192.70553,116.23922 193.22294,116.14596 193.49568,116.31439 C 193.76843,116.48283 196.27958,116.73569 199.07602,116.8763 C 202.68812,117.05792 204.82004,117.45332 206.43822,118.24174 C 207.69099,118.85213 209.00839,119.35154 209.36577,119.35154 C 210.19135,119.35154 215.82195,122.02384 216.90116,122.92786 C 217.34907,123.30305 218.43333,123.98214 219.31064,124.43694 C 221.52329,125.58399 228.71417,132.76052 229.95545,135.06049 C 231.84119,138.55459 233.98621,140.63194 234.75394,139.7076 C 240.79337,132.43616 241.19585,116.30227 235.4388,112.25432 C 232.17873,109.96207 226.65787,109.64676 226.65787,111.75282 C 226.65787,114.46199 223.26397,116.42457 221.54658,114.7085 C 218.74921,111.9133 222.06435,106.29637 227.72969,104.23228 C 231.02588,103.03136 236.38383,103.3596 237.28568,104.8177 C 237.43875,105.06518 237.98483,105.26766 238.4992,105.26766 C 240.90782,105.26766 248.34212,115.70496 248.34212,119.08652 C 248.34212,119.49505 248.58607,119.97994 248.88423,120.16408 C 251.7919,121.95972 248.62477,139.36138 243.89567,147.57351 C 242.76332,149.53986 241.83685,151.35234 241.83685,151.60126 C 241.83685,151.85017 241.31133,152.61278 240.66904,153.29595 C 239.50122,154.53807 239.50122,154.53807 240.50259,158.20605 C 241.57467,162.13305 241.71126,170.10543 240.73761,171.92331 C 240.44772,172.46457 240.21053,173.38322 240.21053,173.96477 C 240.21053,178.39547 234.68259,189.82934 229.98708,195.11071 C 224.20863,201.61016 219.49431,206.02159 218.32707,206.02159 C 217.91333,206.02159 217.27533,206.38217 216.90929,206.82288 C 216.18895,207.69017 214.87855,208.42443 209.03941,211.23265 C 206.9523,212.2364 204.35864,213.53723 203.27572,214.12337 C 202.1928,214.70951 199.75332,215.4371 197.85466,215.74023 C 195.956,216.04337 193.10259,216.67719 191.51376,217.14872 C 189.91875,217.62209 187.93886,217.85547 187.09299,217.66983 C 186.19932,217.4737 185.40651,217.58338 185.19022,217.93308 C 184.94549,218.32876 182.42933,218.50371 177.78862,218.44773 C 173.92167,218.40108 170.60937,218.51123 170.42796,218.6925 C 169.91315,219.20691 169.50535,219.08694 168.92077,218.24914 z M 188.99204,195.15013 C 193.65674,194.23717 198.28743,192.85365 202.53414,191.10414 C 203.13045,190.85848 204.47217,189.87457 205.51572,188.91768 C 214.10293,181.04361 214.29301,180.82605 216.59248,176.23889 C 222.68962,164.07581 222.21611,161.41837 214.51569,164.58344 C 206.32504,167.94999 183.60727,166.48239 169.03809,161.64553 C 166.45312,160.78733 166.19041,160.99004 162.44371,166.73388 C 160.87686,169.13592 157.91265,173.10284 155.85657,175.54926 C 144.68265,188.84452 144.33121,189.60094 148.85124,190.6275 C 149.73781,190.82885 151.37961,191.57166 152.49968,192.27818 C 153.61975,192.9847 154.95169,193.56277 155.45954,193.56277 C 155.96739,193.56277 157.7978,194.06473 159.52712,194.67823 C 165.64608,196.84904 179.20239,197.06615 188.99204,195.15013 z M 105.17566,191.10705 C 108.51492,190.76836 108.44468,190.3902 103.82079,183.81239 C 102.87835,182.47171 101.67719,180.52164 101.15154,179.47889 C 100.62588,178.43614 100.04688,177.4611 99.864863,177.31214 C 99.376763,176.91267 97.767326,173.45645 97.342421,171.89526 C 97.139705,171.15044 96.647704,169.80976 96.249086,168.91598 C 95.492749,167.22012 92.918037,157.95439 92.216669,154.40436 C 91.640304,151.48703 91.410987,151.42187 88.046216,153.21927 C 74.088007,160.67554 70.83922,178.70437 82.186521,185.73708 C 86.173199,188.20791 92.630776,190.83233 94.7585,190.84645 C 95.411761,190.85079 96.114072,191.12567 96.319192,191.45731 C 96.565691,191.85584 97.725287,191.93976 99.73935,191.70482 C 101.41532,191.50932 103.86166,191.24032 105.17566,191.10705 z M 129.41088,174.46828 C 130.30685,173.50001 131.74127,171.73275 132.59847,170.54104 C 133.45566,169.34933 135.52207,166.78985 137.19048,164.85332 C 144.20539,156.71108 146.42384,153.60863 145.67514,152.98775 C 144.4904,152.00526 135.96883,148.9379 132.06031,148.08704 C 130.86767,147.82742 128.18425,147.22768 126.09714,146.75428 C 112.29798,143.62442 110.87134,147.98048 119.83709,165.86851 C 120.07988,166.35291 120.59954,167.4805 120.9919,168.37429 C 121.38426,169.26807 122.31034,170.83269 123.04985,171.8512 C 123.78937,172.86973 124.45228,174.21041 124.52297,174.83049 C 124.59368,175.45057 124.67185,176.01886 124.6967,176.09334 C 124.99151,176.97709 128.07198,175.9152 129.41088,174.46828 z M 214.93333,151.35464 C 218.17423,150.58117 218.26265,150.13538 215.79412,147.01487 C 212.27534,142.56671 209.52995,140.26324 204.08394,137.18965 C 202.01901,136.02426 193.91792,135.17445 193.36685,136.06542 C 193.1659,136.3903 192.09699,136.90387 190.99149,137.20669 C 187.7102,138.1055 179.45144,145.09519 178.63549,147.66403 C 178.1724,149.12197 178.74154,149.3723 184.23446,150.12663 C 186.84532,150.48517 191.29898,151.12568 194.13149,151.54999 C 199.59531,152.36846 211.1396,152.26005 214.93333,151.35464 z M 86.241703,112.90385 C 90.938934,111.25094 91.188736,109.49135 86.940606,107.98079 C 85.518493,107.47512 83.191262,106.64646 81.768979,106.13932 C 77.937588,104.77319 77.262402,105.5794 79.204936,109.20095 C 79.801253,110.31269 80.289149,111.57671 80.289149,112.00988 C 80.289149,113.94739 82.382681,114.26181 86.241703,112.90385 z"
         style="fill:#fdff00;fill-opacity:1" />
      <path
         id="path2416"
         d="M 168.92077,218.24914 C 168.57152,217.74862 166.86064,217.35333 164.06654,217.12761 C 161.69335,216.93588 159.4989,216.62293 159.18999,216.43216 C 158.63886,216.09181 156.87289,215.77652 149.53426,214.70831 C 143.19754,213.78593 130.22405,208.62235 126.86761,205.68675 C 125.72623,204.68849 125.79817,204.67451 121.32864,206.7631 C 119.18077,207.7668 116.6334,208.76059 115.6678,208.97153 C 114.7022,209.18248 113.77193,209.58181 113.60053,209.85894 C 112.71491,211.2908 110.11761,212.02136 108.64803,211.25196 C 107.40277,210.60001 106.93833,210.60082 105.36513,211.25763 C 103.92998,211.85682 102.88224,211.90253 100.53257,211.46851 C 98.738839,211.13718 97.168839,211.10878 96.628209,211.3979 C 96.058179,211.70273 95.125679,211.63061 94.105249,211.20276 C 93.214959,210.82947 90.778899,210.1934 88.691799,209.78926 C 86.604689,209.38512 83.921259,208.52709 82.728629,207.88252 C 81.535989,207.23795 79.584409,206.39669 78.391769,206.01306 C 77.199139,205.62943 75.491509,204.77606 74.597029,204.11668 C 73.702549,203.4573 71.750969,202.2172 70.260179,201.36089 C 66.269769,199.06882 59.681459,190.50473 58.461289,186.02359 C 58.170699,184.9564 57.794959,183.7176 57.626309,183.2707 C 51.240059,166.34843 63.544519,143.49595 83.183899,135.80384 C 85.020609,135.08446 86.946969,134.25728 87.464699,133.96565 C 87.982429,133.67403 88.989339,133.43543 89.702279,133.43543 C 91.725459,133.43543 91.984779,132.82777 94.316649,122.62275 C 95.257199,118.50658 92.244029,117.68656 84.354939,119.91174 C 78.050839,121.68985 72.219379,121.90796 70.366199,120.43495 C 68.740969,119.14312 68.558589,117.31112 69.989129,116.6472 C 70.436359,116.43963 71.356779,115.98258 72.034509,115.63154 C 72.944039,115.16042 73.559549,115.14987 74.384889,115.59123 C 75.937569,116.42157 76.167479,115.96042 75.340339,113.67479 C 74.501309,111.35628 75.611959,109.88735 76.900979,111.61071 C 77.969049,113.03866 77.695639,112.11862 76.283839,109.53397 C 75.571719,108.23025 74.676879,106.18853 74.295299,104.99682 C 73.601519,102.83007 73.601519,102.83007 72.913499,104.50358 C 72.351029,105.8717 72.359989,106.56367 72.962619,108.2954 C 73.737239,110.52137 73.422309,111.46932 72.079239,110.95433 C 71.208939,110.62063 69.989129,107.73777 69.989129,106.01465 C 69.989129,103.30958 67.336409,102.96093 62.602619,105.04383 C 58.260589,106.95434 55.894359,108.82859 55.894359,110.35731 C 55.894359,111.78218 54.077129,113.6738 53.217989,113.14323 C 51.109509,111.84112 53.867619,107.62382 58.274009,105.41228 C 60.382599,104.35399 60.382599,104.35399 56.647689,103.4207 C 51.202529,102.06005 48.022849,98.724962 51.370359,97.885432 C 53.034399,97.468102 54.603679,98.276422 54.396409,99.444112 C 54.119939,101.00164 55.910719,101.64743 61.475679,101.99704 C 69.788999,102.51931 70.540329,102.11195 66.216849,99.426392 C 62.453349,97.088692 60.325649,91.916652 62.244279,89.769872 C 65.507259,86.118872 93.766279,86.061072 100.22186,89.692182 C 103.53164,91.553862 109.56289,97.496482 109.56289,98.895962 C 109.56289,99.421112 109.76821,99.850782 110.01916,99.850782 C 111.65738,99.850782 113.5157,112.74156 112.8694,119.62239 C 112.01696,128.69805 112.1678,130.8551 113.5734,129.68946 C 115.23345,128.31281 129.23952,129.41681 135.91112,131.45019 C 141.41974,133.12911 152.13295,137.72061 153.49055,138.98443 C 154.88825,140.28558 156.11881,140.17765 156.67924,138.70473 C 157.31716,137.02816 165.58292,128.65696 168.92354,126.30424 C 172.6389,123.68759 180.10091,119.89323 181.53147,119.89323 C 181.78999,119.89323 183.02014,119.40146 184.26515,118.8004 C 185.51016,118.19934 187.69053,117.55626 189.11041,117.37135 C 190.53029,117.18642 191.98625,116.80406 192.34589,116.52164 C 192.70553,116.23922 193.22293,116.14596 193.49568,116.3144 C 193.76842,116.48284 196.27957,116.73569 199.07601,116.8763 C 202.68812,117.05792 204.82004,117.45332 206.43821,118.24175 C 207.69099,118.85214 209.00838,119.35154 209.36577,119.35154 C 210.19135,119.35154 215.82194,122.02384 216.90116,122.92786 C 217.34906,123.30305 218.43333,123.98214 219.31064,124.43695 C 221.52328,125.58399 228.71417,132.76052 229.95545,135.06049 C 231.84119,138.55459 233.98621,140.63194 234.75394,139.7076 C 240.79336,132.43616 241.19585,116.30227 235.4388,112.25432 C 232.17873,109.96207 226.65786,109.64676 226.65786,111.75282 C 226.65786,114.46199 223.26396,116.42457 221.54658,114.70851 C 218.74921,111.9133 222.06435,106.29638 227.72969,104.23229 C 231.02588,103.03136 236.38382,103.3596 237.28568,104.8177 C 237.43874,105.06518 237.98482,105.26766 238.49919,105.26766 C 240.90781,105.26766 248.34212,115.70497 248.34212,119.08652 C 248.34212,119.49505 248.58607,119.97995 248.88423,120.16408 C 251.79189,121.95973 248.62477,139.36138 243.89567,147.57351 C 242.76331,149.53986 241.83684,151.35234 241.83684,151.60126 C 241.83684,151.85017 241.31133,152.61278 240.66903,153.29595 C 239.50122,154.53807 239.50122,154.53807 240.50258,158.20605 C 241.57467,162.13306 241.71126,170.10543 240.73761,171.92331 C 240.44771,172.46457 240.21052,173.38322 240.21052,173.96477 C 240.21052,178.39547 234.68258,189.82934 229.98708,195.11071 C 224.20863,201.61016 219.49431,206.02159 218.32707,206.02159 C 217.91333,206.02159 217.27533,206.38217 216.90929,206.82288 C 216.18895,207.69017 214.87855,208.42443 209.03941,211.23265 C 206.9523,212.2364 204.35864,213.53723 203.27572,214.12337 C 202.19279,214.70951 199.75332,215.4371 197.85465,215.74024 C 195.95599,216.04337 193.10258,216.67719 191.51375,217.14872 C 189.91874,217.62209 187.93886,217.85547 187.09299,217.66983 C 186.19932,217.4737 185.40651,217.58338 185.19022,217.93308 C 184.94549,218.32876 182.42933,218.50372 177.78862,218.44773 C 173.92167,218.40108 170.60937,218.51123 170.42795,218.6925 C 169.91315,219.20691 169.50535,219.08695 168.92077,218.24914 z M 171.2689,214.78264 C 171.81346,214.2385 172.42164,213.3698 172.62043,212.85218 C 172.93826,212.02454 173.13675,212.09099 174.26639,213.40326 C 175.55092,214.89547 175.55092,214.89547 176.18658,213.70866 C 176.97803,212.23094 177.65573,212.19281 178.02537,213.60522 C 178.34054,214.8095 180.29835,215.09569 180.8047,214.01149 C 181.05768,213.4698 181.18418,213.4698 181.43716,214.01149 C 181.91611,215.03701 183.17941,214.82265 183.83146,213.60522 C 184.49735,212.36195 186.54199,212.13353 186.54199,213.30241 C 186.54199,214.39269 187.60071,214.93075 188.32397,214.20805 C 188.76696,213.7654 188.68238,213.60522 188.00568,213.60522 C 187.49881,213.60522 187.0841,213.36146 187.0841,213.06353 C 187.0841,212.76561 187.36214,212.52185 187.70197,212.52185 C 188.0418,212.52185 188.63355,212.09527 189.01699,211.57389 C 189.68093,210.67108 189.79102,210.67108 191.32881,211.57389 C 193.30789,212.73577 194.13148,212.77557 194.13148,211.70931 C 194.13148,211.26242 193.76556,210.89678 193.31832,210.89678 C 192.80649,210.89678 192.50516,210.381 192.50516,209.50489 C 192.50516,208.37128 192.7315,208.14512 193.7249,208.28609 C 194.5255,208.3997 194.94464,208.83147 194.94464,209.54256 C 194.94464,210.94253 197.94646,211.36528 198.98747,210.11192 C 199.37128,209.64981 199.52488,209.27172 199.3288,209.27172 C 199.13272,209.27172 199.23341,208.7842 199.55255,208.18834 C 199.87168,207.59249 200.49014,207.10497 200.92688,207.10497 C 201.36363,207.10497 201.72097,207.59249 201.72097,208.18834 C 201.72097,209.76301 202.51232,209.52825 204.75363,207.28866 C 206.39519,205.64838 206.90394,205.40901 207.69695,205.90388 C 208.72863,206.54767 210.39467,205.30328 210.39467,203.88889 C 210.39467,203.41168 210.83679,203.30659 211.81369,203.55158 C 213.48165,203.96989 215.27363,202.64799 215.27363,200.99927 C 215.27363,200.16925 215.53623,200.00529 216.47338,200.25017 C 217.91333,200.62644 219.61048,199.2734 219.61048,197.74914 C 219.61048,196.95093 219.88201,196.7575 220.70179,196.97171 C 221.91848,197.28963 222.86312,196.02442 222.86312,194.07692 C 222.86312,193.09844 223.10396,192.94079 224.26112,193.16183 C 225.95481,193.48534 226.51618,192.4342 225.65654,190.54895 C 225.02401,189.16175 225.05331,189.13693 227.46872,189.01365 C 228.19709,188.97647 228.76282,188.33889 229.19997,187.06252 C 229.5571,186.01977 229.86307,185.37928 229.87991,185.6392 C 229.94001,186.56753 231.53682,184.74307 231.53682,183.74607 C 231.53682,183.11112 231.92042,182.72902 232.55784,182.72902 C 233.1664,182.72902 233.70001,182.23667 233.87876,181.51022 C 234.57438,178.68329 236.34518,174.4404 236.99753,174.03753 C 237.51774,173.71627 237.54535,173.4151 237.10338,172.88296 C 236.6614,172.35083 236.70345,171.89243 237.26458,171.12564 C 237.82665,170.35754 237.86815,169.90092 237.42443,169.36668 C 236.99917,168.85468 236.99288,168.44316 237.40275,167.94967 C 238.09012,167.12209 237.91736,158.91066 237.18872,157.7763 C 236.91406,157.3487 236.66444,155.65817 236.63403,154.01956 C 236.58427,151.33841 235.25887,147.15863 233.71398,144.81087 C 233.41992,144.36398 232.84754,143.26706 232.44204,142.37328 C 232.03654,141.47949 231.30106,140.41367 230.80763,140.00478 C 230.31422,139.59589 229.9105,138.95637 229.9105,138.58364 C 229.9105,137.20017 218.78533,126.6983 215.44215,124.9259 C 203.81587,118.76219 181.12093,117.70599 181.12093,123.32863 C 181.12093,124.65694 179.73451,125.43911 178.98326,124.53461 C 178.09482,123.46493 175.81669,124.49068 175.59231,126.06144 C 175.46619,126.94439 175.03875,127.21035 173.72231,127.22496 C 172.51485,127.23835 171.53969,127.75318 170.3877,128.98544 C 169.49224,129.94329 168.37894,130.72699 167.91369,130.72699 C 166.63844,130.72699 158.89457,138.76938 158.89457,140.09378 C 158.89457,141.80878 164.11686,144.3337 164.67234,142.88726 C 164.86542,142.38448 165.63075,142.2166 167.07513,142.36018 C 169.40384,142.59167 169.6836,142.32195 168.2459,141.23143 C 167.36742,140.56507 167.38747,140.51055 168.51696,140.49459 C 169.36954,140.48255 169.7367,140.15126 169.7367,139.39399 C 169.7367,138.7843 170.0981,138.31062 170.56327,138.31062 C 171.01789,138.31062 171.62173,137.70122 171.90512,136.9564 C 172.18852,136.21158 172.64393,135.60218 172.91715,135.60218 C 173.19036,135.60218 173.5625,135.01057 173.74413,134.28749 C 174.28699,132.12624 183.28936,127.72192 183.28936,129.61757 C 183.28936,129.94852 182.86245,130.35709 182.34067,130.5255 C 179.18598,131.54372 173.53144,135.91932 173.53144,137.34226 C 173.53144,137.97149 176.51432,136.26559 178.46844,134.5188 C 179.85951,133.27533 183.05546,131.87792 188.3301,130.20687 C 189.86514,129.72055 190.57726,129.71042 191.12789,130.16706 C 191.66449,130.61204 191.96771,130.61601 192.23641,130.18158 C 192.47316,129.79881 193.51491,129.70867 195.13073,129.93115 C 198.35346,130.37487 199.02248,130.37316 200.44897,129.9175 C 201.34371,129.63169 201.70059,129.80948 201.97663,130.67854 C 202.24972,131.53829 202.63787,131.73701 203.58174,131.5003 C 204.44532,131.28372 204.93288,131.46468 205.17343,132.09104 C 205.41218,132.71274 205.18178,133.08243 204.43374,133.27789 C 203.10001,133.6264 203.03277,134.28229 204.28168,134.76118 C 204.8629,134.98404 205.47118,134.77083 205.89105,134.19706 C 206.7308,133.04952 208.41887,134.14239 207.97331,135.54514 C 207.79511,136.10618 208.48821,137.09587 209.91139,138.31252 C 214.29204,142.0575 217.26904,145.31078 218.56375,147.76787 C 219.85433,150.2171 219.92456,150.26157 221.96501,149.92125 C 223.79897,149.61537 224.02388,149.694 223.84311,150.57786 C 223.6952,151.30102 223.23741,151.54012 222.20695,151.43242 C 220.32447,151.23567 219.92833,151.99775 221.13748,153.48983 C 222.00735,154.56323 222.24741,154.61636 223.28947,153.96609 C 225.11687,152.82574 226.04633,154.12718 224.24622,155.30575 C 222.75505,156.28205 222.35135,158.70839 223.49067,159.84684 C 223.92417,160.28 223.94664,160.69038 223.56334,161.17397 C 223.25816,161.55901 222.86824,163.70223 222.69685,165.9367 C 222.25056,171.75518 216.88091,182.38497 215.22421,180.72956 C 214.78659,180.29227 215.20274,178.9835 216.767,175.87758 C 222.68102,164.13503 222.1453,161.44748 214.51569,164.58344 C 206.32504,167.94999 183.60726,166.48239 169.03808,161.64553 C 166.45312,160.78733 166.19041,160.99004 162.44371,166.73388 C 160.87686,169.13592 157.91265,173.10285 155.85657,175.54926 C 144.68265,188.84452 144.33121,189.60094 148.85124,190.6275 C 149.73781,190.82885 151.37961,191.57166 152.49968,192.27818 C 153.61975,192.98471 154.95169,193.56277 155.45954,193.56277 C 155.96739,193.56277 157.7726,194.05579 159.47112,194.65837 C 162.85341,195.85829 173.91441,196.81458 180.03672,196.43639 C 188.25391,195.9288 203.42983,191.82868 204.70151,189.77266 C 204.92363,189.41354 205.70868,189.30452 206.62479,189.50557 C 209.53085,190.14336 212.63118,188.20042 215.20474,184.12862 C 217.60179,180.33609 218.8501,179.35367 219.66451,180.61875 C 220.43669,181.81822 219.97619,182.98479 218.65626,183.17296 C 217.98845,183.26816 217.44206,183.71215 217.44206,184.1596 C 217.44206,184.60705 217.07613,185.33879 216.6289,185.78569 C 215.64522,186.76861 215.54586,187.8373 216.49337,187.24343 C 216.86607,187.00983 217.59791,186.88889 218.11969,186.97467 C 218.6851,187.06761 219.06838,186.78859 219.06838,186.28404 C 219.06838,185.67764 219.60668,185.43746 220.96575,185.43746 C 222.0093,185.43746 222.86312,185.60108 222.86312,185.80107 C 222.86312,186.48131 221.0717,188.1459 220.33962,188.1459 C 219.9386,188.1459 219.61048,188.40336 219.61048,188.71804 C 219.61048,189.03272 218.52282,189.77094 217.19346,190.35853 C 215.86409,190.94612 214.643,191.6426 214.47992,191.90626 C 212.68943,194.8011 198.93459,197.87884 183.44542,198.85045 C 175.91615,199.32274 175.1314,199.53843 176.21139,200.83874 C 177.05044,201.84895 176.51169,202.77147 175.08269,202.77147 C 174.1557,202.77147 174.04055,202.52968 174.33327,201.19797 C 174.74383,199.33014 174.58165,199.20167 171.1689,198.69127 C 168.53531,198.2974 168.53531,198.2974 169.41927,199.64545 C 170.20547,200.84441 170.21271,201.06855 169.48476,201.67223 C 168.14514,202.78316 166.99745,201.96698 167.35902,200.16051 C 167.71854,198.36433 167.33881,198.17001 161.87615,197.35459 C 160.0872,197.08755 158.09464,196.71134 157.44824,196.51858 C 156.50194,196.23638 156.2379,196.41559 156.09297,197.43845 C 155.97507,198.27061 155.49438,198.76824 154.69942,198.8811 C 153.62747,199.03328 153.52222,198.8717 153.79746,197.49654 C 154.15644,195.70302 153.57682,195.08215 150.67081,194.14735 C 149.57657,193.79535 148.38795,193.15418 148.02943,192.72253 C 147.67091,192.29088 146.84637,191.93771 146.19712,191.93771 C 145.54786,191.93771 144.72552,191.64681 144.36969,191.29125 C 143.86849,190.79044 143.38607,190.94882 142.22837,191.99422 C 141.40647,192.7364 140.12414,193.65033 139.37874,194.02517 C 133.57712,196.94268 132.57587,202.17503 138.1018,200.69821 C 141.04564,199.91146 141.44422,200.12684 140.45665,201.97069 C 139.57661,203.61381 140.48854,205.12932 141.65559,203.96318 C 142.77506,202.84457 144.9298,203.13391 144.54323,204.35094 C 144.14187,205.61453 145.07441,206.2724 147.05333,206.12173 C 148.03539,206.04695 148.79878,206.40066 149.34878,207.18527 C 150.07277,208.21813 150.28516,208.26817 151.09816,207.59749 C 151.72436,207.08091 152.08895,207.02819 152.22595,207.43442 C 152.91423,209.47531 153.9894,210.11819 154.85018,209.00351 C 155.67081,207.94081 156.69096,208.49166 156.71784,210.01201 C 156.72241,210.2702 157.17231,210.36487 157.71763,210.22237 C 158.26296,210.07987 159.12811,210.26942 159.6402,210.64358 C 160.15229,211.01775 161.04784,211.19935 161.6303,211.04716 C 162.21275,210.89495 162.68931,211.02619 162.68931,211.33879 C 162.68931,212.22255 164.93017,212.73952 165.40853,211.96612 C 165.7296,211.44701 166.10601,211.49186 167.06575,212.16357 C 167.95948,212.78908 168.50118,212.8721 168.99837,212.45978 C 169.91532,211.69937 170.82091,212.3158 170.82091,213.70037 C 170.82091,214.54826 170.56149,214.74716 169.7367,214.53164 C 168.67108,214.25319 168.30318,214.70069 169.01389,215.41085 C 169.60499,216.00149 170.22079,215.82994 171.2689,214.78264 z M 185.55034,209.71811 C 185.78876,208.03649 188.43937,207.87543 188.43937,209.54256 C 188.43937,210.32929 188.0194,210.674 186.90561,210.80148 C 185.57191,210.95413 185.39513,210.81282 185.55034,209.71811 z M 177.86829,209.03285 C 177.86829,208.60354 178.0629,208.1321 178.30076,207.98521 C 178.99427,207.55693 180.21179,208.55043 179.80312,209.21116 C 179.26525,210.08079 177.86829,209.95205 177.86829,209.03285 z M 173.70999,208.41364 C 173.53261,207.95175 173.64742,207.31409 173.96513,206.99663 C 174.75839,206.20398 176.29482,206.87875 175.91986,207.85511 C 175.46957,209.02765 174.08061,209.3787 173.70999,208.41364 z M 168.7751,207.00824 C 169.06895,206.12739 170.68894,205.16748 171.13293,205.61112 C 171.33315,205.81118 171.3525,206.35102 171.17595,206.81076 C 170.80458,207.7778 168.45388,207.97115 168.7751,207.00824 z M 164.97806,205.93175 C 165.25808,205.09233 166.96163,204.95112 167.16169,205.75075 C 167.23623,206.04868 166.72116,206.37389 166.0171,206.47344 C 165.13947,206.59753 164.81278,206.42721 164.97806,205.93175 z M 160.0801,204.53195 C 160.30546,203.35043 162.68931,202.89189 162.68931,204.03006 C 162.68931,204.78214 161.60526,205.4799 160.4368,205.4799 C 160.14116,205.4799 159.98065,205.05333 160.0801,204.53195 z M 154.92913,203.65001 C 154.47415,202.46524 155.63206,201.6447 156.84419,202.29291 C 157.66978,202.7344 157.74958,203.00448 157.23687,203.62177 C 156.42078,204.60435 155.30089,204.61805 154.92913,203.65001 z M 181.86904,201.98488 C 181.7029,201.55225 181.73227,200.93101 181.93431,200.60435 C 182.46412,199.74776 183.85106,201.00676 183.47019,201.99854 C 183.08678,202.99691 182.25496,202.9898 181.86904,201.98488 z M 149.67876,201.40025 C 149.67876,200.44954 150.977,199.79648 151.82538,200.3204 C 152.20433,200.55443 152.13463,200.93656 151.61901,201.45178 C 150.60178,202.46823 149.67876,202.44371 149.67876,201.40025 z M 159.97878,200.61945 C 159.34922,200.21253 159.30136,199.87636 159.76681,199.13049 C 160.69554,197.64225 162.41826,197.89138 162.41826,199.51392 C 162.41826,200.97204 161.3049,201.47659 159.97878,200.61945 z M 187.35515,200.60471 C 187.53943,200.30679 188.04172,200.06303 188.47136,200.06303 C 188.901,200.06303 189.25253,200.30679 189.25253,200.60471 C 189.25253,200.90264 188.75023,201.1464 188.13632,201.1464 C 187.5224,201.1464 187.17088,200.90264 187.35515,200.60471 z M 193.34694,200.65098 C 193.17239,200.36878 193.26065,199.99519 193.54308,199.82078 C 193.8255,199.64637 194.19938,199.73456 194.37392,200.01676 C 194.54847,200.29896 194.46021,200.67256 194.17778,200.84696 C 193.89536,201.02138 193.52148,200.93318 193.34694,200.65098 z M 143.97197,200.0393 C 143.53938,199.3399 144.74312,197.79734 145.40334,198.20505 C 145.66771,198.36832 145.88402,198.97504 145.88402,199.55331 C 145.88402,200.6635 144.56535,200.99867 143.97197,200.0393 z M 138.85233,197.92505 C 137.8716,197.29593 138.12484,197.01205 140.11115,196.5139 C 141.42967,196.18323 141.62602,196.27454 141.45907,197.14076 C 141.23474,198.30475 140.01591,198.67146 138.85233,197.92505 z M 148.53032,196.66048 C 148.44476,195.78116 148.64736,194.42708 148.90404,194.16269 C 149.35235,193.70092 150.68121,195.31214 150.41778,195.99809 C 150.03898,196.98448 148.61062,197.48575 148.53032,196.66048 z M 144.57372,194.17716 C 144.3402,193.7996 144.29553,193.34441 144.47446,193.16561 C 144.95963,192.68082 145.48862,193.39382 145.22658,194.17935 C 145.04295,194.7298 144.91526,194.72937 144.57372,194.17716 z M 222.99865,184.15912 C 221.2684,183.30285 223.83808,181.10395 226.56897,181.10395 C 226.91602,181.10395 227.19997,180.86019 227.19997,180.56227 C 227.19997,180.26434 226.34615,180.02058 225.3026,180.02058 C 224.25904,180.02058 223.40523,179.77682 223.40523,179.47889 C 223.40523,179.18096 223.87872,178.9372 224.45744,178.9372 C 225.03616,178.9372 225.66043,178.69344 225.84471,178.39551 C 226.02898,178.09759 226.74912,177.85383 227.44502,177.85383 C 228.14092,177.85383 228.85837,177.46825 229.03934,176.99699 C 229.51803,175.75052 229.47953,175.68708 228.24444,175.68708 C 227.46483,175.68708 227.17722,175.39664 227.3057,174.73912 C 227.42571,174.12498 228.00522,173.78244 228.95139,173.76639 C 230.62367,173.73802 231.249,173.26992 231.25886,172.03908 C 231.26266,171.56439 231.58135,171.07021 231.96705,170.94093 C 232.89656,170.62935 232.37954,172.87274 230.66251,176.60148 C 229.95074,178.14716 229.3684,179.56869 229.3684,179.76045 C 229.3684,180.4801 225.41787,184.89303 224.83072,184.82926 C 224.49393,184.79267 223.6695,184.49112 222.99865,184.15912 z M 220.26101,179.37055 C 219.43643,178.54661 219.43392,177.70524 220.25361,176.88618 C 221.27607,175.86452 223.00208,177.66559 222.2845,179.00538 C 221.65248,180.18541 221.16461,180.27345 220.26101,179.37055 z M 222.52701,174.90049 C 222.36088,174.46786 222.38293,173.85846 222.57602,173.54627 C 223.20742,172.52543 223.94733,172.94985 223.94733,174.33286 C 223.94733,175.80131 223.01591,176.17355 222.52701,174.90049 z M 226.11576,172.70779 C 226.11576,172.2609 226.35971,171.89526 226.65786,171.89526 C 226.95602,171.89526 227.19997,172.2609 227.19997,172.70779 C 227.19997,173.15469 226.95602,173.52032 226.65786,173.52032 C 226.35971,173.52032 226.11576,173.15469 226.11576,172.70779 z M 228.92207,170.9922 C 229.18583,169.63323 230.45261,169.44663 230.45261,170.76675 C 230.45261,171.43212 230.10258,171.89526 229.5997,171.89526 C 229.09487,171.89526 228.81832,171.52671 228.92207,170.9922 z M 231.26577,169.18682 C 231.04939,168.83697 231.11629,168.30698 231.41445,168.00905 C 231.77585,167.64792 232.0877,167.67939 232.34998,168.10345 C 232.56636,168.4533 232.49946,168.98329 232.2013,169.28122 C 231.8399,169.64234 231.52805,169.61088 231.26577,169.18682 z M 229.1205,167.59919 C 228.71958,166.95101 229.73938,166.30876 230.46145,166.75469 C 231.06772,167.12909 230.66971,168.10345 229.9105,168.10345 C 229.64754,168.10345 229.29204,167.87653 229.1205,167.59919 z M 224.48944,166.9273 C 224.48944,166.57835 224.89317,165.84707 225.38662,165.30224 C 226.22297,164.37879 226.21707,164.23796 225.29959,163.22494 C 224.2238,162.03712 224.49811,161.28274 225.82132,161.79012 C 226.78785,162.16072 226.94886,164.92292 226.09669,166.51399 C 225.47777,167.66956 224.48944,167.92371 224.48944,166.9273 z M 231.72517,163.79312 C 231.8181,160.72538 232.74752,160.38347 233.03306,163.312 C 233.14991,164.51043 232.9266,165.45851 232.4306,165.86984 C 231.75743,166.42809 231.65452,166.12514 231.72517,163.79312 z M 229.14231,163.30096 C 228.90879,162.9234 228.86412,162.4682 229.04306,162.2894 C 229.52823,161.80461 230.05721,162.51762 229.79517,163.30314 C 229.61155,163.85359 229.48385,163.85316 229.14231,163.30096 z M 228.82629,158.87425 C 228.82629,158.62463 229.2532,158.43971 229.77498,158.46333 C 230.29675,158.48694 231.05909,158.41085 231.46906,158.29424 C 231.87903,158.17763 232.31813,158.36255 232.44485,158.70516 C 232.5912,159.10088 231.97326,159.3281 230.75077,159.3281 C 229.69231,159.3281 228.82629,159.12387 228.82629,158.87425 z M 224.48944,158.09922 C 224.48944,157.61599 224.80744,157.42563 225.29949,157.6143 C 225.74501,157.78513 225.97456,158.14312 225.8096,158.40982 C 225.33655,159.17465 224.48944,158.97534 224.48944,158.09922 z M 230.99472,155.37378 C 230.99472,154.92689 231.36064,154.56125 231.80788,154.56125 C 232.25511,154.56125 232.62103,154.92689 232.62103,155.37378 C 232.62103,155.82068 232.25511,156.18631 231.80788,156.18631 C 231.36064,156.18631 230.99472,155.82068 230.99472,155.37378 z M 228.01313,155.10294 C 227.61783,154.46382 228.13059,153.47788 228.85829,153.47788 C 229.13885,153.47788 229.3684,153.96539 229.3684,154.56125 C 229.3684,155.70371 228.5797,156.01896 228.01313,155.10294 z M 230.72366,152.3945 C 230.28157,151.67973 230.92978,150.66539 231.57428,151.06342 C 232.23273,151.47005 232.22845,152.93619 231.56882,152.93619 C 231.28826,152.93619 230.90794,152.69243 230.72366,152.3945 z M 226.65786,150.22775 C 226.65786,149.92982 227.03819,149.68606 227.50302,149.68606 C 227.96785,149.68606 228.1974,149.92982 228.01313,150.22775 C 227.82886,150.52568 227.44854,150.76944 227.16798,150.76944 C 226.88741,150.76944 226.65786,150.52568 226.65786,150.22775 z M 220.69469,146.97762 C 220.69469,146.37575 221.0561,145.89425 221.50785,145.89425 C 221.95961,145.89425 222.32101,146.37575 222.32101,146.97762 C 222.32101,147.5795 221.95961,148.061 221.50785,148.061 C 221.0561,148.061 220.69469,147.5795 220.69469,146.97762 z M 224.48944,146.21023 C 224.48944,145.73851 224.87569,145.35256 225.34777,145.35256 C 226.30509,145.35256 226.13838,146.51868 225.13319,146.85348 C 224.77913,146.97141 224.48944,146.68195 224.48944,146.21023 z M 218.22602,144.22199 C 217.66737,143.31876 218.92383,142.28301 219.67167,143.03027 C 220.29722,143.65534 219.90571,144.81087 219.06838,144.81087 C 218.80541,144.81087 218.42635,144.54587 218.22602,144.22199 z M 223.14081,143.19654 C 222.87602,142.76842 223.05245,142.31047 223.60017,142.00419 C 224.08927,141.73069 224.48944,141.15338 224.48944,140.7213 C 224.48944,140.28921 224.97734,139.93568 225.57365,139.93568 C 226.91396,139.93568 227.01651,141.46028 225.70918,141.95044 C 225.1874,142.14608 224.4928,142.66287 224.16561,143.09888 C 223.69213,143.72983 223.48299,143.74976 223.14081,143.19654 z M 215.51549,141.51355 C 215.04241,140.74867 216.08725,139.70463 216.85272,140.17735 C 217.71251,140.70832 217.57359,142.10243 216.66089,142.10243 C 216.23125,142.10243 215.71582,141.83743 215.51549,141.51355 z M 220.69469,139.93568 C 220.69469,139.2375 220.96922,138.85346 221.37233,138.98773 C 221.74503,139.11187 222.04996,139.53845 222.04996,139.93568 C 222.04996,140.33292 221.74503,140.7595 221.37233,140.88363 C 220.96922,141.0179 220.69469,140.63386 220.69469,139.93568 z M 212.22349,138.59827 C 211.75,137.36533 212.51734,136.51495 213.42452,137.26727 C 214.41522,138.08884 214.39333,138.65821 213.35574,139.05606 C 212.88808,139.23538 212.39098,139.03439 212.22349,138.59827 z M 222.32101,137.76893 C 222.32101,137.471 222.56496,137.22724 222.86312,137.22724 C 223.16128,137.22724 223.40523,137.471 223.40523,137.76893 C 223.40523,138.06686 223.16128,138.31062 222.86312,138.31062 C 222.56496,138.31062 222.32101,138.06686 222.32101,137.76893 z M 218.52627,136.68555 C 218.52627,136.38763 218.89219,136.14387 219.33943,136.14387 C 219.78667,136.14387 220.15259,136.38763 220.15259,136.68555 C 220.15259,136.98348 219.78667,137.22724 219.33943,137.22724 C 218.89219,137.22724 218.52627,136.98348 218.52627,136.68555 z M 215.4089,134.92507 C 215.75045,133.90009 217.44206,133.75437 217.44206,134.74993 C 217.44206,135.25242 216.97856,135.60218 216.31267,135.60218 C 215.65023,135.60218 215.27656,135.32222 215.4089,134.92507 z M 219.9265,134.5915 C 219.69298,134.21395 219.64832,133.75875 219.82725,133.57995 C 220.31242,133.09516 220.84141,133.80816 220.57936,134.59369 C 220.39574,135.14414 220.26805,135.14371 219.9265,134.5915 z M 211.85158,133.62728 C 211.14462,132.92086 211.48214,132.35205 212.60827,132.35205 C 213.23915,132.35205 213.64294,132.63599 213.52308,132.99531 C 213.25901,133.7869 212.35383,134.12913 211.85158,133.62728 z M 209.58151,131.26868 C 209.39724,130.97075 209.50482,130.72699 209.82057,130.72699 C 210.13633,130.72699 210.39467,130.97075 210.39467,131.26868 C 210.39467,131.5666 210.2871,131.81036 210.15562,131.81036 C 210.02413,131.81036 209.76579,131.5666 209.58151,131.26868 z M 206.05782,130.43915 C 206.05782,130.0016 206.42374,129.64361 206.87098,129.64361 C 207.31822,129.64361 207.68414,129.8613 207.68414,130.12735 C 207.68414,130.3934 207.31822,130.75139 206.87098,130.92288 C 206.37565,131.11281 206.05782,130.92373 206.05782,130.43915 z M 206.59993,126.93517 C 206.59993,126.63725 206.96585,126.39349 207.41309,126.39349 C 207.86033,126.39349 208.22625,126.63725 208.22625,126.93517 C 208.22625,127.2331 207.86033,127.47686 207.41309,127.47686 C 206.96585,127.47686 206.59993,127.2331 206.59993,126.93517 z M 199.55255,124.76842 C 199.55255,124.47049 199.81089,124.22673 200.12665,124.22673 C 200.4424,124.22673 200.54998,124.47049 200.36571,124.76842 C 200.18143,125.06635 199.92309,125.31011 199.7916,125.31011 C 199.66012,125.31011 199.55255,125.06635 199.55255,124.76842 z M 183.83146,123.14336 C 183.83146,122.84543 184.08981,122.60167 184.40556,122.60167 C 184.72132,122.60167 184.82889,122.84543 184.64462,123.14336 C 184.46035,123.44129 184.202,123.68505 184.07052,123.68505 C 183.93904,123.68505 183.83146,123.44129 183.83146,123.14336 z M 194.13148,123.14336 C 194.13148,122.84543 194.37543,122.60167 194.67359,122.60167 C 194.97175,122.60167 195.2157,122.84543 195.2157,123.14336 C 195.2157,123.44129 194.97175,123.68505 194.67359,123.68505 C 194.37543,123.68505 194.13148,123.44129 194.13148,123.14336 z M 160.81423,214.65256 C 161.34164,213.79986 160.75661,213.45745 159.46966,213.86561 C 158.84654,214.06322 158.47663,214.45112 158.64764,214.7276 C 159.06902,215.40888 160.3744,215.36367 160.81423,214.65256 z M 156.9972,212.52185 C 156.81292,212.22392 156.20305,211.98016 155.64193,211.98016 C 155.08081,211.98016 154.47094,212.22392 154.28667,212.52185 C 154.09067,212.83873 154.6531,213.06353 155.64193,213.06353 C 156.63076,213.06353 157.1932,212.83873 156.9972,212.52185 z M 199.94783,212.73626 C 199.7677,212.55626 199.30013,212.53702 198.9088,212.6935 C 198.47634,212.86642 198.60479,212.99478 199.23632,213.02077 C 199.80779,213.04429 200.12797,212.91627 199.94783,212.73626 z M 151.59642,211.62658 C 152.63068,211.23 149.20743,209.27172 147.47991,209.27172 C 146.05305,209.27172 144.93394,210.8487 145.91887,211.47146 C 146.82609,212.04508 150.26029,212.13891 151.59642,211.62658 z M 145.51791,208.72799 C 146.35819,207.96891 141.31814,205.98611 139.4814,206.35318 C 136.78028,206.89298 136.27009,207.9794 138.40534,208.64457 C 141.97628,209.75699 144.34805,209.78481 145.51791,208.72799 z M 107.35961,208.76302 C 108.00463,208.35518 108.01647,208.1247 107.42875,207.4171 C 106.53216,206.33761 103.9434,206.30933 103.06294,207.3694 C 102.30329,208.28402 102.60737,208.45549 106.31025,209.20059 C 106.45933,209.23058 106.93154,209.03368 107.35961,208.76302 z M 100.34708,208.17135 C 100.34708,207.86406 99.981159,207.47235 99.533919,207.30086 C 98.448239,206.88456 96.939069,207.4989 97.363129,208.18452 C 97.807099,208.90233 100.34708,208.89111 100.34708,208.17135 z M 93.694989,207.86107 C 93.514849,207.68107 93.047279,207.66183 92.655949,207.81831 C 92.223489,207.99123 92.351949,208.11959 92.983469,208.14558 C 93.554939,208.1691 93.875119,208.04108 93.694989,207.86107 z M 92.345549,204.8515 C 92.691429,205.19712 93.765069,205.4799 94.731389,205.4799 C 95.697719,205.4799 96.646439,205.7355 96.839659,206.0479 C 97.077729,206.43281 97.404229,206.43903 97.852599,206.06721 C 98.216489,205.76543 99.231299,205.57078 100.10774,205.63464 C 101.39054,205.72811 101.73513,205.51311 101.87503,204.53195 C 102.08,203.09443 102.94602,202.95359 103.8643,204.20844 C 104.71209,205.36697 105.76815,204.70239 105.76815,203.01034 C 105.76815,202.16208 106.07757,201.68809 106.63133,201.68809 C 107.10608,201.68809 108.11477,201.20057 108.87286,200.60471 C 111.12224,198.83672 113.63184,199.34724 111.92976,201.22657 C 110.86624,202.40084 112.37268,203.43065 113.5025,202.3017 C 113.84025,201.96422 114.66683,201.68809 115.33935,201.68809 C 116.01188,201.68809 117.46082,201.07869 118.55922,200.33387 C 119.65762,199.58905 120.82721,198.97592 121.1583,198.97137 C 122.92756,198.94703 134.343,189.84987 138.26792,185.33642 C 140.1627,183.15752 142.28554,180.87812 142.98534,180.27108 C 143.68514,179.66402 144.2577,178.92598 144.2577,178.63098 C 144.2577,177.34458 146.51664,176.22876 149.12091,176.22876 C 151.34075,176.22876 152.03811,175.97574 153.16492,174.76146 C 155.61342,172.12291 151.77701,171.78143 149.23938,174.41206 C 148.55048,175.1262 147.75323,175.56623 147.46772,175.38991 C 146.90064,175.03971 148.32027,172.79766 150.16236,171.1342 C 150.79085,170.56665 151.30508,169.80051 151.30508,169.43167 C 151.30508,169.06282 151.67466,168.61933 152.12638,168.44612 C 152.57809,168.27292 153.19416,167.48339 153.49542,166.69162 C 154.00811,165.3442 154.10577,165.30862 155.02077,166.13605 C 156.63446,167.59529 161.6051,165.78343 161.6051,163.73597 C 161.6051,162.96604 157.16658,163.76681 156.04851,164.73847 C 155.17754,165.49538 155.09982,165.45054 155.09982,164.19107 C 155.09982,163.43655 155.48183,162.50243 155.94873,162.11524 C 157.52382,160.80904 158.79917,157.81138 157.7798,157.81138 C 156.87073,157.81138 154.01561,161.20278 154.01561,162.2826 C 154.01561,162.82141 153.64969,163.40257 153.20245,163.57405 C 152.75521,163.74555 152.38929,164.22872 152.38929,164.64778 C 152.38929,166.01666 149.95162,169.72851 149.05263,169.72851 C 148.0452,169.72851 148.70964,167.84406 150.92912,164.40649 C 154.04635,159.57846 154.289,158.86477 152.93364,158.51061 C 151.35214,158.09735 151.60375,157.26969 153.31087,157.26969 C 154.38179,157.26969 154.61338,157.10863 154.1739,156.6695 C 153.6395,156.1355 151.761,156.18282 147.26653,156.84348 C 146.68521,156.92893 145.38857,158.09576 144.38511,159.43644 C 143.38166,160.77712 141.37498,163.21471 139.92583,164.85332 C 138.47668,166.49193 136.06114,169.4566 134.55795,171.44149 C 133.05476,173.42638 130.42646,176.35149 128.71727,177.94175 C 127.00808,179.532 124.83719,181.56439 123.89307,182.45817 C 119.03242,187.05967 117.70165,188.13679 114.78817,189.82766 C 107.7551,193.90937 106.5183,194.45366 105.5966,193.87272 C 104.93229,193.45401 104.54136,193.54988 104.02088,194.25915 C 102.63878,196.14256 91.735449,196.92903 87.607579,195.44306 C 86.414949,195.01373 84.768299,194.65879 83.948359,194.65431 C 82.821689,194.64814 82.457569,194.38153 82.457569,193.56277 C 82.457569,192.44131 83.765409,192.06793 84.354939,193.02109 C 84.539219,193.31901 85.758959,193.56277 87.065479,193.56277 C 88.371999,193.56277 89.591739,193.80653 89.776009,194.10446 C 89.960279,194.40239 90.848829,194.64615 91.750549,194.64615 C 93.839719,194.64615 93.565519,193.36467 91.422599,193.11344 C 89.591079,192.89872 83.466379,189.74352 80.831249,187.6572 C 79.787699,186.83099 78.384999,185.86309 77.714139,185.50632 C 77.043279,185.14955 76.494399,184.49742 76.494399,184.05714 C 76.494399,183.61685 75.391329,182.72112 74.043139,182.06663 C 71.923889,181.03781 71.547379,180.59855 71.263329,178.82354 C 71.082619,177.69434 70.721999,176.77045 70.461949,176.77045 C 70.201899,176.77045 69.989129,176.15641 69.989129,175.40591 C 69.989129,174.22089 70.167419,174.08608 71.344389,174.38126 C 72.101839,174.57122 72.699659,174.48617 72.699659,174.18845 C 72.699659,173.89546 72.858869,172.83306 73.053469,171.82755 C 73.399579,170.03918 73.383889,170.02 72.333159,170.94731 C 70.957249,172.16158 69.857899,172.16363 70.091519,170.95148 C 70.197789,170.40008 70.926939,169.89336 71.845299,169.73269 C 73.040739,169.52353 73.581049,169.00362 74.101389,167.56176 C 75.070879,164.87533 75.015809,164.31163 73.783869,164.31163 C 72.734929,164.31163 72.195399,162.28763 73.023709,161.45995 C 73.662379,160.82178 74.868429,161.74133 74.886119,162.87995 C 74.903949,164.02797 74.915929,164.02666 75.970329,162.76198 C 77.245329,161.23271 77.325779,160.51982 76.223349,160.51982 C 75.711349,160.51982 75.410189,160.00391 75.410189,159.12683 C 75.410189,158.01575 75.657029,157.75272 76.629929,157.82711 C 77.862129,157.92132 80.289149,157.32519 80.289149,156.92832 C 80.289149,156.81006 79.998889,156.24889 79.644129,155.68126 C 78.851969,154.4138 80.050719,152.48127 81.025119,153.45492 C 82.051769,154.48078 83.699019,154.13719 83.391299,152.96137 C 83.238979,152.37935 83.446719,151.46526 83.852939,150.93004 C 84.562539,149.99508 84.592189,149.99557 84.608759,150.94253 C 84.634709,152.42656 87.016679,151.92475 87.235289,150.3892 C 87.328689,149.73318 88.296719,148.41419 89.386459,147.45813 C 92.735449,144.51995 92.480049,134.58311 89.076689,135.40589 C 79.888659,137.62715 66.465599,148.67003 61.980899,157.69704 C 58.334929,165.0358 57.971649,184.84001 61.488309,184.54969 C 62.146959,184.49531 62.399639,184.90363 62.399639,186.02233 C 62.399639,187.24226 62.590379,187.49707 63.299929,187.22499 C 64.014079,186.95116 64.136659,187.12268 63.892789,188.05453 C 63.651899,188.97501 63.823699,189.22927 64.686579,189.22927 C 65.612189,189.22927 65.737739,189.47937 65.473879,190.79766 C 65.218319,192.07449 65.369969,192.42093 66.289679,192.66125 C 66.993039,192.84504 67.306529,193.2504 67.120319,193.7353 C 66.747579,194.70586 67.713499,195.73663 68.656779,195.37494 C 69.086169,195.21029 69.430439,195.59655 69.539409,196.36522 C 69.654189,197.17482 70.083929,197.62647 70.741249,197.62832 C 71.304819,197.62991 71.966639,198.1774 72.214579,198.84712 C 72.462159,199.51587 73.008629,200.06303 73.428969,200.06303 C 73.849309,200.06303 74.501479,200.43417 74.878239,200.88779 C 75.254999,201.34141 75.982269,201.57967 76.494399,201.41725 C 77.006529,201.25483 77.746809,201.50875 78.139479,201.98153 C 78.598239,202.53387 79.308039,202.7271 80.125299,202.52214 C 80.992269,202.30471 81.500099,202.47121 81.720509,203.04515 C 81.929449,203.58921 82.413979,203.76975 83.089889,203.55539 C 83.665209,203.37293 84.487029,203.51482 84.916159,203.87069 C 85.345289,204.22656 86.083099,204.36946 86.555739,204.18823 C 87.725689,203.73962 89.500889,204.76684 89.522989,205.90523 C 89.537699,206.66273 89.741739,206.59324 90.628839,205.52861 C 91.454129,204.53817 91.868439,204.37476 92.345549,204.8515 z M 114.53957,197.87416 C 114.65546,197.52678 115.79264,197.16488 117.06663,197.06994 C 118.65648,196.95145 119.31753,197.09644 119.17424,197.53221 C 119.05943,197.88141 117.92225,198.24332 116.64718,198.33645 C 115.06236,198.4522 114.39554,198.30594 114.53957,197.87416 z M 119.95261,195.79231 C 119.41363,195.45395 119.55186,195.2518 120.49472,194.99954 C 122.38142,194.49476 123.96139,194.56503 123.3595,195.12696 C 122.50301,195.92657 120.72089,196.27461 119.95261,195.79231 z M 124.7464,193.03535 C 123.37761,192.17064 124.80249,191.42063 126.91029,191.89635 C 128.80767,192.32457 128.80767,192.32457 127.28158,192.94367 C 125.47825,193.67525 125.74411,193.66563 124.7464,193.03535 z M 76.736259,191.34882 C 76.177609,190.4456 77.434069,189.40985 78.181909,190.15711 C 78.807459,190.78218 78.415949,191.93771 77.578609,191.93771 C 77.315649,191.93771 76.936589,191.67271 76.736259,191.34882 z M 128.53661,189.75755 C 128.53661,189.2295 130.74727,188.1459 131.82454,188.1459 C 132.87196,188.1459 132.28138,189.65798 131.11162,189.97123 C 129.32506,190.44964 128.53661,190.38421 128.53661,189.75755 z M 71.991589,187.7995 C 71.558479,187.36673 72.048069,186.52083 72.731649,186.52083 C 73.012209,186.52083 73.241759,186.88647 73.241759,187.33336 C 73.241759,188.17103 72.602099,188.40953 71.991589,187.7995 z M 132.43158,186.65625 C 132.54993,186.03193 133.21127,185.65035 134.3687,185.53856 C 136.47761,185.33487 136.71373,186.3244 134.73555,187.07593 C 132.74975,187.83034 132.22704,187.73513 132.43158,186.65625 z M 68.362809,184.08324 C 68.362809,183.52532 68.718099,183.25964 69.311489,183.37383 C 70.454169,183.59371 70.382109,184.55507 69.204599,184.80006 C 68.713459,184.90225 68.362809,184.60365 68.362809,184.08324 z M 135.96827,184.01581 C 135.16282,183.21098 135.64494,182.72902 137.25549,182.72902 C 138.3503,182.72902 138.84999,182.96263 138.70382,183.40613 C 138.45069,184.17417 136.55057,184.59765 135.96827,184.01581 z M 138.83663,180.29142 C 138.83663,179.73351 139.19193,179.46782 139.78532,179.58201 C 140.92799,179.8019 140.85594,180.76326 139.67843,181.00825 C 139.18729,181.11044 138.83663,180.81184 138.83663,180.29142 z M 66.443139,179.98454 C 65.944219,179.17789 66.522679,178.73931 67.560619,179.1373 C 68.039619,179.32097 68.279699,179.71672 68.094119,180.01675 C 67.654699,180.7272 66.893299,180.71234 66.443139,179.98454 z M 141.85453,177.91253 C 141.72482,177.70283 141.82194,177.20267 142.07033,176.80108 C 142.54304,176.03681 144.2577,176.37458 144.2577,177.23196 C 144.2577,177.84653 142.17799,178.4355 141.85453,177.91253 z M 65.652269,176.00306 C 65.652269,175.53134 66.038529,175.14539 66.510609,175.14539 C 67.467929,175.14539 67.301209,176.31151 66.296029,176.64631 C 65.941969,176.76424 65.652269,176.47478 65.652269,176.00306 z M 144.2577,174.33286 C 144.2577,173.88596 144.60922,173.52032 145.03886,173.52032 C 146.18575,173.52032 146.55794,174.43725 145.56551,174.81779 C 144.35727,175.28107 144.2577,175.24415 144.2577,174.33286 z M 64.809919,172.38975 C 64.251269,171.48653 65.507729,170.45077 66.255569,171.19804 C 66.881119,171.8231 66.489609,172.97864 65.652269,172.97864 C 65.389309,172.97864 65.010249,172.71364 64.809919,172.38975 z M 147.23928,171.35357 C 147.05501,171.05565 147.16259,170.81189 147.47834,170.81189 C 147.7941,170.81189 148.05244,171.05565 148.05244,171.35357 C 148.05244,171.6515 147.94487,171.89526 147.81338,171.89526 C 147.6819,171.89526 147.42356,171.6515 147.23928,171.35357 z M 65.381219,168.64513 C 64.927459,167.91149 65.539749,167.02007 66.497429,167.02007 C 67.376659,167.02007 67.412599,167.12421 66.949539,168.32999 C 66.575449,169.3041 65.875759,169.4447 65.381219,168.64513 z M 70.892509,167.33052 C 70.729249,166.90541 70.906129,166.30014 71.285569,165.98548 C 72.157139,165.26269 74.133209,166.55872 73.563639,167.47958 C 73.021409,168.35625 71.248429,168.25731 70.892509,167.33052 z M 66.194379,164.58248 C 66.194379,164.02456 66.549679,163.75888 67.143069,163.87307 C 68.285739,164.09295 68.213689,165.05431 67.036169,165.2993 C 66.545039,165.40149 66.194379,165.10289 66.194379,164.58248 z M 67.278589,161.37749 C 67.278589,160.90577 67.664839,160.51982 68.136929,160.51982 C 68.609019,160.51982 68.898699,160.80928 68.780679,161.16307 C 68.445619,162.16748 67.278589,162.33407 67.278589,161.37749 z M 68.904909,157.81138 C 68.904909,157.51345 69.270829,157.26969 69.718069,157.26969 C 70.165309,157.26969 70.531229,157.51345 70.531229,157.81138 C 70.531229,158.10931 70.165309,158.35307 69.718069,158.35307 C 69.270829,158.35307 68.904909,158.10931 68.904909,157.81138 z M 70.862189,154.87145 C 71.246749,153.87006 72.896259,153.70069 72.564389,154.69667 C 72.440289,155.06908 71.932919,155.45243 71.436899,155.54856 C 70.807979,155.67044 70.634049,155.46551 70.862189,154.87145 z M 72.699659,152.66534 C 72.699659,152.10743 73.054949,151.84175 73.648339,151.95593 C 74.791019,152.17582 74.718969,153.13718 73.541449,153.38217 C 73.050309,153.48436 72.699659,153.18576 72.699659,152.66534 z M 75.410189,150.49859 C 75.410189,150.03156 75.899429,149.68606 76.560779,149.68606 C 77.522059,149.68606 77.600339,149.81975 77.036509,150.49859 C 76.665329,150.94549 76.147569,151.31112 75.885909,151.31112 C 75.624269,151.31112 75.410189,150.94549 75.410189,150.49859 z M 78.120719,147.79015 C 78.120719,147.33875 78.602589,146.97762 79.204929,146.97762 C 80.497449,146.97762 80.642929,147.80943 79.431649,148.27389 C 78.220009,148.73848 78.120719,148.70184 78.120719,147.79015 z M 81.125459,146.47337 C 80.724539,145.82518 81.744339,145.18294 82.466409,145.62886 C 83.072679,146.00327 82.674669,146.97762 81.915469,146.97762 C 81.652499,146.97762 81.296999,146.7507 81.125459,146.47337 z M 84.625999,143.99834 C 84.625999,143.53131 85.115239,143.18581 85.776589,143.18581 C 86.737869,143.18581 86.816149,143.3195 86.252319,143.99834 C 85.881139,144.44523 85.363379,144.81087 85.101719,144.81087 C 84.840079,144.81087 84.625999,144.44523 84.625999,143.99834 z M 87.336529,142.41299 C 87.336529,141.91051 87.800029,141.56074 88.465919,141.56074 C 89.787059,141.56074 89.600309,142.82654 88.240289,143.0901 C 87.705359,143.19377 87.336529,142.91743 87.336529,142.41299 z M 112.27342,206.03191 C 112.27342,205.36024 109.81585,204.71806 109.0516,205.19003 C 107.89422,205.90478 108.52932,206.56328 110.37605,206.56328 C 111.4196,206.56328 112.27342,206.32416 112.27342,206.03191 z M 137.97914,205.69279 C 140.39889,204.76496 136.59763,202.53981 133.53599,203.0919 C 128.10919,204.07048 128.90598,205.79312 134.86202,205.95876 C 136.10481,205.99332 137.50751,205.87364 137.97914,205.69279 z M 119.4248,204.66737 C 118.99977,203.28923 116.71418,202.53283 115.28474,203.29725 C 112.85756,204.59524 113.53494,205.55751 116.7458,205.37279 C 118.32324,205.28204 119.51739,204.96761 119.4248,204.66737 z M 109.56289,203.04231 C 109.56289,202.59542 109.21137,202.22978 108.78173,202.22978 C 107.87606,202.22978 107.26469,203.00292 107.77061,203.50844 C 108.41851,204.15585 109.56289,203.85822 109.56289,203.04231 z M 124.41615,203.14923 C 125.49606,202.36019 125.097,201.85411 122.5384,200.76795 C 121.40796,200.28807 120.90131,200.36376 119.82786,201.17291 C 118.50765,202.16806 118.50765,202.16806 120.40502,202.99025 C 122.76489,204.01285 123.21003,204.03049 124.41615,203.14923 z M 133.41293,202.24287 C 134.21426,201.73667 132.8876,200.13036 131.6268,200.08025 C 130.64886,200.04139 127.98252,201.77217 128.27983,202.25285 C 128.69189,202.91907 132.35375,202.91196 133.41293,202.24287 z M 128.41668,200.02418 C 128.67342,198.67658 126.01779,197.70067 124.66686,198.64617 C 123.59089,199.39923 123.59247,199.41433 124.83903,200.29238 C 126.34025,201.3498 128.19056,201.21109 128.41668,200.02418 z M 131.08909,198.57339 C 131.2816,198.05201 131.70086,197.44261 132.02076,197.21917 C 132.78823,196.68311 131.38042,195.74894 129.78835,195.73782 C 128.21276,195.72682 127.60323,196.81239 128.72484,197.6319 C 129.21763,197.99196 129.62083,198.56438 129.62083,198.90394 C 129.62083,199.87012 130.69999,199.62716 131.08909,198.57339 z M 136.1261,194.033 C 136.1261,192.6604 133.39496,191.78844 132.27316,192.80287 C 131.15853,193.81082 131.15853,193.81082 132.6751,195.01917 C 134.17013,196.21034 136.1261,195.65139 136.1261,194.033 z M 97.365499,194.64615 C 97.549769,194.34822 97.183849,194.10446 96.552339,194.10446 C 95.920829,194.10446 95.554909,194.34822 95.739179,194.64615 C 95.923449,194.94408 96.289369,195.18784 96.552339,195.18784 C 96.815299,195.18784 97.181219,194.94408 97.365499,194.64615 z M 206.47714,193.74835 C 207.155,193.32545 208.10548,193.04975 208.58932,193.13568 C 209.07317,193.22162 209.57566,192.98723 209.70598,192.61482 C 210.15215,191.33978 204.22699,192.99393 202.66545,194.58034 C 201.76754,195.49256 204.71131,194.85001 206.47714,193.74835 z M 138.72821,191.82937 C 140.75423,189.80492 138.00336,188.59124 135.47165,190.39258 C 133.73373,191.62913 133.73373,191.62913 135.06544,192.00027 C 137.13183,192.57615 138.02244,192.5346 138.72821,191.82937 z M 105.17566,191.10705 C 108.51492,190.76836 108.44468,190.3902 103.82079,183.81239 C 102.87835,182.47172 101.67719,180.52164 101.15154,179.47889 C 100.62588,178.43614 100.04687,177.4611 99.864859,177.31214 C 99.376759,176.91267 97.767319,173.45645 97.342419,171.89526 C 97.139699,171.15044 96.647699,169.80976 96.249079,168.91598 C 95.492749,167.22012 92.918029,157.95439 92.216669,154.40436 C 91.640299,151.48703 91.410979,151.42187 88.046219,153.21927 C 74.087999,160.67554 70.839219,178.70437 82.186519,185.73709 C 86.173199,188.20791 92.630769,190.83233 94.758499,190.84645 C 95.411759,190.85079 96.114069,191.12567 96.319189,191.45731 C 96.565689,191.85584 97.725289,191.93976 99.739349,191.70482 C 101.41531,191.50932 103.86166,191.24032 105.17566,191.10705 z M 230.45261,191.39602 C 230.45261,191.09809 230.34503,190.85433 230.21355,190.85433 C 230.08207,190.85433 229.82372,191.09809 229.63945,191.39602 C 229.45518,191.69395 229.56275,191.93771 229.87851,191.93771 C 230.19426,191.93771 230.45261,191.69395 230.45261,191.39602 z M 213.39855,190.8183 C 214.03424,189.79052 213.1071,189.53691 212.16297,190.48031 C 211.31786,191.32477 211.31637,191.39602 212.14389,191.39602 C 212.63742,191.39602 213.20202,191.13604 213.39855,190.8183 z M 143.65497,186.95798 C 147.84846,183.14829 148.70836,180.90082 145.78944,181.37924 C 142.50771,181.91714 141.2198,183.09479 142.43996,184.442 C 143.29565,185.38681 143.26002,185.43746 141.73961,185.43746 C 139.15492,185.43746 137.53636,188.26861 139.78532,188.85587 C 140.3071,188.99212 140.8287,189.13188 140.94444,189.16643 C 141.06017,189.20099 142.27991,188.20719 143.65497,186.95798 z M 216.10113,188.25051 C 215.93423,188.08373 215.4968,188.25016 215.12907,188.62036 C 214.59766,189.15535 214.65993,189.21756 215.43254,188.9236 C 215.96718,188.72018 216.26804,188.41729 216.10113,188.25051 z M 232.87817,187.63111 C 233.9824,185.49741 233.93443,185.35634 232.34998,186.0777 C 230.91704,186.73009 230.79654,186.99955 231.32377,188.37243 C 231.77347,189.54344 231.92618,189.47061 232.87817,187.63111 z M 114.02883,186.46112 C 113.76251,184.03282 113.50659,183.85149 110.39812,183.88859 C 108.74317,183.90834 107.27513,184.10879 107.13582,184.33402 C 106.8215,184.84221 109.99557,187.72967 110.53001,187.42173 C 110.74349,187.29873 111.40605,187.39325 112.00237,187.63179 C 113.59023,188.26697 114.18894,187.92109 114.02883,186.46112 z M 118.7787,183.56609 C 118.7787,182.47794 119.11983,182.17247 120.65676,181.88437 C 123.83481,181.28862 124.48038,178.22508 121.73703,176.75801 C 121.03483,176.3825 120.38687,175.56133 120.29713,174.93321 C 120.19379,174.20989 119.66783,173.72522 118.86263,173.61132 C 117.88804,173.47344 117.65795,173.17676 117.87686,172.34027 C 118.28551,170.77882 117.74234,169.71988 116.24001,169.14913 C 115.11318,168.72104 114.97941,168.40765 115.26783,166.87144 C 115.52903,165.48018 115.35487,164.86642 114.47242,164.06844 C 113.59197,163.27225 113.41601,162.65564 113.67524,161.27489 C 113.90013,160.07705 113.72694,159.10223 113.14066,158.26583 C 112.66368,157.58538 112.27342,156.48786 112.27342,155.82691 C 112.27342,155.16596 112.02947,154.47454 111.73132,154.29041 C 111.05396,153.8721 111.0132,151.85281 111.68212,151.85281 C 111.95322,151.85281 111.74109,150.93871 111.21072,149.82148 C 110.68035,148.70425 109.9737,146.20572 109.64038,144.26918 C 109.30706,142.33265 108.8639,139.77317 108.65556,138.58146 C 108.14084,135.63721 108.46278,128.44813 109.14694,127.60862 C 109.52856,127.14034 109.4875,126.16324 109.0154,124.47838 C 108.26588,121.8034 108.53732,120.98471 109.82084,122.04912 C 110.53225,122.63907 110.6471,122.48999 110.6471,120.97661 C 110.6471,119.55142 110.50688,119.33518 109.90587,119.83359 C 108.67936,120.85071 107.67491,119.22077 108.54525,117.62568 C 109.27672,116.28514 109.61315,112.39316 109.07503,111.49707 C 108.89612,111.19914 108.74847,109.34595 108.74693,107.37887 C 108.74539,105.41179 108.47409,103.46171 108.14405,103.04537 C 107.814,102.62902 107.38115,101.60785 107.18214,100.77608 C 106.53225,98.059752 101.36895,92.842392 97.937409,91.434572 C 96.728379,90.938562 94.938069,90.191702 93.958939,89.774882 C 85.948749,86.364922 63.103769,90.439342 64.964999,94.945972 C 66.629139,98.975362 69.798969,100.2387 81.373359,101.48558 C 84.504019,101.82284 87.797319,102.42796 88.691799,102.83029 C 89.586269,103.23263 91.065039,103.71116 91.977949,103.8937 C 94.990769,104.49612 98.356459,111.29467 96.010229,112.03876 C 95.413909,112.22788 94.926019,112.60994 94.926019,112.8878 C 94.926019,113.16564 94.011209,113.39177 92.893119,113.3903 C 90.902999,113.38768 85.702099,114.93971 85.718509,115.53131 C 85.769329,117.36333 94.877219,116.99709 96.429789,115.1006 C 96.971009,114.43949 97.236319,114.38251 97.444729,114.88262 C 97.599929,115.25503 98.255459,115.53145 98.901459,115.49689 C 99.818229,115.44785 99.867809,115.37968 99.127339,115.18633 C 97.626289,114.79437 97.896439,112.07729 99.543689,110.99881 C 101.20563,109.9107 101.92399,110.91925 100.87801,112.87216 C 99.967929,114.57135 101.46956,116.13474 103.05902,115.14287 C 104.45427,114.2722 104.7168,114.30217 104.33787,115.28889 C 104.12135,115.8527 104.37546,116.10142 105.16804,116.10142 C 105.82193,116.10142 106.31025,115.75404 106.31025,115.28889 C 106.31025,114.84199 106.5542,114.47635 106.85236,114.47635 C 109.39575,114.47635 106.56691,117.04821 103.12488,117.86521 C 100.09856,118.58354 100.07586,118.62444 100.95243,121.77943 C 101.30284,123.04067 101.59091,129.56448 101.64606,137.48837 C 101.73652,150.48419 101.80205,151.26256 103.24302,156.45716 C 104.06946,159.43644 104.95902,162.70616 105.21982,163.7232 C 106.1145,167.21223 109.74737,175.41656 111.01024,176.80009 C 111.70499,177.56121 112.27342,178.43875 112.27342,178.75018 C 112.27342,179.39379 117.7245,184.89577 118.36215,184.89577 C 118.59125,184.89577 118.7787,184.29741 118.7787,183.56609 z M 120.67607,179.47889 C 120.4918,179.18096 120.59937,178.9372 120.91513,178.9372 C 121.23088,178.9372 121.48923,179.18096 121.48923,179.47889 C 121.48923,179.77682 121.38165,180.02058 121.25017,180.02058 C 121.11869,180.02058 120.86034,179.77682 120.67607,179.47889 z M 115.79711,177.85383 C 115.34335,177.12019 115.95564,176.22876 116.91332,176.22876 C 117.34296,176.22876 117.69449,176.71628 117.69449,177.31214 C 117.69449,178.4336 116.38665,178.80698 115.79711,177.85383 z M 113.17693,173.70089 C 112.48966,173.01414 112.81974,172.43695 113.89974,172.43695 C 114.50208,172.43695 114.98395,172.79808 114.98395,173.24948 C 114.98395,174.07415 113.83718,174.36062 113.17693,173.70089 z M 110.105,162.95741 C 110.105,162.04612 110.20457,162.0092 111.41281,162.47248 C 112.40524,162.85302 112.03305,163.76994 110.88616,163.76994 C 110.45652,163.76994 110.105,163.4043 110.105,162.95741 z M 108.30927,159.0866 C 107.5645,158.34241 107.95081,157.19299 108.88526,157.37281 C 109.40703,157.47322 109.83394,157.89736 109.83394,158.31534 C 109.83394,159.17059 108.87751,159.6544 108.30927,159.0866 z M 106.96465,153.91509 C 106.20486,153.15589 106.0972,151.50664 106.77991,151.08502 C 107.03822,150.9255 107.69277,151.28434 108.23446,151.88245 C 109.44172,153.21542 108.22062,155.17009 106.96465,153.91509 z M 105.22604,140.47737 C 105.22604,140.17944 105.59196,139.93568 106.0392,139.93568 C 106.48644,139.93568 106.85236,140.17944 106.85236,140.47737 C 106.85236,140.7753 106.48644,141.01906 106.0392,141.01906 C 105.59196,141.01906 105.22604,140.7753 105.22604,140.47737 z M 104.95499,135.60218 C 104.77071,135.30425 104.87829,135.06049 105.19404,135.06049 C 105.5098,135.06049 105.76815,135.30425 105.76815,135.60218 C 105.76815,135.90011 105.66057,136.14387 105.52909,136.14387 C 105.39761,136.14387 105.13926,135.90011 104.95499,135.60218 z M 104.41288,132.35205 C 104.1965,132.0022 104.2634,131.4722 104.56156,131.17428 C 104.92296,130.81315 105.23481,130.84462 105.49709,131.26868 C 105.71347,131.61853 105.64657,132.14852 105.34841,132.44645 C 104.98701,132.80757 104.67516,132.77611 104.41288,132.35205 z M 104.68393,126.93517 C 104.68393,125.70346 106.04347,125.45917 106.48595,126.61137 C 106.82617,127.49727 106.42638,128.01855 105.40674,128.01855 C 105.0092,128.01855 104.68393,127.53103 104.68393,126.93517 z M 102.51551,121.82111 C 102.51551,121.3918 102.71012,120.92036 102.94797,120.77347 C 103.64148,120.34519 104.859,121.3387 104.45034,121.99942 C 103.91246,122.86905 102.51551,122.74031 102.51551,121.82111 z M 105.22604,120.70576 C 105.22604,120.25887 105.59196,119.89323 106.0392,119.89323 C 106.48644,119.89323 106.85236,120.25887 106.85236,120.70576 C 106.85236,121.15266 106.48644,121.5183 106.0392,121.5183 C 105.59196,121.5183 105.22604,121.15266 105.22604,120.70576 z M 102.51551,111.52904 C 102.51551,111.09973 102.71012,110.6283 102.94797,110.48141 C 103.64148,110.05312 104.859,111.04663 104.45034,111.70735 C 103.91246,112.57699 102.51551,112.44824 102.51551,111.52904 z M 98.296929,107.35072 C 98.578299,106.50726 99.791109,106.35955 99.833609,107.16357 C 99.849359,107.4615 99.455339,107.78948 98.958019,107.89241 C 98.392759,108.00941 98.144929,107.80635 98.296929,107.35072 z M 104.95499,107.43441 C 104.77071,107.13648 105.01466,106.89273 105.49709,106.89273 C 105.97952,106.89273 106.22347,107.13648 106.0392,107.43441 C 105.85493,107.73234 105.61098,107.9761 105.49709,107.9761 C 105.38321,107.9761 105.13926,107.73234 104.95499,107.43441 z M 96.371639,102.73978 C 95.686969,102.05564 96.013829,101.60146 97.378439,101.3408 C 99.097909,101.01235 99.643409,101.77592 98.229479,102.53205 C 96.978429,103.20107 96.847879,103.21567 96.371639,102.73978 z M 101.9734,100.39247 C 101.9734,100.09454 102.20295,99.850782 102.48351,99.850782 C 102.76407,99.850782 103.14439,100.09454 103.32867,100.39247 C 103.51294,100.6904 103.28339,100.93416 102.81856,100.93416 C 102.35372,100.93416 101.9734,100.6904 101.9734,100.39247 z M 97.636549,98.496562 C 97.636549,98.029532 98.125799,97.684032 98.787139,97.684032 C 99.748419,97.684032 99.826699,97.817722 99.262869,98.496562 C 98.891689,98.943462 98.373929,99.309102 98.112279,99.309102 C 97.850629,99.309102 97.636549,98.943462 97.636549,98.496562 z M 78.401309,97.743942 C 78.844899,96.574512 77.424799,93.892222 76.362069,93.892222 C 75.838529,93.892222 75.410189,93.507122 75.410189,93.036452 C 75.410189,92.310192 76.210069,92.191482 80.695729,92.252002 C 83.602769,92.291232 87.079029,92.197462 88.420739,92.043622 C 90.908069,91.758432 93.100599,92.104972 92.514459,92.690662 C 92.335799,92.869192 91.402609,93.029752 90.440709,93.047472 C 89.069559,93.072732 88.655489,93.334452 88.523729,94.259152 C 88.308719,95.767992 86.794419,97.164952 86.794419,95.854452 C 86.794419,94.746402 86.324849,94.742092 85.111819,95.839022 C 84.578499,96.321302 84.300889,97.077102 84.482939,97.551162 C 84.735039,98.207612 84.542559,98.330272 83.633219,98.092662 C 82.986609,97.923702 82.457569,97.982042 82.457569,98.222312 C 82.457569,98.462582 81.480679,98.622592 80.286699,98.577872 C 78.678999,98.517662 78.189879,98.301312 78.401309,97.743942 z M 82.083429,95.281212 C 82.737549,94.785652 82.864409,94.414312 82.464049,94.167062 C 81.591789,93.628392 80.289149,94.264692 80.289149,95.229442 C 80.289149,96.243282 80.794299,96.257862 82.083429,95.281212 z M 112.44041,182.96481 C 113.09321,182.7145 113.02738,182.44378 112.07817,181.47517 C 111.44016,180.82411 110.55223,179.77022 110.105,179.13319 C 108.97218,177.51966 103.05101,176.78085 103.06967,178.25536 C 103.1068,181.1899 109.14939,184.22671 112.44041,182.96481 z M 149.6924,179.46707 C 150.61493,178.66758 150.79442,178.21026 150.35715,177.77333 C 149.26338,176.68041 145.34191,178.46781 145.34191,180.05927 C 145.34191,180.99071 148.41733,180.57208 149.6924,179.46707 z M 108.47868,176.01984 C 108.47868,174.02161 106.73511,172.81205 103.63679,172.66087 C 99.621559,172.46494 99.260539,174.44939 103.05761,175.84447 C 103.99299,176.18814 108.47868,176.33324 108.47868,176.01984 z M 129.41087,174.46828 C 130.30685,173.50001 131.74126,171.73275 132.59846,170.54104 C 133.45566,169.34933 135.52207,166.78985 137.19047,164.85332 C 144.20538,156.71108 146.42384,153.60863 145.67514,152.98775 C 144.4904,152.00527 135.96883,148.9379 132.0603,148.08704 C 130.86767,147.82742 128.18424,147.22768 126.09713,146.75428 C 112.29797,143.62442 110.87133,147.98048 119.83709,165.86851 C 120.07988,166.35291 120.59954,167.48051 120.9919,168.37429 C 121.38426,169.26808 122.31034,170.83269 123.04985,171.85121 C 123.78937,172.86973 124.45228,174.21041 124.52297,174.83049 C 124.59367,175.45057 124.67184,176.01886 124.69669,176.09334 C 124.9915,176.97709 128.07197,175.9152 129.41087,174.46828 z M 157.18187,170.41731 C 157.97478,169.82636 158.70353,168.93618 158.80133,168.43915 C 159.04278,167.21203 154.73329,167.8094 153.26265,169.20689 C 150.81123,171.53641 154.25379,172.59962 157.18187,170.41731 z M 105.76815,170.51414 C 105.76815,167.82242 104.20936,166.47838 101.08755,166.47838 C 98.061119,166.47838 98.061119,166.47838 98.435009,167.96691 C 98.640649,168.7856 98.850049,169.45594 98.900349,169.45656 C 98.950659,169.45717 99.723659,169.87776 100.61814,170.39121 C 102.71926,171.59729 105.76815,171.67008 105.76815,170.51414 z M 103.17374,163.23563 C 102.94187,160.41006 96.552339,158.47832 96.552339,161.23379 C 96.552339,162.63279 98.059199,164.31163 99.314899,164.31163 C 99.847409,164.31163 100.44249,164.56933 100.63729,164.8843 C 101.53237,166.33143 103.33181,165.16181 103.17374,163.23563 z M 200.09465,163.4991 C 200.91556,162.51074 202.08219,162.44292 202.42434,163.36368 C 202.56581,163.74439 202.93566,163.38871 203.26926,162.55115 C 204.02742,160.64759 205.68197,160.48185 205.21106,162.35663 C 204.8765,163.68863 205.71562,164.76145 206.32341,163.77878 C 206.51069,163.47599 207.25939,163.22826 207.98719,163.22826 C 209.4535,163.22826 209.65655,162.72926 208.63283,161.64159 C 208.07496,161.04888 208.23355,160.98741 209.53009,161.29382 C 210.57296,161.54029 211.24975,161.43197 211.53351,160.97318 C 211.76921,160.59212 212.1512,160.46936 212.3824,160.70038 C 212.61359,160.9314 212.45096,161.33766 212.02099,161.60319 C 210.39312,162.6085 212.07626,162.77003 214.9074,161.88021 C 217.33473,161.11732 217.80699,160.77236 217.58506,159.92435 C 217.43686,159.35808 217.58504,158.89475 217.91436,158.89475 C 219.19079,158.89475 218.30616,155.38449 216.98204,155.19526 C 216.11513,155.07137 215.83062,154.76214 216.05233,154.1848 C 216.31623,153.49764 216.06402,153.42049 214.60299,153.74152 C 211.25507,154.47715 197.98869,154.66507 195.06315,154.0183 C 193.50718,153.67431 191.01437,153.27748 189.52358,153.13647 C 188.03279,152.99545 186.10579,152.64894 185.24136,152.36644 C 184.37693,152.08395 183.08641,151.85281 182.37354,151.85281 C 180.77278,151.85281 169.86138,148.20766 168.39633,147.18347 C 167.80822,146.77233 166.8123,146.43593 166.18318,146.43593 C 165.55406,146.43593 162.37604,145.32441 159.12089,143.96587 C 155.86575,142.60734 152.22666,141.09581 151.03403,140.60692 C 149.84139,140.11803 146.79204,138.705 144.2577,137.46685 C 133.38199,132.15357 117.09418,129.8174 114.76856,133.23722 C 112.51479,136.55138 112.94885,140.77221 115.4082,139.45702 C 116.16666,139.05142 116.54804,139.17003 117.04571,139.96631 C 117.94512,141.40538 117.8794,141.56074 116.37121,141.56074 C 114.5362,141.56074 114.27823,142.27023 115.84466,143.0089 C 116.92441,143.51806 117.24833,143.46885 117.68584,142.72918 C 118.06026,142.09617 118.33953,142.01472 118.63325,142.45287 C 119.15888,143.23694 120.92639,143.47894 122.17376,142.93761 C 122.7508,142.6872 123.48368,142.81516 124.02377,143.26063 C 124.72251,143.83694 124.96808,143.8502 125.14625,143.32123 C 125.51534,142.22547 126.91029,142.54674 126.91029,143.7275 C 126.91029,144.32335 127.15424,144.81087 127.4524,144.81087 C 127.75056,144.81087 127.99451,144.55946 127.99451,144.25219 C 127.99451,143.17379 129.67012,143.04624 130.44279,144.06582 C 130.88819,144.65355 131.21993,144.79634 131.22991,144.40461 C 131.25477,143.42809 132.84709,143.5702 133.23629,144.58367 C 133.42892,145.08526 133.97039,145.33394 134.54374,145.18412 C 135.0924,145.04075 135.94339,145.39322 136.48056,145.98634 C 137.01824,146.58001 137.86861,146.93196 138.41827,146.78833 C 138.95702,146.64756 139.75368,146.88797 140.18864,147.32259 C 140.78054,147.91404 141.2447,147.97096 142.03394,147.5489 C 142.90174,147.08483 143.27367,147.23909 144.13474,148.42025 C 144.90406,149.47553 145.6329,149.84266 146.8878,149.80701 C 148.20443,149.76961 148.59455,149.98755 148.59455,150.76053 C 148.59455,152.00841 149.6234,152.41647 150.99111,151.71103 C 151.77537,151.30653 152.19157,151.39145 152.67719,152.05507 C 153.03182,152.53968 153.78298,152.94394 154.34643,152.95341 C 154.90988,152.96289 155.84441,153.32853 156.42318,153.76595 C 157.00194,154.20336 158.02432,154.56125 158.69513,154.56125 C 159.36595,154.56125 160.0787,154.82625 160.27902,155.15013 C 160.47935,155.47401 161.08258,155.62421 161.61953,155.4839 C 162.26064,155.31638 162.68943,155.58655 162.86852,156.27087 C 163.08209,157.08695 163.44384,157.23706 164.53654,156.96302 C 165.56261,156.70569 166.02436,156.85398 166.28143,157.52337 C 166.52623,158.16084 167.00867,158.33894 167.89111,158.11764 C 168.81341,157.88633 169.31177,158.10138 169.75012,158.91982 C 170.15788,159.68113 170.81365,160.0024 171.80471,159.9264 C 175.26141,159.66129 176.6557,159.97078 176.94255,161.06685 C 177.18936,162.00992 177.42552,162.08033 178.70791,161.59314 C 179.85466,161.15749 180.38789,161.21115 181.0736,161.83124 C 181.65196,162.35424 182.23016,162.46422 182.74145,162.14846 C 183.22115,161.85222 183.79387,161.88893 184.2212,162.24331 C 184.60464,162.56129 185.61403,162.68243 186.46428,162.51251 C 187.31453,162.34259 188.26353,162.4567 188.57316,162.76609 C 188.96237,163.155 189.50999,163.12869 190.34748,162.68083 C 191.01373,162.32454 191.71077,162.24312 191.89647,162.49989 C 192.08217,162.75666 193.39738,162.94511 194.81916,162.91867 C 196.36245,162.88996 197.64537,163.16095 198.00264,163.59111 C 198.77561,164.52175 199.26308,164.50032 200.09465,163.4991 z M 194.13148,161.28164 C 194.13148,160.80685 194.59683,160.2968 195.16558,160.14818 C 195.73433,159.99956 196.32136,159.41299 196.47009,158.84467 C 196.61882,158.27636 197.02373,157.81138 197.3699,157.81138 C 198.28959,157.81138 197.50736,160.06109 196.19274,161.19693 C 194.82865,162.37551 194.13148,162.40416 194.13148,161.28164 z M 199.2523,161.556 C 198.69365,160.65277 199.95011,159.61702 200.69795,160.36428 C 201.32349,160.98935 200.93199,162.14488 200.09465,162.14488 C 199.83169,162.14488 199.45263,161.87988 199.2523,161.556 z M 183.69594,160.6881 C 182.72227,160.43386 182.48445,159.8796 183.08958,159.27494 C 183.53379,158.83107 185.45778,159.85793 185.45778,160.53887 C 185.45778,161.08318 185.26987,161.0991 183.69594,160.6881 z M 188.71042,160.51982 C 188.71042,160.22189 189.19832,159.97813 189.79463,159.97813 C 190.39095,159.97813 190.87884,160.22189 190.87884,160.51982 C 190.87884,160.81775 190.39095,161.06151 189.79463,161.06151 C 189.19832,161.06151 188.71042,160.81775 188.71042,160.51982 z M 215.04755,160.59252 C 214.81402,160.21496 214.76936,159.75976 214.94829,159.58096 C 215.43346,159.09618 215.96245,159.80918 215.7004,160.59471 C 215.51678,161.14515 215.38909,161.14472 215.04755,160.59252 z M 200.99817,159.617 C 199.8031,158.42286 200.72994,157.75896 203.09694,158.11364 C 204.45004,158.31639 206.58458,158.22307 207.84037,157.90624 C 211.61687,156.95348 214.81837,156.73809 214.58116,157.45273 C 214.46625,157.79895 213.41629,158.21745 212.24792,158.38273 C 211.07955,158.54802 209.59077,158.9746 208.93952,159.33069 C 207.6903,160.01373 201.61443,160.23279 200.99817,159.617 z M 191.71516,158.3905 C 191.31424,157.74231 192.33404,157.10007 193.05611,157.54599 C 193.66238,157.9204 193.26437,158.89475 192.50516,158.89475 C 192.2422,158.89475 191.8867,158.66784 191.71516,158.3905 z M 186.85801,157.88408 C 186.62449,157.50652 186.57983,157.05133 186.75876,156.87253 C 187.24393,156.38774 187.77292,157.10074 187.51087,157.88627 C 187.32725,158.43671 187.19956,158.43629 186.85801,157.88408 z M 180.92549,156.89384 C 180.31498,156.2838 180.55366,155.64463 181.39198,155.64463 C 181.83922,155.64463 182.20514,155.874 182.20514,156.15434 C 182.20514,156.8374 181.3586,157.32661 180.92549,156.89384 z M 164.85774,151.27915 C 164.85774,150.96364 165.10169,150.85615 165.39985,151.04028 C 165.698,151.22441 165.94195,151.48256 165.94195,151.61394 C 165.94195,151.74532 165.698,151.85281 165.39985,151.85281 C 165.10169,151.85281 164.85774,151.59467 164.85774,151.27915 z M 160.79194,150.22775 C 160.60767,149.92982 160.83722,149.68606 161.30205,149.68606 C 161.76689,149.68606 162.14721,149.92982 162.14721,150.22775 C 162.14721,150.52568 161.91766,150.76944 161.6371,150.76944 C 161.35653,150.76944 160.97621,150.52568 160.79194,150.22775 z M 156.86167,148.46726 C 156.98591,148.09485 157.41281,147.79015 157.81036,147.79015 C 158.2079,147.79015 158.63481,148.09485 158.75904,148.46726 C 158.89341,148.87006 158.50907,149.14437 157.81036,149.14437 C 157.11164,149.14437 156.7273,148.87006 156.86167,148.46726 z M 152.63115,147.47211 C 152.10482,146.62115 153.13458,145.79829 154.20985,146.21059 C 154.92259,146.48388 154.98854,146.72976 154.50518,147.31172 C 153.75662,148.21298 153.12294,148.26722 152.63115,147.47211 z M 148.73008,145.75882 C 148.85431,145.38641 149.28122,145.08172 149.67876,145.08172 C 150.0763,145.08172 150.50321,145.38641 150.62745,145.75882 C 150.76181,146.16162 150.37748,146.43593 149.67876,146.43593 C 148.98005,146.43593 148.59571,146.16162 148.73008,145.75882 z M 145.34191,143.7275 C 145.34191,143.42957 145.60026,143.18581 145.91601,143.18581 C 146.23177,143.18581 146.33934,143.42957 146.15507,143.7275 C 145.9708,144.02542 145.71245,144.26918 145.58097,144.26918 C 145.44949,144.26918 145.34191,144.02542 145.34191,143.7275 z M 141.54717,142.37328 C 141.54717,141.92638 141.91309,141.56074 142.36033,141.56074 C 142.80756,141.56074 143.17348,141.92638 143.17348,142.37328 C 143.17348,142.82017 142.80756,143.18581 142.36033,143.18581 C 141.91309,143.18581 141.54717,142.82017 141.54717,142.37328 z M 138.29453,141.33504 C 138.29453,140.86332 138.68078,140.47737 139.15286,140.47737 C 139.62495,140.47737 139.91463,140.76683 139.79661,141.12062 C 139.46155,142.12503 138.29453,142.29162 138.29453,141.33504 z M 134.09295,140.34195 C 134.43449,139.31697 136.1261,139.17125 136.1261,140.16681 C 136.1261,140.66929 135.6626,141.01906 134.99672,141.01906 C 134.33427,141.01906 133.96061,140.7391 134.09295,140.34195 z M 130.70504,139.12315 C 130.70504,138.67626 131.07096,138.31062 131.5182,138.31062 C 131.96544,138.31062 132.33136,138.67626 132.33136,139.12315 C 132.33136,139.57004 131.96544,139.93568 131.5182,139.93568 C 131.07096,139.93568 130.70504,139.57004 130.70504,139.12315 z M 127.4524,138.31062 C 127.4524,137.26968 128.51255,136.84207 129.25472,137.58367 C 129.66511,137.99374 128.63902,139.39399 127.92813,139.39399 C 127.66648,139.39399 127.4524,138.90647 127.4524,138.31062 z M 119.66747,137.93477 C 119.01957,137.28736 119.31743,136.14387 120.13396,136.14387 C 120.5812,136.14387 120.94712,136.49512 120.94712,136.92443 C 120.94712,137.8294 120.17339,138.44029 119.66747,137.93477 z M 123.25082,137.63351 C 123.59236,136.60853 125.28397,136.46281 125.28397,137.45837 C 125.28397,137.96086 124.82047,138.31062 124.15459,138.31062 C 123.49215,138.31062 123.11848,138.03066 123.25082,137.63351 z M 115.36009,137.42253 C 114.92699,136.98976 115.41658,136.14387 116.10016,136.14387 C 116.38072,136.14387 116.61027,136.50951 116.61027,136.9564 C 116.61027,137.79407 115.97061,138.03257 115.36009,137.42253 z M 162.36949,161.92931 C 165.24787,160.72757 165.15021,160.1024 162.05147,159.89357 C 159.18039,159.70009 157.81036,160.35235 157.81036,161.91273 C 157.81036,162.91063 159.99998,162.91859 162.36949,161.92931 z M 101.40702,156.05236 C 100.74683,154.22805 100.64442,154.17433 97.826699,154.17433 C 94.490709,154.17433 93.839949,155.52905 96.145759,157.67358 C 99.006959,160.33465 102.56045,159.23966 101.40702,156.05236 z M 149.67876,154.84909 C 149.67876,154.36451 149.36093,154.17543 148.8656,154.36536 C 148.41836,154.53685 148.05244,154.89484 148.05244,155.16089 C 148.05244,155.42694 148.41836,155.64463 148.8656,155.64463 C 149.31284,155.64463 149.67876,155.28664 149.67876,154.84909 z M 100.4271,151.04028 C 100.21301,149.21901 99.561779,148.62315 97.772079,148.61098 C 97.101219,148.60642 96.552339,148.35893 96.552339,148.061 C 96.552339,147.76307 97.153629,147.51931 97.888529,147.51931 C 99.482579,147.51931 100.30825,146.13777 99.830949,144.26918 C 99.515179,143.03295 99.228039,142.91496 96.535319,142.91496 C 93.000599,142.91496 92.515539,143.79656 94.653419,146.33532 C 96.058799,148.00422 96.058799,148.00422 94.659229,148.92055 C 92.933089,150.05068 93.100349,150.65647 95.497009,151.955 C 98.390149,153.52253 100.66919,153.09968 100.4271,151.04028 z M 214.93333,151.35464 C 218.17423,150.58117 218.26265,150.13538 215.79411,147.01487 C 212.27533,142.56671 209.52994,140.26324 204.08393,137.18965 C 202.01901,136.02426 193.91791,135.17445 193.36684,136.06542 C 193.1659,136.3903 192.09699,136.90388 190.99148,137.20669 C 187.7102,138.1055 179.45143,145.09519 178.63548,147.66403 C 178.17239,149.12197 178.74154,149.3723 184.23446,150.12663 C 186.84532,150.48517 191.29898,151.12568 194.13148,151.54999 C 199.5953,152.36846 211.13959,152.26005 214.93333,151.35464 z M 240.75263,148.60269 C 240.75263,148.30476 240.52308,148.061 240.24252,148.061 C 239.96196,148.061 239.58164,148.30476 239.39736,148.60269 C 239.21309,148.90061 239.44264,149.14437 239.90748,149.14437 C 240.37231,149.14437 240.75263,148.90061 240.75263,148.60269 z M 178.9525,142.7917 C 178.9525,142.3939 179.37941,141.91788 179.90119,141.73387 C 181.00629,141.34415 183.28936,139.38139 183.28936,138.82106 C 183.28936,137.42683 174.46328,138.99234 173.46681,140.56332 C 172.54071,142.02335 172.97386,142.64412 174.9187,142.64412 C 176.0669,142.64412 176.71241,142.86344 176.51303,143.18581 C 176.32875,143.48374 175.00251,143.7275 173.56583,143.7275 C 168.93968,143.7275 168.39492,145.87512 172.87659,146.44472 C 175.52614,146.78146 178.9525,144.72143 178.9525,142.7917 z M 240.45417,145.92451 C 240.97875,145.34529 241.91845,144.79684 242.54238,144.70571 C 251.36088,143.41775 247.45054,112.36034 237.83876,107.34781 C 232.19079,104.4024 219.43633,108.52433 223.04392,112.12914 C 223.26629,112.35134 223.58672,112.00396 223.75599,111.35719 C 224.93507,106.85184 233.68371,107.32155 238.22763,112.13416 C 243.0208,117.21075 242.75533,131.15206 237.71651,138.97611 C 235.05802,143.1041 236.32597,146.10782 239.14182,142.3526 C 240.13859,141.02329 241.12506,139.93568 241.33396,139.93568 C 241.54286,139.93568 241.85233,139.26534 242.02166,138.44604 C 242.191,137.62674 242.60568,135.61572 242.94318,133.97712 C 244.45635,126.63045 246.00069,123.94066 245.509,129.50819 C 244.90228,136.37824 242.1703,142.82945 239.10026,144.64157 C 238.22012,145.16108 237.49999,145.89922 237.49999,146.28188 C 237.49999,147.33969 239.37824,147.11248 240.45417,145.92451 z M 244.27632,124.76842 C 244.09205,124.47049 244.336,124.22673 244.81843,124.22673 C 245.30086,124.22673 245.54481,124.47049 245.36053,124.76842 C 245.17626,125.06635 244.93231,125.31011 244.81843,125.31011 C 244.70454,125.31011 244.46059,125.06635 244.27632,124.76842 z M 99.674359,139.93568 C 99.909449,137.66867 96.045439,135.86637 93.852919,137.22037 C 92.915899,137.79904 93.669669,140.88577 94.826349,141.20665 C 97.312279,141.89627 99.531369,141.31451 99.674359,139.93568 z M 187.02974,136.48016 C 187.52626,135.88235 187.3575,135.67715 186.18517,135.45321 C 184.76398,135.18175 182.74725,135.98109 182.74725,136.81586 C 182.74725,137.54048 186.38598,137.25524 187.02974,136.48016 z M 110.66055,132.93997 C 109.93557,131.65 109.32723,133.53756 109.84581,135.46797 C 110.24566,136.9564 110.24566,136.9564 110.69442,135.37757 C 110.94343,134.50151 110.92835,133.41648 110.66055,132.93997 z M 100.11778,133.13274 C 100.56331,130.75969 100.57316,130.7687 97.346139,130.5971 C 94.471549,130.44423 93.938849,131.04812 94.605859,133.70361 C 95.367849,136.73728 99.521809,136.30706 100.11778,133.13274 z M 190.29156,132.69828 C 189.67821,132.16751 185.4072,131.83204 185.72093,132.33927 C 185.90955,132.64423 187.06593,132.89374 188.29066,132.89374 C 189.51539,132.89374 190.41579,132.80578 190.29156,132.69828 z M 99.940499,128.60168 C 100.16412,128.57889 100.34708,127.46332 100.34708,126.12264 C 100.34708,122.62532 96.855609,122.26533 96.406749,125.71638 C 96.120319,127.91861 96.986109,129.1344 98.616899,128.81995 C 99.121259,128.7227 99.716879,128.62448 99.940499,128.60168 z M 110.46402,127.34144 C 110.31364,126.96903 110.19059,127.27373 110.19059,128.01855 C 110.19059,128.76337 110.31364,129.06807 110.46402,128.69566 C 110.61441,128.32325 110.61441,127.71385 110.46402,127.34144 z M 99.804979,121.13563 C 99.804979,120.46604 98.000629,118.80986 97.271149,118.80986 C 96.590379,118.80986 96.711609,120.84063 97.473349,122.19687 C 97.723369,122.64204 99.804979,121.69459 99.804979,121.13563 z M 82.322049,118.56137 C 84.489669,117.89354 85.168099,117.43126 85.168099,116.62212 C 85.168099,115.36373 84.465519,115.25578 83.373989,116.34647 C 82.940949,116.77917 82.451859,116.99852 82.287119,116.83391 C 82.122379,116.6693 81.666429,116.7361 81.273899,116.98236 C 80.515679,117.45803 78.899309,117.67876 74.732559,117.87565 C 72.338979,117.98875 71.586509,118.58342 72.564129,119.58932 C 73.155359,120.19766 79.014489,119.58042 82.322049,118.56137 z M 86.241699,112.90386 C 90.938929,111.25094 91.188729,109.49135 86.940599,107.9808 C 85.518489,107.47512 83.191259,106.64646 81.768979,106.13932 C 77.937589,104.77319 77.262399,105.57941 79.204929,109.20096 C 79.801249,110.3127 80.289149,111.57671 80.289149,112.00988 C 80.289149,113.9474 82.382679,114.26181 86.241699,112.90386 z M 93.399079,106.23367 C 93.010089,105.84498 92.757589,105.813 92.757589,106.15242 C 92.757589,106.87545 93.398689,107.51606 93.760489,107.15454 C 93.914539,107.00061 93.751909,106.58622 93.399079,106.23367 z M 76.346989,102.69464 C 76.130889,101.79183 76.100419,101.79183 75.707139,102.69464 C 75.480019,103.21602 75.480019,104.06918 75.707139,104.59055 C 76.226859,105.78361 76.729729,104.29359 76.346989,102.69464 z"
         style="fill:#000000" />
    </g>
  </g>
</svg>
