<?xml version="1.0" encoding="UTF-8" standalone="no"?>
<!-- Created with Inkscape (http://www.inkscape.org/) -->

<svg
   xmlns:dc="http://purl.org/dc/elements/1.1/"
   xmlns:cc="http://creativecommons.org/ns#"
   xmlns:rdf="http://www.w3.org/1999/02/22-rdf-syntax-ns#"
   xmlns:svg="http://www.w3.org/2000/svg"
   xmlns="http://www.w3.org/2000/svg"
   xmlns:sodipodi="http://sodipodi.sourceforge.net/DTD/sodipodi-0.dtd"
   xmlns:inkscape="http://www.inkscape.org/namespaces/inkscape"
   width="86.16349mm"
   height="77.292015mm"
   viewBox="0 0 305.30371 273.86934"
   id="svg8151"
   version="1.1"
   inkscape:version="0.91 r13725"
   sodipodi:docname="stylized_eagle.svg">
  <defs
     id="defs8153" />
  <sodipodi:namedview
     id="base"
     pagecolor="#ffffff"
     bordercolor="#666666"
     borderopacity="1.0"
     inkscape:pageopacity="0.0"
     inkscape:pageshadow="2"
     inkscape:zoom="1"
     inkscape:cx="-44.205286"
     inkscape:cy="74.934675"
     inkscape:document-units="px"
     inkscape:current-layer="layer1"
     showgrid="false"
     fit-margin-top="0"
     fit-margin-left="0"
     fit-margin-right="0"
     fit-margin-bottom="0"
     inkscape:window-width="1920"
     inkscape:window-height="1005"
     inkscape:window-x="-9"
     inkscape:window-y="-9"
     inkscape:window-maximized="1" />
  <metadata
     id="metadata8156">
    <rdf:RDF>
      <cc:Work
         rdf:about="">
        <dc:format>image/svg+xml</dc:format>
        <dc:type
           rdf:resource="http://purl.org/dc/dcmitype/StillImage" />
        <dc:title></dc:title>
      </cc:Work>
    </rdf:RDF>
  </metadata>
  <g
     inkscape:label="Layer 1"
     inkscape:groupmode="layer"
     id="layer1"
     transform="translate(-42.062429,-333.42753)">
    <path
       style="fill:#000000"
       d="m 192.89716,595.15339 c 0,-6.93914 0.74353,-12.1435 1.73478,-12.1435 0.99143,0 1.73479,5.20436 1.73479,12.1435 0,6.93914 -0.74336,12.14349 -1.73479,12.14349 -0.99125,0 -1.73478,-5.20435 -1.73478,-12.14349 z M 170.53595,578.8542 c -2.28037,-1.26388 -5.18006,-4.16366 -6.44403,-6.44396 -5.28086,-9.52796 -1.51082,-18.91339 11.40604,-28.39531 8.46852,-6.21643 12.61917,-10.76838 4.86971,-5.34041 -5.28294,3.70028 -16.69314,3.38033 -23.30874,-0.6536 -5.4102,-3.29894 -5.51778,-3.29887 -8.50907,0.007 -2.3659,2.61429 -2.49203,3.34765 -0.57582,3.34765 3.65279,0 7.50728,6.88376 5.16554,9.22541 -1.34641,1.34597 -1.87721,1.28815 -1.87721,-0.20498 0,-1.14496 -1.5613,-2.08174 -3.46957,-2.08174 -1.90826,0 -3.46957,-0.90164 -3.46957,-2.00366 0,-1.15957 -1.41235,-0.72549 -3.35257,1.03039 -1.84392,1.66872 -2.97937,4.00661 -2.52323,5.19528 0.45615,1.18869 -0.36857,3.15544 -1.83268,4.37053 -1.4641,1.21511 -2.23423,2.9015 -1.71134,3.74752 0.52286,0.84602 0.12403,1.53822 -0.8865,1.53822 -1.01044,0 -1.83717,-2.25845 -1.83717,-5.01875 0,-5.51015 -3.57763,-8.01107 -6.89613,-4.82071 -1.63793,1.57468 -1.97885,1.29276 -1.51248,-1.25071 0.60565,-3.30308 2.16167,-4.47035 10.1434,-7.60913 3.51767,-1.38332 2.54362,-1.61693 -5.15622,-1.23668 l -9.49316,0.46883 4.04731,-3.27732 c 4.30969,-3.48978 8.20687,-4.24391 9.15642,-1.77183 0.31804,0.828 2.18407,2.00378 4.14676,2.61283 2.57695,0.79967 4.90977,-0.29266 8.3957,-3.93118 4.01875,-4.19465 4.51063,-5.63007 2.93695,-8.57053 -1.03965,-1.94259 -1.85755,-5.33979 -1.81755,-7.54931 0.0652,-3.59944 0.38733,-3.42745 3.09741,1.6536 l 3.0247,5.6709 5.91686,-6.1046 c 3.25411,-3.35754 5.07859,-6.1046 4.05402,-6.1046 -1.02439,0 -2.83446,1.17098 -4.02227,2.60217 -3.6708,4.42315 -5.43201,2.87024 -2.71147,-2.39083 1.4201,-2.74614 4.92072,-6.47376 7.77912,-8.28359 2.85841,-1.8098 8.35213,-7.79448 12.20821,-13.29924 6.88189,-9.82421 7.01147,-10.28705 7.03177,-25.11103 0.0174,-8.30629 1.095,-19.13752 2.40806,-24.06941 l 2.38758,-8.96705 -5.8778,0.95382 c -3.77749,0.613 -5.87762,0.25286 -5.87762,-1.00797 0,-1.07898 1.50562,-1.96176 3.3457,-1.96176 3.64774,0 8.79779,-4.31167 8.79779,-7.36546 0,-1.05229 -1.80678,-0.21588 -4.01498,1.8587 -4.74048,4.4534 -8.58355,4.80214 -11.68864,1.0607 -1.96065,-2.36243 -1.70303,-2.57395 2.00212,-1.64402 4.9136,1.23324 10.51453,-3.69844 13.67635,-12.04213 1.87409,-4.94542 1.82863,-5.01992 -1.32208,-2.16848 -3.78929,3.42916 -10.91475,3.87512 -13.91887,0.8711 -3.27458,-3.27456 -2.43321,-5.16758 1.38782,-3.12261 4.10849,2.19875 9.37652,-0.034 12.10377,-5.13007 2.6223,-4.89983 2.24221,-5.37057 -2.79161,-3.45675 -5.44948,2.07192 -10.32354,0.83073 -11.79481,-3.00363 -1.54066,-4.0149 0.14052,-4.87738 3.31709,-1.70123 3.57088,3.57088 10.23765,1.26988 10.99385,-3.79453 0.73676,-4.93336 -6.93498,-8.80712 -10.90954,-5.50864 -2.19971,1.82561 -2.65353,1.71132 -2.65353,-0.66823 0,-1.57878 1.70304,-3.50047 3.78443,-4.27044 3.09746,-1.14579 2.25435,-1.60965 -4.64384,-2.55516 -9.14596,-1.25357 -14.75365,-5.06177 -14.75365,-10.01922 0,-3.76117 5.60162,-7.13565 9.41571,-5.67208 3.49438,1.34095 3.54261,4.14514 0.0711,4.14514 -3.62466,0 -5.35875,5.19319 -2.36694,7.08766 1.33179,0.84322 5.1537,1.46728 8.49316,1.38677 5.4951,-0.13254 5.65991,-0.27155 1.73478,-1.46479 l -4.33696,-1.31843 4.99965,-2.0224 c 2.74998,-1.11231 6.55107,-1.53004 8.44702,-0.9283 1.89594,0.60175 5.3381,0.0821 7.64918,-1.15481 3.54885,-1.89928 4.94483,-1.81018 8.97942,0.57312 5.10252,3.0141 10.39882,1.57701 8.07074,-2.18992 -0.86739,-1.40344 -0.49146,-1.87393 1.07886,-1.35048 4.00649,1.33551 2.87801,7.38684 -1.4933,8.00768 -2.1468,0.30489 -3.90326,1.37175 -3.90326,2.37081 0,0.99904 1.5613,1.40816 3.46956,0.90915 1.90827,-0.49903 3.46957,-0.12664 3.46957,0.82746 0,0.95413 -1.5613,2.14308 -3.46957,2.64211 -3.70237,0.96815 -4.65477,4.76981 -1.6588,6.62136 0.99594,0.61552 3.03761,0.10096 4.53699,-1.14348 2.33588,-1.93866 2.63253,-1.77566 2.07133,1.13836 -0.40473,2.10147 -2.48733,3.73753 -5.45035,4.28175 -4.60117,0.84504 -4.68426,1.03898 -2.04895,4.78403 3.30129,4.69169 5.72461,4.93031 8.80872,0.86739 2.09943,-2.76568 2.30951,-2.62169 2.35982,1.61788 0.0572,4.80272 -4.92089,8.0404 -8.73637,5.68232 -1.2232,-0.75605 -1.68465,0.51129 -1.31653,3.61632 0.80997,6.83196 6.03566,9.66028 9.47869,5.13024 2.57008,-3.38129 2.62265,-3.35922 2.067,0.86739 -0.49355,3.75385 -1.44508,4.33696 -7.07689,4.33696 -7.755,0 -8.97161,4.37508 -2.41169,8.67329 4.21084,2.75903 9.78574,1.96185 9.78574,-1.39932 0,-1.30422 0.5593,-1.33684 1.79152,-0.10443 5.09489,5.09487 -5.13375,11.35802 -12.29252,7.52682 -3.61407,-1.9342 -3.79518,-1.79329 -2.59749,2.02097 0.70797,2.25506 1.60693,13.63431 1.99761,25.28723 l 0.71039,21.18706 7.00194,9.99569 c 3.85105,5.49762 9.34077,11.47646 12.19918,13.28625 2.8584,1.80983 6.35903,5.53745 7.77912,8.2836 2.72049,5.26106 0.95934,6.81397 -2.71147,2.39083 -1.18781,-1.4312 -2.99077,-2.60218 -4.00666,-2.60218 -1.01571,0 0.39692,2.34196 3.13927,5.20435 6.12761,6.39584 7.02865,6.43384 10.2838,0.4337 2.49913,-4.60675 2.59056,-4.63264 2.65752,-0.75335 0.0382,2.20953 -0.78117,5.60672 -1.82083,7.54932 -1.57362,2.94046 -1.08181,4.37587 2.93699,8.57053 3.48588,3.63852 5.81882,4.73084 8.39567,3.93118 1.96273,-0.60905 3.82884,-1.78484 4.14683,-2.61283 0.94042,-2.44818 4.83224,-1.72965 9.02625,1.66642 3.90015,3.15812 3.87655,3.17028 -5.44583,2.80091 -7.7054,-0.3053 -8.59534,-0.0677 -5.02602,1.34208 7.99753,3.15903 9.53802,4.3158 10.14329,7.61671 0.46648,2.54348 0.1249,2.8254 -1.51239,1.25071 -3.31864,-3.19034 -6.89629,-0.68942 -6.89629,4.82073 0,2.7603 -0.82662,5.01875 -1.83714,5.01875 -1.01051,0 -1.40934,-0.6922 -0.88647,-1.53822 0.52286,-0.84602 -0.24721,-2.5324 -1.71137,-3.74752 -1.46416,-1.21509 -2.28887,-3.18183 -1.83262,-4.37053 0.45607,-1.18867 -0.67935,-3.52655 -2.52325,-5.19528 -1.94018,-1.75588 -3.35264,-2.18995 -3.35264,-1.03039 0,1.10202 -1.56131,2.00366 -3.46957,2.00366 -1.90827,0 -3.46957,0.93678 -3.46957,2.08174 0,1.49313 -0.53067,1.55095 -1.87721,0.20453 -2.34162,-2.34165 1.51273,-9.22541 5.16567,-9.22541 1.91607,0 1.78995,-0.73336 -0.57595,-3.34765 -2.99129,-3.30535 -3.09885,-3.30542 -8.50912,-0.007 -5.97235,3.64168 -16.75837,4.40313 -22.07392,1.55832 -5.70883,-3.05528 -3.71938,-0.78842 4.4688,5.09189 8.14915,5.85268 12.99302,13.03162 12.99302,19.25658 0,6.05622 -4.73353,13.26238 -10.19897,15.5262 -6.36805,2.63771 -11.58767,1.13315 -15.20106,-4.38166 -2.52359,-3.85135 -2.5163,-4.57052 0.0867,-8.54236 2.77323,-4.23253 6.21366,-5.51106 8.54816,-3.17665 0.63805,0.63817 -0.0885,2.54061 -1.61561,4.22765 -3.18212,3.5161 -1.93446,6.75553 2.60183,6.75553 4.61175,0 9.41867,-6.26556 9.41867,-12.27709 0,-3.64105 -1.72837,-7.01821 -5.53709,-10.82001 -5.3126,-5.30277 -5.57646,-5.37717 -6.50787,-1.83505 -0.53397,2.03049 -2.85632,4.55088 -5.16081,5.60085 -2.99355,1.36393 -4.19003,3.31115 -4.19003,6.81904 0,5.90681 -3.89927,11.78884 -6.67684,10.07215 -1.09933,-0.67947 -2.86551,-4.67679 -3.9246,-8.88295 -1.20047,-4.7674 -3.1266,-8.02872 -5.11467,-8.65968 -1.75386,-0.55669 -3.69301,-2.60029 -4.30903,-4.54132 -1.10332,-3.47596 -1.1859,-3.46808 -5.47723,0.52243 -2.39644,2.22838 -5.02446,5.77886 -5.84016,7.88996 -2.22659,5.76257 1.3318,14.18042 6.54777,15.48954 5.67518,1.4244 8.31864,-2.47845 4.52085,-6.67491 -2.51405,-2.77796 -2.50451,-3.13372 0.10929,-4.13698 7.57685,-2.9075 11.20429,10.74214 4.16505,15.67262 -4.64992,3.25692 -7.80983,3.32335 -13.30129,0.27963 z M 137.3841,547.4468 c 1.20468,-1.45156 1.39254,-2.60217 0.42483,-2.60217 -0.95413,0 -2.70661,1.17098 -3.8944,2.60217 -1.20469,1.45157 -1.39255,2.60218 -0.42484,2.60218 0.95414,0 2.70662,-1.17098 3.89441,-2.60218 z m 117.96531,0 c -1.18781,-1.43119 -2.94029,-2.60217 -3.89442,-2.60217 -0.96766,0 -0.77978,1.15061 0.42485,2.60217 1.18781,1.4312 2.94029,2.60218 3.89442,2.60218 0.96766,0 0.77996,-1.15061 -0.42485,-2.60218 z m -65.17118,-4.20789 c 1.66262,-1.83726 2.75952,-4.61952 2.43737,-6.18281 -0.45555,-2.21032 -1.91503,-1.46754 -6.56408,3.3405 -5.24894,5.42834 -5.54628,6.18281 -2.43737,6.18281 1.94747,0 4.90129,-1.50322 6.56408,-3.3405 z m 13.0343,-2.84231 c -4.64905,-4.80804 -6.10869,-5.55082 -6.56407,-3.3405 -0.78656,3.81641 4.60758,9.52331 9.00145,9.52331 3.1089,0 2.81139,-0.75447 -2.43738,-6.18281 z m -23.07836,-7.06199 c 10.45486,-4.96116 13.0605,-14.2333 8.70931,-30.99219 l -2.25209,-8.67393 -4.63569,6.99722 c -2.54944,3.84848 -5.84085,11.05608 -7.31403,16.01694 -2.29304,7.72141 -6.25494,12.54891 -10.2989,12.54891 -0.56432,0 0.22258,-2.4145 1.74867,-5.36556 3.87516,-7.49391 2.40337,-7.74656 -4.37669,-0.75129 -4.76181,4.91309 -5.41201,6.43118 -3.65866,8.5438 2.04236,2.4609 5.97997,3.76667 12.89413,4.27595 1.7641,0.12994 5.89688,-1.04 9.18395,-2.59985 z m 50.85036,-1.5653 c 2.20682,-2.19065 1.78527,-3.26823 -3.35091,-8.56755 -6.85969,-7.07724 -8.34952,-6.85538 -4.461,0.66424 1.52592,2.95106 2.31282,5.36556 1.74866,5.36556 -4.04395,0 -8.00603,-4.8275 -10.29889,-12.54891 -1.47336,-4.96086 -4.76459,-12.16846 -7.3142,-16.01694 l -4.63552,-6.99722 -2.2521,8.67393 c -4.30799,16.59198 -1.79862,25.81873 8.43331,31.00898 6.53788,3.31644 18.0232,2.49538 22.13065,-1.58209 z m -38.62949,48.38542 c -2.45559,-2.45562 -1.06603,-5.81876 2.40406,-5.81876 2.42523,0 3.41423,0.94207 3.03587,2.89211 -0.61914,3.19284 -3.58059,4.78603 -5.43993,2.92665 z m -68.79151,-47.74485 c -0.0317,-0.63727 3.37544,-8.83413 7.57154,-18.21524 4.1961,-9.38111 10.19996,-25.00632 13.34195,-34.72267 5.09744,-15.76347 5.4674,-18.19234 3.43522,-22.5522 l -2.27747,-4.88613 -2.15128,6.07177 c -6.98686,19.71983 -29.23069,55.06864 -38.92624,61.85966 -6.652589,4.65967 -5.508811,1.66951 4.3995,-11.50143 9.12649,-12.13168 26.8887,-45.94473 29.31578,-55.80706 2.23787,-9.09342 -2.50322,-6.47147 -10.61123,5.86831 -11.98611,18.24194 -47.011312,52.71609 -50.259072,49.46833 -0.490007,-0.49001 4.422036,-6.26747 10.91563,-12.83883 6.493612,-6.57137 15.357302,-16.61986 19.697112,-22.32998 8.18126,-10.76456 18.96042,-27.74318 18.96042,-29.8652 0,-0.66868 -4.09843,2.74725 -9.10762,7.59093 -15.85878,15.3348 -35.511777,26.53777 -51.176155,29.17238 -8.245363,1.38681 -10.404649,-1.39742 -2.602438,-3.35566 18.180042,-4.5629 57.698583,-33.91254 51.129193,-37.97265 -0.85359,-0.52755 -6.37485,1.32168 -12.26948,4.10939 -14.784595,6.99202 -30.22326,11.53498 -44.336307,13.04636 -8.708064,0.93255 -11.59688,0.74754 -10.710925,-0.68598 0.66725,-1.07963 2.688118,-1.96295 4.49082,-1.96295 5.571296,0 30.990768,-8.64606 44.884434,-15.26678 l 13.218018,-6.29876 -24.286986,-1.14905 c -13.357843,-0.632 -28.775743,-1.24433 -34.262,-1.36073 -14.695397,-0.31183 -12.319765,-3.67978 2.602177,-3.68913 21.374162,-0.0139 51.609849,-2.1821 51.609849,-3.70177 0,-4.27399 -35.56073,-17.90207 -52.964334,-20.29776 l -10.355312,-1.42546 6.939139,-1.43843 c 9.863726,-2.04468 28.257146,1.52391 44.795787,8.69101 7.6492,3.31481 14.23641,5.69817 14.63824,5.29634 1.55769,-1.5577 -14.457198,-16.98584 -24.32403,-23.43282 -5.709194,-3.73039 -15.359038,-8.13019 -21.444091,-9.77735 -6.085052,-1.64714 -11.063729,-3.6596 -11.063729,-4.4721 0,-4.53629 25.393693,1.71411 38.739618,9.53535 4.200747,2.4618 11.587412,8.79758 16.414812,14.07951 8.94769,9.79023 12.50218,11.74529 12.50218,6.87657 0,-5.26757 -8.9983,-17.99609 -19.99307,-28.28116 -9.798826,-9.16632 -16.770058,-13.35081 -37.254831,-22.36229 -4.040869,-1.77764 -4.082955,-1.9159 -0.616438,-2.02529 14.717671,-0.46446 46.400379,17.59521 56.697099,32.31827 9.35853,13.38154 9.99623,13.82253 6.42584,4.44346 -7.5142,-19.73895 -21.95186,-36.71304 -40.701453,-47.85197 -14.913841,-8.86015 -11.196249,-10.97897 4.548155,-2.5922 23.730628,12.64091 50.348498,45.03485 54.126358,65.87174 1.31787,7.26873 -1.46494,11.23625 -9.041,12.89 -8.45586,1.8458 -9.23438,2.41156 -8.67429,6.30383 0.49405,3.43333 1.43142,3.80487 8.49004,3.36508 5.55304,-0.34597 8.61084,0.32038 10.18743,2.22006 1.23902,1.49292 3.54478,2.71442 5.12392,2.71442 5.05903,0 9.90393,4.77343 12.02263,11.84504 2.8329,9.45501 6.73651,10.58555 9.95489,2.88297 1.93255,-4.62517 3.55266,-6.05409 6.86385,-6.05409 4.66223,0 4.69745,0.52958 1.38609,20.81743 -0.54507,3.33947 -1.13021,10.57305 -1.3004,16.07464 -0.1936,6.26533 -1.29068,10.98443 -2.93612,12.62976 -2.34577,2.34589 -2.54493,1.49427 -1.86073,-7.96355 0.42138,-5.8247 0,-11.3631 -0.95118,-12.30757 -2.58327,-2.58322 -7.39244,3.09199 -7.39244,8.72361 0,9.24362 -10.77058,38.57259 -13.25334,36.08978 -0.47733,-0.4773 0.72011,-6.00908 2.66092,-12.29279 5.10096,-16.51466 6.4867,-28.78492 3.46679,-30.69715 -4.08403,-2.58613 -4.56191,-1.97119 -8.4714,10.89996 -4.15922,13.69337 -16.61938,39.66109 -22.31215,46.4999 -1.9856,2.38533 -3.63614,3.81558 -3.66789,3.17832 z m 137.39565,-4.37952 c -6.23638,-8.82332 -17.37508,-32.57854 -21.23602,-45.28985 -3.91228,-12.88005 -4.39004,-13.49505 -8.47425,-10.90881 -3.01974,1.91223 -1.63399,14.18249 3.4668,30.69715 1.94087,6.28371 3.13839,11.81549 2.66098,12.29279 -2.63999,2.64002 -13.25341,-27.00581 -13.25341,-37.02004 0,-3.89675 -1.08233,-6.27515 -3.42689,-7.52989 -2.93109,-1.5687 -3.58962,-1.18611 -4.55086,2.64439 -0.61828,2.46313 -0.72427,8.02535 -0.23559,12.36051 0.81136,7.19832 0.64951,7.64325 -1.86472,5.129 -1.78353,-1.78352 -2.86204,-6.27581 -3.06241,-12.756 -0.17001,-5.50159 -0.75515,-12.73517 -1.30022,-16.07464 -3.31136,-20.28785 -3.27614,-20.81743 1.38609,-20.81743 3.31118,0 4.93113,1.42892 6.86368,6.05409 3.26902,7.82379 6.2728,6.63713 10.89549,-4.30426 2.80219,-6.63257 4.70664,-8.79368 8.55752,-9.7105 2.7243,-0.64858 6.25667,-2.30962 7.84972,-3.69115 1.83332,-1.59002 5.65349,-2.31285 10.40871,-1.9695 6.97609,0.50368 7.51214,0.23699 7.51214,-3.7368 0,-2.93773 -1.08754,-4.45309 -3.46957,-4.83394 -6.5136,-1.0415 -12.76021,-4.14388 -13.80021,-6.85398 -1.89317,-4.93359 4.16001,-20.82404 12.92362,-33.92696 10.73052,-16.04326 27.0767,-31.50841 41.29187,-39.06605 14.59353,-7.75878 20.32457,-6.55798 6.42391,1.34598 -13.50634,7.67981 -29.80135,24.30055 -36.66728,37.4005 -8.50166,16.22076 -8.94073,20.40645 -0.99785,9.51424 6.67389,-9.15217 16.89646,-17.90671 29.8586,-25.57061 6.85899,-4.05535 23.09137,-9.18481 28.50512,-9.00767 3.21958,0.1053 3.14256,0.31356 -0.74856,2.02529 -19.94829,8.77548 -27.41533,13.20896 -36.65531,21.76357 -11.18017,10.35082 -17.95971,19.61805 -19.84403,27.12573 -1.78562,7.11458 2.09232,5.44862 11.6437,-5.00211 10.51384,-11.50372 23.33598,-19.11622 38.50303,-22.85907 16.29206,-4.02045 21.04172,-1.3965 6.27246,3.46517 -15.04579,4.95268 -29.66153,13.96534 -39.27709,24.21993 -4.30834,4.59453 -7.50624,8.68069 -7.10655,9.08035 0.3997,0.39966 7.22833,-2.0154 15.17486,-5.36681 17.06005,-7.19501 34.48266,-10.59151 44.29981,-8.63613 6.91138,1.37655 6.88571,1.39146 -6.35885,3.7059 -18.50339,3.23341 -50.02165,15.53519 -50.02165,19.52377 0,1.57356 29.05643,3.69796 50.57869,3.69796 15.15282,0 19.22349,3.33516 4.50072,3.68756 -5.00919,0.11987 -20.42709,0.73059 -34.262,1.3571 l -25.15438,1.13913 13.21802,6.30237 c 13.888,6.62181 39.30884,15.27039 44.88444,15.27039 1.80279,0 3.83439,0.90077 4.51477,2.00174 0.91389,1.47873 -1.76861,1.69379 -10.26697,0.82312 -13.64339,-1.39782 -30.02167,-6.23123 -44.80412,-13.22229 -5.89462,-2.78771 -11.41592,-4.63694 -12.26961,-4.10939 -6.56928,4.06011 32.94929,33.40975 51.12931,37.97265 7.776,1.95167 5.68923,4.87053 -2.60252,3.64015 -12.27117,-1.8209 -34.88496,-14.32417 -48.1951,-26.6474 -6.64873,-6.1557 -12.08867,-10.74047 -12.08867,-10.18839 0,1.93824 11.15102,19.37798 18.9605,29.65319 4.33974,5.71012 13.20345,15.75861 19.6971,22.32998 6.49364,6.57136 11.40569,12.34882 10.91561,12.83883 -3.24769,3.24776 -38.273,-31.22639 -50.25915,-49.46833 -8.10786,-12.33978 -12.84903,-14.96173 -10.61115,-5.86831 2.42713,9.86233 20.18925,43.67538 29.31578,55.80706 5.29161,7.03401 9.3687,13.04142 9.06043,13.34978 -4.92141,4.92139 -34.68459,-38.58118 -43.58716,-63.70801 l -2.15131,-6.07177 -2.27742,4.88613 c -2.03404,4.3638 -1.66089,6.7745 3.49038,22.5522 3.17241,9.71635 9.18534,25.39853 13.36201,34.84926 7.84175,17.74331 8.72979,22.16189 2.75501,13.70913 z"
       id="path8102-7"
       inkscape:connector-curvature="0"
       sodipodi:nodetypes="sssssccssscscsssssscsssssscssssscsccscssscccsssscsssccsscccccscsscsccsccssssssssscscsccsccsccssscscscssccssccccccsscccsssscsssscsscscssccccssccssscccsssscsccssssscscscccsscscssssccsscsssscccscccsscsscssssscsssssssssssssssssscsscsscsssssssssssssssssssssscsssccscscccssscscscscccscssssscsssccssssscsssssscsssssssscsscsscsssscscssscsccscc" />
  </g>
</svg>
