<?xml version="1.0" encoding="UTF-8" standalone="no"?>
<!-- Created with Inkscape (http://www.inkscape.org/) -->

<svg
   xmlns:dc="http://purl.org/dc/elements/1.1/"
   xmlns:cc="http://creativecommons.org/ns#"
   xmlns:rdf="http://www.w3.org/1999/02/22-rdf-syntax-ns#"
   xmlns:svg="http://www.w3.org/2000/svg"
   xmlns="http://www.w3.org/2000/svg"
   xmlns:sodipodi="http://sodipodi.sourceforge.net/DTD/sodipodi-0.dtd"
   xmlns:inkscape="http://www.inkscape.org/namespaces/inkscape"
   width="286.40625"
   height="392.5"
   id="svg3967"
   version="1.1"
   inkscape:version="0.48+devel r9747"
   sodipodi:docname="german.svg">
  <defs
     id="defs3969" />
  <sodipodi:namedview
     id="base"
     pagecolor="#ffffff"
     bordercolor="#666666"
     borderopacity="1.0"
     inkscape:pageopacity="0.0"
     inkscape:pageshadow="2"
     inkscape:zoom="1"
     inkscape:cx="9.3057195"
     inkscape:cy="190.30011"
     inkscape:document-units="px"
     inkscape:current-layer="layer1"
     showgrid="false"
     fit-margin-top="0"
     fit-margin-left="0"
     fit-margin-right="0"
     fit-margin-bottom="0"
     inkscape:window-width="1280"
     inkscape:window-height="712"
     inkscape:window-x="-4"
     inkscape:window-y="26"
     inkscape:window-maximized="1" />
  <metadata
     id="metadata3972">
    <rdf:RDF>
      <cc:Work
         rdf:about="">
        <dc:format>image/svg+xml</dc:format>
        <dc:type
           rdf:resource="http://purl.org/dc/dcmitype/StillImage" />
        <dc:title></dc:title>
      </cc:Work>
    </rdf:RDF>
  </metadata>
  <g
     inkscape:label="Layer 1"
     inkscape:groupmode="layer"
     id="layer1"
     transform="translate(-233.19428,-330.16229)">
    <g
       transform="matrix(1.8330159,0,0,1.8330159,-968.8272,-389.12289)"
       id="g3757"
       style="fill:none;stroke-width:2.18219602;stroke-miterlimit:4;stroke-dasharray:none">
      <path
         inkscape:connector-curvature="0"
         id="path7280"
         d="m 724.16719,402.03181 c -12.76058,0 -20.71732,10.97548 -40.5625,14.0625 0.0159,11.89826 -4.89116,23.5997 -11.4375,31.3125 2e-5,0 12.75,6.0492 12.75,19.4375 2e-5,20.21482 -21.125,20.25 -21.125,20.25 -2e-5,0 -3.5625,7.44052 -3.5625,22.5 2e-5,34.47102 23.16294,60.5276 40.75,68.5625 17.58706,8.03492 27.70894,11.45054 32.9375,18.75 5.22856,-7.29946 15.28796,-10.71508 32.875,-18.75 17.58706,-8.0349 40.75,-34.09148 40.75,-68.5625 0,-15.05948 -3.56252,-22.5 -3.5625,-22.5 0,0 -21.125,-0.0352 -21.125,-20.25 0,-13.3883 12.74998,-19.4375 12.75,-19.4375 -6.54634,-7.7128 -11.45338,-19.41424 -11.4375,-31.3125 -19.84518,-3.08702 -27.8019,-14.0625 -40.5625,-14.0625 -7.27658,0 -9.6875,3.75 -9.6875,3.75 0,0 -2.47342,-3.75 -9.75,-3.75 z"
         style="fill:none;stroke:#000000;stroke-width:2.1821959;stroke-linecap:butt;stroke-linejoin:miter;stroke-miterlimit:4;stroke-opacity:1;stroke-dasharray:none" />
    </g>
  </g>
</svg>
