<?xml version="1.0" encoding="UTF-8" standalone="no"?>
<!-- Created with Inkscape (http://www.inkscape.org/) -->
<svg
   xmlns:dc="http://purl.org/dc/elements/1.1/"
   xmlns:cc="http://creativecommons.org/ns#"
   xmlns:rdf="http://www.w3.org/1999/02/22-rdf-syntax-ns#"
   xmlns:svg="http://www.w3.org/2000/svg"
   xmlns="http://www.w3.org/2000/svg"
   xmlns:sodipodi="http://sodipodi.sourceforge.net/DTD/sodipodi-0.dtd"
   xmlns:inkscape="http://www.inkscape.org/namespaces/inkscape"
   width="200.00038"
   height="128"
   id="svg2"
   sodipodi:version="0.32"
   inkscape:version="0.46"
   version="1.0"
   sodipodi:docname="dolphin_naiant.svg"
   inkscape:output_extension="org.inkscape.output.svg.inkscape">
  <defs
     id="defs4">
    <inkscape:perspective
       sodipodi:type="inkscape:persp3d"
       inkscape:vp_x="0 : 526.18109 : 1"
       inkscape:vp_y="0 : 1000 : 0"
       inkscape:vp_z="744.09448 : 526.18109 : 1"
       inkscape:persp3d-origin="372.04724 : 350.78739 : 1"
       id="perspective10" />
    <inkscape:perspective
       id="perspective8826"
       inkscape:persp3d-origin="372.04724 : 350.78739 : 1"
       inkscape:vp_z="744.09448 : 526.18109 : 1"
       inkscape:vp_y="0 : 1000 : 0"
       inkscape:vp_x="0 : 526.18109 : 1"
       sodipodi:type="inkscape:persp3d" />
    <inkscape:perspective
       sodipodi:type="inkscape:persp3d"
       inkscape:vp_x="0 : 526.18109 : 1"
       inkscape:vp_y="0 : 1000 : 0"
       inkscape:vp_z="744.09448 : 526.18109 : 1"
       inkscape:persp3d-origin="372.04724 : 350.78739 : 1"
       id="perspective2459" />
    <inkscape:perspective
       sodipodi:type="inkscape:persp3d"
       inkscape:vp_x="0 : 526.18109 : 1"
       inkscape:vp_y="0 : 1000 : 0"
       inkscape:vp_z="744.09448 : 526.18109 : 1"
       inkscape:persp3d-origin="372.04724 : 350.78739 : 1"
       id="perspective2410" />
    <inkscape:perspective
       id="perspective2425"
       inkscape:persp3d-origin="372.04724 : 350.78739 : 1"
       inkscape:vp_z="744.09448 : 526.18109 : 1"
       inkscape:vp_y="0 : 1000 : 0"
       inkscape:vp_x="0 : 526.18109 : 1"
       sodipodi:type="inkscape:persp3d" />
    <inkscape:perspective
       id="perspective3257"
       inkscape:persp3d-origin="372.04724 : 350.78739 : 1"
       inkscape:vp_z="744.09448 : 526.18109 : 1"
       inkscape:vp_y="0 : 1000 : 0"
       inkscape:vp_x="0 : 526.18109 : 1"
       sodipodi:type="inkscape:persp3d" />
    <inkscape:perspective
       id="perspective2492"
       inkscape:persp3d-origin="372.04724 : 350.78739 : 1"
       inkscape:vp_z="744.09448 : 526.18109 : 1"
       inkscape:vp_y="0 : 1000 : 0"
       inkscape:vp_x="0 : 526.18109 : 1"
       sodipodi:type="inkscape:persp3d" />
    <inkscape:perspective
       id="perspective3181"
       inkscape:persp3d-origin="372.04724 : 350.78739 : 1"
       inkscape:vp_z="744.09448 : 526.18109 : 1"
       inkscape:vp_y="0 : 1000 : 0"
       inkscape:vp_x="0 : 526.18109 : 1"
       sodipodi:type="inkscape:persp3d" />
    <inkscape:perspective
       id="perspective3085"
       inkscape:persp3d-origin="372.04724 : 350.78739 : 1"
       inkscape:vp_z="744.09448 : 526.18109 : 1"
       inkscape:vp_y="0 : 1000 : 0"
       inkscape:vp_x="0 : 526.18109 : 1"
       sodipodi:type="inkscape:persp3d" />
    <inkscape:perspective
       id="perspective3009"
       inkscape:persp3d-origin="372.04724 : 350.78739 : 1"
       inkscape:vp_z="744.09448 : 526.18109 : 1"
       inkscape:vp_y="0 : 1000 : 0"
       inkscape:vp_x="0 : 526.18109 : 1"
       sodipodi:type="inkscape:persp3d" />
    <inkscape:perspective
       id="perspective2933"
       inkscape:persp3d-origin="372.04724 : 350.78739 : 1"
       inkscape:vp_z="744.09448 : 526.18109 : 1"
       inkscape:vp_y="0 : 1000 : 0"
       inkscape:vp_x="0 : 526.18109 : 1"
       sodipodi:type="inkscape:persp3d" />
    <inkscape:perspective
       id="perspective2857"
       inkscape:persp3d-origin="372.04724 : 350.78739 : 1"
       inkscape:vp_z="744.09448 : 526.18109 : 1"
       inkscape:vp_y="0 : 1000 : 0"
       inkscape:vp_x="0 : 526.18109 : 1"
       sodipodi:type="inkscape:persp3d" />
    <inkscape:perspective
       id="perspective2781"
       inkscape:persp3d-origin="372.04724 : 350.78739 : 1"
       inkscape:vp_z="744.09448 : 526.18109 : 1"
       inkscape:vp_y="0 : 1000 : 0"
       inkscape:vp_x="0 : 526.18109 : 1"
       sodipodi:type="inkscape:persp3d" />
    <inkscape:perspective
       id="perspective2705"
       inkscape:persp3d-origin="372.04724 : 350.78739 : 1"
       inkscape:vp_z="744.09448 : 526.18109 : 1"
       inkscape:vp_y="0 : 1000 : 0"
       inkscape:vp_x="0 : 526.18109 : 1"
       sodipodi:type="inkscape:persp3d" />
    <inkscape:perspective
       id="perspective2629"
       inkscape:persp3d-origin="372.04724 : 350.78739 : 1"
       inkscape:vp_z="744.09448 : 526.18109 : 1"
       inkscape:vp_y="0 : 1000 : 0"
       inkscape:vp_x="0 : 526.18109 : 1"
       sodipodi:type="inkscape:persp3d" />
    <inkscape:perspective
       id="perspective2741"
       inkscape:persp3d-origin="372.04724 : 350.78739 : 1"
       inkscape:vp_z="744.09448 : 526.18109 : 1"
       inkscape:vp_y="0 : 1000 : 0"
       inkscape:vp_x="0 : 526.18109 : 1"
       sodipodi:type="inkscape:persp3d" />
    <inkscape:perspective
       id="perspective2553"
       inkscape:persp3d-origin="372.04724 : 350.78739 : 1"
       inkscape:vp_z="744.09448 : 526.18109 : 1"
       inkscape:vp_y="0 : 1000 : 0"
       inkscape:vp_x="0 : 526.18109 : 1"
       sodipodi:type="inkscape:persp3d" />
    <inkscape:perspective
       id="perspective2447"
       inkscape:persp3d-origin="372.04724 : 350.78739 : 1"
       inkscape:vp_z="744.09448 : 526.18109 : 1"
       inkscape:vp_y="0 : 1000 : 0"
       inkscape:vp_x="0 : 526.18109 : 1"
       sodipodi:type="inkscape:persp3d" />
    <inkscape:perspective
       sodipodi:type="inkscape:persp3d"
       inkscape:vp_x="0 : 526.18109 : 1"
       inkscape:vp_y="0 : 1000 : 0"
       inkscape:vp_z="744.09448 : 526.18109 : 1"
       inkscape:persp3d-origin="372.04724 : 350.78739 : 1"
       id="perspective3304" />
    <inkscape:perspective
       sodipodi:type="inkscape:persp3d"
       inkscape:vp_x="0 : 526.18109 : 1"
       inkscape:vp_y="0 : 1000 : 0"
       inkscape:vp_z="744.09448 : 526.18109 : 1"
       inkscape:persp3d-origin="372.04724 : 350.78739 : 1"
       id="perspective3289" />
    <inkscape:perspective
       sodipodi:type="inkscape:persp3d"
       inkscape:vp_x="0 : 526.18109 : 1"
       inkscape:vp_y="0 : 1000 : 0"
       inkscape:vp_z="744.09448 : 526.18109 : 1"
       inkscape:persp3d-origin="372.04724 : 350.78739 : 1"
       id="perspective3274" />
    <inkscape:perspective
       id="perspective3265"
       inkscape:persp3d-origin="372.04724 : 350.78739 : 1"
       inkscape:vp_z="744.09448 : 526.18109 : 1"
       inkscape:vp_y="0 : 1000 : 0"
       inkscape:vp_x="0 : 526.18109 : 1"
       sodipodi:type="inkscape:persp3d" />
  </defs>
  <sodipodi:namedview
     id="base"
     pagecolor="#ffffff"
     bordercolor="#666666"
     borderopacity="1.0"
     gridtolerance="10000"
     guidetolerance="10"
     objecttolerance="10"
     inkscape:pageopacity="0.0"
     inkscape:pageshadow="2"
     inkscape:zoom="2.9878047"
     inkscape:cx="100"
     inkscape:cy="123.00001"
     inkscape:document-units="px"
     inkscape:current-layer="layer1"
     showgrid="false"
     inkscape:window-width="1679"
     inkscape:window-height="963"
     inkscape:window-x="1"
     inkscape:window-y="57" />
  <metadata
     id="metadata7">
    <rdf:RDF>
      <cc:Work
         rdf:about="">
        <dc:format>image/svg+xml</dc:format>
        <dc:type
           rdf:resource="http://purl.org/dc/dcmitype/StillImage" />
      </cc:Work>
    </rdf:RDF>
  </metadata>
  <g
     inkscape:label="Layer 1"
     inkscape:groupmode="layer"
     id="layer1"
     transform="translate(-488.42437,-278.51314)">
    <g
       id="g2846"
       inkscape:label="Layer 1"
       transform="translate(438.42437,192.51314)">
      <path
         id="path3310"
         d="M 169.22718,213.75227 C 166.13706,213.44263 164.46913,213.00636 163.52404,212.26054 C 162.32435,211.31378 162.09912,211.28741 161.31257,212.00155 C 158.48429,214.56944 150.47841,211.92156 147.60104,207.46657 C 145.81993,204.70891 145.14697,204.39871 144.21022,205.90357 C 142.70379,208.32359 139.86004,206.64633 139.86004,203.33781 C 139.86004,201.48749 137.7092,197.60432 136.1835,196.70014 C 135.32901,196.19374 134.62988,195.59419 134.62988,195.36782 C 134.62988,194.76231 132.78229,194.86697 131.27027,195.55814 C 130.12236,196.08287 129.81962,195.99876 128.90949,194.90225 C 126.91146,192.49506 127.65261,190.06824 131.91596,185.05791 C 136.42317,179.76096 136.89659,172.22424 132.97724,168.16264 C 132.577,167.74786 131.78483,166.66855 131.21688,165.76416 C 126.10793,157.62882 118.41238,152.9193 110.04811,152.80932 C 104.59887,152.73766 97.495711,155.68959 97.495711,158.02585 C 97.495711,158.42449 97.318816,158.75064 97.102612,158.75064 C 95.516251,158.75064 93.737671,165.23178 93.65653,171.30817 C 93.580473,177.00348 93.468929,177.66775 92.396301,178.81297 C 91.411984,179.86389 91.219514,180.65816 91.219514,183.66915 C 91.219514,187.01487 89.612959,193.36674 88.067906,196.12973 C 87.787679,196.63086 87.558399,197.63438 87.558399,198.35979 C 87.558399,199.08519 87.348559,199.6787 87.092082,199.6787 C 86.835606,199.6787 86.480802,200.20997 86.303619,200.85931 C 85.890803,202.37225 82.050235,205.03527 80.584728,204.82475 C 78.846137,204.57501 78.941033,203.09682 80.959071,198.99377 C 83.540414,193.74541 84.403835,190.93999 84.41269,187.77232 C 84.425331,183.24809 82.259839,184.02096 81.576581,188.78451 C 81.38045,190.15189 80.880948,191.61081 80.466568,192.02653 C 80.052192,192.44225 79.713152,193.26433 79.713152,193.85336 C 79.713152,194.44238 79.242437,195.7651 78.667119,196.79274 C 78.091801,197.82039 77.621086,198.96078 77.621086,199.32694 C 77.621086,199.77883 77.033043,199.92382 75.790529,199.77829 C 73.968873,199.56492 72.978541,196.67613 74.42054,195.78203 C 75.05625,195.38786 75.451028,193.05504 75.004644,192.33043 C 74.783215,191.97097 73.936896,192.83986 72.865554,194.52656 C 68.867423,200.82116 65.420018,203.57748 60.840585,204.14097 C 55.785908,204.76293 54.45365,201.3232 58.068138,196.98286 C 60.307956,194.29324 60.529793,188.19757 58.498334,185.162 C 56.642494,182.38885 56.177412,181.19793 56.177412,179.21895 C 56.177412,178.10384 55.835919,176.95996 55.392888,176.59108 C 54.961399,176.23181 54.608363,175.60318 54.608363,175.19413 C 54.608363,174.78507 54.094578,173.45628 53.466616,172.24124 C 52.838654,171.02621 52.144619,168.96954 51.924316,167.67086 C 51.704014,166.37219 51.115253,162.99677 50.61596,160.16993 C 49.882399,156.01676 49.82707,154.70032 50.327702,153.31134 C 50.668453,152.36594 50.947249,150.70821 50.947249,149.6275 C 50.947249,148.54678 51.202121,147.18478 51.51363,146.60082 C 52.422671,144.89674 52.235849,140.04699 51.169797,137.67522 C 50.208308,135.53608 50.208308,135.53608 51.956886,133.96864 C 53.705464,132.4012 53.705464,132.4012 52.787296,126.65613 C 51.31838,117.46498 56.040288,103.63188 57.99673,111.39479 C 58.442686,113.16428 60.583099,110.97576 61.193945,108.1257 C 61.729556,105.62668 62.794904,103.88411 65.734194,100.69929 C 70.075539,95.995308 74.328755,94.892838 71.845609,99.115158 C 70.879938,100.75718 70.834195,101.06927 71.520492,101.33349 C 72.533925,101.72364 75.191325,99.775568 76.122801,97.959648 C 76.514431,97.196158 77.129435,96.382658 77.48948,96.151868 C 77.849524,95.921088 78.144103,95.462568 78.144103,95.132938 C 78.144103,94.369058 81.74822,90.990398 83.41422,90.192478 C 89.72877,87.168208 94.638525,87.182178 91.797327,90.216338 C 88.394488,93.850288 95.570493,91.781208 100.05368,87.835758 C 102.95703,85.280648 105.34096,85.408828 105.34096,88.120048 C 105.34096,89.955458 119.15876,91.778918 120.20442,90.081498 C 121.45065,88.058498 126.09134,89.956328 126.35155,92.595398 C 126.51126,94.215058 126.73146,94.399838 129.53521,95.266958 C 136.06492,97.286398 139.45842,99.367828 142.44176,103.18329 C 145.43695,107.0139 146.38781,107.68273 147.51007,106.7483 C 149.17023,105.36601 151.22824,110.0586 149.7471,111.84908 C 148.96466,112.79492 151.68798,115.52282 153.71998,115.82864 C 154.34138,115.92217 154.78762,116.41209 154.81924,117.03552 C 154.84851,117.61271 155.3431,119.02944 155.91833,120.18383 C 156.49356,121.33821 157.29336,123.44041 157.69567,124.85539 C 158.24423,126.78478 158.9955,127.90002 160.70021,129.3155 C 163.69827,131.8049 164.30439,133.3471 162.88179,134.86631 C 161.89348,135.92175 161.86596,136.16913 162.52582,138.06665 C 162.91914,139.19772 163.40537,141.39149 163.60633,142.94169 C 163.99582,145.9464 166.28384,149.51355 168.21628,150.12888 C 170.01504,150.70164 170.54622,154.55289 168.82645,154.55289 C 166.78303,154.55289 169.00532,158.3262 171.90891,159.78672 C 173.78349,160.72965 174.11451,162.18695 173.11092,165.07859 C 171.90225,168.56112 172.49403,171.37566 175.02691,174.19117 C 175.52703,174.74708 176.05462,175.57351 176.19933,176.02769 C 176.55006,177.12841 181.2574,179.73939 182.89118,179.73939 C 183.60463,179.73939 184.48135,180.09357 184.83946,180.52647 C 186.37379,182.38125 192.87312,179.64597 196.98962,175.413 C 203.14462,169.08385 204.22249,161.06582 200.45279,149.65113 C 197.86118,141.80374 196.71391,131.61417 197.86323,126.65183 C 198.88384,122.24518 196.60683,116.61154 193.23956,115.21223 C 190.62344,114.12507 191.65067,111.73253 194.77677,111.63188 C 197.40039,111.54742 199.36574,112.57753 200.28369,114.51828 C 200.72219,115.44535 201.30217,116.34102 201.57255,116.50867 C 202.67286,117.19091 204.51908,121.92342 204.64388,124.38158 C 204.93768,130.16838 207.33483,133.85482 210.48012,133.35676 C 212.69643,133.00581 214.02075,134.42861 213.0943,136.16534 C 211.71499,138.75098 213.26663,142.33217 216.3786,143.74546 C 218.75999,144.82697 221.29589,145.2589 221.67272,144.64719 C 224.1379,140.64546 227.27022,143.35335 225.98635,148.37632 C 225.50877,150.24483 228.16125,152.02277 233.29844,153.27759 C 237.85239,154.38995 238.09317,154.5176 239.9283,156.79234 C 241.52288,158.7689 241.60445,161.37424 240.07176,161.37424 C 238.2789,161.37424 238.0119,162.89348 239.42759,165.03969 C 240.18363,166.18586 240.80239,167.3058 240.80262,167.52844 C 240.80342,168.32695 244.23507,171.74398 245.88612,172.59029 C 248.80359,174.08574 249.07332,178.33439 246.31814,179.39509 C 245.56901,179.6835 245.83826,182.36298 246.61637,182.36298 C 246.87049,182.36298 247.07841,182.68089 247.07841,183.06944 C 247.07841,183.458 247.46811,184.55964 247.94442,185.51752 C 248.42073,186.47542 248.78128,188.03722 248.74565,188.9882 C 248.71001,189.93918 248.9087,190.85853 249.18717,191.03119 C 251.67982,192.57675 247.96899,196.74975 244.40727,196.4064 C 240.45874,196.02577 238.66101,193.15793 238.84988,187.54089 C 238.92518,185.30146 234.37868,179.15057 231.98168,178.24898 C 225.17957,175.69053 222.42719,176.00099 218.83552,179.73178 C 218.69169,179.88119 217.97986,180.3096 217.25367,180.68382 C 215.96918,181.34575 214.02874,184.38401 211.17961,190.19437 C 209.68837,193.23553 201.87619,201.44472 199.86343,202.08563 C 199.24506,202.28253 198.30122,203.00213 197.76602,203.68476 C 197.23081,204.36738 196.50101,204.92588 196.14423,204.92588 C 195.78746,204.92588 194.27587,205.51619 192.78515,206.23768 C 191.29443,206.95917 189.66172,207.55718 189.1569,207.56661 C 188.19214,207.58461 183.41692,209.15176 182.436,209.7723 C 182.1209,209.97164 180.86648,210.29461 179.64839,210.49002 C 177.84449,210.77941 177.47992,211.02272 177.68297,211.8017 C 178.20452,213.80263 175.63805,214.39466 169.22718,213.75227 z"
         style="fill:#ffff00;fill-opacity:1" />
      <path
         id="path3295"
         d="M 169.22741,213.75227 C 166.13729,213.44263 164.46935,213.00636 163.52426,212.26054 C 162.32456,211.31378 162.09934,211.28741 161.31279,212.00155 C 158.4845,214.56944 150.4786,211.92156 147.60123,207.46657 C 145.82012,204.70891 145.14715,204.39871 144.2104,205.90357 C 142.70397,208.32359 139.86022,206.64633 139.86022,203.33781 C 139.86022,201.48748 137.70937,197.60432 136.18367,196.70014 C 135.32918,196.19373 134.63004,195.59419 134.63004,195.36781 C 134.63004,194.76231 132.78245,194.86697 131.27042,195.55814 C 130.12252,196.08286 129.81977,195.99875 128.90964,194.90224 C 126.91161,192.49506 127.65277,190.06824 131.91612,185.0579 C 136.42334,179.76096 136.89676,172.22424 132.9774,168.16264 C 132.57716,167.74786 131.78499,166.66854 131.21703,165.76415 C 126.10808,157.62881 118.41252,152.9193 110.04822,152.80931 C 104.59897,152.73765 97.49581,155.68959 97.49581,158.02584 C 97.49581,158.42448 97.31891,158.75064 97.10271,158.75064 C 95.51634,158.75064 93.73775,165.23177 93.65661,171.30817 C 93.58056,177.00348 93.46902,177.66774 92.39639,178.81296 C 91.41207,179.86389 91.2196,180.65815 91.2196,183.66915 C 91.2196,187.01487 89.61304,193.36674 88.06798,196.12973 C 87.78775,196.63085 87.55847,197.63438 87.55847,198.35978 C 87.55847,199.08518 87.34863,199.6787 87.09215,199.6787 C 86.83568,199.6787 86.48087,200.20997 86.30369,200.85931 C 85.89087,202.37225 82.0503,205.03526 80.58479,204.82475 C 78.84619,204.57501 78.94109,203.09682 80.95913,198.99377 C 83.54048,193.74541 84.40391,190.93999 84.41276,187.77232 C 84.4254,183.24809 82.2599,184.02095 81.57664,188.78451 C 81.38051,190.15189 80.88101,191.6108 80.46663,192.02653 C 80.05225,192.44225 79.71321,193.26433 79.71321,193.85335 C 79.71321,194.44238 79.2425,195.7651 78.66718,196.79274 C 78.09186,197.82038 77.62114,198.96077 77.62114,199.32694 C 77.62114,199.77882 77.03309,199.92381 75.79058,199.77828 C 73.96892,199.56492 72.97859,196.67613 74.42059,195.78203 C 75.0563,195.38786 75.45108,193.05504 75.00469,192.33043 C 74.78326,191.97097 73.93694,192.83986 72.8656,194.52656 C 68.86746,200.82115 65.42005,203.57748 60.84061,204.14096 C 55.78592,204.76293 54.45366,201.3232 58.06816,196.98286 C 60.30798,194.29324 60.52982,188.19757 58.49835,185.16199 C 56.64251,182.38884 56.17743,181.19793 56.17743,179.21894 C 56.17743,178.10383 55.83593,176.95996 55.3929,176.59108 C 54.96141,176.23181 54.60838,175.60318 54.60838,175.19413 C 54.60838,174.78507 54.09459,173.45628 53.46662,172.24124 C 52.83866,171.02621 52.14463,168.96954 51.92432,167.67086 C 51.70402,166.37218 51.11526,162.99676 50.61596,160.16993 C 49.8824,156.01676 49.82707,154.70031 50.3277,153.31133 C 50.66846,152.36594 50.94725,150.70821 50.94725,149.62749 C 50.94725,148.54678 51.20213,147.18478 51.51364,146.60082 C 52.42268,144.89674 52.23585,140.04699 51.1698,137.67522 C 50.20831,135.53608 50.20831,135.53608 51.95689,133.96864 C 53.70547,132.4012 53.70547,132.4012 52.7873,126.65613 C 51.31838,117.46498 56.0403,103.63187 57.99675,111.39478 C 58.44271,113.16428 60.58312,110.97575 61.19397,108.1257 C 61.72958,105.62668 62.79493,103.88411 65.73423,100.69929 C 70.07558,95.995304 74.32881,94.892834 71.84565,99.115154 C 70.87998,100.75717 70.83424,101.06927 71.52054,101.33349 C 72.53397,101.72364 75.19137,99.775574 76.12285,97.959654 C 76.51448,97.196154 77.12949,96.382664 77.48953,96.151874 C 77.84958,95.921084 78.14416,95.462564 78.14416,95.132934 C 78.14416,94.369064 81.74828,90.990394 83.41429,90.192484 C 89.72885,87.168204 94.63861,87.182184 91.79741,90.216344 C 88.39456,93.850284 95.57058,91.781204 100.05377,87.835754 C 102.95714,85.280644 105.34107,85.408824 105.34107,88.120044 C 105.34107,89.955464 119.15889,91.778924 120.20456,90.081494 C 121.45079,88.058494 126.09149,89.956334 126.3517,92.595394 C 126.51141,94.215054 126.73161,94.399844 129.53537,95.266954 C 136.06508,97.286394 139.4586,99.367834 142.44194,103.18329 C 145.43714,107.0139 146.388,107.68272 147.51026,106.7483 C 149.17042,105.366 151.22844,110.0586 149.74729,111.84908 C 148.96485,112.79492 151.68817,115.52281 153.72018,115.82864 C 154.34158,115.92216 154.78782,116.41209 154.81944,117.03551 C 154.84871,117.6127 155.34331,119.02944 155.91854,120.18382 C 156.49377,121.3382 157.29357,123.4404 157.69587,124.85538 C 158.24444,126.78477 158.99571,127.90001 160.70042,129.31549 C 163.69849,131.8049 164.30461,133.34709 162.88201,134.8663 C 161.8937,135.92174 161.86618,136.16912 162.52603,138.06664 C 162.91936,139.19771 163.40559,141.39148 163.60655,142.94169 C 163.99604,145.94639 166.28407,149.51355 168.21651,150.12888 C 170.01527,150.70164 170.54645,154.55289 168.82668,154.55289 C 166.78326,154.55289 169.00555,158.3262 171.90914,159.78672 C 173.78373,160.72964 174.11475,162.18694 173.11115,165.07859 C 171.90249,168.56112 172.49427,171.37566 175.02716,174.19117 C 175.52727,174.74708 176.05486,175.57351 176.19957,176.02768 C 176.55031,177.12841 181.25765,179.73939 182.89144,179.73939 C 183.60489,179.73939 184.48161,180.09357 184.83972,180.52647 C 186.37405,182.38125 192.8734,179.64597 196.98991,175.41299 C 203.14492,169.08385 204.22278,161.06582 200.45308,149.65113 C 197.86147,141.80374 196.71419,131.61417 197.86351,126.65182 C 198.88413,122.24517 196.60711,116.61154 193.23984,115.21223 C 190.62371,114.12507 191.65094,111.73252 194.77705,111.63188 C 197.40067,111.54741 199.36602,112.57753 200.28398,114.51828 C 200.72248,115.44534 201.30246,116.34102 201.57284,116.50866 C 202.67316,117.19091 204.51938,121.92341 204.64418,124.38157 C 204.93797,130.16837 207.33513,133.85481 210.48042,133.35676 C 212.69674,133.0058 214.02106,134.4286 213.09461,136.16533 C 211.7153,138.75098 213.26695,142.33216 216.37892,143.74546 C 218.76031,144.82696 221.29622,145.2589 221.67305,144.64719 C 224.13823,140.64546 227.27056,143.35334 225.98669,148.37632 C 225.50911,150.24482 228.16159,152.02277 233.2988,153.27759 C 237.85276,154.38994 238.09353,154.51759 239.92867,156.79234 C 241.52324,158.7689 241.60482,161.37424 240.07213,161.37424 C 238.27926,161.37424 238.01227,162.89348 239.42796,165.03969 C 240.184,166.18586 240.80276,167.3058 240.80299,167.52843 C 240.80379,168.32695 244.23545,171.74398 245.8865,172.59028 C 248.80397,174.08573 249.07371,178.33438 246.31851,179.39508 C 245.56939,179.68349 245.83864,182.36298 246.61674,182.36298 C 246.87087,182.36298 247.07879,182.68089 247.07879,183.06944 C 247.07879,183.458 247.46849,184.55963 247.94481,185.51752 C 248.42111,186.47541 248.78166,188.03722 248.74603,188.98819 C 248.71039,189.93918 248.90908,190.85853 249.18756,191.03119 C 251.68021,192.57675 247.96937,196.74975 244.40765,196.4064 C 240.4591,196.02577 238.66138,193.15792 238.85024,187.54088 C 238.92554,185.30146 234.37904,179.15056 231.98203,178.24898 C 225.17991,175.69053 222.42752,176.00098 218.83585,179.73178 C 218.69202,179.88118 217.98018,180.3096 217.25399,180.68382 C 215.9695,181.34574 214.02906,184.38401 211.17992,190.19437 C 209.68868,193.23553 201.87648,201.44472 199.86372,202.08562 C 199.24535,202.28252 198.30151,203.00213 197.7663,203.68476 C 197.23109,204.36738 196.50129,204.92588 196.14451,204.92588 C 195.78774,204.92588 194.27615,205.51619 192.78543,206.23768 C 191.2947,206.95917 189.66199,207.55718 189.15717,207.56661 C 188.1924,207.58461 183.41718,209.15176 182.43625,209.7723 C 182.12115,209.97163 180.86673,210.29461 179.64864,210.49002 C 177.84474,210.77941 177.48016,211.02272 177.68322,211.8017 C 178.20477,213.80262 175.6383,214.39465 169.22741,213.75227 z M 174.02988,211.71396 C 174.36593,211.69567 174.08958,211.45909 173.41579,211.18823 C 172.06984,210.64717 171.03945,210.99512 171.54714,211.81925 C 171.72476,212.10758 172.21857,212.20933 172.64449,212.04536 C 173.07041,211.88139 173.69383,211.73226 174.02988,211.71396 z M 168.27877,208.47468 C 167.69259,207.82152 167.07615,206.89617 166.90889,206.41834 C 166.74163,205.94051 165.90141,205.39457 165.04172,205.20514 C 164.18203,205.0157 162.83116,204.25868 162.03978,203.52287 C 161.2484,202.78706 159.64114,201.65091 158.46808,200.99809 C 155.5101,199.35193 150.38154,194.66792 148.21157,191.6306 C 147.21407,190.2344 146.16258,188.81766 145.87492,188.48229 C 145.14326,187.62928 141.32211,181.82004 140.56046,180.4028 C 138.47054,176.51395 137.46807,177.03743 136.33872,182.60738 C 136.16111,183.4834 134.90575,185.28466 133.46657,186.72853 C 130.43798,189.76696 130.10486,192.0289 132.67206,192.12327 C 134.40458,192.18696 138.16133,193.79835 139.56657,195.08055 C 141.44334,196.79298 141.54446,196.53907 141.64823,189.85369 C 141.69214,187.02437 142.49472,186.10075 143.05468,188.2351 C 143.22951,188.90147 143.25309,191.98501 143.10708,195.08741 C 142.84161,200.72813 142.84161,200.72813 144.65621,200.72813 C 146.53122,200.72813 147.65913,201.64636 149.60197,204.75444 C 151.35536,207.55945 154.32991,209.64835 156.5708,209.64835 C 158.00172,209.64835 157.92856,208.50748 156.33527,205.97532 C 155.02219,203.8885 154.58042,201.25285 155.54372,201.25285 C 155.82752,201.25285 156.38998,202.04584 156.79363,203.01506 C 157.69602,205.18181 159.11374,206.54457 161.98083,208.00118 C 167.42029,210.76465 170.5447,210.99955 168.27877,208.47468 z M 176.47144,209.18788 C 176.47144,208.46103 175.33961,207.78354 173.01114,207.11663 C 170.39873,206.36838 168.62617,206.32378 168.62617,207.0063 C 168.62617,207.83131 170.8603,208.79408 172.54881,208.69671 C 173.41178,208.64694 174.47089,208.83708 174.90238,209.11925 C 175.88299,209.7605 176.47144,209.78624 176.47144,209.18788 z M 182.5143,208.02848 C 183.08167,207.10746 181.88762,206.33943 180.45082,206.70122 C 179.55477,206.92685 179.2206,207.28947 179.42245,207.81718 C 179.76796,208.72051 181.99426,208.87265 182.5143,208.02848 z M 186.40877,204.7055 C 189.10518,204.13057 195.98267,201.75308 196.73836,201.13465 C 198.27824,199.87449 197.43975,199.03968 195.69233,200.09321 C 193.02309,201.70252 191.39289,201.90843 190.03764,200.80745 C 188.85211,199.84434 188.85211,199.84434 190.49645,199.5144 C 192.859,199.04035 192.17884,197.57982 189.59552,197.57982 C 187.13839,197.57982 186.42334,198.3128 186.77281,200.47333 C 187.09979,202.4948 185.89089,203.20199 183.60125,202.32864 C 181.73561,201.61701 181.86205,200.72813 183.82893,200.72813 C 185.24419,200.72813 185.39337,200.58902 185.09497,199.54752 C 184.90893,198.89818 184.64185,197.95368 184.50146,197.44864 C 184.33666,196.85576 184.53668,196.53039 185.06598,196.53039 C 185.53707,196.53039 185.88575,196.08402 185.88575,195.48095 C 185.88575,194.12077 186.67046,194.14216 187.6385,195.52873 C 188.72849,197.08997 190.35963,196.63464 190.23293,194.80449 C 190.13222,193.34954 190.78414,193.02123 192.10621,193.86111 C 192.53308,194.1323 192.71589,194.78094 192.54752,195.42691 C 192.20877,196.72649 193.20421,199.14401 194.0805,199.14989 C 195.55463,199.15976 196.18286,198.53384 195.94608,197.29117 C 195.76629,196.3476 195.9304,196.00567 196.56305,196.00567 C 197.0371,196.00567 197.56716,195.63391 197.74094,195.17955 C 197.95267,194.62601 198.4452,194.45121 199.23373,194.64976 C 200.81785,195.04864 201.90532,193.78454 200.78239,192.84957 C 199.26908,191.58954 201.66567,190.00853 203.87438,190.8098 C 205.87367,191.53511 207.19835,191.2031 207.69544,189.85212 C 207.88368,189.34054 208.17797,188.8039 208.34943,188.65961 C 210.20884,187.09473 210.98771,183.7566 209.6665,183.01481 C 208.47601,182.34641 207.98153,178.68995 209.08163,178.68995 C 209.93652,178.68995 210.66717,180.49576 210.36916,181.87209 C 210.06924,183.25721 211.62545,182.64569 213.01563,180.83216 C 214.3902,179.03897 214.3902,179.03897 212.9519,179.39918 C 211.1814,179.84258 211.1648,179.64633 212.82115,177.85329 C 214.34804,176.20039 214.44575,175.63076 213.27942,175.18174 C 212.76834,174.98499 212.23731,175.20049 211.94589,175.72293 C 211.11668,177.20947 210.15536,176.71476 210.1005,174.77327 C 210.06246,173.42693 210.3042,172.87425 211.03255,172.64233 C 212.06107,172.31482 214.12869,168.24948 214.12869,166.55472 C 214.12869,165.31761 214.95964,165.28214 215.63949,166.49024 C 216.10402,167.31571 216.35769,167.2155 218.14981,165.49862 C 220.53666,163.21198 222.36984,162.2547 226.00143,161.39855 C 227.4974,161.04587 228.9972,160.42388 229.33433,160.01634 C 230.1254,159.06006 232.4343,159.04655 232.4343,159.99819 C 232.4343,161.06816 233.81755,162.10036 234.2691,161.36735 C 234.46648,161.04694 235.19352,160.56907 235.88472,160.30542 C 238.70445,159.22987 236.0535,156.55464 231.48724,155.86766 C 227.45614,155.26119 224.74357,153.68276 223.71568,151.34541 C 222.5912,148.78844 222.15847,148.91811 220.84286,152.20624 C 220.26873,153.6412 218.99388,156.50466 218.00987,158.56949 C 217.02586,160.63432 216.22076,162.7004 216.22076,163.16078 C 216.22076,163.62115 215.86772,163.99783 215.43623,163.99783 C 214.10919,163.99783 215.0999,159.63129 217.40059,155.33997 C 221.15843,148.33072 221.15977,148.14625 217.45921,147.2831 C 215.8348,146.90422 213.90176,146.02693 213.14966,145.32727 C 210.81373,143.15423 209.62331,144.02503 210.46553,147.29074 C 210.71413,148.25467 211.18377,151.0504 211.50919,153.50346 C 211.83461,155.95651 212.34964,159.10359 212.65372,160.49695 C 213.60495,164.85576 212.20835,170.76279 210.02812,171.60215 C 208.77797,172.08343 208.60354,171.36898 209.56211,169.69333 C 210.58053,167.91307 210.80146,161.10165 209.95958,157.43885 C 207.91747,148.55406 207.68352,139.62662 209.46386,138.52273 C 210.39881,137.94302 209.91894,137.31836 207.71721,136.24905 C 204.67644,134.77225 202.62231,131.54566 202.62231,128.24609 C 202.62231,125.08772 201.73331,122.49861 201.03124,123.61227 C 199.36264,126.25907 201.08158,142.00491 203.87206,149.63495 C 205.33931,153.64686 205.78622,156.13854 205.93055,161.11188 C 206.01276,163.94449 206.13992,164.277 207.19871,164.42786 C 209.16628,164.70821 208.58203,169.58503 206.41418,170.97642 C 205.53591,171.54013 205.58578,173.42844 206.50593,174.45089 C 207.15394,175.17093 207.11665,175.65675 206.22078,178.16523 C 205.42739,180.38675 205.32329,181.27275 205.76866,182.01357 C 206.08687,182.54287 206.19649,183.66446 206.01226,184.50598 C 205.70978,185.88762 205.80814,186.03601 207.0264,186.03601 C 208.66115,186.03601 208.72171,186.51475 207.28294,188.06411 C 206.12484,189.31122 205.00939,189.32333 204.92534,188.08971 C 204.89753,187.68167 204.69468,186.93159 204.47456,186.42287 C 204.24785,185.89893 204.33037,185.18842 204.66489,184.78404 C 206.5248,182.5357 204.40987,181.96792 201.67931,183.98253 C 199.26543,185.76349 198.72175,187.61017 200.6113,187.61017 C 201.70678,187.61017 201.71173,187.63973 200.78791,188.66386 C 199.93531,189.60904 199.74768,189.63605 198.96587,188.92621 C 197.85646,187.91895 195.83805,187.91596 193.92155,188.91873 C 193.09761,189.34985 191.88563,189.70403 191.22828,189.70581 C 190.57092,189.70759 189.49154,190.06503 188.82965,190.50012 C 187.26322,191.52983 181.84889,192.05904 180.90668,191.27454 C 180.38355,190.83897 179.91133,190.84034 179.09285,191.2798 C 175.89513,192.99674 162.93662,184.49245 157.61972,177.18761 C 156.91327,176.21702 154.86685,173.62552 153.07212,171.42871 C 150.25578,167.98143 149.91049,167.33266 150.55043,166.69065 C 151.46564,165.77246 151.30227,165.61082 156.84944,172.92345 C 160.50789,177.74626 162.55602,179.9933 166.79561,183.83562 C 168.67328,185.53734 171.97335,187.41118 174.64088,188.29033 C 179.62478,189.93288 180.3509,190.05992 181.74278,189.53283 C 182.79004,189.13625 183.3962,189.21304 184.31495,189.85864 C 185.45208,190.65772 185.57075,190.63469 186.51367,189.43206 C 187.35256,188.36212 187.66699,188.25894 188.49937,188.78046 C 189.3041,189.28466 189.6864,189.22029 190.55132,188.43501 C 191.82232,187.28102 191.52494,186.56073 189.77751,186.56073 C 188.37856,186.56073 188.15912,186.06401 189.12846,185.09152 C 189.47365,184.7452 189.53249,184.45265 189.25921,184.44139 C 188.98594,184.43013 186.40877,184.34947 183.53217,184.26213 C 176.63769,184.05282 171.56273,181.18528 168.22899,175.61525 C 167.7283,174.77868 166.69692,173.2983 165.93705,172.32552 C 164.30468,170.23575 159.41893,160.69016 158.92185,158.61946 C 158.73132,157.82583 158.3656,157.17649 158.10913,157.17649 C 157.85265,157.17649 157.64297,156.88133 157.64316,156.52059 C 157.64336,156.15984 156.78327,154.09376 155.73187,151.9293 C 154.68045,149.76483 153.4231,147.16748 152.93773,146.15739 C 151.51074,143.18768 146.14445,133.62269 144.73935,131.54443 C 140.30423,124.98446 126.57951,112.06172 124.03894,112.0536 C 123.53554,112.052 123.12366,111.81456 123.12366,111.52596 C 123.12366,111.23737 122.71178,110.99979 122.20838,110.99801 C 121.70497,110.99623 120.58702,110.62305 119.72405,110.16871 C 115.20008,107.78694 101.58163,106.08839 97.2343,107.36369 C 90.6684,109.28982 86.4869,110.91346 85.86668,111.77764 C 85.65533,112.07211 85.47882,112.10879 85.47441,111.85915 C 85.47001,111.60952 84.88629,111.78661 84.17726,112.25269 C 83.46823,112.71878 82.55562,113.10012 82.14923,113.10012 C 81.74285,113.10012 81.08733,113.49173 80.69253,113.97035 C 80.29774,114.44898 79.12663,115.22208 78.09007,115.68834 C 72.93525,118.00709 62.97987,127.96549 62.96951,130.81348 C 62.9568,134.30982 62.42411,135.57914 61.70759,133.82049 C 60.90109,131.84098 59.37871,134.01626 56.19497,141.69729 C 53.44686,148.32731 52.99249,157.50554 54.9286,167.27732 C 55.25821,168.9409 56.17743,169.23057 56.17743,167.67086 C 56.17743,166.11306 57.15516,166.39994 57.51869,168.0644 C 58.06995,170.5884 58.21551,170.81917 59.25634,170.81917 C 59.81716,170.81917 60.61737,170.95059 61.03458,171.11121 C 61.50038,171.29053 61.89564,171.01005 62.0587,170.38448 C 62.26145,169.60662 62.64872,169.42796 63.69648,169.6289 C 64.71973,169.82514 65.06872,169.67635 65.06872,169.04383 C 65.06872,168.50011 65.51587,168.19558 66.31419,168.19558 C 67.63494,168.19558 70.2989,165.2579 70.2989,163.80145 C 70.2989,163.36633 70.53426,162.86439 70.82192,162.68603 C 71.10957,162.50767 71.34493,160.34603 71.34493,157.88238 C 71.34493,153.62183 72.29261,150.35514 73.5286,150.35514 C 74.68135,150.35514 76.57924,147.39608 76.2879,146.05302 C 76.05504,144.97948 76.24243,144.47287 77.06244,143.95911 C 77.65738,143.58635 78.14416,142.74785 78.14416,142.09578 C 78.14416,141.44372 78.37952,140.91021 78.66718,140.91021 C 78.95484,140.91021 79.1902,140.48754 79.1902,139.97095 C 79.1902,138.73574 82.92913,134.61358 84.04951,134.61358 C 84.58339,134.61358 85.03716,134.0521 85.21567,133.17061 C 85.50032,131.76498 86.14175,130.3842 88.14812,126.85802 C 88.68679,125.91131 89.12753,124.71889 89.12753,124.20819 C 89.12753,123.01851 90.12359,122.02034 91.31077,122.02034 C 92.40021,122.02034 93.83468,124.54044 93.83468,126.45439 C 93.83468,128.01149 94.88531,128.21335 96.01856,126.87398 C 97.26865,125.39654 98.51029,121.35437 98.19248,119.79681 C 97.85582,118.14696 99.10522,117.29222 100.34482,118.32434 C 101.76361,119.50566 103.34886,123.22474 103.05721,124.68774 C 102.54616,127.25128 106.29078,129.09209 108.74065,127.48165 C 110.33988,126.43039 115.4848,126.17121 115.59546,127.13634 C 115.63682,127.49709 115.70008,128.14643 115.73604,128.57932 C 115.77911,129.09794 116.36165,129.3664 117.44394,129.3664 C 120.44002,129.3664 124.70602,131.9946 122.86215,132.70446 C 121.7831,133.11988 121.87929,134.27086 123.08452,135.36512 C 124.05455,136.24585 124.09763,136.22482 124.26131,134.79055 C 124.64099,131.46352 130.4459,133.40814 130.4459,136.86236 C 130.4459,137.2886 131.3285,138.29015 132.40722,139.08802 C 134.44101,140.59232 137.71417,144.03395 137.74851,144.70423 C 137.75931,144.91507 138.5919,146.3795 139.59871,147.95852 C 140.60552,149.53753 141.42927,150.94522 141.42927,151.08671 C 141.42927,151.22821 142.3963,152.89131 143.57823,154.7825 C 145.62991,158.06539 145.93129,159.80008 144.44996,159.80008 C 144.07966,159.80008 143.44285,159.04344 143.03483,158.11866 C 142.62681,157.19388 141.39257,155.14769 140.29207,153.57156 C 139.19157,151.99544 138.29042,150.44988 138.2895,150.13698 C 138.28618,149.00196 133.20925,142.04156 130.83817,139.92129 C 130.33476,139.47113 129.92289,138.77022 129.92289,138.36371 C 129.92289,137.31909 126.45991,137.94229 124.60043,139.32153 C 123.39898,140.21269 122.36807,140.38549 118.25295,140.38549 C 110.18226,140.38549 100.8515,144.59165 103.3536,147.10189 C 103.69879,147.4482 104.46371,147.73906 105.05341,147.74824 C 106.12284,147.76489 106.12291,147.76696 105.07956,148.55873 C 104.37634,149.09237 103.43332,149.25097 102.20214,149.04265 C 100.59599,148.7709 100.1457,148.96359 98.54101,150.60934 C 97.53466,151.64144 95.65217,153.07113 94.3577,153.78643 C 93.06323,154.50173 91.59106,155.37956 91.08622,155.73717 C 90.30439,156.29097 89.97485,156.16149 88.86339,154.86379 C 87.18309,152.90194 87.1286,153.10171 90.16151,150.1047 C 92.84483,147.45312 93.93848,147.24579 92.87361,149.59054 C 91.11034,153.47307 94.41625,152.01116 99.78365,146.53484 C 105.29431,140.91235 108.27379,139.19239 114.82699,137.85077 C 121.07778,136.57106 122.01527,135.71634 118.69481,134.32445 C 115.65845,133.05165 111.5904,133.3342 110.08837,134.92223 C 109.3913,135.65921 107.7438,136.81117 106.42725,137.48214 C 105.1107,138.15312 102.04185,140.61566 99.60757,142.95446 C 94.2063,148.14391 93.45135,148.45895 95.39861,144.71091 C 96.84147,141.93371 99.55571,139.441 105.19264,135.71626 C 111.4619,131.57368 114.28323,126.9986 108.75377,129.94151 C 106.45614,131.16437 106.33233,131.17488 104.02648,130.343 C 101.65861,129.48875 101.65861,129.48875 99.9246,132.96942 C 98.69347,135.44068 97.86233,136.49872 97.05868,136.61777 C 95.59817,136.83412 95.63066,136.26954 97.20163,134.13328 C 98.79881,131.96138 101.2882,125.80625 100.85429,125.10189 C 100.47561,124.48717 98.54184,126.06071 98.54184,126.98356 C 98.54184,130.02888 92.36552,132.21389 91.4651,129.48711 C 90.89852,127.7713 90.89852,127.7713 89.78635,128.96239 C 87.8476,131.03871 87.55847,132.79232 87.55847,142.4748 C 87.55847,148.44362 87.36276,151.9073 87.01899,152.02226 C 86.65491,152.14401 86.67229,152.75745 87.07244,153.90906 C 88.17437,157.08034 86.29003,158.47007 84.59867,155.73351 C 84.10816,154.93987 83.13559,153.66038 82.43741,152.8902 C 80.89678,151.19066 81.33009,150.24613 83.55269,150.45915 C 85.19068,150.61614 85.20454,150.59718 85.16407,148.25627 C 85.08041,143.41781 84.32136,137.7619 83.75568,137.7619 C 82.71051,137.7619 80.75925,140.0223 80.75925,141.23307 C 80.75925,141.88721 80.52389,142.56836 80.23623,142.74672 C 79.94857,142.92509 79.71321,143.54619 79.71321,144.12697 C 79.71321,144.70774 79.36018,145.5371 78.92869,145.97 C 78.4972,146.40289 78.14416,147.28285 78.14416,147.92546 C 78.14416,148.56808 77.32788,149.90893 76.33021,150.90512 C 74.42616,152.80633 74.01821,154.21612 75.16832,154.92036 C 75.54523,155.15115 76.16744,156.75671 76.551,158.48828 C 76.93457,160.21985 77.80071,162.47242 78.47574,163.49398 C 79.15078,164.51554 79.85565,166.52259 80.04212,167.95409 C 80.47522,171.27885 81.05869,172.39333 82.36621,172.39333 C 82.94214,172.39333 84.45901,173.47272 85.73702,174.79198 C 88.16197,177.29518 89.53775,177.54371 88.51603,175.294 C 87.86448,173.85934 88.30317,172.14455 89.18231,172.68965 C 90.44776,173.47429 90.51326,171.5983 89.32649,168.56018 C 88.64174,166.80723 88.08149,165.10811 88.08149,164.78436 C 88.08149,164.4606 87.58332,163.65925 86.97446,163.00359 C 86.10019,162.06211 86.00396,161.68275 86.51682,161.19931 C 87.01269,160.73187 87.22288,160.74221 87.40593,161.24306 C 87.67423,161.97717 89.65054,162.1547 89.65054,161.44468 C 89.65054,160.64109 95.28557,155.07761 96.0995,155.07761 C 96.53186,155.07761 96.96407,154.88042 97.05995,154.6394 C 98.41098,151.24351 111.8287,148.8588 118.55514,150.81909 C 123.20384,152.17386 133.52001,161.39685 133.58937,164.26019 C 133.59636,164.54878 134.18641,165.34097 134.90059,166.0206 C 135.61476,166.70023 136.19909,167.45093 136.19909,167.68883 C 136.19909,167.92673 137.09647,169.49577 138.19327,171.17561 C 139.29007,172.85544 140.60171,175.05627 141.10804,176.06636 C 143.0804,180.00103 147.66618,186.93698 149.24008,188.36597 C 149.83435,188.90552 150.32057,189.54367 150.32057,189.78407 C 150.32057,192.43024 165.58549,203.35173 169.28403,203.35173 C 170.26462,203.35173 171.2414,203.52882 171.45465,203.74527 C 172.61814,204.92618 182.4215,205.55568 186.40877,204.7055 z M 176.60219,202.52034 C 174.57326,201.63016 174.38409,200.72813 176.22634,200.72813 C 177.69996,200.72813 178.50242,199.40753 177.58692,198.48904 C 176.70428,197.60353 176.86781,197.0551 178.0145,197.0551 C 178.57552,197.0551 179.28143,196.64189 179.58317,196.13685 C 180.09966,195.27237 180.17776,195.27824 180.9167,196.23714 C 181.94107,197.56643 181.90964,197.89584 180.6365,199.17311 C 180.05069,199.76084 179.71284,200.47132 179.88573,200.75197 C 181.0765,202.68494 179.23625,203.67602 176.60219,202.52034 z M 169.49176,200.818 C 168.37862,199.58398 168.39821,199.15398 169.56761,199.15398 C 170.78461,199.15398 171.76428,198.15573 171.76428,196.91566 C 171.76428,194.75684 172.78028,193.71688 173.89797,194.73166 C 175.22712,195.93843 175.22026,198.11939 173.88622,198.46938 C 173.29535,198.62441 172.73072,199.37246 172.53712,200.25677 C 172.14968,202.02654 170.8054,202.27427 169.49176,200.818 z M 162.6167,198.11001 C 160.95458,196.36949 161.19476,195.26903 162.89903,196.8164 C 163.79611,197.63088 164.15057,197.68719 165.00618,197.15111 C 166.16309,196.42626 166.91437,197.40297 166.34497,198.89162 C 165.86431,200.14826 164.23744,199.8072 162.6167,198.11001 z M 166.13573,195.92083 C 164.89135,194.6724 168.25433,190.44691 169.96742,191.10642 C 170.93071,191.47727 170.92961,192.55287 169.96512,193.35593 C 169.5509,193.70082 169.13902,194.49713 169.04983,195.12551 C 168.86395,196.43521 167.12225,196.91055 166.13573,195.92083 z M 156.65777,194.90103 C 154.74058,192.83647 155.43618,191.3912 157.89555,192.32929 C 159.01723,192.75714 159.2142,193.08361 158.92669,194.03838 C 158.34684,195.96389 157.82796,196.16117 156.65777,194.90103 z M 195.02623,192.8963 C 195.23698,192.23014 195.02621,191.70575 194.40771,191.35743 C 192.99691,190.5629 194.85158,189.95603 196.30523,190.73654 C 197.60617,191.43504 197.66786,191.98105 196.57025,193.08223 C 195.44192,194.21423 194.63985,194.11765 195.02623,192.8963 z M 162.15845,192.58878 C 161.67072,191.31364 162.82532,189.43245 164.48033,188.80572 C 165.38175,188.46437 166.01109,188.4298 166.01109,188.72165 C 166.01109,188.99424 165.65805,189.35317 165.22656,189.51929 C 164.7425,189.70565 164.44204,190.50319 164.44204,191.6017 C 164.44204,193.50954 162.78465,194.22594 162.15845,192.58878 z M 156.67876,189.76003 C 156.29236,189.52036 154.93905,189.44155 153.67141,189.58489 C 151.45018,189.83607 151.3666,189.79397 151.3666,188.4238 C 151.3666,187.091 151.47292,187.02604 153.06641,187.38529 C 155.17692,187.86112 155.53777,187.86386 156.9271,187.41465 C 157.72164,187.15774 158.1404,187.31157 158.38462,187.95005 C 158.81951,189.08707 157.62948,190.34975 156.67876,189.76003 z M 161.07003,185.55611 C 160.90163,185.28275 160.98678,184.92086 161.25926,184.75192 C 161.53174,184.58297 161.89245,184.6684 162.06085,184.94176 C 162.22925,185.21512 162.1441,185.57701 161.87162,185.74595 C 161.59914,185.9149 161.23843,185.82947 161.07003,185.55611 z M 152.17152,184.48447 C 151.39428,183.62283 151.34171,183.28767 151.88147,182.63518 C 153.35221,180.85729 155.89813,182.43547 154.68133,184.37076 C 153.90153,185.61102 153.21575,185.64208 152.17152,184.48447 z M 146.76405,183.30747 C 145.90683,182.44747 145.9758,181.48766 146.92095,181.12379 C 148.20318,180.63016 149.27453,181.33921 149.27453,182.68148 C 149.27453,184.06313 147.86706,184.41408 146.76405,183.30747 z M 148.29125,178.28286 C 147.655,177.09016 148.50022,175.47783 149.54987,175.88193 C 150.58025,176.27861 150.58427,179.21467 149.55444,179.21467 C 149.13307,179.21467 148.56463,178.79536 148.29125,178.28286 z M 144.07783,177.94333 C 143.26593,176.96187 143.78111,176.06636 145.15764,176.06636 C 145.93952,176.06636 146.16632,176.35858 146.04205,177.20587 C 145.8332,178.62982 144.92713,178.97 144.07783,177.94333 z M 140.72697,173.20616 C 140.26845,172.0074 140.91324,170.74357 141.88734,170.93178 C 142.39815,171.03047 142.73681,171.61315 142.73681,172.39333 C 142.73681,173.87003 141.21613,174.48504 140.72697,173.20616 z M 144.22,173.14513 C 144.047,172.69284 144.15625,172.07118 144.46277,171.76366 C 145.2763,170.94749 146.65944,171.66398 146.65944,172.90158 C 146.65944,174.19565 144.69677,174.3916 144.22,173.14513 z M 138.29116,167.93322 C 138.29116,167.50033 138.61902,167.14614 139.01973,167.14614 C 139.42045,167.14614 139.88377,167.50033 140.04936,167.93322 C 140.25413,168.46858 140.02112,168.7203 139.32079,168.7203 C 138.75424,168.7203 138.29116,168.3663 138.29116,167.93322 z M 141.1396,168.14986 C 140.60062,167.27493 141.81283,166.27162 142.53434,166.99548 C 143.13786,167.60096 142.76013,168.7203 141.95229,168.7203 C 141.69858,168.7203 141.33287,168.4636 141.1396,168.14986 z M 148.50707,165.07497 C 148.04721,164.32848 148.63363,163.47311 149.60526,163.47311 C 150.0635,163.47311 150.326,163.84176 150.22816,164.34788 C 150.02443,165.40177 148.98016,165.84292 148.50707,165.07497 z M 135.80683,163.86665 C 135.92669,163.5059 136.33857,163.21075 136.72211,163.21075 C 137.10566,163.21075 137.51753,163.5059 137.63739,163.86665 C 137.76703,164.25682 137.39622,164.52255 136.72211,164.52255 C 136.048,164.52255 135.6772,164.25682 135.80683,163.86665 z M 139.07569,163.99783 C 139.25347,163.70923 139.6204,163.47311 139.89109,163.47311 C 140.16177,163.47311 140.38323,163.70923 140.38323,163.99783 C 140.38323,164.28642 140.01631,164.52255 139.56784,164.52255 C 139.11937,164.52255 138.89791,164.28642 139.07569,163.99783 z M 145.61341,161.67507 C 145.61341,161.18832 146.06059,160.84952 146.70303,160.84952 C 147.97765,160.84952 147.79748,162.07566 146.48535,162.33097 C 145.96925,162.43139 145.61341,162.16371 145.61341,161.67507 z M 133.1534,160.49946 C 133.40787,159.18306 134.63004,159.00231 134.63004,160.28107 C 134.63004,160.9256 134.29234,161.37424 133.80717,161.37424 C 133.32011,161.37424 133.0533,161.01723 133.1534,160.49946 z M 130.4459,157.7012 C 130.4459,157.41261 130.68126,157.17649 130.96892,157.17649 C 131.25658,157.17649 131.49194,157.41261 131.49194,157.7012 C 131.49194,157.9898 131.25658,158.22592 130.96892,158.22592 C 130.68126,158.22592 130.4459,157.9898 130.4459,157.7012 z M 126.78478,154.33426 C 126.78478,153.87732 127.15743,153.50346 127.61289,153.50346 C 128.5365,153.50346 128.37565,154.63305 127.40586,154.95736 C 127.06427,155.0716 126.78478,154.7912 126.78478,154.33426 z M 123.48656,152.11847 C 123.0687,151.69926 123.54105,150.87986 124.20056,150.87986 C 124.47125,150.87986 124.69271,151.23405 124.69271,151.66694 C 124.69271,152.47837 124.07557,152.7094 123.48656,152.11847 z M 120.09016,149.72548 C 119.23596,148.86851 119.30135,148.25627 120.24706,148.25627 C 120.68291,148.25627 121.03159,148.72269 121.03159,149.30571 C 121.03159,150.52884 120.9342,150.57227 120.09016,149.72548 z M 115.37614,146.81329 C 115.47209,146.30825 116.07774,145.81958 116.72204,145.72736 C 118.00965,145.54306 118.23981,146.12478 117.26586,147.10189 C 116.3289,148.04189 115.17618,147.86585 115.37614,146.81329 z M 109.85909,146.41975 C 109.69351,145.98686 109.09382,145.63268 108.52645,145.63268 C 106.86745,145.63268 106.78487,144.74288 108.34227,143.6481 C 110.69393,141.99498 114.31742,144.42295 112.38779,146.35885 C 111.32916,147.42093 110.25195,147.44687 109.85909,146.41975 z M 144.30586,136.71246 C 144.12808,136.42386 144.23187,136.18774 144.53651,136.18774 C 144.84114,136.18774 145.09039,136.42386 145.09039,136.71246 C 145.09039,137.00105 144.9866,137.23718 144.85975,137.23718 C 144.7329,137.23718 144.48365,137.00105 144.30586,136.71246 z M 141.69078,133.56415 C 141.86856,133.27555 142.11781,133.03943 142.24466,133.03943 C 142.37152,133.03943 142.4753,133.27555 142.4753,133.56415 C 142.4753,133.85274 142.22605,134.08886 141.92142,134.08886 C 141.61678,134.08886 141.51299,133.85274 141.69078,133.56415 z M 138.41102,130.31745 C 138.73429,129.34451 139.86022,129.18313 139.86022,130.10975 C 139.86022,130.56669 139.48757,130.94055 139.03211,130.94055 C 138.57664,130.94055 138.29716,130.66015 138.41102,130.31745 z M 65.06872,129.89112 C 65.06872,129.60252 65.43565,129.3664 65.88412,129.3664 C 66.33258,129.3664 66.55405,129.60252 66.37627,129.89112 C 66.19848,130.17971 65.83156,130.41583 65.56087,130.41583 C 65.29019,130.41583 65.06872,130.17971 65.06872,129.89112 z M 136.19909,126.43672 C 136.19909,125.5101 137.32503,125.67148 137.64829,126.64442 C 137.76215,126.98712 137.48267,127.26752 137.0272,127.26752 C 136.57174,127.26752 136.19909,126.89366 136.19909,126.43672 z M 69.09186,125.20495 C 69.40011,124.02236 70.78432,123.34688 71.47647,124.04128 C 71.7673,124.33306 71.48119,124.8562 70.74962,125.37028 C 69.17036,126.48003 68.76991,126.44009 69.09186,125.20495 z M 133.18085,124.02083 C 133.50411,123.04788 134.63004,122.88651 134.63004,123.81313 C 134.63004,124.27007 134.25739,124.64393 133.80193,124.64393 C 133.34647,124.64393 133.06698,124.36353 133.18085,124.02083 z M 72.91398,121.55682 C 72.91398,120.97906 73.3933,120.44283 74.06793,120.26583 C 75.57585,119.87022 75.74779,120.10905 74.91648,121.44452 C 74.06462,122.813 72.91398,122.87753 72.91398,121.55682 z M 128.06416,118.30159 C 127.52518,117.42666 128.73739,116.42335 129.4589,117.14721 C 130.06242,117.75269 129.6847,118.87202 128.87685,118.87202 C 128.62315,118.87202 128.25744,118.61533 128.06416,118.30159 z M 79.80562,117.48529 C 80.00779,116.45472 81.60204,115.34491 82.12567,115.87023 C 82.53962,116.28553 80.86756,118.34731 80.11682,118.34731 C 79.85265,118.34731 79.71261,117.9594 79.80562,117.48529 z M 124.21099,115.59253 C 124.16429,114.55414 124.96316,114.36449 125.52718,115.28007 C 125.74776,115.63813 125.67171,115.74408 125.34121,115.53916 C 125.03367,115.34847 124.66285,115.48908 124.51717,115.85162 C 124.35736,116.24929 124.2359,116.1465 124.21099,115.59253 z M 118.06942,114.90211 C 117.60878,113.69781 118.52252,112.35205 119.94442,112.14061 C 120.97007,111.98809 121.08471,112.1699 120.93704,113.71476 C 120.74639,115.70922 118.70192,116.55575 118.06942,114.90211 z M 112.66331,113.62583 C 112.66331,113.29546 112.31027,112.67097 111.87878,112.23808 C 110.87503,111.23106 110.88586,110.66903 111.91667,110.27218 C 113.34752,109.72133 114.83582,110.91817 114.65597,112.47503 C 114.4986,113.8373 112.66331,114.89722 112.66331,113.62583 z M 85.23937,113.15609 C 85.08056,112.89828 85.54821,112.53688 86.2786,112.35296 C 87.88172,111.9493 89.05093,112.49379 88.00658,113.15767 C 87.07713,113.74852 85.60381,113.74767 85.23937,113.15609 z M 105.09253,111.20166 C 104.13173,110.23773 104.24353,109.47719 105.45911,108.70792 C 106.41208,108.10485 107.95615,109.06457 107.95615,110.25995 C 107.95615,111.52677 106.04352,112.15574 105.09253,111.20166 z M 97.62656,111.15565 C 95.67237,110.77803 96.68571,108.90237 98.84391,108.90237 C 100.36672,108.90237 101.34605,110.0769 100.51686,110.90878 C 99.88994,111.53774 99.69157,111.55469 97.62656,111.15565 z M 63.62464,200.13945 C 66.22911,198.80643 70.28344,194.86361 69.36539,194.55659 C 69.01584,194.4397 68.72985,194.00755 68.72985,193.59626 C 68.72985,192.9861 68.91764,192.96612 69.75012,193.48771 C 70.61804,194.0315 70.93045,193.94182 71.84219,192.88715 C 73.15487,191.3687 73.20112,190.44763 71.9987,189.77041 C 71.14102,189.28736 71.13785,189.1619 71.94829,187.77665 C 73.55928,185.02306 74.6579,180.32066 73.90333,179.40851 C 72.54411,177.76541 66.63778,179.77596 66.63778,181.88174 C 66.63778,182.10593 65.56404,182.82736 64.25169,183.48491 C 62.28509,184.47027 61.92495,184.8688 62.20319,185.75177 C 63.53766,189.98652 63.05409,195.20242 61.13434,197.2806 C 58.25566,200.39685 59.75616,202.11943 63.62464,200.13945 z M 70.03739,191.2832 C 70.21517,190.9946 70.46442,190.75848 70.59127,190.75848 C 70.71813,190.75848 70.82192,190.9946 70.82192,191.2832 C 70.82192,191.57179 70.57267,191.80792 70.26803,191.80792 C 69.96339,191.80792 69.85961,191.57179 70.03739,191.2832 z M 85.15063,196.74539 C 85.48044,195.88314 85.15386,194.95623 84.52026,194.95623 C 84.32149,194.95623 84.15886,195.54654 84.15886,196.26803 C 84.15886,197.75048 84.67177,197.99736 85.15063,196.74539 z M 204.60517,193.98291 C 204.77816,193.45498 204.51925,193.36885 203.59947,193.64835 C 201.6009,194.25566 201.10066,195.06101 202.84348,194.86543 C 203.68428,194.77107 204.47704,194.37394 204.60517,193.98291 z M 86.51244,192.00834 C 86.51244,190.91762 86.30005,190.30352 85.98942,190.49612 C 85.70176,190.67448 85.46641,191.64684 85.46641,192.65693 C 85.46641,193.74766 85.6788,194.36175 85.98942,194.16915 C 86.27708,193.99079 86.51244,193.01843 86.51244,192.00834 z M 244.38591,191.41438 C 244.33398,190.62074 244.45433,189.26015 244.65335,188.39083 C 244.88903,187.36136 244.66133,185.7341 244.00029,183.72385 C 243.44209,182.02633 243.10707,180.31931 243.25579,179.93048 C 243.40596,179.53788 243.09507,179.08786 242.55665,178.91843 C 239.96777,178.10378 238.18749,177.05751 238.18749,176.35068 C 238.18749,175.92053 237.45437,175.18825 236.55834,174.72338 C 234.29103,173.5471 235.29312,172.49494 237.91257,173.30148 C 240.47869,174.09161 240.14613,169.9006 237.556,168.80775 C 237.328,168.71155 237.14146,168.27575 237.14146,167.83931 C 237.14146,166.36725 234.98629,163.89199 233.94293,164.16572 C 233.40768,164.30614 232.40028,163.97163 231.70425,163.42235 C 230.33378,162.34084 228.50651,162.10775 227.98865,162.94839 C 227.81087,163.23699 226.94996,163.47311 226.07551,163.47311 C 223.90742,163.47311 221.43958,164.73005 219.33929,166.90404 C 218.26771,168.01323 217.06463,168.72963 216.24891,168.74427 C 215.19082,168.76325 214.68469,169.25399 213.81365,171.1055 C 212.4565,173.99028 214.02985,174.33539 218.52221,172.13831 C 223.20891,169.84617 229.40576,169.14385 232.71261,170.53004 C 236.14591,171.96923 234.18709,173.37595 230.16469,172.3598 C 225.90947,171.28484 217.18108,173.3327 216.47258,175.57227 C 215.95151,177.21935 216.58109,177.43382 218.26679,176.18347 C 220.13914,174.79468 222.26671,174.21863 222.73229,174.9744 C 223.25941,175.83008 224.7515,175.67379 224.41651,174.79799 C 223.37392,172.0722 233.59242,174.5931 236.44623,177.76571 C 237.03328,178.41834 237.95132,179.71971 238.48632,180.65765 C 239.02133,181.59558 239.63763,182.36298 239.85588,182.36298 C 240.677,182.36298 241.84861,185.54534 241.84861,187.77571 C 241.84861,189.32475 242.20775,190.55029 242.93261,191.47479 C 244.29721,193.21524 244.50317,193.20668 244.38591,191.41438 z M 79.90511,189.29732 C 80.85962,187.74788 81.87133,180.10551 81.20978,179.44202 C 80.1147,178.34374 79.25498,179.26122 78.44116,182.39665 C 77.49731,186.03302 78.62921,191.36848 79.90511,189.29732 z M 87.99664,183.76921 C 87.84264,180.80104 87.53263,179.63995 86.53543,178.29641 C 84.90694,176.10234 84.41306,176.13931 84.78319,178.42759 C 84.97598,179.61948 84.87265,180.26411 84.4888,180.26411 C 84.1635,180.26411 83.89735,180.51417 83.89735,180.81979 C 83.89735,181.12542 84.10604,181.24608 84.36111,181.08793 C 85.27808,180.51937 85.97121,182.24519 86.3146,185.95196 C 86.81861,191.39256 88.29292,189.47937 87.99664,183.76921 z M 196.63495,183.67478 C 196.24318,181.05381 197.78881,180.16524 198.95076,182.34344 C 199.64782,183.65015 200.95675,183.19379 201.3815,181.49597 C 201.55706,180.79418 202.37879,179.53971 203.20754,178.70826 C 204.98788,176.92213 205.07858,176.29883 203.66834,175.54164 C 202.59217,174.96381 202.21314,173.44276 203.14532,173.44276 C 203.43298,173.44276 203.66834,173.20664 203.66834,172.91805 C 203.66834,171.58567 202.1706,172.68968 200.19451,175.47866 C 198.79965,177.4473 196.89584,179.2642 194.84837,180.58071 C 191.31087,182.85531 190.6168,184.72422 193.30957,184.72422 C 194.08458,184.72422 195.01424,185.01937 195.37549,185.38011 C 196.5961,186.59905 196.99193,186.06308 196.63495,183.67478 z M 66.51027,180.39529 C 66.62834,180.03454 66.31582,179.73939 65.81577,179.73939 C 64.95486,179.73939 64.95526,179.68544 65.82342,178.72301 C 67.11624,177.28982 66.46907,176.54806 64.55743,177.27197 C 62.72151,177.96721 62.25011,178.90212 63.01371,180.33356 C 63.63257,181.49369 66.1363,181.53788 66.51027,180.39529 z M 61.69728,179.69367 C 62.23626,178.81874 61.02404,177.81543 60.30253,178.53929 C 59.69901,179.14477 60.07674,180.26411 60.88458,180.26411 C 61.13829,180.26411 61.504,180.00741 61.69728,179.69367 z M 177.51747,179.73939 C 177.51747,179.45079 176.98792,179.23127 176.34068,179.25155 C 175.25923,179.28544 175.7844,179.77528 177.38672,180.22722 C 177.45863,180.24751 177.51747,180.02798 177.51747,179.73939 z M 81.67596,175.35945 C 82.65609,175.60625 82.92654,175.5057 82.74579,174.96169 C 82.27633,173.5487 78.70973,173.45331 77.24566,174.81457 C 75.11667,176.79407 76.04939,177.96681 78.45185,176.33116 C 79.80282,175.41138 80.74931,175.12612 81.67596,175.35945 z M 244.98672,176.08482 C 244.98672,174.47028 243.09608,173.71437 241.56885,174.71831 C 239.74599,175.91657 240.43715,177.11579 242.95061,177.11579 C 244.62589,177.11579 244.98672,176.93309 244.98672,176.08482 z M 75.61864,175.19795 C 76.44623,174.44656 76.95497,172.91805 76.37747,172.91805 C 75.35504,172.91805 72.39097,174.67892 72.39097,175.28632 C 72.39097,176.34065 74.42129,176.28507 75.61864,175.19795 z M 65.23238,174.06995 C 66.64088,172.59501 67.14474,170.29445 66.05928,170.29445 C 65.7411,170.29445 65.02833,170.87151 64.47535,171.57681 C 63.75429,172.49646 62.85691,172.90459 61.30262,173.01978 C 58.71673,173.21143 58.21626,174.06209 60.22192,174.85667 C 62.6032,175.80005 63.75255,175.61959 65.23238,174.06995 z M 69.67564,174.45285 C 69.57256,174.14261 69.26463,173.88877 68.99135,173.88877 C 68.71808,173.88877 68.41015,174.14261 68.30707,174.45285 C 68.20399,174.76309 68.51192,175.01692 68.99135,175.01692 C 69.47079,175.01692 69.77871,174.76309 69.67564,174.45285 z M 171.54101,173.09117 C 170.67092,170.81638 170.17248,167.25996 170.47335,165.47333 C 170.78207,163.64006 170.5974,163.25273 167.88543,160.04562 C 164.91776,156.53612 164.23045,154.45034 165.59165,153.0847 C 166.07845,152.59633 165.86132,152.07533 164.61851,150.74971 C 162.37086,148.35226 161.50867,146.4471 160.75925,142.222 C 159.89067,137.32508 159.84501,137.23718 158.17002,137.23718 C 156.58857,137.23718 155.02772,135.43725 155.02772,133.61357 C 155.02772,132.3086 154.79802,132.17548 151.75886,131.71915 C 149.44614,131.37188 149.27453,131.42452 149.27453,132.48119 C 149.27453,133.56899 150.62185,136.6897 151.32787,137.23718 C 151.51395,137.38147 152.56934,139.27046 153.67317,141.43493 C 155.64356,145.29858 157.30327,147.13273 159.44234,147.81043 C 160.4736,148.13715 160.46936,148.15389 159.34262,148.20396 C 158.25009,148.25252 157.49943,150.32679 158.55809,150.37183 C 160.02463,150.43422 160.94145,151.93106 160.09077,152.87411 C 159.20208,153.8593 165.46922,167.76682 168.38107,171.27126 C 170.73074,174.09912 172.26439,174.98239 171.54101,173.09117 z M 73.29535,173.12574 C 73.12156,172.95139 72.67045,172.93275 72.2929,173.08432 C 71.87567,173.25182 71.99961,173.37616 72.60889,173.40134 C 73.16024,173.42412 73.46915,173.30011 73.29535,173.12574 z M 69.35717,171.46623 C 69.01214,171.35084 68.72985,170.908 68.72985,170.48212 C 68.72985,170.05624 68.51658,169.84003 68.25593,170.00165 C 67.41448,170.52339 68.23041,172.35131 69.1472,171.99836 C 69.68971,171.7895 69.76364,171.60216 69.35717,171.46623 z M 78.14416,171.08153 C 78.14416,170.64864 77.93398,170.29445 77.6771,170.29445 C 77.42022,170.29445 77.07456,170.64864 76.90899,171.08153 C 76.72561,171.56097 76.90816,171.86861 77.37605,171.86861 C 77.79851,171.86861 78.14416,171.51442 78.14416,171.08153 z M 205.73348,169.55785 C 207.15922,166.88517 206.14386,165.62726 204.63254,168.19391 C 203.86838,169.49167 203.34636,170.72101 203.4725,170.92577 C 203.85898,171.55314 205.05516,170.82943 205.73348,169.55785 z M 75.31222,168.19558 C 75.16556,167.18549 75.03667,166.32529 75.02581,166.28402 C 75.01494,166.24275 74.63178,166.06489 74.17433,165.88878 C 72.72011,165.32893 72.3238,166.13593 73.55651,167.14683 C 74.53971,167.95311 74.62575,168.2406 74.05556,168.81423 C 73.48479,169.38845 73.24399,169.34081 72.65207,168.53657 C 71.83885,167.43167 70.82192,167.79759 70.82192,169.19512 C 70.82192,169.96537 71.24645,170.12374 73.20039,170.08241 C 75.57887,170.03209 75.57887,170.03209 75.31222,168.19558 z M 74.48304,161.34327 C 74.48304,161.0717 74.24768,160.84952 73.96002,160.84952 C 73.67236,160.84952 73.437,161.21764 73.437,161.66756 C 73.437,162.11749 73.67236,162.33968 73.96002,162.16131 C 74.24768,161.98295 74.48304,161.61483 74.48304,161.34327 z M 55.40541,136.1482 C 55.59489,135.54926 55.60515,134.91397 55.4282,134.73645 C 54.92105,134.22765 53.39795,136.0211 53.79283,136.66211 C 54.34537,137.55905 55.02789,137.34154 55.40541,136.1482 z M 157.16313,129.77458 C 156.3179,128.51811 155.45826,126.79066 155.25282,125.93582 C 155.04738,125.08098 154.39118,123.43708 153.79461,122.2827 C 153.19803,121.12831 152.70187,119.47545 152.69204,118.60966 C 152.67503,117.11383 152.55703,117.02979 150.32057,116.92055 C 145.79846,116.69966 144.61552,116.28972 143.77072,114.65074 C 142.79493,112.75763 142.05596,112.72647 138.47238,114.42728 C 134.95778,116.09537 134.72641,115.41844 141.33654,122.80741 C 146.96945,129.10404 146.96945,129.10404 150.33219,129.26333 C 154.16306,129.4448 157.11979,131.15219 157.11979,133.18289 C 157.11979,134.32237 157.11979,134.32237 157.90986,133.19072 C 158.63951,132.14561 158.58241,131.88438 157.16313,129.77458 z M 63.89607,123.48213 C 65.09,122.24525 66.90138,120.41819 67.92137,119.422 C 70.01817,117.3741 70.209,116.23677 68.79244,114.23056 C 68.13465,113.29895 67.68472,111.41632 67.43366,108.54503 C 67.03067,103.9362 66.39548,103.34331 65.15528,106.41837 C 62.22304,113.68879 61.16467,115.29214 58.44215,116.58826 C 56.64107,117.44571 56.5921,117.54555 56.89287,119.74701 C 57.17349,121.80103 57.09826,122.02034 56.11299,122.02034 C 55.06509,122.02034 55.03737,122.18933 55.40291,126.34926 C 56.04866,133.69819 56.30516,133.90789 59.23744,129.48421 C 60.60575,127.41995 62.70214,124.71901 63.89607,123.48213 z M 74.09267,114.79826 C 75.02652,114.28925 76.2613,113.47275 76.83662,112.98382 C 79.76225,110.49746 82.01692,108.90237 82.60577,108.90237 C 83.5805,108.90237 83.77359,107.95755 83.57086,104.1799 C 83.39301,100.86584 84.11631,96.559064 85.02049,95.548284 C 85.65994,94.833444 85.5714,92.636094 84.90315,92.636094 C 84.10276,92.636094 81.68596,95.164464 80.13459,97.624784 C 77.68477,101.50998 74.71671,104.02377 71.99265,104.52058 C 68.38146,105.17917 68.14178,110.47001 71.51485,115.06781 C 72.12214,115.89561 72.06924,115.90114 74.09267,114.79826 z M 134.03305,113.4519 C 134.36433,113.05144 135.25124,112.84862 136.11498,112.97581 C 137.00219,113.10645 138.50029,112.74672 139.7652,112.09931 C 140.94518,111.49538 142.27303,111.00124 142.71598,111.00124 C 146.08395,111.00124 137.43664,101.73712 132.79948,100.3774 C 132.22416,100.2087 130.4623,99.578514 128.88424,98.976984 C 123.75944,97.023484 118.91798,97.703594 118.35692,100.45581 C 118.1611,101.41633 117.50601,102.87376 116.90115,103.69453 C 115.46807,105.63919 115.47095,105.64711 117.76273,106.05898 C 121.00367,106.64141 128.0165,110.20811 129.93686,112.25069 C 131.81294,114.24617 133.07085,114.61504 134.03305,113.4519 z M 90.34774,106.26649 C 93.93877,104.91854 100.20033,103.80127 103.249,103.96447 C 104.54347,104.03376 107.37474,104.2565 109.54071,104.45943 C 114.0871,104.88541 113.79627,105.08248 116.53534,99.719794 C 118.9459,95.000294 118.92772,94.735134 116.19368,94.734254 C 113.97458,94.733534 106.30362,93.519344 104.8177,92.933614 C 103.89783,92.571014 101.67995,96.934834 101.67995,99.107324 C 101.67995,100.62683 100.80534,101.41347 100.00673,100.61226 C 99.34669,99.950074 100.64301,94.457914 102.00553,92.143844 C 103.42927,89.725814 102.51036,89.654464 99.47098,91.947034 C 96.10111,94.488884 93.99235,95.259684 90.40819,95.259684 C 87.27032,95.259684 87.10518,95.497704 85.68356,102.06903 C 84.48939,107.58901 85.17667,108.20753 90.34774,106.26649 z M 122.60064,95.259684 C 122.60064,94.676664 122.25196,94.210254 121.81612,94.210254 C 121.01987,94.210254 120.74327,95.320244 121.38027,95.959314 C 122.04335,96.624544 122.60064,96.305054 122.60064,95.259684 z"
         style="fill:#000000" />
    </g>
  </g>
</svg>
