<?xml version="1.0" encoding="UTF-8" standalone="no"?>
<!-- Created with Inkscape (http://www.inkscape.org/) -->
<svg
   xmlns:dc="http://purl.org/dc/elements/1.1/"
   xmlns:cc="http://creativecommons.org/ns#"
   xmlns:rdf="http://www.w3.org/1999/02/22-rdf-syntax-ns#"
   xmlns:svg="http://www.w3.org/2000/svg"
   xmlns="http://www.w3.org/2000/svg"
   xmlns:sodipodi="http://sodipodi.sourceforge.net/DTD/sodipodi-0.dtd"
   xmlns:inkscape="http://www.inkscape.org/namespaces/inkscape"
   width="200"
   height="194"
   id="svg2"
   sodipodi:version="0.32"
   inkscape:version="0.46"
   version="1.0"
   sodipodi:docname="elephant_and_castle.svg"
   inkscape:output_extension="org.inkscape.output.svg.inkscape">
  <defs
     id="defs4">
    <inkscape:perspective
       sodipodi:type="inkscape:persp3d"
       inkscape:vp_x="0 : 526.18109 : 1"
       inkscape:vp_y="0 : 1000 : 0"
       inkscape:vp_z="744.09448 : 526.18109 : 1"
       inkscape:persp3d-origin="372.04724 : 350.78739 : 1"
       id="perspective10" />
    <inkscape:perspective
       id="perspective8826"
       inkscape:persp3d-origin="372.04724 : 350.78739 : 1"
       inkscape:vp_z="744.09448 : 526.18109 : 1"
       inkscape:vp_y="0 : 1000 : 0"
       inkscape:vp_x="0 : 526.18109 : 1"
       sodipodi:type="inkscape:persp3d" />
    <inkscape:perspective
       sodipodi:type="inkscape:persp3d"
       inkscape:vp_x="0 : 526.18109 : 1"
       inkscape:vp_y="0 : 1000 : 0"
       inkscape:vp_z="744.09448 : 526.18109 : 1"
       inkscape:persp3d-origin="372.04724 : 350.78739 : 1"
       id="perspective2459" />
    <inkscape:perspective
       sodipodi:type="inkscape:persp3d"
       inkscape:vp_x="0 : 526.18109 : 1"
       inkscape:vp_y="0 : 1000 : 0"
       inkscape:vp_z="744.09448 : 526.18109 : 1"
       inkscape:persp3d-origin="372.04724 : 350.78739 : 1"
       id="perspective2410" />
    <inkscape:perspective
       id="perspective2425"
       inkscape:persp3d-origin="372.04724 : 350.78739 : 1"
       inkscape:vp_z="744.09448 : 526.18109 : 1"
       inkscape:vp_y="0 : 1000 : 0"
       inkscape:vp_x="0 : 526.18109 : 1"
       sodipodi:type="inkscape:persp3d" />
    <inkscape:perspective
       id="perspective3257"
       inkscape:persp3d-origin="372.04724 : 350.78739 : 1"
       inkscape:vp_z="744.09448 : 526.18109 : 1"
       inkscape:vp_y="0 : 1000 : 0"
       inkscape:vp_x="0 : 526.18109 : 1"
       sodipodi:type="inkscape:persp3d" />
    <inkscape:perspective
       id="perspective2492"
       inkscape:persp3d-origin="372.04724 : 350.78739 : 1"
       inkscape:vp_z="744.09448 : 526.18109 : 1"
       inkscape:vp_y="0 : 1000 : 0"
       inkscape:vp_x="0 : 526.18109 : 1"
       sodipodi:type="inkscape:persp3d" />
    <inkscape:perspective
       id="perspective3181"
       inkscape:persp3d-origin="372.04724 : 350.78739 : 1"
       inkscape:vp_z="744.09448 : 526.18109 : 1"
       inkscape:vp_y="0 : 1000 : 0"
       inkscape:vp_x="0 : 526.18109 : 1"
       sodipodi:type="inkscape:persp3d" />
    <inkscape:perspective
       id="perspective3085"
       inkscape:persp3d-origin="372.04724 : 350.78739 : 1"
       inkscape:vp_z="744.09448 : 526.18109 : 1"
       inkscape:vp_y="0 : 1000 : 0"
       inkscape:vp_x="0 : 526.18109 : 1"
       sodipodi:type="inkscape:persp3d" />
    <inkscape:perspective
       id="perspective3009"
       inkscape:persp3d-origin="372.04724 : 350.78739 : 1"
       inkscape:vp_z="744.09448 : 526.18109 : 1"
       inkscape:vp_y="0 : 1000 : 0"
       inkscape:vp_x="0 : 526.18109 : 1"
       sodipodi:type="inkscape:persp3d" />
    <inkscape:perspective
       id="perspective2933"
       inkscape:persp3d-origin="372.04724 : 350.78739 : 1"
       inkscape:vp_z="744.09448 : 526.18109 : 1"
       inkscape:vp_y="0 : 1000 : 0"
       inkscape:vp_x="0 : 526.18109 : 1"
       sodipodi:type="inkscape:persp3d" />
    <inkscape:perspective
       id="perspective2857"
       inkscape:persp3d-origin="372.04724 : 350.78739 : 1"
       inkscape:vp_z="744.09448 : 526.18109 : 1"
       inkscape:vp_y="0 : 1000 : 0"
       inkscape:vp_x="0 : 526.18109 : 1"
       sodipodi:type="inkscape:persp3d" />
    <inkscape:perspective
       id="perspective2781"
       inkscape:persp3d-origin="372.04724 : 350.78739 : 1"
       inkscape:vp_z="744.09448 : 526.18109 : 1"
       inkscape:vp_y="0 : 1000 : 0"
       inkscape:vp_x="0 : 526.18109 : 1"
       sodipodi:type="inkscape:persp3d" />
    <inkscape:perspective
       id="perspective2705"
       inkscape:persp3d-origin="372.04724 : 350.78739 : 1"
       inkscape:vp_z="744.09448 : 526.18109 : 1"
       inkscape:vp_y="0 : 1000 : 0"
       inkscape:vp_x="0 : 526.18109 : 1"
       sodipodi:type="inkscape:persp3d" />
    <inkscape:perspective
       id="perspective2629"
       inkscape:persp3d-origin="372.04724 : 350.78739 : 1"
       inkscape:vp_z="744.09448 : 526.18109 : 1"
       inkscape:vp_y="0 : 1000 : 0"
       inkscape:vp_x="0 : 526.18109 : 1"
       sodipodi:type="inkscape:persp3d" />
    <inkscape:perspective
       id="perspective2741"
       inkscape:persp3d-origin="372.04724 : 350.78739 : 1"
       inkscape:vp_z="744.09448 : 526.18109 : 1"
       inkscape:vp_y="0 : 1000 : 0"
       inkscape:vp_x="0 : 526.18109 : 1"
       sodipodi:type="inkscape:persp3d" />
  </defs>
  <sodipodi:namedview
     id="base"
     pagecolor="#ffffff"
     bordercolor="#666666"
     borderopacity="1.0"
     gridtolerance="10000"
     guidetolerance="10"
     objecttolerance="10"
     inkscape:pageopacity="0.0"
     inkscape:pageshadow="2"
     inkscape:zoom="2.9878047"
     inkscape:cx="100"
     inkscape:cy="123.00001"
     inkscape:document-units="px"
     inkscape:current-layer="layer1"
     showgrid="false"
     inkscape:window-width="1679"
     inkscape:window-height="963"
     inkscape:window-x="1"
     inkscape:window-y="57" />
  <metadata
     id="metadata7">
    <rdf:RDF>
      <cc:Work
         rdf:about="">
        <dc:format>image/svg+xml</dc:format>
        <dc:type
           rdf:resource="http://purl.org/dc/dcmitype/StillImage" />
      </cc:Work>
    </rdf:RDF>
  </metadata>
  <g
     inkscape:label="Layer 1"
     inkscape:groupmode="layer"
     id="layer1"
     transform="translate(-408.88168,-274.21112)">
    <g
       id="g2743"
       transform="translate(358.88168,221.21112)">
      <path
         id="path3398"
         d="M 133.57119,246.44981 C 133.21842,246.34096 131.19801,245.88826 129.08139,245.44381 C 126.96477,244.99937 124.51142,244.1838 123.6295,243.63144 C 122.50444,242.9268 120.8234,242.68557 117.99551,242.82297 C 111.21278,243.1525 108.89745,240.46391 112.77824,236.76459 C 116.67541,233.04965 117.9193,223.43134 115.55513,215.29235 C 114.86573,212.919 114.42741,207.96393 114.19996,199.9725 C 113.91378,189.91834 113.68399,187.86576 112.65573,186.17911 C 111.99132,185.08928 111.44663,183.83673 111.44531,183.39566 C 111.44399,182.95459 110.30981,181.46035 108.92491,180.07512 C 105.02335,176.17262 103.21692,177.39605 99.938108,186.16155 C 97.78367,191.92119 96.230129,192.97337 93.817559,190.30687 C 92.673773,189.0427 92.679255,188.35085 93.874864,183.07488 C 94.168102,181.78088 94.028093,181.31061 93.349605,181.31061 C 92.066164,181.31061 89.635332,184.03004 89.635332,185.46585 C 89.635332,186.11791 88.450752,190.28544 87.002932,194.72703 C 83.727909,204.77406 83.627241,211.00491 86.65641,216.17504 C 91.087745,223.73835 98.509284,222.9849 97.578815,215.06617 C 96.832178,208.71193 102.75694,205.6874 107.01648,210.24835 C 109.99037,213.43267 109.65135,216.65509 105.64131,223.31956 C 93.628344,243.28447 70.718568,227.80626 70.050877,199.2741 C 69.848198,190.61313 69.848198,190.61313 61.478616,189.97158 C 46.893608,188.85359 45.969415,185.22156 60.073999,184.4515 C 71.422376,183.83192 71.034752,184.02088 71.034752,179.10809 C 71.034752,175.06737 71.034752,175.06737 68.308805,175.59484 C 59.826598,177.23614 49.30725,175.00368 51.73517,172.07751 C 52.391773,171.28617 53.805908,171.04343 57.804252,171.03574 C 70.705443,171.01094 72.31755,169.70977 72.31755,159.32168 C 72.31755,152.35284 72.482953,151.27897 74.227572,146.92095 C 75.278084,144.29679 76.593683,140.35126 77.151126,138.15311 C 81.228689,122.07412 86.349109,117.98093 101.45677,118.72356 C 106.77276,118.98487 111.55515,119.21008 112.08431,119.22404 C 112.61346,119.238 115.21113,118.88712 117.8569,118.44431 C 122.57448,117.65477 134.46105,117.86856 137.57993,118.79906 C 139.02308,119.22961 139.02308,119.22961 139.02308,110.90282 C 139.02308,102.68842 139.04808,102.54455 140.8755,100.2445 C 142.96243,97.61781 143.12626,96.94473 144.44927,85.56248 C 145.52485,76.30895 145.50266,76.18625 142.17497,72.9849 C 138.66802,69.61111 137.57455,56.09198 140.71084,54.88316 C 145.51165,53.03278 149.28547,53.2939 149.28547,55.47646 C 149.28547,57.06317 149.55784,57.49087 150.56827,57.49087 C 151.60673,57.49087 151.85107,57.06317 151.85107,55.24543 C 151.85107,53 151.85107,53 155.69946,53 C 159.54786,53 159.54786,53 159.54786,55.24543 C 159.54786,57.38394 159.65476,57.49087 161.79276,57.49087 C 163.93075,57.49087 164.03766,57.38394 164.03766,55.24543 C 164.03766,53 164.03766,53 167.88605,53 C 171.73445,53 171.73445,53 171.73445,55.24543 C 171.73445,57.21286 171.93297,57.49087 173.33795,57.49087 C 174.69201,57.49087 174.94144,57.19148 174.94144,55.56621 C 174.94144,53.39309 175.62773,53.21585 179.68224,54.34188 C 182.61792,55.15718 182.894,69.27954 180.04481,72.88814 C 177.47736,76.13992 177.44466,76.87076 179.42833,86.66714 C 181.0211,94.53313 181.66228,96.49041 183.57868,99.33679 C 185.84523,102.70323 185.84523,102.70323 185.84523,110.18141 C 185.84523,118.27902 185.91748,118.43841 189.58778,118.43841 C 198.94978,118.43841 220.04875,130.7382 225.21287,139.20629 C 227.79354,143.43808 230.59957,149.01591 231.38657,151.47839 C 231.83765,152.88981 233.13304,155.08021 234.26522,156.34596 C 239.12544,161.77957 242.10632,174.47511 241.44036,186.9048 C 240.98162,195.46688 241.36966,196.68899 245.27367,198.97744 C 249.97051,201.73063 251.50308,208.01365 248.33256,211.51788 C 247.0109,212.97865 244.38556,212.92704 244.79644,211.44838 C 245.65499,208.35857 245.20971,207.4633 242.39667,206.62355 C 236.79651,204.95177 234.97683,201.27334 235.32743,192.33335 C 235.58844,185.678 235.14483,185.45988 233.32618,191.34936 C 231.39911,197.58999 232.33563,210.18872 235.08365,214.99215 C 236.62074,217.67892 236.57648,228.52833 235.01936,230.75196 C 234.43131,231.59172 233.95018,233.06416 233.95018,234.02404 C 233.95018,239.95478 228.01631,242.89971 216.06615,242.89971 C 206.32212,242.89971 204.04937,240.90115 208.29421,236.06538 C 210.02142,234.09772 210.21841,233.43462 210.21841,229.58807 C 210.21841,223.83866 208.67541,225.15856 207.37132,232.02351 C 206.25439,237.90326 203.97587,240.34809 199.6638,240.2936 C 198.23706,240.27557 195.08953,240.45719 192.6693,240.6972 C 190.04842,240.9571 187.3249,240.85489 185.93461,240.44446 C 184.65076,240.06546 182.81493,239.59333 181.855,239.3953 C 178.02216,238.60458 178.1445,235.69429 182.1122,233.27641 C 187.0669,230.25707 188.67545,221.72486 186.47649,210.12701 C 186.11814,208.23699 185.78243,205.60538 185.73047,204.27899 C 185.66546,202.61948 185.14303,201.41295 184.05534,200.41034 C 183.18598,199.60898 182.10228,198.08722 181.64711,197.02866 C 180.84132,195.15464 180.69581,195.10157 176.11665,195.0117 C 173.53005,194.96094 169.08864,194.71056 166.24685,194.45532 C 161.61618,194.03941 160.78413,194.14159 158.22936,195.43992 C 156.66153,196.23669 154.09207,197.06446 152.51945,197.27941 C 149.80154,197.65089 149.63261,197.79712 149.10345,200.23643 C 148.36306,203.64946 148.17637,232.08918 148.86761,236.1634 C 150.03053,243.01767 141.35506,248.85168 133.57119,246.44981 z"
         style="fill:#ffff00;fill-opacity:1" />
      <path
         id="path2633"
         d="M 133.57118,246.44981 C 133.21842,246.34097 131.19801,245.88827 129.08139,245.44382 C 126.96477,244.99938 124.51142,244.18381 123.6295,243.63145 C 122.50444,242.92681 120.8234,242.68558 117.99551,242.82298 C 111.21278,243.15251 108.89745,240.46392 112.77824,236.7646 C 116.67541,233.04966 117.9193,223.43135 115.55513,215.29236 C 114.86573,212.91901 114.42741,207.96394 114.19996,199.97252 C 113.91378,189.91835 113.68399,187.86577 112.65573,186.17912 C 111.99131,185.08929 111.44662,183.83674 111.4453,183.39567 C 111.44399,182.9546 110.30981,181.46036 108.92491,180.07513 C 105.02335,176.17263 103.21691,177.39607 99.938111,186.16157 C 97.783671,191.9212 96.230131,192.97338 93.817559,190.30688 C 92.673772,189.04271 92.679254,188.35086 93.874863,183.0749 C 94.168101,181.7809 94.028092,181.31062 93.349605,181.31062 C 92.066163,181.31062 89.635331,184.03005 89.635331,185.46587 C 89.635331,186.11792 88.450751,190.28544 87.002931,194.72704 C 83.727908,204.77407 83.62724,211.00492 86.656409,216.17505 C 91.087745,223.73836 98.509281,222.98491 97.578811,215.06618 C 96.832181,208.71194 102.75694,205.68742 107.01648,210.24836 C 109.99036,213.43267 109.65135,216.65509 105.64131,223.31957 C 93.628343,243.28448 70.718567,227.80627 70.050876,199.27411 C 69.848198,190.61314 69.848198,190.61314 61.478616,189.97159 C 46.893608,188.8536 45.969415,185.22157 60.073999,184.45151 C 71.422375,183.83193 71.034751,184.02089 71.034751,179.1081 C 71.034751,175.06738 71.034751,175.06738 68.308804,175.59484 C 59.826597,177.23615 49.30725,175.00369 51.735169,172.07752 C 52.391773,171.28617 53.805907,171.04343 57.804252,171.03575 C 70.705443,171.01095 72.31755,169.70977 72.31755,159.32168 C 72.31755,152.35284 72.482952,151.27898 74.227572,146.92096 C 75.278084,144.29679 76.593683,140.35127 77.151125,138.15312 C 81.228688,122.07413 86.349108,117.98095 101.45677,118.72356 C 106.77276,118.98488 111.55515,119.21009 112.08431,119.22404 C 112.61346,119.23801 115.21113,118.88713 117.8569,118.44433 C 122.57448,117.65478 134.46105,117.86858 137.57993,118.79907 C 139.02308,119.22963 139.02308,119.22963 139.02308,110.90283 C 139.02308,102.68843 139.04808,102.54456 140.8755,100.24451 C 142.96243,97.617823 143.12626,96.94474 144.44927,85.562492 C 145.52485,76.308968 145.50266,76.186261 142.17497,72.984919 C 138.66802,69.611128 137.57455,56.091992 140.71084,54.883172 C 145.51165,53.032797 149.28547,53.293917 149.28547,55.476471 C 149.28547,57.063183 149.55783,57.490886 150.56827,57.490886 C 151.60672,57.490886 151.85107,57.063183 151.85107,55.245449 C 151.85107,53.000013 151.85107,53.000013 155.69946,53.000013 C 159.54786,53.000013 159.54786,53.000013 159.54786,55.245449 C 159.54786,57.383959 159.65476,57.490886 161.79275,57.490886 C 163.93075,57.490886 164.03765,57.383959 164.03765,55.245449 C 164.03765,53.000013 164.03765,53.000013 167.88605,53.000013 C 171.73444,53.000013 171.73444,53.000013 171.73444,55.245449 C 171.73444,57.212879 171.93297,57.490886 173.33794,57.490886 C 174.69201,57.490886 174.94144,57.191494 174.94144,55.566226 C 174.94144,53.393101 175.62773,53.215863 179.68224,54.341891 C 182.61791,55.157192 182.894,69.279556 180.04481,72.888159 C 177.47735,76.139938 177.44465,76.870777 179.42832,86.667153 C 181.0211,94.533142 181.66227,96.490426 183.57868,99.336803 C 185.84523,102.70324 185.84523,102.70324 185.84523,110.18142 C 185.84523,118.27903 185.91748,118.43843 189.58777,118.43843 C 198.94978,118.43843 220.04875,130.7382 225.21286,139.20629 C 227.79354,143.43809 230.59957,149.01591 231.38657,151.4784 C 231.83764,152.88982 233.13304,155.08023 234.26521,156.34597 C 239.12543,161.77958 242.10632,174.47513 241.44035,186.90481 C 240.98161,195.46689 241.36965,196.689 245.27366,198.97745 C 249.97051,201.73064 251.50307,208.01366 248.33255,211.51789 C 247.01089,212.97865 244.38556,212.92705 244.79643,211.44839 C 245.65499,208.35859 245.2097,207.46331 242.39666,206.62356 C 236.79651,204.95178 234.97683,201.27336 235.32743,192.33337 C 235.58844,185.67801 235.14482,185.45989 233.32618,191.34937 C 231.39911,197.59 232.33563,210.18872 235.08364,214.99216 C 236.62073,217.67893 236.57648,228.52834 235.01936,230.75197 C 234.43131,231.59173 233.95018,233.06417 233.95018,234.02406 C 233.95018,239.9548 228.01631,242.89971 216.06615,242.89971 C 206.32212,242.89971 204.04937,240.90116 208.2942,236.0654 C 210.02142,234.09772 210.2184,233.43464 210.2184,229.58808 C 210.2184,223.83867 208.67541,225.15857 207.37132,232.02352 C 206.25438,237.90327 203.97586,240.3481 199.6638,240.29361 C 198.23706,240.27559 195.08953,240.4572 192.6693,240.69721 C 190.04841,240.95711 187.3249,240.8549 185.93461,240.44448 C 184.65076,240.06546 182.81493,239.59334 181.85499,239.3953 C 178.02216,238.60459 178.14449,235.69431 182.11219,233.27642 C 187.06689,230.25707 188.67545,221.72487 186.47649,210.12702 C 186.11814,208.237 185.78243,205.60539 185.73047,204.279 C 185.66546,202.61949 185.14303,201.41296 184.05533,200.41035 C 183.18597,199.60899 182.10227,198.08723 181.64711,197.02867 C 180.84132,195.15465 180.69581,195.10158 176.11664,195.01171 C 173.53005,194.96095 169.08864,194.71058 166.24685,194.45533 C 161.61618,194.03941 160.78412,194.1416 158.22936,195.43993 C 156.66153,196.2367 154.09207,197.06447 152.51945,197.27942 C 149.80154,197.6509 149.63261,197.79713 149.10345,200.23644 C 148.36305,203.64948 148.17637,232.08918 148.86761,236.16341 C 150.03052,243.01768 141.35506,248.85168 133.57118,246.44981 z M 141.0417,244.72028 C 144.29523,243.74527 147.69976,238.97017 146.91063,236.48866 C 145.98447,233.57621 146.27997,199.94143 147.23692,199.35046 C 147.69985,199.06457 148.22454,197.13778 148.40966,195.0439 C 148.79073,190.73343 146.62452,191.99146 145.76383,196.58047 C 145.32038,198.94478 143.95988,199.07229 143.62377,196.78106 C 143.34058,194.8506 141.85906,195.46569 142.09833,197.41438 C 142.55412,201.12654 142.50908,204.20199 141.9772,205.68461 C 141.46195,207.1209 141.51087,207.19445 142.45825,206.40799 C 143.90988,205.20297 143.91454,206.7552 142.46551,208.82447 C 141.7115,209.90123 141.62424,210.44755 142.15395,210.77501 C 142.93548,211.25813 141.50629,214.89163 140.22259,215.68519 C 139.0484,216.41106 138.87712,215.4175 139.91976,213.92856 C 141.20557,212.09236 141.22773,211.39624 139.98518,211.87317 C 138.76194,212.34268 138.76823,211.80751 140.0082,209.91464 C 140.84078,208.64364 140.85392,208.3573 140.09304,208.06525 C 138.77865,207.56074 138.36768,204.3699 139.3679,202.43522 C 140.33332,200.56785 140.71124,195.0702 139.99314,193.33974 C 139.69514,192.62164 139.81543,192.21703 140.3269,192.21703 C 140.76671,192.21703 141.50998,192.72225 141.97861,193.33974 C 142.73577,194.33741 142.83295,194.19449 142.85108,192.05664 C 142.8728,189.49487 143.68808,188.9315 144.7157,190.76818 C 145.05954,191.38274 145.55349,191.67287 145.81338,191.41292 C 146.44307,190.78307 144.84427,185.87425 143.37921,183.93928 C 142.73731,183.09149 142.34802,182.2619 142.51413,182.09575 C 143.27351,181.33619 144.87921,182.7922 146.38992,185.61022 C 147.29754,187.30327 147.8768,188.06684 147.67718,187.30706 C 147.38545,186.19676 146.09669,178.88927 146.08219,178.26324 C 146.05299,177.00296 148.18115,178.7646 149.18231,180.82946 C 150.5425,183.63479 151.19788,182.16789 149.97055,179.06519 C 149.41772,177.66765 149.74507,176.17819 150.60504,176.17819 C 150.90255,176.17819 151.3419,177.91039 151.58136,180.02752 C 151.82083,182.14464 152.30564,183.87684 152.65873,183.87684 C 153.04123,183.87684 153.16772,182.69686 152.9717,180.95727 C 152.69431,178.49576 152.80701,178.0711 153.69003,178.25048 C 155.31567,178.58073 154.92657,183.14212 152.92344,187.23736 C 151.0354,191.0973 150.72375,193.50013 152.11115,193.50013 C 153.1481,193.50013 158.25793,190.87703 158.27932,190.33374 C 158.28717,190.13455 158.88823,189.24984 159.61502,188.36771 C 160.93645,186.76382 160.93645,186.76382 160.57889,188.84887 C 160.13004,191.46622 161.2605,191.6121 163.62949,189.24255 C 164.88443,187.98731 165.32045,187.8125 165.32045,188.56461 C 165.32045,189.12202 164.72199,189.99734 163.99055,190.50978 C 163.1085,191.12774 162.90397,191.59193 163.38319,191.88817 C 163.78059,192.13384 164.59552,191.77223 165.19414,191.0846 C 166.67079,189.38838 169.30962,188.53739 168.77549,189.92964 C 168.50186,190.64288 168.77735,190.93392 169.72612,190.93392 C 171.13701,190.93392 175.14088,188.78104 174.64761,188.28766 C 174.48854,188.12854 174.94774,187.63021 175.66807,187.18025 C 176.87066,186.42903 176.94239,186.48348 176.54519,187.84608 C 176.19475,189.04834 176.64069,188.81057 178.89438,186.59356 C 183.13308,182.42384 188.03177,178.14133 188.58596,178.12103 C 189.6996,178.08022 186.99115,181.13691 184.60522,182.61359 C 182.12362,184.14947 180.77191,185.80149 181.99683,185.80149 C 182.32746,185.80149 182.43184,186.23454 182.22878,186.76382 C 182.02572,187.29311 181.6109,187.72615 181.30694,187.72615 C 181.00298,187.72615 180.94454,187.22093 181.17706,186.60343 C 181.40958,185.98594 180.37917,186.70769 178.88725,188.20732 C 177.34475,189.75779 175.56285,190.93816 174.75631,190.94374 C 171.95075,190.96318 171.43035,192.01714 173.83446,192.81075 C 176.35825,193.64388 180.46543,193.26886 185.84523,191.71406 C 187.78546,191.15331 190.5996,190.71208 192.09887,190.73351 C 194.96534,190.77452 195.84836,189.91798 193.38167,189.48918 C 191.99333,189.24786 192.00551,189.21022 193.70237,188.49812 C 195.82913,187.60561 195.94334,186.7436 194.06783,185.73962 C 192.74732,185.03274 192.73304,184.94451 193.81136,184.15585 C 194.43941,183.69649 194.76303,183.01274 194.53049,182.63641 C 193.78055,181.42268 192.24437,181.90772 191.61782,183.55606 C 191.28252,184.43819 190.7124,185.15994 190.3509,185.15994 C 189.12272,185.15994 189.68774,183.98663 191.93852,181.86313 C 193.17322,180.69826 194.18342,179.52 194.18342,179.24479 C 194.18342,178.05721 192.62332,178.93425 190.29697,181.42965 C 186.61609,185.37798 186.67293,184.12596 190.37136,179.79082 C 193.47755,176.14989 194.19739,173.45289 191.34847,176.12994 C 189.47177,177.89344 188.78601,177.82256 189.98696,175.98923 C 190.86826,174.64388 190.8413,174.42297 189.67371,173.42301 C 187.96143,171.95656 187.50114,172.03668 186.46005,173.98244 C 185.97344,174.89189 185.01422,175.93635 184.32846,176.30344 C 183.17277,176.9221 183.18645,176.80122 184.51574,174.64989 C 186.47717,171.47546 185.18978,171.73514 181.70989,175.21586 C 177.6051,179.32164 176.26841,179.15986 180.1303,175.02468 C 183.40504,171.51821 181.96335,171.33698 164.76409,173.09312 C 140.21077,175.60017 129.48355,161.2608 134.75201,132.97519 C 137.00311,120.8894 136.93282,120.58508 131.75299,119.99154 C 123.34607,119.02821 115.04809,119.90225 113.64117,121.89928 C 112.89932,122.95231 112.57221,123.06207 112.15727,122.39722 C 111.49867,121.34197 104.5759,120.40781 97.332121,120.39672 C 88.073863,120.38253 82.428512,126.11278 79.035861,138.96812 C 78.244326,141.96738 76.884213,146.00916 76.013388,147.94986 C 73.523512,153.49873 72.790585,182.29456 75.154331,181.70116 C 79.523279,180.60435 82.943093,178.62703 81.45749,178.05669 C 79.561813,177.32892 79.564861,174.87584 81.463493,173.22461 C 82.260526,172.53143 83.535835,171.10858 84.297513,170.06271 C 85.059191,169.01684 85.884526,168.36332 86.13159,168.61044 C 86.378654,168.85757 85.536289,170.28033 84.259668,171.77213 C 82.024222,174.38437 81.312422,176.17819 82.511316,176.17819 C 82.826343,176.17819 83.250229,175.74515 83.453285,175.21586 C 83.656341,174.68659 84.274635,174.25354 84.827273,174.25354 C 85.633314,174.25354 85.696268,174.50734 85.145536,175.53664 C 84.767943,176.24235 84.68563,176.81533 84.962619,176.80993 C 86.064468,176.78843 86.989578,175.75869 87.409114,174.08672 C 87.651711,173.11991 88.107539,172.32888 88.422065,172.32888 C 88.736592,172.32888 88.993932,171.66662 88.993932,170.8572 C 88.993932,169.9788 90.005208,168.427 91.502448,167.00788 C 94.286401,164.36917 95.149871,163.99812 94.147691,165.87117 C 93.222378,167.60056 93.300327,167.83801 94.793341,167.83801 C 95.513631,167.83801 96.740311,167.24072 97.519291,166.51071 C 98.935621,165.1834 98.935621,165.1834 99.140581,166.51071 C 99.415901,168.29369 100.17539,168.18447 101.06381,166.23412 C 101.82057,164.57282 103.10472,164.04902 103.10472,165.40164 C 103.10472,166.92558 99.050861,170.40422 97.274921,170.40422 C 95.120181,170.40422 94.594581,171.64203 95.779381,173.92627 C 96.955201,176.19323 96.933181,179.22717 95.706531,183.9621 C 94.514111,188.5649 95.252941,191.13369 96.866901,187.99651 C 98.492541,184.83663 100.53912,177.46758 100.53912,174.77405 C 100.53912,171.768 101.93954,171.66263 102.49042,174.62724 C 102.88048,176.72641 103.74611,174.00714 103.74611,170.68267 C 103.74611,168.61818 105.02764,168.01533 105.50827,169.85371 C 106.19643,172.48588 106.99032,168.0593 106.53106,164.15078 C 106.26466,161.88356 106.36647,160.78092 106.84224,160.78092 C 107.97556,160.78092 108.87344,163.04328 108.92611,166.03156 C 108.9749,168.80034 108.9749,168.80034 109.72785,166.76134 C 110.14198,165.63988 110.74327,164.48508 111.06405,164.19512 C 111.40578,163.88622 111.47218,164.15454 111.2244,164.84311 C 110.99181,165.48945 110.80151,166.6958 110.80151,167.52388 C 110.80151,168.35195 110.36856,169.46251 109.83941,169.99179 C 108.85766,170.97378 108.48636,174.25847 109.35836,174.24746 C 109.62294,174.24412 110.4092,172.94498 111.10561,171.36047 C 112.55525,168.06217 113.64598,167.57127 113.23029,170.40422 C 113.0249,171.80391 113.20711,172.32888 113.8983,172.32888 C 114.69743,172.32888 114.67975,172.51564 113.78721,173.50211 C 113.20338,174.1474 112.72571,174.9952 112.72571,175.38612 C 112.72571,175.77706 111.78766,176.18737 110.64116,176.29793 C 108.55661,176.49897 108.55661,176.49897 110.96186,178.92618 C 112.28474,180.26115 113.37352,181.70465 113.38137,182.13394 C 113.38921,182.56325 113.96005,183.63625 114.64991,184.51838 C 116.30506,186.63488 116.51245,184.04174 114.93068,181.00754 C 114.0322,179.28405 114.03258,179.03037 114.93464,178.37061 C 115.48357,177.96912 115.92628,177.09505 115.91844,176.42825 C 115.90598,175.36939 115.74536,175.41896 114.64991,176.81975 C 113.73683,177.98733 113.39175,178.14527 113.38137,177.40035 C 113.37352,176.83754 113.94436,175.85453 114.64991,175.21586 C 116.30187,173.7205 116.42007,170.93409 114.81026,171.43599 C 114.18719,171.63025 114.61523,170.95829 115.77235,169.92565 C 116.91886,168.90248 117.8569,167.61203 117.8569,167.05798 C 117.8569,166.50394 118.29341,165.88308 118.82694,165.67831 C 119.58759,165.38634 119.71102,165.64847 119.3988,166.89277 C 118.80535,169.25783 120.14298,168.85268 122.18233,166.0497 C 123.15466,164.71328 124.32083,163.1976 124.77382,162.68154 C 125.22681,162.16549 126.02844,161.16586 126.55521,160.46015 C 127.46828,159.23691 127.5001,159.26686 127.23717,161.1017 C 126.8115,164.07215 126.1139,165.37791 125.15023,165.00803 C 124.66659,164.82239 124.2376,165.02233 124.19691,165.45231 C 124.15622,165.88231 124.08406,166.56785 124.03656,166.97573 C 123.98906,167.38361 123.15646,168.34284 122.18635,169.10734 C 121.21623,169.87184 120.4225,170.78571 120.4225,171.13817 C 120.4225,171.49061 119.95436,172.24722 119.3822,172.81953 C 118.42273,173.77923 118.37524,173.68843 118.77102,171.65098 C 119.16899,169.60231 119.12987,169.52989 118.23231,170.65374 C 117.53331,171.52896 117.37085,172.68731 117.64743,174.82383 C 118.18651,178.98793 118.92949,180.20659 119.44547,177.77302 C 120.00205,175.14801 122.95058,169.12111 123.67824,169.12111 C 124.46342,169.12111 124.53393,168.86198 122.36405,173.95127 C 120.51022,178.29928 119.43481,187.03983 121.0639,184.51838 C 121.40587,183.98911 121.69008,182.7478 121.69548,181.75993 C 121.70658,179.72958 123.05013,176.81626 124.5493,175.57175 C 125.83025,174.5084 125.83301,174.48509 124.05279,179.75476 C 122.20565,185.22248 123.12339,190.3123 125.14204,185.79589 C 126.14316,183.55606 126.14316,183.55606 125.80617,187.09206 C 125.59815,189.27485 125.78293,191.36176 126.28901,192.54527 C 127.10883,194.46246 127.10883,194.46246 127.33208,192.05664 C 127.59343,189.24022 128.76069,188.78902 128.76069,191.5044 C 128.76069,192.52386 129.32835,194.03953 130.02215,194.87255 C 131.28361,196.38712 131.28361,196.38712 131.30495,193.87436 C 131.32156,191.91833 132.23414,190.8934 132.3046,192.75165 C 132.36,194.21282 134.37495,197.32615 135.44664,197.60647 C 137.1205,198.0443 137.34947,197.73343 136.50945,196.16346 C 135.57942,194.42527 135.63258,192.85858 136.62161,192.85858 C 137.67104,192.85858 139.31095,196.58653 139.14573,198.59662 C 138.97213,200.70866 137.73588,201.34344 136.00521,200.20919 C 135.22047,199.6949 134.17875,199.27411 133.69027,199.27411 C 133.20179,199.27411 131.53202,198.41326 129.97966,197.36112 C 128.4273,196.30899 126.91061,195.44289 126.60922,195.43647 C 125.78855,195.41897 126.52801,220.20115 127.47509,224.45506 C 127.96112,226.63811 128.63754,228.144 129.13209,228.144 C 130.50513,228.144 130.87781,229.43301 129.83934,230.59024 C 129.24008,231.25804 128.99815,232.34366 129.20762,233.42495 C 129.74418,236.19469 128.90065,238.3035 126.8272,239.37598 C 124.7742,240.43788 124.39249,241.66956 125.76366,242.80778 C 126.41781,243.35081 126.94227,243.07179 128.02776,241.60324 C 128.80476,240.55203 129.88574,239.69195 130.42994,239.69195 C 131.22988,239.69195 131.15881,240.02331 130.05889,241.42197 C 128.69838,243.15198 128.69838,243.15198 130.46373,244.07717 C 131.65751,244.7028 132.30443,244.77623 132.4618,244.304 C 132.95102,242.83599 135.3087,240.3335 136.20254,240.3335 C 136.91965,240.3335 136.81656,240.76741 135.75975,242.19717 C 133.45718,245.31231 135.61948,246.34521 141.0417,244.72028 z M 139.66448,239.20423 C 139.66448,238.93598 140.3504,237.97659 141.18875,237.07226 C 142.0271,236.16791 142.91244,234.79954 143.15617,234.03143 C 143.51399,232.90378 144.79567,231.98794 144.79567,232.85991 C 144.79567,233.92357 143.08301,237.5557 142.13375,238.50519 C 140.91888,239.72035 139.66448,240.07547 139.66448,239.20423 z M 139.4545,235.41876 C 139.07182,235.03598 142.32321,230.13013 142.98419,230.093 C 143.22257,230.07961 142.93394,231.21743 142.3428,232.6215 C 141.31989,235.05103 140.18537,236.1498 139.4545,235.41876 z M 139.02308,230.00571 C 139.02308,229.13753 142.23134,224.93623 142.89432,224.93623 C 143.63645,224.93623 140.77681,229.98713 139.82483,230.35778 C 139.38387,230.52947 139.02308,230.37104 139.02308,230.00571 z M 139.02308,224.71474 C 139.02308,224.18126 139.45602,223.31173 139.98518,222.78244 C 140.51433,222.25317 140.94728,221.51079 140.94728,221.13274 C 140.94728,220.75468 140.51433,220.44536 139.98518,220.44536 C 138.77323,220.44536 140.31406,217.01556 142.51504,214.81405 C 143.18927,214.13966 142.33289,221.72628 141.55884,223.28497 C 140.52266,225.3715 139.02308,226.21704 139.02308,224.71474 z M 152.49246,190.52348 C 152.49246,190.29774 152.95471,189.77496 153.51967,189.36174 C 154.09522,188.9408 154.69595,187.28767 154.88589,185.60209 C 155.19158,182.88935 156.22741,181.39651 156.41685,183.39567 C 156.64937,185.84926 154.56799,190.93392 153.33113,190.93392 C 152.86986,190.93392 152.49246,190.74923 152.49246,190.52348 z M 168.88591,179.08559 C 169.57068,178.56754 170.49173,178.13448 170.93269,178.12326 C 171.37366,178.11204 171.73444,177.81416 171.73444,177.4613 C 171.73444,177.10845 172.09523,176.82887 172.53619,176.84002 C 173.72569,176.87011 169.91558,180.02752 168.68979,180.02752 C 167.80787,180.02752 167.8391,179.87754 168.88591,179.08559 z M 175.35089,177.14052 C 175.55395,176.61125 175.83352,176.17819 175.97216,176.17819 C 176.1108,176.17819 176.22424,176.61125 176.22424,177.14052 C 176.22424,177.66981 175.94467,178.10286 175.60297,178.10286 C 175.26127,178.10286 175.14784,177.66981 175.35089,177.14052 z M 144.55854,176.01781 C 143.96601,173.80626 144.08204,171.68733 144.79567,171.68733 C 145.14844,171.68733 145.43707,172.98647 145.43707,174.57432 C 145.43707,177.75347 145.14996,178.22522 144.55854,176.01781 z M 137.76596,175.13382 C 137.73807,173.65141 139.45504,169.12111 140.04475,169.12111 C 140.58709,169.12111 139.63744,173.05844 138.6521,174.89509 C 137.84529,176.39898 137.79004,176.41386 137.76596,175.13382 z M 173.42669,175.21586 C 173.62975,174.68659 173.90932,174.25354 174.04796,174.25354 C 174.1866,174.25354 174.30004,174.68659 174.30004,175.21586 C 174.30004,175.74515 174.02047,176.17819 173.67877,176.17819 C 173.33708,176.17819 173.22364,175.74515 173.42669,175.21586 z M 177.50704,174.89509 C 177.88463,174.18939 178.30071,173.61199 178.43165,173.61199 C 178.5626,173.61199 178.51879,174.18939 178.33428,174.89509 C 178.14978,175.6008 177.7337,176.17819 177.40966,176.17819 C 177.08418,176.17819 177.12775,175.60396 177.50704,174.89509 z M 135.17468,173.19998 C 135.17468,172.5029 135.59833,171.37216 136.11611,170.68723 C 136.97785,169.5473 137.00667,169.62576 136.4566,171.61407 C 135.73098,174.23694 135.17468,174.92514 135.17468,173.19998 z M 131.32629,172.16109 C 131.32629,171.56472 131.93115,170.13153 132.67044,168.97623 C 134.01459,166.87567 134.01459,166.87567 133.61822,169.11252 C 133.17136,171.63434 131.32629,174.08851 131.32629,172.16109 z M 80.014342,171.95022 C 80.014342,171.05552 83.61398,166.58107 84.343787,166.5686 C 84.784749,166.56107 85.146871,166.04968 85.148504,165.43219 C 85.15104,164.47297 88.563814,160.13937 89.31667,160.13937 C 89.458415,160.13937 89.464632,161.00682 89.330485,162.06704 C 89.089359,163.97277 85.889847,167.83801 84.553475,167.83801 C 84.173569,167.83801 83.862737,168.22074 83.862737,168.68851 C 83.862737,169.15628 83.194718,170.16672 82.37825,170.93395 C 80.917555,172.30652 80.014342,172.69483 80.014342,171.95022 z M 129.41054,169.12111 C 129.41054,168.59184 129.984,167.29268 130.68489,166.23412 C 131.39004,165.16913 131.95923,164.73929 131.95923,165.2718 C 131.95923,165.80108 131.38578,167.10022 130.68489,168.15878 C 129.97973,169.22378 129.41054,169.65362 129.41054,169.12111 z M 115.95063,167.19645 C 115.88682,165.58184 114.116,161.83047 113.98215,163.02636 C 113.40457,168.18705 112.45547,168.37443 112.10188,163.39759 C 111.91325,160.74262 111.44613,158.53188 111.04594,158.40013 C 110.59791,158.25263 110.44116,158.75453 110.62874,159.73601 C 111.34329,163.47483 109.74545,163.43948 108.9443,159.69875 C 108.505,157.64754 107.87727,154.92533 107.54934,153.6494 C 107.22141,152.37348 106.93482,150.35258 106.91246,149.15854 C 106.87602,147.21281 106.81158,147.1374 106.29146,148.43174 C 105.97227,149.22605 105.86593,150.27948 106.05514,150.77268 C 106.58192,152.14576 105.03484,152.72161 103.89151,151.57801 C 102.61887,150.30507 104.44347,146.29812 106.79276,145.20663 C 107.58649,144.83786 108.23591,144.27316 108.23591,143.95174 C 108.23591,143.63031 108.66885,142.93429 109.19801,142.40501 C 111.20869,140.39385 110.43993,137.62597 107.91785,137.79587 C 104.76437,138.0083 104.36777,137.34214 104.98722,132.87337 C 105.85483,126.61445 105.11491,127.5248 104.0747,133.99608 C 103.45567,137.84718 102.46332,136.77457 102.46332,132.25439 C 102.46332,125.56667 105.83255,124.74684 111.10755,130.15098 C 113.98892,133.10289 114.97726,133.67329 119.03475,134.72592 C 121.58424,135.38733 124.3826,136.489 125.25333,137.17409 C 126.94672,138.50642 127.21191,138.30231 126.21303,136.43543 C 125.58215,135.25634 118.8903,131.76074 115.92224,131.05986 C 115.03455,130.85024 112.74554,129.51251 110.83555,128.08713 C 106.97027,125.20254 106.55566,125.10827 103.44741,126.4073 C 100.23582,127.74951 98.853651,130.71046 100.29748,133.15524 C 101.36253,134.95868 101.34778,135.05553 99.711681,137.00038 C 98.112911,138.90088 98.001271,138.93562 97.357771,137.73296 C 96.831721,136.74977 96.910861,136.34245 97.715441,135.89207 C 98.662911,135.3617 98.659941,135.14217 97.679691,133.2461 C 94.591831,127.27341 105.47021,121.78043 111.4409,126.29745 C 112.95673,127.44422 114.65965,128.72509 115.22518,129.14381 C 116.91301,130.39351 120.02282,130.46919 120.27056,129.26659 C 120.41523,128.56437 119.68088,127.90423 118.01215,127.23637 C 115.63102,126.28341 113.5238,124.48337 114.10674,123.90029 C 114.26131,123.74568 115.16834,124.02423 116.12234,124.5193 C 118.01083,125.49929 118.56424,124.68824 116.73445,123.62224 C 115.85356,123.10904 115.81905,122.96477 116.5741,122.95187 C 118.63602,122.91663 122.44155,127.28863 122.22679,129.44597 C 122.10306,130.689 122.34968,131.57488 122.86944,131.75443 C 123.51341,131.97686 123.6103,131.49877 123.27911,129.73296 C 122.99605,128.22376 123.08874,127.42017 123.5459,127.42017 C 124.2343,127.42017 124.6981,128.78632 125.05343,131.86078 C 125.32339,134.19657 126.54512,134.14924 127.36573,131.77121 C 128.06909,129.73295 128.08471,129.76586 127.85412,132.79981 C 127.71219,134.66715 128.00667,136.8695 128.58266,138.24836 C 129.82519,141.22287 129.32062,146.57144 127.52304,149.48068 C 126.78537,150.67452 126.19073,152.7369 126.18527,154.12034 C 126.17186,157.52126 125.1599,159.10409 124.55083,156.67679 C 124.24579,155.46112 123.94025,155.14557 123.60052,155.69538 C 123.32033,156.14886 123.52234,157.15076 124.05925,157.97037 C 125.17828,159.67865 124.8429,161.01044 122.62446,163.66792 C 121.01776,165.59258 121.01776,165.59258 121.70017,163.73932 C 123.0521,160.06788 118.09714,163.69374 116.53743,167.51723 C 116.06017,168.68719 116.00843,168.65891 115.95063,167.19645 z M 119.55262,159.84231 C 120.33558,159.29376 121.05625,157.87856 121.28671,156.43698 C 121.51988,154.97851 122.36634,153.3299 123.35762,152.40357 C 126.50488,149.46251 127.60107,145.41574 126.43222,141.05317 C 125.99816,139.43305 124.91229,139.0893 124.91229,140.572 C 124.91229,141.92835 123.64311,141.77709 123.56652,140.41161 C 123.53189,139.79412 123.17111,140.49718 122.76477,141.97397 C 122.01829,144.68704 119.69112,147.94986 118.50254,147.94986 C 117.54169,147.94986 117.72145,146.93631 118.84819,146.00097 C 119.3934,145.54838 119.67548,144.7506 119.47504,144.22814 C 119.2746,143.70567 119.56894,142.57852 120.12913,141.72336 C 122.56148,138.01022 119.95119,135.73452 113.20675,135.6883 C 112.58941,135.68408 112.08431,135.25645 112.08431,134.73802 C 112.08431,134.2196 111.65136,133.62925 111.12221,133.42615 C 110.59305,133.22304 110.16011,132.6547 110.16011,132.16318 C 110.16011,131.67165 109.87148,131.26948 109.51871,131.26948 C 109.16594,131.26948 108.9001,132.20776 108.92795,133.35453 C 108.9558,134.50131 109.12416,135.0787 109.3021,134.63764 C 109.75651,133.51121 110.80151,133.63702 110.80151,134.81816 C 110.80151,135.35852 111.18666,135.94846 111.65741,136.12915 C 113.19013,136.71745 112.59788,142.15013 110.63606,145.49789 C 107.80532,150.32843 109.13737,155.0875 114.01714,157.57757 C 115.42347,158.2952 116.5741,159.30952 116.5741,159.83163 C 116.5741,161.04096 117.83527,161.04547 119.55262,159.84231 z M 117.8569,152.39352 C 117.8569,152.03685 118.15576,151.39633 118.52103,150.97016 C 118.8863,150.54399 119.8965,149.20094 120.76592,147.98561 C 122.78221,145.16714 122.90038,146.99591 120.90355,150.11545 C 119.44329,152.39674 117.8569,153.58293 117.8569,152.39352 z M 127.49829,166.07373 C 127.50951,165.8091 127.94246,165.03217 128.46039,164.34724 C 128.97832,163.66229 129.40209,162.57967 129.40209,161.94141 C 129.40209,161.30314 129.69622,160.78092 130.05571,160.78092 C 130.74458,160.78092 130.30529,163.45215 129.29079,165.43219 C 128.72013,166.54599 127.45914,166.9973 127.49829,166.07373 z M 85.145536,158.58132 C 85.145536,158.43009 85.517126,157.92487 85.971291,157.4586 C 86.425455,156.99233 87.4592,155.5282 88.2685,154.20501 C 89.579846,152.06096 90.91813,151.06047 90.91813,152.22417 C 90.91813,153.30505 86.835662,158.85626 86.040772,158.85626 C 85.548392,158.85626 85.145536,158.73253 85.145536,158.58132 z M 78.250494,156.01969 C 79.22061,155.08127 80.014342,154.07583 80.014342,153.78536 C 80.014342,152.59911 83.554439,149.83426 85.872797,149.20984 C 88.259931,148.56691 89.106597,147.20863 87.672751,146.32226 C 87.244078,146.05726 87.421403,145.58867 88.152792,145.05373 C 89.922713,143.75923 88.696049,143.20427 86.804685,144.44385 C 85.500393,145.29865 85.145536,145.34311 85.145536,144.65172 C 85.145536,143.26323 88.98709,141.76832 89.678717,142.88766 C 90.112439,143.5896 90.385451,143.60687 91.019701,142.97247 C 93.215952,140.77569 93.419148,142.77034 91.238829,145.1235 C 90.356905,146.07534 89.635331,147.35402 89.635331,147.96499 C 89.635331,148.57597 89.202387,149.43525 88.673232,149.87452 C 88.144078,150.31379 87.711133,151.3276 87.711133,152.12744 C 87.711133,154.7303 85.572705,156.60022 82.476292,156.70497 C 80.945834,156.75673 78.972068,157.00763 78.090144,157.26251 C 76.486645,157.72592 76.486645,157.72592 78.250494,156.01969 z M 83.542038,153.40307 C 83.542038,151.73398 82.955354,151.31412 82.240256,152.47146 C 81.756093,153.25504 82.309272,155.00695 83.040858,155.00695 C 83.316507,155.00695 83.542038,154.2852 83.542038,153.40307 z M 77.573785,149.55374 C 77.586856,148.49518 77.730605,148.1398 77.893228,148.76401 C 78.055851,149.38822 78.045156,150.25432 77.869462,150.68868 C 77.693768,151.12302 77.560713,150.61231 77.573785,149.55374 z M 130.3237,149.55374 C 130.60992,148.84803 131.15884,146.03322 131.54352,143.2986 C 131.92821,140.56398 132.46965,138.32656 132.74672,138.32656 C 133.48998,138.32656 133.36032,145.88158 132.60909,146.34598 C 132.25632,146.56406 131.96769,147.2675 131.96769,147.90917 C 131.96769,148.55085 131.4807,149.47208 130.8855,149.95636 C 129.92232,150.74002 129.86054,150.69575 130.3237,149.55374 z M 80.395982,147.15841 C 82.774319,144.36907 85.661898,143.63242 84.060941,146.22345 C 83.863737,146.54261 83.494316,146.46699 83.240007,146.05541 C 82.930921,145.55518 82.420983,145.85153 81.701897,146.94925 C 81.110247,147.85245 80.299458,148.59141 79.900146,148.59141 C 79.500834,148.59141 79.72396,147.94657 80.395982,147.15841 z M 123.179,239.96952 C 123.46184,239.46399 124.5448,238.60992 125.58557,238.07158 C 127.731,236.96187 128.0741,234.71994 126.51579,231.99331 C 126.01164,231.11118 125.58892,229.56961 125.57642,228.56761 C 125.56303,227.49377 124.9831,226.28364 124.16394,225.62015 C 122.78416,224.50262 122.87754,221.82944 124.26637,222.68799 C 126.0851,223.8123 124.58791,221.03134 122.67178,219.72611 C 121.4395,218.88671 120.42929,218.00044 120.42688,217.75662 C 120.4181,216.86841 121.83575,216.4699 122.53086,217.16518 C 123.60834,218.24291 124.2709,218.02619 124.2709,216.59604 C 124.2709,215.74378 123.84329,215.31293 122.99744,215.31293 C 122.22682,215.31293 121.11685,214.36296 120.18643,212.90711 C 118.16263,209.74044 118.62942,209.4341 121.39421,212.11449 C 123.6295,214.28153 123.6295,214.28153 123.6295,212.38763 C 123.6295,210.90626 123.2162,210.31074 121.73204,209.65364 C 119.92362,208.85295 115.97166,202.22907 116.80505,201.39548 C 117.39397,200.8064 118.4983,201.89387 118.4983,203.06288 C 118.4983,205.06293 123.26011,209.51177 123.51421,207.74913 C 123.6528,206.78775 123.07901,205.78504 121.75036,204.66679 C 120.66727,203.75521 119.7811,202.72571 119.7811,202.37902 C 119.7811,202.03232 119.34816,201.31562 118.819,200.78634 C 118.28985,200.25705 117.8569,199.49582 117.8569,199.09471 C 117.8569,198.69359 119.15574,199.64042 120.7432,201.19877 C 122.33066,202.75711 123.6295,203.70036 123.6295,203.29486 C 123.6295,202.88937 123.34242,202.38013 122.99155,202.16322 C 121.43969,201.2039 120.88883,199.13206 122.30516,199.5817 C 123.65652,200.01071 123.65652,200.01071 122.35439,197.87813 C 121.63823,196.70522 120.4402,194.44642 119.69211,192.85858 C 118.10829,189.49685 117.97795,189.31587 117.49129,189.80267 C 117.09185,190.20219 118.84218,194.07015 120.68862,196.86828 C 121.81141,198.56978 121.81152,198.63256 120.69171,198.63256 C 120.0531,198.63256 118.68614,197.83863 117.65402,196.86828 C 115.50215,194.84518 115.3866,206.60665 117.48542,214.02983 C 119.99941,222.9214 118.68342,233.14728 114.45107,237.60816 C 112.90821,239.23432 112.64191,239.86476 113.24364,240.46663 C 113.84537,241.06851 114.41529,240.75999 115.82767,239.06778 C 117.04299,237.61167 117.79353,237.14571 118.10686,237.6528 C 118.36379,238.06863 118.31468,238.40885 117.99771,238.40885 C 117.68075,238.40885 117.075,239.1693 116.65162,240.09875 C 115.76885,242.0367 122.09247,241.9115 123.179,239.96952 z M 210.8598,240.29922 C 210.8598,239.05828 214.27625,235.32174 215.11613,235.64411 C 215.69057,235.8646 215.36274,236.58279 214.04649,237.98739 C 211.66217,240.53174 211.66652,240.97505 214.07584,240.97505 C 215.43372,240.97505 216.54508,240.37502 217.8101,238.95888 C 220.06934,236.42974 221.85318,236.66473 219.83887,239.22613 C 218.46349,240.97505 218.46349,240.97505 220.96383,240.97505 C 223.57708,240.97505 226.77319,238.60551 225.7782,237.40576 C 225.5104,237.08284 225.9576,237.38082 226.77198,238.06794 C 231.25032,241.84642 236.153,222.44435 232.47333,215.50518 C 231.87452,214.37593 231.38458,212.31586 231.38458,210.92726 C 231.38458,209.53865 230.95341,207.5756 230.42643,206.56492 C 229.89945,205.55423 229.43704,203.86121 229.39885,202.80264 C 229.32942,200.87799 229.32942,200.87799 228.64892,203.00419 C 228.01979,204.96986 222.78669,209.49306 222.02412,208.7303 C 221.11812,207.82407 224.60614,204.57866 226.57408,204.4968 C 227.15105,204.47279 228.33709,200.50291 227.89839,200.0641 C 227.79885,199.96454 226.67621,201.15403 225.40363,202.70741 C 223.51463,205.01323 219.03635,207.50832 220.21735,205.59695 C 220.40388,205.29507 220.96225,205.04808 221.45817,205.04808 C 222.56577,205.04808 223.68779,203.06764 223.68779,201.11263 C 223.68779,199.98206 223.51675,199.83012 222.91811,200.42891 C 222.49478,200.85233 221.66424,201.19877 221.07244,201.19877 C 220.48066,201.19877 219.62504,201.64641 219.17108,202.19353 C 218.04631,203.54911 215.0003,203.16312 215.11798,201.67994 C 215.17129,201.00809 214.76044,200.55722 214.09494,200.55722 C 212.25236,200.55722 210.79991,198.31023 210.5102,195.0115 C 210.35973,193.29811 210.06574,190.8858 209.8569,189.65081 C 209.28565,186.27274 210.58159,188.07446 211.47199,191.89625 C 211.88303,193.66051 212.3894,195.82576 212.59726,196.70789 C 213.23,199.39325 216.87992,200.33253 218.60466,198.25384 C 219.37462,197.32588 219.52621,197.33618 220.28035,198.36778 C 221.03869,199.40512 221.17018,199.32788 221.81999,197.46338 C 222.55566,195.35254 223.68779,194.70018 223.68779,196.38712 C 223.68779,196.9164 223.95697,197.34945 224.28596,197.34945 C 225.14496,197.34945 225.68457,195.26444 225.50723,192.63053 C 225.41096,191.20073 225.76443,189.90413 226.46009,189.13525 C 228.26733,187.1378 231.53268,176.95993 231.26547,174.15726 C 231.13595,172.79879 231.25408,171.68733 231.52798,171.68733 C 233.10293,171.68733 231.50416,185.83107 229.50736,189.563 C 229.12875,190.27061 228.81898,191.79868 228.81898,192.9587 C 228.81898,195.30847 232.72637,188.04107 233.56201,184.13707 C 235.63769,174.43971 235.03992,167.51313 231.61478,161.57387 C 229.68731,158.23161 230.22182,156.85496 232.42851,159.47809 C 235.89665,163.60073 236.63904,167.50119 236.95027,183.23529 C 237.25532,198.65665 237.86901,202.2013 240.56034,204.08682 C 242.6369,205.54165 243.3318,205.23805 241.75877,203.56325 C 240.30577,202.01622 239.9247,200.55722 240.97365,200.55722 C 241.80822,200.55722 246.19752,205.88642 247.16774,208.07769 C 247.9541,209.85369 247.95695,209.85066 248.00887,207.18235 C 248.06739,204.17474 246.07351,201.22097 242.86422,199.56099 C 239.53927,197.84117 238.98731,195.75646 239.43022,186.59098 C 240.0342,174.09245 237.58578,163.38952 232.94799,158.25481 C 231.77647,156.95778 230.22941,154.32508 229.51006,152.40438 C 224.09178,137.93715 211.58457,126.92301 194.50412,121.57732 C 189.63426,120.05319 189.47657,120.06237 190.56402,121.80657 C 193.75736,126.92849 196.74248,140.41796 196.76583,149.83196 C 196.78266,156.61082 196.78266,156.61082 197.99672,154.04462 C 199.15565,151.59492 199.21313,151.55967 199.26269,153.26823 C 199.29125,154.25264 198.73735,156.18985 198.03181,157.57315 C 197.32628,158.95647 196.74902,160.28886 196.74902,160.53402 C 196.74902,160.77919 197.32628,160.45726 198.03181,159.81859 C 202.56089,155.71885 198.3545,162.25445 192.73572,168.04729 C 191.09471,169.73913 190.89498,171.04577 192.27737,171.04577 C 192.59848,171.04577 193.87669,169.45793 195.11784,167.51723 C 196.35899,165.57653 197.81101,163.98869 198.34455,163.98869 C 199.70942,163.98869 199.57646,164.43569 197.39042,167.19645 C 196.33211,168.53299 195.46622,169.93152 195.46622,170.30428 C 195.46622,170.67704 194.96352,171.26341 194.34911,171.60733 C 193.7347,171.95125 193.40201,172.40269 193.6098,172.61052 C 193.81758,172.81836 194.76842,172.37404 195.72278,171.62317 C 198.00808,169.82512 198.40444,170.38738 196.97499,173.3995 C 195.43007,176.65494 195.59279,177.23572 199.68226,183.06256 C 201.60627,185.80397 204.07696,189.92347 205.17269,192.21703 C 206.26841,194.51058 207.83809,197.06219 208.66086,197.88729 C 210.47068,199.70223 210.84811,202.02545 211.17915,213.38827 C 211.31793,218.1518 211.61797,224.82383 211.84591,228.21499 C 212.26033,234.38075 212.26033,234.38075 210.20931,236.7173 C 209.01721,238.07535 208.31262,239.45614 208.52681,240.01445 C 208.9439,241.10161 210.8598,241.33547 210.8598,240.29922 z M 226.09303,234.59573 C 226.88677,233.93343 227.53618,233.10782 227.53618,232.76106 C 227.53618,232.4143 227.96913,231.96441 228.49828,231.7613 C 229.02744,231.55821 229.46038,230.94992 229.46038,230.40956 C 229.46038,229.86921 229.74187,229.42711 230.08591,229.42711 C 230.48769,229.42711 230.49391,229.99936 230.10329,231.02703 C 228.97296,234.00072 227.40371,235.84287 226.01927,235.82129 C 224.64989,235.79994 224.64989,235.79994 226.09303,234.59573 z M 224.64989,230.7102 C 224.43186,230.35735 224.55914,230.06865 224.93273,230.06865 C 225.30632,230.06865 225.61198,229.63561 225.61198,229.10633 C 225.61198,228.57704 225.85429,228.144 226.15043,228.144 C 226.44657,228.144 227.04799,227.35564 227.4869,226.3921 C 228.26175,224.69109 228.24929,224.67246 227.0583,225.75054 C 225.23009,227.40544 224.12073,227.21423 225.1255,225.41739 C 225.56945,224.62347 226.10595,223.82955 226.31772,223.65312 C 226.52948,223.4767 227.04474,222.68278 227.46273,221.88885 C 228.44479,220.02355 229.72656,219.9995 229.24133,221.85547 C 229.03856,222.63103 229.16735,223.62073 229.52752,224.05482 C 230.22075,224.8903 228.94559,228.05373 227.03873,230.22904 C 225.9232,231.50162 225.2257,231.64212 224.64989,230.7102 z M 224.32919,221.40768 C 224.32919,220.87841 224.61782,220.44536 224.97059,220.44536 C 225.32336,220.44536 225.61198,220.0432 225.61198,219.55167 C 225.61198,218.70148 227.44297,217.57205 227.96871,218.09793 C 228.10562,218.23486 227.70352,219.25029 227.07516,220.3544 C 225.87781,222.45834 224.32919,223.05234 224.32919,221.40768 z M 223.70718,217.84291 C 224.44091,216.47158 226.05399,215.54119 226.6552,216.14254 C 227.09793,216.58539 224.54644,219.16226 223.66522,219.16226 C 223.22113,219.16226 223.23503,218.72533 223.70718,217.84291 z M 221.78374,215.7941 C 221.81357,214.60739 224.97059,212.41369 224.97059,213.57967 C 224.97059,214.4692 223.01291,216.59604 222.19413,216.59604 C 221.95734,216.59604 221.77266,216.23516 221.78374,215.7941 z M 221.76359,212.0582 C 221.76359,211.14422 224.23771,208.59205 224.68756,209.042 C 225.17485,209.52941 223.6258,211.99169 222.57913,212.39342 C 222.13058,212.56558 221.76359,212.41475 221.76359,212.0582 z M 223.04639,184.63936 C 223.04639,184.35304 223.56506,183.55911 224.19898,182.87509 C 225.48539,181.48702 227.76222,176.19045 227.2799,175.708 C 227.10941,175.53748 226.56479,176.36744 226.06962,177.55234 C 225.13064,179.79924 223.27322,181.75136 222.65894,181.13693 C 222.46289,180.94084 222.73152,180.10578 223.2559,179.28124 C 223.78028,178.4567 225.00557,175.40032 225.97878,172.48927 C 227.87333,166.82224 228.90878,165.61645 228.35883,169.71769 C 228.17288,171.10437 228.32965,173.12526 228.7072,174.20856 C 229.1205,175.39444 229.1517,176.17819 228.78562,176.17819 C 228.4512,176.17819 228.17758,177.00894 228.17758,178.02431 C 228.17758,179.03966 227.74464,180.2298 227.21548,180.66907 C 226.68633,181.10834 226.25338,181.95204 226.25338,182.54397 C 226.25338,183.1359 225.90703,183.96665 225.48371,184.39007 C 224.60991,185.26408 223.04639,185.42399 223.04639,184.63936 z M 223.04639,172.72801 C 223.04639,172.59466 223.47933,171.44915 224.00849,170.1824 C 225.28892,167.11716 225.25693,165.84371 223.91248,166.35975 C 223.02221,166.70146 222.92833,166.4712 223.32055,164.90808 C 224.11373,161.74706 223.97447,160.78092 222.72569,160.78092 C 221.96792,160.78092 221.76359,159.88394 221.76359,156.55737 C 221.76359,152.22875 222.86642,151.02419 223.72687,154.41296 C 223.94422,155.26893 224.45728,155.8971 224.86702,155.80889 C 225.34399,155.7062 225.61198,156.66238 225.61198,158.46685 C 225.61198,160.23776 225.93304,161.40842 226.47583,161.61677 C 228.3419,162.33302 225.71587,172.97044 223.673,172.97044 C 223.32837,172.97044 223.04639,172.86134 223.04639,172.72801 z M 218.91306,156.34795 C 218.71472,156.02693 218.72048,155.32626 218.92588,154.79088 C 219.20708,154.05789 218.96996,153.90361 217.96586,154.16625 C 216.57235,154.53075 216.11183,152.61945 217.02172,150.24777 C 217.6382,148.64086 218.55659,149.06671 218.55659,150.95947 C 218.55659,152.61529 218.59515,152.63499 219.4983,151.44064 C 220.36533,150.29403 220.44161,150.46232 220.46039,153.56345 C 220.47903,156.6418 219.82352,157.82144 218.91306,156.34795 z M 214.0668,151.11546 C 214.0668,149.48232 215.17846,147.3083 216.01356,147.3083 C 216.83139,147.3083 216.80437,149.63745 215.96843,151.19981 C 215.09607,152.83021 214.0668,152.78455 214.0668,151.11546 z M 212.784,148.02352 C 212.784,146.86794 214.54319,143.31632 214.84676,143.85904 C 215.31417,144.69466 214.12868,148.59141 213.40706,148.59141 C 213.06437,148.59141 212.784,148.33586 212.784,148.02352 z M 211.33972,144.36673 C 210.83666,143.86355 211.55842,141.53433 212.21741,141.53433 C 212.94645,141.53433 212.95877,143.91678 212.23206,144.36602 C 211.92849,144.55367 211.52695,144.55399 211.33972,144.36673 z M 208.9356,139.98391 C 208.9356,139.42523 208.54042,138.96812 208.05742,138.96812 C 207.23814,138.96812 206.39442,135.9385 206.37707,132.93432 C 206.37024,131.7528 206.41265,131.75077 207.6528,132.87337 C 208.35834,133.51203 208.9356,134.42287 208.9356,134.89746 C 208.9356,135.37204 209.38597,135.76036 209.93642,135.76036 C 210.69771,135.76036 210.88959,136.32427 210.73817,138.11658 C 210.54634,140.3872 208.9356,142.0558 208.9356,139.98391 z M 203.56783,132.84028 C 202.31242,129.78701 202.56176,128.45171 204.0936,130.02456 C 205.13933,131.0983 206.13595,135.76151 205.31894,135.75795 C 205.0151,135.75663 204.2271,134.44367 203.56783,132.84028 z M 192.06871,236.80496 C 193.34003,235.56997 194.83012,234.55953 195.38003,234.55953 C 196.00655,234.55953 195.55071,235.25833 194.15919,236.43111 C 192.20509,238.07804 192.07817,238.3577 193.10187,238.76089 C 194.3133,239.23801 197.84226,238.00539 197.17517,237.33814 C 196.55209,236.71491 197.9979,234.55953 199.03905,234.55953 C 199.79149,234.55953 199.85646,234.82994 199.33718,235.80045 C 197.87481,238.53356 200.50043,239.07296 203.32336,236.61936 C 204.79632,235.33911 204.8216,233.63645 203.35932,234.19772 C 202.40704,234.56324 202.41931,234.45284 203.45873,233.30402 C 204.91089,231.69902 203.50868,231.43205 201.52175,232.93525 C 200.83698,233.4533 199.89889,233.88634 199.43711,233.89757 C 197.95081,233.9337 199.32213,232.65267 202.48696,231.04854 C 204.18182,230.18949 205.7398,229.04018 205.94913,228.49453 C 206.44983,227.18942 205.62144,227.23809 203.726,228.62516 C 201.97699,229.90508 199.48153,231.35176 199.02274,231.35176 C 197.95683,231.35176 199.7552,229.40532 201.44525,228.7298 C 204.23818,227.61346 208.2942,224.38511 208.2942,223.27844 C 208.2942,221.98458 207.40526,222.15446 205.98988,223.71881 C 204.46114,225.40846 201.39617,227.02518 200.39358,226.67079 C 199.97653,226.52337 200.64552,225.964 201.88021,225.42773 C 204.17874,224.42941 208.44055,220.44536 207.20994,220.44536 C 206.83437,220.44536 206.16777,220.87841 205.72861,221.40768 C 205.28945,221.93697 204.53253,222.37001 204.04658,222.37001 C 203.56061,222.37001 203.16301,222.61237 203.16301,222.90859 C 203.16301,223.2048 202.51359,223.78838 201.71986,224.20543 C 200.92613,224.62247 199.29598,225.67927 198.09731,226.55385 C 195.9225,228.14065 194.18342,228.61359 194.18342,227.61822 C 194.18342,227.32904 195.04346,226.67947 196.09462,226.17473 C 199.97353,224.31216 207.01141,219.72529 207.01141,219.05981 C 207.01141,218.66645 206.33611,218.8157 205.43047,219.40924 C 203.60268,220.60714 202.90808,220.73541 203.50816,219.76423 C 203.73963,219.38961 204.62256,218.81936 205.47021,218.49701 C 206.40592,218.14116 207.01141,217.3941 207.01141,216.59544 C 207.01141,215.37014 206.89052,215.34161 205.24756,216.17907 C 202.12349,217.7715 188.58645,220.05583 189.86759,218.77439 C 190.08086,218.56107 192.79879,217.87889 195.90743,217.25843 C 202.09835,216.02278 206.37001,214.2632 206.37001,212.94868 C 206.37001,211.84698 206.53294,211.80555 202.04647,214.04801 C 198.17199,215.98457 187.96802,217.69987 190.33502,216.01672 C 190.86418,215.64045 191.89415,215.32816 192.62386,215.32276 C 196.2328,215.29604 201.04653,213.14682 198.35251,212.76505 C 195.78692,212.40147 195.78692,212.40147 199.36065,211.23914 C 201.3262,210.59984 203.33825,209.82713 203.83187,209.52198 C 205.6287,208.41122 204.04175,208.43622 200.59741,209.57295 C 196.76262,210.83854 193.54202,211.15198 193.54202,210.25959 C 193.54202,209.95024 196.35616,209.03118 199.79566,208.21725 C 203.23517,207.40332 205.56825,206.62944 204.98029,206.49753 C 204.39233,206.36562 201.41108,206.85162 198.3553,207.57755 C 192.74913,208.90933 187.35354,209.37433 190.01432,208.29638 C 190.71986,208.01054 192.88459,207.57447 194.82482,207.32732 C 198.87501,206.8114 203.69363,205.23761 205.0643,203.98306 C 206.40066,202.7599 204.28121,202.79229 202.3387,204.0247 C 201.55738,204.5204 199.34217,205.13323 197.41601,205.38655 C 195.48985,205.63986 193.44085,206.14261 192.86267,206.50378 C 192.27057,206.87364 190.99878,206.95382 189.95078,206.68735 C 187.76728,206.13216 190.60845,204.92986 195.95158,204.14797 C 197.45323,203.92822 200.19521,203.03255 202.04488,202.15759 C 205.40791,200.56674 205.40791,200.56674 202.68196,200.96474 C 199.80467,201.38485 198.9994,200.55239 201.07846,199.30712 C 201.91844,198.80401 201.47457,198.73729 199.31461,199.04204 C 197.72715,199.26603 196.09809,199.70854 195.69448,200.02543 C 195.29087,200.34231 193.41477,200.73848 191.52538,200.90581 C 189.63599,201.07313 188.45271,201.03849 188.89587,200.82883 C 189.33903,200.61917 189.53847,200.18358 189.33906,199.86087 C 189.13967,199.53815 189.49865,199.25131 190.13682,199.22346 C 190.80997,199.19407 190.9605,199.03695 190.49537,198.84922 C 189.06617,198.27239 189.64653,197.35022 191.45747,197.32051 C 194.10918,197.27701 197.75056,195.54956 195.34372,195.4769 C 194.39443,195.44824 193.45183,195.69328 193.24906,196.02144 C 193.0463,196.3496 191.29749,196.81591 189.36282,197.0577 C 187.42814,197.29948 185.84523,197.74366 185.84523,198.04478 C 185.84523,198.34591 186.28039,198.42526 186.81226,198.22112 C 187.47722,197.96588 187.746,198.22268 187.67274,199.04318 C 187.26689,203.58789 187.71136,203.78094 193.94387,201.76694 C 196.95351,200.79439 198.33801,200.60686 198.83539,201.10436 C 199.33277,201.60186 199.18107,201.91202 198.29942,202.2002 C 197.62308,202.42127 196.34814,202.83618 195.46622,203.12222 C 194.58429,203.40828 192.49173,203.99613 190.81607,204.42857 C 187.63113,205.25053 187.25377,205.94679 188.16053,209.32823 C 188.47996,210.5194 188.87388,210.67447 190.87772,210.3978 C 192.6523,210.15281 192.98773,210.24053 192.25922,210.75911 C 191.73007,211.13578 190.79202,211.44839 190.17467,211.4538 C 188.46302,211.46877 188.83741,212.5537 190.71707,213.02557 C 191.64768,213.25919 192.76679,213.12404 193.25458,212.71911 C 194.17201,211.95753 195.71546,212.46587 195.16933,213.34974 C 194.59993,214.27126 190.82811,214.70537 189.9225,213.95361 C 189.19785,213.35205 189.05222,214.53631 189.05222,221.03093 C 189.05222,229.91844 188.69909,230.85049 184.14417,233.98511 C 181.02461,236.13194 180.73207,236.84137 182.70777,237.46859 C 183.75015,237.79951 184.70265,237.26716 186.86342,235.14602 C 190.00001,232.06695 191.41921,232.12318 188.81133,235.2232 C 187.05917,237.30603 186.83797,237.90487 187.55563,238.62269 C 188.45828,239.52557 189.84161,238.9684 192.06871,236.80496 z M 194.18342,232.95564 C 195.06534,232.45137 196.50849,232.03878 197.39042,232.03878 C 198.99391,232.03878 198.99391,232.03878 197.39042,232.95564 C 196.50849,233.45991 195.06534,233.8725 194.18342,233.8725 C 192.57992,233.8725 192.57992,233.8725 194.18342,232.95564 z M 196.28264,229.42711 C 197.17958,228.7214 198.30087,228.1536 198.77438,228.16534 C 199.9703,228.19499 196.86193,230.7102 195.62936,230.7102 C 194.97133,230.7102 195.18486,230.29082 196.28264,229.42711 z M 195.72631,223.9739 C 196.67792,223.09177 197.69938,222.37001 197.99624,222.37001 C 198.29309,222.37001 198.7021,221.93697 198.90516,221.40768 C 199.10822,220.87841 199.70521,220.44536 200.2318,220.44536 C 200.79537,220.44536 200.09084,221.50106 198.51923,223.01157 C 197.05071,224.42299 195.43226,225.57778 194.92265,225.57778 C 194.32916,225.57778 194.61804,225.00125 195.72631,223.9739 z M 194.82482,221.84912 C 194.82482,220.9011 198.59522,218.52063 200.09039,218.52465 C 201.42965,218.52825 201.38954,218.61724 199.63674,219.5314 C 198.57922,220.08295 197.25766,220.94725 196.69994,221.4521 C 195.56749,222.47721 194.82482,222.63446 194.82482,221.84912 z M 99.214641,228.10045 C 103.99306,224.63815 105.62156,219.64353 102.78443,217.1519 C 100.31145,214.98007 100.03527,213.75174 101.53759,211.60636 C 102.37921,210.4045 102.39154,210.18051 101.61612,210.18051 C 99.801821,210.18051 99.073401,211.97204 99.519641,215.33679 C 100.30758,221.27793 95.085671,226.09773 90.428377,223.72797 C 89.815817,223.41628 88.475431,222.76672 87.449741,222.28448 C 86.424051,221.80224 85.452342,220.90246 85.290386,220.28497 C 85.128431,219.66748 84.57719,219.16226 84.065407,219.16226 C 83.426778,219.16226 83.262607,218.75977 83.542038,217.87915 C 83.838525,216.94477 83.657297,216.59604 82.875238,216.59604 C 82.166412,216.59604 81.931652,216.25626 82.184724,215.5966 C 82.39561,215.04691 81.993546,213.47057 81.291248,212.09361 C 79.732112,209.03672 79.682847,207.07004 81.091395,204.11558 C 82.166703,201.86009 81.991892,200.69356 80.698414,201.49316 C 80.322174,201.72575 80.014342,202.45936 80.014342,203.12342 C 80.014342,204.39393 78.914217,205.44466 78.264457,204.79473 C 77.499671,204.02977 79.723938,198.90136 81.668684,196.94573 C 84.420033,194.179 86.162573,191.58026 86.66772,189.49042 C 87.277992,186.96568 86.796063,187.29733 84.803217,190.77353 C 83.214272,193.54519 80.939406,196.01583 79.942936,196.05208 C 79.366855,196.07303 80.070165,192.89979 80.732325,192.49046 C 81.042974,192.29842 81.29714,191.67585 81.29714,191.10696 C 81.29714,190.53808 81.77642,189.5429 82.362207,188.89545 C 84.05871,187.02038 82.949808,186.84187 78.642896,188.29669 C 76.438039,189.04146 74.112848,189.65081 73.475807,189.65081 C 71.744645,189.65081 71.815952,202.23958 73.586333,209.16337 C 77.67573,225.15659 90.35118,234.52265 99.214641,228.10045 z M 106.82102,214.94275 C 107.12693,211.90119 105.51372,210.18434 103.80405,211.73195 C 102.11147,213.26408 102.12186,213.90436 103.8695,215.76507 C 105.62373,217.63282 106.57718,217.36719 106.82102,214.94275 z M 152.96015,195.03718 C 152.74702,194.824 152.19382,194.80122 151.7308,194.98654 C 151.21914,195.19133 151.37112,195.34336 152.11832,195.37413 C 152.79445,195.40199 153.17328,195.25037 152.96015,195.03718 z M 80.655741,185.86076 C 87.978846,183.46557 96.332741,177.53094 94.691741,175.88955 C 93.387107,174.5846 90.905765,175.00264 87.971126,177.02181 C 80.283255,182.31139 70.508535,185.52229 60.085413,186.182 C 52.384187,186.66943 51.677048,187.17476 57.778456,187.83061 C 65.9257,188.70637 74.110183,188.00164 80.655741,185.86076 z M 70.469741,172.92954 C 72.190448,172.00842 72.008891,170.79277 70.233002,171.34439 C 69.439271,171.59093 65.687085,171.95039 61.894811,172.14318 C 55.45875,172.47037 53.468384,173.06007 56.122218,173.85348 C 57.869922,174.37598 69.121187,173.65144 70.469741,172.92954 z M 171.09304,171.0339 C 189.66805,169.75601 194.27615,166.13717 194.72733,152.47332 C 195.14966,139.68349 189.99835,120.36308 186.16593,120.36308 C 182.94158,120.36308 182.8774,123.30175 185.8787,133.51492 C 187.72827,139.80888 188.37063,155.55375 186.91912,159.01665 C 186.36448,160.33986 186.16514,161.42248 186.47613,161.42248 C 186.78713,161.42248 187.22479,160.84508 187.44873,160.13937 C 187.67266,159.43366 188.1491,158.85626 188.5075,158.85626 C 188.86589,158.85626 188.99095,159.21714 188.78539,159.6582 C 188.57983,160.09927 188.23994,160.94068 188.03008,161.52799 C 186.49752,165.8169 157.42617,168.03184 149.68901,164.4492 C 147.61795,163.49021 145.28149,162.70558 144.49687,162.70558 C 142.53983,162.70558 139.02308,157.97876 139.02308,155.34833 C 139.02308,153.71579 140.8468,155.62619 141.45319,157.89393 C 142.08777,160.26717 142.49074,160.78092 143.7176,160.78092 C 145.21005,160.78092 145.21005,160.78092 143.32485,156.8521 C 142.14233,154.38771 141.45067,151.93661 141.46921,150.27619 C 141.51928,145.79314 142.9122,132.38103 143.62113,129.55589 C 144.45894,126.21717 143.86569,124.97726 142.1664,126.51547 C 140.81302,127.74057 140.60272,127.33822 141.61124,125.45333 C 142.12205,124.49865 142.06619,124.2124 141.36908,124.2124 C 140.87071,124.2124 140.0923,123.76568 139.63928,123.2197 C 138.49392,121.83929 137.76274,123.12808 137.7501,126.5496 C 137.7447,128.01149 137.28083,131.42979 136.71928,134.14582 C 134.97639,142.57556 135.62611,156.39237 137.94789,160.27311 C 142.02783,167.09253 152.59355,172.81812 159.54786,171.9782 C 161.13532,171.78647 166.33065,171.36154 171.09304,171.0339 z M 186.1882,164.66134 C 186.90598,164.37032 187.87937,163.66688 188.35128,163.09812 C 188.82319,162.52937 189.62905,162.06403 190.14207,162.06403 C 190.69874,162.06403 190.30646,162.71075 189.1692,163.66792 C 188.12109,164.55005 186.72795,165.2535 186.07334,165.23113 C 184.9967,165.19435 185.00765,165.13998 186.1882,164.66134 z M 173.39156,163.66431 C 185.8504,160.0568 186.48774,159.42614 186.48458,150.70832 C 186.48102,140.90827 182.55724,123.57085 180.34286,123.57085 C 179.63635,123.57085 179.53915,123.86451 179.97123,124.69357 C 183.91475,132.26018 186.04903,155.77733 183.05486,158.6714 C 181.90534,159.78249 181.88515,159.74794 182.41346,157.57315 C 185.07507,146.61664 180.055,122.45995 175.61086,124.83895 C 174.83478,125.2544 173.79834,125.44021 173.30766,125.25188 C 172.81698,125.06354 171.61287,125.32824 170.63183,125.84008 C 169.28288,126.54389 166.24741,126.77167 158.17746,126.77466 C 147.50676,126.77861 147.50676,126.77861 147.06776,133.67531 C 146.49891,142.61193 146.47799,146.19501 146.96945,150.51607 C 147.37077,154.04462 147.37077,154.04462 146.02005,150.1953 C 144.96422,147.18635 144.74632,145.43559 145.02195,142.17588 C 146.16106,128.7043 146.17197,127.49817 145.12641,130.62793 C 141.65192,141.02833 143.80333,158.41954 148.98448,161.81516 C 154.487,165.42143 164.66116,166.19224 173.39156,163.66431 z M 155.70599,163.41719 C 153.76935,162.81919 152.4934,162.13918 152.87055,161.90603 C 153.24769,161.67288 154.93793,161.89805 156.62664,162.40639 C 158.31534,162.91475 159.96848,163.16283 160.30028,162.95773 C 161.14765,162.4339 164.03765,163.24056 164.03765,164.00092 C 164.03765,164.94876 159.67661,164.64323 155.70599,163.41719 z M 148.36686,159.17704 C 147.23416,157.69164 146.95046,156.9316 147.52871,156.9316 C 148.30821,156.9316 151.20967,160.19813 151.20967,161.07572 C 151.20967,162.05482 149.88839,161.17236 148.36686,159.17704 z M 175.58284,157.83835 C 175.58284,156.71114 177.37446,154.66049 177.90001,155.18616 C 178.17384,155.46005 177.76449,156.31767 176.99035,157.09199 C 176.21622,157.86631 175.58284,158.20217 175.58284,157.83835 z M 174.30004,153.95948 C 174.30004,153.39629 176.94084,151.15763 177.60518,151.15763 C 178.67258,151.15763 178.12157,152.31076 176.5675,153.32928 C 174.86781,154.44323 174.30004,154.60103 174.30004,153.95948 z M 172.37584,152.03314 C 172.37584,151.03872 175.8532,148.44038 176.11853,149.23655 C 176.26982,149.69054 175.70608,150.59079 174.86577,151.2371 C 173.28777,152.4508 172.37584,152.74234 172.37584,152.03314 z M 158.26506,150.64725 C 158.26506,150.27833 159.2031,149.79371 160.34961,149.57035 C 163.36315,148.98322 167.25093,147.30486 169.6499,145.5554 C 171.82227,143.97121 172.56874,144.45032 170.61199,146.17292 C 167.89934,148.56101 158.26506,152.0523 158.26506,150.64725 z M 172.08508,147.27706 C 173.11547,146.2013 174.0666,145.64551 174.19872,146.04194 C 174.48219,146.89254 172.13601,149.23297 170.99986,149.23297 C 170.56634,149.23297 171.05469,148.35281 172.08508,147.27706 z M 161.47205,147.9931 C 161.47205,147.66402 162.04931,147.21152 162.75485,146.98754 C 163.46039,146.76354 164.03765,146.31105 164.03765,145.98197 C 164.03765,145.6529 164.38265,145.38365 164.8043,145.38365 C 165.22597,145.38365 166.37747,144.61078 167.36321,143.66615 C 169.21891,141.88785 170.27258,141.76057 168.95606,143.47374 C 167.06684,145.93214 161.47205,149.31065 161.47205,147.9931 z M 163.71695,142.17588 C 163.93498,141.82303 164.55778,141.53433 165.10097,141.53433 C 165.64415,141.53433 166.93444,140.62861 167.96828,139.52162 C 170.09606,137.24328 171.18611,137.43205 169.42065,139.77313 C 167.78161,141.94658 162.4782,144.1807 163.71695,142.17588 z M 168.35887,135.63287 C 169.48728,134.50419 170.60933,133.77957 170.85232,134.02261 C 171.38213,134.55255 168.14161,137.68502 167.06359,137.68502 C 166.64758,137.68502 167.23046,136.76155 168.35887,135.63287 z M 167.54024,133.23476 C 168.00287,132.48604 171.85225,130.5319 172.19304,130.87279 C 172.60593,131.28577 169.06826,133.8357 168.08239,133.8357 C 167.58,133.8357 167.33603,133.56528 167.54024,133.23476 z M 167.24465,130.96175 C 167.24465,130.79249 168.34632,130.09184 169.69281,129.40475 C 171.03929,128.71766 172.51778,127.70136 172.97833,127.14628 C 173.43889,126.59121 174.11931,126.13706 174.49038,126.13706 C 175.4767,126.13706 172.34668,129.31501 170.32315,130.36811 C 168.58056,131.27499 167.24465,131.5326 167.24465,130.96175 z M 166.26524,128.67526 C 166.05673,128.33781 166.48043,128.06172 167.20679,128.06172 C 168.7555,128.06172 168.91173,128.41849 167.58589,128.92739 C 167.06803,129.12616 166.47374,129.0127 166.26524,128.67526 z M 169.22229,127.86755 C 171.85054,125.95798 173.2681,125.3759 172.11608,126.6793 C 171.44406,127.43963 170.45791,128.06172 169.92464,128.06172 C 169.39136,128.06172 169.07531,127.97434 169.22229,127.86755 z M 158.26506,119.36889 C 158.26506,114.14862 159.18788,111.51411 161.6111,109.8164 C 166.23261,106.57859 170.45164,110.97939 170.45164,119.0378 C 170.45164,121.53098 170.54295,123.57085 170.65455,123.57085 C 171.57184,123.57085 178.90125,122.08402 180.55368,121.56273 C 184.29537,120.38235 183.06016,119.38087 178.14988,119.61379 C 175.22503,119.75252 173.65864,119.5847 173.65864,119.13262 C 173.65864,118.69258 175.53722,118.43843 178.78984,118.43843 C 182.20127,118.43843 183.92103,118.19345 183.92103,117.70751 C 183.92103,117.21248 182.93678,117.09318 180.8713,117.33787 C 179.19394,117.53658 176.81275,117.46199 175.57975,117.17213 C 173.01002,116.56802 174.01838,116.39003 180.76353,116.25714 C 192.29968,116.02987 183.74269,103.37455 171.67085,102.80955 C 161.24392,102.32154 135.53061,103.51848 142.55078,104.16507 C 146.63163,104.54094 148.66545,105.05373 148.31633,105.61876 C 148.11646,105.94223 147.10885,106.03803 146.0772,105.83165 C 141.32012,104.88001 140.94728,105.44791 140.94728,113.64528 C 140.94728,123.49306 141.46492,123.94427 152.97351,124.12795 C 158.26506,124.2124 158.26506,124.2124 158.26506,119.36889 z M 143.19217,119.07998 C 143.4102,118.72713 144.14881,118.43843 144.83353,118.43843 C 145.51825,118.43843 146.07847,118.72713 146.07847,119.07998 C 146.07847,119.43283 145.33986,119.72152 144.43712,119.72152 C 143.50622,119.72152 142.96735,119.44384 143.19217,119.07998 z M 144.74801,117.04197 C 144.10861,114.25925 144.21032,113.94755 145.75777,113.94755 C 147.04977,113.94755 147.31145,114.2221 147.13362,115.39105 C 146.96037,116.52995 144.95003,117.92117 144.74801,117.04197 z M 173.01724,114.57204 C 173.01724,114.22857 174.44335,113.94755 176.18638,113.94755 C 177.92941,113.94755 179.53391,113.65885 179.75193,113.306 C 180.23923,112.51736 183.27963,112.44824 183.27963,113.22581 C 183.27963,113.88964 180.30755,114.59839 176.06389,114.94657 C 174.34474,115.08761 173.01724,114.92441 173.01724,114.57204 z M 143.83357,112.02289 C 144.0516,111.67003 145.07884,111.38133 146.11633,111.38133 C 147.15382,111.38133 148.00267,111.67003 148.00267,112.02289 C 148.00267,112.37574 146.97543,112.66444 145.71992,112.66444 C 144.36141,112.66444 143.59767,112.40469 143.83357,112.02289 z M 173.38621,112.101 C 172.85794,111.24604 176.65721,110.68979 179.6572,111.18286 C 182.04755,111.57573 182.1548,111.6666 180.71403,112.07832 C 178.38609,112.74356 173.79202,112.75778 173.38621,112.101 z M 143.51287,110.14147 C 143.51287,109.30716 145.90518,108.63228 146.8319,109.20516 C 147.36219,109.53298 147.2164,109.82703 146.35659,110.16381 C 144.60735,110.84899 143.51287,110.84039 143.51287,110.14147 z M 180.3588,110.04234 C 180.12178,109.65875 179.34541,109.49724 178.63353,109.68346 C 177.92165,109.86966 176.9234,109.60611 176.41521,109.09779 C 175.61081,108.2932 175.90337,108.17358 178.6754,108.17358 C 181.58694,108.17358 182.63823,108.78318 182.63823,110.47148 C 182.63823,111.05165 180.76446,110.69887 180.3588,110.04234 z M 143.83357,107.53202 C 142.84374,107.10657 143.18198,106.97036 145.31458,106.93556 C 147.00372,106.908 147.92424,107.13993 147.68197,107.53202 C 147.21055,108.29498 145.60863,108.29498 143.83357,107.53202 z M 172.21549,107.00825 C 168.18679,106.54458 170.71769,105.62313 174.94144,106.01579 C 178.12614,106.31184 179.43124,106.2199 179.43124,105.69948 C 179.43124,105.29597 180.00849,104.96581 180.71403,104.96581 C 181.41957,104.96581 181.99683,105.25451 181.99683,105.60736 C 181.99683,105.96022 181.56389,106.24891 181.03473,106.24891 C 180.50558,106.24891 180.07263,106.55219 180.07263,106.92285 C 180.07263,107.54326 177.14108,107.57513 172.21549,107.00825 z M 168.52745,104.28082 C 168.52745,103.48536 178.05706,103.65734 178.5541,104.46177 C 178.72539,104.73899 176.53947,104.96581 173.6965,104.96581 C 170.45955,104.96581 168.52745,104.70977 168.52745,104.28082 z M 163.5566,121.86286 C 163.11564,121.68488 162.39407,121.68488 161.9531,121.86286 C 161.51214,122.04083 161.87293,122.18644 162.75485,122.18644 C 163.63678,122.18644 163.99756,122.04083 163.5566,121.86286 z M 164.5187,119.92084 C 163.90135,119.75947 162.89115,119.75947 162.2738,119.92084 C 161.65646,120.08221 162.16156,120.21424 163.39625,120.21424 C 164.63095,120.21424 165.13605,120.08221 164.5187,119.92084 z M 164.35835,117.79687 C 164.8316,117.03096 163.5747,117.03096 161.79275,117.79687 C 160.64732,118.2892 160.69478,118.35307 162.23595,118.39333 C 163.18524,118.41813 164.14033,118.14973 164.35835,117.79687 z M 146.71987,100.47494 C 147.3213,99.350873 147.20765,99.191833 145.80291,99.191833 C 144.85585,99.191833 143.91835,99.717113 143.51287,100.47494 C 142.91144,101.599 143.0251,101.75804 144.42984,101.75804 C 145.3769,101.75804 146.31439,101.23276 146.71987,100.47494 z M 151.85107,100.47494 C 151.85107,99.045823 150.59404,98.781119 149.41375,99.961703 C 148.2181,101.15762 148.4968,101.75804 150.24757,101.75804 C 151.42346,101.75804 151.85107,101.41589 151.85107,100.47494 z M 172.9015,100.3211 C 172.63668,98.464463 170.45164,97.939825 170.45164,99.732883 C 170.45164,100.89436 171.18314,101.57272 172.5808,101.7074 C 172.86991,101.73525 173.01423,101.11142 172.9015,100.3211 z M 177.50704,100.92403 C 177.50704,99.851153 176.20648,98.550281 175.13386,98.550281 C 173.91437,98.550281 174.11562,100.30374 175.42249,101.0651 C 176.94566,101.95249 177.50704,101.91449 177.50704,100.92403 z M 181.67613,100.47494 C 181.03763,99.769233 179.97254,99.191833 179.30926,99.191833 C 178.30206,99.191833 178.21645,99.403303 178.78984,100.47494 C 179.20817,101.25678 180.13281,101.75804 181.15671,101.75804 C 182.79642,101.75804 182.80898,101.72702 181.67613,100.47494 z M 156.34086,99.833393 C 156.34086,98.977983 155.91326,98.550281 155.05806,98.550281 C 154.20286,98.550281 153.77526,98.977983 153.77526,99.833393 C 153.77526,100.68879 154.20286,101.11649 155.05806,101.11649 C 155.91326,101.11649 156.34086,100.68879 156.34086,99.833393 z M 160.83066,99.833393 C 160.83066,98.977983 160.40305,98.550281 159.54786,98.550281 C 158.69266,98.550281 158.26506,98.977983 158.26506,99.833393 C 158.26506,100.68879 158.69266,101.11649 159.54786,101.11649 C 160.40305,101.11649 160.83066,100.68879 160.83066,99.833393 z M 164.67905,99.833393 C 164.67905,99.120553 164.25145,98.550281 163.71695,98.550281 C 163.18245,98.550281 162.75485,99.120553 162.75485,99.833393 C 162.75485,100.54622 163.18245,101.11649 163.71695,101.11649 C 164.25145,101.11649 164.67905,100.54622 164.67905,99.833393 z M 168.52745,99.833393 C 168.52745,99.120553 168.09985,98.550281 167.56535,98.550281 C 167.03085,98.550281 166.60325,99.120553 166.60325,99.833393 C 166.60325,100.54622 167.03085,101.11649 167.56535,101.11649 C 168.09985,101.11649 168.52745,100.54622 168.52745,99.833393 z M 173.16022,97.086741 C 176.73441,96.799527 174.07286,95.104919 170.20734,95.206646 C 168.25234,95.258096 166.48031,95.021015 166.26947,94.679799 C 166.03752,94.3044 167.54746,94.059409 170.09309,94.059409 C 172.54612,94.059409 174.30004,93.78449 174.30004,93.399989 C 174.30004,92.97372 172.85676,92.888473 170.21803,93.158885 C 167.46934,93.440563 165.99045,93.341621 165.69038,92.855974 C 165.39834,92.383323 165.97624,92.101071 167.36714,92.037033 C 168.53446,91.983288 169.77818,91.872239 170.13095,91.790259 C 170.48371,91.708278 171.46987,91.607902 172.32239,91.5672 C 174.99992,91.439369 173.20515,90.678743 169.01874,90.167116 C 164.99975,89.675949 164.99975,89.675949 168.84815,89.698848 C 173.84655,89.728592 174.16336,89.66934 173.01724,88.919145 C 172.47544,88.564506 170.44401,88.464866 168.3671,88.69106 C 165.81766,88.968714 164.67905,88.869069 164.67905,88.368299 C 164.67905,87.903738 166.18814,87.643879 168.886,87.643879 C 171.5273,87.643879 172.94542,87.405121 172.69654,87.002325 C 172.47852,86.649472 170.80186,86.342473 168.97064,86.320107 C 166.24306,86.286793 165.91162,86.171005 167.13727,85.679628 C 167.96013,85.349731 169.33048,85.254816 170.18248,85.468708 C 172.81237,86.128926 174.32656,85.178293 172.37584,84.091678 C 171.49392,83.600416 171.09311,83.188244 171.48515,83.175741 C 171.89684,83.162611 172.06846,82.475467 171.89143,81.549124 C 171.59615,80.004109 169.9713,79.480715 166.7636,79.897352 C 166.32264,79.954628 165.96185,79.694453 165.96185,79.319187 C 165.96185,78.898279 167.06761,78.740207 168.84815,78.906582 C 170.43561,79.054915 171.73444,78.916248 171.73444,78.598431 C 171.73444,78.280615 170.86855,78.020583 169.81025,78.020583 C 168.75194,78.020583 167.88605,77.718802 167.88605,77.349959 C 167.88605,76.761355 172.19243,77.110835 172.9389,77.760018 C 173.32193,78.093121 176.16782,92.284039 176.19751,94.008892 C 176.22692,95.71819 177.88771,97.908728 179.15423,97.908728 C 179.74228,97.908728 179.80978,97.430094 179.40305,96.144457 C 179.09605,95.174108 178.11402,90.509904 177.22074,85.779559 C 176.32745,81.049214 175.47204,77.05436 175.31983,76.902105 C 173.88779,75.469718 154.30397,74.869189 149.8028,76.119637 C 147.15462,76.855313 147.40379,76.041304 146.07891,88.285432 C 145.71619,91.637546 145.27193,95.101933 145.09165,95.984069 C 144.78239,97.497431 160.40963,98.111348 173.16022,97.086741 z M 149.65306,93.449763 C 148.46782,93.019084 148.46564,92.982064 149.59997,92.546681 C 150.25051,92.296984 151.04829,92.358265 151.37281,92.682861 C 152.20065,93.510898 151.13235,93.987291 149.65306,93.449763 z M 149.28547,90.851644 C 150.54038,90.040458 151.85107,90.040458 151.85107,90.851644 C 151.85107,91.204498 151.05733,91.488776 150.08722,91.483373 C 148.71274,91.475718 148.53576,91.336264 149.28547,90.851644 z M 150.02308,88.959062 C 150.16418,88.535638 150.48889,88.210851 150.74465,88.237315 C 151.51157,88.316671 151.36305,89.196622 150.5362,89.472305 C 150.11287,89.613447 149.88197,89.382488 150.02308,88.959062 z M 149.60617,85.71922 C 149.82419,85.366365 150.27417,85.077667 150.60612,85.077667 C 150.93807,85.077667 151.20967,85.366365 151.20967,85.71922 C 151.20967,86.072073 150.75969,86.360772 150.20971,86.360772 C 149.65974,86.360772 149.38814,86.072073 149.60617,85.71922 z M 166.92395,83.79456 C 166.69267,83.420264 167.34489,83.153008 168.48959,83.153008 C 169.56872,83.153008 170.45164,83.441706 170.45164,83.79456 C 170.45164,84.147415 169.74711,84.436113 168.886,84.436113 C 168.0249,84.436113 167.14197,84.147415 166.92395,83.79456 z M 149.92687,82.511454 C 151.17039,81.707638 151.85107,81.707638 151.85107,82.511454 C 151.85107,82.864308 151.20165,83.148587 150.40792,83.143183 C 149.24093,83.135239 149.14888,83.014351 149.92687,82.511454 z M 166.28255,81.228348 C 166.50057,80.875494 167.52781,80.586795 168.5653,80.586795 C 169.60279,80.586795 170.45164,80.875494 170.45164,81.228348 C 170.45164,81.581202 169.42441,81.869901 168.16889,81.869901 C 166.81039,81.869901 166.04664,81.610148 166.28255,81.228348 z M 149.28547,80.334657 C 149.28547,80.195982 149.71841,79.916344 150.24757,79.713239 C 150.77672,79.510135 151.20967,79.623597 151.20967,79.965377 C 151.20967,80.307157 150.77672,80.586795 150.24757,80.586795 C 149.71841,80.586795 149.28547,80.473333 149.28547,80.334657 z M 163.07555,77.37903 C 162.83918,76.996481 163.61601,76.737477 164.99975,76.737477 C 166.38349,76.737477 167.16032,76.996481 166.92395,77.37903 C 166.70592,77.731884 165.84004,78.020583 164.99975,78.020583 C 164.15947,78.020583 163.29358,77.731884 163.07555,77.37903 z M 147.1212,72.546218 C 146.92261,72.028577 146.1235,71.605052 145.3454,71.605052 C 143.93066,71.605052 143.93066,71.605052 145.4729,73.247085 C 146.96837,74.839318 147.85612,74.461841 147.1212,72.546218 z M 177.50704,73.208934 C 178.86194,71.766367 178.89438,71.605052 177.82969,71.605052 C 176.59204,71.605052 174.30004,73.336005 174.30004,74.270698 C 174.30004,75.350974 176.03453,74.776726 177.50704,73.208934 z M 150.56827,72.567382 C 150.56827,71.364054 150.23076,70.963499 149.21684,70.963499 C 148.24804,70.963499 147.97565,71.250811 148.25475,71.9783 C 148.46888,72.53644 148.64407,73.258187 148.64407,73.582182 C 148.64407,73.906178 149.07701,74.171264 149.60617,74.171264 C 150.2048,74.171264 150.56827,73.565354 150.56827,72.567382 z M 153.77526,72.567382 C 153.77526,71.569411 153.4118,70.963499 152.81316,70.963499 C 152.21453,70.963499 151.85107,71.569411 151.85107,72.567382 C 151.85107,73.565354 152.21453,74.171264 152.81316,74.171264 C 153.4118,74.171264 153.77526,73.565354 153.77526,72.567382 z M 157.50591,72.406993 C 157.38509,71.356678 156.91362,70.642722 156.34086,70.642722 C 155.7681,70.642722 155.29663,71.356678 155.17581,72.406993 C 155.01054,73.843645 155.22689,74.171264 156.34086,74.171264 C 157.45483,74.171264 157.67118,73.843645 157.50591,72.406993 z M 161.35431,72.406993 C 161.23349,71.356678 160.76202,70.642722 160.18926,70.642722 C 159.61649,70.642722 159.14503,71.356678 159.02421,72.406993 C 158.85894,73.843645 159.07529,74.171264 160.18926,74.171264 C 161.30323,74.171264 161.51958,73.843645 161.35431,72.406993 z M 165.2027,72.406993 C 165.08188,71.356678 164.61041,70.642722 164.03765,70.642722 C 163.46489,70.642722 162.99342,71.356678 162.8726,72.406993 C 162.70733,73.843645 162.92368,74.171264 164.03765,74.171264 C 165.15162,74.171264 165.36797,73.843645 165.2027,72.406993 z M 169.16885,72.567382 C 169.16885,71.391202 168.82677,70.963499 167.88605,70.963499 C 166.94533,70.963499 166.60325,71.391202 166.60325,72.567382 C 166.60325,73.743563 166.94533,74.171264 167.88605,74.171264 C 168.82677,74.171264 169.16885,73.743563 169.16885,72.567382 z M 172.9015,72.734325 C 172.59735,70.601964 170.45164,70.414546 170.45164,72.52034 C 170.45164,73.762056 170.78066,74.171264 171.77905,74.171264 C 172.78724,74.171264 173.05717,73.825699 172.9015,72.734325 z M 160.07066,69.054146 C 168.0732,69.062564 175.66305,69.311823 176.93698,69.608056 C 179.25321,70.146662 179.25321,70.146662 179.62024,63.993446 C 180.00456,57.550105 179.62668,56.207779 177.4285,56.207779 C 176.16813,56.207779 175.65434,58.987514 176.78546,59.686758 C 177.60878,60.195719 177.47079,63.266553 176.62511,63.255039 C 175.28581,63.236805 173.79822,62.002989 175.10179,61.99158 C 175.71914,61.986178 176.22424,61.693058 176.22424,61.340203 C 176.22424,60.987349 175.76042,60.69865 175.19352,60.69865 C 174.50324,60.69865 174.29564,60.352378 174.565,59.650288 C 174.90461,58.765046 174.61589,58.658947 172.70942,58.968401 C 170.49351,59.32808 170.45164,59.293989 170.45164,57.129773 C 170.45164,54.984858 170.38162,54.924672 167.88605,54.924672 C 165.38154,54.924672 165.32045,54.978135 165.32045,57.170109 C 165.32045,59.415544 165.32045,59.415544 161.79275,59.415544 C 158.26506,59.415544 158.26506,59.415544 158.26506,57.170109 C 158.26506,54.978135 158.20397,54.924672 155.69946,54.924672 C 153.2764,54.924672 153.13386,55.031598 153.13386,56.849332 C 153.13386,58.667065 152.99133,58.773991 150.56827,58.773991 C 148.25923,58.773991 148.00267,58.613603 148.00267,57.170109 C 148.00267,55.223481 144.76521,54.888821 142.34392,56.585158 C 140.96369,57.552142 140.90994,57.887411 141.28971,63.161077 C 141.81435,70.446527 141.81495,70.448058 143.85244,69.673217 C 144.77877,69.320947 151.99099,69.045647 160.07066,69.054146 z M 175.58284,67.780219 C 175.58284,67.462981 174.93342,67.078309 174.13969,66.925393 C 173.07579,66.720427 173.23439,66.624404 174.74323,66.559996 C 176.94826,66.465869 178.10808,67.387758 176.54126,67.98915 C 176.01413,68.191477 175.58284,68.097457 175.58284,67.780219 z M 169.0085,66.689293 C 169.44946,66.511318 170.17103,66.511318 170.61199,66.689293 C 171.05296,66.867268 170.69217,67.012883 169.81025,67.012883 C 168.92832,67.012883 168.56753,66.867268 169.0085,66.689293 z M 145.95821,66.034374 C 146.42122,65.849048 146.97442,65.87184 147.18756,66.085022 C 147.40069,66.298205 147.02186,66.449836 146.34572,66.421979 C 145.59853,66.391195 145.44655,66.239174 145.95821,66.034374 z M 170.13095,64.547969 C 166.28255,64.122116 166.28255,64.122116 171.25339,64.014266 C 174.21157,63.950084 176.22424,64.166176 176.22424,64.547969 C 176.22424,64.900822 175.71914,65.14099 175.10179,65.081672 C 174.48444,65.022354 172.24756,64.782188 170.13095,64.547969 z M 145.66114,63.606185 C 145.85986,63.088204 145.74172,62.490858 145.39859,62.278749 C 145.05548,62.06664 144.9408,61.624346 145.14377,61.295873 C 145.34672,60.967401 145.20712,60.69865 144.83353,60.69865 C 144.45994,60.69865 144.15427,60.409951 144.15427,60.057098 C 144.15427,58.738365 145.78854,59.489141 146.60907,61.184821 C 148.1851,64.44177 148.18859,64.547969 146.71987,64.547969 C 145.73489,64.547969 145.41052,64.259431 145.66114,63.606185 z M 168.6878,62.151743 C 172.12415,61.880718 172.847,60.736166 169.6499,60.628357 C 167.779,60.56527 167.85702,60.500847 170.41118,59.999789 C 173.42939,59.407694 174.56142,59.728708 172.99867,60.733534 C 172.17051,61.266028 172.17278,61.417443 173.01724,61.971932 C 173.69339,62.415899 172.7402,62.572211 169.81025,62.497846 C 166.2289,62.40695 166.07066,62.358156 168.6878,62.151743 z M 144.26084,58.211895 C 143.57202,57.775147 143.60327,57.593467 144.42119,57.279524 C 145.06391,57.032833 145.43707,57.235699 145.43707,57.831797 C 145.43707,58.922244 145.40004,58.934207 144.26084,58.211895 z M 167.60616,58.198492 C 167.38757,57.844715 167.81984,57.228124 168.56676,56.828286 C 169.72459,56.208489 169.89272,56.266845 169.70717,57.224099 C 169.45276,58.536692 168.17989,59.127016 167.60616,58.198492 z"
         style="fill:#000000" />
    </g>
  </g>
</svg>
