<?xml version="1.0" encoding="UTF-8" standalone="no"?>
<!-- Created with Inkscape (http://www.inkscape.org/) -->
<svg
   xmlns:dc="http://purl.org/dc/elements/1.1/"
   xmlns:cc="http://creativecommons.org/ns#"
   xmlns:rdf="http://www.w3.org/1999/02/22-rdf-syntax-ns#"
   xmlns:svg="http://www.w3.org/2000/svg"
   xmlns="http://www.w3.org/2000/svg"
   xmlns:sodipodi="http://sodipodi.sourceforge.net/DTD/sodipodi-0.dtd"
   xmlns:inkscape="http://www.inkscape.org/namespaces/inkscape"
   width="200.00002"
   height="226"
   id="svg2"
   sodipodi:version="0.32"
   inkscape:version="0.46"
   version="1.0"
   sodipodi:docname="goat_rampant.svg"
   inkscape:output_extension="org.inkscape.output.svg.inkscape">
  <defs
     id="defs4">
    <inkscape:perspective
       sodipodi:type="inkscape:persp3d"
       inkscape:vp_x="0 : 526.18109 : 1"
       inkscape:vp_y="0 : 1000 : 0"
       inkscape:vp_z="744.09448 : 526.18109 : 1"
       inkscape:persp3d-origin="372.04724 : 350.78739 : 1"
       id="perspective10" />
    <inkscape:perspective
       id="perspective8826"
       inkscape:persp3d-origin="372.04724 : 350.78739 : 1"
       inkscape:vp_z="744.09448 : 526.18109 : 1"
       inkscape:vp_y="0 : 1000 : 0"
       inkscape:vp_x="0 : 526.18109 : 1"
       sodipodi:type="inkscape:persp3d" />
    <inkscape:perspective
       sodipodi:type="inkscape:persp3d"
       inkscape:vp_x="0 : 526.18109 : 1"
       inkscape:vp_y="0 : 1000 : 0"
       inkscape:vp_z="744.09448 : 526.18109 : 1"
       inkscape:persp3d-origin="372.04724 : 350.78739 : 1"
       id="perspective2459" />
    <inkscape:perspective
       sodipodi:type="inkscape:persp3d"
       inkscape:vp_x="0 : 526.18109 : 1"
       inkscape:vp_y="0 : 1000 : 0"
       inkscape:vp_z="744.09448 : 526.18109 : 1"
       inkscape:persp3d-origin="372.04724 : 350.78739 : 1"
       id="perspective2410" />
    <inkscape:perspective
       id="perspective2425"
       inkscape:persp3d-origin="372.04724 : 350.78739 : 1"
       inkscape:vp_z="744.09448 : 526.18109 : 1"
       inkscape:vp_y="0 : 1000 : 0"
       inkscape:vp_x="0 : 526.18109 : 1"
       sodipodi:type="inkscape:persp3d" />
    <inkscape:perspective
       id="perspective3257"
       inkscape:persp3d-origin="372.04724 : 350.78739 : 1"
       inkscape:vp_z="744.09448 : 526.18109 : 1"
       inkscape:vp_y="0 : 1000 : 0"
       inkscape:vp_x="0 : 526.18109 : 1"
       sodipodi:type="inkscape:persp3d" />
    <inkscape:perspective
       id="perspective2492"
       inkscape:persp3d-origin="372.04724 : 350.78739 : 1"
       inkscape:vp_z="744.09448 : 526.18109 : 1"
       inkscape:vp_y="0 : 1000 : 0"
       inkscape:vp_x="0 : 526.18109 : 1"
       sodipodi:type="inkscape:persp3d" />
    <inkscape:perspective
       id="perspective3181"
       inkscape:persp3d-origin="372.04724 : 350.78739 : 1"
       inkscape:vp_z="744.09448 : 526.18109 : 1"
       inkscape:vp_y="0 : 1000 : 0"
       inkscape:vp_x="0 : 526.18109 : 1"
       sodipodi:type="inkscape:persp3d" />
    <inkscape:perspective
       id="perspective3085"
       inkscape:persp3d-origin="372.04724 : 350.78739 : 1"
       inkscape:vp_z="744.09448 : 526.18109 : 1"
       inkscape:vp_y="0 : 1000 : 0"
       inkscape:vp_x="0 : 526.18109 : 1"
       sodipodi:type="inkscape:persp3d" />
    <inkscape:perspective
       id="perspective3009"
       inkscape:persp3d-origin="372.04724 : 350.78739 : 1"
       inkscape:vp_z="744.09448 : 526.18109 : 1"
       inkscape:vp_y="0 : 1000 : 0"
       inkscape:vp_x="0 : 526.18109 : 1"
       sodipodi:type="inkscape:persp3d" />
    <inkscape:perspective
       id="perspective2933"
       inkscape:persp3d-origin="372.04724 : 350.78739 : 1"
       inkscape:vp_z="744.09448 : 526.18109 : 1"
       inkscape:vp_y="0 : 1000 : 0"
       inkscape:vp_x="0 : 526.18109 : 1"
       sodipodi:type="inkscape:persp3d" />
    <inkscape:perspective
       id="perspective2857"
       inkscape:persp3d-origin="372.04724 : 350.78739 : 1"
       inkscape:vp_z="744.09448 : 526.18109 : 1"
       inkscape:vp_y="0 : 1000 : 0"
       inkscape:vp_x="0 : 526.18109 : 1"
       sodipodi:type="inkscape:persp3d" />
    <inkscape:perspective
       id="perspective2781"
       inkscape:persp3d-origin="372.04724 : 350.78739 : 1"
       inkscape:vp_z="744.09448 : 526.18109 : 1"
       inkscape:vp_y="0 : 1000 : 0"
       inkscape:vp_x="0 : 526.18109 : 1"
       sodipodi:type="inkscape:persp3d" />
  </defs>
  <sodipodi:namedview
     id="base"
     pagecolor="#ffffff"
     bordercolor="#666666"
     borderopacity="1.0"
     gridtolerance="10000"
     guidetolerance="10"
     objecttolerance="10"
     inkscape:pageopacity="0.0"
     inkscape:pageshadow="2"
     inkscape:zoom="2.9878047"
     inkscape:cx="100"
     inkscape:cy="123.00001"
     inkscape:document-units="px"
     inkscape:current-layer="layer1"
     showgrid="false"
     inkscape:window-width="1679"
     inkscape:window-height="963"
     inkscape:window-x="1"
     inkscape:window-y="57" />
  <metadata
     id="metadata7">
    <rdf:RDF>
      <cc:Work
         rdf:about="">
        <dc:format>image/svg+xml</dc:format>
        <dc:type
           rdf:resource="http://purl.org/dc/dcmitype/StillImage" />
      </cc:Work>
    </rdf:RDF>
  </metadata>
  <g
     inkscape:label="Layer 1"
     inkscape:groupmode="layer"
     id="layer1"
     transform="translate(-378.20411,-253.37442)">
    <g
       id="g2666"
       transform="translate(328.20411,206.37443)">
      <path
         id="path4627"
         d="M 170.05639,272.78804 C 168.49208,272.64773 167.2122,272.31398 167.2122,272.04637 C 167.2122,270.62375 174.24705,265.03558 178.9868,262.69317 C 189.78074,257.35875 198.59971,244.90899 194.48622,240.81262 C 191.84762,238.18498 192.88216,237.38297 183.88351,249.03222 C 179.92672,254.1545 169.68929,263.26146 166.08913,264.86164 C 164.28611,265.66304 163.01011,266.78459 162.49649,268.01941 C 161.19469,271.14917 147.80479,274.42153 147.80479,271.60991 C 147.80479,270.94348 147.13557,270.61026 145.79712,270.61026 C 142.28486,270.61026 149.30799,263.17751 153.72231,262.22285 C 157.90835,261.31756 159.85952,259.99361 165.87376,253.97761 C 176.26124,243.58707 177.93188,238.08019 171.44506,235.61315 C 159.86659,231.20968 152.42354,212.42216 159.28026,204.90715 C 160.7462,203.30046 161.60105,196.13016 160.69453,193.04451 C 160.17879,191.28899 159.57171,190.96359 153.79958,189.34881 C 146.07158,187.18686 141.91944,184.83211 138.30199,180.55987 C 135.5459,177.30491 135.5459,177.30491 134.34972,179.26369 C 132.33651,182.56039 127.86136,184.08714 128.61415,181.22046 C 129.06707,179.49564 125.34331,174.78733 121.54816,172.28626 C 119.63266,171.02392 118.82382,169.90237 118.2274,167.68172 C 117.48195,164.90615 117.36465,164.79782 116.07704,165.69595 C 114.09442,167.07885 110.34006,166.85491 107.65152,165.19338 C 105.96454,164.15082 104.18589,163.73201 101.29392,163.69639 C 97.574281,163.65057 97.282504,163.5365 97.331728,162.14744 C 97.383766,160.67897 97.230635,160.64795 89.928196,160.64795 C 80.440631,160.64795 80.51376,160.57989 71.311184,177.97535 C 68.398568,183.48101 67.313006,184.63973 65.067567,184.63973 C 62.845318,184.63973 62.56949,185.69763 64.214152,187.91291 C 66.11393,190.47181 65.571688,193.46871 62.669375,196.45069 C 60.588368,198.58881 57.355026,199.41693 56.495474,198.03192 C 56.289645,197.70027 54.9167,197.58981 53.444483,197.78645 C 50.299931,198.20648 50.162785,197.76337 52.204068,193.77876 C 52.994055,192.2367 54.045305,189.2466 54.540177,187.13409 C 55.520526,182.94918 56.887242,180.05771 65.011899,164.9798 C 74.222438,147.88669 74.938632,147.35652 88.849744,147.33382 C 97.404811,147.31987 97.770724,147.26425 96.743699,146.13413 C 93.472109,142.53409 82.806765,117.89997 81.260167,110.37127 C 80.201826,105.21936 71.236329,97.107864 64.576275,95.276584 C 60.834763,94.247794 59.519087,92.889214 61.0918,91.678484 C 62.660613,90.470754 62.646649,90.457334 58.376496,89.068614 C 53.408218,87.452844 49.303314,83.712714 51.0285,82.373584 C 52.215992,81.451824 52.226195,81.290274 51.195806,79.724244 C 48.749746,76.006604 50.033038,75.226004 55.260195,77.251944 C 57.022161,77.934844 59.620968,78.703394 61.035323,78.959814 C 62.892798,79.296584 64.804361,80.535434 67.919281,83.421184 C 71.799119,87.015574 88.76846,98.669204 90.12257,98.669204 C 91.103876,98.669204 93.998866,102.19221 99.311218,109.85117 C 102.17869,113.98527 104.71509,117.28414 104.94768,117.18199 C 107.36296,116.12116 120.07296,100.95491 118.8112,100.63929 C 118.01428,100.43995 117.24941,99.693354 117.11149,98.980184 C 116.97357,98.267024 116.29441,97.288494 115.60223,96.805694 C 112.23365,94.456054 120.17756,84.586904 126.15605,83.694104 C 132.65772,82.723174 134.30131,79.217104 128.73198,78.199194 C 119.63604,76.536714 117.35136,68.679094 124.17676,62.532474 C 127.33248,59.690584 143.69053,56.713344 156.25542,56.694014 C 161.59428,56.685804 163.21845,56.461054 163.90669,55.635234 C 165.04444,54.270024 169.49474,52.018524 171.05546,52.018524 C 171.7263,52.018524 174.37335,50.908284 176.9378,49.551324 C 187.98477,43.705904 210.94362,48.369124 222.53086,58.811834 C 228.88711,64.540234 237.41509,64.650124 242.79816,59.072984 C 248.21166,53.464314 252.97247,58.283954 247.7285,64.064264 C 240.25468,72.302484 229.91851,72.722624 215.0615,65.392094 C 205.79767,60.821264 199.4662,58.778494 192.51293,58.117084 C 184.54654,57.359304 178.46814,59.867534 186.09752,60.764384 C 188.04099,60.992834 191.21214,61.817554 193.14451,62.597084 C 195.07689,63.376614 198.17382,64.616824 200.02658,65.353114 C 210.33732,69.450564 215.84783,75.315164 223.76138,90.613044 C 228.88222,100.51226 230.07984,101.74713 236.52055,103.76894 C 240.34243,104.96867 239.92869,105.07606 244.6011,101.67158 C 247.04857,99.888274 249.23086,104.41351 247.07059,106.79233 C 239.30522,115.3433 223.25496,109.30669 212.1831,93.670914 C 204.65221,83.035744 196.38121,76.156044 187.79616,73.386224 C 183.7559,72.082704 182.47465,72.743974 185.46928,74.587174 C 186.86098,75.443764 188.57058,77.259074 189.26839,78.621184 C 189.96618,79.983304 191.01084,81.489284 191.58985,81.967824 C 194.78996,84.612634 187.23389,86.808084 181.89456,84.784844 C 180.26201,84.166214 180.26201,84.166214 180.48399,89.918224 C 180.69188,95.304854 180.57537,95.903064 178.64985,99.335644 C 176.5623,103.05704 174.32425,107.65528 171.6843,113.64683 C 170.88097,115.47007 168.77419,118.7036 167.00258,120.83247 C 162.99341,125.65015 165.09666,134.31162 171.18433,138.05343 C 198.12762,154.61425 219.88426,179.82854 222.12153,197.08577 C 223.22184,205.57309 224.06623,207.40808 227.80131,209.42888 C 231.89725,211.6449 232.05816,213.05986 228.44593,215.09711 C 223.00899,218.16347 212.98592,214.4455 210.33452,208.37884 C 209.42551,206.29897 209.42551,206.29897 209.39932,209.03189 C 209.365,212.61242 210.52579,215.81641 212.17592,216.69587 C 214.48405,217.926 211.79336,220.19156 208.5403,219.75705 C 205.5859,219.36242 205.42759,219.99126 207.00011,225.87495 C 208.17628,230.27564 210.35297,232.86129 212.09836,231.93107 C 217.11875,229.25541 217.6307,232.36581 213.13251,238.21418 C 211.06485,240.90247 209.37313,243.32201 209.37313,243.59095 C 209.37313,243.85989 207.64152,246.66667 205.5251,249.82825 C 203.40869,252.98983 200.46975,257.68459 198.99412,260.26106 C 196.31365,264.94118 196.30836,264.94559 193.30574,265.01161 C 188.86838,265.10918 188.85844,265.11337 187.96141,267.26999 C 186.08745,271.77531 179.92824,273.67349 170.05639,272.78804 z"
         style="fill:#ffff00;fill-opacity:1" />
      <path
         id="path2785"
         d="M 170.05639,272.78804 C 168.49209,272.64774 167.2122,272.31398 167.2122,272.04637 C 167.2122,270.62375 174.24705,265.03558 178.98681,262.69317 C 189.78075,257.35875 198.59971,244.909 194.48623,240.81262 C 191.84762,238.18498 192.88216,237.38297 183.88352,249.03222 C 179.92673,254.15451 169.6893,263.26147 166.08913,264.86164 C 164.28611,265.66304 163.01011,266.78459 162.49649,268.01941 C 161.19469,271.14918 147.80479,274.42153 147.80479,271.60992 C 147.80479,270.94348 147.13557,270.61026 145.79713,270.61026 C 142.28486,270.61026 149.30799,263.17751 153.72231,262.22285 C 157.90835,261.31757 159.85952,259.99361 165.87376,253.97761 C 176.26124,243.58708 177.93189,238.08019 171.44506,235.61315 C 159.8666,231.20968 152.42355,212.42216 159.28026,204.90715 C 160.74621,203.30046 161.60106,196.13016 160.69454,193.04451 C 160.17879,191.28899 159.57171,190.96359 153.79958,189.34881 C 146.07158,187.18686 141.91944,184.83211 138.30199,180.55987 C 135.54591,177.30491 135.54591,177.30491 134.34972,179.26369 C 132.33651,182.56039 127.86136,184.08714 128.61415,181.22046 C 129.06708,179.49564 125.34331,174.78732 121.54817,172.28626 C 119.63267,171.02391 118.82382,169.90236 118.2274,167.68172 C 117.48195,164.90614 117.36465,164.79782 116.07705,165.69595 C 114.09443,167.07885 110.34007,166.85491 107.65153,165.19338 C 105.96454,164.15082 104.18589,163.73201 101.29393,163.69639 C 97.574285,163.65057 97.282508,163.5365 97.331731,162.14744 C 97.383769,160.67897 97.230638,160.64795 89.928199,160.64795 C 80.440634,160.64795 80.513763,160.57989 71.311185,177.97534 C 68.398569,183.48101 67.313008,184.63973 65.067569,184.63973 C 62.845319,184.63973 62.569491,185.69763 64.214153,187.91291 C 66.113932,190.47181 65.57169,193.46871 62.669377,196.45069 C 60.588369,198.58881 57.355027,199.41693 56.495475,198.03192 C 56.289646,197.70027 54.9167,197.58981 53.444484,197.78645 C 50.299931,198.20648 50.162786,197.76337 52.204069,193.77876 C 52.994056,192.2367 54.045306,189.24659 54.540178,187.13409 C 55.520527,182.94918 56.887243,180.05771 65.011901,164.9798 C 74.22244,147.88668 74.938634,147.35652 88.849747,147.33382 C 97.404814,147.31987 97.770727,147.26425 96.743702,146.13412 C 93.472112,142.53409 82.806767,117.89997 81.260169,110.37127 C 80.201829,105.21936 71.23633,97.107862 64.576276,95.276572 C 60.834764,94.247792 59.519088,92.889212 61.091801,91.678482 C 62.660614,90.470752 62.64665,90.457332 58.376497,89.068606 C 53.408218,87.452836 49.303315,83.712708 51.028501,82.373578 C 52.215993,81.451818 52.226195,81.290268 51.195806,79.724235 C 48.749747,76.006601 50.033039,75.225998 55.260195,77.251941 C 57.022162,77.934844 59.620969,78.703387 61.035324,78.959813 C 62.892799,79.296578 64.804362,80.535426 67.919283,83.421179 C 71.799121,87.015572 88.768463,98.669202 90.122573,98.669202 C 91.103879,98.669202 93.998869,102.19221 99.311221,109.85116 C 102.17869,113.98526 104.7151,117.28413 104.94768,117.18198 C 107.36296,116.12115 120.07297,100.95491 118.81121,100.63929 C 118.01428,100.43995 117.24942,99.693352 117.1115,98.980182 C 116.97358,98.267012 116.29442,97.288492 115.60224,96.805692 C 112.23366,94.456052 120.17756,84.586901 126.15605,83.694098 C 132.65773,82.723167 134.30132,79.217098 128.73199,78.199187 C 119.63604,76.536712 117.35137,68.67909 124.17676,62.532472 C 127.33249,59.690575 143.69053,56.713338 156.25542,56.694014 C 161.59428,56.685802 163.21845,56.461049 163.90669,55.635224 C 165.04444,54.270018 169.49475,52.018522 171.05546,52.018522 C 171.7263,52.018522 174.37335,50.908281 176.9378,49.551319 C 187.98478,43.705901 210.94363,48.369123 222.53087,58.811828 C 228.88712,64.540234 237.41509,64.650121 242.79816,59.072983 C 248.21167,53.464305 252.97248,58.28395 247.72851,64.064262 C 240.25469,72.302482 229.91852,72.722619 215.06151,65.392087 C 205.79768,60.821259 199.46621,58.778494 192.51293,58.117082 C 184.54655,57.359301 178.46815,59.867533 186.09753,60.764376 C 188.041,60.992833 191.21214,61.817551 193.14452,62.597082 C 195.07689,63.376612 198.17382,64.616823 200.02659,65.353104 C 210.33732,69.450557 215.84784,75.315164 223.76138,90.613042 C 228.88222,100.51226 230.07985,101.74713 236.52056,103.76894 C 240.34244,104.96867 239.9287,105.07606 244.60111,101.67158 C 247.04857,99.888272 249.23087,104.41351 247.0706,106.79233 C 239.30522,115.34329 223.25496,109.30668 212.1831,93.670912 C 204.65222,83.035742 196.38121,76.15604 187.79616,73.386224 C 183.7559,72.082704 182.47465,72.743974 185.46928,74.587165 C 186.86099,75.443763 188.57059,77.259071 189.26839,78.621183 C 189.96619,79.983296 191.01085,81.489282 191.58986,81.967818 C 194.78997,84.612626 187.2339,86.808082 181.89456,84.784839 C 180.26201,84.166213 180.26201,84.166213 180.48399,89.91822 C 180.69188,95.304852 180.57537,95.903062 178.64985,99.335642 C 176.5623,103.05704 174.32425,107.65528 171.6843,113.64683 C 170.88097,115.47006 168.7742,118.7036 167.00259,120.83247 C 162.99341,125.65015 165.09667,134.31162 171.18433,138.05343 C 198.12763,154.61424 219.88427,179.82854 222.12153,197.08577 C 223.22185,205.57309 224.06623,207.40808 227.80132,209.42888 C 231.89725,211.6449 232.05817,213.05986 228.44593,215.09711 C 223.00899,218.16347 212.98592,214.4455 210.33452,208.37884 C 209.42552,206.29897 209.42552,206.29897 209.39932,209.03189 C 209.36501,212.61242 210.52579,215.81641 212.17593,216.69587 C 214.48406,217.926 211.79336,220.19156 208.54031,219.75705 C 205.58591,219.36243 205.4276,219.99126 207.00012,225.87495 C 208.17629,230.27565 210.35297,232.86129 212.09837,231.93107 C 217.11876,229.25541 217.6307,232.36582 213.13251,238.21418 C 211.06485,240.90247 209.37313,243.32201 209.37313,243.59095 C 209.37313,243.85989 207.64152,246.66667 205.52511,249.82826 C 203.4087,252.98983 200.46975,257.6846 198.99413,260.26106 C 196.31366,264.94118 196.30837,264.9456 193.30575,265.01161 C 188.86838,265.10918 188.85845,265.11338 187.96141,267.26999 C 186.08746,271.77531 179.92825,273.67349 170.05639,272.78804 z M 181.59527,270.09486 C 183.90453,268.83885 185.29363,267.52171 186.09373,265.82943 C 187.42605,263.01148 188.96812,262.328 192.61084,262.94088 C 195.19952,263.37641 195.19952,263.37641 197.69192,258.82947 C 199.06273,256.32865 201.37198,252.51439 202.82359,250.35334 C 204.40581,247.99785 205.33275,245.92861 205.13797,245.18687 C 204.95432,244.48752 205.26005,243.70048 205.84118,243.37661 C 206.40665,243.06148 206.72329,242.38742 206.54483,241.8787 C 206.35286,241.33148 207.06908,240.4889 208.29866,239.81543 C 210.33599,238.69954 210.34398,238.67603 208.70391,238.62307 C 207.18647,238.57408 207.24872,238.47593 209.37313,237.56779 C 211.62411,236.60556 214.0117,234.28019 214.0428,233.01982 C 214.05098,232.6881 213.50696,232.91303 212.83385,233.51965 C 210.00907,236.0654 206.23692,231.85792 204.1109,223.79003 C 202.6069,218.08255 202.25119,214.82605 203.50882,218.27786 C 204.37865,220.66529 205.2199,219.28439 205.32547,215.29589 C 205.3872,212.96335 205.3872,212.96335 206.67822,215.79571 C 207.38829,217.35351 208.41792,218.62808 208.9663,218.62808 C 210.41289,218.62808 210.84547,217.56907 209.764,216.67526 C 208.63452,215.74177 207.13704,207.73237 207.73891,205.84393 C 207.97578,205.10069 207.70621,203.54949 207.13985,202.39681 C 203.74588,195.48924 203.20044,193.81388 203.58239,191.46993 C 203.80781,190.08658 203.65863,188.6753 203.23299,188.16456 C 202.21212,186.93961 203.08105,186.25344 204.3378,187.29211 C 204.97475,187.81853 205.36671,189.2933 205.38152,191.2191 C 205.39456,192.91529 205.85888,195.05282 206.41333,195.96918 C 207.51792,197.79475 207.49968,195.38624 206.37799,191.30411 C 205.92018,189.63801 205.92018,189.63801 207.64666,191.50788 C 209.55994,193.58007 209.76623,195.12517 208.56963,198.42057 C 207.9754,200.05707 207.96182,200.82825 208.5175,201.38162 C 209.07319,201.935 209.63255,200.95732 210.66525,197.62774 C 211.80987,193.93728 211.90288,192.99144 211.18111,192.38146 C 208.80365,190.37225 203.54648,181.55631 204.28639,180.81947 C 204.48461,180.62208 205.1832,181.44518 205.83883,182.6486 C 206.49444,183.85202 207.81137,185.76699 208.76533,186.9041 C 209.71929,188.04121 210.82248,189.56259 211.21688,190.28495 C 211.85461,191.453 211.98877,191.30726 212.4295,188.96772 C 212.84933,186.73917 212.59961,185.72362 210.79559,182.32285 C 208.31594,177.64842 208.14266,176.60581 210.13897,178.37188 C 214.70881,182.41466 215.5182,189.08132 212.67825,199.28699 C 211.6227,203.08023 211.49112,204.56522 212.03296,206.56909 C 212.67507,208.94382 215.39612,212.34545 215.39612,210.77344 C 215.39612,210.37172 215.05517,209.8332 214.63844,209.57672 C 213.67289,208.98246 214.2361,198.79412 215.34897,196.72334 C 216.62456,194.34979 217.50314,195.77519 216.39398,198.41875 C 212.4381,207.84712 219.06249,217.8802 226.68621,214.00704 C 230.08678,212.27942 230.08748,212.30762 226.60557,210.77031 C 222.41472,208.91998 222.21977,208.60287 220.16947,200.30103 C 219.6757,198.30171 219.6757,198.30171 218.87435,200.56708 C 217.74924,203.74774 217.87389,205.96144 219.33931,208.82381 C 220.74364,211.56687 220.29877,212.0454 218.34403,209.89441 C 216.40128,207.75663 216.53387,200.13406 218.5613,197.40323 C 219.94349,195.54148 219.98651,195.20455 219.14516,192.82985 C 215.53537,182.64115 203.4555,164.00215 204.46098,170.17247 C 204.68317,171.53593 204.5332,172.66081 204.09312,172.93167 C 203.64181,173.20943 203.35014,172.85773 203.35014,172.03573 C 203.35014,168.59065 198.7019,160.77576 198.63443,164.10742 C 198.60981,165.32355 198.27396,165.01737 197.03288,162.64726 C 194.39164,157.60331 192.68496,156.5106 193.04792,160.09588 C 193.36554,163.23336 193.22337,163.04751 190.79063,157.14532 C 189.0464,152.91351 188.09138,152.75903 188.19904,156.72612 C 188.25928,158.94612 187.9965,160.27968 187.46212,160.46579 C 186.87078,160.67174 186.74436,160.1934 187.02321,158.80498 C 187.61689,155.8489 184.97829,150.38588 181.7129,147.8104 C 179.59384,146.13904 179.11829,145.95744 179.56723,146.991 C 180.66039,149.50764 180.75604,153.02217 179.75391,153.85041 C 178.94756,154.51684 178.79624,154.19358 178.80066,151.81394 C 178.80962,146.99314 177.10099,144.30999 171.91353,140.99874 C 166.54065,137.56913 165.83998,136.65138 163.30222,129.71955 C 161.68833,125.31125 161.29703,124.72756 160.55366,125.61954 C 160.07693,126.19157 159.27203,126.6596 158.765,126.6596 C 158.25796,126.6596 157.84668,126.73457 157.85105,126.82621 C 157.94508,128.79859 160.15067,134.55565 161.26471,135.73655 C 162.98612,137.56128 162.60311,138.63543 160.85263,136.89223 C 159.42433,135.46987 158.24563,136.69121 157.15539,140.72319 C 156.79221,142.06635 156.0455,143.53684 155.49603,143.99097 C 154.16498,145.09104 154.23683,144.29774 155.76405,141.03182 C 158.14397,135.9424 158.22016,134.38969 156.02264,135.76113 C 154.16239,136.9221 154.16239,136.9221 156.06461,135.09777 C 157.37244,133.84349 157.81921,132.91691 157.49443,132.13244 C 157.23461,131.5049 156.8705,130.46663 156.6853,129.82518 C 156.50009,129.18373 155.85667,128.64938 155.25548,128.63772 C 154.34178,128.62 154.3793,128.45323 155.48413,127.62153 C 156.60054,126.78112 156.67763,126.42202 155.98038,125.31019 C 155.05486,123.83435 155.33871,123.68221 157.18345,124.66538 C 158.65343,125.44881 164.51333,121.48861 167.16089,117.92249 C 168.69235,115.85969 168.69235,115.85969 166.61383,116.31431 C 163.77369,116.93551 164.00519,116.47766 167.41403,114.73172 C 169.63734,113.59299 172.96359,109.33221 171.62925,109.33221 C 171.54608,109.33221 169.88425,110.09787 167.93632,111.03368 C 165.98838,111.96948 163.93857,112.64425 163.38117,112.53317 C 162.82378,112.42208 164.45243,111.30556 167.00039,110.05202 C 171.76049,107.71015 172.45631,106.91712 176.90286,98.766232 C 181.20272,90.884242 178.37688,81.683641 169.87327,75.878645 C 168.50543,74.944891 168.42635,74.74123 169.4204,74.712378 C 171.25522,74.659124 173.98537,76.297932 176.5813,79.01081 C 180.68544,83.299847 193.47975,87.002996 189.81553,82.841291 C 189.25076,82.199844 188.28602,80.687096 187.67166,79.479628 C 186.29228,76.768602 182.98866,74.683218 180.06805,74.679913 C 177.41238,74.676908 173.49251,72.772918 171.27818,70.41043 C 169.25355,68.250334 170.00518,68.161368 177.32491,69.694718 C 181.01153,70.466999 182.28841,70.521333 182.66051,69.921763 C 183.56293,68.467679 182.53239,67.478654 179.37837,66.771841 C 176.24669,66.070038 176.24669,66.070038 179.7601,66.277272 C 181.69247,66.391252 183.27351,66.21333 183.27351,65.881891 C 183.27351,64.99479 178.96981,63.358191 176.43549,63.281542 C 174.41042,63.220295 174.36958,63.178181 175.91208,62.741872 C 180.07396,61.564641 185.63603,63.848574 184.97683,66.464102 C 184.52579,68.253723 185.16398,71.345231 185.98446,71.345231 C 186.29147,71.345231 186.64956,70.070668 186.78022,68.512869 C 187.01778,65.680506 187.01778,65.680506 187.57817,68.542228 C 188.35239,72.495985 191.97338,74.727825 191.97338,71.251272 C 191.97338,68.698917 192.45323,69.039553 193.6788,72.461909 C 194.26073,74.086923 194.61921,74.527577 194.66793,73.677765 C 194.74414,72.348371 194.7457,72.34836 195.26511,73.673356 C 195.74021,74.885329 195.88431,74.812278 196.90831,72.840309 C 197.52565,71.651475 198.32416,70.678793 198.68278,70.678793 C 199.64515,70.678793 199.49072,71.254663 197.9508,73.408277 C 196.31627,75.694229 196.73419,75.855087 199.39881,73.965604 C 201.60688,72.399858 202.04062,73.175222 199.99032,75.023001 C 198.64989,76.231026 198.67747,76.277584 203.16912,80.390146 C 205.66115,82.671847 209.65755,87.180463 212.05002,90.409293 C 224.70286,107.48536 240.12418,114.25094 245.76119,105.19893 C 246.88225,103.39872 245.74955,103.05072 243.78301,104.59117 C 237.37805,109.60835 228.13201,103.88835 221.43992,90.768762 C 212.8533,73.935047 200.96255,64.475884 186.40524,62.89846 C 184.49875,62.691874 182.2719,62.108707 181.45669,61.602534 C 179.86247,60.612668 173.75247,60.433962 171.56214,61.313137 C 170.82599,61.608616 169.92255,61.61981 169.55447,61.33801 C 169.1864,61.056211 168.28295,60.692541 167.54681,60.529855 C 166.74469,60.352588 167.88437,59.869854 170.391,59.325145 C 173.63445,58.620319 174.57363,58.14688 174.57363,57.21669 C 174.57363,55.699555 175.06921,55.71351 177.68919,57.304424 C 178.85065,58.009684 179.97996,58.408426 180.19877,58.190517 C 181.18852,57.20489 180.41481,56.002982 178.42165,55.429873 C 176.24669,54.804485 176.24669,54.804485 178.60736,54.74438 C 179.90573,54.711322 181.6704,55.174189 182.52886,55.772973 C 184.02277,56.815003 184.07102,56.803123 183.65437,55.495839 C 183.41495,54.744632 183.50091,53.956543 183.84538,53.744531 C 184.61916,53.268298 185.42781,55.18637 184.89911,56.243902 C 184.68658,56.669001 184.98675,56.43467 185.56615,55.723166 C 186.14556,55.011662 186.61961,54.186945 186.61961,53.89046 C 186.61961,52.5856 187.96489,53.505103 188.02476,54.850885 C 188.08876,56.289435 188.11325,56.282665 188.62728,54.684275 C 188.92197,53.767922 189.19771,53.468025 189.24004,54.017837 C 189.30844,54.906421 189.38907,54.906421 189.96572,54.017837 C 190.48539,53.217047 190.61648,53.331168 190.62469,54.591496 C 190.63494,56.164813 190.63494,56.164813 191.95112,54.591496 C 193.26729,53.018179 193.26729,53.018179 193.33485,54.684275 C 193.40241,56.350371 193.40241,56.350371 194.1286,54.850885 C 195.02477,53.000434 196.00167,52.92359 196.45963,54.667525 C 196.79494,55.94443 196.84227,55.939465 198.04776,54.500916 C 199.29028,53.018179 199.29028,53.018179 199.39018,55.350713 C 199.4518,56.789579 199.61342,57.172579 199.81202,56.350371 C 200.31921,54.250476 201.34248,53.540664 201.34248,55.288727 C 201.34248,56.381562 201.63279,56.715256 202.34631,56.442588 C 203.04228,56.17663 203.37395,56.512442 203.42777,57.537554 C 203.48699,58.665492 203.57798,58.739552 203.81145,57.849857 C 204.18534,56.425106 205.3578,56.298779 205.3578,57.683247 C 205.3578,58.652226 206.45041,58.99838 208.87121,58.796354 C 209.51534,58.7426 210.04235,58.985568 210.04235,59.336284 C 210.04235,59.687 210.46407,59.812795 210.9795,59.615829 C 211.57233,59.389281 211.87967,59.671528 211.81602,60.384065 C 211.61416,62.643818 223.87789,68.146747 231.12282,69.047329 C 237.08793,69.788823 248.18795,63.884622 248.18795,59.970235 C 248.18795,57.676549 246.71575,57.869511 243.9429,60.526635 C 237.70049,66.508513 232.24443,66.518238 222.08503,60.565595 C 206.09384,51.195961 200.48566,48.929134 191.66947,48.271617 C 183.59396,47.669341 177.38262,49.980463 171.01948,55.95508 C 168.46915,58.349685 168.46915,58.349685 160.98116,58.165714 C 145.88035,57.794704 125.67361,61.215912 127.81185,63.781619 C 128.78566,64.950106 127.43957,66.680163 125.55661,66.680163 C 124.44276,66.680163 124.35796,66.512418 125.05127,65.680506 C 125.60567,65.015274 125.63883,64.680849 125.1504,64.680849 C 124.51442,64.680849 122.37439,67.981573 122.37439,68.962488 C 122.37439,69.769045 126.30324,71.186687 129.55,71.551648 C 131.60407,71.782543 133.88022,72.559518 135.07107,73.436292 C 138.42721,75.907271 137.25417,77.161422 133.84678,74.745239 C 132.86557,74.049456 130.2593,73.262708 128.0551,72.99691 C 125.85088,72.731112 123.64208,72.190123 123.14664,71.794714 C 122.43246,71.224725 122.29381,71.414341 122.47742,72.709995 C 122.94164,75.985925 137.69508,79.224665 140.72952,76.716776 C 141.29702,76.247749 142.0945,76.127385 142.58901,76.436121 C 143.06522,76.733434 144.01435,76.884868 144.69819,76.772641 C 145.90982,76.573796 145.90982,76.610613 144.69819,78.216579 C 143.86632,79.319189 143.29214,79.612767 142.96318,79.103698 C 142.66808,78.647012 142.46742,78.912781 142.46127,79.768488 C 142.45563,80.552599 141.84813,81.902136 141.11126,82.76746 C 139.69247,84.433585 139.83938,82.722499 141.27407,80.871169 C 142.22562,79.643299 141.2524,78.676052 139.06542,78.676052 C 137.333,78.676052 137.09725,78.911077 137.09725,80.638203 C 137.09725,81.808035 136.40833,83.355411 135.39115,84.470223 C 133.68505,86.340092 133.68505,86.340092 135.05654,83.534279 C 135.81086,81.991082 136.42803,80.284372 136.42803,79.74159 C 136.42803,78.013579 135.11001,77.869368 134.47673,79.528088 C 133.58284,81.869399 130.19978,84.438982 127.2972,84.981245 C 125.90334,85.241647 123.96855,85.863773 122.99767,86.363749 C 120.89503,87.446543 116.09416,95.100022 117.1211,95.732072 C 117.7484,96.118152 123.61124,90.299741 123.68284,89.220057 C 123.77962,87.760621 127.05893,85.934215 127.05893,87.339749 C 127.05893,87.70629 126.60721,88.006187 126.0551,88.006187 C 125.503,88.006187 125.05127,88.441131 125.05127,88.972729 C 125.05127,89.504327 124.64695,90.179096 124.15278,90.472212 C 123.65862,90.765332 122.69957,91.904852 122.02157,93.004472 C 121.34357,94.104102 120.1859,95.682532 119.44897,96.512102 C 118.53861,97.536912 118.32781,98.238222 118.7914,98.699872 C 119.8124,99.716632 121.28888,98.884492 122.70767,96.492662 C 124.12974,94.095292 127.66596,90.670202 128.71382,90.675252 C 129.09189,90.677072 128.57154,91.351842 127.5575,92.174732 C 125.72522,93.661642 122.77894,98.627782 123.37622,99.222572 C 124.00984,99.853552 129.2267,95.670632 129.84959,94.032162 C 130.20382,93.100392 131.71261,91.169462 133.20246,89.741197 C 134.69232,88.312936 136.62691,85.613861 137.50156,83.743253 C 138.48554,81.638832 139.09433,80.874795 139.09838,81.739243 C 139.10792,83.777918 137.26142,87.131828 134.75571,89.627118 C 132.55026,91.823412 130.75164,94.571432 131.21657,95.034432 C 131.95175,95.766552 134.42037,94.359422 134.42037,93.208242 C 134.42037,92.438212 136.89451,89.509169 140.44336,86.077872 C 146.41328,80.305691 147.55549,78.790195 145.29521,79.640421 C 144.17984,80.059977 144.17984,80.024836 145.29521,78.902475 C 146.41408,77.776594 146.51861,77.776461 147.63748,78.899495 C 148.75435,80.020522 148.49074,80.374566 141.94877,86.539734 C 138.17585,90.095341 135.08907,93.379342 135.08925,93.837522 C 135.09006,95.832752 137.03625,94.594282 148.70316,85.174268 C 150.07196,84.069088 150.08533,83.960678 148.96033,83.090132 C 147.83029,82.215674 147.83414,82.156054 149.04111,81.841739 C 150.24552,81.528087 151.94887,83.049278 154.82436,87.00653 C 156.72891,89.627578 155.79173,86.855824 153.48172,83.035631 C 152.18718,80.894763 151.30835,78.963545 151.52878,78.744036 C 152.10961,78.16562 153.67075,80.418092 155.98515,85.173825 C 157.10002,87.464706 158.25751,89.339064 158.55737,89.339064 C 159.87505,89.339064 159.77166,87.836352 158.23586,84.666026 C 157.3222,82.779965 156.94038,81.372665 157.38113,81.515623 C 157.81925,81.65773 158.93059,83.308787 159.85077,85.184638 C 161.27396,88.08592 163.4717,89.953969 164.38813,89.041344 C 164.82844,88.602869 162.41803,84.38673 160.653,82.508072 C 159.5684,81.353659 159.26904,80.675366 159.84413,80.675366 C 160.34628,80.675366 161.58245,81.650032 162.59118,82.841291 C 164.03318,84.544219 164.60261,84.835177 165.25498,84.202412 C 165.91452,83.562692 165.89149,83.164533 165.14272,82.26133 C 164.33128,81.282556 164.33323,81.168666 165.15673,81.439703 C 167.1083,82.082018 167.57125,83.840727 166.18912,85.361616 C 164.95561,86.718966 164.94895,86.838299 166.06158,87.648485 C 168.28164,89.265087 166.75411,90.471762 161.98814,90.866302 C 156.81316,91.294692 155.18598,90.578122 153.01569,86.915048 C 152.10583,85.379376 151.41243,84.813407 150.9748,85.249223 C 150.19592,86.024861 152.81709,90.662062 154.04967,90.689082 C 154.47973,90.698512 153.36103,91.458282 151.56365,92.377462 C 149.76628,93.296642 148.1231,93.876832 147.91216,93.666762 C 147.70122,93.456702 148.19306,93.111792 149.00515,92.900312 C 150.7571,92.444072 150.99129,90.694832 149.31054,90.619322 C 148.61091,90.587892 148.47619,90.43138 148.97593,90.230571 C 149.43602,90.045693 149.81245,89.159126 149.81245,88.260422 C 149.81245,86.264496 148.30757,86.856986 144.28945,90.434899 C 141.77794,92.671252 141.77794,92.671252 143.95484,92.777912 C 146.13174,92.884562 146.13174,92.884562 143.78946,93.205742 C 141.57293,93.509672 141.537,93.554042 143.12024,94.032312 C 144.49987,94.449072 144.26512,94.557572 141.7818,94.650982 C 139.45062,94.738662 139.07267,94.893642 140.10875,95.337012 C 141.17726,95.794252 140.90732,95.932112 138.7703,96.020582 C 137.29802,96.081532 134.58767,96.540702 132.74731,97.040952 C 129.09037,98.035002 130.30483,98.031132 138.43569,97.022802 C 141.44719,96.649342 141.44719,96.649342 138.87035,97.647572 C 137.45309,98.196602 134.29102,98.860422 131.84353,99.122742 C 125.72906,99.778082 129.65496,100.544 139.97457,100.70907 C 143.94956,100.77265 147.08688,100.93914 146.94639,101.07905 C 145.85466,102.16624 139.5874,102.39344 133.2761,101.57462 C 125.86885,100.61361 117.28867,101.60529 123.71283,102.67992 C 126.00937,103.06408 125.9872,103.08193 122.57692,103.59393 C 119.71127,104.02416 118.79189,104.51675 117.3564,106.39095 C 115.36522,108.99066 115.39812,109.03719 118.23196,107.62937 C 119.37937,107.05934 122.51242,106.4748 125.19429,106.33039 C 129.32946,106.10772 129.61281,106.15448 127.05893,106.63809 C 120.18352,107.94005 111.90005,111.33761 110.6362,113.37406 C 110.1491,114.15892 111.18491,114.19217 112.03492,113.41897 C 112.98431,112.55536 117.17008,111.88442 116.67978,112.67444 C 116.45573,113.03546 115.89759,113.33084 115.43947,113.33084 C 113.53474,113.33084 107.87626,116.77066 106.80206,118.58156 C 104.99586,121.62651 105.42339,122.19177 108.14148,120.35246 C 112.15258,117.63819 112.80941,118.40872 108.94772,121.29827 C 106.53535,123.10336 105.15257,124.7233 104.56074,126.43766 C 103.50352,129.50013 103.84396,129.97608 105.81381,128.18946 C 107.8969,126.30012 109.963,125.32117 111.79016,125.35775 C 113.01923,125.38236 112.71677,125.713 110.32841,126.95563 C 105.96186,129.22751 102.44036,132.88896 101.90898,135.70966 C 101.24512,139.23364 102.50915,139.88408 103.92878,136.749 C 105.31885,133.67919 110.99763,127.81003 110.99763,129.44317 C 110.99763,130.02714 110.25989,130.98632 109.3582,131.57467 C 107.05213,133.07937 102.70836,142.32778 103.5957,143.8437 C 104.19089,144.86053 104.26697,144.86696 104.28507,143.90198 C 104.29626,143.30542 104.75714,142.44398 105.30925,141.98768 C 105.86136,141.53138 106.31308,140.62819 106.31308,139.98059 C 106.31308,138.76948 108.92776,135.14494 108.9677,136.30068 C 109.01387,137.63636 106.71065,143.04174 105.53229,144.36317 C 103.96566,146.12 103.98446,146.65275 105.6131,146.65275 C 106.55353,146.65275 107.41822,145.57658 108.6921,142.82073 C 109.66634,140.71312 111.18593,138.44989 112.06897,137.79133 C 113.99023,136.3585 114.19536,136.78713 112.39037,138.46291 C 109.66856,140.98989 109.82257,143.57282 112.59781,141.94219 C 114.13359,141.03982 114.87745,140.84768 114.62435,141.41871 C 113.98254,142.86669 107.4277,147.7298 105.45236,148.22352 C 104.27643,148.51743 103.32215,149.42853 102.7227,150.82966 C 102.21578,152.0145 100.96633,153.73365 99.94613,154.65001 C 98.120266,156.29002 98.124153,156.2702 100.19449,153.38375 C 103.29362,149.06296 102.88171,146.86159 99.620868,150.31816 C 98.756405,151.23451 97.747968,151.98425 97.379896,151.98425 C 97.011824,151.98425 97.417963,151.23451 98.282426,150.31816 C 100.21015,148.27472 99.29703,148.09661 97.15706,150.09864 C 95.477564,151.66988 94.213605,151.32193 95.59212,149.66783 C 96.742449,148.28753 95.042435,148.26075 93.223871,149.63053 C 91.524323,150.91065 90.530283,150.92355 91.590215,149.65172 C 92.659122,148.36912 83.523418,148.21 79.402762,149.43945 C 73.957646,151.06406 58.142207,177.8226 55.537249,189.81811 C 55.197345,191.38333 54.412812,193.43365 53.793844,194.37439 C 53.174874,195.31513 52.834994,196.25068 53.038553,196.45339 C 53.803847,197.2155 56.327833,194.8254 57.047089,192.65749 C 57.897825,190.09328 59.467602,189.15405 59.467602,191.20924 C 59.467602,191.95123 59.166453,192.74367 58.798381,192.9702 C 57.961599,193.48522 57.909182,197.30205 58.738891,197.30205 C 59.682741,197.30205 62.76742,193.3859 63.211516,191.62384 C 63.805859,189.26563 62.962902,188.43985 60.386354,188.85623 C 57.729756,189.28554 57.444137,188.86473 59.78943,187.97676 C 60.802149,187.59332 61.310756,186.98757 61.093457,186.42366 C 60.597174,185.13574 63.961108,177.77911 64.807976,178.30032 C 65.270232,178.58482 65.275194,179.13021 64.82318,179.97129 C 63.758798,181.95184 63.997241,183.22241 65.366392,182.86585 C 66.042662,182.68974 67.670086,180.42907 69.039607,177.76335 C 74.643616,166.85537 85.19169,152.36398 84.044386,157.14915 C 83.490632,159.45874 86.456369,159.13926 88.684179,156.64932 C 89.668038,155.5497 90.776879,154.65001 91.14827,154.65001 C 91.51966,154.65001 91.11249,155.40372 90.243447,156.32493 C 87.371667,159.36909 89.672277,159.56507 92.799239,156.54266 C 96.124459,153.32861 97.175723,153.405 94.2671,156.64932 C 92.00024,159.17781 92.058567,160.17424 94.349043,158.04921 C 96.075351,156.4476 97.527509,156.14579 96.274763,157.64898 C 95.566503,158.49883 95.735126,158.64864 97.399984,158.64864 C 99.746291,158.64864 103.06456,155.51969 104.59597,151.86321 C 105.56021,149.56095 106.98687,147.91391 106.97857,149.11256 C 106.96158,151.56734 105.019,155.32302 102.11399,158.51749 C 99.324461,161.58498 98.89695,162.34947 99.867084,162.53553 C 103.39924,163.21293 106.93591,159.47205 107.95222,153.98357 C 108.9342,148.68046 111.28506,144.77818 111.73725,147.70063 C 111.96001,149.14027 112.36165,150.91795 112.62979,151.65103 C 113.067,152.8463 112.97853,152.82784 111.77288,151.4721 C 110.42844,149.96029 110.42844,149.96029 109.63055,153.80464 C 109.19171,155.91902 108.2329,158.49096 107.49987,159.52006 C 105.2859,162.62818 106.63205,162.24839 109.55655,158.9398 C 111.0631,157.23539 112.86877,154.31108 113.56916,152.44135 C 115.14995,148.22132 116.78346,147.26498 115.31075,151.42175 C 114.11771,154.78912 112.81348,156.95228 110.45119,159.48168 C 109.50979,160.48967 109.05186,161.31439 109.43357,161.31439 C 110.5044,161.31439 115.30352,157.67216 116.90622,155.64312 C 118.09023,154.14416 118.41241,154.01301 118.75116,154.89212 C 119.35506,156.45931 113.979,160.90899 109.71999,162.36708 C 107.33333,163.18416 107.33333,163.18416 109.78672,164.34923 C 113.72795,166.22087 117.50064,163.68032 122.70548,155.64966 C 123.77216,154.00387 124.0447,153.86216 124.24685,154.84826 C 124.38192,155.50711 123.75951,157.0066 122.86373,158.18046 C 120.15357,161.73188 119.43964,164.54961 120.47848,167.59455 C 121.57764,170.81629 122.86782,171.38168 123.3642,168.85916 C 124.73096,161.91346 125.14641,160.92349 127.57504,158.82516 C 131.0191,155.8495 131.88978,156.09464 128.85814,159.18642 C 126.56346,161.52661 125.0127,164.85843 125.07807,167.30793 C 125.0928,167.86016 125.60577,167.4123 126.218,166.31268 C 127.15229,164.63462 127.37348,164.51395 127.59459,165.56168 C 127.73949,166.24825 127.22651,167.66062 126.45465,168.70027 C 124.55234,171.26259 124.64401,171.74387 127.72816,175.38627 C 129.20044,177.12505 130.40504,179.05543 130.40504,179.67599 C 130.40504,180.60337 130.5838,180.65656 131.40887,179.97466 C 132.80122,178.82392 132.69935,178.35718 130.35304,175.13721 C 128.59411,172.72332 128.35292,171.92141 128.70116,169.64487 C 128.92543,168.1787 129.18429,165.92947 129.27641,164.64658 C 129.52594,161.17127 132.20074,155.90655 134.80151,153.77169 C 137.45243,151.59567 137.74473,150.62089 135.5915,151.13724 C 134.76334,151.33583 135.78081,150.36792 137.85254,148.98633 C 141.54369,146.52479 143.78946,143.37954 143.78946,140.67152 C 143.78946,138.80589 144.91287,138.43109 145.36332,140.14644 C 145.5938,141.02412 145.22689,142.50683 144.45814,143.80435 C 143.01359,146.2425 143.84894,146.71522 146.22679,144.80522 C 148.00082,143.38025 149.74151,140.00938 150.73231,136.08028 C 151.14656,134.43749 151.90993,132.9544 152.42867,132.78453 C 153.1252,132.55644 153.23453,132.80443 152.84675,133.73288 C 152.55795,134.42434 152.10807,136.03972 151.84704,137.32261 C 150.65355,143.18815 148.35209,145.67 141.91754,148.03038 C 140.68616,148.48209 139.27616,149.67722 138.72705,150.73468 C 138.18586,151.77687 136.6642,153.70395 135.34558,155.01709 C 132.95838,157.39437 132.63246,159.19696 134.97087,157.08953 C 136.63305,155.59154 137.29909,155.69494 136.42803,157.31576 C 136.03406,158.04884 135.26616,158.64864 134.7216,158.64864 C 133.41089,158.64864 131.07992,162.52743 131.07676,164.71374 C 131.07539,165.66703 130.74042,167.40068 130.33239,168.56629 C 129.48582,170.98467 130.31757,173.75462 132.47386,175.69792 C 133.95451,177.03232 134.2078,176.25261 132.79945,174.69563 C 132.27602,174.11695 131.6532,172.7438 131.41542,171.64418 C 131.02974,169.86067 131.08398,169.76765 131.9179,170.78244 C 132.79924,171.85492 132.92121,171.85492 134.04934,170.78244 C 135.18747,169.70045 135.20827,169.71813 134.475,171.14435 C 133.88754,172.28695 133.89737,173.00072 134.51629,174.14332 C 135.3128,175.61377 135.33992,175.59941 135.91705,173.40141 C 136.41058,171.5218 136.22926,170.74421 134.79375,168.58402 C 132.83256,165.63278 132.62655,163.46337 134.13135,161.60837 C 135.13335,160.37319 135.16237,160.40011 134.77353,162.20411 C 134.2095,164.82098 135.04563,167.59567 135.81079,165.64624 C 136.09853,164.91315 136.3647,163.56362 136.40228,162.64726 C 136.4782,160.79578 138.17674,158.16861 138.85875,158.84779 C 139.09905,159.08708 138.96697,159.67725 138.56525,160.15927 C 137.08397,161.93668 136.30578,167.40976 137.22285,169.6005 C 138.07836,171.64418 138.07836,171.64418 138.48813,169.64487 C 138.89792,167.64555 138.89792,167.64555 139.60067,169.31165 C 140.19189,170.71331 140.04899,171.24796 138.70034,172.68031 C 136.62678,174.88254 136.7078,175.80911 139.22165,178.64178 C 140.4646,180.04238 141.08437,180.44178 140.77285,179.64144 C 139.56696,176.54328 139.6236,174.35389 140.9783,171.69962 C 141.74216,170.20296 143.02278,167.53826 143.82413,165.77807 C 144.62547,164.01786 145.42864,162.72461 145.60895,162.90416 C 145.78925,163.08372 145.43283,164.22398 144.8169,165.43809 C 140.76171,173.43154 140.53661,180.3419 144.23194,183.396 C 145.20605,184.20108 145.25781,184.12079 144.72252,182.63519 C 143.30724,178.70737 145.21913,167.31233 147.29344,167.31233 C 148.01265,167.31233 147.93681,167.78586 146.88786,169.84457 C 144.46337,174.60298 145.07886,181.98572 148.15549,185.04955 C 150.20072,187.08628 151.86712,187.16703 150.01274,185.13956 C 147.52053,182.41472 147.0171,180.84018 147.77229,178.13224 C 148.15413,176.76305 148.46823,174.83579 148.47028,173.84944 C 148.47233,172.86308 148.7952,171.85839 149.18775,171.61678 C 150.25667,170.9589 150.84543,171.88173 149.93514,172.78824 C 147.6787,175.03529 149.51959,182.93315 153.07614,186.2639 C 155.43424,188.47229 155.66587,188.19847 154.05522,185.10646 C 152.55182,182.22034 152.52359,175.64886 154.00168,172.64384 C 155.25635,170.09305 155.28101,171.38625 154.10771,178.20285 C 153.65539,180.83073 154.16907,182.35989 156.82966,186.30582 C 157.57109,187.40545 158.47015,188.51375 158.82756,188.76873 C 159.97286,189.58578 160.10184,188.68678 159.013,187.47617 C 156.76504,184.97684 155.74842,174.09393 157.6195,172.55883 C 158.6271,171.73216 158.68826,171.82834 158.25537,173.55864 C 157.0523,178.36732 160.59046,189.97123 163.25974,189.97123 C 163.98666,189.97123 162.73748,186.64167 161.49944,185.27933 C 160.30299,183.96278 159.48222,177.17994 160.3356,175.66138 C 160.83114,174.77959 161.08746,175.49032 161.42142,178.67217 C 161.66185,180.96295 162.18224,183.2256 162.57784,183.7003 C 162.97345,184.17499 163.86278,186.00506 164.55414,187.76713 C 166.40498,192.48438 166.13437,189.76368 164.18327,184.03847 C 162.41241,178.84215 162.47762,173.77106 164.25266,178.64178 C 164.72019,179.92468 165.12562,181.6148 165.15362,182.39762 C 165.18162,183.18044 165.65441,184.67993 166.20425,185.72981 C 166.75409,186.7797 167.20581,188.45287 167.20808,189.44796 C 167.21064,190.57221 167.71895,191.52729 168.55064,191.97055 C 170.17783,192.83777 170.17955,193.06657 168.5263,188.73492 C 167.14689,185.1207 165.18679,176.82495 165.22582,174.76619 C 165.26425,172.73935 167.2122,175.99812 167.2122,178.08923 C 167.2122,179.73517 168.16735,182.87744 169.91235,186.97226 C 170.22475,187.70534 170.66687,189.25475 170.89484,190.41539 C 171.26516,192.30085 172.92699,193.83249 173.73228,193.03054 C 174.21895,192.5459 172.22965,186.56993 169.46358,180.20716 C 168.12391,177.12553 168.30651,173.73687 169.88909,172.31062 C 171.3765,170.97012 171.61527,171.73366 170.48272,174.209 C 169.78232,175.73982 171.29785,180.98958 174.55207,188.30514 C 174.87818,189.03822 175.25873,190.062 175.39776,190.58021 C 176.12279,193.2827 178.91909,186.21885 178.87059,181.80736 C 178.81379,176.64147 178.84796,176.58512 180.31932,179.41858 C 182.48146,183.5823 178.87486,193.6101 173.67822,197.88348 C 171.92498,199.32525 172.38199,200.11858 174.25991,198.89323 C 176.93599,197.14709 176.87798,198.25138 174.18623,200.29594 C 171.70587,202.17993 169.88909,205.44781 169.88909,208.02526 C 169.88909,209.29254 170.0266,209.3551 171.06022,208.55798 C 172.17559,207.69782 172.17559,207.72024 171.06022,209.02868 C 169.691,210.63493 169.60709,212.83274 170.80824,215.62911 C 171.66703,217.62842 171.66703,217.62842 172.13554,214.72673 C 172.55869,212.106 175.6777,206.84308 176.38832,207.55074 C 176.54759,207.70936 175.9033,209.0611 174.95655,210.55461 C 173.16203,213.38549 172.50852,219.43505 173.90441,220.29417 C 174.28523,220.52855 174.57363,219.95684 174.57363,218.96753 C 174.57363,217.18311 176.43901,212.93274 176.98397,213.47543 C 177.15117,213.64193 176.97839,214.58901 176.60002,215.58006 C 174.21791,221.81944 177.76463,227.73733 186.37563,231.89121 C 198.16891,237.5802 200.80952,243.57435 194.82259,251.06575 C 190.39452,256.60655 185.02512,261.88499 183.05952,262.62954 C 178.15518,264.48725 176.54389,265.43166 173.46568,268.25267 C 169.38956,271.98821 171.23843,272.52056 175.68536,268.89178 C 179.50609,265.774 180.88631,266.26026 177.3209,269.468 C 173.76858,272.66396 176.21278,273.02242 181.59527,270.09486 z M 198.43137,236.83296 C 198.17987,236.5825 198.95784,235.92294 200.1602,235.36729 C 202.34631,234.357 202.34631,234.357 200.24142,234.11956 C 196.81882,233.73347 194.07915,229.30367 194.01042,224.04459 C 193.98506,222.10455 193.84103,221.91278 192.95759,222.64292 C 192.10778,223.34527 191.64502,223.21828 190.22993,221.8944 C 188.44912,220.22838 188.39872,219.0537 189.93575,215.03685 C 190.98409,212.29711 191.34507,213.15111 190.57721,216.55441 C 190.10682,218.63924 190.14524,219.70657 190.71527,220.39056 C 192.04702,221.98855 192.97721,220.99215 192.97721,217.96762 C 192.97721,216.38307 193.30128,214.97616 193.69735,214.84114 C 194.11289,214.69948 194.42497,215.51892 194.43519,216.77847 C 194.50446,225.32006 197.4813,232.62328 200.89363,232.62328 C 202.24336,232.62328 202.24334,232.62146 200.87354,231.12379 C 198.04393,228.03006 197.61128,226.35832 196.86351,215.62911 C 196.68469,213.06332 196.22122,210.58192 195.83357,210.11488 C 194.91295,209.00572 195.77525,208.15236 196.79276,209.16564 C 197.22273,209.59381 197.74472,212.12295 197.95275,214.78593 C 198.3839,220.30513 199.27126,220.9944 200.3365,216.63755 C 200.75959,214.90707 201.27193,213.97662 201.55265,214.42894 C 202.07155,215.26504 201.32199,218.98458 199.95449,222.35951 C 199.21439,224.18605 199.30428,224.80251 200.73197,227.69102 C 202.22541,230.71258 202.36193,230.8224 202.55487,229.15743 C 202.66958,228.16757 202.4448,226.76479 202.05536,226.04014 C 201.3094,224.6521 201.77271,222.40095 202.68835,222.9645 C 202.98337,223.14608 203.43821,224.86876 203.69911,226.79269 C 203.96,228.71662 204.48013,230.87064 204.85495,231.5794 C 205.9742,233.69583 200.103,238.49763 198.43137,236.83296 z M 193.41221,232.6566 C 193.69978,231.79747 194.61768,231.64315 194.70046,232.44001 C 194.72806,232.70575 194.38927,233.04314 193.94758,233.18975 C 193.5059,233.33637 193.26498,233.09645 193.41221,232.6566 z M 190.34336,231.33775 C 189.48338,230.39144 188.62211,230.12516 187.28354,230.39177 C 184.44489,230.95714 182.60429,228.76781 182.60429,224.82595 C 182.60429,221.43035 181.55273,221.52432 181.11274,224.95924 C 180.85664,226.95856 180.85664,226.95856 180.33996,224.95924 C 180.05579,223.85962 179.52258,222.33711 179.15507,221.57588 C 178.78756,220.81465 178.5951,219.16521 178.72738,217.91047 C 178.9679,215.62911 178.9679,215.62911 179.82138,218.51074 C 180.55138,220.97547 180.82181,221.27092 181.69058,220.55291 C 183.05199,219.42774 183.91866,220.78055 183.93248,224.05236 C 183.94378,226.72586 185.9429,229.78625 187.18045,229.02457 C 188.25837,228.36115 188.15182,225.91706 186.91665,222.97316 C 186.34387,221.60802 185.97552,219.84699 186.09808,219.05975 C 186.36125,217.36948 189.28302,224.4089 189.31778,226.81694 C 189.34397,228.63086 191.00687,230.97573 191.595,230.02806 C 191.82563,229.65644 191.81062,228.54412 191.56164,227.55624 C 191.24218,226.28868 191.33463,225.89899 191.87578,226.23204 C 192.75224,226.77148 192.89093,230.53536 192.08117,231.80598 C 191.66695,232.45594 191.25985,232.34626 190.34336,231.33775 z M 203.37142,213.08615 C 203.35972,212.05406 203.65454,210.64323 204.02658,209.95095 C 204.50888,209.05352 204.41563,207.87064 203.70171,205.82952 C 203.15099,204.25502 202.69602,202.47868 202.69066,201.88211 C 202.6853,201.28555 202.2118,200.40973 201.63842,199.93585 C 200.51064,199.00377 198.66559,195.04373 198.66559,193.55526 C 198.66559,191.8883 199.82682,192.59965 200.70228,194.80291 C 201.17563,195.99417 201.91689,197.41868 202.34953,197.96849 C 205.60762,202.10897 206.67812,210.64473 204.32686,213.73493 C 203.4562,214.87922 203.39126,214.83512 203.37142,213.08615 z M 200.67326,210.98871 C 200.67326,209.71938 200.05992,207.13127 199.31029,205.23734 C 197.86881,201.5955 197.9755,200.56713 199.65114,201.95201 C 201.09052,203.14162 202.70657,209.00362 202.23814,211.33601 C 201.69668,214.03205 200.67326,213.80491 200.67326,210.98871 z M 191.07525,208.5308 C 191.76258,207.35991 192.98365,206.32832 193.83511,206.1992 C 195.21423,205.99006 195.13532,206.19359 193.02089,208.29922 C 190.11767,211.19037 189.46871,211.26761 191.07525,208.5308 z M 172.54202,206.07528 C 172.9829,205.21917 173.52717,204.70149 173.7515,204.92488 C 173.97582,205.14827 173.61509,205.84872 172.94988,206.48145 C 171.79363,207.58122 171.77568,207.56334 172.54202,206.07528 z M 194.66051,203.83916 C 194.66615,202.99281 194.96269,201.85049 195.31949,201.30068 C 195.81311,200.54003 195.97067,200.80946 195.97846,202.42762 C 195.9841,203.59724 195.68756,204.73956 195.31949,204.96609 C 194.94631,205.19577 194.6548,204.69725 194.66051,203.83916 z M 174.57363,203.74429 C 174.57363,203.12686 175.09376,202.63809 175.74477,202.64376 C 176.41311,202.64959 176.6286,202.86751 176.24669,203.15135 C 175.87861,203.4249 175.3516,203.92014 175.07555,204.25187 C 174.7995,204.5836 174.57363,204.35519 174.57363,203.74429 z M 183.94273,193.66131 C 183.94273,193.49161 184.54503,191.83108 185.28117,189.97123 C 186.01731,188.11139 186.61961,185.70111 186.61961,184.61506 C 186.61961,182.60208 187.54342,181.936 188.15044,183.5113 C 188.8098,185.22241 185.76039,193.96986 184.50453,193.96986 C 184.19554,193.96986 183.94273,193.83102 183.94273,193.66131 z M 181.26584,190.09216 C 181.26584,189.70238 181.524,189.22457 181.83953,189.03037 C 182.15507,188.83618 182.58645,187.24401 182.79818,185.49224 C 183.33805,181.02544 185.00654,177.19535 185.67138,178.89668 C 185.94102,179.58667 185.81295,180.70722 185.38679,181.38678 C 184.96063,182.06633 184.61195,183.35844 184.61195,184.25813 C 184.61195,185.15783 184.3108,186.07929 183.94273,186.30582 C 183.57466,186.53236 183.27351,187.26308 183.27351,187.92965 C 183.27351,188.59622 182.82178,189.51493 182.26968,189.97123 C 181.63667,190.4944 181.26584,190.53907 181.26584,190.09216 z M 174.57861,185.31813 C 174.12397,184.2251 173.92741,182.87556 174.1418,182.31916 C 174.87684,180.41168 175.57752,181.30899 175.69367,184.30652 C 175.83052,187.8384 175.68269,187.97252 174.57861,185.31813 z M 189.01626,178.20935 C 188.44869,176.73643 188.92386,176.39199 189.90285,177.56669 C 190.37809,178.13693 190.44491,178.68008 190.06834,178.91184 C 189.72096,179.12564 189.24752,178.80952 189.01626,178.20935 z M 191.30416,178.054 C 191.30416,177.68746 191.60531,177.20222 191.97338,176.97569 C 192.34145,176.74915 192.6426,176.86371 192.6426,177.23025 C 192.6426,177.59679 192.34145,178.08203 191.97338,178.30856 C 191.60531,178.5351 191.30416,178.42055 191.30416,178.054 z M 162.92175,170.59339 C 160.48585,167.71052 160.5217,163.2728 163.01179,159.44847 C 165.48416,155.65138 166.30792,155.8982 164.21702,159.8096 C 162.52478,162.97525 162.1987,165.02271 162.94513,167.79568 C 163.29414,169.09225 163.55507,168.85752 165.0207,165.92863 C 167.10039,161.7726 167.7205,162.11222 166.22721,166.58941 C 165.61047,168.43853 165.29892,170.55724 165.53491,171.29765 C 166.16595,173.27764 164.90201,172.937 162.92175,170.59339 z M 139.10491,166.05812 C 139.10491,165.32503 139.40606,164.5399 139.77414,164.31336 C 140.14221,164.08682 140.44336,164.50128 140.44336,165.23436 C 140.44336,165.96744 140.14221,166.75258 139.77414,166.97911 C 139.40606,167.20565 139.10491,166.7912 139.10491,166.05812 z M 121.81757,162.98048 C 122.6959,160.77291 124.00616,158.64864 124.48947,158.64864 C 125.30591,158.64864 125.22978,158.82191 123.30184,161.35152 C 122.33965,162.61399 121.67173,163.34703 121.81757,162.98048 z M 156.20175,157.14915 C 156.45282,156.32443 157.54572,154.82495 158.63042,153.81696 C 160.832,151.77107 161.94336,151.35034 160.39082,153.15052 C 159.83761,153.79197 159.19809,154.84161 158.96966,155.48305 C 158.74123,156.1245 158.24373,156.64932 157.86411,156.64932 C 157.48448,156.64932 157.17388,157.09917 157.17388,157.64898 C 157.17388,158.19879 156.85244,158.64864 156.45956,158.64864 C 156.02968,158.64864 155.92702,158.05156 156.20175,157.14915 z M 92.259436,154.0229 C 92.259436,153.67799 92.557137,153.21257 92.920992,152.98863 C 93.300347,152.75515 93.41254,153.02266 93.184003,153.61573 C 92.739111,154.77028 92.259436,154.98153 92.259436,154.0229 z M 153.28814,153.92965 C 153.66003,152.81863 158.77967,146.72332 159.3724,146.68592 C 160.17528,146.63524 158.53762,149.36457 156.40721,151.62771 C 155.36,152.74016 154.5018,153.87527 154.5001,154.15018 C 154.49839,154.42508 154.17075,154.65001 153.77201,154.65001 C 153.37326,154.65001 153.15553,154.32585 153.28814,153.92965 z M 119.02828,153.31713 C 119.02828,152.95059 119.30433,152.65069 119.64174,152.65069 C 119.97913,152.65069 120.55766,151.82597 120.92734,150.81799 C 121.5995,148.98528 121.5995,148.98528 121.65233,150.6847 C 121.70353,152.33141 120.65747,153.98357 119.56366,153.98357 C 119.2692,153.98357 119.02828,153.68367 119.02828,153.31713 z M 175.22629,149.60833 C 174.86733,148.66812 174.57363,147.60158 174.57363,147.23823 C 174.57363,146.87489 173.6194,145.70968 172.45311,144.64887 C 170.46768,142.843 170.43571,142.74523 171.95119,143.11433 C 174.23955,143.67164 175.69941,145.09669 176.12301,147.18664 C 176.32351,148.17589 176.69145,149.5101 176.94064,150.15155 C 177.2085,150.84105 177.0841,151.31781 176.63633,151.31781 C 176.21977,151.31781 175.58525,150.54855 175.22629,149.60833 z M 154.497,148.35883 C 154.497,148.19133 155.24987,147.24531 156.17005,146.25655 C 157.09023,145.26779 157.84772,143.97777 157.85335,143.38985 C 157.86651,142.01704 158.98696,140.23888 159.51039,140.76013 C 160.13285,141.38001 157.16874,147.00177 155.75628,147.88019 C 155.06368,148.31093 154.497,148.52632 154.497,148.35883 z M 123.40062,144.68953 C 122.95291,143.96813 128.21096,138.24769 128.79091,138.82524 C 128.99064,139.02414 128.23093,140.12729 127.10266,141.27669 C 125.97439,142.4261 125.05127,143.63837 125.05127,143.97064 C 125.05127,144.90105 123.85519,145.42198 123.40062,144.68953 z M 120.36672,142.88363 C 120.36672,140.72097 124.55137,135.97489 126.38971,136.05255 C 127.18582,136.08619 127.20313,136.17027 126.47337,136.45887 C 124.24216,137.34127 121.52268,141.40511 122.12222,142.96099 C 122.37709,143.62239 122.13542,143.98699 121.44216,143.98699 C 120.85066,143.98699 120.36672,143.49048 120.36672,142.88363 z M 117.49593,139.98836 C 117.27501,139.14705 117.4754,138.65549 118.0393,138.65549 C 118.53066,138.65549 119.40592,138.18422 119.98431,137.60823 C 120.94034,136.65617 121.03594,136.65617 121.03594,137.60823 C 121.03594,138.18422 120.58422,138.65549 120.03211,138.65549 C 119.47443,138.65549 119.02828,139.24788 119.02828,139.98836 C 119.02828,140.72145 118.76225,141.32124 118.43711,141.32124 C 118.11197,141.32124 117.68844,140.72145 117.49593,139.98836 z M 122.03978,135.98974 C 122.26726,135.62319 122.58618,135.3233 122.74849,135.3233 C 122.91081,135.3233 123.04361,135.62319 123.04361,135.98974 C 123.04361,136.35628 122.72468,136.65617 122.33489,136.65617 C 121.94509,136.65617 121.81229,136.35628 122.03978,135.98974 z M 110.74228,133.69182 C 110.96149,133.12296 111.67403,132.65754 112.32573,132.65754 C 112.97743,132.65754 113.88553,132.2077 114.34374,131.65789 C 115.25295,130.5669 117.35048,130.25401 116.69708,131.30683 C 116.47569,131.66356 115.17803,132.46374 113.81339,133.08499 C 112.44876,133.70625 111.10983,134.32964 110.83799,134.47032 C 110.56615,134.61099 110.52309,134.26066 110.74228,133.69182 z M 120.70133,126.1515 C 121.06941,125.79482 122.41517,125.30775 123.69192,125.06914 C 125.10245,124.80552 125.75891,124.87414 125.36497,125.24402 C 125.0084,125.57882 123.66264,126.06588 122.37439,126.32638 C 120.85181,126.63427 120.26631,126.57307 120.70133,126.1515 z M 130.27956,124.20503 C 130.76266,124.01252 131.33985,124.03619 131.56224,124.25764 C 131.78461,124.4791 131.38935,124.63661 130.68388,124.60767 C 129.90428,124.57569 129.7457,124.41777 130.27956,124.20503 z M 117.02062,120.48134 C 117.02062,119.92586 117.47234,119.29876 118.02445,119.08778 C 118.57656,118.87679 119.02828,118.95794 119.02828,119.26809 C 119.02828,119.57825 118.57656,120.20535 118.02445,120.66166 C 117.20726,121.33704 117.02062,121.30352 117.02062,120.48134 z M 124.54272,116.28088 C 124.68689,116.13731 125.94871,115.874 127.34676,115.69575 C 128.74482,115.5175 130.46335,115.19002 131.16573,114.96802 C 132.52065,114.53977 136.75318,115.22849 136.19325,115.7861 C 136.01148,115.96712 133.25677,116.21123 130.07167,116.32857 C 126.88658,116.44591 124.39855,116.42445 124.54272,116.28088 z M 125.93145,113.72371 C 127.94103,112.88973 138.51206,112.84457 139.89476,113.66405 C 140.68563,114.13279 138.56438,114.33049 132.74428,114.33049 C 127.14565,114.33049 124.94223,114.13425 125.93145,113.72371 z M 142.33849,111.7883 C 139.76112,110.95886 137.78087,109.55567 140.10875,110.20832 C 142.28393,110.81816 150.48167,111.52067 150.48167,111.09722 C 150.48167,110.88296 149.65351,110.26024 148.64132,109.71339 C 145.7756,108.16518 149.19639,108.30731 153.44152,109.91283 C 158.18962,111.70857 147.63215,113.4919 142.33849,111.7883 z M 160.02484,111.45276 C 159.47528,111.10519 160.04025,110.63466 161.69789,110.05937 C 165.20169,108.84339 168.54065,106.52486 168.54607,105.3041 C 168.54859,104.73807 169.75524,102.98851 171.22753,101.41619 C 174.07984,98.370082 174.8978,98.564692 172.42113,101.70017 C 171.60532,102.73299 170.47601,104.4842 169.91155,105.59177 C 168.44924,108.46105 161.65908,112.48635 160.02484,111.45276 z M 157.84311,105.33358 C 157.10345,104.85756 157.54374,104.68755 159.51616,104.68755 C 160.98844,104.68755 162.64477,104.97826 163.19687,105.33358 C 163.93653,105.8096 163.49624,105.9796 161.52382,105.9796 C 160.05154,105.9796 158.39521,105.6889 157.84311,105.33358 z M 165.03723,104.89221 C 165.49732,104.70733 166.2502,104.70733 166.71029,104.89221 C 167.17037,105.07709 166.79394,105.22836 165.87376,105.22836 C 164.95358,105.22836 164.57714,105.07709 165.03723,104.89221 z M 134.08576,103.54703 C 131.40887,102.65456 131.40887,102.65456 134.00137,102.96591 C 136.47484,103.26297 137.64461,103.74556 137.04148,104.2201 C 136.88812,104.34077 135.55804,104.03789 134.08576,103.54703 z M 165.53915,100.00207 C 167.3789,99.214802 168.43552,99.214802 167.2122,100.00207 C 166.66009,100.35739 165.75665,100.63162 165.20454,100.61147 C 164.54264,100.58731 164.65662,100.37973 165.53915,100.00207 z M 174.90824,99.335642 C 175.17502,98.419282 175.69444,97.369642 176.06251,97.003102 C 176.50866,96.558812 176.57005,96.892032 176.24669,98.002762 C 175.97991,98.919112 175.46049,99.968752 175.09242,100.33529 C 174.64627,100.77959 174.58488,100.44637 174.90824,99.335642 z M 170.55831,98.002762 C 170.55831,97.636222 170.87723,97.336322 171.26703,97.336322 C 171.65682,97.336322 171.78962,97.636222 171.56214,98.002762 C 171.33466,98.369302 171.01573,98.669202 170.85342,98.669202 C 170.69111,98.669202 170.55831,98.369302 170.55831,98.002762 z M 145.67165,96.881072 C 146.15474,96.688552 146.73194,96.712232 146.95432,96.933682 C 147.1767,97.155132 146.78144,97.312642 146.07597,97.283712 C 145.29636,97.251732 145.13779,97.093812 145.67165,96.881072 z M 160.18538,96.512512 C 163.26485,95.410302 167.23024,92.744672 167.67688,91.476532 C 167.8973,90.850732 168.8427,89.514004 169.77778,88.506016 C 171.13681,87.041034 171.25613,86.673311 170.37244,86.673311 C 169.76443,86.673311 168.95521,86.093232 168.57419,85.384246 C 167.42595,83.247661 167.78495,83.018533 169.60823,84.72429 C 171.33504,86.3398 171.33504,86.3398 172.67555,84.50724 C 174.31664,82.263751 175.24285,82.165064 175.24285,84.233695 C 175.24285,85.136156 174.3269,86.638829 173.06789,87.801861 C 171.87165,88.906894 169.93988,90.904412 168.77505,92.240792 C 167.61023,93.577172 166.33035,94.670572 165.93086,94.670572 C 165.53139,94.670572 165.20219,94.895492 165.19932,95.170402 C 165.19095,95.971372 161.74631,97.341092 159.88466,97.283712 C 158.22077,97.232422 158.22836,97.212972 160.18538,96.512512 z M 172.56597,96.696782 C 172.56597,96.368652 173.32531,95.505372 174.25339,94.778382 C 175.18147,94.051392 176.36485,92.305212 176.88312,90.897992 C 177.67209,88.755754 177.83293,88.610523 177.87154,90.005502 C 177.93767,92.394532 175.83433,96.132602 174.07172,96.758602 C 173.23164,97.056952 172.56597,97.029622 172.56597,96.696782 z M 168.01527,81.874955 C 166.83588,80.700471 166.94605,75.950423 168.14208,76.407475 C 168.65351,76.602913 168.93128,77.298537 168.75933,77.953304 C 168.4098,79.284374 170.14063,81.341805 171.60994,81.341805 C 172.13575,81.341805 172.56597,81.641702 172.56597,82.008243 C 172.56597,82.94568 168.98514,82.840799 168.01527,81.874955 z M 180.45564,79.317614 C 174.9957,76.055281 174.4099,75.299483 177.73744,75.81057 C 181.25727,76.351192 183.5945,77.650065 185.27398,79.998872 C 187.2618,82.778893 185.93444,82.591221 180.45564,79.317614 z M 200.67326,76.039394 C 200.67326,75.682643 201.27556,75.069756 202.0117,74.677422 C 202.74784,74.285089 203.35014,74.202398 203.35014,74.493665 C 203.35014,74.784932 202.74784,75.397819 202.0117,75.855636 C 201.27028,76.316732 200.67326,76.3987 200.67326,76.039394 z M 147.50523,73.383109 C 146.8583,72.671236 146.45265,71.71936 146.60379,71.267829 C 146.76344,70.790868 147.51237,71.333217 148.39109,72.562143 C 150.04141,74.870172 149.39826,75.466201 147.50523,73.383109 z M 149.10551,71.863146 C 147.25594,69.846551 146.66628,68.679478 147.49699,68.679478 C 147.69577,68.679478 149.00431,69.879067 150.40486,71.345231 C 151.86102,72.869609 152.54973,74.010984 152.01338,74.010984 C 151.49752,74.010984 150.18898,73.044457 149.10551,71.863146 z M 190.44787,70.457677 C 190.18269,69.786251 189.9848,68.586663 190.00814,67.791924 C 190.04839,66.42077 190.08386,66.429944 190.70224,67.97148 C 191.06068,68.864975 191.25855,70.064564 191.14197,70.637233 C 190.9676,71.493818 190.84451,71.461979 190.44787,70.457677 z M 151.43511,70.203218 C 151.03932,69.914973 150.14622,68.70447 149.45046,67.513211 C 148.75469,66.321953 147.79864,65.347287 147.32589,65.347287 C 146.85314,65.347287 146.46635,65.04739 146.46635,64.680849 C 146.46635,62.814387 155.70792,63.963528 157.17275,66.012134 C 157.95839,67.110881 159.35612,68.198544 160.27881,68.429161 C 161.2015,68.659779 161.70851,69.084119 161.40552,69.37214 C 160.60849,70.129756 152.2867,70.823413 151.43511,70.203218 z M 153.59751,67.008183 C 154.27228,65.559405 154.21322,65.347287 153.13509,65.347287 C 151.65189,65.347287 150.89352,66.383855 151.4052,67.711734 C 151.9532,69.133864 152.72245,68.886997 153.59751,67.008183 z M 155.66814,62.222141 C 155.02401,62.054514 154.497,61.619247 154.497,61.254882 C 154.497,60.582327 156.63914,61.020089 158.51233,62.075444 C 159.63308,62.706877 157.87852,62.797374 155.66814,62.222141 z M 155.94584,269.81567 C 160.03598,268.50383 160.57791,268.12297 161.25303,266.08583 C 162.78771,261.45506 163.81232,260.03766 164.30631,261.86209 C 164.8388,263.82871 166.43633,261.54065 166.57386,258.61437 C 166.64644,257.07004 166.73311,257.11874 167.75976,259.28081 C 168.86735,261.61334 168.86735,261.61334 169.08585,258.61437 C 169.20603,256.96494 169.62632,255.3155 170.01983,254.94896 C 170.52253,254.48071 170.61599,254.91895 170.33411,256.42261 C 170.11346,257.59965 170.20488,258.73007 170.53728,258.93465 C 170.86968,259.13923 171.349,257.87629 171.60245,256.12812 C 172.26102,251.58563 173.18958,250.25757 173.21484,253.82203 C 173.22717,255.56238 173.49884,256.53145 173.90441,256.28184 C 174.27248,256.0553 174.57824,254.46314 174.58388,252.7437 C 174.58951,251.02427 174.90894,249.16761 175.29371,248.6178 C 175.82328,247.86108 175.90239,248.10401 175.61926,249.61746 C 175.41354,250.71708 175.51311,252.03157 175.84052,252.53855 C 176.4529,253.48679 177.32857,250.82377 177.12976,248.6178 C 176.81864,245.16562 177.47566,244.55991 178.21411,247.61814 C 179.0187,250.95033 179.0187,250.95033 179.4962,247.45079 C 179.80131,245.21463 179.69889,243.4399 179.21248,242.53482 C 178.63301,241.45658 178.65501,240.70091 179.30456,239.36997 C 180.36912,237.1887 181.05556,239.29982 181.18667,245.15833 C 181.23526,247.32988 181.52432,248.53737 181.93507,248.28458 C 183.2319,247.48643 182.68876,239.10871 181.22685,237.36055 C 180.49374,236.4839 179.79168,235.88411 179.66671,236.02767 C 178.84756,236.96864 177.91974,239.42684 177.91974,240.65616 C 177.91974,245.78672 160.99917,263.27944 156.03641,263.27944 C 153.87222,263.27944 151.22707,264.72949 148.85072,267.21857 C 145.25799,270.98175 150.16648,269.65844 154.31967,265.74417 C 155.51039,264.62195 156.68251,263.90084 156.92439,264.1417 C 157.41203,264.62732 152.91879,269.28898 150.81628,270.47876 C 148.63112,271.71532 150.96273,271.41391 155.94584,269.81567 z M 185.28368,241.68934 C 184.91423,241.32143 184.6101,240.25566 184.60783,239.32098 C 184.60556,238.38631 184.1717,236.79685 183.64368,235.78886 C 182.51024,233.62509 182.7882,233.52126 185.17786,235.21578 C 186.15486,235.90857 187.24784,236.48587 187.60671,236.49867 C 187.96558,236.51147 188.36495,236.91931 188.49419,237.40497 C 188.65508,238.00955 188.48377,237.97277 187.95095,237.28835 C 187.31468,236.47103 187.23828,236.59259 187.53211,237.95479 C 187.87474,239.54328 187.84628,239.56062 186.92094,238.32724 C 185.98982,237.08615 185.95039,237.10486 185.95039,238.78773 C 185.95039,241.44938 186.95197,241.51939 188.88697,238.99301 C 190.88106,236.3895 190.28178,235.63663 183.94273,232.7816 C 179.39765,230.73455 171.15189,222.11735 168.18286,216.3118 C 167.42847,214.8367 166.27321,212.81826 165.6156,211.8264 C 164.95799,210.83452 164.6394,209.66939 164.90762,209.23722 C 165.2379,208.70503 165.6975,208.96442 166.33172,210.04095 C 167.37283,211.80815 167.29301,209.04955 166.19451,205.29931 C 165.73552,203.73235 165.76479,203.70818 166.68633,204.89299 C 167.62451,206.0992 167.68596,206.1014 168.13164,204.94478 C 168.46588,204.07739 167.90871,203.03475 166.15547,201.24673 C 163.04854,198.07818 163.42162,196.4733 166.5505,199.54741 C 169.39339,202.34053 170.30042,202.07114 168.46779,198.97796 C 167.53175,197.39811 167.30154,196.3583 167.72209,195.60993 C 168.2329,194.70097 168.49327,194.86207 169.34551,196.61444 C 170.36054,198.70154 170.36054,198.70154 171.44659,197.05092 C 172.62352,195.26217 172.39874,195.11643 164.84355,192.76957 C 162.58877,192.06916 162.1264,199.58851 164.27476,202.0196 C 164.78614,202.59827 165.17738,204.24771 165.14418,205.68501 C 165.08382,208.29828 165.08382,208.29828 164.32398,205.96575 C 163.56412,203.63322 163.56412,203.63322 163.32518,206.63219 C 163.08623,209.63116 163.08623,209.63116 162.19207,207.63185 C 161.29792,205.63253 161.29792,205.63253 161.19653,207.96507 C 161.11847,209.76094 160.97891,210.00215 160.58998,209.01345 C 160.12121,207.82181 160.05228,207.81373 159.63318,208.90134 C 157.1296,215.39846 163.58564,229.34258 170.84263,233.11211 C 174.07933,234.79336 177.94735,235.32639 178.39933,234.15346 C 178.70465,233.3611 178.87814,233.34381 179.32344,234.06131 C 179.76311,234.76974 180.03794,234.77909 180.7113,234.10853 C 181.70706,233.11691 183.80941,238.69401 183.91974,242.61985 C 183.9816,244.8207 184.04091,244.87916 184.97035,243.65533 C 185.62951,242.7874 185.73317,242.13696 185.28368,241.68934 z M 172.90058,232.06361 C 167.17104,228.57871 158.51322,216.96169 161.02433,216.12813 C 161.3179,216.03068 161.46605,214.67894 161.35354,213.12427 C 161.14899,210.2976 161.14899,210.2976 162.20629,212.61904 C 162.7878,213.89583 163.09071,215.62639 162.87942,216.46473 C 162.37405,218.46992 163.75192,221.21322 164.597,219.88438 C 165.01276,219.23062 165.18703,219.52273 165.19429,220.88553 C 165.20243,222.41415 166.32482,223.88709 170.65349,228.04974 C 176.08739,233.27525 176.70427,234.37714 172.90058,232.06361 z M 173.99387,229.48752 C 171.4863,226.56611 169.93024,223.03002 170.77989,222.1839 C 170.97181,221.99278 171.64891,222.83894 172.28456,224.06426 C 174.56942,228.46876 176.78901,231.36759 177.2759,230.58307 C 177.57789,230.09648 177.90294,230.05774 178.16333,230.4773 C 179.81825,233.1439 176.44495,232.3431 173.99387,229.48752 z M 169.5975,225.48781 C 169.23433,224.538 169.31119,224.46146 169.97213,225.11474 C 170.42949,225.56681 170.63511,226.10456 170.42906,226.30975 C 170.22301,226.51494 169.84881,226.14507 169.5975,225.48781 z M 167.6613,222.53134 C 167.10363,221.66744 166.17214,219.836 165.59133,218.46147 C 165.01052,217.08694 164.08359,214.90251 163.53148,213.60718 C 162.97938,212.31185 162.52765,210.92559 162.52765,210.52661 C 162.52765,209.54443 164.52905,211.20893 164.55405,212.2119 C 164.60057,214.07702 168.42322,221.4549 168.70905,220.23125 C 168.95018,219.199 169.10426,219.31348 169.53224,220.8428 C 170.26518,223.46185 168.9994,224.60422 167.6613,222.53134 z M 164.857,195.92863 C 164.61286,195.16261 164.57115,194.37848 164.7643,194.18612 C 165.32264,193.63011 166.54298,194.62483 166.54298,195.63596 C 166.54298,197.19271 165.32715,197.40377 164.857,195.92863 z M 101.50777,143.16541 C 100.57095,140.71015 100.24337,138.50047 100.40092,135.69907 C 100.64884,131.29087 100.8978,131.5732 94.454239,128.95533 C 92.900844,128.32422 91.12256,127.2496 90.502497,126.56729 C 89.061878,124.98205 89.643206,125.00281 93.086685,126.6596 C 96.145866,128.13149 97.237407,128.33799 96.609373,127.32604 C 95.96026,126.28012 98.492118,126.5468 100.14287,127.69822 C 101.55491,128.68314 101.6674,128.64389 102.31817,126.93936 C 102.69561,125.95074 102.92071,125.08528 102.8184,125.01612 C 102.71608,124.94695 101.3345,124.26757 99.748215,123.50637 C 98.161934,122.74517 97.174354,121.93141 97.553594,121.698 C 97.932833,121.46459 99.183398,121.75784 100.33263,122.34966 C 101.48186,122.94147 102.55402,123.29436 102.71521,123.13384 C 103.3202,122.53136 104.19189,118.66234 103.72263,118.66234 C 103.45348,118.66234 101.31936,115.80903 98.980141,112.32166 C 94.295762,105.33804 89.895996,100.13411 90.536384,102.33461 C 90.934869,103.70388 90.087362,102.91441 88.365596,100.31248 C 88.114743,99.933392 84.898004,97.710932 81.217288,95.373672 C 71.517897,89.214563 66.423383,85.410027 65.450003,83.598812 C 64.979862,82.723999 64.219461,82.008243 63.760223,82.008243 C 63.300985,82.008243 62.824861,81.78332 62.70217,81.508414 C 62.57948,81.233509 60.6722,80.528898 58.46377,79.942614 C 56.255341,79.356329 53.846145,78.658418 53.110001,78.391701 C 52.294375,78.096185 52.76448,78.811361 54.313503,80.222598 C 55.711571,81.49631 57.842585,82.722855 59.049089,82.948255 C 61.374418,83.382676 64.058132,84.989768 63.457344,85.588058 C 63.260395,85.784189 61.029697,85.196573 58.500237,84.282248 C 55.721433,83.27779 53.659039,82.861009 53.289318,83.229192 C 52.099788,84.413776 60.926305,88.672625 64.5709,88.672625 C 65.444802,88.672625 66.159813,88.798046 66.159813,88.951339 C 66.159813,89.10463 66.326896,89.66365 66.531107,90.193604 C 66.789974,90.865392 66.269948,91.283122 64.813701,91.573162 C 62.588734,92.016302 62.648127,93.337692 64.893014,93.337692 C 66.309753,93.337692 71.276741,96.305422 76.481005,100.2614 C 78.222168,101.58494 80.304352,102.66783 81.108081,102.66783 C 81.91181,102.66783 83.430255,103.46273 84.482402,104.43428 C 85.53455,105.40583 87.278005,106.38049 88.356749,106.60021 C 89.435492,106.81991 90.315105,107.29957 90.311445,107.66611 C 90.300625,108.74958 87.376719,108.87605 86.605983,107.82639 C 86.215876,107.2951 85.194976,106.63862 84.337316,106.36754 C 80.764444,105.23827 92.424666,119.37542 96.274763,120.8408 C 97.105168,121.15686 97.086646,121.23195 96.167552,121.27548 C 94.835023,121.33858 88.24411,116.28783 88.24411,115.20358 C 88.24411,114.78447 88.040589,114.64424 87.791841,114.89195 C 87.543094,115.13967 86.639645,114.68753 85.784178,113.8872 C 84.928711,113.08688 84.228783,112.76025 84.228783,113.16136 C 84.228783,114.48208 91.624068,120.4856 95.829582,122.57893 C 98.742673,124.02895 99.494038,124.6367 98.385682,124.64646 C 97.035168,124.65835 93.289225,123.033 92.259436,121.98829 C 91.19822,120.91171 86.236446,118.06828 86.236446,118.53672 C 86.236446,119.56641 92.894176,124.66029 94.240001,124.66029 C 94.622977,124.66029 94.936321,124.98039 94.936321,125.37163 C 94.936321,126.15854 93.009056,125.70698 90.117701,124.24263 C 87.597026,122.96603 87.407738,123.07324 88.497949,125.16011 C 89.965154,127.96862 92.698534,130.2109 96.152794,131.43963 C 98.96994,132.44172 99.083588,132.55707 97.278595,132.58228 C 96.17438,132.5977 94.518058,132.18172 93.597879,131.65789 C 90.741517,130.03183 90.49929,130.5624 93.117006,132.71117 C 94.492539,133.84028 95.437792,135.05444 95.217569,135.40928 C 94.974076,135.80162 94.404476,135.71532 93.76408,135.18905 C 92.545531,134.18766 92.621186,134.40858 95.179377,139.32193 C 99.072068,146.79835 104.04675,149.81967 101.50777,143.16541 z M 91.255605,115.99659 C 91.028124,115.63005 91.293727,115.33015 91.845835,115.33015 C 92.397942,115.33015 93.035787,115.63005 93.263268,115.99659 C 93.490749,116.36313 93.225145,116.66303 92.673038,116.66303 C 92.12093,116.66303 91.483086,116.36313 91.255605,115.99659 z M 91.924826,113.33084 C 91.697345,112.9643 91.830147,112.6644 92.219941,112.6644 C 92.609735,112.6644 92.928657,112.9643 92.928657,113.33084 C 92.928657,113.69738 92.795856,113.99727 92.633542,113.99727 C 92.471229,113.99727 92.152307,113.69738 91.924826,113.33084 z M 88.913331,111.66474 C 88.448602,111.10711 88.376136,110.66509 88.749446,110.66509 C 89.117517,110.66509 89.793565,111.11493 90.251773,111.66474 C 90.716502,112.22238 90.788967,112.6644 90.415658,112.6644 C 90.047586,112.6644 89.371539,112.21455 88.913331,111.66474 z M 180.59662,72.662224 C 180.59662,71.879509 177.92502,70.451391 177.41357,70.96071 C 177.19822,71.175159 177.60045,71.91085 178.30741,72.595578 C 179.57131,73.819732 180.59662,73.849581 180.59662,72.662224 z M 169.55447,55.350713 C 171.89861,52.914139 170.79923,52.762522 167.1989,55.025855 C 164.12757,56.956636 163.93873,57.350028 166.08316,57.350028 C 166.93448,57.350028 168.49657,56.450336 169.55447,55.350713 z"
         style="fill:#000000" />
    </g>
  </g>
</svg>
