<?xml version="1.0" encoding="UTF-8" standalone="no"?>
<!-- Created with Inkscape (http://www.inkscape.org/) -->
<svg
   xmlns:dc="http://purl.org/dc/elements/1.1/"
   xmlns:cc="http://creativecommons.org/ns#"
   xmlns:rdf="http://www.w3.org/1999/02/22-rdf-syntax-ns#"
   xmlns:svg="http://www.w3.org/2000/svg"
   xmlns="http://www.w3.org/2000/svg"
   xmlns:sodipodi="http://sodipodi.sourceforge.net/DTD/sodipodi-0.dtd"
   xmlns:inkscape="http://www.inkscape.org/namespaces/inkscape"
   width="200"
   height="246.00002"
   id="svg2"
   sodipodi:version="0.32"
   inkscape:version="0.46"
   version="1.0"
   sodipodi:docname="horse_rampant.svg"
   inkscape:output_extension="org.inkscape.output.svg.inkscape">
  <defs
     id="defs4">
    <inkscape:perspective
       sodipodi:type="inkscape:persp3d"
       inkscape:vp_x="0 : 526.18109 : 1"
       inkscape:vp_y="0 : 1000 : 0"
       inkscape:vp_z="744.09448 : 526.18109 : 1"
       inkscape:persp3d-origin="372.04724 : 350.78739 : 1"
       id="perspective10" />
    <inkscape:perspective
       id="perspective8826"
       inkscape:persp3d-origin="372.04724 : 350.78739 : 1"
       inkscape:vp_z="744.09448 : 526.18109 : 1"
       inkscape:vp_y="0 : 1000 : 0"
       inkscape:vp_x="0 : 526.18109 : 1"
       sodipodi:type="inkscape:persp3d" />
    <inkscape:perspective
       sodipodi:type="inkscape:persp3d"
       inkscape:vp_x="0 : 526.18109 : 1"
       inkscape:vp_y="0 : 1000 : 0"
       inkscape:vp_z="744.09448 : 526.18109 : 1"
       inkscape:persp3d-origin="372.04724 : 350.78739 : 1"
       id="perspective2459" />
    <inkscape:perspective
       sodipodi:type="inkscape:persp3d"
       inkscape:vp_x="0 : 526.18109 : 1"
       inkscape:vp_y="0 : 1000 : 0"
       inkscape:vp_z="744.09448 : 526.18109 : 1"
       inkscape:persp3d-origin="372.04724 : 350.78739 : 1"
       id="perspective2410" />
    <inkscape:perspective
       id="perspective2425"
       inkscape:persp3d-origin="372.04724 : 350.78739 : 1"
       inkscape:vp_z="744.09448 : 526.18109 : 1"
       inkscape:vp_y="0 : 1000 : 0"
       inkscape:vp_x="0 : 526.18109 : 1"
       sodipodi:type="inkscape:persp3d" />
    <inkscape:perspective
       id="perspective3257"
       inkscape:persp3d-origin="372.04724 : 350.78739 : 1"
       inkscape:vp_z="744.09448 : 526.18109 : 1"
       inkscape:vp_y="0 : 1000 : 0"
       inkscape:vp_x="0 : 526.18109 : 1"
       sodipodi:type="inkscape:persp3d" />
    <inkscape:perspective
       id="perspective2492"
       inkscape:persp3d-origin="372.04724 : 350.78739 : 1"
       inkscape:vp_z="744.09448 : 526.18109 : 1"
       inkscape:vp_y="0 : 1000 : 0"
       inkscape:vp_x="0 : 526.18109 : 1"
       sodipodi:type="inkscape:persp3d" />
    <inkscape:perspective
       id="perspective3181"
       inkscape:persp3d-origin="372.04724 : 350.78739 : 1"
       inkscape:vp_z="744.09448 : 526.18109 : 1"
       inkscape:vp_y="0 : 1000 : 0"
       inkscape:vp_x="0 : 526.18109 : 1"
       sodipodi:type="inkscape:persp3d" />
    <inkscape:perspective
       id="perspective3085"
       inkscape:persp3d-origin="372.04724 : 350.78739 : 1"
       inkscape:vp_z="744.09448 : 526.18109 : 1"
       inkscape:vp_y="0 : 1000 : 0"
       inkscape:vp_x="0 : 526.18109 : 1"
       sodipodi:type="inkscape:persp3d" />
    <inkscape:perspective
       id="perspective3009"
       inkscape:persp3d-origin="372.04724 : 350.78739 : 1"
       inkscape:vp_z="744.09448 : 526.18109 : 1"
       inkscape:vp_y="0 : 1000 : 0"
       inkscape:vp_x="0 : 526.18109 : 1"
       sodipodi:type="inkscape:persp3d" />
    <inkscape:perspective
       id="perspective2933"
       inkscape:persp3d-origin="372.04724 : 350.78739 : 1"
       inkscape:vp_z="744.09448 : 526.18109 : 1"
       inkscape:vp_y="0 : 1000 : 0"
       inkscape:vp_x="0 : 526.18109 : 1"
       sodipodi:type="inkscape:persp3d" />
  </defs>
  <sodipodi:namedview
     id="base"
     pagecolor="#ffffff"
     bordercolor="#666666"
     borderopacity="1.0"
     gridtolerance="10000"
     guidetolerance="10"
     objecttolerance="10"
     inkscape:pageopacity="0.0"
     inkscape:pageshadow="2"
     inkscape:zoom="2.9878047"
     inkscape:cx="100"
     inkscape:cy="123.00001"
     inkscape:document-units="px"
     inkscape:current-layer="layer1"
     showgrid="false"
     inkscape:window-width="1679"
     inkscape:window-height="963"
     inkscape:window-x="1"
     inkscape:window-y="57" />
  <metadata
     id="metadata7">
    <rdf:RDF>
      <cc:Work
         rdf:about="">
        <dc:format>image/svg+xml</dc:format>
        <dc:type
           rdf:resource="http://purl.org/dc/dcmitype/StillImage" />
      </cc:Work>
    </rdf:RDF>
  </metadata>
  <g
     inkscape:label="Layer 1"
     inkscape:groupmode="layer"
     id="layer1"
     transform="translate(-324.50614,-244.28462)">
    <g
       id="g2602"
       transform="translate(274.50614,217.28463)">
      <path
         id="path5839"
         d="M 137.38019,272.67151 C 134.95042,271.75962 135.17688,270.62965 138.2833,268.16542 C 139.74646,267.00474 142.85696,264.26347 145.19553,262.07372 C 149.23445,258.2918 149.86836,257.95236 157.84913,255.29812 C 175.89357,249.29691 179.97978,244.5 171.07753,239.76895 C 163.64373,235.8183 157.37815,228.61269 157.35449,223.98702 C 157.35105,223.31579 156.66077,221.59253 155.82052,220.15755 C 153.6401,216.4338 152.23642,211.2155 152.23642,206.83334 C 152.23642,203.64694 152.07727,203.11243 151.22569,203.43883 C 150.6698,203.65191 149.84449,203.82624 149.39168,203.82624 C 145.74057,203.82624 137.61682,212.51493 137.56672,216.47353 C 137.50141,221.63425 136.17287,222.12204 119.00959,223.28699 C 111.45367,223.79984 101.91336,224.5437 97.808889,224.94 C 90.346213,225.66056 90.346213,225.66056 88.163911,223.99795 C 84.593601,221.27786 82.281125,221.69223 80.523506,225.367 C 78.793907,228.98318 74.325788,229.79974 68.2761,227.60525 C 62.370272,225.46294 62.980856,222.9884 69.980548,220.69759 C 71.818723,220.096 75.191693,218.67822 77.476038,217.54695 C 81.396938,215.60522 82.237353,215.45086 92.492013,214.78883 C 101.22856,214.22481 116.70562,211.99569 117.60347,211.17209 C 117.7087,211.07556 117.11788,210.00024 116.29054,208.78248 C 112.15567,202.69642 112.80233,195.82485 118.09953,189.55946 C 119.62706,187.75274 121.93148,184.33309 123.22048,181.96024 C 127.50959,174.0646 131.71525,171.91401 142.86677,171.91401 C 151.22293,171.91401 147.99039,168.31621 136.26198,164.56293 C 124.05491,160.65647 102.14614,145.45232 97.628349,137.75213 C 96.352573,135.57768 95.434774,134.79486 93.595379,134.31229 C 81.791204,131.21541 75.101523,129.7662 73.946634,130.05573 C 68.490354,131.4236 62.599919,144.61663 62.666782,155.31965 C 62.695065,159.84688 62.494722,160.96383 61.456256,162.06863 C 59.981712,163.63736 60.643978,166.48429 63.201152,169.56957 C 65.285068,172.08384 65.237256,176.71238 63.080323,181.26653 C 60.763482,186.15832 59.8242,185.81929 56.510808,178.8953 C 50.405912,166.13793 50.652154,160.53804 58.28415,138.56693 C 59.35087,135.49604 60.225246,132.19312 60.227206,131.22712 C 60.24739,121.27862 66.699907,117.89353 86.010856,117.70061 C 89.292603,117.66782 89.700962,117.52688 89.327877,116.55575 C 87.583535,112.01529 86.815806,102.92753 87.713765,97.449222 C 88.716288,91.332982 88.814739,85.185762 87.934254,83.682022 C 86.588914,81.384362 72.952068,70.718052 69.605042,69.345482 C 67.767544,68.591952 66.680368,67.486642 65.200496,64.867452 C 63.308778,61.519362 63.155716,61.404882 61.088671,61.792222 C 56.43319,62.664592 50,55.670122 50,49.736082 C 50,45.815102 51.532635,45.912042 57.912482,50.236552 C 59.120804,51.055602 61.872739,52.384412 64.027894,53.189452 C 67.094816,54.335092 68.636661,55.431562 71.122867,58.235002 C 72.869948,60.205002 76.139626,63.109262 78.388818,64.688922 C 87.006398,70.741232 97.120319,78.659242 97.501756,79.652112 C 97.720792,80.222252 98.619183,84.197222 99.498182,88.485382 C 102.20019,101.66701 102.35297,102.01478 103.7096,98.071992 C 107.5582,86.886822 115.84652,78.574382 127.18254,74.530712 C 142.47071,69.077272 142.02374,69.439972 136.77135,66.749522 C 132.61806,64.622072 124.77069,63.761452 123.80192,65.327162 C 122.97895,66.657232 117.48126,65.970812 113.57827,64.050682 C 111.46965,63.013302 108.95367,62.158112 107.98722,62.150242 C 105.07097,62.126512 105.88255,60.324072 109.58467,58.602472 C 112.33823,57.321972 113.94784,57.041342 118.56806,57.036222 C 122.15638,57.032242 124.05367,56.798622 123.80192,56.391742 C 123.58139,56.035332 120.59513,55.753502 117.03913,55.753502 C 110.83467,55.753502 110.65566,55.712552 110.0639,54.157882 C 109.72986,53.280302 109.16189,52.562272 108.80176,52.562272 C 106.95988,52.562272 108.24922,48.864362 110.80694,46.811282 C 113.46691,44.676122 113.46691,44.676122 121.8293,44.597602 C 128.72041,44.532902 130.85967,44.273092 133.9883,43.120902 C 138.88761,41.316632 140.07647,40.220432 136.51812,40.788262 C 131.24758,41.629302 126.91697,37.646972 128.80395,33.694482 C 130.04733,31.090082 131.78914,30.749982 131.78914,33.111612 C 131.78914,34.254082 132.26612,34.904162 133.42818,35.345472 C 135.81543,36.252062 137.36584,36.176962 136.38978,35.202022 C 132.97578,31.791942 140.88313,24.922452 145.12979,27.609152 C 146.13116,28.242682 145.56039,29.585472 144.28973,29.585472 C 140.92969,29.585472 142.16601,34.319012 145.78858,35.324152 C 150.19483,36.546742 151.27539,35.982372 151.27705,32.457572 C 151.27805,30.346752 153.81009,29.295382 154.87003,30.965682 C 155.28603,31.621232 155.41401,31.560132 155.42153,30.702402 C 155.42691,30.088082 155.71885,29.585472 156.07029,29.585472 C 156.42173,29.585472 156.70927,29.154652 156.70927,28.628102 C 156.70927,28.101552 157.14858,27.670732 157.68553,27.670732 C 158.50474,27.670732 158.59334,28.338112 158.23626,31.819322 C 157.7241,36.812672 157.86368,36.861392 160.83723,32.727182 C 163.88101,28.495322 165.37382,29.178352 164.70836,34.498412 C 164.25176,38.148682 164.38946,38.417272 165.92902,36.879472 C 166.66569,36.143642 166.82638,35.208142 166.53197,33.369132 C 166.10688,30.713782 166.60665,30.301062 168.81663,31.482452 C 169.55035,31.874672 170.13921,33.181002 170.41732,35.033432 C 170.78305,37.469472 171.01038,37.837002 171.76469,37.211702 C 173.67652,35.626842 178.24719,37.087202 182.00013,40.481982 C 185.08324,43.270862 185.62291,43.538082 186.75096,42.834402 C 189.87415,40.886182 191.38842,44.478272 189.36759,49.041452 C 188.07787,51.953742 188.07787,51.953742 189.64596,54.261812 C 191.31937,56.724892 191.64936,59.492682 190.52075,61.599102 C 189.06121,64.323142 192.18843,68.622912 194.87907,67.591602 C 195.88516,67.205972 195.84557,67.047812 194.48664,66.023952 C 192.42417,64.470012 194.48842,63.537682 196.7354,65.008282 C 199.29636,66.684362 197.32511,71.414262 193.7696,72.124542 C 192.71549,72.335122 191.85304,72.596422 191.85304,72.705212 C 191.85304,72.813992 192.12215,73.610002 192.45106,74.474122 C 192.88106,75.603802 192.797,76.377612 192.15189,77.228212 C 191.65843,77.878842 191.24556,79.499662 191.23438,80.830022 C 191.2232,82.160392 190.63898,84.374822 189.9361,85.750992 C 188.42037,88.718662 188.33787,90.301712 189.57448,92.690302 C 191.52632,96.460402 193.32505,96.627512 194.62878,93.159862 C 195.19443,91.655322 197.14658,94.514542 196.71806,96.219932 C 196.1114,98.634322 193.56317,100.00523 189.57603,100.06226 C 186.45557,100.10689 186.06629,100.27353 185.41035,101.8455 C 185.01239,102.79921 184.28642,103.91142 183.79707,104.31707 C 181.49167,106.22818 183.74169,110.34841 186.23976,108.79013 C 187.6898,107.88561 188.83305,108.80636 188.22503,110.38903 C 187.38284,112.58124 179.76976,114.83716 178.75399,113.19551 C 178.24036,112.36538 175.87859,112.36538 175.87859,113.19551 C 175.87859,113.54654 175.47804,113.83375 174.98849,113.83375 C 174.49893,113.83375 173.92588,114.28277 173.71505,114.83157 C 173.50421,115.38037 173.04214,115.65063 172.68822,115.43215 C 172.31744,115.20325 172.04473,115.7589 172.04473,116.74327 C 172.04473,118.42983 167.86392,123.40742 166.44734,123.40742 C 166.09759,123.40742 165.45348,123.83824 165.01597,124.36479 C 164.57847,124.89134 163.39311,125.32216 162.38183,125.32216 C 160.01478,125.32216 160.00989,125.2998 163.54803,130.6614 C 168.52763,138.20738 172.83049,143.25655 179.41229,149.27724 C 188.35692,157.45933 195.82558,166.05322 198.38044,171.10315 C 201.01896,176.31842 204.14164,177.38766 207.20875,174.12605 C 210.57133,170.55023 208.86821,164.87511 202.27045,157.67076 C 195.86744,150.67906 195.66054,148.28329 200.63195,138.69801 C 203.61696,132.94268 203.71728,131.06636 201.03997,131.06636 C 199.6624,131.06636 200.00213,130.00635 201.84336,128.5597 C 203.79465,127.02658 205.7982,126.84007 206.29949,128.14491 C 206.96604,129.87991 208.62385,129.80602 211.48379,127.91386 C 219.13654,122.85069 237.22045,128.51383 237.22045,135.97351 C 237.22045,136.56422 238.38321,138.42492 239.80436,140.10839 C 247.54754,149.2808 250.59831,166.1088 246.90109,179.25382 C 243.85236,190.09319 244.37376,194.40112 248.33677,191.11588 C 249.32368,190.29776 250,190.84172 250,192.4536 C 250,194.33595 246.31658,196.1622 242.51449,196.16492 C 239.72597,196.16692 239.05829,196.39884 238.42194,197.58649 C 238.00373,198.36705 236.2903,200.45391 234.61434,202.22396 C 226.40965,210.88926 225.54622,222.97358 233.13177,222.97358 C 235.21897,222.97358 237.85942,220.28657 237.85942,218.16257 C 237.85942,215.06811 239.44814,216.85258 239.63031,220.15164 C 240.37259,233.5941 215.20498,235.34466 210.52261,222.17626 C 209.92962,220.50858 209.09075,219.14411 208.65844,219.14411 C 204.69788,219.14411 205.95015,210.07782 210.57336,205.2803 C 213.03503,202.72582 213.11418,202.52416 212.09618,201.40057 C 209.26461,198.27532 212.15104,190.75101 217.61088,187.02494 C 227.24087,180.45296 231.78703,170.44787 227.95636,164.25684 C 227.22341,163.07226 225.07987,165.49554 225.07987,167.50871 C 225.07987,178.26239 207.0578,193.03972 202.20653,186.26387 C 200.19115,183.44896 199.73109,184.02244 200.01397,188.99698 C 200.60041,199.30998 197.47482,207.34558 189.52099,215.9734 C 186.23758,219.53505 184.82428,221.55948 184.82428,222.70105 C 184.82428,223.59916 184.53897,224.86648 184.19026,225.51731 C 182.54588,228.58633 186.50926,236.15731 191.3738,239.2396 C 195.44437,241.8188 192.60354,246.79409 185.00387,250.39557 C 177.12252,254.13055 171.05927,257.81266 166.74537,261.48367 C 163.20308,264.49804 162.84488,264.64774 158.43866,264.95511 C 153.39088,265.30722 153.18373,265.45419 152.15043,269.41672 C 151.75984,270.91459 151.25997,272.24259 151.03962,272.36784 C 149.91338,273.00802 138.92757,273.25225 137.38019,272.67151 z"
         style="fill:#ffff00;fill-opacity:1" />
      <path
         id="path2937"
         d="M 137.38019,272.67151 C 134.95042,271.75961 135.17688,270.62964 138.2833,268.16541 C 139.74646,267.00473 142.85696,264.26347 145.19553,262.07371 C 149.23445,258.2918 149.86836,257.95235 157.84913,255.29812 C 175.89357,249.29691 179.97978,244.49999 171.07753,239.76895 C 163.64373,235.8183 157.37815,228.61268 157.35449,223.98702 C 157.35105,223.31579 156.66077,221.59253 155.82052,220.15755 C 153.6401,216.43379 152.23642,211.2155 152.23642,206.83333 C 152.23642,203.64694 152.07727,203.11242 151.22569,203.43883 C 150.6698,203.6519 149.84449,203.82624 149.39168,203.82624 C 145.74057,203.82624 137.61682,212.51493 137.56672,216.47352 C 137.50141,221.63424 136.17287,222.12203 119.00958,223.28698 C 111.45367,223.79984 101.91336,224.54369 97.80889,224.94 C 90.346213,225.66056 90.346213,225.66056 88.163911,223.99794 C 84.593601,221.27786 82.281125,221.69222 80.523506,225.36699 C 78.793907,228.98318 74.325788,229.79974 68.2761,227.60524 C 62.370272,225.46293 62.980856,222.9884 69.980548,220.69759 C 71.818723,220.096 75.191693,218.67821 77.476038,217.54694 C 81.396938,215.60522 82.237353,215.45085 92.492013,214.78882 C 101.22856,214.2248 116.70562,211.99568 117.60347,211.17209 C 117.7087,211.07556 117.11788,210.00024 116.29054,208.78248 C 112.15567,202.69641 112.80233,195.82484 118.09953,189.55945 C 119.62706,187.75273 121.93148,184.33308 123.22048,181.96024 C 127.50959,174.06459 131.71525,171.91401 142.86677,171.91401 C 151.22293,171.91401 147.99039,168.3162 136.26198,164.56292 C 124.05491,160.65647 102.14614,145.45231 97.62835,137.75212 C 96.35257,135.57767 95.43477,134.79485 93.59538,134.31228 C 81.791204,131.2154 75.101523,129.7662 73.946634,130.05572 C 68.490354,131.42359 62.599919,144.61663 62.666782,155.31965 C 62.695065,159.84687 62.494722,160.96383 61.456256,162.06862 C 59.981712,163.63735 60.643978,166.48429 63.201152,169.56956 C 65.285068,172.08384 65.237256,176.71238 63.080323,181.26653 C 60.763482,186.15831 59.8242,185.81928 56.510808,178.8953 C 50.405912,166.13792 50.652154,160.53804 58.28415,138.56692 C 59.35087,135.49603 60.225246,132.19311 60.227206,131.22711 C 60.24739,121.27861 66.699907,117.89352 86.010856,117.7006 C 89.292603,117.66782 89.700962,117.52687 89.327877,116.55575 C 87.583535,112.01528 86.815806,102.92753 87.713765,97.449214 C 88.716288,91.332974 88.814739,85.185764 87.934254,83.682014 C 86.588914,81.384364 72.952068,70.718044 69.605042,69.345484 C 67.767544,68.591944 66.680368,67.486634 65.200496,64.867454 C 63.308778,61.519356 63.155716,61.404886 61.088671,61.792216 C 56.43319,62.664586 50,55.670117 50,49.736082 C 50,45.815096 51.532635,45.912036 57.912482,50.23655 C 59.120804,51.055599 61.872739,52.384406 64.027894,53.189456 C 67.094816,54.335092 68.636661,55.431566 71.122867,58.235006 C 72.869948,60.205006 76.139626,63.109266 78.388818,64.688914 C 87.006398,70.741224 97.12032,78.659244 97.50176,79.652114 C 97.72079,80.222254 98.61918,84.197224 99.49818,88.485374 C 102.20019,101.667 102.35297,102.01477 103.7096,98.071984 C 107.5582,86.886824 115.84652,78.574374 127.18254,74.530704 C 142.47071,69.077274 142.02374,69.439974 136.77135,66.749524 C 132.61806,64.622074 124.77069,63.761456 123.80192,65.327164 C 122.97895,66.657234 117.48126,65.970814 113.57827,64.050676 C 111.46965,63.013306 108.95367,62.158106 107.98722,62.150246 C 105.07097,62.126506 105.88255,60.324076 109.58466,58.602466 C 112.33823,57.321976 113.94784,57.041338 118.56806,57.036221 C 122.15638,57.032246 124.05367,56.79862 123.80192,56.391741 C 123.58139,56.035328 120.59512,55.753496 117.03912,55.753496 C 110.83466,55.753496 110.65566,55.712549 110.0639,54.157885 C 109.72986,53.280299 109.16189,52.562273 108.80176,52.562273 C 106.95988,52.562273 108.24922,48.864365 110.80694,46.811285 C 113.46691,44.676125 113.46691,44.676125 121.8293,44.597604 C 128.72041,44.532898 130.85967,44.273087 133.9883,43.120906 C 138.88761,41.316633 140.07647,40.220433 136.51812,40.788257 C 131.24758,41.629301 126.91697,37.64697 128.80395,33.69448 C 130.04733,31.090077 131.78914,30.749982 131.78914,33.111611 C 131.78914,34.254082 132.26612,34.904158 133.42818,35.345467 C 135.81543,36.252059 137.36584,36.176964 136.38978,35.20202 C 132.97578,31.791945 140.88313,24.922449 145.12979,27.60915 C 146.13116,28.242681 145.56039,29.585468 144.28973,29.585468 C 140.92969,29.585468 142.16601,34.319011 145.78858,35.32415 C 150.19483,36.546738 151.27539,35.982375 151.27705,32.457569 C 151.27805,30.346749 153.81009,29.295385 154.87003,30.965677 C 155.28603,31.621229 155.41401,31.560133 155.42153,30.702396 C 155.42691,30.088086 155.71885,29.585468 156.07029,29.585468 C 156.42173,29.585468 156.70927,29.154653 156.70927,28.628101 C 156.70927,28.101549 157.14858,27.670734 157.68553,27.670734 C 158.50474,27.670734 158.59334,28.338115 158.23626,31.819324 C 157.7241,36.812673 157.86368,36.861394 160.83723,32.727181 C 163.88101,28.495316 165.37382,29.178348 164.70836,34.498409 C 164.25176,38.148677 164.38946,38.417268 165.92902,36.879474 C 166.66569,36.143646 166.82638,35.208142 166.53197,33.369129 C 166.10688,30.713782 166.60665,30.301063 168.81663,31.482449 C 169.55035,31.874675 170.13921,33.181003 170.41732,35.03343 C 170.78305,37.469467 171.01038,37.837 171.76469,37.211701 C 173.67652,35.626846 178.24719,37.087202 182.00013,40.481983 C 185.08324,43.270857 185.62291,43.538079 186.75096,42.834403 C 189.87415,40.886179 191.38842,44.478273 189.36759,49.041455 C 188.07787,51.953743 188.07787,51.953743 189.64596,54.261807 C 191.31937,56.724887 191.64936,59.492686 190.52075,61.599106 C 189.06121,64.323136 192.18843,68.622914 194.87907,67.591594 C 195.88516,67.205964 195.84557,67.047814 194.48664,66.023944 C 192.42417,64.470016 194.48842,63.537686 196.7354,65.008274 C 199.29636,66.684354 197.32511,71.414254 193.7696,72.124544 C 192.71549,72.335124 191.85304,72.596424 191.85304,72.705204 C 191.85304,72.813994 192.12215,73.610004 192.45106,74.474114 C 192.88106,75.603804 192.797,76.377614 192.15189,77.228204 C 191.65843,77.878844 191.24556,79.499654 191.23438,80.830024 C 191.2232,82.160384 190.63898,84.374824 189.9361,85.750994 C 188.42037,88.718664 188.33787,90.301714 189.57448,92.690294 C 191.52632,96.460404 193.32505,96.627504 194.62878,93.159854 C 195.19443,91.655324 197.14658,94.514534 196.71806,96.219934 C 196.1114,98.634314 193.56317,100.00523 189.57603,100.06225 C 186.45557,100.10689 186.06629,100.27353 185.41035,101.8455 C 185.01239,102.79921 184.28642,103.91141 183.79707,104.31707 C 181.49167,106.22818 183.74169,110.34841 186.23976,108.79013 C 187.6898,107.8856 188.83305,108.80636 188.22503,110.38902 C 187.38284,112.58123 179.76976,114.83716 178.75399,113.1955 C 178.24036,112.36538 175.87859,112.36538 175.87859,113.1955 C 175.87859,113.54654 175.47804,113.83375 174.98849,113.83375 C 174.49893,113.83375 173.92588,114.28276 173.71505,114.83157 C 173.50421,115.38037 173.04214,115.65062 172.68822,115.43215 C 172.31744,115.20325 172.04473,115.7589 172.04473,116.74327 C 172.04473,118.42982 167.86392,123.40742 166.44734,123.40742 C 166.09759,123.40742 165.45348,123.83823 165.01597,124.36478 C 164.57847,124.89133 163.39311,125.32215 162.38183,125.32215 C 160.01478,125.32215 160.00989,125.2998 163.54803,130.6614 C 168.52763,138.20738 172.83049,143.25655 179.41229,149.27723 C 188.35692,157.45932 195.82558,166.05321 198.38044,171.10314 C 201.01896,176.31842 204.14164,177.38765 207.20875,174.12604 C 210.57133,170.55022 208.86821,164.87511 202.27045,157.67075 C 195.86744,150.67906 195.66054,148.28328 200.63195,138.69801 C 203.61696,132.94268 203.71728,131.06635 201.03997,131.06635 C 199.6624,131.06635 200.00213,130.00634 201.84336,128.5597 C 203.79465,127.02657 205.7982,126.84007 206.29949,128.1449 C 206.96604,129.8799 208.62385,129.80602 211.48379,127.91385 C 219.13654,122.85069 237.22045,128.51382 237.22045,135.97351 C 237.22045,136.56422 238.38321,138.42491 239.80436,140.10838 C 247.54754,149.28079 250.59831,166.10879 246.90109,179.25382 C 243.85236,190.09318 244.37376,194.40111 248.33677,191.11587 C 249.32368,190.29775 250,190.84171 250,192.45359 C 250,194.33595 246.31658,196.16219 242.51449,196.16491 C 239.72597,196.16691 239.05829,196.39884 238.42194,197.58649 C 238.00373,198.36704 236.2903,200.4539 234.61434,202.22395 C 226.40965,210.88925 225.54622,222.97357 233.13177,222.97357 C 235.21897,222.97357 237.85942,220.28656 237.85942,218.16256 C 237.85942,215.06811 239.44814,216.85257 239.63031,220.15164 C 240.37259,233.59409 215.20498,235.34466 210.52261,222.17626 C 209.92962,220.50858 209.09075,219.14411 208.65844,219.14411 C 204.69788,219.14411 205.95015,210.07782 210.57336,205.28029 C 213.03503,202.72581 213.11418,202.52416 212.09618,201.40057 C 209.26461,198.27531 212.15104,190.751 217.61088,187.02494 C 227.24087,180.45295 231.78703,170.44787 227.95636,164.25683 C 227.22341,163.07226 225.07987,165.49553 225.07987,167.5087 C 225.07987,178.26238 207.0578,193.03972 202.20653,186.26387 C 200.19115,183.44896 199.73109,184.02244 200.01397,188.99697 C 200.60041,199.30997 197.47482,207.34557 189.52099,215.9734 C 186.23758,219.53504 184.82428,221.55947 184.82428,222.70104 C 184.82428,223.59915 184.53897,224.86648 184.19026,225.5173 C 182.54588,228.58632 186.50926,236.15731 191.3738,239.23959 C 195.44437,241.81879 192.60354,246.79408 185.00387,250.39557 C 177.12252,254.13054 171.05927,257.81265 166.74537,261.48366 C 163.20308,264.49803 162.84488,264.64773 158.43866,264.9551 C 153.39088,265.30721 153.18373,265.45419 152.15043,269.41672 C 151.75984,270.91458 151.25997,272.24258 151.03962,272.36784 C 149.91338,273.00801 138.92757,273.25225 137.38019,272.67151 z M 149.95959,270.13738 C 150.6046,269.53927 148.28976,266.71216 146.26088,265.62015 C 145.33978,265.12439 144.70279,265.3237 143.38548,266.51987 C 142.45477,267.36498 140.89339,268.55218 139.91574,269.15809 C 137.01279,270.95723 138.4012,271.60196 144.15099,271.12479 C 147.0165,270.88698 149.63038,270.44265 149.95959,270.13738 z M 150.96282,265.40539 C 151.79958,263.20708 154.51483,262.21731 157.14643,263.15133 C 159.69333,264.05528 162.50242,263.00812 166.06362,259.82721 C 168.85183,257.33674 176.36901,252.90484 183.66686,249.44888 C 190.56472,246.18234 193.2201,241.82926 189.30335,240.20875 C 184.95015,238.40767 180.83445,229.86638 182.25219,225.57552 C 183.24243,222.57849 182.74339,221.58413 180.47202,222.02854 C 178.78676,222.35827 178.7831,222.35201 180.27985,221.69976 C 181.72871,221.06838 181.75079,220.97421 180.71746,219.83371 C 179.95523,218.99242 179.84584,218.49885 180.35233,218.18619 C 180.75004,217.94067 181.46843,218.27117 181.94876,218.92063 C 183.00024,220.34238 186.04083,217.74445 191.00538,211.18251 C 195.9704,204.61993 196.51304,203.15824 195.07319,200.22497 C 193.86464,197.76291 193.86464,197.76291 193.21883,199.35852 C 192.57302,200.95413 192.57302,200.95413 192.53252,199.32661 C 192.51024,198.43147 192.15176,197.35922 191.73589,196.94383 C 190.66993,195.87909 191.61502,195.17545 192.79606,196.1545 C 193.95932,197.11881 194.0345,196.6611 193.03123,194.72259 C 190.98257,190.76418 190.88585,190.4231 191.81203,190.4231 C 192.64861,190.4231 196.32588,197.822 196.32588,199.50526 C 196.32588,200.60778 196.4876,200.72878 197.11868,200.09841 C 199.4798,197.74001 197.29123,178.29645 194.66466,178.29645 C 193.81907,178.29645 190.57508,174.05638 190.57508,172.95116 C 190.57508,172.63146 192.05386,173.84697 193.86125,175.65229 C 195.66865,177.45761 197.55026,178.9347 198.04261,178.9347 C 198.53497,178.9347 198.89114,179.29371 198.83409,179.7325 C 198.60679,181.48089 198.96808,182.07508 201.03388,183.35035 C 202.41337,184.20194 204.26208,184.6789 206.18342,184.6789 C 207.94534,184.6789 209.02386,184.93262 208.79998,185.29445 C 208.5905,185.63301 209.43615,185.48555 210.6792,184.96676 C 211.92226,184.44798 212.9393,184.18217 212.9393,184.37608 C 212.9393,184.56997 213.56859,184.14301 214.33774,183.42727 C 215.10688,182.71153 215.92076,182.12592 216.14635,182.12592 C 217.90978,182.12592 222.65259,171.95141 223.49988,166.35077 C 223.77266,164.54769 224.76942,162.60066 226.52045,160.45058 C 229.2175,157.13887 230.48366,156.49836 228.57181,159.41286 C 227.42165,161.16622 228.20937,161.72325 229.55272,160.10648 C 229.99022,159.57993 230.66212,159.14911 231.04583,159.14911 C 231.42955,159.14911 231.29273,159.59936 230.74181,160.14965 C 229.96154,160.92902 229.8545,161.74025 230.25757,163.81956 C 232.31967,174.45738 230.00914,179.74329 220.09249,187.07457 C 215.32882,190.59631 214.35744,192.02613 213.73473,196.43285 C 213.43226,198.57335 213.5333,198.87409 214.43838,198.52718 C 215.12585,198.26367 215.49521,198.44969 215.49521,199.05943 C 215.49521,200.48586 216.6296,200.17757 217.12569,198.61631 C 217.52686,197.35379 217.61767,197.33106 218.1887,198.35026 C 218.70004,199.26293 217.8766,200.42297 213.63976,204.75868 C 208.46645,210.05271 208.46645,210.05271 208.46645,213.64104 C 208.46645,217.82496 209.3927,218.40609 210.00136,214.60405 C 210.44783,211.81517 213.028,207.60277 215.69165,205.31402 C 218.01496,203.31771 218.41218,204.34393 216.21124,206.65637 C 209.87454,213.3141 210.18682,223.01678 216.88871,227.70558 C 218.99385,229.1784 219.75464,228.94425 218.26591,227.28172 C 214.36615,222.92669 213.96544,214.07205 217.43784,208.98326 C 219.86488,205.42643 221.49119,204.48045 219.41765,207.83167 C 215.70671,213.82921 215.41615,215.70758 217.24662,221.86661 C 218.48615,226.03731 220.91882,228.44978 224.57124,229.13041 C 226.67732,229.52289 226.67732,229.52289 224.44089,227.99498 C 220.11073,225.03664 217.79213,215.69621 220.26341,211.16605 C 221.30794,209.25131 221.30794,209.25131 220.90534,212.14702 C 219.49833,222.26717 230.04788,231.51259 236.10219,225.46523 C 238.3853,223.18474 238.11613,222.51948 235.51389,224.01125 C 225.34103,229.84297 222.77894,213.40174 232.20804,202.79725 C 236.35092,198.13794 237.87877,195.43293 237.41308,193.58188 C 237.02417,192.03601 237.03477,192.0319 238.37077,193.20986 C 240.05162,194.6919 243.95948,195.03429 246.48971,193.92123 C 248.40256,193.07975 248.40256,193.07975 246.16613,193.02553 C 239.79967,192.87117 234.94305,186.50234 237.44291,181.58615 C 237.9167,180.6544 238.84103,178.78454 239.49698,177.43091 C 240.15293,176.07727 240.79886,175.2971 240.93237,175.69719 C 241.06589,176.09729 240.88298,176.77625 240.5259,177.20602 C 238.5377,179.5989 237.53303,186.63837 239.06017,187.47604 C 241.37459,188.74554 242.97157,188.45589 242.97853,186.76535 C 242.98254,185.79332 243.86282,182.12592 244.93472,178.61557 C 250.17707,161.44743 242.7925,141.59938 229.09879,136.05223 C 224.09153,134.02385 225.63059,133.63723 231.15497,135.53572 C 235.71728,137.10358 235.98594,136.89752 233.48753,133.74665 C 229.10144,128.21511 218.15039,125.67618 212.9393,128.98268 C 208.18106,132.00183 207.96743,132.048 205.88213,130.50804 C 203.62112,128.83833 202.20507,129.27987 204.01691,131.08963 C 205.59003,132.66094 205.61042,134.2903 204.08144,136.2458 C 197.74509,144.34971 197.76185,150.05169 204.14227,156.94441 C 209.93769,163.20515 211.48707,167.469 209.74068,172.35114 C 209.1436,174.02031 209.16581,174.06056 210.05357,172.91796 C 211.23151,171.40188 212.0319,171.98126 211.00549,173.60703 C 206.81304,180.24756 200.32215,178.97804 195.38162,170.55123 C 192.84054,166.21702 190.07744,163.05069 180.69735,153.72403 C 167.89098,140.99061 166.54149,139.41345 159.79111,129.29077 C 158.77351,127.7648 158.40388,127.68049 152.44287,127.61467 C 138.11661,127.45648 131.33783,114.2534 142.66449,108.56922 C 147.88335,105.95018 150.35676,107.44926 147.09863,111.25666 C 142.28622,116.88035 146.4806,122.98353 151.8947,118.23534 C 154.5756,115.88418 154.6807,114.96313 152.55591,112.44086 C 148.58661,107.72903 150.70417,101.72867 159.82345,91.847434 C 167.97873,83.010744 170.76677,76.486354 170.76677,66.238594 C 170.76677,65.076674 171.05431,63.948506 171.40575,63.731556 C 173.32173,62.548776 171.24555,77.230944 168.82729,81.965674 C 167.31981,84.917174 162.63538,91.211264 160.5473,93.090804 C 156.27148,96.939604 155.89495,100.6847 159.42492,104.25458 C 160.91853,105.76508 161.85304,106.85316 161.5016,106.67253 C 161.15016,106.4919 159.78435,105.84248 158.46645,105.22937 C 156.67886,104.39775 156.07029,103.72785 156.07029,102.59174 C 156.07029,100.3773 154.98794,100.72473 154.64645,103.04879 C 154.26928,105.61565 154.7545,108.08955 155.63512,108.08955 C 156.71666,108.08955 160.54439,112.05356 160.53236,113.16115 C 160.52629,113.72067 159.942,113.24887 159.19166,112.07857 C 158.29678,110.68284 157.35969,110.00428 156.32703,110.00428 C 155.38884,110.00428 154.79233,109.63217 154.79233,109.04691 C 154.79233,108.52036 154.36102,108.08955 153.83387,108.08955 C 152.47843,108.08955 152.64509,110.17792 154.15335,112.09317 C 157.95266,116.91766 149.54688,124.55042 145.20767,120.21619 C 143.26434,118.27509 143.46251,113.84804 145.60666,111.30278 C 148.34838,108.04818 145.26455,107.78949 141.49484,110.95786 C 135.05741,116.36838 140.78026,125.41666 151.25785,126.39395 C 160.26368,127.23396 164.8802,121.09886 162.1499,111.91901 C 161.67532,110.3234 161.67532,110.3234 162.80962,111.8546 C 163.43348,112.69675 164.08473,114.84952 164.25682,116.63853 C 164.61631,120.37543 165.51937,119.16003 165.62947,114.79111 C 165.68412,112.62258 165.799,112.41903 166.39236,113.4394 C 166.79836,114.13758 166.93461,115.95892 166.71769,117.78837 C 166.34446,120.93608 166.34446,120.93608 168.46538,119.14008 C 171.03039,116.96803 171.84912,113.27588 170.40805,110.37936 C 169.89942,109.35703 169.6518,108.35225 169.85778,108.1465 C 170.36528,107.63958 172.04233,110.00367 172.05451,111.24319 C 172.07814,113.646 173.17654,114.05265 174.21663,112.04365 C 175.45969,109.64258 175.53987,107.05743 174.39271,106.36609 C 173.35307,105.73954 172.50703,103.62183 173.29636,103.62183 C 173.61126,103.62183 174.43435,104.33986 175.12546,105.21744 C 176.6775,107.18828 177.14212,107.2239 177.207,105.37701 C 177.2667,103.67742 177.54981,104.36885 178.06619,107.47531 C 178.33383,109.0855 178.99038,110.05704 180.35493,110.86218 C 182.46938,112.10978 182.83907,111.69205 181.21087,109.89497 C 180.57815,109.19663 180.44982,108.72779 180.89138,108.72779 C 181.29729,108.72779 181.62939,108.42363 181.62939,108.05188 C 181.62939,107.68012 181.30017,107.57921 180.89777,107.82762 C 180.38042,108.14699 180.28812,107.73745 180.5826,106.42923 C 181.8059,100.99488 181.82208,100.43061 180.75453,100.43061 C 179.58649,100.43061 179.35803,99.448264 180.37942,98.817724 C 181.39502,98.190774 183.03613,99.869804 182.6921,101.18383 C 182.22304,102.97546 183.37378,102.55758 184.32686,100.59017 C 185.08373,99.027804 185.0413,98.723664 183.94058,97.821434 C 183.23819,97.245714 182.90664,96.480394 183.17307,96.049794 C 183.50573,95.512174 184.19994,95.760524 185.56019,96.903794 C 188.35214,99.250374 195.04792,98.930844 195.04792,96.451044 C 195.04792,95.897764 194.8518,95.903504 194.28115,96.473494 C 191.71039,99.041314 186.74121,94.527334 186.74121,89.624254 C 186.74121,87.221254 183.17317,83.046774 179.53438,81.192534 C 178.15846,80.491394 177.17648,79.774134 177.3522,79.598614 C 177.85472,79.096684 183.04201,81.888954 184.98403,83.706764 C 186.91298,85.512344 187.26053,84.775964 185.8057,81.965854 C 184.2475,78.956084 176.74726,73.607664 175.63822,74.715434 C 175.41899,74.934414 175.23962,74.759144 175.23962,74.325954 C 175.23962,73.484654 176.38562,73.708154 180.31704,75.316154 C 184.34535,76.963784 186.65681,79.215794 187.61155,82.423034 C 188.50723,85.431864 188.50723,85.431864 188.98485,82.976884 C 189.74868,79.050794 188.51184,76.183464 185.01939,73.783904 C 183.35892,72.643044 182.4597,71.709614 183.02112,71.709614 C 183.58255,71.709614 185.51187,72.719604 187.30849,73.954054 C 191.26388,76.671764 192.15312,74.992054 188.51574,71.673634 C 186.63269,69.955704 186.57477,69.794874 187.83905,69.794874 C 188.59951,69.794874 189.39941,70.082084 189.61661,70.433124 C 190.22147,71.410674 193.51373,71.191434 194.40895,70.113994 C 195.08247,69.303384 194.9411,69.156634 193.48671,69.156634 C 190.7637,69.156634 189.29806,68.008914 187.74481,64.660234 C 186.94927,62.945106 185.60728,60.982206 184.76261,60.298216 C 183.91794,59.614226 183.39645,58.884396 183.60375,58.676366 C 183.81105,58.468336 185.00524,59.292046 186.2575,60.506836 C 188.53435,62.715536 188.53435,62.715536 188.96171,61.014706 C 189.24401,59.891226 189.08943,59.088736 188.50633,58.650616 C 183.14553,54.62276 181.99924,52.682964 186.97153,56.053384 C 188.25061,56.920391 189.29712,57.475926 189.29712,57.287916 C 189.29712,55.081283 183.61566,50.64754 180.78804,50.64754 C 179.72789,50.64754 179.05316,50.455088 179.28865,50.21987 C 179.88297,49.62623 185.46376,49.580123 185.46348,50.168856 C 185.46298,51.239563 186.58296,50.544771 187.26393,49.051928 C 187.91109,47.633202 187.84696,47.456317 186.68551,47.456317 C 185.09546,47.456317 182.90735,46.351593 182.90735,45.548812 C 182.90735,45.226455 183.7601,45.451562 184.80236,46.04905 C 186.5646,47.059277 186.77137,47.061488 187.75337,46.080612 C 189.17195,44.663661 188.39019,43.384593 186.73619,44.416352 C 185.72988,45.044075 185.19585,44.949241 183.73066,43.882638 C 182.53835,43.014679 181.15615,42.640244 179.55272,42.750844 C 178.23482,42.84175 177.15655,42.645224 177.15655,42.31412 C 177.15655,41.983018 177.91061,41.712115 178.83223,41.712115 C 180.24928,41.712115 180.38514,41.564349 179.71246,40.754748 C 179.27496,40.228197 178.16148,39.792983 177.23806,39.787608 C 176.02856,39.780568 175.80623,39.621504 176.4429,39.218739 C 177.09098,38.808757 176.77889,38.539465 175.27273,38.209035 C 173.47501,37.814642 172.74695,38.124405 169.43686,40.691972 C 166.89527,42.66343 165.65495,43.305188 165.65495,42.648785 C 165.65495,42.111582 166.09689,41.502657 166.63705,41.295619 C 168.98172,40.396917 170.12093,33.636697 168.13436,32.410343 C 167.83558,32.225899 167.75948,32.915811 167.96525,33.943479 C 168.4027,36.128218 167.42694,38.278253 165.75783,38.807402 C 164.99092,39.050527 164.23804,40.41252 163.59508,42.719879 C 162.77646,45.657621 162.75909,46.201783 163.49289,45.920521 C 164.51893,45.527243 164.61352,46.096629 163.74803,47.456317 C 163.41286,47.982868 162.48275,48.413684 161.68113,48.413684 C 160.5473,48.413684 160.26674,48.724961 160.41773,49.815427 C 160.52531,50.592373 160.02689,51.80143 159.29952,52.527967 C 157.90174,53.924143 156.07029,54.284216 156.07029,53.162851 C 156.07029,52.791099 156.32788,52.645955 156.64271,52.840307 C 156.95754,53.03466 157.89204,52.630351 158.71939,51.941842 C 160.33194,50.599883 159.39719,50.19048 157.29115,51.316304 C 156.34911,51.819892 155.80711,51.752332 155.09673,51.042771 C 153.75307,49.700648 153.83916,49.569605 156.97486,48.184128 C 160.69344,46.541112 161.69874,44.837844 162.45188,38.904491 C 162.79682,36.187006 163.232,33.716398 163.41895,33.414252 C 163.6059,33.112105 163.50868,32.71045 163.2029,32.521684 C 162.89712,32.332918 162.34291,32.844969 161.97133,33.659575 C 161.59974,34.474182 160.01206,36.714848 158.44316,38.638834 C 155.51736,42.226803 153.87258,44.835637 154.27983,45.24242 C 154.75523,45.717276 155.92947,44.477834 158.22907,41.073871 C 160.60055,37.563525 160.60055,37.563525 160.4121,40.435626 C 160.29584,42.207417 159.91765,43.307727 159.42492,43.307727 C 158.98562,43.307727 158.69808,43.497121 158.78594,43.728604 C 158.8738,43.960087 158.2248,44.678112 157.34371,45.324216 C 153.0422,48.478517 151.16385,48.630565 151.88358,45.766198 C 152.74534,42.33664 143.51413,40.60727 138.33603,43.228204 C 134.53012,45.15459 123.96731,46.967657 118.05112,46.710034 C 114.83646,46.57005 113.87849,46.79332 112.11982,48.092423 C 108.74196,50.587594 109.57936,51.454982 116.22455,52.344084 C 131.78914,54.42657 133.47875,61.446066 118.435,61.527416 C 112.9393,61.557136 112.9393,61.557136 116.09662,63.197276 C 118.97427,64.692144 119.54026,64.777944 122.4864,64.165866 C 130.58824,62.482676 135.60626,62.519406 137.44202,64.275336 C 141.70258,68.350624 153.0827,69.985974 153.95647,66.648504 C 154.34137,65.178344 156.70927,63.695376 156.70927,64.924484 C 156.70927,65.411024 156.27796,66.166654 155.7508,66.603654 C 155.22364,67.040654 154.79233,67.783744 154.79233,68.254954 C 154.79233,69.158424 152.87574,70.433124 151.51732,70.433124 C 151.06606,70.433124 151.25762,70.012054 151.95455,69.472034 C 153.11148,68.575574 153.07392,68.554114 151.3961,69.152914 C 150.40677,69.505994 148.39399,69.795104 146.92326,69.795384 C 145.31514,69.795684 142.72094,70.517144 140.41534,71.605274 C 138.30671,72.600434 134.58946,74.056544 132.15479,74.841074 C 118.53383,79.230184 104.70979,91.178354 108.46155,95.319244 C 109.27286,96.214704 109.32772,96.585814 108.70553,96.969904 C 108.25029,97.250944 107.79439,97.140244 107.65219,96.714144 C 107.51431,96.300964 107.14694,95.962904 106.83581,95.962904 C 106.5247,95.962904 106.43565,96.393714 106.63794,96.920274 C 106.84023,97.446824 106.72097,97.877634 106.37292,97.877634 C 106.02487,97.877634 105.58972,98.452054 105.40591,99.154124 C 105.00211,100.69648 105.15392,100.71582 107.37072,99.404384 C 108.54404,98.710264 108.32997,99.040124 106.70927,100.42365 C 105.39137,101.54868 104.3131,102.78595 104.3131,103.17314 C 104.3131,103.65191 104.55842,103.6321 105.07987,103.11124 C 106.54232,101.65047 107.08454,102.35303 105.66201,103.86552 C 103.0844,106.60611 103.96255,110.82493 106.85648,109.604 C 108.58247,108.87582 108.87259,108.53749 108.15234,108.09286 C 107.0756,107.42817 107.20551,107.36698 112.10404,106.23159 C 116.24571,105.27163 116.64353,105.34693 115.17572,106.81306 C 114.47284,107.51513 113.17891,108.08955 112.30032,108.08955 C 111.42173,108.08955 110.70288,108.3574 110.70288,108.68478 C 110.70288,109.01216 110.11312,109.46698 109.39231,109.69549 C 107.85236,110.1837 104.3131,113.49703 104.3131,114.45048 C 104.3131,115.37935 105.42604,115.27388 105.76981,114.31243 C 105.92671,113.87364 106.30964,113.75351 106.62078,114.04549 C 106.94294,114.34781 106.77428,114.89737 106.22903,115.32198 C 105.70242,115.73207 104.6416,117.21644 103.87165,118.62058 C 103.10169,120.02472 101.95153,121.25684 101.31573,121.35864 C 100.21929,121.53418 100.21734,121.49768 101.27796,120.65003 C 102.64335,119.55879 102.74565,117.11886 101.44688,116.62105 C 100.60716,116.29919 100.60716,116.10096 101.44688,114.90346 C 102.6318,113.21369 102.65846,112.49678 101.52015,112.93309 C 100.03141,113.50372 99.85368,111.49278 101.15506,108.80233 C 102.45889,106.10679 102.78491,103.62183 101.83471,103.62183 C 100.85879,103.62183 96.64537,88.187984 96.64537,84.613144 C 96.64537,81.140004 95.19048,79.300794 88.94338,74.876574 C 85.486822,72.428624 82.493327,70.158444 82.291168,69.831724 C 82.089009,69.504994 79.988399,67.896364 77.623145,66.256994 C 75.257891,64.617614 72.041696,61.829046 70.476045,60.060166 C 67.623084,56.836876 61.181073,53.212158 60.210177,54.283885 C 58.115739,56.595835 59.136596,60.337546 61.754808,59.945376 C 65.002837,59.458866 66.400577,60.613786 66.723208,64.050676 C 66.913756,66.080514 67.202722,66.374024 69.88725,67.264474 C 71.512139,67.803454 73.871261,69.095894 75.129743,70.136584 C 76.388225,71.177264 78.90657,73.177574 80.726065,74.581714 C 90.213296,81.903184 91.685268,84.603424 90.265501,92.081234 C 89.497691,96.125244 89.679538,96.552574 91.32053,94.560464 C 91.986377,93.752154 93.241203,92.518434 94.10903,91.818874 C 95.98147,90.309504 93.77641,93.126334 91.125745,95.629844 C 89.199219,97.449424 88.485776,99.933334 90.054063,99.361004 C 91.161728,98.956774 91.163613,98.995214 90.095847,100.21308 C 89.480831,100.91455 88.980367,102.47111 88.983706,103.67209 C 88.989777,105.85569 88.989777,105.85569 91.523378,101.86666 C 92.916858,99.672694 94.39639,97.877634 94.81123,97.877634 C 95.29461,97.877634 95.20384,98.278744 94.55845,98.994564 C 93.315134,100.37356 90.255591,106.39473 90.255591,107.46258 C 90.255591,108.74285 92.120445,106.88557 93.099705,104.63001 C 93.56905,103.54896 94.43601,102.09005 95.02629,101.38798 C 95.88983,100.3609 95.85777,100.61031 94.86219,102.66447 C 92.52668,107.4833 91.533546,110.04928 91.533546,111.26475 C 91.533546,113.58612 92.652986,113.15599 93.69338,110.43488 C 94.67083,107.8784 99.84026,101.94286 99.84026,103.37703 C 99.84026,103.73591 98.6901,105.56933 97.28435,107.4513 C 95.87859,109.33327 94.72843,111.41449 94.72843,112.07624 C 94.72843,112.73799 94.43078,113.83496 94.06698,114.51395 C 93.43199,115.69907 93.8637,116.08641 95.52716,115.82406 C 95.79073,115.78249 95.9345,116.10749 95.84665,116.54629 C 95.75879,116.98508 96.26198,117.34409 96.96486,117.34409 C 98.00615,117.34409 98.30198,116.81222 98.5623,114.47199 C 98.83779,111.99544 98.98028,111.7662 99.59696,112.80747 C 99.9903,113.47164 100.16898,114.56181 99.99402,115.23007 C 99.8042,115.95513 100.14374,116.78678 100.83601,117.2924 C 102.45878,118.47763 101.29965,118.74544 92.492013,119.2202 C 66.035442,120.64627 64.294212,121.2214 62.797153,129.02826 C 62.413909,131.02679 60.968042,136.25209 59.584116,140.64002 C 53.535953,159.81656 53.617197,159.42898 54.390824,165.41516 C 55.219751,171.82927 55.287704,171.93283 57.379456,169.96998 C 58.847757,168.59217 58.963539,168.13034 58.589787,165.14236 C 58.238006,162.33004 58.352607,161.73984 59.359814,161.17668 C 60.355313,160.62006 60.552535,159.67219 60.602376,155.20481 C 60.706631,145.86039 65.701646,133.34061 70.899935,129.39443 C 73.472565,127.44147 73.392184,125.99977 70.766773,127.00607 C 70.239617,127.20814 69.808307,127.0465 69.808307,126.64689 C 69.808307,125.28418 71.813905,125.14762 73.528553,126.39358 C 74.469638,127.07742 77.539936,128.14789 80.351438,128.7724 C 83.162939,129.39691 86.325879,130.15891 87.380192,130.46573 C 88.434505,130.77255 91.511177,131.47268 94.21724,132.02156 C 96.92331,132.57045 100.14889,133.44171 101.38522,133.95768 C 105.30222,135.59243 108.9524,135.2095 110.59404,132.99162 C 111.36923,131.94431 112.78912,130.68646 113.74935,130.19639 C 115.82466,129.13721 120.40059,128.13741 119.11622,129.02378 C 118.64771,129.34711 117.76633,131.5238 117.15759,133.86088 C 116.54885,136.19796 115.87371,137.93324 115.65728,137.71706 C 115.44085,137.50088 115.37498,136.99306 115.51091,136.58859 C 116.30519,134.22509 116.30352,129.88747 115.50845,130.19222 C 112.80996,131.22654 113.76173,139.03967 116.51911,138.48883 C 117.53744,138.2854 118.39742,138.32718 118.43019,138.58168 C 119.06463,143.50925 118.4075,146.60792 117.49673,142.9833 C 117.29134,142.16589 116.40548,141.17043 115.52815,140.77115 C 114.65083,140.37187 113.75015,139.31739 113.52663,138.42787 C 112.7196,135.21609 111.91689,136.80634 112.36192,140.7353 C 112.68827,143.61658 112.61176,144.53985 112.07416,144.20798 C 111.67139,143.95934 111.34185,142.94713 111.34185,141.95862 C 111.34185,136.44854 107.41682,134.31023 104.62104,138.2972 C 104.03571,139.13191 103.67412,139.30899 103.67412,138.76093 C 103.67412,138.27327 103.48415,138.06405 103.25196,138.29598 C 102.76288,138.78449 104.99944,143.193 105.73636,143.193 C 106.00788,143.193 106.23443,142.40317 106.23981,141.43783 C 106.24519,140.47248 106.52833,139.25184 106.86901,138.72529 C 107.31244,138.03991 107.49119,138.71989 107.4982,141.1187 C 107.50374,143.01463 107.79758,144.46949 108.17498,144.46949 C 108.54182,144.46949 108.75748,144.94296 108.65421,145.52166 C 108.41371,146.86941 111.31009,147.20954 111.8159,145.89295 C 112.11813,145.10624 112.25503,145.11757 112.73191,145.96873 C 113.06046,146.55514 113.7185,146.8062 114.32134,146.57513 C 115.01663,146.30863 115.2547,146.46668 115.05579,147.06272 C 114.89392,147.54777 114.18258,148.09615 113.47504,148.28135 C 112.28119,148.59384 112.3265,148.73106 114.10449,150.18774 C 116.02039,151.75742 116.02039,151.75742 115.58588,150.02818 C 115.32636,148.99538 115.41361,148.29896 115.80252,148.29896 C 116.16066,148.29896 116.45367,148.63086 116.45367,149.03652 C 116.45367,150.00486 119.68221,154.2223 120.10229,153.8027 C 120.28086,153.62434 119.79366,152.59005 119.01963,151.50427 C 118.21192,150.37125 117.78282,149.08631 118.0125,148.48845 C 118.29787,147.74564 118.96011,148.56753 120.32059,151.35294 C 122.27249,155.34924 124.02858,157.40565 123.16294,154.6814 C 122.85203,153.70292 122.93205,153.38427 123.41397,153.68178 C 123.80306,153.92197 124.12141,154.48229 124.12141,154.92693 C 124.12141,156.23407 126.74066,158.29191 130.51242,159.94809 C 133.49593,161.25816 144.2158,165.08685 145.20767,165.19663 C 146.11698,165.29726 147.09915,166.33282 146.77782,166.85215 C 146.11809,167.9184 147.28047,167.4762 148.15204,166.32936 C 148.97446,165.24722 149.40712,166.0504 149.14256,168.1681 C 149.11489,168.38958 149.70468,169.10761 150.45319,169.76371 C 151.7834,170.92969 151.80415,170.92937 151.37167,169.74944 C 150.99619,168.72498 151.07652,168.66435 151.90231,169.3489 C 152.43751,169.79257 152.8754,170.55122 152.8754,171.03478 C 152.8754,171.51836 153.35596,171.91401 153.9433,171.91401 C 155.90428,171.91401 157.34564,173.8865 157.39686,176.6402 C 157.44224,179.08013 159.10992,184.76711 159.21656,182.84558 C 159.25054,182.23335 159.50565,182.16063 160.0639,182.60405 C 160.50319,182.95298 161.38353,183.15457 162.0202,183.05202 C 162.72087,182.93916 163.37291,183.39247 163.67216,184.20048 C 164.28976,185.86811 164.83756,185.03952 165.0437,182.12592 C 165.30192,178.47614 165.10473,177.66425 164.05751,178.06564 C 163.4035,178.31633 163.07367,178.00586 163.01917,177.08825 C 162.89218,174.95016 162.80868,174.60246 162.30032,174.09468 C 161.5855,173.38067 161.72114,169.36103 162.46006,169.36103 C 162.8115,169.36103 163.11925,169.86364 163.14396,170.47795 C 163.18219,171.42892 163.26719,171.40521 163.71603,170.31839 C 164.11507,169.35215 164.29827,169.81751 164.46984,172.23313 C 164.65581,174.85158 164.89718,175.39069 165.8147,175.23681 C 166.63002,175.10007 166.93291,175.47884 166.93291,176.6352 C 166.93291,177.50745 167.19833,178.38496 167.52272,178.58522 C 169.97049,180.09629 167.29827,186.51311 161.5298,192.97608 C 156.13873,199.0162 154.15335,202.77164 154.15335,206.92901 C 154.15335,210.55162 156.27799,217.99205 157.63325,219.11552 C 158.13921,219.53495 159.32632,222.22605 160.27127,225.09576 C 162.34938,231.40677 165.75807,235.14224 172.27286,238.24789 C 183.85068,243.76714 177.17144,251.75422 155.96304,257.75128 C 149.52306,259.5723 145.99511,262.92086 148.14977,265.16726 C 150.29154,267.40022 150.20627,267.393 150.96282,265.40539 z M 181.62939,248.50336 C 181.62939,248.15232 181.96618,247.86511 182.3778,247.86511 C 182.78942,247.86511 183.65204,247.38979 184.29473,246.80882 C 184.93742,246.22787 185.46326,246.05123 185.46326,246.4163 C 185.46326,247.02834 182.75556,249.1416 181.97136,249.1416 C 181.78328,249.1416 181.62939,248.85439 181.62939,248.50336 z M 185.82092,244.27945 C 185.25673,242.03415 185.85246,241.61241 187.33819,243.20533 C 188.24288,244.17529 188.374,244.70241 187.84263,245.23318 C 186.74714,246.3274 186.28016,246.1071 185.82092,244.27945 z M 168.84984,225.48888 C 168.84984,225.11713 168.5623,224.99048 168.21086,225.20743 C 167.84528,225.43311 167.57188,224.86624 167.57188,223.88254 C 167.57188,222.16318 167.57188,222.16318 168.84984,223.78598 C 170.27781,225.59927 170.42972,226.1648 169.48882,226.1648 C 169.13738,226.1648 168.84984,225.86063 168.84984,225.48888 z M 164.6553,222.65445 C 164.14137,221.42583 163.29342,220.42059 162.77098,220.42059 C 162.24854,220.42059 161.82109,220.15687 161.82109,219.83455 C 161.82109,219.51223 161.65384,218.7224 161.44943,218.07938 C 161.11456,217.02594 161.16223,217.01159 161.93112,217.9343 C 163.44379,219.74959 165.92557,220.20351 165.01162,218.49774 C 163.78507,216.20854 165.2303,215.70386 166.82863,217.86323 C 167.6099,218.91875 168.74371,219.82016 169.3482,219.86637 C 169.9527,219.91258 169.44089,220.13072 168.21086,220.35113 C 166.15127,220.72019 165.98727,220.9154 166.13662,222.82009 C 166.34698,225.50277 165.82223,225.4441 164.6553,222.65445 z M 160.96912,214.88914 C 160.73482,214.65512 160.54313,214.16686 160.54313,213.80412 C 160.54313,213.4042 160.84075,213.44188 161.29925,213.89986 C 161.71512,214.31526 161.90682,214.80351 161.72524,214.98488 C 161.54366,215.16625 161.20341,215.12316 160.96912,214.88914 z M 157.11539,212.73629 C 155.89387,210.67079 156.06623,205.57502 157.38516,204.76081 C 158.12743,204.30259 158.12742,204.30375 157.36475,206.95996 C 156.8889,208.61725 156.9786,209.62533 157.74556,211.23972 C 159.09009,214.06986 158.59683,215.24129 157.11539,212.73629 z M 223.21339,210.47462 C 223.24404,209.7311 223.39546,209.57986 223.59943,210.08901 C 223.78401,210.54975 223.76132,211.10023 223.54899,211.31231 C 223.33666,211.5244 223.18564,211.14743 223.21339,210.47462 z M 183.54633,208.29395 C 183.54633,207.94291 183.83387,207.6557 184.1853,207.6557 C 184.53674,207.6557 184.82428,207.94291 184.82428,208.29395 C 184.82428,208.64498 184.53674,208.93219 184.1853,208.93219 C 183.83387,208.93219 183.54633,208.64498 183.54633,208.29395 z M 186.74121,206.09776 C 186.74121,205.19946 187.02875,204.46448 187.38019,204.46448 C 187.73163,204.46448 188.01917,205.02195 188.01917,205.7033 C 188.01917,206.38465 187.73163,207.11963 187.38019,207.33658 C 187.01779,207.5603 186.74121,207.02408 186.74121,206.09776 z M 188.97813,205.74097 C 189.53522,203.08911 189.8115,202.54975 190.61279,202.54975 C 191.5518,202.54975 191.31882,204.26867 190.23277,205.35346 C 189.69306,205.89255 189.28571,206.51142 189.32755,206.72873 C 189.36939,206.94604 189.2023,207.31531 188.95624,207.54933 C 188.71019,207.78335 188.72003,206.96959 188.97813,205.74097 z M 191.85304,204.18303 C 191.85304,202.93369 192.14058,201.9115 192.49201,201.9115 C 192.84345,201.9115 193.13099,202.75618 193.13099,203.78857 C 193.13099,204.82095 192.84345,205.84314 192.49201,206.06009 C 192.11174,206.29484 191.85304,205.53485 191.85304,204.18303 z M 225.91442,204.60125 C 226.50973,203.9442 226.99681,203.19329 226.99681,202.93258 C 226.99681,202.67187 227.42812,202.02775 227.95527,201.5012 C 228.48243,200.97465 228.91374,200.73544 228.91374,200.96963 C 228.91374,201.90615 226.68581,205.08536 225.78849,205.42929 C 225.03429,205.71838 225.06091,205.54328 225.91442,204.60125 z M 223.16294,203.22566 C 223.16294,202.89534 223.44719,202.44961 223.7946,202.23514 C 224.15681,202.01154 224.26393,202.26773 224.04573,202.83572 C 223.62094,203.94143 223.16294,204.14373 223.16294,203.22566 z M 220.60703,202.62789 C 220.60703,202.23388 220.82268,201.90954 221.08626,201.90714 C 221.34984,201.90474 222.24541,200.90551 223.07642,199.68661 C 223.90742,198.46772 225.12947,196.84608 225.79207,196.08297 C 226.45468,195.31986 226.99681,194.18197 226.99681,193.55433 C 226.99681,192.92669 227.26587,192.24707 227.59472,192.04406 C 228.85604,191.26542 226.995,195.67961 224.8064,198.65766 C 222.19396,202.21245 220.60703,203.71278 220.60703,202.62789 z M 189.29712,200.95413 C 189.29712,200.42758 189.58466,199.99677 189.9361,199.99677 C 190.28754,199.99677 190.57508,200.42758 190.57508,200.95413 C 190.57508,201.48069 190.28754,201.9115 189.9361,201.9115 C 189.58466,201.9115 189.29712,201.48069 189.29712,200.95413 z M 219.32907,197.70402 C 219.32907,196.79404 219.90024,195.32424 220.59832,194.43778 C 221.29641,193.55133 221.72971,192.60323 221.56121,192.3309 C 221.3927,192.05857 221.94954,191.6616 222.79862,191.44874 C 224.76137,190.95668 228.23197,188.05905 228.93364,186.32656 C 229.35795,185.27892 229.48027,185.22818 229.51221,186.0866 C 229.56413,187.4819 226.89712,191.31658 225.68613,191.58782 C 223.73743,192.02429 220.01953,196.43147 220.87727,197.28822 C 221.08284,197.49357 221.96876,196.98808 222.84597,196.16494 C 223.72318,195.34179 224.44089,194.93377 224.44088,195.25824 C 224.44086,195.8433 220.36162,199.35852 219.6827,199.35852 C 219.4882,199.35852 219.32907,198.614 219.32907,197.70402 z M 218.6901,192.97608 C 218.6901,192.62504 218.99461,192.33783 219.36679,192.33783 C 219.73896,192.33783 219.86576,192.62504 219.64856,192.97608 C 219.43136,193.32711 219.12685,193.61432 218.97187,193.61432 C 218.81689,193.61432 218.6901,193.32711 218.6901,192.97608 z M 193.60233,190.1525 C 192.22353,187.26443 192.21001,186.8418 193.53146,187.93726 C 194.67374,188.88417 194.60867,185.20823 193.43426,182.44504 C 192.96395,181.3385 193.02601,181.27751 193.90036,181.98692 C 195.13711,182.99038 195.8204,187.43463 195.18365,190.33372 C 194.71265,192.47819 194.71265,192.47819 193.60233,190.1525 z M 196.00639,191.69959 C 195.78919,191.34855 195.91599,191.06134 196.28817,191.06134 C 196.66035,191.06134 196.96486,191.34855 196.96486,191.69959 C 196.96486,192.05062 196.83806,192.33783 196.68308,192.33783 C 196.5281,192.33783 196.22359,192.05062 196.00639,191.69959 z M 163.83891,180.21118 C 163.83891,179.3336 163.98394,178.97459 164.1612,179.41338 C 164.33846,179.85217 164.33846,180.5702 164.1612,181.00899 C 163.98394,181.44778 163.83891,181.08877 163.83891,180.21118 z M 161.35614,178.29645 C 161.35614,176.7168 161.48075,176.07057 161.63305,176.8604 C 161.78536,177.65023 161.78536,178.94267 161.63305,179.7325 C 161.48075,180.52233 161.35614,179.87611 161.35614,178.29645 z M 202.08167,179.7325 C 202.08442,179.46923 203.594,179.21046 205.43631,179.15746 C 207.74147,179.09114 208.38746,179.22641 207.50799,179.59128 C 205.88355,180.26521 202.07508,180.36433 202.08167,179.7325 z M 200.47923,178.9347 C 200.69643,178.58366 201.00095,178.29645 201.15592,178.29645 C 201.3109,178.29645 201.4377,178.58366 201.4377,178.9347 C 201.4377,179.28573 201.13319,179.57294 200.76101,179.57294 C 200.38883,179.57294 200.26203,179.28573 200.47923,178.9347 z M 216.80233,176.70084 C 216.84044,175.70387 219.2722,171.49824 219.30229,172.37726 C 219.31702,172.80757 218.75507,174.10002 218.05351,175.24936 C 217.35194,176.39871 216.78892,177.05187 216.80233,176.70084 z M 158.5894,173.41294 C 157.7518,171.2124 158.27256,169.82439 159.15178,171.91401 C 159.75453,173.34653 159.82729,173.19975 159.86365,170.47795 C 159.92191,166.11717 160.83259,166.74729 161.02442,171.28112 C 161.20321,175.50654 159.84043,176.69963 158.5894,173.41294 z M 238.54885,174.09468 C 238.57951,173.35115 238.73092,173.19992 238.93489,173.70907 C 239.11948,174.1698 239.09678,174.72028 238.88445,174.93237 C 238.67213,175.14445 238.52111,174.76749 238.54885,174.09468 z M 240.13232,172.61119 C 239.93518,172.29258 240.04375,171.35915 240.37359,170.5369 C 240.93454,169.13855 240.97593,169.17601 241.01381,171.1162 C 241.05477,173.21358 240.78652,173.66851 240.13232,172.61119 z M 211.93055,167.96786 C 211.92771,165.89076 211.46422,163.70756 210.73583,162.34034 C 207.42971,156.13451 206.59089,154.25473 206.6061,153.08579 C 206.61525,152.38372 207.54076,153.70972 208.6628,156.03244 C 209.78484,158.35518 211.02481,160.65286 211.41828,161.1384 C 212.0418,161.90783 212.33707,162.98357 213.34217,168.1477 C 213.45142,168.709 213.17954,169.66173 212.73799,170.26488 C 212.05643,171.19591 211.93449,170.84902 211.93055,167.96786 z M 232.7476,170.75333 C 232.7476,170.38004 233.05288,169.88615 233.42599,169.65582 C 234.22254,169.16409 235.17095,166.97033 236.3127,162.97858 C 237.06179,160.35961 237.13799,160.28215 237.17732,162.09964 C 237.22617,164.357 235.16852,169.42518 233.71351,170.63135 C 233.10773,171.13353 232.7476,171.17901 232.7476,170.75333 z M 238.82573,168.08454 C 239.04296,166.85592 239.33702,165.02167 239.4792,164.00844 C 239.85976,161.2964 240.41534,161.14676 240.41534,163.75629 C 240.41534,165.00312 239.96881,166.98965 239.42305,168.17082 C 238.43077,170.31839 238.43077,170.31839 238.82573,168.08454 z M 158.03767,168.35047 C 158.06833,167.60695 158.21974,167.45572 158.42371,167.96487 C 158.60829,168.4256 158.5856,168.97608 158.37327,169.18817 C 158.16094,169.40025 158.00992,169.02329 158.03767,168.35047 z M 158.03767,165.7975 C 158.06833,165.05397 158.21974,164.90274 158.42371,165.41189 C 158.60829,165.87262 158.5856,166.4231 158.37327,166.63519 C 158.16094,166.84727 158.00992,166.47031 158.03767,165.7975 z M 153.67412,165.74711 C 152.7693,165.38242 152.57514,163.61683 153.43985,163.61683 C 153.7503,163.61683 154.15469,164.19125 154.3385,164.89331 C 154.52231,165.59538 154.62773,166.14713 154.57277,166.11941 C 154.51781,166.0917 154.11342,165.92416 153.67412,165.74711 z M 156.17118,164.89331 C 156.17118,164.01573 156.31621,163.65672 156.49347,164.09551 C 156.67073,164.5343 156.67073,165.25233 156.49347,165.69112 C 156.31621,166.12991 156.17118,165.7709 156.17118,164.89331 z M 217.61666,159.78736 C 217.61666,157.50563 217.73263,156.5722 217.87438,157.71306 C 218.01612,158.85393 218.01612,160.72079 217.87438,161.86165 C 217.73263,163.00251 217.61666,162.06908 217.61666,159.78736 z M 220.19095,162.34034 C 220.65749,157.7645 223.91308,154.19611 226.02444,155.94637 C 226.71567,156.51939 227.06116,156.3921 227.6137,155.36086 C 228.43298,153.83178 229.55272,153.6152 229.55272,154.98581 C 229.55272,156.76272 226.35138,158.32366 225.39275,157.01417 C 224.36897,155.61566 222.53273,157.10612 222.50975,159.35426 C 222.50194,160.11902 221.94041,161.46275 221.2619,162.34034 C 220.02826,163.93595 220.02826,163.93595 220.19095,162.34034 z M 234.02556,162.97858 C 234.02556,162.62755 234.33007,162.34034 234.70225,162.34034 C 235.07443,162.34034 235.20123,162.62755 234.98403,162.97858 C 234.76682,163.32962 234.46231,163.61683 234.30734,163.61683 C 234.15236,163.61683 234.02556,163.32962 234.02556,162.97858 z M 234.81278,159.78736 C 234.81278,158.55874 234.94428,158.05612 235.105,158.67043 C 235.26572,159.28474 235.26572,160.28998 235.105,160.90429 C 234.94428,161.5186 234.81278,161.01598 234.81278,159.78736 z M 133.02711,156.17921 C 132.47796,156.03135 131.68723,154.96724 131.26992,153.81452 C 130.34328,151.25488 130.29773,150.00658 131.15016,150.53281 C 131.5016,150.74976 131.78914,151.4428 131.78914,152.07289 C 131.78914,152.70298 132.49426,153.97848 133.35607,154.90733 C 134.92216,156.59522 134.89937,156.68334 133.02711,156.17921 z M 220.27203,153.9726 C 219.95098,152.51255 220.12474,151.71047 220.92881,150.94094 C 221.94907,149.96449 221.99333,149.99053 221.59102,151.33062 C 220.97752,153.37412 221.67586,153.10722 222.84345,150.85193 C 223.43106,149.71693 224.34247,148.9372 225.08155,148.9372 C 226.43785,148.9372 228.74473,151.88209 227.97198,152.62703 C 227.71024,152.87934 227.06114,152.43957 226.52953,151.64974 C 225.17879,149.64289 224.72742,149.81715 222.80967,153.08579 C 220.80558,156.50159 220.82651,156.49427 220.27203,153.9726 z M 216.24465,153.71131 C 215.31596,151.6754 215.26067,146.60434 216.16111,146.04848 C 216.52735,145.82239 217.27742,144.513 217.82793,143.13872 C 218.37844,141.76443 219.08518,140.64002 219.39845,140.64002 C 220.21144,140.64002 220.10194,141.52748 219.17467,142.45368 C 218.54281,143.08482 218.55351,143.35246 219.22718,143.76834 C 219.88233,144.17278 219.70101,144.69153 218.42312,146.06882 C 216.62847,148.00305 216.27707,150.71405 217.55588,152.7594 C 218.10353,153.63531 218.13671,154.21296 217.66635,154.68279 C 217.19599,155.1526 216.76901,154.86084 216.24465,153.71131 z M 204.71445,153.46895 C 204.23232,153.16389 203.94573,152.59104 204.07758,152.19594 C 204.21173,151.79393 204.6705,152.04249 205.11934,152.76037 C 206.01449,154.19209 205.97276,154.26513 204.71445,153.46895 z M 127.60997,151.97227 C 127.40351,151.43487 126.39036,150.82652 125.35851,150.62038 C 124.32666,150.41426 123.48243,149.93744 123.48243,149.56078 C 123.48243,149.18414 122.76481,148.24352 121.88773,147.47053 C 121.01065,146.69755 120.24624,145.49068 120.18904,144.78861 C 119.96986,142.09808 120.31506,140.00178 120.97729,140.00178 C 121.4101,140.00178 121.51137,140.7097 121.24916,141.90217 C 120.78796,143.99962 121.31912,146.38422 122.24753,146.38422 C 122.57528,146.38422 122.84345,145.6662 122.84345,144.78861 C 122.84345,143.91102 123.13099,143.193 123.48243,143.193 C 123.83387,143.193 124.13055,144.27004 124.14173,145.58642 C 124.15291,146.9028 124.59471,148.55168 125.12351,149.2506 C 126.03534,150.45576 126.07553,150.40991 125.90191,148.36268 C 125.60652,144.87946 126.99663,145.42158 127.75744,149.0863 C 128.43899,152.36929 128.35958,153.92347 127.60997,151.97227 z M 229.56615,149.85599 C 228.69495,148.99962 227.54479,148.28878 227.01024,148.27634 C 226.47569,148.2639 225.31949,147.82227 224.44089,147.29494 C 222.85287,146.3418 222.85651,146.33865 225.0589,146.76047 C 226.27739,146.99383 227.79575,147.50727 228.43303,147.90143 C 229.32259,148.45163 229.71704,148.41695 230.13132,147.75213 C 230.82114,146.64512 231.32794,147.49207 231.31782,149.73501 C 231.31346,150.70035 231.27396,151.47282 231.23003,151.4516 C 231.1861,151.43038 230.43735,150.71236 229.56615,149.85599 z M 203.45552,149.57544 C 203.45552,148.69786 203.60056,148.33885 203.77781,148.77764 C 203.95507,149.21643 203.95507,149.93446 203.77781,150.37325 C 203.60056,150.81204 203.45552,150.45303 203.45552,149.57544 z M 217.41214,150.36999 C 217.41214,150.01895 217.84345,149.3742 218.37061,148.9372 C 218.90527,148.49398 219.32907,148.42487 219.32907,148.7809 C 219.32907,149.13193 218.89776,149.77669 218.37061,150.21369 C 217.83595,150.65691 217.41214,150.72602 217.41214,150.36999 z M 225.25344,144.54269 C 222.7284,143.28121 222.52365,142.25611 224.91656,142.856 C 226.8568,143.3424 228.27476,144.32618 228.27476,145.18588 C 228.27476,145.90782 227.77154,145.80069 225.25344,144.54269 z M 108.55558,143.3884 C 107.93144,142.76497 108.08783,139.16606 108.78594,138.08704 C 109.12662,137.56049 109.42632,137.41688 109.45195,137.76792 C 109.47758,138.11895 109.61128,139.47519 109.74907,140.78176 C 109.98808,143.0481 109.43162,144.26343 108.55558,143.3884 z M 205.92475,136.41794 C 205.94348,135.67363 208.43382,132.50252 208.45224,133.19954 C 208.46006,133.4952 207.89137,134.46737 207.1885,135.35991 C 206.48562,136.25244 205.91694,136.72856 205.92475,136.41794 z M 98.24281,130.42811 C 98.02561,130.07707 98.15241,129.78986 98.52459,129.78986 C 98.89677,129.78986 99.20128,130.07707 99.20128,130.42811 C 99.20128,130.77914 99.07448,131.06635 98.9195,131.06635 C 98.76452,131.06635 98.46001,130.77914 98.24281,130.42811 z M 90.945014,128.99206 C 90.972759,128.20223 91.140491,127.91502 91.317751,128.35381 C 91.495012,128.7926 92.047391,129.15162 92.545261,129.15162 C 93.043131,129.15162 93.450479,129.43883 93.450479,129.78986 C 93.450479,130.1409 92.875399,130.42811 92.172524,130.42811 C 91.258275,130.42811 90.908925,130.01941 90.945014,128.99206 z M 94.72843,129.75219 C 94.72843,129.38044 95.01597,129.25379 95.36741,129.47074 C 95.71885,129.68769 96.00639,129.99185 96.00639,130.14665 C 96.00639,130.30145 95.71885,130.42811 95.36741,130.42811 C 95.01597,130.42811 94.72843,130.12394 94.72843,129.75219 z M 85.569755,128.72612 C 84.758571,127.91587 85.1484,127.27872 86.207058,127.6845 C 86.922001,127.95853 87.118982,127.84742 86.808325,127.34535 C 86.040299,126.10408 87.3381,126.50815 88.509886,127.87513 C 89.61566,129.1651 86.819489,129.97442 85.569755,128.72612 z M 99.52599,127.00126 C 97.7968,124.7943 97.89546,124.42288 100.57913,123.03669 C 103.0477,121.76161 103.6746,122.34037 101.68796,124.06035 C 100.15974,125.38345 100.15974,125.38345 102.39617,124.97825 C 104.63259,124.57305 104.63259,124.57305 103.03514,125.69333 C 102.15655,126.30948 101.31492,126.91181 101.16486,127.03184 C 101.01479,127.15187 101.41226,127.63005 102.04812,128.09447 C 103.09259,128.85733 103.09993,128.93887 102.12419,128.93887 C 101.53016,128.93887 100.36098,128.06695 99.52599,127.00126 z M 83.226837,126.56097 C 83.226837,126.18922 83.514377,126.06256 83.865815,126.27952 C 84.217252,126.49647 84.504792,126.80063 84.504792,126.95543 C 84.504792,127.11023 84.217252,127.23688 83.865815,127.23688 C 83.514377,127.23688 83.226837,126.93272 83.226837,126.56097 z M 154.15335,123.40742 C 156.23846,121.77829 157.22683,121.77829 155.7508,123.40742 C 155.1147,124.10948 154.13564,124.67752 153.57509,124.66971 C 152.83316,124.65938 152.99046,124.316 154.15335,123.40742 z M 151.27796,122.5096 C 152.33227,121.60688 153.79068,120.70326 154.51888,120.50156 C 157.29456,119.73272 158.80514,115.15787 157.04907,112.83881 C 155.67936,111.02996 155.86541,110.25948 157.34824,111.59989 C 159.96741,113.96748 159.14277,118.28202 155.56051,120.95335 C 151.67226,123.85287 148.26154,125.0923 151.27796,122.5096 z M 157.98722,122.23153 C 157.98722,121.91113 158.39605,121.31007 158.89574,120.89585 C 159.39542,120.48162 160.00393,118.96217 160.24799,117.51929 C 160.60381,115.41557 160.81209,115.11072 161.29935,115.98041 C 162.11582,117.43768 160.81044,121.30487 159.214,122.15828 C 158.5279,122.52505 157.98722,122.55734 157.98722,122.23153 z M 148.40256,117.68324 C 148.40256,117.34323 147.97125,117.23035 147.44409,117.43241 C 146.06964,117.95923 146.26241,116.86132 147.77088,115.5712 C 148.94114,114.57034 150.95847,114.05765 150.95847,114.76108 C 150.95847,114.92008 150.62477,115.78171 150.21692,116.67582 C 149.48442,118.28164 148.40256,118.88235 148.40256,117.68324 z M 140.73482,115.74848 C 140.73482,114.69538 141.02236,113.83375 141.3738,113.83375 C 141.72524,113.83375 142.01278,114.69538 142.01278,115.74848 C 142.01278,116.80158 141.72524,117.66321 141.3738,117.66321 C 141.02236,117.66321 140.73482,116.80158 140.73482,115.74848 z M 142.33227,112.55726 C 142.54947,112.20622 143.01472,111.91901 143.36615,111.91901 C 143.71759,111.91901 143.82742,112.20622 143.61022,112.55726 C 143.39302,112.90829 142.92778,113.1955 142.57634,113.1955 C 142.2249,113.1955 142.11507,112.90829 142.33227,112.55726 z M 164.48406,110.84235 C 163.45023,108.91284 163.55203,108.45084 164.74783,109.64527 C 165.30323,110.20003 165.63895,111.0096 165.49387,111.44433 C 165.3313,111.9315 164.94389,111.70056 164.48406,110.84235 z M 106.38658,105.37701 C 106.53125,104.93821 107.27406,104.48742 108.03727,104.37525 C 108.80048,104.26308 109.42492,103.78328 109.42492,103.30903 C 109.42492,102.83479 110.35942,102.24275 111.5016,101.99339 C 112.64377,101.74403 114.21151,100.85958 114.98546,100.02794 C 116.5659,98.329714 117.88309,98.017244 117.32373,99.473244 C 117.07873,100.11094 117.35213,100.43387 118.1425,100.44038 C 119.11183,100.44837 119.15918,100.55751 118.40112,101.03652 C 117.89074,101.35901 117.27681,101.50166 117.03681,101.35351 C 116.79682,101.20536 115.63294,101.39321 114.4504,101.77096 C 113.26785,102.1487 111.87707,102.59153 111.35976,102.75501 C 110.53167,103.01671 110.53167,103.1233 111.35976,103.64639 C 112.14097,104.13988 112.10314,104.24219 111.13647,104.25031 C 110.49635,104.25568 109.5413,104.69089 109.01415,105.21744 C 107.85351,106.37675 106.02025,106.48807 106.38658,105.37701 z M 165.3468,103.8244 C 160.769,100.63363 158.41796,96.317464 160.54313,95.005534 C 160.91447,94.776304 161.18211,95.407004 161.18211,96.511284 C 161.18211,99.512184 161.75641,100.35006 165.41608,102.68844 C 167.30465,103.89516 168.84984,105.17325 168.84984,105.52864 C 168.84984,106.32665 169.13775,106.46672 165.3468,103.8244 z M 117.73163,104.26008 C 116.2181,103.77592 116.24328,103.74573 118.21086,103.68545 C 119.35304,103.65046 120.28754,103.90904 120.28754,104.26008 C 120.28754,104.98137 119.98645,104.98137 117.73163,104.26008 z M 114.41693,103.82409 C 114.87819,103.63972 115.42931,103.66239 115.64164,103.87447 C 115.85397,104.08656 115.47657,104.2374 114.80298,104.20969 C 114.05861,104.17907 113.9072,104.02783 114.41693,103.82409 z M 171.19276,103.83458 C 170.95847,103.60056 170.76677,103.1123 170.76677,102.74956 C 170.76677,102.34964 171.06439,102.38732 171.52289,102.8453 C 171.93877,103.2607 172.13046,103.74895 171.94888,103.93032 C 171.7673,104.11169 171.42705,104.0686 171.19276,103.83458 z M 120.16773,101.27111 C 120.62899,101.08674 121.18012,101.10941 121.39244,101.32149 C 121.60477,101.53358 121.22737,101.68442 120.55378,101.65671 C 119.80941,101.62609 119.658,101.47485 120.16773,101.27111 z M 122.20447,98.515884 C 122.20447,97.184594 122.70046,96.979724 124.37221,97.620504 C 125.22544,97.947544 125.23934,98.128654 124.47012,98.896994 C 123.1946,100.17104 122.20447,100.00449 122.20447,98.515884 z M 179.07348,97.877634 C 179.07348,97.526604 179.36102,97.239394 179.71246,97.239394 C 180.0639,97.239394 180.35144,97.526604 180.35144,97.877634 C 180.35144,98.228674 180.0639,98.515884 179.71246,98.515884 C 179.36102,98.515884 179.07348,98.228674 179.07348,97.877634 z M 118.54251,97.435334 C 119.16422,97.273514 120.02684,97.284154 120.45944,97.458984 C 120.89205,97.633824 120.38339,97.766214 119.32907,97.753214 C 118.27476,97.740204 117.92081,97.597164 118.54251,97.435334 z M 92.533095,96.414054 C 92.77305,95.784604 93.130342,95.430384 93.327075,95.626894 C 93.52381,95.823404 93.32748,96.338404 92.890791,96.771344 C 92.259727,97.396994 92.186331,97.323684 92.533095,96.414054 z M 124.76038,95.962904 C 124.07942,95.523334 124.85476,95.341374 127.43833,95.334434 C 129.43835,95.329054 131.25245,95.611864 131.46965,95.962904 C 131.98523,96.796174 126.05127,96.796174 124.76038,95.962904 z M 176.87814,95.511744 C 176.53138,94.602124 176.60477,94.528814 177.23584,95.154454 C 177.67253,95.587404 177.86886,96.102404 177.67212,96.298914 C 177.47539,96.495424 177.1181,96.141194 176.87814,95.511744 z M 180.98105,93.250364 C 180.64185,92.460534 179.89505,91.168094 179.32148,90.378264 C 178.74791,89.588434 178.52935,88.945764 178.8358,88.950114 C 179.14224,88.954464 180.11182,90.031504 180.99042,91.343534 C 183.0501,94.419324 183.15519,94.686414 182.3058,94.686414 C 181.91638,94.686414 181.32024,94.040194 180.98105,93.250364 z M 171.28594,92.335684 C 171.74721,92.151314 172.29832,92.173984 172.51065,92.386074 C 172.72298,92.598164 172.34558,92.749004 171.67199,92.721294 C 170.92762,92.690664 170.77621,92.539424 171.28594,92.335684 z M 92.172524,90.560274 C 92.172524,90.397114 92.819489,89.919274 93.61022,89.498414 C 94.91388,88.804574 94.96616,88.832234 94.17096,89.795084 C 93.35446,90.783744 92.172524,91.236294 92.172524,90.560274 z M 176.03834,88.284084 C 175.2476,87.966604 174.60064,87.554004 174.60064,87.367164 C 174.60064,86.747684 175.6176,87.014834 176.87468,87.964554 C 178.28829,89.032534 178.09063,89.108044 176.03834,88.284084 z M 91.325302,84.634064 C 91.130992,83.668714 90.774226,82.017264 90.532489,80.964154 C 90.101285,79.085654 90.125173,79.095894 91.794925,81.505334 C 92.864985,83.049424 93.353663,84.411974 93.111133,85.175244 C 92.556916,86.919414 91.735188,86.670404 91.325302,84.634064 z M 148.40256,77.180274 C 148.40256,76.664444 150.41055,74.900834 150.99785,74.900834 C 151.32075,74.900834 151.09254,75.475254 150.49072,76.177324 C 149.49503,77.338864 148.40256,77.863584 148.40256,77.180274 z M 151.27796,72.347854 C 151.49516,71.996824 151.94344,71.709614 152.27413,71.709614 C 152.60483,71.709614 152.8754,71.996824 152.8754,72.347854 C 152.8754,72.698884 152.42712,72.986094 151.87922,72.986094 C 151.33132,72.986094 151.06075,72.698884 151.27796,72.347854 z M 184.33909,67.837914 C 183.72735,66.716104 182.57702,65.072834 181.78279,64.186186 C 180.08585,62.291796 180.33435,61.480636 182.07806,63.222346 C 184.72085,65.862094 186.79119,69.050444 186.12827,69.459684 C 185.75596,69.689524 184.95082,68.959724 184.33909,67.837914 z M 158.06134,62.682916 C 158.01626,61.656956 158.39817,60.838506 159.03606,60.594006 C 159.82649,60.291036 159.92215,60.392156 159.42431,61.004406 C 159.06098,61.451236 158.62236,62.391236 158.44959,63.093306 C 158.20178,64.100296 158.11981,64.013646 158.06134,62.682916 z M 170.60703,62.084816 C 169.88397,61.664156 169.48882,60.656076 169.48882,59.232126 C 169.48882,57.880976 168.99496,56.536701 168.21086,55.753496 C 166.11013,53.655169 168.74309,51.185122 172.92148,51.334341 C 173.96473,51.371597 173.80443,51.55726 172.23264,52.132146 C 169.31044,53.200948 168.45098,54.185288 169.42081,55.352525 C 170.08902,56.156745 170.42583,56.160924 171.91769,55.383507 C 174.15604,54.21709 177.69516,54.266988 179.71246,55.493407 C 181.3099,56.464574 181.3099,56.464574 179.39297,55.9817 C 176.22843,55.184554 173.42968,55.458934 172.0556,56.701032 C 170.37132,58.223536 170.89518,58.736066 172.78456,57.414206 C 175.15119,55.758461 179.84778,56.988803 182.2647,59.897666 C 182.84786,60.599526 182.11888,60.404786 180.05011,59.306076 C 176.22157,57.272757 173.96068,57.226743 172.15611,59.145416 C 170.43496,60.975396 170.36593,61.756886 172.00272,60.881906 C 173.79081,59.926056 177.35251,60.071046 178.79161,61.158276 C 180.2647,62.271186 178.96417,62.477156 177.24304,61.403536 C 176.32514,60.830946 175.60842,60.900586 173.95865,61.722656 C 172.79801,62.300996 171.82068,62.765456 171.78681,62.754776 C 171.75295,62.744106 171.22204,62.442626 170.60703,62.084816 z M 129.8722,57.385296 C 129.8722,56.878652 129.23314,56.017022 128.45207,55.470565 C 127.41667,54.746175 127.30329,54.477007 128.03355,54.477007 C 129.17134,54.477007 131.15016,56.433798 131.15016,57.558926 C 131.15016,57.970076 130.86262,58.306476 130.51118,58.306476 C 130.15974,58.306476 129.8722,57.891946 129.8722,57.385296 z M 138.54917,54.636568 C 138.01158,53.671223 137.39093,52.392766 137.16996,51.795551 C 136.94898,51.198336 136.00732,50.45255 135.07738,50.138247 C 133.38658,49.566787 133.38658,49.566787 136.54682,47.554185 C 140.57774,44.987094 143.46226,44.873888 145.00278,47.222322 C 145.60917,48.146728 146.98161,49.284327 148.05265,49.750318 C 150,50.597575 150,50.597575 147.97511,50.622557 C 146.86141,50.636298 145.07911,51.14691 144.01443,51.757251 C 142.41178,52.675993 141.7431,52.740451 140.12878,52.131814 C 137.87355,51.281537 137.48755,52.147779 139.61491,53.285003 C 140.54385,53.781588 140.76006,54.149482 140.22722,54.326892 C 139.59456,54.537536 139.57606,54.808781 140.14742,55.496441 C 140.64298,56.092875 140.66352,56.391741 140.20895,56.391741 C 139.83366,56.391741 139.08675,55.601913 138.54917,54.636568 z M 143.32003,47.51098 C 142.45005,45.887286 141.50664,45.835207 139.4393,47.296756 C 137.85942,48.413684 137.85942,48.413684 140.73482,48.746567 C 144.22778,49.150945 144.20464,49.162002 143.32003,47.51098 z M 114.89385,49.710471 C 116.51203,48.487942 118.37061,48.477091 118.37061,49.690173 C 118.37061,50.368253 117.68256,50.64754 116.01206,50.64754 C 113.80106,50.64754 113.73111,50.588917 114.89385,49.710471 z M 164.13319,49.657024 C 163.9239,49.11224 164.01235,48.826819 164.32974,49.022756 C 164.64714,49.218692 165.01942,49.041605 165.15704,48.629228 C 165.30276,48.192548 166.99323,47.813838 169.20522,47.722324 C 173.00319,47.565196 173.00319,47.565196 170.1278,48.209523 C 168.54633,48.563903 166.79845,49.257431 166.24362,49.750695 C 164.9573,50.894283 164.60247,50.878534 164.13319,49.657024 z M 173.84185,48.296812 C 174.30312,48.112442 174.85423,48.135117 175.06656,48.3472 C 175.27889,48.559283 174.90149,48.710132 174.2279,48.682418 C 173.48353,48.651793 173.33212,48.500556 173.84185,48.296812 z M 179.55272,46.378113 C 178.9377,46.217578 178.4345,45.859907 178.4345,45.583291 C 178.4345,44.93236 181.53997,45.518958 181.99603,46.256035 C 182.35638,46.838407 181.48324,46.882033 179.55272,46.378113 z M 169.13171,43.925673 C 169.8139,43.410285 170.82029,42.990374 171.36813,42.992537 C 171.91598,42.994699 171.54061,43.425514 170.53399,43.949904 C 168.21703,45.156894 167.51801,45.144816 169.13171,43.925673 z M 174.28115,42.35036 C 176.03992,41.595455 176.66518,41.595455 176.19808,42.35036 C 175.98088,42.701394 175.17318,42.968418 174.40318,42.943745 C 173.05343,42.900495 173.04905,42.879204 174.28115,42.35036 z M 78.30845,226.32436 C 80.845414,221.80742 77.938978,219.74643 71.847164,221.74257 C 67.60116,223.13389 65.974441,223.99572 65.974441,224.85389 C 65.974441,226.12 77.641964,227.511 78.30845,226.32436 z M 98.08425,222.92383 C 100.98296,222.59317 107.66773,222.05137 112.9393,221.71982 C 135.2901,220.3141 135.623,220.229 135.623,215.92119 C 135.623,212.32308 143.67139,203.18799 146.84148,203.18799 C 147.34863,203.18799 147.76358,202.86729 147.76358,202.47531 C 147.76358,202.07685 148.32704,201.9098 149.04153,202.09643 C 149.90795,202.32274 150.31949,202.11601 150.31949,201.45448 C 150.31949,200.69625 150.51648,200.64201 151.20307,201.21118 C 153.18082,202.85068 156.11058,197.58496 154.62239,195.06557 C 153.00554,192.32835 153.57441,191.62248 155.25744,194.27759 C 156.52093,196.27086 156.52093,196.27086 158.88131,193.51646 C 160.17951,192.00153 160.94074,190.66186 160.57292,190.53939 C 160.2051,190.41693 159.90415,189.95178 159.90415,189.50574 C 159.90415,189.05971 159.25719,187.95854 158.46645,187.05871 C 155.14607,183.28025 154.15335,181.98552 154.15335,181.43346 C 154.15335,181.11224 153.69859,180.84943 153.14277,180.84943 C 152.30156,180.84943 152.3772,181.25055 153.59413,183.24285 C 155.17388,185.82913 154.74002,185.6707 150.97236,182.28548 C 149.14049,180.63955 147.44128,180.36639 147.99465,181.8068 C 148.19694,182.33335 148.05046,182.76416 147.66914,182.76416 C 146.83582,182.76416 141.8589,177.59916 142.28353,177.17502 C 142.44712,177.01161 143.35612,177.6997 144.3035,178.70411 C 145.4239,179.89194 146.12496,180.25143 146.30907,179.7325 C 146.46475,179.29371 146.99947,178.9347 147.49734,178.9347 C 147.99521,178.9347 148.4113,178.43208 148.42199,177.81777 C 148.44049,176.75402 148.47243,176.75402 149.09272,177.81777 C 149.82918,179.08075 151.59744,179.33256 151.59744,178.17446 C 151.59744,177.75634 152.03721,177.97174 152.5747,178.65315 C 153.51849,179.84964 153.54576,179.83743 153.37135,178.29645 C 153.23204,177.06558 152.86258,176.73559 151.75512,176.85288 C 150.43992,176.99216 150.06042,176.5198 150.47923,175.26479 C 150.56709,175.00151 150.85463,174.85791 151.11821,174.94567 C 151.38179,175.03343 151.59744,174.81802 151.59744,174.46698 C 151.59744,174.07553 148.50905,173.82874 143.61022,173.82874 C 135.11347,173.82874 134.82545,173.9147 137.0607,175.78348 C 138.46927,176.96112 138.4496,176.96123 136.09049,175.78905 C 131.85633,173.68521 124.81389,178.0162 128.17495,180.65699 C 130.33392,182.35328 130.39173,183.1336 128.25482,181.73505 C 126.42928,180.54029 126.54784,180.48636 125.2078,183.12103 C 124.04101,185.41504 124.20272,185.71829 127.85416,188.08347 C 129.38001,189.07182 130.49091,190.01785 130.32282,190.18575 C 130.15473,190.35365 128.76253,189.6343 127.22905,188.58721 C 124.46097,186.69711 124.43135,186.69231 123.11553,187.92084 C 122.38659,188.60143 121.62898,188.99727 121.43197,188.80048 C 120.72467,188.094 117.04156,193.35989 116.04951,196.49598 C 114.46694,201.49891 117.84347,210.20868 121.36555,210.20868 C 121.82696,210.20868 122.20447,210.67466 122.20447,211.24419 C 122.20447,212.03811 122.0044,212.11386 121.34696,211.56886 C 120.42641,210.80574 119.64856,211.21806 119.64856,212.46913 C 119.64856,212.8933 120.56509,213.42344 121.6853,213.64722 C 123.13504,213.93684 123.52452,214.25141 123.03668,214.73869 C 122.54884,215.22596 121.74718,215.11121 120.25514,214.34054 C 117.95442,213.15215 116.06318,213.23139 106.86901,214.90144 C 103.88179,215.44404 97.06995,216.17411 91.731584,216.52381 C 80.801862,217.23979 75.665544,218.7696 78.716156,220.40037 C 79.850567,221.00679 80.513335,221.01721 81.582952,220.44542 C 82.673331,219.86254 83.570519,219.9069 85.731523,220.65058 C 87.248045,221.17246 88.936275,221.42796 89.483146,221.21834 C 90.229449,220.93229 90.36958,221.11802 90.044961,221.963 C 89.447245,223.51883 90.126389,224.37704 91.588506,223.91352 C 92.262457,223.69986 95.18554,223.2545 98.08425,222.92383 z M 123.16746,212.13072 C 122.9436,211.76893 123.20009,211.66193 123.76873,211.87989 C 124.87571,212.30418 125.07824,212.76166 124.15912,212.76166 C 123.82842,212.76166 123.38217,212.47774 123.16746,212.13072 z M 121.28709,206.5663 C 120.94033,205.65668 121.01372,205.58337 121.64479,206.20901 C 122.08148,206.64196 122.2778,207.15696 122.08107,207.35347 C 121.88433,207.54998 121.52704,207.19575 121.28709,206.5663 z M 144.70324,202.16625 C 144.25009,201.6751 144.16123,201.27326 144.50579,201.27326 C 145.16933,201.27326 146.12989,202.48733 145.75089,202.84696 C 145.62783,202.96372 145.1564,202.6574 144.70324,202.16625 z M 148.69577,199.31606 C 148.46412,198.94167 148.41163,198.49847 148.57912,198.33117 C 148.74661,198.16386 149.05392,198.47018 149.26203,199.01187 C 149.6941,200.13653 149.32583,200.33435 148.69577,199.31606 z M 144.56869,198.68261 C 144.56869,198.31086 144.85623,198.1842 145.20767,198.40116 C 145.55911,198.61811 145.84665,198.92227 145.84665,199.07707 C 145.84665,199.23187 145.55911,199.35852 145.20767,199.35852 C 144.85623,199.35852 144.56869,199.05436 144.56869,198.68261 z M 129.55724,197.4511 C 129.33338,197.0893 129.58987,196.98231 130.1585,197.20026 C 131.26548,197.62456 131.46802,198.08203 130.54889,198.08203 C 130.2182,198.08203 129.77195,197.79811 129.55724,197.4511 z M 146.91161,197.65654 C 146.67732,197.42252 146.48562,196.93426 146.48562,196.57152 C 146.48562,196.1716 146.78324,196.20928 147.24174,196.66726 C 147.65762,197.08265 147.84931,197.57091 147.66773,197.75227 C 147.48615,197.93364 147.1459,197.89056 146.91161,197.65654 z M 153.51438,197.087 C 153.51438,196.53973 153.80192,196.26947 154.15335,196.48642 C 154.50479,196.70337 154.79233,197.15114 154.79233,197.48146 C 154.79233,197.81178 154.50479,198.08203 154.15335,198.08203 C 153.80192,198.08203 153.51438,197.63427 153.51438,197.087 z M 143.76896,194.60871 C 143.1545,194.15991 142.65176,193.46537 142.65176,193.06528 C 142.65176,192.66518 143.2508,192.93619 143.98296,193.66751 C 145.52987,195.21264 145.39685,195.79768 143.76896,194.60871 z M 150.70691,193.24187 C 150.4681,192.62027 150.61091,192.32849 151.07784,192.48395 C 152.03301,192.80198 152.55892,194.25257 151.71905,194.25257 C 151.37593,194.25257 150.92047,193.79775 150.70691,193.24187 z M 136.53215,191.51331 C 135.15353,190.36207 133.20988,188.90484 132.21293,188.27502 C 131.21599,187.64519 130.55576,186.9746 130.74576,186.78481 C 130.93577,186.59503 132.22414,187.336 133.60881,188.43142 C 134.99348,189.52684 136.30067,190.4231 136.51367,190.4231 C 137.10047,190.4231 139.6015,193.04436 139.30105,193.34446 C 139.15678,193.48857 137.91077,192.66455 136.53215,191.51331 z M 156.09277,192.37979 C 155.28327,190.86896 155.24569,190.23318 155.99316,190.69461 C 156.55696,191.04266 157.43622,193.61432 156.99141,193.61432 C 156.86096,193.61432 156.45657,193.05878 156.09277,192.37979 z M 142.72419,189.30617 C 136.36349,183.77489 135.34473,182.76513 136.12428,182.76466 C 136.89633,182.7642 146.56095,191.65518 145.82131,191.68547 C 145.63166,191.69324 144.23796,190.62255 142.72419,189.30617 z M 152.23642,191.16772 C 152.23642,190.75818 151.80511,190.4231 151.27796,190.4231 C 150.7508,190.4231 150.31949,190.13589 150.31949,189.78485 C 150.31949,189.43382 149.74441,188.57219 149.04153,187.87012 C 148.33866,187.16805 147.47604,186.59363 147.1246,186.59363 C 146.77316,186.59363 146.48562,186.23191 146.48562,185.78979 C 146.48562,185.34768 145.92378,184.63548 145.23708,184.20712 C 144.55038,183.77876 143.64644,182.77625 143.22831,181.9793 C 142.81019,181.18235 144.30654,182.25357 146.55353,184.35977 C 151.39197,188.89506 153.16498,190.98484 152.62875,191.52045 C 152.41297,191.73599 152.23642,191.57726 152.23642,191.16772 z M 146.80054,189.62502 C 144.03337,187.78242 141.97327,185.04123 144.23743,186.21456 C 145.997,187.12638 149.38218,190.31005 148.97861,190.67348 C 148.8375,190.80055 147.85737,190.32875 146.80054,189.62502 z M 157.44596,189.42507 C 157.01963,188.49045 156.97417,187.95832 157.33996,188.18413 C 158.27775,188.76305 159.40507,191.06134 158.75125,191.06134 C 158.44385,191.06134 157.85647,190.32502 157.44596,189.42507 z M 138.47213,189.74239 C 137.78442,188.63093 138.56767,188.39554 139.44405,189.45031 C 139.94804,190.05689 139.99652,190.4231 139.57282,190.4231 C 139.19909,190.4231 138.70378,190.11678 138.47213,189.74239 z M 152.39617,187.97573 C 151.25399,186.8052 150.31949,185.68802 150.31949,185.49312 C 150.31949,185.29821 149.81629,184.7572 149.20128,184.29088 C 148.20746,183.53733 148.19889,183.44075 149.12431,183.4227 C 150.20869,183.40157 155.0504,188.8122 154.68281,189.63436 C 154.56733,189.89265 153.53834,189.14626 152.39617,187.97573 z M 135.88178,187.139 C 134.67106,185.77698 134.67224,185.77368 136.10224,186.52321 C 136.89297,186.93768 137.53994,187.55389 137.53994,187.89257 C 137.53994,188.79929 137.23407,188.66029 135.88178,187.139 z M 128.23714,185.66801 C 127.03921,184.77403 127.04596,184.75475 128.4345,185.1042 C 129.22524,185.3032 129.8722,185.71973 129.8722,186.02982 C 129.8722,186.78936 129.68394,186.7477 128.23714,185.66801 z M 133.06709,184.64123 C 133.06709,184.26948 133.35463,184.14282 133.70607,184.35977 C 134.05751,184.57673 134.34505,184.88089 134.34505,185.03569 C 134.34505,185.19049 134.05751,185.31714 133.70607,185.31714 C 133.35463,185.31714 133.06709,185.01298 133.06709,184.64123 z M 140.41534,183.40241 C 139.77924,182.70034 139.54634,182.12592 139.89778,182.12592 C 140.24921,182.12592 141.05719,182.70034 141.69329,183.40241 C 142.32939,184.10448 142.56229,184.6789 142.21085,184.6789 C 141.85941,184.6789 141.05143,184.10448 140.41534,183.40241 z M 132.78522,181.14826 C 131.79228,180.39809 131.74481,180.21118 132.54724,180.21118 C 133.09853,180.21118 133.90755,180.642 134.34505,181.16855 C 135.35708,182.38658 134.40796,182.37423 132.78522,181.14826 z M 138.17891,180.84943 C 137.60301,180.47768 137.5242,180.22683 137.98146,180.22096 C 138.40001,180.21558 138.92018,180.49839 139.13738,180.84943 C 139.62767,181.64183 139.40647,181.64183 138.17891,180.84943 z M 129.23323,178.99445 C 129.23323,178.67628 129.80831,178.56617 130.51118,178.74976 C 131.21406,178.93336 131.78914,179.19368 131.78914,179.32826 C 131.78914,179.46283 131.21406,179.57294 130.51118,179.57294 C 129.80831,179.57294 129.23323,179.31262 129.23323,178.99445 z M 134.80967,178.29645 C 133.91611,177.59438 132.66966,177.01996 132.03979,177.01996 C 131.18573,177.01996 131.07889,176.83585 131.61955,176.29581 C 132.16022,175.75577 133.03699,176.08031 135.06812,177.5723 C 136.56609,178.67265 137.48629,179.57294 137.11301,179.57294 C 136.73973,179.57294 135.70323,178.99852 134.80967,178.29645 z M 159.90415,185.70455 C 159.90415,185.21555 159.50539,184.66262 159.01801,184.47581 C 158.39636,184.23754 158.22788,184.50291 158.45356,185.3649 C 158.82353,186.77807 159.90415,187.0311 159.90415,185.70455 z M 162.16041,185.34919 C 161.92521,184.96908 161.43441,184.84227 161.06974,185.06739 C 160.64043,185.33241 160.70578,185.66133 161.25513,186.00047 C 162.28054,186.63347 162.74728,186.29769 162.16041,185.34919 z M 61.921208,178.47467 C 64.223183,172.97158 61.835601,167.53041 58.525185,170.73531 C 55.938181,173.23986 55.91078,173.74611 58.146965,177.72305 C 60.256264,181.47434 60.634884,181.54974 61.921208,178.47467 z M 156.07029,178.29645 C 156.07029,177.59438 155.78275,177.01996 155.43131,177.01996 C 155.07987,177.01996 154.79233,177.59438 154.79233,178.29645 C 154.79233,178.99852 155.07987,179.57294 155.43131,179.57294 C 155.78275,179.57294 156.07029,178.99852 156.07029,178.29645 z M 153.51438,174.18553 C 153.51438,174.03073 153.22684,173.72657 152.8754,173.50962 C 152.52396,173.29266 152.23642,173.41932 152.23642,173.79107 C 152.23642,174.16282 152.52396,174.46698 152.8754,174.46698 C 153.22684,174.46698 153.51438,174.34033 153.51438,174.18553 z M 124.09581,59.814796 C 126.45403,59.524976 126.7449,59.352366 125.78203,58.814136 C 123.99962,57.817796 112.6774,58.489096 110.38339,59.727126 C 108.39142,60.802146 115.68267,60.848766 124.09581,59.814796 z M 58.41884,55.7261 C 58.655796,53.244232 58.542489,53.063618 55.450811,50.994996 C 51.819452,48.565276 50.962451,49.300808 52.624541,53.420677 C 54.845463,58.925746 57.993759,60.178376 58.41884,55.7261 z M 116.77316,53.838763 C 113.93376,53.117085 111.98083,53.117085 111.98083,53.838763 C 111.98083,54.192801 113.47463,54.443381 115.33546,54.401493 C 118.20291,54.336946 118.41171,54.255222 116.77316,53.838763 z M 154.09463,41.183465 C 154.76105,39.939688 150.47075,37.244403 147.82452,37.244403 C 142.76725,37.244403 138.62719,32.328923 141.3738,29.585468 C 143.31677,27.644725 141.38473,28.059702 139.33209,30.024 C 137.00196,32.253842 137.07024,33.590915 139.61661,35.595455 C 141.69329,37.230248 141.69329,37.230248 137.74128,37.237326 C 133.11247,37.245615 130.73635,36.493205 130.31965,34.88723 C 130.08069,33.966238 130.00553,34.020231 129.94633,35.155395 C 129.82771,37.429965 132.4375,38.561085 140.23484,39.614575 C 144.19993,40.150293 148.59425,40.948789 150,41.38901 C 153.50328,42.48609 153.39374,42.491588 154.09463,41.183465 z M 156.73174,38.17472 C 157.35127,37.429085 157.37025,37.011088 156.80998,36.45146 C 156.40315,36.045096 156.07029,35.195638 156.07029,34.563776 C 156.07029,33.931914 155.78275,33.414936 155.43131,33.414936 C 155.07987,33.414936 154.79233,33.845751 154.79233,34.372302 C 154.79233,34.898854 154.37799,35.329669 153.87158,35.329669 C 153.36516,35.329669 152.77514,35.61359 152.56043,35.960603 C 152.34383,36.310678 152.57639,36.435789 153.08286,36.241658 C 153.68023,36.012691 154.13755,36.456352 154.40618,37.525458 C 154.87583,39.394548 155.5596,39.585445 156.73174,38.17472 z M 154.15335,32.419902 C 154.15335,31.914067 153.86581,31.500202 153.51438,31.500202 C 153.16294,31.500202 152.8754,32.091573 152.8754,32.814358 C 152.8754,33.537144 153.16294,33.951009 153.51438,33.734058 C 153.86581,33.517106 154.15335,32.925737 154.15335,32.419902 z"
         style="fill:#000000" />
    </g>
  </g>
</svg>
