<?xml version="1.0" encoding="UTF-8" standalone="no"?>
<!-- Created with Inkscape (http://www.inkscape.org/) -->
<svg
   xmlns:dc="http://purl.org/dc/elements/1.1/"
   xmlns:cc="http://creativecommons.org/ns#"
   xmlns:rdf="http://www.w3.org/1999/02/22-rdf-syntax-ns#"
   xmlns:svg="http://www.w3.org/2000/svg"
   xmlns="http://www.w3.org/2000/svg"
   xmlns:sodipodi="http://sodipodi.sourceforge.net/DTD/sodipodi-0.dtd"
   xmlns:inkscape="http://www.inkscape.org/namespaces/inkscape"
   width="200.00002"
   height="206"
   id="svg2"
   sodipodi:version="0.32"
   inkscape:version="0.46"
   version="1.0"
   sodipodi:docname="martlet_volant.svg"
   inkscape:output_extension="org.inkscape.output.svg.inkscape">
  <defs
     id="defs4">
    <inkscape:perspective
       sodipodi:type="inkscape:persp3d"
       inkscape:vp_x="0 : 526.18109 : 1"
       inkscape:vp_y="0 : 1000 : 0"
       inkscape:vp_z="744.09448 : 526.18109 : 1"
       inkscape:persp3d-origin="372.04724 : 350.78739 : 1"
       id="perspective10" />
    <inkscape:perspective
       id="perspective8826"
       inkscape:persp3d-origin="372.04724 : 350.78739 : 1"
       inkscape:vp_z="744.09448 : 526.18109 : 1"
       inkscape:vp_y="0 : 1000 : 0"
       inkscape:vp_x="0 : 526.18109 : 1"
       sodipodi:type="inkscape:persp3d" />
    <inkscape:perspective
       sodipodi:type="inkscape:persp3d"
       inkscape:vp_x="0 : 526.18109 : 1"
       inkscape:vp_y="0 : 1000 : 0"
       inkscape:vp_z="744.09448 : 526.18109 : 1"
       inkscape:persp3d-origin="372.04724 : 350.78739 : 1"
       id="perspective2459" />
    <inkscape:perspective
       sodipodi:type="inkscape:persp3d"
       inkscape:vp_x="0 : 526.18109 : 1"
       inkscape:vp_y="0 : 1000 : 0"
       inkscape:vp_z="744.09448 : 526.18109 : 1"
       inkscape:persp3d-origin="372.04724 : 350.78739 : 1"
       id="perspective2410" />
    <inkscape:perspective
       id="perspective2425"
       inkscape:persp3d-origin="372.04724 : 350.78739 : 1"
       inkscape:vp_z="744.09448 : 526.18109 : 1"
       inkscape:vp_y="0 : 1000 : 0"
       inkscape:vp_x="0 : 526.18109 : 1"
       sodipodi:type="inkscape:persp3d" />
    <inkscape:perspective
       id="perspective3257"
       inkscape:persp3d-origin="372.04724 : 350.78739 : 1"
       inkscape:vp_z="744.09448 : 526.18109 : 1"
       inkscape:vp_y="0 : 1000 : 0"
       inkscape:vp_x="0 : 526.18109 : 1"
       sodipodi:type="inkscape:persp3d" />
    <inkscape:perspective
       id="perspective2492"
       inkscape:persp3d-origin="372.04724 : 350.78739 : 1"
       inkscape:vp_z="744.09448 : 526.18109 : 1"
       inkscape:vp_y="0 : 1000 : 0"
       inkscape:vp_x="0 : 526.18109 : 1"
       sodipodi:type="inkscape:persp3d" />
    <inkscape:perspective
       id="perspective3181"
       inkscape:persp3d-origin="372.04724 : 350.78739 : 1"
       inkscape:vp_z="744.09448 : 526.18109 : 1"
       inkscape:vp_y="0 : 1000 : 0"
       inkscape:vp_x="0 : 526.18109 : 1"
       sodipodi:type="inkscape:persp3d" />
  </defs>
  <sodipodi:namedview
     id="base"
     pagecolor="#ffffff"
     bordercolor="#666666"
     borderopacity="1.0"
     gridtolerance="10000"
     guidetolerance="10"
     objecttolerance="10"
     inkscape:pageopacity="0.0"
     inkscape:pageshadow="2"
     inkscape:zoom="3.2812498"
     inkscape:cx="100"
     inkscape:cy="112.00001"
     inkscape:document-units="px"
     inkscape:current-layer="layer1"
     showgrid="false"
     inkscape:window-width="1679"
     inkscape:window-height="963"
     inkscape:window-x="1"
     inkscape:window-y="57" />
  <metadata
     id="metadata7">
    <rdf:RDF>
      <cc:Work
         rdf:about="">
        <dc:format>image/svg+xml</dc:format>
        <dc:type
           rdf:resource="http://purl.org/dc/dcmitype/StillImage" />
      </cc:Work>
    </rdf:RDF>
  </metadata>
  <g
     inkscape:label="Layer 1"
     inkscape:groupmode="layer"
     id="layer1"
     transform="translate(-252.83811,-298.16218)">
    <g
       id="g2506"
       transform="translate(202.83811,251.16218)">
      <path
         id="path7657"
         d="M 216.57511,250.37806 C 211.6584,248.57824 199.80183,245.03287 190.22718,242.49947 C 145.4479,230.65107 138.91453,228.61952 122.94588,221.57843 C 86.182354,205.36819 77.042246,192.06844 97.433439,184.45532 C 103.01046,182.37312 112.12441,177.09015 112.12441,175.93959 C 112.12441,175.54214 108.75497,174.4905 104.63676,173.60259 C 97.34884,172.03129 84.714181,166.62358 79.446961,162.8212 C 76.091642,160.39902 56.171529,153.34835 52.683507,153.34835 C 47.348021,153.34835 49.945383,150.64103 60.684814,145.0083 C 68.953158,140.67164 71.182782,140.4185 84.973686,142.25073 C 91.2997,143.09119 94.746893,143.09924 99.195295,142.28393 C 102.42469,141.69205 107.74409,140.93653 111.01618,140.605 C 119.91738,139.70313 119.39584,134.59894 110.11909,131.82546 C 80.891222,123.08718 82.101794,104.18512 113.06541,85.821201 C 125.06626,78.703727 147.25983,71.459011 190.69768,60.479458 C 202.6013,57.470644 218.13444,53.26124 225.21578,51.125225 C 246.06959,44.834878 256.2503,45.887208 245.93163,53.266518 C 243.70474,54.859056 241.10653,57.366458 240.15784,58.838521 C 238.3621,61.624895 231.07968,66.949512 229.05494,66.956501 C 228.4144,66.958711 225.8737,69.110566 223.40896,71.738397 C 218.65293,76.809111 210.23612,81.621322 199.63716,85.329633 C 194.14525,87.251113 192.33652,88.63502 181.92424,98.882297 C 172.49673,108.1604 169.17048,110.81311 164.14,113.06534 C 157.9522,115.83572 157.9522,115.83572 163.50347,119.15586 C 171.47024,123.92068 176.64232,129.28062 178.02352,134.20332 C 179.41529,139.16369 180.08902,139.25568 194.98591,136.51936 C 211.72287,133.44504 217.56094,131.60874 228.58412,125.95137 C 242.98712,118.55939 248.70276,118.77431 243.90093,126.52732 C 240.04745,132.74914 218.78905,145.07969 207.63563,147.56235 C 205.04789,148.13836 201.6603,148.88987 200.10766,149.23238 C 197.8197,149.73709 198.80059,150.08428 205.28314,151.06422 C 222.66968,153.69251 230.92326,157.56596 242.48112,168.52148 C 250.23985,175.87586 250.51176,176.4081 247.26445,177.88454 C 245.40097,178.73179 244.30491,178.48799 240.82291,176.45174 C 228.696,169.36 203.75175,164.1311 186.06658,164.97354 C 170.99213,165.69162 171.89021,165.40292 173.7371,168.93686 C 177.06919,175.31268 174.78597,183.6557 167.86321,190.40047 C 162.67979,195.4506 162.67979,195.4506 166.80826,196.55846 C 188.01606,202.24947 197.47179,207.7797 213.75212,224.01375 C 237.34549,247.54006 238.50911,258.40725 216.57511,250.37806 z"
         style="fill:#ffff00;fill-opacity:1" />
      <path
         id="path3185"
         d="M 216.57511,250.37806 C 211.6584,248.57824 199.80183,245.03287 190.22718,242.49947 C 145.4479,230.65108 138.91454,228.61952 122.94588,221.57843 C 86.182355,205.36819 77.042247,192.06844 97.433441,184.45532 C 103.01046,182.37312 112.12441,177.09015 112.12441,175.93959 C 112.12441,175.54214 108.75497,174.4905 104.63677,173.60259 C 97.348841,172.03129 84.714182,166.62358 79.446962,162.8212 C 76.091643,160.39902 56.171528,153.34835 52.683507,153.34835 C 47.348021,153.34835 49.945383,150.64103 60.684814,145.0083 C 68.953159,140.67163 71.182782,140.4185 84.973686,142.25073 C 91.299701,143.09119 94.746894,143.09924 99.195296,142.28393 C 102.4247,141.69205 107.74409,140.93653 111.01618,140.60499 C 119.91739,139.70314 119.39584,134.59894 110.1191,131.82546 C 80.891223,123.08718 82.101795,104.18512 113.06541,85.821199 C 125.06626,78.703726 147.25983,71.45901 190.69768,60.479457 C 202.6013,57.470643 218.13445,53.261238 225.21578,51.125223 C 246.06959,44.834876 256.25031,45.887206 245.93163,53.266516 C 243.70474,54.859054 241.10653,57.366456 240.15784,58.83852 C 238.36211,61.624894 231.07968,66.949511 229.05495,66.9565 C 228.4144,66.95871 225.87371,69.110564 223.40896,71.738396 C 218.65294,76.809109 210.23612,81.621321 199.63716,85.329632 C 194.14525,87.251112 192.33652,88.635019 181.92424,98.882296 C 172.49673,108.1604 169.17048,110.81311 164.14,113.06534 C 157.9522,115.83572 157.9522,115.83572 163.50347,119.15586 C 171.47024,123.92068 176.64232,129.28062 178.02352,134.20332 C 179.41529,139.16369 180.08902,139.25569 194.98591,136.51936 C 211.72288,133.44504 217.56095,131.60874 228.58412,125.95137 C 242.98713,118.55939 248.70276,118.77431 243.90093,126.52732 C 240.04745,132.74914 218.78905,145.07969 207.63564,147.56235 C 205.04789,148.13836 201.6603,148.88987 200.10766,149.23238 C 197.8197,149.73709 198.80059,150.08428 205.28314,151.06422 C 222.66969,153.69251 230.92326,157.56596 242.48112,168.52148 C 250.23985,175.87586 250.51177,176.4081 247.26445,177.88454 C 245.40097,178.73179 244.30491,178.48799 240.82291,176.45174 C 228.696,169.36 203.75175,164.1311 186.06658,164.97354 C 170.99213,165.69162 171.89021,165.40292 173.7371,168.93686 C 177.06919,175.31268 174.78597,183.6557 167.86321,190.40047 C 162.67979,195.4506 162.67979,195.4506 166.80826,196.55846 C 188.01606,202.24947 197.47179,207.7797 213.75212,224.01375 C 237.34549,247.54006 238.50911,258.40725 216.57511,250.37806 z M 225.25273,249.5419 C 219.04402,245.20238 203.19641,239.30448 168.58425,228.45194 C 156.80744,224.75936 152.26328,222.83421 155.32406,222.83421 C 156.0012,222.83421 160.84969,224.2577 166.09848,225.99752 C 171.34727,227.73735 182.15345,231.15448 190.11222,233.59115 C 207.33884,238.86527 221.21381,244.38061 225.54119,247.67425 C 229.66659,250.81416 230.32556,250.69345 227.86708,247.24816 C 226.7615,245.69881 225.28431,244.43116 224.58445,244.43116 C 223.88458,244.43116 220.41997,242.97178 216.8853,241.18809 C 208.0564,236.73278 191.3989,230.15528 181.25573,227.11915 C 161.0812,221.08035 157.26675,219.79665 156.67944,218.84839 C 156.28434,218.21047 156.71221,218.04136 157.85088,218.38541 C 158.83752,218.68353 164.09098,220.27224 169.52524,221.9159 C 174.9595,223.55956 181.94641,225.65554 185.0517,226.57364 C 194.15567,229.26525 212.79561,236.78178 219.2339,240.35754 C 226.23155,244.24396 227.66613,244.06887 221.98428,240.02185 C 212.71713,233.42112 197.33281,226.80623 171.11305,218.14844 C 148.5565,210.70025 143.90559,208.04368 164.54216,214.39521 C 191.26047,222.61856 208.71389,229.62169 218.69235,236.1228 C 225.22583,240.37944 225.71979,239.43783 219.71856,234.16656 C 212.39834,227.73674 193.78394,219.39387 166.24558,210.20027 C 150.24307,204.85788 146.41774,203.2596 152.58729,204.49363 C 155.97992,205.17222 179.81805,212.9096 183.1697,214.42007 C 184.2048,214.88655 187.80966,216.28012 191.1805,217.5169 C 194.55135,218.75368 199.98552,221.11366 203.25643,222.7613 C 217.77322,230.07379 216.79461,227.42944 202.09385,219.61984 C 188.75099,212.53161 173.11003,206.61724 157.28827,202.67734 C 143.24888,199.18129 141.11957,198.42026 145.3772,198.42026 C 154.80967,198.42026 200.17437,214.62795 202.85467,218.95553 C 203.21632,219.53946 203.99661,220.01721 204.58865,220.01721 C 214.08368,220.01721 178.50957,201.63477 160.8949,197.43907 C 144.09785,193.43811 135.64934,190.56529 135.64934,188.85463 C 135.64934,188.39844 136.4684,188.46262 137.46948,188.99724 C 140.07722,190.3899 142.30355,190.19963 144.27947,188.41524 C 146.24828,186.63727 146.89294,188.70294 144.96855,190.62324 C 142.38722,193.19909 158.42389,194.61475 161.98546,192.12543 C 164.25813,190.53697 164.21515,190.51395 155.93999,188.88865 C 146.56031,187.04642 144.41794,185.82814 148.10089,184.43085 C 149.42476,183.92859 150.70609,182.96216 150.94828,182.28322 C 151.19047,181.60428 151.74817,181.38492 152.18759,181.79574 C 152.62702,182.20657 152.48515,183.34386 151.87232,184.32307 C 150.95175,185.79399 151.03973,186.1853 152.37844,186.57437 C 161.30055,189.16745 171.93811,187.11301 167.408,183.67169 C 165.20681,181.99956 142.12113,177.77794 134.99023,177.74354 C 133.8514,177.73805 132.66192,177.31747 132.34695,176.80893 C 131.57937,175.5696 134.66018,175.6379 138.41318,176.94342 C 140.88879,177.80459 141.72167,177.73929 142.86934,176.59405 C 144.70344,174.76385 139.95051,172.87904 135.36775,173.61923 C 132.35585,174.1057 132.35585,174.1057 135.4091,172.69493 C 139.5147,170.79792 145.57136,172.64628 145.4551,175.76076 C 145.3929,177.42705 145.91826,177.7623 148.59175,177.7623 C 152.61289,177.7623 152.2758,176.12268 147.72305,173.5368 C 145.90452,172.50391 144.58653,171.16049 144.7942,170.55145 C 145.04637,169.81192 146.23132,170.16157 148.36147,171.60406 C 150.43965,173.01135 152.46947,173.62469 154.18646,173.36414 C 156.75068,172.97505 156.76577,172.99761 154.7457,174.20058 C 150.80691,176.54616 158.70626,180.53606 167.35246,180.56815 C 177.2211,180.60478 168.07635,172.35788 157.88997,172.03471 C 152.66425,171.86891 149.71394,170.75214 152.52718,170.00474 C 153.80696,169.66474 157.852,170.20664 161.6846,171.23152 C 169.47446,173.31461 170.82018,173.45944 169.99421,172.12584 C 167.38425,167.91179 151.44778,165.0918 146.03313,167.88588 C 143.82812,169.02371 141.97517,169.28566 139.53427,168.80461 C 137.65634,168.43451 136.64915,167.93935 137.29609,167.70426 C 139.19632,167.01373 138.66802,165.86338 135.54426,163.88975 C 133.83441,162.80946 133.03431,161.78191 133.62117,161.41998 C 134.17391,161.0791 134.38762,160.17989 134.09608,159.42176 C 133.80453,158.66363 134.00976,158.04334 134.55214,158.04334 C 136.21417,158.04334 136.81595,159.92714 135.61513,161.37096 C 134.67961,162.4958 134.83573,162.73833 136.4953,162.73833 C 137.73401,162.73833 138.9264,163.64441 139.58455,165.08582 C 140.8424,167.84062 141.51054,167.95116 144.61906,165.91869 C 148.19204,163.58256 158.3109,164.46959 164.75113,167.68351 C 170.51471,170.55976 172.19299,170.23054 168.39524,166.96866 C 163.06805,162.39317 147.36128,158.84224 145.52981,161.79933 C 145.20995,162.31578 143.72788,162.73833 142.23633,162.73833 C 140.74477,162.73833 139.2627,162.31578 138.94284,161.79933 C 138.61299,161.26677 139.40356,160.86033 140.76929,160.86033 C 144.00176,160.86033 143.81209,159.35812 140.35433,157.57384 C 138.80169,156.77264 137.53134,156.00864 137.53134,155.87606 C 137.53134,155.15225 149.51693,155.43149 150.7053,156.18298 C 151.7209,156.82522 150.94229,157.07961 147.92935,157.08996 C 141.47003,157.11214 144.58695,158.72556 152.11679,159.25752 C 155.73963,159.51345 159.7624,160.00527 161.05627,160.35044 C 163.40876,160.97802 163.40876,160.97802 161.05627,159.54396 C 159.7624,158.75522 157.2217,158.06521 155.41028,158.01061 C 152.88746,157.93457 152.54256,157.74496 153.93632,157.20032 C 156.11444,156.34918 154.85389,155.31594 150.31694,154.23361 C 147.41181,153.54058 147.41181,153.54058 150.3832,153.44446 C 153.79591,153.33407 162.16685,157.26104 166.05992,160.79869 C 168.71106,163.20783 168.71106,163.20783 189.11435,163.21831 C 200.33615,163.22409 210.78798,163.55044 212.34062,163.94353 C 214.46237,164.48072 215.7213,164.21996 217.40868,162.8938 C 220.70042,160.30672 217.31423,155.78509 211.03361,154.3811 C 204.56577,152.93526 188.69339,151.18601 187.2512,151.76011 C 186.55903,152.03564 187.3939,152.29444 189.10648,152.33521 C 193.7017,152.44462 191.80357,154.29007 187.11341,154.27297 C 184.59786,154.26379 183.62423,153.97107 184.42485,153.46464 C 186.10353,152.40278 183.72083,151.47035 179.32875,151.47035 C 174.94441,151.47035 175.22829,149.62917 179.64096,149.44538 C 196.03288,148.76264 207.10329,146.3457 218.71415,140.91477 C 223.93938,138.47068 226.6409,136.72521 226.07399,136.1595 C 225.50709,135.5938 224.24358,135.99942 222.6318,137.26455 C 221.23122,138.3639 219.61309,139.25626 219.03595,139.24755 C 218.45881,139.23886 219.36281,138.35227 221.04485,137.27735 C 226.49157,133.79659 223.37741,131.95607 215.87647,134.22276 C 207.05793,136.8876 188.63301,140.11078 178.46472,140.76741 C 168.64467,141.40156 168.28267,141.49687 171.40724,142.62567 C 174.70073,143.81549 174.70073,143.81549 171.70375,143.88692 C 170.0554,143.92621 167.51471,143.47938 166.05776,142.89394 C 161.64908,141.12246 140.9829,141.05385 122.00488,142.74769 C 104.46018,144.3136 91.338952,144.62991 75.425514,143.87054 C 67.555606,143.495 67.328719,143.54657 61.310554,147.0788 C 55.194071,150.66874 55.194071,150.66874 59.76429,150.05797 C 62.926176,149.63542 64.141446,149.75893 63.707994,150.45878 C 63.363411,151.01514 62.15371,151.5002 61.01977,151.53668 C 58.5088,151.61746 64.630659,154.49533 73.073021,157.20288 C 76.178312,158.19878 81.471422,160.69411 84.835488,162.74806 C 88.199553,164.80202 91.09312,166.06263 91.265636,165.54942 C 91.438153,165.03621 91.954174,164.61632 92.41235,164.61632 C 92.870527,164.61632 92.973449,165.3235 92.641066,166.18784 C 92.183234,167.3784 92.418504,167.61316 93.611597,167.1563 C 94.477771,166.82463 95.186459,166.99102 95.186459,167.52606 C 95.186459,168.07557 96.015648,168.23625 97.092091,167.89533 C 98.332319,167.50253 98.907326,167.68536 98.738837,168.41893 C 98.596449,169.03885 99.00926,169.73973 99.656196,169.97643 C 100.30313,170.21315 100.83244,169.94905 100.83244,169.38956 C 100.83244,168.83008 101.3012,168.37232 101.87412,168.37232 C 102.44704,168.37232 102.67205,169.00614 102.37415,169.78081 C 102.00573,170.73886 102.42494,171.18931 103.68497,171.18931 C 104.70427,171.18931 105.53743,170.55582 105.53743,169.78081 C 105.53743,168.31901 106.64953,167.91705 107.72493,168.99017 C 108.06547,169.32999 107.87247,170.17509 107.29604,170.86816 C 106.47526,171.85504 106.68109,172.12831 108.2452,172.12831 C 109.34367,172.12831 110.24242,171.70576 110.24242,171.18931 C 110.24242,170.67286 110.87759,170.25031 111.65391,170.25031 C 112.45156,170.25031 113.06541,169.40949 113.06541,168.3169 C 113.06541,167.15013 113.47577,166.63656 114.10029,167.02172 C 114.84646,167.4819 114.8557,167.13887 114.1334,165.7921 C 113.58242,164.76478 113.4034,163.65305 113.73557,163.32159 C 114.06774,162.99012 113.68345,162.1951 112.88159,161.55488 C 110.80352,159.89569 110.19324,156.43602 111.75106,155.14589 C 112.50096,154.52484 113.06541,154.4541 113.06541,154.98115 C 113.06541,155.48922 114.22989,155.72001 115.65315,155.49403 C 118.24089,155.08313 118.24089,155.08313 115.90246,156.96851 C 112.92114,159.37222 113.83948,160.38354 117.35217,158.56501 C 120.85673,156.75068 121.67987,157.65597 118.69733,160.04442 C 116.43285,161.85783 116.42586,161.89834 118.47614,161.32542 C 121.09839,160.59266 121.32189,162.38105 118.71139,163.20783 C 116.02313,164.05923 116.24403,166.46902 118.94664,165.77408 C 120.74942,165.31051 120.89039,165.441 119.8958,166.65262 C 119.25336,167.43527 118.96699,168.31438 119.25944,168.6062 C 121.7663,171.10774 111.55385,180.61178 101.30294,185.3171 C 91.446731,189.84126 89.540475,191.31269 89.540475,194.39651 C 89.540475,197.48768 98.173794,206.43321 104.12402,209.50743 C 129.9978,222.8753 143.55111,227.9552 174.70073,235.96023 C 198.60025,242.10207 210.74416,245.57813 218.4571,248.48501 C 225.7218,251.22295 228.21198,251.61024 225.25273,249.5419 z M 152.30077,226.27793 C 147.80136,220.39143 136.8183,214.71609 140.11256,219.97984 C 141.59785,222.35311 139.53256,224.07452 136.20096,223.24012 C 132.73643,222.37243 132.36715,221.21421 135.71118,221.70397 C 139.35823,222.2381 138.55726,219.32423 134.8398,218.53396 C 133.47363,218.24353 130.37077,217.40208 127.94456,216.66407 C 125.51834,215.92605 122.5542,215.31294 121.35757,215.3016 C 117.80788,215.26796 111.18341,211.84206 111.18341,210.03996 C 111.18341,208.63886 111.48079,208.70065 113.40097,210.50074 C 115.69497,212.65125 122.47538,214.37311 122.47538,212.80514 C 122.47538,210.68353 118.4232,207.64628 116.16687,208.07669 C 114.72204,208.3523 113.66806,208.02299 113.3503,207.19669 C 113.0602,206.44229 112.14201,206.09814 111.20836,206.39384 C 110.30956,206.6785 108.56005,206.50661 107.32055,206.01185 C 105.61052,205.32926 105.47541,205.09792 106.76041,205.05277 C 107.69182,205.02002 109.73562,204.33184 111.30218,203.52346 C 114.01171,202.12528 114.17524,202.14815 114.65869,203.99296 C 114.99293,205.26837 115.93466,205.93224 117.40965,205.93224 C 120.08607,205.93224 123.14381,208.74708 123.95022,211.95325 C 124.74481,215.11242 137.53134,219.36505 137.53134,216.47016 C 137.53134,214.94505 134.54143,211.56623 133.19187,211.56623 C 130.64911,211.56623 123.55551,207.85641 122.0807,205.7553 C 120.1816,203.04971 121.23147,202.07359 123.30109,204.62063 C 126.85258,208.99137 134.43199,211.47548 134.93406,208.43326 C 135.22389,206.67709 135.46879,206.84719 136.74096,209.68823 C 138.42942,213.45897 139.90251,214.83004 146.54646,218.81471 C 151.15118,221.57635 151.36845,221.61581 152.45052,219.88681 C 153.82886,217.68443 150.77395,214.47532 144.05921,211.07195 C 141.69774,209.87503 139.21106,208.22895 138.53326,207.41399 C 137.85546,206.59902 136.36042,205.93224 135.21094,205.93224 C 134.06146,205.93224 130.61986,205.04671 127.56293,203.96439 C 117.43026,200.37687 112.7953,199.35299 111.50924,200.41807 C 110.18449,201.51517 104.94334,200.67902 104.0441,199.22712 C 103.68296,198.64403 104.67684,198.52637 106.7249,198.90976 C 109.20479,199.37401 110.11424,199.16897 110.54513,198.04847 C 111.04807,196.74062 111.58026,196.77875 115.35396,198.3929 C 119.90403,200.33915 121.15384,199.78361 120.04789,196.30647 C 119.44501,194.411 119.53588,194.33783 120.99357,195.54503 C 121.88053,196.27957 122.41654,197.60439 122.1847,198.48906 C 121.86405,199.71262 122.80544,200.43236 126.11852,201.49669 C 130.87643,203.02519 132.12186,202.214 129.48359,199.30492 C 127.94185,197.60494 127.93856,197.48126 129.43504,197.48126 C 130.38403,197.48126 131.61001,198.84166 132.43361,200.80861 C 133.19987,202.63865 134.55448,204.35969 135.44383,204.63315 C 136.33319,204.9066 138.42957,205.72292 140.10245,206.44719 C 143.32964,207.84437 146.00031,207.42518 146.00031,205.52146 C 146.00031,204.29677 138.34033,198.42026 136.74396,198.42026 C 136.22134,198.42026 134.47488,197.31287 132.86294,195.95939 C 130.16722,193.69591 129.80012,193.61774 128.2863,194.98482 C 126.65786,196.4554 122.01938,196.16019 122.9574,194.64566 C 123.21087,194.23641 124.37059,194.13557 125.53456,194.42156 C 128.86216,195.23917 126.51142,193.39308 122.63361,192.14338 C 119.4125,191.10531 119.57481,191.06636 125.06312,191.56041 C 132.07358,192.1915 133.35805,190.23923 127.19519,188.3199 C 120.70598,186.29894 117.36147,187.96153 117.26605,193.25577 C 117.23165,195.16458 112.9972,195.52417 106.71368,194.15188 C 102.36262,193.20163 104.78716,192.13824 109.39807,192.97452 C 114.95495,193.98236 115.90731,193.52307 113.58051,190.95746 C 111.95824,189.16867 111.98696,189.12248 114.60569,189.30845 C 116.85947,189.4685 117.34589,189.10534 117.58127,187.08691 C 117.82542,184.99322 118.22997,184.72785 120.63951,185.08074 C 123.74725,185.53589 124.42205,183.86762 121.88038,182.01306 C 120.56925,181.05638 120.77277,180.89229 123.27044,180.89229 C 125.90272,180.89229 126.13863,181.12239 125.62008,183.18407 C 124.9474,185.85853 126.41705,187.11666 130.23861,187.1379 C 131.9179,187.14723 132.82635,186.65781 132.82635,185.74378 C 132.82635,184.96911 132.21617,184.33528 131.47039,184.33528 C 130.72461,184.33528 129.85667,183.9191 129.54162,183.41043 C 129.18822,182.83984 130.03179,182.69771 131.74385,183.03939 C 134.00562,183.49079 134.63516,183.22766 135.14753,181.61676 C 135.84814,179.414 137.14948,179.02025 137.80048,180.81404 C 138.14078,181.75173 138.62967,181.75013 140.23139,180.80609 C 141.97477,179.77854 142.23633,179.84592 142.23633,181.32254 C 142.23633,182.25652 142.74446,183.52775 143.36552,184.14748 C 145.00993,185.7884 143.01638,185.52681 140.50611,183.77228 C 137.87371,181.93239 135.26148,183.7036 134.41175,187.90453 C 134.12982,189.29836 133.64141,191.10297 133.32639,191.91476 C 132.3312,194.47936 141.18554,197.12052 142.68143,194.70527 C 142.98732,194.21137 143.85307,194.04297 144.60533,194.33102 C 145.69145,194.74691 145.54625,195.19962 143.90017,196.52971 C 142.76008,197.45095 141.28414,197.9967 140.6203,197.74251 C 138.10792,196.78046 139.58076,198.21223 144.12829,201.15267 C 148.87058,204.21904 149.02589,204.74032 146.18184,208.04499 C 145.40402,208.94877 145.19213,209.68823 145.71097,209.68823 C 149.224,209.68823 155.71669,217.95111 154.50236,220.87653 C 153.53401,223.20937 153.50583,224.38561 154.3728,226.28436 C 156.01778,229.88705 155.05716,229.88406 152.30077,226.27793 z M 101.80893,204.48108 C 102.42424,203.74124 103.30315,203.36748 103.76206,203.6505 C 105.21114,204.54418 104.66913,205.52713 102.64331,205.67941 C 101.04946,205.79921 100.89598,205.57877 101.80893,204.48108 z M 96.014806,195.93731 C 94.86868,194.55925 94.970023,194.46916 96.958063,195.0988 C 98.441199,195.56853 99.443469,195.38756 99.95776,194.55719 C 100.9594,192.93995 102.17529,194.14288 101.44872,196.03226 C 100.71578,197.93821 97.634157,197.88437 96.014806,195.93731 z M 124.48152,178.77786 C 123.59426,178.23066 123.85064,177.86801 125.41298,177.46031 C 128.03562,176.77594 128.58008,177.15245 126.9363,178.51378 C 126.25797,179.07554 125.15637,179.19405 124.48152,178.77786 z M 126.77637,173.17468 C 126.49309,172.71728 127.42085,172.12078 128.83808,171.8491 C 131.74846,171.29119 132.35021,171.5571 131.45355,173.00483 C 130.70313,174.21645 127.49377,174.33299 126.77637,173.17468 z M 128.12137,169.31131 C 128.12137,168.79486 129.01765,168.37232 130.11311,168.37232 C 131.64157,168.37232 131.99038,167.93549 131.6127,166.49432 C 131.30702,165.32788 131.58383,164.61632 132.34327,164.61632 C 134.08204,164.61632 134.94058,167.43117 133.66836,168.96083 C 132.43525,170.44349 128.12137,170.71605 128.12137,169.31131 z M 102.24394,161.79933 C 101.61628,160.78591 102.41061,158.98233 103.48462,158.98233 C 103.84713,158.98233 104.67262,159.82743 105.31905,160.86033 C 106.34345,162.49717 106.25882,162.73833 104.65994,162.73833 C 103.651,162.73833 102.5638,162.31578 102.24394,161.79933 z M 129.17483,160.46569 C 130.38043,159.21573 131.72281,158.41259 132.15789,158.68092 C 133.23484,159.34509 130.04799,162.73833 128.34726,162.73833 C 127.38332,162.73833 127.62622,162.07127 129.17483,160.46569 z M 107.58923,159.68658 C 107.86313,157.76207 109.19044,157.06665 109.38144,158.74758 C 109.42545,159.13492 109.90075,159.98002 110.43766,160.62558 C 111.16812,161.50386 110.89463,161.79933 109.35119,161.79933 C 107.75037,161.79933 107.35586,161.32627 107.58923,159.68658 z M 181.75821,160.68956 C 183.56963,160.18492 186.32205,159.65345 187.87469,159.50854 C 190.69768,159.24506 190.69768,159.24506 187.87469,159.76316 C 185.25488,160.24398 185.35647,160.32575 189.28619,160.89927 C 192.76565,161.40707 192.17841,161.52527 185.9927,161.56218 C 179.51733,161.60081 178.92523,161.4788 181.75821,160.68956 z M 200.40172,161.15789 C 201.08101,160.88664 201.89261,160.91999 202.2053,161.23201 C 202.51798,161.54404 201.9622,161.76597 200.97024,161.72519 C 199.87403,161.68014 199.65106,161.45764 200.40172,161.15789 z M 169.52524,160.26705 C 169.52524,159.79138 171.3249,159.50118 173.52448,159.62214 C 177.52372,159.84207 177.52372,159.84207 173.28923,158.85974 C 170.96026,158.31945 168.6313,157.43923 168.11375,156.90368 C 167.46741,156.23488 168.05674,156.127 169.99574,156.55918 C 171.54839,156.90525 174.51253,157.56016 176.58272,158.01455 C 178.83713,158.50936 180.70524,158.49251 181.24066,157.97252 C 181.79566,157.43351 181.37074,157.10434 180.11995,157.10434 C 179.01189,157.10434 177.91054,156.78743 177.67251,156.40009 C 176.89887,155.14116 192.36805,155.22653 200.57816,156.5265 C 208.57663,157.79295 208.57663,157.79295 197.04713,157.30518 C 187.12875,156.88556 185.27396,157.03744 183.77398,158.39201 C 181.85602,160.12407 169.52524,161.74671 169.52524,160.26705 z M 163.87926,157.36945 C 159.34879,154.26412 158.51039,153.34835 160.19786,153.34835 C 161.76087,153.34835 168.38164,158.56348 167.64325,159.21303 C 167.38447,159.44067 165.69068,158.61105 163.87926,157.36945 z M 192.81493,159.29945 C 193.46186,159.03896 194.52048,159.03896 195.16742,159.29945 C 195.81436,159.55994 195.28505,159.77307 193.99117,159.77307 C 192.6973,159.77307 192.16799,159.55994 192.81493,159.29945 z M 107.41942,155.28176 C 107.41942,154.79579 107.84287,154.13703 108.36042,153.81784 C 108.87797,153.49866 109.30142,153.89627 109.30142,154.70142 C 109.30142,155.50658 108.87797,156.16534 108.36042,156.16534 C 107.84287,156.16534 107.41942,155.76773 107.41942,155.28176 z M 174.93598,153.66546 C 175.58291,153.40498 176.64154,153.40498 177.28847,153.66546 C 177.93541,153.92595 177.4061,154.13908 176.11222,154.13908 C 174.81835,154.13908 174.28904,153.92595 174.93598,153.66546 z M 140.82483,152.40935 C 141.14469,151.8929 142.04157,151.47035 142.81789,151.47035 C 143.59421,151.47035 143.96768,151.8929 143.64782,152.40935 C 143.32796,152.9258 142.43108,153.34835 141.65476,153.34835 C 140.87844,153.34835 140.50497,152.9258 140.82483,152.40935 z M 164.82026,152.40935 C 163.04629,151.26536 166.88652,151.26536 170.46624,152.40935 C 172.62176,153.0982 172.54297,153.16778 169.52524,153.24037 C 167.71382,153.28394 165.59658,152.90998 164.82026,152.40935 z M 66.956538,150.06185 C 65.316802,148.09028 67.32456,145.83636 70.720528,145.83636 C 72.146431,145.83636 73.840227,146.47018 74.484517,147.24486 C 76.124253,149.21642 74.116496,151.47035 70.720528,151.47035 C 69.294624,151.47035 67.600829,150.83653 66.956538,150.06185 z M 70.042423,148.61611 C 69.766371,147.56273 69.330253,146.91068 69.073272,147.16712 C 68.564199,147.67511 69.463401,150.53135 70.132401,150.53135 C 70.358965,150.53135 70.318475,149.66949 70.042423,148.61611 z M 155.88078,149.59235 C 156.20065,149.0759 157.09752,148.65335 157.87384,148.65335 C 158.65016,148.65335 159.02364,149.0759 158.70377,149.59235 C 158.38391,150.1088 157.48704,150.53135 156.71071,150.53135 C 155.93439,150.53135 155.56092,150.1088 155.88078,149.59235 z M 168.58425,149.59235 C 167.41543,148.83861 167.49632,148.68212 169.05474,148.68212 C 170.08984,148.68212 171.57191,149.09172 172.34823,149.59235 C 173.51705,150.3461 173.43616,150.50259 171.87774,150.50259 C 170.84264,150.50259 169.36057,150.09299 168.58425,149.59235 z M 149.2938,147.71436 C 148.97394,147.19791 149.60911,146.77536 150.7053,146.77536 C 151.80148,146.77536 152.43666,147.19791 152.11679,147.71436 C 151.79693,148.23081 151.16176,148.65335 150.7053,148.65335 C 150.24884,148.65335 149.61366,148.23081 149.2938,147.71436 z M 178.93522,147.71436 C 178.93522,147.19791 180.01883,146.77536 181.34325,146.77536 C 182.70897,146.77536 183.49954,147.18179 183.1697,147.71436 C 182.84984,148.23081 181.76623,148.65335 180.76167,148.65335 C 179.75712,148.65335 178.93522,148.23081 178.93522,147.71436 z M 161.52677,146.77536 C 161.2069,146.25891 161.36865,145.83636 161.8862,145.83636 C 162.40375,145.83636 163.0889,146.25891 163.40876,146.77536 C 163.72862,147.29181 163.56688,147.71436 163.04933,147.71436 C 162.53178,147.71436 161.84663,147.29181 161.52677,146.77536 z M 173.99498,147.09248 C 174.64192,146.83199 175.70054,146.83199 176.34747,147.09248 C 176.99441,147.35296 176.4651,147.5661 175.17123,147.5661 C 173.87736,147.5661 173.34804,147.35296 173.99498,147.09248 z M 185.0517,146.77536 C 185.37156,146.25891 184.99809,145.83636 184.22177,145.83636 C 183.44544,145.83636 182.57298,145.45322 182.28295,144.98493 C 181.45767,143.65245 185.33075,144.94425 186.54759,146.40733 C 187.40304,147.4359 187.29754,147.71436 186.05238,147.71436 C 185.18214,147.71436 184.73184,147.29181 185.0517,146.77536 z M 189.8106,146.38263 C 190.81441,145.65019 191.83585,145.25061 192.08045,145.49469 C 192.59834,146.01147 190.17179,147.67886 188.87109,147.69998 C 188.38401,147.70789 188.80679,147.11508 189.8106,146.38263 z M 155.88078,143.95836 C 156.20065,143.44191 156.88579,143.01937 157.40334,143.01937 C 157.92089,143.01937 158.08264,143.44191 157.76278,143.95836 C 157.44291,144.47481 156.75776,144.89736 156.24021,144.89736 C 155.72267,144.89736 155.56092,144.47481 155.88078,143.95836 z M 176.84868,143.73765 C 178.43685,142.97414 179.2829,142.99071 180.09512,143.8012 C 180.93245,144.63675 180.42177,144.88225 177.94717,144.83381 C 174.89835,144.77413 174.83148,144.7074 176.84868,143.73765 z M 195.90677,143.55065 C 196.66461,142.80997 198.55501,141.92374 200.10766,141.58126 C 202.79386,140.98875 202.75983,141.05401 199.40532,142.92797 C 195.30282,145.2198 193.95322,145.46 195.90677,143.55065 z M 147.70587,143.31692 C 148.38514,143.04568 149.19675,143.07903 149.50945,143.39105 C 149.82213,143.70308 149.26635,143.925 148.27439,143.88423 C 147.17817,143.83918 146.95521,143.61667 147.70587,143.31692 z M 183.23582,143.12612 C 182.95232,142.66839 183.66837,142.04033 184.82704,141.73044 C 188.10087,140.85485 188.97252,141.02715 188.97252,142.54987 C 188.97252,144.09362 184.13595,144.57945 183.23582,143.12612 z M 204.81264,140.20237 C 207.39953,139.09312 208.88525,139.09312 207.16514,140.20237 C 206.38881,140.70301 205.11847,141.08939 204.34214,141.06099 C 203.41144,141.02695 203.57171,140.73448 204.81264,140.20237 z M 245.74603,175.13587 C 245.74603,172.55215 238.6474,167.74815 237.16217,169.32675 C 235.73799,170.84046 235.92698,171.11071 239.98517,173.36345 C 244.67992,175.96954 245.74603,176.29755 245.74603,175.13587 z M 234.45406,168.33523 C 236.62385,166.60741 233.85162,161.83379 230.66113,161.804 C 228.96076,161.78812 227.93093,167.96423 229.44846,169.07656 C 231.5066,170.58516 231.6565,170.56296 234.45406,168.33523 z M 226.34736,165.11886 C 228.63899,161.62883 228.20317,159.96563 224.60381,158.46492 C 220.3973,156.71107 220.1,156.74777 221.42063,158.85794 C 222.85382,161.14797 221.81076,163.71467 219.16653,164.40468 C 217.15845,164.92869 217.19086,165.00836 219.87702,166.15117 C 223.86844,167.84929 224.63478,167.72703 226.34736,165.11886 z M 124.56797,138.15892 C 123.76522,137.35788 123.74263,136.71603 124.48575,135.82254 C 125.2415,134.91384 125.1739,134.48403 124.22811,134.18439 C 120.50046,133.00346 120.36066,132.83267 123.06591,132.76452 C 125.95954,132.69163 128.70908,134.60792 127.47615,135.83823 C 126.71941,136.59336 130.16464,139.27475 131.12813,138.68054 C 132.26507,137.97937 130.84484,135.15087 128.24062,132.92981 C 125.84231,130.88436 125.83013,130.82159 127.83058,130.81706 C 128.96452,130.8145 130.154,131.23494 130.47386,131.75139 C 131.24068,132.9895 134.70835,132.96473 134.70835,131.72114 C 134.70835,131.18804 133.75559,130.36973 132.5911,129.90265 C 130.52197,129.07273 130.53004,129.05208 132.94638,128.99392 C 137.19608,128.89162 138.36174,131.48962 135.19623,134.00834 C 132.11999,136.45603 132.65344,138.33883 136.41063,138.29452 C 138.71017,138.2674 138.79233,138.15063 137.30485,137.02364 C 135.45786,135.62428 137.61138,132.65735 140.42843,132.72025 C 141.44598,132.74297 141.37752,133.04442 140.14212,133.98071 C 138.80696,134.99262 138.72597,135.49458 139.68641,136.80526 C 140.73482,138.23601 140.96697,138.10168 141.95364,135.49323 C 142.99293,132.7457 142.88951,132.48787 140.05684,130.76433 C 137.43793,129.17086 137.32034,128.94098 139.12255,128.93791 C 141.85032,128.93326 142.69749,127.40725 140.61721,126.24554 C 139.70493,125.73609 139.19226,125.08601 139.47794,124.80093 C 140.49679,123.78425 144.24988,127.23789 143.6948,128.68134 C 143.39233,129.46789 143.62012,130.68287 144.20098,131.38129 C 144.9595,132.29331 144.97787,133.45052 144.26617,135.48777 C 143.46678,137.77605 143.53341,138.32438 144.61086,138.32438 C 146.65821,138.32438 147.98205,132.49909 146.25088,131.1078 C 144.24406,129.49498 151.0162,128.30747 153.82518,129.77962 C 155.62683,130.72385 155.44223,130.80305 152.33095,130.42078 C 150.27931,130.16871 149.00874,130.35213 149.32044,130.8554 C 149.61705,131.33432 149.45725,133.18077 148.96532,134.95863 C 148.0731,138.18309 148.07989,138.19262 151.7009,138.80308 C 157.22493,139.73438 159.79408,138.68618 157.68565,136.36134 C 155.51775,133.97093 157.34705,134.07198 160.45887,136.51453 C 164.85518,139.96532 163.09562,136.6017 157.72148,131.28167 C 154.38737,127.98113 153.06219,126.1174 154.0495,126.1174 C 155.72909,126.1174 164.77694,135.3078 164.80378,137.04111 C 164.82217,138.22865 167.83175,139.23349 171.40724,139.24589 C 174.25104,139.25575 169.48222,134.6661 166.58222,134.60215 C 164.84587,134.56387 162.04462,131.75139 163.74283,131.75139 C 164.31208,131.75139 167.11635,133.01388 169.97453,134.55694 C 172.83272,136.09999 175.17123,137.01874 175.17123,136.59861 C 175.17123,134.79994 170.58558,131.80066 166.23175,130.75166 C 160.33385,129.33065 158.13282,127.58352 163.40876,128.51083 C 165.47895,128.87469 168.61397,129.75822 170.37547,130.47422 C 175.11842,132.40211 174.88059,131.52574 169.35089,126.69876 C 165.11506,123.00124 163.75505,122.34318 160.13144,122.2378 C 156.01996,122.11824 155.98806,122.09518 159.15704,121.53355 C 162.4333,120.95291 162.4333,120.95291 158.3901,119.13952 C 153.74603,117.05663 142.93834,119.29364 137.06084,123.55431 C 133.90686,125.84067 120.65377,127.35991 121.93701,125.288 C 122.29655,124.70748 123.566,124.47677 124.75801,124.77531 C 126.23781,125.14593 127.10822,124.84242 127.50197,123.81849 C 127.97093,122.599 128.41091,122.52593 129.85736,123.42734 C 130.88447,124.06742 132.38455,124.22859 133.40745,123.80878 C 134.7712,123.24907 134.87157,122.9687 133.84364,122.59046 C 133.10927,122.32024 137.76721,120.30516 144.1946,118.1125 C 157.92626,113.42805 163.50253,111.3607 165.99121,110.03163 C 169.63526,108.08553 166.76331,108.26639 159.06382,110.46788 C 149.12,113.31107 143.7662,114.29963 144.47049,113.16246 C 144.76609,112.68521 146.81915,112.04397 149.03286,111.73749 C 158.6726,110.40293 180.59931,101.17302 178.67995,99.257734 C 178.40364,98.982004 169.06898,102.41769 164.34976,104.53206 C 158.43145,107.18367 154.77765,108.27726 150.41533,108.70268 C 145.61298,109.171 145.59388,109.16292 149.2938,108.22785 C 153.18962,107.24328 163.26993,103.46278 174.70073,98.699268 C 179.78808,96.579239 191.20072,88.557476 189.12955,88.557476 C 188.91028,88.557476 182.39823,90.615265 174.65832,93.130339 C 151.23488,100.74177 140.35433,103.41651 140.35433,101.56322 C 140.35433,101.1239 141.30709,100.75451 142.47158,100.74235 C 145.7226,100.70842 170.20698,93.630659 182.22871,89.249657 C 204.62283,81.088714 212.73337,77.549024 218.74654,73.312138 C 223.13773,70.218093 221.00609,70.46387 213.00543,73.974083 C 199.75167,79.789039 160.22664,92.681126 149.95277,94.540296 C 143.69254,95.673156 148.09354,93.333672 155.18378,91.759593 C 178.90892,86.492467 231.49054,65.871293 236.33605,59.93374 C 237.11238,58.982457 237.3241,58.400563 236.80655,58.640643 C 236.289,58.880723 230.99589,61.427722 225.04409,64.300641 C 219.09228,67.173559 211.4702,70.497603 208.10613,71.687405 C 204.74207,72.877208 201.5662,74.130127 201.04865,74.47167 C 196.48824,77.481198 152.12205,91.223225 150.90076,90.004526 C 150.33803,89.442989 149.59542,89.691273 168.05225,84.270128 C 197.10855,75.735705 224.04056,64.491584 239.05418,54.626804 C 244.6142,50.973564 245.5349,50.058553 243.65082,50.058553 C 242.35503,50.058553 240.21075,50.909485 238.88576,51.949514 C 236.75256,53.623922 229.72388,57.104849 217.98661,62.299741 C 215.91641,63.216005 211.42053,65.23374 207.99576,66.783596 C 195.12726,72.607143 155.13231,84.837102 153.68368,83.391554 C 153.122,82.831062 156.67469,81.562475 162.93826,80.086952 C 180.15138,76.032018 206.11305,66.400058 227.86708,55.997916 C 238.95795,50.694583 237.8003,49.941245 224.94794,54.098293 C 219.56656,55.83888 204.25981,59.951896 190.93293,63.238329 C 170.99123,68.155992 166.70225,69.498911 166.70225,70.825182 C 166.70225,72.772731 160.97222,77.45731 156.11603,79.479931 C 153.29615,80.654419 152.58729,81.449723 152.58729,83.438972 C 152.58729,85.063624 151.38061,87.118764 149.11331,89.355625 C 147.20262,91.240664 145.61469,93.625043 145.58457,94.654247 C 145.5501,95.832357 144.20924,97.223669 141.96481,98.410239 C 138.4712,100.25721 138.26655,100.8593 139.84083,104.65919 C 140.32439,105.82638 139.59109,106.5986 136.85548,107.80298 C 132.69933,109.63277 129.611,115.78842 132.84913,115.78842 C 139.89562,115.78842 143.77219,112.46532 140.69014,109.06691 C 139.02587,107.23183 139.04661,107.20927 141.79138,107.86863 C 145.48408,108.75569 145.41861,108.61535 143.69305,111.94517 C 142.28418,114.66382 142.29478,114.85364 143.8589,114.91542 C 147.05294,115.04158 142.03936,116.59035 138.20686,116.66142 C 134.03973,116.7387 129.13108,118.6047 127.3004,120.80746 C 126.59009,121.66213 125.04746,122.36141 123.87233,122.36141 C 122.69721,122.36141 121.492,122.99523 121.1941,123.76991 C 120.89619,124.54458 119.89813,125.14505 118.97618,125.10427 C 117.99037,125.06068 117.7844,124.83505 118.47614,124.55652 C 120.70085,123.66074 119.64826,122.36141 116.69789,122.36141 C 115.07291,122.36141 113.27325,122.96962 112.69865,123.71298 C 111.80398,124.87041 111.48458,124.87571 110.47509,123.74987 C 109.49399,122.65568 109.93276,122.26415 113.09123,121.41547 C 117.3523,120.27052 117.2499,119.05479 112.78383,117.76597 C 109.77192,116.89679 109.77192,116.89679 112.68432,116.81211 C 114.48487,116.75975 116.24693,117.44437 117.2999,118.60542 C 120.03174,121.61766 124.11489,121.21757 122.09141,118.13592 C 120.23599,115.3102 121.12816,115.08024 123.89249,117.67168 C 126.27042,119.90088 129.28244,117.65658 130.50392,112.74543 C 131.65686,108.1098 124.27749,109.09954 120.77528,114.05026 C 120.07189,115.04457 118.46108,115.76295 117.01129,115.7289 C 114.4769,115.66938 114.4769,115.66938 116.80675,114.74169 C 118.57673,114.03691 118.82927,113.62446 117.85771,113.02528 C 116.93725,112.45761 117.37564,112.06193 119.42194,111.61344 C 122.12231,111.0216 125.5586,108.18185 128.57306,104.05095 C 129.63738,102.59245 129.95019,102.49806 129.97343,103.6284 C 129.98989,104.42889 129.50228,105.58386 128.88985,106.19499 C 127.02915,108.05174 128.83804,108.64077 132.78078,107.462 C 137.11036,106.16759 137.63257,105.57907 136.90731,102.81156 C 136.26552,100.36256 130.99627,100.76508 125.10061,103.71348 C 123.18042,104.67376 121.13106,105.45944 120.54646,105.45944 C 119.96187,105.45944 118.74323,106.37177 117.83838,107.48684 C 116.85685,108.6964 115.72941,109.22822 115.04349,108.8052 C 114.19531,108.28211 114.34043,107.76737 115.59684,106.84251 C 117.2004,105.66212 117.16245,105.53371 114.9474,104.64468 C 112.38493,103.61621 112.63259,103.50305 118.24089,103.13994 C 123.91799,102.77236 138.48035,98.600767 141.90664,96.360545 C 144.79149,94.47433 143.23173,91.715801 140.1968,93.336599 C 139.18375,93.877615 134.88786,95.0376 130.65038,95.914344 C 126.41291,96.791088 122.9394,97.924118 122.93147,98.432189 C 122.90539,100.10432 121.44896,101.70345 119.95213,101.70345 C 118.77078,101.70345 118.70499,101.43408 119.61818,100.33609 C 120.24366,99.584036 120.50691,98.567492 120.20318,98.077101 C 119.61677,97.130288 127.22165,94.191465 130.25815,94.191465 C 133.84454,94.191465 146.52098,89.201576 148.58805,86.976176 C 151.57773,83.757496 151.43045,81.755857 148.29154,82.946729 C 146.96398,83.450395 144.21157,83.862486 142.17507,83.862486 C 140.13857,83.862486 138.47234,84.283818 138.47234,84.798779 C 138.47234,86.076729 131.89648,93.252467 130.72536,93.252467 C 130.20782,93.252467 131.20985,91.604025 132.95211,89.589263 C 134.69436,87.5745 136.8606,84.854452 137.76597,83.54471 C 139.11918,81.587109 139.9564,81.249969 142.47095,81.65007 C 145.88863,82.193872 156.40982,77.961263 161.75707,73.891382 C 167.79403,69.296543 165.43404,69.463715 147.64705,74.890873 C 138.4665,77.692043 137.83036,78.366945 142.94207,79.882517 C 146.47081,80.928753 146.47081,80.928753 142.58645,80.454453 C 138.91935,80.006684 138.51441,80.208702 135.34679,84.06614 C 132.2563,87.829666 124.35738,93.345716 124.35738,91.740371 C 124.35738,91.359077 123.29875,92.039521 122.00488,93.252467 C 120.71101,94.465413 119.65239,95.013358 119.65239,94.470121 C 119.65239,93.926885 120.30683,92.940431 121.10671,92.278004 C 121.90659,91.615576 122.34332,90.507465 122.07724,89.815533 C 121.51964,88.365542 123.01875,88.0948 123.88255,89.489489 C 124.23588,90.059964 125.87526,89.700921 128.10873,88.56391 C 133.45514,85.842168 133.74196,84.653544 128.89637,85.299825 C 124.82788,85.842461 124.82788,85.842461 129.80237,84.046195 C 137.66042,81.20869 139.92416,77.262087 132.28018,79.726393 C 119.20382,83.942018 95.328243,100.40856 99.004678,102.67589 C 100.46883,103.57886 98.429805,104.88233 96.630769,104.19344 C 95.922062,103.92206 95.108731,104.30717 94.823369,105.04923 C 94.458658,105.99763 94.994605,106.39844 96.627488,106.39844 C 97.905116,106.39844 98.950448,106.87381 98.950448,107.45481 C 98.950448,108.12621 97.928415,108.30722 96.14599,107.95149 C 93.985782,107.52036 93.121105,107.80278 92.382,109.18088 C 90.881324,111.97896 91.205493,114.84942 93.022165,114.84942 C 94.266372,114.84942 94.370927,115.09982 93.492663,115.97622 C 91.750222,117.71496 92.148694,118.48483 94.480711,117.88517 C 96.345257,117.40572 96.447899,117.52338 95.340698,118.87095 C 93.838788,120.69891 94.82406,123.09864 96.421864,121.50423 C 97.930779,119.99852 99.365245,120.26175 98.078977,121.80831 C 96.996267,123.11013 98.388398,125.11326 99.561968,123.94218 C 99.829439,123.67528 100.88748,124.29432 101.91316,125.31783 C 103.33743,126.73907 104.46392,127.02842 106.681,126.5425 C 109.08465,126.01569 109.48593,126.16121 109.01396,127.38852 C 108.54407,128.61042 108.95817,128.76815 111.3715,128.28651 C 113.46045,127.86961 114.10645,128.01321 113.62669,128.78782 C 112.65236,130.36096 117.61901,130.17468 122.50386,128.45487 C 124.71986,127.67468 126.70501,127.20805 126.91531,127.4179 C 127.68404,128.185 121.16629,130.81239 118.49462,130.81239 C 115.744,130.81239 115.744,130.81239 118.63919,133.24336 C 120.23155,134.5804 121.53438,136.48187 121.53438,137.46885 C 121.53438,138.69176 122.19381,139.26338 123.60458,139.26338 C 125.19146,139.26338 125.41638,139.00553 124.56797,138.15892 z M 147.8823,126.01462 C 145.73356,125.63035 145.34402,125.38266 146.7616,125.30201 C 147.95662,125.23403 148.67267,124.75585 148.3528,124.23941 C 148.03294,123.72296 148.61814,123.30041 149.65323,123.30041 C 150.68833,123.30041 151.79693,122.87786 152.11679,122.36141 C 152.43666,121.84496 153.41441,121.43181 154.28957,121.44329 C 155.62921,121.46087 155.56396,121.72067 153.87687,123.08654 C 152.77472,123.97884 151.7161,125.13521 151.52438,125.65626 C 151.32216,126.20584 149.79292,126.35631 147.8823,126.01462 z M 103.65544,123.76991 C 104.46479,122.79676 104.5004,122.36141 103.77066,122.36141 C 103.18974,122.36141 102.71444,121.97625 102.71444,121.5055 C 102.71444,120.50217 104.51078,120.65943 106.38573,121.8269 C 107.47513,122.50523 107.40292,122.86814 105.97063,123.91324 C 103.64343,125.61131 102.19836,125.52185 103.65544,123.76991 z M 159.88002,124.55652 C 160.52696,124.29603 161.58558,124.29603 162.23251,124.55652 C 162.87945,124.81701 162.35014,125.03014 161.05627,125.03014 C 159.7624,125.03014 159.23308,124.81701 159.88002,124.55652 z M 145.82387,121.71997 C 146.50315,121.44872 147.31476,121.48208 147.62745,121.7941 C 147.94014,122.10612 147.38436,122.32805 146.39239,122.28728 C 145.29618,122.24222 145.07321,122.01972 145.82387,121.71997 z M 106.00271,112.96567 C 105.06309,111.92961 104.60863,110.76826 104.9928,110.3849 C 105.37698,110.00154 106.25988,110.46381 106.95481,111.41216 C 108.47812,113.49099 111.70632,113.07445 111.52322,110.8227 C 111.36164,108.83567 112.9261,108.69958 113.67071,110.63589 C 115.12412,114.41534 109.00386,116.27487 106.00271,112.96567 z M 111.18341,97.159183 C 111.18341,96.725632 112.24204,95.889593 113.53591,95.301318 C 116.87011,93.785381 116.69282,91.181115 113.30066,91.845598 C 110.75511,92.34424 110.74875,92.333954 112.9106,91.214678 C 117.66914,88.751002 120.29511,93.255778 115.72218,96.037861 C 112.33032,98.101412 111.18341,98.384759 111.18341,97.159183 z M 231.61205,130.84786 C 233.09199,128.08842 231.19627,127.60045 226.51006,129.53457 C 222.40309,131.22962 222.40309,131.22962 224.89983,132.77255 C 227.6855,134.49404 230.01473,133.82614 231.61205,130.84786 z M 238.21805,127.41764 C 238.21805,121.85446 234.11776,124.22297 233.97583,129.86813 C 233.88172,133.61115 233.88172,133.61115 236.04988,131.5786 C 237.24238,130.46068 238.21805,128.58825 238.21805,127.41764 z M 242.89311,123.53516 C 242.90957,122.8896 242.14948,122.36141 241.20401,122.36141 C 239.82548,122.36141 239.56788,122.92493 239.90345,125.20649 C 240.33131,128.11552 242.81168,126.7289 242.89311,123.53516 z"
         style="fill:#000000" />
    </g>
  </g>
</svg>
