<?xml version="1.0" encoding="UTF-8" standalone="no"?>
<!-- Created with Inkscape (http://www.inkscape.org/) -->
<svg
   xmlns:dc="http://purl.org/dc/elements/1.1/"
   xmlns:cc="http://creativecommons.org/ns#"
   xmlns:rdf="http://www.w3.org/1999/02/22-rdf-syntax-ns#"
   xmlns:svg="http://www.w3.org/2000/svg"
   xmlns="http://www.w3.org/2000/svg"
   xmlns:sodipodi="http://sodipodi.sourceforge.net/DTD/sodipodi-0.dtd"
   xmlns:inkscape="http://www.inkscape.org/namespaces/inkscape"
   width="200"
   height="224.00002"
   id="svg2"
   sodipodi:version="0.32"
   inkscape:version="0.46"
   version="1.0"
   sodipodi:docname="squirrel_sejant_erect.svg"
   inkscape:output_extension="org.inkscape.output.svg.inkscape">
  <defs
     id="defs4">
    <inkscape:perspective
       sodipodi:type="inkscape:persp3d"
       inkscape:vp_x="0 : 526.18109 : 1"
       inkscape:vp_y="0 : 1000 : 0"
       inkscape:vp_z="744.09448 : 526.18109 : 1"
       inkscape:persp3d-origin="372.04724 : 350.78739 : 1"
       id="perspective10" />
    <inkscape:perspective
       id="perspective8826"
       inkscape:persp3d-origin="372.04724 : 350.78739 : 1"
       inkscape:vp_z="744.09448 : 526.18109 : 1"
       inkscape:vp_y="0 : 1000 : 0"
       inkscape:vp_x="0 : 526.18109 : 1"
       sodipodi:type="inkscape:persp3d" />
  </defs>
  <sodipodi:namedview
     id="base"
     pagecolor="#ffffff"
     bordercolor="#666666"
     borderopacity="1.0"
     gridtolerance="10000"
     guidetolerance="10"
     objecttolerance="10"
     inkscape:pageopacity="0.0"
     inkscape:pageshadow="2"
     inkscape:zoom="3.2812498"
     inkscape:cx="100"
     inkscape:cy="112.00001"
     inkscape:document-units="px"
     inkscape:current-layer="layer1"
     showgrid="false"
     inkscape:window-width="1679"
     inkscape:window-height="963"
     inkscape:window-x="1"
     inkscape:window-y="57" />
  <metadata
     id="metadata7">
    <rdf:RDF>
      <cc:Work
         rdf:about="">
        <dc:format>image/svg+xml</dc:format>
        <dc:type
           rdf:resource="http://purl.org/dc/dcmitype/StillImage" />
      </cc:Work>
    </rdf:RDF>
  </metadata>
  <g
     inkscape:label="Layer 1"
     inkscape:groupmode="layer"
     id="layer1"
     transform="translate(-160,-311.79075)">
    <g
       id="g2391"
       transform="translate(110,273.79075)">
      <path
         id="path8887"
         d="M 125.81844,260.08681 C 125.81844,257.73086 125.18868,257.65193 121.81549,259.58516 C 118.23813,261.6354 116.8118,261.41821 116.8118,258.82321 C 116.8118,255.58914 113.40687,253.61078 111.36464,255.65824 C 110.51618,256.50887 109.3682,256.92368 108.81357,256.58002 C 107.43508,255.72588 107.54364,252.72392 109.00604,251.25776 C 110.76425,249.49505 109.25515,249.78324 104.80294,252.06041 C 98.812868,255.12414 93.668332,254.59515 96.997186,251.25776 C 97.931208,250.32135 97.29128,250.0538 94.117507,250.0538 C 91.71119,250.0538 89.52579,250.67128 88.791134,251.55875 C 87.110879,253.58852 85.78892,253.45663 85.78892,251.25922 C 85.78892,246.55319 96.133416,239.08803 100.91677,240.34212 C 102.06415,240.64293 104.08316,240.39559 105.40346,239.79249 C 107.17389,238.98376 108.7892,239.01661 111.55734,239.9176 C 122.82296,243.58444 135.34422,240.7357 130.84584,235.52925 C 128.47308,232.78301 126.02907,229.39686 125.41472,228.00449 C 122.55046,221.51301 119.38162,218.0236 116.91272,218.64238 C 115.18022,219.07659 114.72123,218.90437 115.26408,218.02378 C 115.67783,217.3526 116.14794,212.43329 116.30877,207.09197 C 116.94415,185.98978 119.7522,179.41606 129.32829,176.61288 C 135.88271,174.69422 126.04779,166.39063 109.30626,159.70832 C 104.90302,157.95079 100.39969,156.02091 99.298884,155.4197 C 98.198072,154.81848 95.270913,153.61066 92.794086,152.73564 C 90.31726,151.86062 86.309488,149.80912 83.887926,148.17676 C 81.466364,146.5444 78.989538,144.89629 78.383867,144.5143 C 75.093425,142.43905 65.405681,140.47186 61.272979,141.03976 C 56.972129,141.63076 55.087892,140.55153 58.277906,139.32427 C 61.814541,137.96367 58.799438,134.71205 53.980277,134.68952 C 50.244269,134.67207 50.807823,131.41881 54.764978,130.15964 C 57.99865,129.13069 57.064695,127.65105 53.181539,127.65105 C 48.799177,127.65105 48.966429,125.80549 53.545233,123.63785 C 55.293665,122.81012 56.733946,121.56854 56.745858,120.87877 C 56.791696,118.22453 68.259656,119.29024 69.752879,122.0875 C 71.231527,124.85746 75.436401,127.08518 81.077097,128.08703 C 84.714757,128.73311 84.818527,128.67584 83.588403,126.70105 C 82.882673,125.5681 81.774059,124.64115 81.124817,124.64115 C 80.475574,124.64115 77.994491,122.61692 75.611297,120.14286 C 72.029003,116.42399 70.638217,115.64171 67.584511,115.62801 C 64.015493,115.612 61.193069,113.63082 63.595502,112.82796 C 65.683364,112.13022 64.858165,110.57738 61.272326,108.45627 C 56.982554,105.91876 57.569405,104.57512 62.96747,104.57512 C 67.466719,104.57512 65.398253,100.80841 59.964828,99.107257 C 56.407635,97.993535 57.934134,96.103667 62.849657,95.535721 C 67.275266,95.024381 67.275266,95.024381 64.273052,93.355659 C 61.594886,91.867053 61.473475,91.60762 63.148205,90.952076 C 67.444724,89.27028 78.783754,95.85368 78.783754,100.03002 C 78.783754,104.28262 81.996353,108.34679 87.272743,110.76921 C 90.034279,112.03705 94.846319,114.54818 97.966165,116.34951 C 104.27582,119.99255 107.80516,120.55911 107.80516,117.92896 C 107.80516,116.99634 110.33109,113.89519 113.41834,111.03752 C 117.95996,106.83364 118.90123,105.43021 118.34904,103.68595 C 117.6464,101.46648 111.94234,95.558319 110.49419,95.550054 C 103.42268,95.509699 91.474893,83.675195 95.295931,80.495893 C 96.233671,79.715645 96.797986,77.504433 96.799562,74.604062 C 96.802166,69.815646 101.00468,52.466518 102.87088,49.540007 C 104.23461,47.401443 103.77899,50.021923 100.90594,60.841185 C 99.746854,65.206026 98.865988,70.623853 98.948457,72.8808 C 99.066147,76.101646 99.177606,76.336893 99.46662,73.974435 C 100.11464,68.677406 102.10084,62.106993 105.00172,55.664188 C 108.65322,47.554277 109.4013,47.554277 106.12019,55.664188 C 102.62162,64.311582 102.06782,68.150524 105.28503,61.453447 C 108.60174,54.549264 111.90409,49.155352 112.46816,49.720863 C 112.70562,49.958934 111.53804,52.46936 109.87354,55.299588 C 107.06928,60.06782 102.77776,71.37753 102.81959,73.889311 C 102.82957,74.487945 104.08687,72.720309 105.61361,69.96123 C 109.66569,62.638413 115.68862,53.40676 116.41409,53.40676 C 116.75944,53.40676 116.22945,54.648345 115.23634,56.165839 C 110.98574,62.660891 106.56551,70.557798 106.95948,70.952777 C 108.44867,72.445779 118.17306,62.401986 120.63226,56.830907 C 129.96858,35.68038 139.82877,31.482284 139.82877,48.657757 C 139.82877,58.556953 139.82877,58.556953 144.54809,53.958263 C 156.48409,42.327346 172.66178,46.580463 161.38221,58.383954 C 159.98553,59.845505 158.8428,62.115654 158.8428,63.428731 C 158.8428,64.741808 157.9306,67.705328 156.81569,70.014332 C 154.78857,74.212521 154.78857,74.212521 158.36396,80.969307 C 160.33042,84.685538 162.64548,90.501281 163.50853,93.893179 C 164.37158,97.285077 165.9435,101.76872 167.00168,103.85683 C 168.05986,105.94494 170.21561,111.13703 171.79222,115.3948 C 177.72063,131.40494 184.56414,145.77004 179.974,132.56906 C 178.0358,126.99486 178.57927,112.79689 180.9693,106.56756 C 182.13076,103.54037 183.8195,98.556046 184.72207,95.491298 C 186.47282,89.546452 190.56965,84.831834 200.71421,77.08758 C 203.53123,74.937099 206.10089,72.341057 206.42458,71.318598 C 207.2796,68.617772 208.8797,69.040905 208.8797,71.967833 C 208.8797,74.765678 210.03825,75.198313 211.80741,73.061132 C 212.45164,72.282908 216.27356,70.91127 220.30059,70.013047 C 225.84516,68.776337 228.63345,67.512316 231.78747,64.805683 C 235.95584,61.228571 238.90184,61.286921 238.90184,64.946593 C 238.90184,65.640211 240.70317,68.068616 242.9048,70.34305 C 245.10642,72.617483 246.90775,75.395338 246.90775,76.516062 C 246.90775,77.636785 247.58325,80.174576 248.40885,82.155597 C 252.7763,92.635119 247.9682,104.55134 236.25302,112.28225 C 229.0646,117.02592 227.16464,126.95593 231.62311,136.48018 C 232.83959,139.07888 232.9312,140.32325 232.0489,142.26465 C 230.99247,144.58919 231.07457,144.70045 233.41221,144.11225 C 236.13342,143.42751 236.9833,145.35654 234.39852,146.35095 C 233.57291,146.66859 232.89742,147.34324 232.89742,147.85019 C 232.89742,148.35713 234.30016,148.04467 236.01461,147.15581 C 239.8307,145.17739 242.23045,146.67136 238.94374,148.97935 C 234.88297,151.83091 235.52327,166.69611 240.09403,175.68434 C 241.39038,178.23356 241.90406,181.5055 241.90406,187.21347 C 241.90406,195.12781 241.91802,195.17057 243.91167,193.36172 C 246.26553,191.22604 247.46581,191.87113 246.07369,194.52371 C 244.79268,196.96461 242.56666,209.56484 243.22716,210.63631 C 245.346,214.07342 237.3176,233.94743 230.46707,242.22342 C 224.94617,248.89312 221.85866,250.19921 206.04671,252.55383 C 200.36052,253.40057 193.8307,254.54704 191.53601,255.10152 C 189.24131,255.65601 175.43003,256.39319 160.84428,256.73972 C 134.90965,257.35589 134.26232,257.42188 131.4959,259.7316 C 128.0338,262.62216 125.81844,262.76076 125.81844,260.08681 z M 204.68992,222.95307 C 206.32063,215.87038 206.17833,210.08277 204.22436,204.01716 C 202.16518,197.62493 201.37767,197.52423 201.36191,203.65112 C 201.34677,209.54011 199.92952,225.0713 199.31655,226.06565 C 199.06865,226.46778 199.13747,227.50649 199.46948,228.37391 C 200.59332,231.31009 203.4484,228.34541 204.68992,222.95307 z"
         style="fill:#ffff00;fill-opacity:1" />
      <path
         id="path8830"
         d="M 125.96582,260.08681 C 125.96582,257.73086 125.33681,257.65193 121.96762,259.58516 C 118.39451,261.6354 116.96987,261.41821 116.96987,258.8232 C 116.96987,255.58913 113.56899,253.61077 111.52917,255.65824 C 110.68172,256.50887 109.53511,256.92367 108.98113,256.58001 C 107.60428,255.72587 107.71271,252.72391 109.17338,251.25775 C 110.9295,249.49504 109.42219,249.78323 104.97527,252.06039 C 98.992301,255.12413 93.853871,254.59514 97.178774,251.25775 C 98.111687,250.32134 97.472519,250.05379 94.302513,250.05379 C 91.899051,250.05379 89.716245,250.67127 88.982462,251.55874 C 87.304201,253.58851 85.983811,253.45662 85.983811,251.25921 C 85.983811,246.55318 96.316029,239.08801 101.09371,240.34209 C 102.23973,240.6429 104.25634,240.39557 105.57507,239.79246 C 107.3434,238.98373 108.95679,239.01658 111.72165,239.91758 C 122.9739,243.58442 135.48029,240.73568 130.98726,235.52922 C 128.61731,232.78297 126.17621,229.39683 125.56258,228.00446 C 122.70172,221.51297 119.53665,218.02355 117.07067,218.64233 C 115.34023,219.07654 114.88179,218.90432 115.42398,218.02373 C 115.83725,217.35255 116.3068,212.43323 116.46743,207.09191 C 117.10206,185.9897 119.90678,179.41597 129.4715,176.61278 C 136.01814,174.69413 126.1949,166.39053 109.47324,159.70821 C 105.07522,157.95068 100.57725,156.02079 99.47774,155.41959 C 98.378234,154.81837 95.45455,153.61054 92.980663,152.73552 C 90.506776,151.8605 86.503761,149.809 84.085073,148.17664 C 81.666385,146.54427 79.192498,144.89616 78.587546,144.51417 C 75.30101,142.43892 65.624763,140.47173 61.496966,141.03962 C 57.201221,141.63063 55.319221,140.5514 58.505449,139.32414 C 62.037886,137.96353 59.026361,134.71191 54.212921,134.68938 C 50.481347,134.67193 51.044231,131.41867 54.996691,130.1595 C 58.197389,129.13982 57.308129,127.65091 53.498426,127.65091 C 51.574292,127.65091 50,127.22502 50,126.70449 C 50,125.50316 54.03163,122.63439 55.719933,122.63439 C 57.362036,122.63439 57.382563,124.35627 55.747414,124.93957 C 55.060223,125.18471 55.763474,125.22337 57.310194,125.02548 C 59.821229,124.70422 60.046649,124.90529 59.415001,126.9029 C 58.786424,128.89081 58.890742,128.98755 60.351097,127.77101 C 61.672166,126.67051 62.289964,126.64795 63.500089,127.65604 C 64.328107,128.34581 66.464645,129.29174 68.247953,129.7581 C 71.037165,130.48752 70.861678,130.54167 66.992355,130.14554 C 63.976532,129.83679 61.199527,130.27297 58.564816,131.46925 C 54.635253,133.25345 54.635253,133.25345 60.563916,133.40118 C 72.069444,133.6879 76.578749,135.2225 67.819704,135.87046 C 62.27518,136.28063 61.46352,138.5473 66.935655,138.33929 C 69.15963,138.25475 70.981791,137.9034 70.984902,137.55852 C 70.988011,137.21363 72.11505,136.93145 73.489432,136.93145 C 74.863814,136.93145 75.988308,137.3265 75.988308,137.80934 C 75.988308,138.29218 77.112802,138.68723 78.487183,138.68723 C 79.861565,138.68723 80.986059,139.13872 80.986059,139.69053 C 80.986059,140.24235 81.815942,140.69384 82.830241,140.69384 C 83.844542,140.69384 85.531283,141.69196 86.578555,142.91189 C 88.482686,145.12994 88.482686,145.12994 85.848491,143.46576 C 84.399682,142.55046 82.952224,142.06463 82.631916,142.38615 C 81.995652,143.0248 88.724444,148.72025 90.11523,148.72025 C 90.587066,148.72025 94.381345,150.30046 98.546961,152.23181 C 102.71258,154.16317 106.55358,155.74337 107.08253,155.74337 C 107.61148,155.74337 109.13851,156.46305 110.47593,157.34265 C 111.81336,158.22225 113.48427,158.72755 114.18908,158.46554 C 114.9321,158.18932 114.21056,157.44208 112.47189,156.68715 C 109.61551,155.44692 109.58256,155.36619 111.77725,154.98559 C 113.04445,154.76583 114.67418,155.07997 115.39887,155.68366 C 116.12356,156.28736 117.56064,156.48131 118.59239,156.11466 C 120.072,155.58887 120.22085,155.71701 119.29697,156.72127 C 118.65274,157.42153 118.37625,158.65002 118.68254,159.45121 C 119.05698,160.43064 119.84799,159.65093 121.09675,157.07152 C 122.95404,153.23512 122.95404,153.23512 122.65955,157.01462 C 122.47929,159.32808 122.77263,160.65722 123.41578,160.44119 C 123.99367,160.24708 124.4665,158.45625 124.4665,156.46158 C 124.4665,154.4669 125.06057,152.24772 125.78667,151.53005 C 126.8774,150.45197 127.00677,150.7483 126.53104,153.23512 C 125.9738,156.14808 126.00664,156.13193 127.55074,152.73346 C 128.42826,150.80211 130.22983,147.7847 131.55423,146.02811 C 132.87863,144.27153 133.96223,142.34659 133.96223,141.75046 C 133.96223,141.15434 134.37919,139.88264 134.88881,138.92444 C 135.39843,137.96625 136.08372,136.32755 136.41166,135.2829 C 137.42509,132.05469 137.70213,133.89701 137.19655,140.50243 C 136.8268,145.33307 136.38636,146.70705 135.33713,146.30291 C 134.45219,145.96205 133.96223,146.48976 133.96223,147.78374 C 133.96223,148.88947 133.23117,150.91408 132.33766,152.28286 C 131.18203,154.0532 130.89413,155.90798 131.34027,158.70848 C 131.70063,160.9705 131.54129,162.90975 130.96574,163.26679 C 130.4148,163.60858 129.96402,164.63925 129.96402,165.55719 C 129.96402,166.84782 130.32989,166.70187 131.57789,164.91341 C 132.73583,163.25401 133.01332,161.48057 132.56013,158.63584 C 131.9285,154.67104 131.9285,154.67104 134.44469,156.3259 C 137.17012,158.11837 137.63197,159.36483 135.79805,159.97843 C 133.75725,160.66125 133.99324,169.50678 136.1034,171.42362 C 137.12476,172.35141 137.96043,172.6157 137.96043,172.01091 C 137.96043,171.40614 137.51063,170.6323 136.96088,170.29125 C 136.41112,169.95021 136.00189,167.77901 136.05147,165.46635 C 136.14162,161.26153 136.14162,161.26153 137.17155,164.77309 C 138.07614,167.8573 138.29991,168.04046 139.01025,166.27805 C 139.73787,164.47277 139.82607,164.52904 139.88927,166.83876 C 139.92791,168.25079 140.62628,170.28248 141.4412,171.35362 C 142.81961,173.16543 142.88462,173.05643 142.37401,169.7896 C 141.82514,166.27805 141.82514,166.27805 143.89791,170.29125 C 145.6527,173.68884 145.88679,173.86832 145.42391,171.46132 C 144.68642,167.62635 146.19838,168.77816 148.43393,173.75434 C 149.43752,175.98827 150.66667,177.81602 151.16538,177.81602 C 151.66408,177.81602 151.79412,177.36454 151.45436,176.81272 C 151.11459,176.2609 151.22698,175.80942 151.70409,175.80942 C 152.90177,175.80942 156.67503,178.74781 155.52821,178.78742 C 154.12656,178.83583 159.11179,183.83584 160.5617,183.83584 C 161.45476,183.83584 161.65807,182.73536 161.25683,180.07345 C 160.84108,177.31519 160.98968,176.59066 161.81362,177.35869 C 162.43177,177.93487 163.03825,179.62795 163.16136,181.12107 C 163.28447,182.61419 163.84935,183.84275 164.41663,183.8512 C 164.98392,183.85964 164.77336,184.30422 163.94873,184.83914 C 162.67751,185.66375 162.72449,185.81405 164.25761,185.82708 C 165.25213,185.83553 165.79003,186.29036 165.45295,186.8378 C 164.44173,188.48013 166.30316,190.87537 167.84661,189.91788 C 168.92236,189.25055 168.98581,188.40249 168.14184,185.97236 C 166.97927,182.62492 168.41848,180.33397 169.68155,183.52142 C 171.39092,187.83514 170.55859,197.31726 168.44671,197.58923 C 167.3472,197.73083 167.00986,197.59128 167.69705,197.27911 C 168.38424,196.96696 168.93281,195.28184 168.91609,193.53443 C 168.8908,190.89047 168.71472,190.65195 167.86687,192.11308 C 166.61844,194.26455 164.94828,194.40808 164.94828,192.36391 C 164.94828,191.53618 164.27359,190.85895 163.44896,190.85895 C 162.62433,190.85895 161.94963,190.45163 161.94963,189.9538 C 161.94963,189.45596 160.517,188.54735 158.766,187.93466 C 157.015,187.32196 154.83923,186.14562 153.93095,185.32055 C 147.55226,179.52624 136.70782,179.22628 128.0449,184.60454 C 123.61418,187.35529 122.69666,188.97422 121.4992,196.15417 C 121.15153,198.23881 120.43999,199.6795 119.91802,199.35569 C 119.37853,199.02102 118.96897,200.52439 118.96897,202.83937 C 118.96897,206.1257 120.74216,208.95267 121.05137,206.15931 C 121.44632,202.59142 123.72364,193.22149 123.85177,194.63717 C 123.915,195.33564 125.30293,194.43267 126.93607,192.63056 C 129.72267,189.55565 129.90723,189.49294 129.93472,191.61143 C 129.95084,192.85302 129.4506,193.75599 128.82308,193.61803 C 125.61847,192.91352 121.14523,208.13064 122.76502,214.22643 C 123.3451,216.40946 123.3648,216.40503 124.06053,213.93491 C 124.68753,211.70882 124.77821,211.82479 124.86664,214.96579 C 125.01082,220.08739 127.95883,224.21753 129.15453,220.97311 C 129.62327,219.70124 129.76211,217.8868 129.46306,216.94105 C 129.16401,215.9953 129.62304,214.63529 130.48313,213.9188 C 131.86124,212.77077 132.01893,213.08156 131.81121,216.53624 C 131.68157,218.69231 131.1292,220.76069 130.58372,221.13265 C 129.25149,222.04107 132.52626,229.22644 135.58862,232.11417 C 137.96043,234.35073 137.96043,234.35073 137.96043,232.16923 C 137.96043,230.96941 138.41022,229.98774 138.95998,229.98774 C 139.50973,229.98774 139.95953,231.11646 139.95953,232.496 C 139.95953,233.87554 140.39521,235.00425 140.92771,235.00425 C 141.46021,235.00425 141.60867,235.75555 141.25762,236.67379 C 140.80967,237.84552 140.99186,238.11224 141.86865,237.56833 C 142.63828,237.09088 143.68469,237.60551 144.59406,238.9087 C 146.3027,241.35729 149.50208,241.84939 148.56265,239.51912 C 146.4783,234.34892 146.48427,234.42273 148.26856,235.87958 C 149.69799,237.04668 149.9674,237.04668 150.03621,235.87958 C 150.08086,235.12224 150.64898,235.7033 151.2987,237.17082 C 152.73963,240.42547 155.89174,244.03398 157.29381,244.03398 C 157.86121,244.03398 157.03265,242.67952 155.45256,241.02407 C 151.97703,237.38278 152.77713,237.01591 156.54656,240.52242 C 158.06769,241.93744 160.37734,242.99978 161.8457,242.9598 C 164.16143,242.89675 164.00283,242.68971 160.40773,241.08271 C 157.27181,239.68097 156.11771,238.46135 155.25395,235.63641 C 153.92809,231.30015 155.00747,230.00013 156.76,233.82248 C 158.67154,237.99163 160.24381,239.66872 162.95302,240.42837 C 165.29581,241.08528 165.33494,241.03684 163.59443,239.63465 C 159.61708,236.43042 162.72564,236.43284 167.42867,239.63764 C 172.32103,242.97146 172.35543,243.03067 169.40028,243.03067 C 167.74609,243.03067 165.35239,243.76203 164.08097,244.65591 C 162.33531,245.8832 160.62888,246.11393 157.11161,245.59822 C 149.82575,244.52996 134.82434,245.2684 126.43824,247.10812 C 123.70453,247.70784 120.0213,248.43781 118.2533,248.73028 C 115.31376,249.21656 115.17485,249.39866 116.62957,250.85885 C 118.25636,252.49174 119.78994,252.19031 128.21481,248.58173 C 132.05703,246.93601 129.58116,249.75028 124.43815,252.87457 C 121.4301,254.70192 118.96897,256.71103 118.96897,257.33927 C 118.96897,258.15914 119.30751,258.14172 120.16843,257.27757 C 120.82813,256.61539 122.0135,256.0736 122.80257,256.0736 C 123.59165,256.0736 125.2794,254.94489 126.55314,253.56535 C 127.82687,252.18581 129.8685,251.05709 131.09008,251.05709 C 133.31115,251.05709 133.31115,251.05709 130.96357,253.56535 C 128.77711,255.90147 128.74865,256.0736 130.5489,256.0736 C 131.61199,256.0736 133.00519,255.23237 133.64489,254.2042 C 134.2846,253.17603 135.76789,252.08283 136.94111,251.77487 C 138.63376,251.33057 138.84601,251.49097 137.96902,252.55166 C 136.20567,254.68433 137.69779,254.90048 151.45436,254.50516 C 158.60114,254.2998 165.62808,254.11997 167.06977,254.10557 C 168.51146,254.09116 170.25328,253.39936 170.94047,252.56823 C 172.55409,250.61663 174.32809,250.61248 173.58277,252.56205 C 172.82633,254.54069 173.8426,254.47032 176.13814,252.38509 C 177.55756,251.09571 178.26409,250.97863 179.16552,251.88344 C 181.97883,254.70732 183.20482,252.9491 180.44131,250.05379 C 178.42011,247.9362 178.02242,247.04388 179.09984,247.04388 C 179.94212,247.04388 181.4223,247.92126 182.38914,248.99362 C 184.30512,251.11869 189.25786,252.60015 190.94575,251.55306 C 191.59502,251.15029 190.83273,249.55891 188.97104,247.4306 C 186.13229,244.18531 185.10483,240.10609 185.8411,235.00425 C 185.96056,234.17653 186.20193,231.24187 186.37748,228.48279 C 186.55303,225.72371 187.20086,222.1953 187.81709,220.64188 C 188.43331,219.08847 188.94438,217.05678 188.95279,216.12702 C 188.96121,215.19727 189.40412,213.75933 189.93704,212.9316 C 191.54596,210.43263 191.17088,215.44312 189.43727,219.60782 C 187.87317,223.36529 187.38996,227.85383 188.6876,226.5714 C 189.09992,226.16392 189.96529,224.3956 190.61066,222.64179 C 191.60425,219.9417 191.79571,219.80512 191.8601,221.75047 C 191.90192,223.01404 191.03655,225.81784 189.93704,227.98114 C 187.69136,232.39957 187.36939,234.47208 189.09494,233.40163 C 189.88767,232.90985 190.07449,233.36504 189.68829,234.84737 C 189.37829,236.03728 189.53233,237.01086 190.03062,237.01086 C 190.52891,237.01086 190.95002,237.80096 190.96642,238.76664 C 191.03419,242.75572 198.40742,249.53378 200.82786,247.83207 C 203.03088,246.28323 203.03088,246.28323 200.45674,245.63473 C 194.75531,244.1984 190.7157,237.07761 191.64729,230.10598 C 192.00564,227.42424 192.51614,226.29643 193.0092,227.09722 C 193.54286,227.96394 194.00997,227.4218 194.45377,225.42056 C 195.59583,220.27071 195.77462,220.32626 195.85543,225.85611 C 195.94278,231.83341 198.70826,237.51371 202.31302,239.12007 C 204.19079,239.95684 204.11932,240.02019 201.68176,239.67969 C 198.48569,239.23324 198.20168,240.04876 200.7478,242.36161 C 205.75738,246.91224 218.08676,243.77084 228.01093,235.41523 C 236.09834,228.60608 240.3127,223.10755 236.2426,224.67525 C 234.95283,225.17204 234.72393,224.91628 235.24305,223.5584 C 235.61337,222.58974 235.91636,221.58175 235.91636,221.31841 C 235.91636,221.05506 236.36615,221.11863 236.91591,221.45967 C 237.46566,221.80072 237.98586,221.71449 238.07191,221.26806 C 238.43548,219.38184 238.96578,215.17119 239.31137,211.42665 C 239.51508,209.21938 240.18142,205.6075 240.79212,203.40023 C 241.40284,201.19297 241.89813,198.93554 241.89278,198.38372 C 241.87399,196.44685 239.9298,200.44113 238.47432,205.40684 C 237.66562,208.16592 236.27272,211.32632 235.37901,212.42995 C 233.75406,214.43656 233.75406,214.43656 234.47419,212.42995 C 234.87028,211.32632 235.31168,208.6174 235.4551,206.41014 C 235.59852,204.20287 236.67526,199.68801 237.84787,196.37712 C 239.90185,190.57758 240.34947,183.15565 238.79728,180.63473 C 238.32729,179.87143 237.81244,180.51608 237.40088,182.3832 C 236.19124,187.87084 235.5953,188.4717 234.9651,184.83914 C 234.3559,181.32758 234.3559,181.32758 233.58815,184.20505 C 231.99074,190.19211 231.94909,185.82454 233.54014,179.17025 C 235.29775,171.8194 234.80626,162.09656 232.7418,163.37726 C 232.16587,163.73454 231.34463,163.45839 230.91682,162.76361 C 230.42999,161.97293 229.88035,163.03707 229.4476,165.60815 C 229.06732,167.86745 229.04438,170.18402 229.39661,170.75608 C 229.74884,171.32816 229.50219,171.79621 228.8485,171.79621 C 228.00136,171.79621 227.85564,170.42733 228.34119,167.03052 C 228.71587,164.40939 229.11172,161.39715 229.22085,160.33665 C 229.32999,159.27614 230.43132,157.37785 231.66827,156.11821 C 233.98375,153.76025 234.68674,150.72686 232.9177,150.72686 C 232.36795,150.72686 231.91815,151.57455 231.91815,152.61062 C 231.91815,153.64668 231.24346,155.05642 230.41883,155.74337 C 228.58271,157.27293 228.44285,155.95223 229.88684,150.72024 C 230.76926,147.52297 230.72539,147.38626 229.38706,149.16284 C 228.58016,150.23399 227.91995,152.37855 227.91995,153.92853 C 227.91995,155.47851 227.47016,156.74667 226.9204,156.74667 C 226.37065,156.74667 225.92085,155.934 225.92085,154.94073 C 225.92085,153.94746 225.40612,152.61812 224.777,151.98664 C 223.93967,151.14617 223.92292,150.08418 224.71451,148.02359 C 226.173,144.22697 227.37859,138.4154 226.9635,137.18228 C 226.77776,136.63046 226.09382,133.24432 225.44366,129.65751 C 224.26153,123.13605 224.26153,123.13605 222.67385,126.6476 C 221.69157,128.82019 221.05508,129.47068 221.00463,128.35356 C 220.95979,127.36048 221.62509,125.18536 222.48308,123.51996 C 223.34107,121.85457 223.90332,119.50669 223.73252,118.30245 C 223.46634,116.42567 223.17101,116.63853 221.66493,119.7927 C 219.64057,124.03228 218.07572,134.13321 219.82579,131.66411 C 220.65113,130.49967 220.89595,131.11055 220.9078,134.36398 C 220.91621,136.67663 220.4733,138.84784 219.92355,139.18888 C 219.35899,139.53911 218.924,138.71739 218.924,137.3007 C 218.924,135.92116 218.4311,134.48668 217.82868,134.11296 C 214.11295,131.80789 225.65585,104.57495 230.3486,104.57495 C 230.94821,104.57495 232.7006,103.40055 234.24281,101.96518 C 235.785,100.5298 237.24208,99.551405 237.48074,99.790965 C 237.71941,100.03053 236.06649,101.71735 233.80759,103.53947 C 229.77824,106.7897 225.9862,113.27407 225.9428,116.98825 C 225.92446,118.55816 226.17121,118.65833 227.44434,117.59776 C 228.28225,116.89974 228.74998,116.10999 228.48375,115.84275 C 227.84767,115.20429 230.5895,109.91405 232.01473,109.0299 C 232.62542,108.65106 232.29292,109.63828 231.27585,111.22371 C 229.42664,114.10632 229.42664,114.10632 232.57149,111.49648 C 237.448,107.44957 242.30217,101.56555 240.76776,101.56129 C 240.02363,101.55923 240.87662,100.6629 242.66332,99.569436 C 244.45002,98.475977 245.91186,97.123207 245.91186,96.56328 C 245.91186,95.068117 244.34114,95.323161 242.91321,97.050184 C 242.22883,97.877909 240.93681,98.545099 240.04206,98.532828 C 238.73178,98.51486 238.83184,98.17322 240.55631,96.777049 C 242.80578,94.95582 245.91186,89.500547 245.91186,87.370982 C 245.91186,86.683054 244.54282,87.988785 242.86957,90.272608 C 240.47436,93.541807 238.71626,94.749207 234.60379,95.94922 C 231.73087,96.787536 228.37703,98.41163 227.1508,99.558321 C 223.7869,102.70404 224.46967,102.94874 228.65175,100.09626 C 230.70351,98.696827 232.83404,97.551835 233.38628,97.551835 C 233.93852,97.551835 232.01306,99.1588 229.1075,101.12287 C 225.05394,103.86294 223.9617,105.12734 224.41363,106.5566 C 224.73757,107.58108 224.4972,108.73283 223.87947,109.11604 C 221.90184,110.34287 215.79655,120.65815 213.8887,125.99609 C 212.04216,131.16246 212.04216,131.16246 212.63043,123.6377 C 213.21137,116.20682 216.22361,109.53713 219.61512,108.17221 C 220.2701,107.90861 219.42971,109.65283 217.74757,112.04826 C 216.06544,114.44369 214.8635,116.92862 215.0766,117.57034 C 215.28971,118.21205 217.34431,116.0021 219.64238,112.65932 C 221.94045,109.31655 223.32392,106.58156 222.71675,106.58156 C 222.10959,106.58156 222.42693,105.67858 223.42198,104.57495 C 226.49307,101.16869 222.73171,102.11256 219.42378,105.57825 C 216.36712,108.78069 213.47055,109.85857 216.27238,106.75096 C 217.18342,105.7405 217.59048,104.5394 217.17697,104.08185 C 216.76345,103.6243 216.91842,103.53194 217.52133,103.8766 C 218.12425,104.22127 219.97236,103.17371 221.62824,101.5487 C 224.79838,98.437668 234.2306,93.565073 237.11493,93.548427 C 238.04902,93.543037 239.96066,92.02868 241.36301,90.183191 C 244.98182,85.420884 244.49885,84.331908 240.64935,88.57403 C 238.87084,90.53394 238.05014,91.321273 238.82559,90.323658 C 241.9008,86.367377 234.0073,87.890459 228.8467,92.249126 C 227.12325,93.704753 224.651,95.00939 223.35282,95.148318 C 220.85643,95.415476 212.26603,100.88596 210.20972,103.51802 C 209.40147,104.55258 208.98138,104.65881 208.96028,103.83398 C 208.9248,102.44696 219.37857,94.452119 225.17119,91.436192 C 227.23276,90.362836 228.92639,88.929453 228.93481,88.250898 C 228.9458,87.364582 229.19059,87.398042 229.80407,88.369716 C 230.48199,89.443458 231.08118,89.266349 232.71086,87.510536 C 233.83992,86.294082 235.27509,85.616047 235.90013,86.003793 C 238.48819,87.609305 242.74559,84.460781 243.42221,80.440912 C 244.39317,74.672222 242.88634,73.438802 241.18207,78.607252 C 239.48646,83.749457 236.91591,87.092996 236.91591,84.156288 C 236.91591,83.17404 237.39343,81.474765 237.97708,80.38012 C 238.56073,79.285476 238.88081,77.170598 238.68838,75.680393 C 238.37149,73.226426 238.20643,73.382868 236.93804,77.3394 C 236.16778,79.742059 234.83565,81.959502 233.97776,82.26705 C 231.7751,83.056677 216.97147,93.357195 213.68679,96.385718 C 212.1807,97.77435 210.70378,98.664911 210.40473,98.364744 C 210.10569,98.064576 212.12036,96.089517 214.88178,93.975725 C 217.96072,91.618877 219.4678,89.862765 218.77847,89.435132 C 218.06291,88.991236 218.52082,88.274266 220.0384,87.462393 C 222.21268,86.299198 222.30173,86.333845 221.0506,87.856203 C 220.29609,88.77427 220.12857,89.525417 220.67832,89.525417 C 221.81197,89.525417 224.68877,86.348188 223.92175,85.943265 C 223.64688,85.798153 223.83144,85.303186 224.3319,84.843339 C 224.86055,84.357577 224.94053,84.532739 224.52279,85.261382 C 223.51043,87.027175 225.41802,86.827612 226.9204,85.010556 C 227.60478,84.182832 228.72302,83.505603 229.40536,83.505603 C 231.07039,83.505603 235.91636,78.560976 235.91636,76.862058 C 235.91636,76.117684 234.45451,76.990253 232.66782,78.801098 C 230.88112,80.611944 230.43132,80.919224 231.66827,79.483942 C 232.90521,78.04866 233.91725,76.483108 233.91725,76.004937 C 233.91725,75.526766 234.66166,74.309883 235.5715,73.300755 C 236.5242,72.244073 236.74592,71.465975 236.09432,71.465975 C 235.47204,71.465975 234.2261,72.59469 233.32556,73.974231 C 232.42504,75.353771 231.30373,76.482486 230.83377,76.482486 C 230.36381,76.482486 231.08383,74.848762 232.43381,72.851989 C 236.25625,67.198157 234.35442,67.00417 229.06857,72.508736 C 226.43995,75.246115 223.64433,77.47206 222.85607,77.455279 C 221.93378,77.435647 222.13552,77.03012 223.42198,76.317689 C 226.09572,74.836992 230.9186,70.294607 230.9186,69.257054 C 230.9186,68.800443 229.23186,69.564036 227.17029,70.953925 C 225.10872,72.343814 221.06887,74.656715 218.19285,76.093704 C 215.31682,77.530693 211.34613,80.503608 209.36908,82.700182 C 207.39203,84.896757 205.59136,86.510181 205.36759,86.285572 C 205.14381,86.060962 207.20287,83.578863 209.94326,80.769797 C 215.02419,75.561547 215.70834,74.475882 213.90944,74.475882 C 212.5822,74.475882 204.20946,83.154236 201.80979,87.017161 C 200.77161,88.688401 199.93835,89.345624 199.93628,88.494886 C 199.93422,87.652186 201.21861,85.549365 202.79045,83.82195 C 205.58945,80.745933 207.45996,76.482486 206.0105,76.482486 C 205.60805,76.482486 204.22236,77.611202 202.9312,78.990742 C 201.64003,80.370283 200.90276,81.498998 201.2928,81.498998 C 201.68285,81.498998 201.49992,82.440638 200.88628,83.591532 C 200.27264,84.742426 199.51802,85.430566 199.20935,85.120731 C 198.90067,84.810897 199.21709,83.869257 199.91249,83.028197 C 200.6454,82.141788 200.74653,81.498998 200.1531,81.498998 C 199.59001,81.498998 198.20373,82.966328 197.07248,84.759731 C 195.94122,86.553134 194.66011,87.79472 194.22556,87.518812 C 193.29849,86.930193 189.03885,95.253521 188.97869,97.771172 C 188.9493,99.001303 189.4388,99.306885 190.6867,98.837451 C 192.22308,98.259504 192.26775,98.386919 191.05386,99.884614 C 190.03252,101.14474 189.33225,101.30693 188.37082,100.50601 C 186.9228,99.299752 184.87003,104.90413 185.04299,109.59146 C 185.11115,111.4386 185.43902,110.9942 186.28686,107.90547 C 187.64643,102.95248 189.50539,100.65976 188.58051,105.0766 C 186.80148,113.57262 186.73823,117.58181 188.31016,122.21251 C 190.44933,128.5142 189.34449,130.81385 187.0229,124.89182 C 186.10414,122.54816 186.0312,122.88805 186.53848,127.14925 C 186.86695,129.90834 187.6056,133.04716 188.17992,134.12441 C 188.91378,135.50089 188.90415,136.19013 188.14751,136.4433 C 186.75246,136.91005 189.1518,145.13848 191.71443,148.67585 C 194.6807,152.7704 195.11842,153.73677 194.00677,153.73677 C 190.64,153.73677 185.26599,140.33752 184.63536,130.37057 C 184.41582,126.90073 183.71969,123.09306 183.08841,121.90909 C 181.72611,119.35404 181.56516,116.26323 182.83546,117.05126 C 184.15374,117.86907 184.71099,115.47617 183.87172,112.60137 C 183.25287,110.48157 183.12403,110.41164 183.03982,112.14988 C 182.98503,113.28111 182.43391,114.71484 181.81513,115.33595 C 180.40545,116.75091 181.21061,126.07306 183.39872,133.67072 C 184.27279,136.70571 185.36302,142.80077 185.82145,147.2153 C 186.91063,157.70366 191.55913,167.62336 202.45234,182.70493 C 203.79665,184.56611 204.6912,186.42236 204.44026,186.82994 C 204.1893,187.23751 205.54629,189.77666 207.45579,192.47249 C 211.76259,198.55285 211.98355,196.71983 207.83353,189.3388 C 206.1318,186.31217 205.1971,183.83584 205.75641,183.83584 C 207.34562,183.83584 212.92494,195.84038 212.942,199.29644 C 212.95042,201.00172 213.43655,203.07416 214.0223,203.90188 C 214.81199,205.01782 214.93113,204.28554 214.48319,201.06897 C 214.1093,198.38408 214.24696,196.9593 214.84448,197.32996 C 215.37543,197.65935 216.11181,199.95001 216.48087,202.42032 C 216.84992,204.89063 217.56677,206.91179 218.07385,206.91179 C 219.84171,206.91179 217.84718,225.15909 215.56117,229.89966 C 212.22158,236.82508 205.86368,239.79726 201.49071,236.4773 C 199.22287,234.75555 200.1702,234.52437 203.08252,236.08884 C 204.19297,236.68537 205.34403,236.93 205.64045,236.63248 C 205.93685,236.33495 204.341,235.35319 202.09411,234.45079 C 197.02735,232.41587 196.64765,231.22519 197.38812,219.69385 C 197.79824,213.30693 197.66949,210.89146 196.97419,211.9283 C 196.41911,212.75603 195.95806,214.42245 195.94965,215.63147 C 195.94123,216.84049 195.43645,218.13856 194.82791,218.51607 C 194.07459,218.98339 193.89821,218.28182 194.27524,216.31786 C 194.5798,214.73133 195.14237,210.95008 195.52539,207.91509 C 196.22177,202.39693 196.22177,202.39693 197.50134,205.90849 C 198.2051,207.83984 198.84954,209.1943 198.93342,208.91839 C 199.75772,206.20723 199.60862,203.95947 198.4498,201.62756 C 197.69109,200.10077 197.51771,199.12912 198.06452,199.46834 C 198.70455,199.86538 198.80987,198.53103 198.36017,195.72285 C 197.97596,193.32361 197.58271,190.68337 197.48629,189.85565 C 197.38985,189.02793 196.83854,187.44772 196.26114,186.34409 C 195.68375,185.24046 194.89673,182.98303 194.51222,181.32758 C 193.85533,178.49943 189.0862,167.80027 184.83736,159.62275 C 183.79561,157.61778 183.03153,154.90722 183.13937,153.59927 C 183.24721,152.29134 182.28676,148.51393 181.00503,145.20504 C 177.57751,136.35666 176.70605,134.45696 174.70821,131.47864 C 173.7144,129.99709 172.96432,128.41689 173.04135,127.96708 C 173.35527,126.13421 172.8478,124.83589 170.96634,122.65841 C 169.87824,121.39911 169.25067,119.94215 169.57173,119.42071 C 169.89279,118.89927 169.32121,117.49022 168.30155,116.28948 C 165.44518,112.92588 163.78175,109.59146 164.96013,109.59146 C 165.52571,109.59146 164.98386,107.67265 163.75601,105.32743 C 162.52816,102.98221 161.41675,100.16042 161.28622,99.056789 C 160.62857,93.496721 159.93872,91.248026 157.84996,87.855652 C 156.59627,85.819542 156.10965,84.488076 156.76856,84.896838 C 157.69537,85.47178 157.70226,85.057703 156.79902,83.067869 C 155.45819,80.114026 154.11012,79.670852 154.31418,82.250989 C 154.40861,83.444893 153.6538,84.071113 151.95413,84.208989 C 149.45525,84.411696 149.45525,84.411696 151.95413,83.634013 C 154.45301,82.85633 154.45301,82.85633 152.20402,82.110053 C 150.96707,81.699601 149.95503,80.716973 149.95503,79.926434 C 149.95503,78.998255 148.89279,78.489091 146.95638,78.489091 C 145.30712,78.489091 143.96462,78.150477 143.97303,77.736614 C 144.00068,76.377489 145.62165,74.36644 146.5482,74.541734 C 149.35789,75.07329 151.14653,74.085882 153.39774,70.760499 C 155.26785,67.99805 155.59755,66.844004 154.68321,66.261002 C 153.82199,65.711874 153.97767,65.472284 155.20267,65.461525 C 157.32867,65.442852 157.53716,62.598711 155.47086,61.802823 C 153.50847,61.046955 154.9657,58.288829 158.2634,56.517326 C 160.24624,55.452162 162.94918,51.669199 162.94918,49.959244 C 162.94918,48.381085 158.89297,50.585092 156.61851,53.399111 C 155.06077,55.326384 153.26158,57.238287 152.62031,57.647782 C 151.97904,58.057277 151.90415,58.406145 152.45391,58.423045 C 153.00366,58.439944 152.77876,58.89143 151.95413,59.426347 C 150.98219,60.056822 150.88828,60.404327 151.68717,60.414286 C 152.52661,60.424751 152.29174,61.551564 150.95048,63.948526 C 149.86751,65.883908 149.08805,67.652228 149.21835,67.878127 C 149.34864,68.104025 149.04579,68.665089 148.54534,69.124936 C 148.01046,69.616416 147.93802,69.340732 148.36957,68.456068 C 148.77336,67.628343 148.39399,67.829821 147.52653,68.903795 C 146.30257,70.419149 145.68154,70.587675 144.75362,69.656271 C 144.09598,68.99616 142.63582,68.42745 141.50883,68.392473 C 139.48173,68.329559 139.48119,68.319976 141.45885,67.498889 C 144.712,66.14825 148.70505,61.432952 146.59567,61.432952 C 143.66338,61.432952 146.28533,58.20667 151.86302,54.951539 C 154.66189,53.31812 156.95188,51.625047 156.95188,51.189156 C 156.95188,49.51343 153.95101,50.533822 148.95548,53.908184 C 141.15779,59.175342 139.36847,58.57254 145.70694,52.813786 C 157.27944,42.299706 171.91017,47.463844 161.48738,58.383732 C 160.09236,59.845285 158.95098,62.115436 158.95098,63.428515 C 158.95098,64.741593 158.03986,67.705116 156.92627,70.014123 C 154.90156,74.212316 154.90156,74.212316 158.47271,80.96911 C 160.43683,84.685346 162.74968,90.501095 163.61237,93.892996 C 164.47505,97.284899 166.19084,102.09178 167.42524,104.57495 C 168.65964,107.05813 170.46816,111.57299 171.44417,114.60798 C 172.42018,117.64296 174.12833,121.93208 175.24006,124.13935 C 176.3518,126.34661 178.5144,131.76445 180.04584,136.17898 C 181.57728,140.59351 182.85501,143.48598 182.88523,142.60668 C 182.91546,141.72739 182.04059,138.38344 180.94109,135.17567 C 178.14297,127.01226 178.19296,114.02597 181.05122,106.56739 C 182.2113,103.54019 183.89804,98.555869 184.79953,95.491118 C 186.54821,89.546264 190.64018,84.831641 200.7727,77.087378 C 203.58637,74.936895 206.15299,72.34085 206.47629,71.31839 C 207.3303,68.617561 208.9285,69.040695 208.9285,71.967626 C 208.9285,74.765474 210.08567,75.19811 211.85273,73.060927 C 212.49619,72.282702 216.31357,70.911062 220.33582,70.012838 C 225.87382,68.776126 228.6588,67.512105 231.80907,64.805468 C 235.9725,61.228352 238.91501,61.286702 238.91501,64.946379 C 238.91501,65.639997 240.7142,68.068405 242.91321,70.342841 C 245.11222,72.617277 246.91141,75.395136 246.91141,76.51586 C 246.91141,77.636584 247.5861,80.174378 248.41073,82.155402 C 252.77299,92.634936 247.9706,104.55117 236.26933,112.28209 C 229.08944,117.02576 227.19173,126.95578 231.64491,136.48004 C 232.85995,139.07874 232.95145,140.32312 232.0702,142.26452 C 231.01502,144.58906 231.09702,144.70032 233.43188,144.11212 C 236.14987,143.42738 236.99874,145.35641 234.41703,146.35083 C 233.5924,146.66846 232.9177,147.34311 232.9177,147.85006 C 232.9177,148.35701 234.31878,148.04454 236.0312,147.15569 C 239.84276,145.17726 242.23966,146.67123 238.95686,148.97923 C 234.9009,151.83079 235.54044,166.696 240.10578,175.68425 C 241.40059,178.23347 241.91366,181.50542 241.91366,187.21338 C 241.91366,195.12773 241.9276,195.17049 243.91888,193.36164 C 246.26996,191.22596 247.46881,191.87105 246.07834,194.52363 C 244.79885,196.96454 242.57547,209.56478 243.23519,210.63625 C 245.35151,214.07337 237.33264,233.9474 230.49025,242.2234 C 224.9759,248.89311 221.89205,250.1992 206.09887,252.55382 C 200.41943,253.40057 193.89736,254.54703 191.60539,255.10151 C 189.31341,255.656 175.51853,256.39319 160.95008,256.73972 C 135.04624,257.35588 134.39968,257.42187 131.63655,259.73159 C 128.17856,262.62216 125.96582,262.76076 125.96582,260.08681 z M 130.4638,258.08021 C 130.80356,257.52839 130.60521,257.07691 130.02301,257.07691 C 129.44082,257.07691 128.96447,257.52839 128.96447,258.08021 C 128.96447,258.63202 129.16283,259.08351 129.40526,259.08351 C 129.64769,259.08351 130.12403,258.63202 130.4638,258.08021 z M 113.97122,252.06039 C 115.26333,251.22224 115.23694,251.0857 113.78032,251.07245 C 112.8507,251.064 111.81211,251.50858 111.47234,252.06039 C 110.69051,253.33017 112.01373,253.33017 113.97122,252.06039 z M 109.61198,247.43041 C 114.16419,244.87511 116.86972,243.95313 118.77034,244.30945 C 120.25397,244.5876 122.36744,244.4454 123.46695,243.99344 C 124.77059,243.45758 122.79166,243.14718 117.77852,243.1012 C 113.55038,243.06241 109.80847,242.57182 109.46317,242.01101 C 109.11786,241.45019 108.3897,241.26779 107.84504,241.60567 C 107.26891,241.96308 107.56026,242.73783 108.54166,243.45814 C 110.03813,244.5565 109.70635,245.00347 105.60282,247.41732 C 103.05866,248.91391 100.97706,250.34509 100.97706,250.59773 C 100.97706,251.75674 103.65388,250.77487 109.61198,247.43041 z M 102.35251,246.42939 C 104.95412,245.5396 106.83596,244.56392 106.53437,244.26119 C 105.7392,243.46305 94.979763,246.20345 94.979763,247.20412 C 94.979763,248.45579 97.069695,248.23618 102.35251,246.42939 z M 120.4683,247.04388 C 120.80806,246.49207 120.18646,246.04058 119.08695,246.04058 C 117.98745,246.04058 116.80986,246.49207 116.4701,247.04388 C 116.13033,247.5957 116.75193,248.04718 117.85144,248.04718 C 118.95095,248.04718 120.12853,247.5957 120.4683,247.04388 z M 214.89227,247.08591 C 215.80147,246.50872 216.7991,246.52275 217.51945,247.12284 C 218.26644,247.7451 219.61586,247.73349 221.30129,247.09029 C 224.50057,245.86935 224.80141,244.63995 221.67276,245.57218 C 220.43582,245.94074 222.19257,244.19105 225.57664,241.68396 C 228.96071,239.17688 232.0234,236.64832 232.3826,236.06495 C 233.37254,234.45717 231.33547,234.79613 229.95198,236.46939 C 228.18746,238.60347 217.26455,243.73609 211.15103,245.30384 C 208.25027,246.04771 206.1887,246.96928 206.56976,247.35176 C 207.57093,248.35668 213.17239,248.17775 214.89227,247.08591 z M 99.977515,243.03067 C 99.977515,242.47886 99.527717,242.02737 98.977965,242.02737 C 98.428212,242.02737 97.978414,242.47886 97.978414,243.03067 C 97.978414,243.58249 98.428212,244.03398 98.977965,244.03398 C 99.527717,244.03398 99.977515,243.58249 99.977515,243.03067 z M 212.47793,230.52162 C 213.2745,228.60798 213.92625,226.28745 213.92625,225.36489 C 213.92625,224.44232 214.71339,223.08772 215.67546,222.35467 C 216.63753,221.62161 216.89382,221.00748 216.24502,220.98993 C 215.39084,220.96683 215.32189,220.06016 215.99513,217.70391 C 216.5065,215.91415 216.87146,213.09236 216.80615,211.43327 C 216.72286,209.31732 216.40169,209.98929 215.73037,213.68408 C 215.20399,216.58112 214.42021,218.95142 213.98862,218.95142 C 213.55703,218.95142 213.41851,217.82464 213.68079,216.44746 C 214.36696,212.84452 212.95044,202.76543 211.85354,203.44589 C 211.34427,203.76182 210.9276,202.86495 210.9276,201.45284 C 210.9276,200.04073 210.4778,198.88537 209.92805,198.88537 C 209.37829,198.88537 208.9285,198.36363 208.9285,197.72594 C 208.9285,197.08827 207.86781,195.16945 206.57144,193.46191 C 205.27505,191.75438 203.01849,187.987 201.55684,185.08996 C 200.0952,182.19293 198.40536,179.82263 197.80164,179.82263 C 197.14419,179.82263 197.35137,180.81437 198.31826,182.29559 C 199.20612,183.65571 199.93254,185.32261 199.93254,185.99981 C 199.93254,186.67701 202.19146,190.68474 204.95235,194.90588 C 210.30148,203.08417 213.13903,212.94274 211.16362,216.48583 C 210.46643,217.73635 210.08248,216.34627 209.7198,211.25842 C 209.44807,207.4464 208.67263,203.29008 207.9966,202.02215 C 206.15236,198.56322 205.83124,199.93544 207.43033,204.44194 C 208.20606,206.62809 208.8605,210.7604 208.88463,213.62487 C 208.90876,216.48933 209.35814,219.09953 209.88328,219.4253 C 210.86619,220.03504 207.07189,228.06141 204.39958,231.02536 C 202.49725,233.1353 203.44192,234.00095 207.64676,234.00095 C 210.56211,234.00095 211.22976,233.52012 212.47793,230.52162 z M 210.78622,225.00331 C 212.23836,222.26186 213.5652,220.42219 213.73476,220.91515 C 214.16133,222.15527 210.08818,229.98774 209.0167,229.98774 C 208.5378,229.98774 209.33408,227.74474 210.78622,225.00331 z M 204.74369,222.95303 C 206.37246,215.87033 206.23033,210.08272 204.27868,204.01709 C 202.22194,197.62486 201.43537,197.52416 201.41963,203.65106 C 201.4045,209.54005 199.98894,225.07126 199.37669,226.06561 C 199.12909,226.46774 199.19783,227.50646 199.52945,228.37387 C 200.65195,231.31006 203.50364,228.34538 204.74369,222.95303 z M 168.94649,250.15867 C 169.77111,249.6981 171.7952,249.05316 173.44446,248.72545 C 176.44311,248.12964 176.44311,248.12964 173.44446,249.54811 C 170.07086,251.14396 166.25499,251.66192 168.94649,250.15867 z M 167.94694,248.71459 C 167.94694,248.45548 169.39851,247.73556 171.17265,247.11477 C 172.94681,246.49397 173.95885,246.39906 173.42164,246.90385 C 172.28344,247.97338 167.94694,249.40766 167.94694,248.71459 z M 185.1392,247.84652 C 184.4795,247.18434 183.93974,246.28137 183.93974,245.83992 C 183.93974,244.36165 185.44521,245.01679 186.70643,247.04388 C 188.07326,249.24075 187.0502,249.7647 185.1392,247.84652 z M 160.21416,247.32724 C 161.73354,247.09662 163.98253,247.10279 165.21192,247.34093 C 166.4413,247.57907 165.19817,247.76776 162.44941,247.76023 C 159.70065,247.7527 158.69479,247.55784 160.21416,247.32724 z M 172.48143,240.66616 C 170.48152,239.81172 169.91861,239.1529 170.74852,238.63806 C 171.4246,238.21865 171.71897,237.45522 171.40267,236.94153 C 170.64493,235.71087 171.15149,235.7617 174.59324,237.26168 C 177.38307,238.47755 178.47407,241.06277 176.44311,241.64511 C 175.89336,241.80274 174.1106,241.36221 172.48143,240.66616 z M 167.41613,237.96378 C 166.49809,236.47277 167.22822,235.94493 168.83226,236.94 C 169.6916,237.4731 169.79383,237.99015 169.12227,238.40676 C 168.55181,238.76065 167.78405,238.5613 167.41613,237.96378 z M 179.18831,237.77407 C 179.3277,237.0784 178.87952,236.62208 178.19233,236.76003 C 177.50513,236.89799 176.94289,236.55937 176.94289,236.00756 C 176.94289,234.87574 178.59827,234.81003 181.18726,235.83906 C 182.79819,236.47937 182.77866,236.62943 180.9338,237.78589 C 179.33128,238.79044 178.98512,238.78809 179.18831,237.77407 z M 151.63492,234.63842 C 149.66904,231.62683 148.43693,226.97784 149.60466,226.97784 C 150.46225,226.97784 154.15253,236.14194 153.54181,236.75496 C 153.36727,236.93014 152.50918,235.9777 151.63492,234.63842 z M 222.00594,235.6418 C 222.23501,235.44064 223.54692,234.73851 224.9213,234.08151 C 227.27751,232.95515 227.30941,232.97604 225.47992,234.44725 C 223.88764,235.72773 220.63424,236.84643 222.00594,235.6418 z M 223.79378,230.23314 C 227.48431,227.65549 233.80346,220.89189 234.45944,218.81731 C 234.78508,217.78744 235.73779,216.94481 236.57657,216.94481 C 237.59047,216.94481 236.70919,218.61415 233.9471,221.92554 C 229.08635,227.75298 224.2548,232.01618 222.59562,231.94172 C 221.95061,231.91278 222.48979,231.14392 223.79378,230.23314 z M 227.91995,231.6804 C 227.91995,231.50774 229.33891,230.04041 231.07319,228.41967 C 234.1403,225.55338 234.10396,226.56756 231.00957,230.19511 C 229.67126,231.764 227.91995,232.60593 227.91995,231.6804 z M 145.55856,230.15261 C 145.27463,229.69146 145.43432,227.99839 145.91343,226.39022 C 146.77897,223.48501 146.7851,223.49039 146.87046,227.22866 C 146.95517,230.93804 146.57031,231.79579 145.55856,230.15261 z M 142.61377,229.21565 C 141.7062,227.7657 143.65924,220.95802 144.9828,220.95802 C 145.47174,220.95802 145.46317,222.16656 144.96324,223.7171 C 144.47396,225.2346 143.92456,227.37916 143.74235,228.48279 C 143.50433,229.92439 143.18656,230.13074 142.61377,229.21565 z M 136.52455,227.08089 C 135.88355,226.03983 136.91781,220.09987 137.83964,219.528 C 138.18095,219.31627 138.4602,221.1316 138.4602,223.56208 C 138.4602,227.75993 137.74415,229.06163 136.52455,227.08089 z M 140.06184,225.26926 C 139.95206,221.82118 141.74268,216.94481 143.11862,216.94481 C 144.24904,216.94481 144.176,217.67228 142.78461,220.2715 C 142.13939,221.47681 141.28584,223.81743 140.88782,225.47288 C 140.16416,228.48279 140.16416,228.48279 140.06184,225.26926 z M 134.19412,219.95472 C 134.19412,218.02336 134.39983,217.23326 134.65124,218.19894 C 134.90266,219.16462 134.90266,220.74482 134.65124,221.7105 C 134.39983,222.67618 134.19412,221.88608 134.19412,219.95472 z M 127.08032,215.84483 C 127.0171,213.30848 126.2638,209.82168 125.40632,208.09637 C 123.81246,204.8894 125.63478,197.88207 128.06264,197.88207 C 128.54086,197.88207 128.2009,199.42123 127.30717,201.30244 C 125.58055,204.93679 126.18369,209.77187 128.00339,206.88367 C 129.19078,204.99906 129.20207,210.71788 128.02227,216.44316 C 127.19527,220.45637 127.19527,220.45637 127.08032,215.84483 z M 182.67152,217.86769 C 183.02497,216.51103 183.47806,216.05623 183.7276,216.80765 C 183.96797,217.53147 183.6894,218.60071 183.10856,219.18373 C 182.36683,219.92825 182.23675,219.53653 182.67152,217.86769 z M 179.33482,217.3644 C 179.66852,216.49155 179.94154,215.58858 179.94154,215.3578 C 179.94154,215.12703 180.34923,214.93821 180.84751,214.93821 C 181.3458,214.93821 181.51824,215.84118 181.23071,216.94481 C 180.94318,218.04845 180.26247,218.95142 179.71802,218.95142 C 179.17356,218.95142 179.00113,218.23727 179.33482,217.3644 z M 227.8326,213.48702 C 229.25502,210.4816 230.73278,207.99843 231.11649,207.96886 C 232.01844,207.89935 230.0145,213.77224 228.13931,216.69399 C 225.42554,220.92234 225.23861,218.96781 227.8326,213.48702 z M 231.55669,216.44316 C 231.87313,215.61544 232.58878,214.93821 233.14703,214.93821 C 233.73208,214.93821 233.63493,215.57572 232.9177,216.44316 C 232.23332,217.27089 231.51766,217.94812 231.32736,217.94812 C 231.13706,217.94812 231.24025,217.27089 231.55669,216.44316 z M 172.94469,216.40319 C 172.94469,215.00077 177.15264,207.7912 177.66879,208.30929 C 178.43242,209.07578 174.90012,216.94481 173.79244,216.94481 C 173.32617,216.94481 172.94469,216.70108 172.94469,216.40319 z M 186.41273,214.18573 C 186.78921,212.39233 186.72415,210.92605 186.26815,210.92734 C 185.81215,210.92862 185.58705,207.54248 185.76792,203.40257 C 186.07989,196.26207 187.93794,192.44497 187.93794,198.94459 C 187.93794,200.73518 188.35433,201.7554 188.93749,201.39363 C 190.17777,200.62421 190.18051,201.8369 188.95543,209.34606 C 188.42191,212.61627 187.47754,215.77667 186.85682,216.36918 C 186.02398,217.16415 185.90761,216.59195 186.41273,214.18573 z M 140.03844,214.35295 C 140.0864,213.18415 140.32325,212.94642 140.64233,213.74679 C 140.93108,214.47105 140.89556,215.33639 140.56342,215.66979 C 140.23128,216.00317 139.99504,215.41059 140.03844,214.35295 z M 236.91591,212.9316 C 237.50434,211.82797 238.21069,210.925 238.48557,210.925 C 238.76045,210.925 238.50389,211.82797 237.91546,212.9316 C 237.32702,214.03524 236.62067,214.93821 236.34579,214.93821 C 236.07092,214.93821 236.32747,214.03524 236.91591,212.9316 z M 136.62033,212.43325 C 135.36856,211.50736 134.99072,210.40743 135.43825,208.99208 C 136.32699,206.18142 137.89972,206.33265 137.28037,209.16922 C 136.89432,210.93723 137.01118,211.10667 137.81937,209.95075 C 139.16942,208.01983 139.78626,208.85206 139.04703,211.60709 C 138.52909,213.53739 138.2442,213.63438 136.62033,212.43325 z M 192.0064,213.24164 C 192.23182,210.63718 193.7951,208.42787 193.86498,210.61496 C 193.90363,211.82398 193.48545,213.09221 192.93569,213.43325 C 192.38594,213.7743 191.96776,213.68807 192.0064,213.24164 z M 131.96312,209.53847 C 131.96312,208.71074 132.41292,207.75448 132.96267,207.41344 C 133.51243,207.0724 133.96223,207.4706 133.96223,208.29832 C 133.96223,209.12605 133.51243,210.08231 132.96267,210.42335 C 132.41292,210.76439 131.96312,210.36619 131.96312,209.53847 z M 227.43387,207.41344 C 227.85824,205.75799 228.75928,201.24313 229.43618,197.38042 C 230.63354,190.5478 231.28055,190.75995 230.96611,197.88207 C 230.78165,202.06006 229.08014,208.01643 227.67016,209.42005 C 226.9933,210.09384 226.91569,209.43484 227.43387,207.41344 z M 174.33707,207.41344 C 175.9212,203.48404 176.16233,202.35375 175.09243,203.87283 C 173.60216,205.98874 172.57506,204.46321 173.86325,202.04717 C 174.45755,200.93255 174.94379,198.6098 174.94379,196.88551 C 174.94379,194.84347 175.33068,193.99045 176.0535,194.43885 C 176.70534,194.84323 176.93598,196.53278 176.61249,198.53375 C 176.28747,200.5441 176.44715,201.70116 177.00209,201.3569 C 178.2362,200.59132 178.19002,201.88629 176.8451,205.75877 C 176.24157,207.49656 175.29386,208.91839 174.73907,208.91839 C 174.18428,208.91839 174.00338,208.24117 174.33707,207.41344 z M 193.13055,205.40684 C 193.15093,203.75139 193.37494,203.19562 193.62837,204.1718 C 193.8818,205.14798 193.86513,206.50244 193.59134,207.18171 C 193.31753,207.86097 193.11018,207.06228 193.13055,205.40684 z M 184.17164,200.89198 C 184.17164,198.96062 184.37734,198.17052 184.62876,199.1362 C 184.88017,200.10188 184.88017,201.68208 184.62876,202.64775 C 184.37734,203.61343 184.17164,202.82333 184.17164,200.89198 z M 220.99964,200.39032 C 220.89199,199.28669 220.45225,196.23916 220.02243,193.61803 C 219.5926,190.99691 219.59186,188.85235 220.02077,188.85235 C 221.04909,188.85235 222.22719,196.90538 221.64902,199.98242 C 221.27578,201.96881 221.16064,202.04114 220.99964,200.39032 z M 234.33447,198.04232 C 235.20451,196.35354 235.91636,194.04641 235.91636,192.91538 C 235.91636,191.78435 236.36615,190.85895 236.91591,190.85895 C 238.85791,190.85895 236.34657,198.88328 233.93669,200.37827 C 233.23031,200.81647 233.39081,199.87402 234.33447,198.04232 z M 171.96044,194.11969 C 171.95184,190.59788 172.38331,187.84905 172.94469,187.84905 C 174.22479,187.84905 174.22479,196.89712 172.94469,198.88537 C 172.26188,199.9459 171.97122,198.53855 171.96044,194.11969 z M 226.11216,198.13289 C 226.14905,197.16722 225.86908,192.76523 225.49,188.3507 C 225.00759,182.73277 225.10794,180.80493 225.82441,181.92608 C 227.34203,184.30089 228.47175,199.88867 227.12623,199.88867 C 226.53161,199.88867 226.07527,199.09857 226.11216,198.13289 z M 123.46695,191.86225 C 123.80671,191.31044 124.28306,190.85895 124.52549,190.85895 C 124.76792,190.85895 124.96627,191.31044 124.96627,191.86225 C 124.96627,192.41407 124.48993,192.86556 123.90773,192.86556 C 123.32553,192.86556 123.12718,192.41407 123.46695,191.86225 z M 214.90706,184.37572 C 212.85979,180.00193 212.70478,179.16647 214.07735,179.90379 C 215.00569,180.4025 216.28725,182.39812 216.92524,184.33853 C 218.82839,190.12677 217.6095,190.14924 214.90706,184.37572 z M 190.66588,187.24288 C 190.26501,186.84052 189.95072,185.57072 189.96744,184.42109 C 189.99551,182.49115 190.07757,182.46841 191.03773,184.12447 C 192.15583,186.05292 191.86983,188.45136 190.66588,187.24288 z M 209.43663,182.09402 C 207.79196,180.11208 207.07858,178.70202 207.85133,178.96057 C 209.49954,179.51203 214.59663,185.87662 213.30469,185.77 C 212.82192,185.73016 211.08129,184.07598 209.43663,182.09402 z M 185.50616,179.07015 C 184.56905,176.44902 183.30496,173.17575 182.69705,171.79621 C 182.08914,170.41667 181.68313,168.91063 181.79476,168.44946 C 181.90641,167.98829 181.04866,166.06953 179.88865,164.18555 C 177.95249,161.04102 177.92965,160.81319 179.6102,161.4073 C 180.61706,161.76326 179.43558,159.95726 176.98466,157.39398 C 171.93394,152.11169 172.54815,151.01739 177.77034,155.9942 C 180.11184,158.22568 180.85562,158.59856 180.12666,157.1755 C 179.54081,156.03182 177.22725,153.82019 174.98543,152.26078 C 170.36549,149.04714 170.23854,147.7829 174.77209,150.13608 C 178.94014,152.29956 181.87584,156.73287 181.48811,160.27819 C 181.31311,161.87839 181.75794,164.10874 182.47662,165.2345 C 183.19528,166.36027 184.51147,169.83033 185.40147,172.94574 C 186.76451,177.71699 187.3265,178.52959 188.96563,178.09934 C 190.74406,177.63253 190.8182,177.85749 189.82676,180.71219 C 188.34731,184.97209 187.50126,184.65055 185.50616,179.07015 z M 156.7397,177.06355 C 156.09682,175.54605 154.77226,173.38864 153.79626,172.2693 C 151.65238,169.81055 148.68793,161.76319 149.92607,161.76319 C 150.41113,161.76319 151.0137,162.55329 151.26511,163.51896 C 151.60911,164.84022 151.75093,164.71607 151.83818,163.01731 C 151.90195,161.77573 152.34156,160.75988 152.81507,160.75988 C 153.28859,160.75988 153.46264,161.88026 153.20185,163.2496 C 152.54086,166.72035 153.7161,170.81788 155.21285,170.26105 C 155.98712,169.97301 157.04338,171.68035 158.02791,174.81132 C 159.6895,180.09543 158.73277,181.76811 156.7397,177.06355 z M 230.27171,178.48644 C 230.6275,177.47563 230.92549,173.86374 230.93391,170.46002 C 230.94461,166.13442 231.23728,164.72448 231.90613,165.77639 C 233.05163,167.57795 232.08995,177.89722 230.64387,179.32098 C 229.95548,179.99873 229.83473,179.72795 230.27171,178.48644 z M 202.80227,171.04988 C 202.0051,170.08082 200.57818,167.70775 199.63133,165.77639 C 198.68449,163.84504 197.04839,160.91038 195.99558,159.25493 C 193.45213,155.25565 193.41727,153.80848 195.94196,157.03017 C 200.64175,163.02741 207.15899,176.34603 202.80227,171.04988 z M 221.93795,167.53217 C 221.92954,166.01468 222.37245,164.77309 222.9222,164.77309 C 224.18604,164.77309 224.18604,166.82331 222.9222,168.7863 C 222.16716,169.95903 221.94989,169.68219 221.93795,167.53217 z M 193.22077,165.02392 C 189.04135,158.79122 185.51865,147.71695 187.71546,147.71695 C 188.26521,147.71695 189.01223,149.30722 189.37549,151.25088 C 189.73877,153.19454 191.55469,157.7094 193.41088,161.28391 C 196.79953,167.80951 196.67899,170.18108 193.22077,165.02392 z M 142.95818,162.76649 C 142.95818,162.21467 143.65942,161.76319 144.51649,161.76319 C 145.37357,161.76319 145.79682,162.21467 145.45705,162.76649 C 145.11729,163.3183 144.41605,163.76979 143.89874,163.76979 C 143.38143,163.76979 142.95818,163.3183 142.95818,162.76649 z M 138.43629,159.68097 C 137.49267,156.6967 138.18376,156.57223 140.25608,159.35319 C 141.7343,161.33691 141.79042,161.76319 140.57332,161.76319 C 139.76008,161.76319 138.79841,160.82619 138.43629,159.68097 z M 211.99741,154.99089 C 212.05966,152.54601 212.16548,152.46032 212.9267,154.23842 C 214.09988,156.97882 214.09988,157.74998 212.9267,157.74998 C 212.37695,157.74998 211.95876,156.50839 211.99741,154.99089 z M 220.3421,149.85834 C 220.56892,146.34567 221.24655,142.97776 221.84794,142.37411 C 222.63951,141.57957 222.75606,142.65036 222.27011,146.25253 C 221.13675,154.65378 219.88078,157.00274 220.3421,149.85834 z M 103.97572,153.23512 C 102.60133,152.4465 101.90415,151.78526 102.42641,151.76572 C 102.94868,151.74616 102.83623,151.18838 102.17652,150.5262 C 101.51682,149.86402 100.97706,148.86523 100.97706,148.30666 C 100.97706,147.74811 102.30818,148.85425 103.93509,150.76475 C 105.56201,152.67527 106.9114,153.76436 106.93374,153.18495 C 106.95609,152.60554 106.43461,151.5897 105.77491,150.92752 C 104.98326,150.1329 104.94418,149.72356 105.65995,149.72356 C 106.25643,149.72356 107.48125,150.85227 108.38178,152.23181 C 110.35971,155.26186 108.31809,155.72676 103.97572,153.23512 z M 114.53734,153.83932 C 113.20869,153.31707 112.97437,152.85021 113.78768,152.34568 C 116.05485,150.93923 115.21636,148.51773 112.89415,149.7652 C 111.59284,150.46426 111.0416,151.46689 111.4177,152.45067 C 111.91827,153.76003 111.7634,153.80859 110.48459,152.7433 C 109.11577,151.603 109.14012,151.32216 110.7116,150.12503 C 111.67976,149.3875 112.11872,148.76972 111.68706,148.75216 C 111.25541,148.73461 111.37104,147.841 111.94402,146.76635 C 112.77933,145.1997 112.51842,144.3433 110.62752,142.44531 C 109.33047,141.14339 108.09034,139.61557 107.87169,139.05017 C 107.65304,138.48477 103.87576,137.0622 99.47774,135.88893 C 71.9318,128.54043 66.946846,126.91268 68.68531,125.83422 C 69.514874,125.3196 69.465627,124.64267 68.502434,123.32048 C 67.031007,121.30063 65.643843,122.56079 66.596277,125.05211 C 67.414668,127.19281 65.156632,127.10701 62.732887,124.90532 C 61.677987,123.94706 60.075636,123.15696 59.172107,123.14954 C 58.268579,123.14212 57.37654,122.34594 57.189799,121.38027 C 56.579648,118.22504 68.251895,118.87099 69.966802,122.08735 C 71.443695,124.85731 75.643579,127.08503 81.27758,128.08688 C 84.910922,128.73297 85.01457,128.67569 83.785906,126.70091 C 83.081013,125.56796 81.973715,124.641 81.325244,124.641 C 80.676771,124.641 78.198632,122.61677 75.818267,120.14271 C 72.240225,116.42383 70.851089,115.64155 67.801008,115.62785 C 64.236226,115.61184 61.417151,113.63066 63.816733,112.8278 C 65.902118,112.13006 65.077897,110.57722 61.496315,108.4561 C 57.257047,105.94548 57.789263,104.57495 63.003477,104.57495 C 65.537013,104.57495 67.206476,104.01273 67.792131,102.9623 C 68.759595,101.22705 76.987858,105.37454 76.987858,107.59745 C 76.987858,109.14743 75.942618,108.79134 72.295,105.99873 C 68.912771,103.40929 68.912771,103.40929 69.590085,106.24955 C 70.539666,110.23155 70.989613,110.80981 72.642901,110.17301 C 73.529953,109.83133 73.830212,110.0413 73.416173,110.71375 C 72.963601,111.44877 73.52603,111.60944 75.113472,111.19862 C 77.487633,110.58419 77.487633,110.58419 75.238645,111.7461 C 74.001702,112.38515 72.989657,113.2422 72.989657,113.65065 C 72.989657,114.70075 75.98821,115.72976 77.078059,115.05367 C 77.578201,114.74341 77.987408,115.55462 77.987408,116.85636 C 77.987408,119.56366 79.685066,121.63109 81.90815,121.63109 C 82.971235,121.63109 82.760323,121.16029 81.208465,120.06925 C 79.986637,119.21023 78.986959,117.99523 78.986959,117.36923 C 78.986959,116.74324 79.647349,117.10745 80.454495,118.1786 C 81.902606,120.10036 81.922855,120.09958 81.984215,118.11953 C 82.065714,115.48967 83.869116,118.34139 85.134879,123.10167 C 85.824726,125.69605 85.887463,125.51575 85.559392,121.88169 C 85.343763,119.49316 85.572277,117.86424 86.078894,118.17852 C 86.576351,118.48712 86.9993,119.50306 87.01878,120.43618 C 87.038261,121.36929 87.741147,123.26146 88.580748,124.641 C 90.163396,127.24143 90.129931,126.58963 88.374697,120.62779 C 87.732529,118.4466 87.838079,118.28553 89.184167,119.3926 C 90.035528,120.09279 91.014312,122.43718 91.359244,124.60237 C 91.978357,128.48861 93.980213,131.24542 93.980213,128.21177 C 93.980213,127.35148 94.430011,126.6476 94.979763,126.6476 C 95.529516,126.6476 95.900819,126.98622 95.80488,127.40008 C 95.532679,128.57431 98.205938,133.67072 99.094068,133.67072 C 99.531191,133.67072 99.234093,131.80801 98.43385,129.53137 C 97.633607,127.25473 97.014374,124.65868 97.057775,123.76238 C 97.101177,122.86608 97.843318,124.16443 98.706977,126.6476 C 100.32206,131.29126 101.46437,132.62536 103.84822,132.65205 C 104.80317,132.66275 104.92185,132.28631 104.23876,131.41329 C 102.83691,129.62167 101.76658,123.38897 102.99122,124.14868 C 103.53269,124.48459 103.97572,125.86149 103.97572,127.20847 C 103.97572,128.55544 104.34761,129.65751 104.80215,129.65751 C 106.20672,129.65751 104.76915,123.20886 103.076,121.9143 C 100.90586,120.25505 99.646766,120.32209 100.31174,122.06149 C 101.81175,125.98512 102.04627,131.3116 100.55784,127.65091 C 99.772556,125.71955 99.060321,123.01063 98.975097,121.63109 C 98.889871,120.25155 98.59327,119.68719 98.315981,120.37696 C 97.52731,122.33884 95.979314,121.84715 95.979314,119.63478 C 95.979314,118.16861 94.218132,116.77653 89.347429,114.39275 C 80.317322,109.97331 76.987858,106.71267 76.987858,102.28866 C 76.987858,97.979279 74.738455,95.67868 72.416341,97.613098 C 71.022591,98.774149 71.164876,99.092621 73.665779,100.40967 C 75.467552,101.35854 76.001005,102.05958 75.141058,102.34842 C 74.400194,102.59727 72.488554,101.83206 70.892969,100.64797 C 69.297384,99.463871 67.991905,98.986713 67.991905,99.587616 C 67.991905,100.18852 67.493919,100.37124 66.885269,99.99366 C 66.141067,99.531991 65.998792,100.00342 66.450856,101.43309 C 66.976214,103.09456 66.781234,103.42735 65.558391,102.95634 C 64.697813,102.62487 63.993704,101.927 63.993704,101.40551 C 63.993704,100.88403 62.62387,99.978041 60.94963,99.392206 C 56.774095,97.931144 57.75378,96.15072 63.071773,95.535541 C 67.49213,95.0242 67.49213,95.0242 64.493479,93.355476 C 61.818492,91.866868 61.697224,91.607435 63.369967,90.95189 C 67.661387,89.270092 78.986959,95.853499 78.986959,100.02984 C 78.986959,104.28245 82.195745,108.34662 87.465873,110.76905 C 90.224131,112.03689 95.03046,114.54802 98.146603,116.34935 C 104.44877,119.99239 107.97392,120.55896 107.97392,117.92881 C 107.97392,116.99618 110.49685,113.89503 113.58043,111.03736 C 118.11666,106.83347 119.05682,105.43004 118.50528,103.68578 C 117.80348,101.46631 112.10619,95.558138 110.65976,95.549873 C 103.59664,95.509518 91.663036,83.675001 95.479539,80.495696 C 96.416165,79.715447 96.979811,77.504233 96.981385,74.603858 C 96.983986,69.815437 101.18151,52.46629 103.04549,49.539776 C 104.40761,47.401209 103.95253,50.021692 101.08289,60.840966 C 99.925178,65.205812 99.045358,70.623644 99.127729,72.880594 C 99.245279,76.101444 99.356606,76.336692 99.645277,73.974231 C 100.29253,68.677196 102.27638,62.106775 105.17381,55.663963 C 108.81665,47.563658 109.55418,47.563658 106.32559,55.663963 C 102.73699,64.667502 100.98804,70.595141 101.07116,73.47258 C 101.11101,74.85212 101.76718,73.399078 102.52931,70.243595 C 103.90126,64.563278 108.37061,54.771984 111.35972,50.898277 C 113.89525,47.612375 113.18305,49.94847 109.99437,55.376782 C 107.22995,60.082859 102.95277,71.394204 102.99427,73.889107 C 103.00423,74.487741 104.26005,72.720103 105.78497,69.961021 C 109.83224,62.638196 115.84802,53.406533 116.57264,53.406533 C 116.91757,53.406533 116.38821,54.64812 115.39629,56.165614 C 111.15072,62.660674 106.73575,70.55759 107.12925,70.952569 C 108.61667,72.445573 118.32952,62.401768 120.7858,56.830683 C 130.09214,35.722995 139.95953,31.482439 139.95953,48.590682 C 139.95953,53.998481 140.29688,58.36958 140.70919,58.304233 C 143.08703,57.927375 143.02144,58.74862 140.4593,61.432952 C 138.87921,63.0884 136.65852,64.40619 135.52443,64.361371 C 133.8366,64.29467 133.99432,64.044411 136.39366,62.982153 C 140.30743,61.249416 136.96821,59.971204 131.25716,61.015965 C 123.68849,62.400548 102.74646,75.710293 100.79743,80.374694 C 100.37063,81.396105 100.0919,81.512338 100.04777,80.687309 C 100.00913,79.964973 99.488525,79.677316 98.890872,80.048073 C 98.108381,80.533494 98.108381,81.027471 98.890872,81.812899 C 99.488525,82.412796 99.977515,83.661014 99.977515,84.586716 C 99.977515,85.512419 100.76466,86.889452 101.72673,87.646788 C 103.33224,88.910645 103.35665,88.87155 102.02383,87.17089 C 100.73853,85.530863 100.76965,85.206832 102.29474,84.350146 C 103.2424,83.817817 103.72708,82.910169 103.37179,82.33315 C 102.95651,81.658688 103.48444,81.525704 104.85009,81.960772 C 106.11042,82.362286 106.97437,82.201978 106.97437,81.566609 C 106.97437,80.977606 106.4496,80.495696 105.80822,80.495696 C 105.16685,80.495696 104.86379,80.273155 105.13477,80.001161 C 105.40574,79.729167 108.74174,80.639301 112.5481,82.023683 C 116.35446,83.408064 118.34425,84.284303 116.96987,83.970881 C 110.34846,82.460895 106.68285,82.220461 107.37304,83.341406 C 107.83889,84.097994 107.46726,84.292023 106.27662,83.913858 C 104.62963,83.39075 104.63779,83.474845 106.37196,84.896513 C 107.41502,85.751608 108.76441,86.139776 109.37061,85.759107 C 111.06678,84.693986 112.97167,84.588516 112.97167,85.559724 C 112.97167,86.040021 115.18892,87.223445 117.89889,88.189555 C 120.60887,89.155665 122.63554,90.255638 122.40261,90.633939 C 122.16968,91.012241 122.65122,91.580641 123.47269,91.897053 C 124.29416,92.213464 124.9664,92.147903 124.96657,91.751358 C 124.96703,90.621759 131.24157,90.919486 133.46245,92.154487 C 137.60375,94.457405 143.53442,94.513818 143.70417,92.251906 C 143.78855,91.127547 144.3952,89.874103 145.05229,89.466477 C 145.87132,88.958387 145.65133,88.572239 144.3527,88.238459 C 142.97284,87.883804 143.18269,87.719974 145.12542,87.635196 C 146.59227,87.571185 148.50391,87.244765 149.3735,86.909819 C 150.2431,86.574872 150.95458,86.76751 150.95458,87.337904 C 150.95458,87.908297 150.16743,88.603186 149.20537,88.882103 C 148.2433,89.161019 148.80555,89.351783 150.4548,89.306023 C 155.39507,89.168947 156.95188,89.470385 156.95188,90.564019 C 156.95188,91.234191 156.33137,91.276804 155.20267,90.684145 C 153.35686,89.714947 146.95638,90.28732 146.95638,91.421583 C 146.95638,91.787397 148.70293,91.919514 150.8376,91.715175 C 152.97227,91.510838 154.99698,91.795416 155.33696,92.347573 C 155.71318,92.95861 155.07442,93.130149 153.70472,92.785897 C 151.46023,92.221782 151.45943,92.226073 153.39741,94.427595 C 155.23393,96.513861 155.23864,96.595665 153.48333,95.919559 C 152.19572,95.423601 151.84783,95.564203 152.34892,96.378033 C 152.77804,97.074967 152.46254,97.551835 151.57233,97.551835 C 150.7477,97.551835 149.79502,97.100349 149.45525,96.548533 C 149.11549,95.996717 149.4038,95.545231 150.09595,95.545231 C 150.98687,95.545231 151.04321,95.232873 150.28887,94.4757 C 149.53453,93.718528 148.2509,94.297686 145.89367,96.458771 C 143.03235,99.08199 142.34567,99.320012 141.01187,98.150939 C 135.85746,93.633112 118.6761,90.336864 122.52327,94.603897 C 126.74149,99.282479 119.51616,94.508113 113.36625,88.553112 C 112.20889,87.432431 110.65576,86.51551 109.91486,86.51551 C 108.13655,86.51551 115.78947,94.349092 118.37134,95.171622 C 119.47338,95.522711 120.97435,96.411505 121.70681,97.146719 C 122.81612,98.26019 123.38217,98.138583 125.09564,96.418681 C 127.37172,94.134051 132.1163,94.423813 136.94056,97.142074 C 139.90282,98.811184 135.13925,98.135328 131.77895,96.409744 C 129.02375,94.994892 126.95596,95.356496 127.63562,97.134307 C 128.05992,98.244159 128.45881,98.373087 128.95832,97.561825 C 129.48848,96.700798 130.04437,96.743929 131.10686,97.728528 C 133.57072,100.01176 137.00107,101.65853 138.00108,101.03817 C 138.52848,100.711 138.95998,101.03432 138.95998,101.75666 C 138.95998,102.48869 137.85392,103.07 136.4611,103.07 C 135.06019,103.07 133.96223,102.48925 133.96223,101.74826 C 133.96223,100.8831 133.27166,100.64652 131.96312,101.06339 C 130.81633,101.42874 129.96402,101.24369 129.96402,100.62935 C 129.96402,100.04035 129.59213,99.55844 129.13759,99.55844 C 128.68305,99.55844 128.51589,100.95864 128.76613,102.66999 C 129.08885,104.8771 129.46989,105.38746 130.07703,104.42577 C 130.7738,103.3221 130.94887,103.34984 131.01852,104.57495 C 131.07726,105.60811 131.39275,105.45084 132.02489,104.0733 C 132.9457,102.0667 132.9457,102.0667 132.69061,104.0733 C 132.55031,105.17693 132.1237,105.85416 131.74258,105.57825 C 131.36146,105.30235 130.34906,105.97958 129.4928,107.08321 C 128.63654,108.18684 127.99575,108.63833 128.06881,108.08651 C 128.46985,105.05771 127.82162,101.56505 126.85843,101.56505 C 126.24986,101.56505 126.00532,102.22782 126.315,103.03787 C 126.62469,103.84792 126.48007,104.75759 125.99363,105.05935 C 125.50719,105.36112 124.90879,104.81122 124.66384,103.83736 C 124.4189,102.86349 124.35712,103.52575 124.52657,105.30905 C 124.69601,107.09234 124.41446,108.81206 123.90091,109.13064 C 123.38735,109.44923 122.9644,108.6674 122.96101,107.39325 C 122.95512,105.17514 122.89399,105.19372 121.52382,107.83017 C 120.73674,109.34463 118.82787,111.74362 117.28189,113.16125 C 114.70151,115.52739 114.67592,115.61621 116.96987,114.24429 C 118.34425,113.42233 121.26794,112.49586 123.46695,112.18548 C 127.30573,111.64365 127.33758,111.66133 124.26582,112.6288 C 121.02704,113.64887 119.29735,115.27202 120.33701,116.31559 C 120.64978,116.62953 122.02839,116.148 123.40059,115.24553 C 124.77278,114.34306 126.24063,113.60467 126.66246,113.60467 C 127.0843,113.60467 125.75513,114.74666 123.70877,116.14242 C 121.66241,117.53818 120.09615,119.03607 120.2282,119.47107 C 120.52848,120.46022 114.01371,128.02799 113.39582,127.40778 C 113.14714,127.15817 113.88055,125.75842 115.02562,124.29723 C 117.10772,121.64034 116.94082,116.8974 114.81171,118.21821 C 114.13528,118.63783 114.1585,119.21049 114.88137,119.93607 C 115.66078,120.71841 115.23624,121.78874 113.37163,123.74227 C 111.94489,125.23706 110.81196,126.73689 110.85402,127.07522 C 111.01559,128.37508 113.51225,130.42534 114.32819,129.92821 C 114.7994,129.64112 114.88856,130.47861 114.52632,131.7893 C 113.89645,134.06837 113.93417,134.08907 115.3905,132.26366 C 116.84063,130.44603 116.91115,130.49391 116.86811,133.26696 C 116.81254,136.8474 117.61236,141.67318 118.39087,142.4546 C 118.70883,142.77375 118.96897,141.83091 118.96897,140.35941 C 118.96897,138.88789 119.30632,137.68393 119.71863,137.68393 C 120.13095,137.68393 120.4683,139.03839 120.4683,140.69384 C 120.4683,142.34929 120.18552,143.70374 119.8399,143.70374 C 118.83874,143.70374 116.71998,149.50127 116.71998,152.24072 C 116.71998,153.61537 116.66376,154.70833 116.59504,154.66955 C 116.52632,154.63077 115.60035,154.25716 114.53734,153.83932 z M 116.96987,143.51279 C 116.96987,142.19406 114.69811,143.01983 114.20006,144.51961 C 113.95658,145.25277 114.41355,145.477 115.38702,145.10204 C 116.25759,144.76671 116.96987,144.05156 116.96987,143.51279 z M 69.878573,111.96374 C 69.132352,111.06122 68.471091,109.81963 68.409103,109.20466 C 68.347115,108.58968 68.227886,107.58476 68.144151,106.97151 C 68.054818,106.31726 66.877324,106.07038 65.294664,106.37406 C 62.649935,106.88153 62.641123,106.90783 64.842092,107.72508 C 66.076661,108.18349 67.012228,109.12957 66.921129,109.82749 C 66.550655,112.66573 67.095727,113.60467 69.113846,113.60467 C 70.964419,113.60467 71.062075,113.39512 69.878573,111.96374 z M 65.722094,97.948975 C 65.389951,97.615587 64.527839,97.579943 63.806288,97.869768 C 63.008914,98.190048 63.245765,98.427787 64.410184,98.47593 C 65.463876,98.519494 66.054235,98.282365 65.722094,97.948975 z M 108.0751,88.404134 C 105.65686,86.24201 103.40835,84.743969 103.0784,85.075155 C 102.74845,85.406341 104.50164,87.408958 106.97437,89.525417 C 112.82932,94.536787 113.81321,93.534528 108.0751,88.404134 z M 126.72621,60.429144 C 129.6183,59.325789 133.32887,58.423045 134.9719,58.423045 C 137.7684,58.423045 137.9433,58.198168 137.70994,54.902778 C 137.5306,52.370257 137.0704,51.532158 136.06983,51.915839 C 135.05167,52.306268 134.95443,52.106984 135.70693,51.17207 C 137.06668,49.482698 138.30732,41.738681 137.44308,40.335064 C 136.26725,38.425396 125.24745,50.339441 124.47743,54.352864 C 124.25997,55.486279 123.3814,57.417686 122.52506,58.644876 C 119.5735,62.874638 119.92491,63.023884 126.72621,60.429144 z M 124.96627,57.040941 C 124.96627,56.832599 125.65127,56.091511 126.48848,55.394076 C 127.76125,54.333802 127.90752,54.395873 127.38109,55.772878 C 126.84343,57.179244 124.96627,58.164974 124.96627,57.040941 z M 133.96223,56.022131 C 133.96223,55.805261 134.66028,55.358946 135.51346,55.030321 C 136.40299,54.687697 136.80421,54.855898 136.45403,55.42463 C 135.86703,56.377971 133.96223,56.834719 133.96223,56.022131 z M 118.08602,152.23181 C 118.06085,150.57636 118.68308,148.09319 119.46875,146.71365 C 121.48533,143.17276 121.51576,147.82365 119.50484,152.23181 C 118.13178,155.24172 118.13178,155.24172 118.08602,152.23181 z M 144.62204,152.55836 C 144.30942,151.35842 144.46818,149.66535 144.97484,148.79597 C 145.7627,147.4441 145.90241,147.43314 145.94008,148.72025 C 145.96431,149.54798 146.25534,151.24105 146.58683,152.48264 C 146.91832,153.72423 146.73974,154.74007 146.18999,154.74007 C 145.64023,154.74007 144.93466,153.7583 144.62204,152.55836 z M 122.04653,151.14491 C 122.0945,149.97611 122.33135,149.73838 122.65043,150.53874 C 122.93917,151.26299 122.90366,152.12834 122.57152,152.46174 C 122.23937,152.79513 122.00313,152.20255 122.04653,151.14491 z M 98.977965,150.78517 C 98.977965,150.26543 96.844875,149.23546 94.237765,148.49635 C 90.866704,147.54065 89.412542,146.582 89.203199,145.17729 C 88.91997,143.27682 88.952458,143.27307 90.061978,145.07825 C 90.994374,146.59524 91.381183,146.69128 92.082587,145.5799 C 92.796566,144.44859 92.955467,144.47167 92.980663,145.71035 C 93.006111,146.96148 93.159156,146.98092 93.888081,145.82563 C 94.587504,144.71709 94.998982,144.87501 95.922025,146.60621 C 96.558453,147.79985 97.483828,148.52542 97.978414,148.2186 C 98.473001,147.91178 99.365854,148.57637 99.962532,149.69545 C 100.69308,151.06561 100.70946,151.73016 100.01268,151.73016 C 99.443588,151.73016 98.977965,151.30492 98.977965,150.78517 z M 174.44401,148.14006 C 171.62801,145.74316 170.96303,144.73248 172.19502,144.72197 C 173.15709,144.71376 173.94424,145.23378 173.94424,145.87757 C 173.94424,146.52135 174.24587,146.74531 174.61455,146.37526 C 174.98322,146.00521 174.27563,144.62413 173.04212,143.3062 C 171.37025,141.5199 171.13603,140.77364 172.12193,140.37438 C 173.06607,139.99204 172.7295,139.24985 170.94559,137.78037 C 169.5712,136.64823 168.99144,135.71191 169.65721,135.69964 C 171.58883,135.66403 175.13531,139.95494 173.83895,140.75915 C 173.02949,141.2613 173.03109,141.63232 173.8449,142.13717 C 174.93008,142.81036 179.16916,150.84306 178.68521,151.30917 C 178.55156,151.43789 176.64302,150.01179 174.44401,148.14006 z M 140.95908,147.2153 C 140.95908,145.28394 141.42296,143.70374 141.98994,143.70374 C 142.55691,143.70374 142.91478,145.28394 142.78519,147.2153 C 142.65561,149.14666 142.19172,150.72686 141.75433,150.72686 C 141.31694,150.72686 140.95908,149.14666 140.95908,147.2153 z M 137.96043,144.76626 C 137.96043,142.59156 138.41022,140.53323 138.95998,140.19219 C 139.57051,139.81344 139.95953,141.35228 139.95953,144.14618 C 139.95953,146.66192 139.50973,148.72025 138.95998,148.72025 C 138.41022,148.72025 137.96043,146.94096 137.96043,144.76626 z M 205.65965,145.07448 C 205.07969,142.02927 205.89402,134.67402 206.81112,134.67402 C 207.15105,134.67402 207.42917,137.60868 207.42917,141.19549 C 207.42917,147.87602 206.55721,149.78744 205.65965,145.07448 z M 121.96762,143.64453 C 121.96762,142.50833 122.41742,141.85775 122.96717,142.19879 C 123.51692,142.53983 123.96672,143.46945 123.96672,144.26461 C 123.96672,145.05977 123.51692,145.71035 122.96717,145.71035 C 122.41742,145.71035 121.96762,144.78073 121.96762,143.64453 z M 204.04669,133.41989 C 203.98292,130.24695 204.27998,127.65091 204.70683,127.65091 C 205.13366,127.65091 205.33476,129.56972 205.15372,131.91494 C 204.61115,138.94312 204.16977,139.54317 204.04669,133.41989 z M 200.18626,135.92815 C 197.87385,129.98452 200.85718,109.59146 204.03909,109.59146 C 204.55748,109.59146 204.20207,111.05879 203.24927,112.8522 C 201.92467,115.34542 201.5069,118.65154 201.47439,126.89806 C 201.43023,138.0999 201.32317,138.85039 200.18626,135.92815 z M 168.43672,131.65365 C 166.86212,130.00396 166.02937,128.65421 166.58614,128.65421 C 167.87236,128.65421 172.45265,133.49573 171.79291,134.15795 C 171.52161,134.43028 170.01132,133.30334 168.43672,131.65365 z M 166.15104,126.21712 C 161.75565,123.0976 161.35734,122.63439 163.07024,122.63439 C 163.86982,122.63439 166.08132,123.9705 167.98469,125.60353 C 172.09439,129.1295 170.84409,129.54788 166.15104,126.21712 z M 193.93524,118.15717 C 193.93524,110.6689 196.9553,99.55844 198.99078,99.55844 C 199.49332,99.55844 198.95151,102.11506 197.78676,105.23982 C 196.32698,109.15608 195.6739,113.20831 195.6847,118.28275 C 195.69331,122.3316 195.30321,125.6443 194.8178,125.6443 C 194.33239,125.6443 193.93524,122.27509 193.93524,118.15717 z M 93.226581,123.38687 C 92.657834,122.67245 92.57493,121.26921 93.033938,120.12614 C 93.926167,117.90422 93.963742,117.94982 94.480668,121.88192 C 94.88566,124.96256 94.678703,125.21092 93.226581,123.38687 z M 162.97739,120.07694 C 161.06877,118.72446 159.87488,117.61788 160.32429,117.61788 C 161.65951,117.61788 166.94738,120.99473 166.94738,121.84741 C 166.94738,122.89447 166.96387,122.90182 162.97739,120.07694 z M 160.45031,115.52846 C 158.04786,113.86506 157.89881,113.58059 159.70065,114.09773 C 163.25409,115.11758 162.31948,113.78671 158.29774,112.10001 C 156.28919,111.25764 154.95756,110.25554 155.33855,109.87312 C 156.32535,108.88261 163.07571,112.72474 162.6377,114.02762 C 162.43763,114.62272 162.98813,115.65962 163.861,116.33185 C 166.5695,118.41771 163.61971,117.72289 160.45031,115.52846 z M 127.96492,115.14695 C 127.96492,114.04167 135.00717,110.6773 138.4602,110.13292 C 142.4584,109.5026 142.4584,109.5026 138.95998,111.14787 C 134.436,113.27543 127.96492,115.62907 127.96492,115.14695 z M 197.94531,110.84559 C 198.00541,107.03335 201.58016,98.405951 205.33161,93.019326 C 207.85965,89.389352 209.94218,86.102389 209.95945,85.714965 C 209.97674,85.32754 211.13619,84.172905 212.53603,83.14911 C 214.2963,81.861708 213.02745,84.306992 208.42153,91.078418 C 203.6597,98.079051 201.4424,102.39791 200.64086,106.23362 C 199.72249,110.62839 197.89956,113.74735 197.94531,110.84559 z M 207.92895,109.48221 C 207.92895,108.82096 209.84059,106.50042 212.17704,104.32546 C 217.01048,99.8261 224.40238,95.593814 223.70209,97.726698 C 223.46191,98.458248 222.20887,99.211545 220.91758,99.400692 C 219.62628,99.589839 216.17559,102.20607 213.24935,105.21455 C 210.32313,108.22302 207.92895,110.14347 207.92895,109.48221 z M 158.56189,107.94109 C 156.52431,106.83336 156.04455,106.14112 156.9326,105.59022 C 157.87717,105.00425 157.72481,104.52053 156.32215,103.65192 C 154.53189,102.54329 154.53737,102.50717 156.45211,102.79596 C 157.55161,102.9618 158.45121,103.76852 158.45121,104.58869 C 158.45121,105.40886 159.3508,106.85499 160.45031,107.80231 C 162.92991,109.9387 162.31895,109.9836 158.56189,107.94109 z M 136.04462,108.23546 C 137.78859,106.75854 143.06963,105.7395 141.94773,107.09639 C 141.26934,107.91686 139.56991,108.58816 138.17122,108.58816 C 136.77253,108.58816 135.81556,108.42944 136.04462,108.23546 z M 204.8957,101.63312 C 207.74026,96.036387 209.43425,95.449963 206.75262,100.99029 C 205.53125,103.51367 204.16263,105.57825 203.71125,105.57825 C 203.25988,105.57825 203.79288,103.80294 204.8957,101.63312 z M 236.32116,103.71377 C 238.35833,101.41492 238.91501,101.1173 238.91501,102.32701 C 238.91501,102.74608 237.90296,103.71301 236.66602,104.47573 C 234.42502,105.85757 234.4238,105.85487 236.32116,103.71377 z M 141.51612,102.14873 C 143.60975,100.61209 144.55851,100.78092 143.49905,102.5016 C 143.13668,103.09013 142.10608,103.57165 141.20882,103.57165 C 139.84447,103.57165 139.89477,103.33874 141.51612,102.14873 z M 154.95278,99.55844 C 153.66067,98.720282 153.68706,98.583741 155.14368,98.570501 C 156.0733,98.562051 157.11189,99.006624 157.45166,99.55844 C 158.23349,100.82822 156.91027,100.82822 154.95278,99.55844 z M 194.23144,91.059938 C 194.28609,89.124621 194.62901,88.025488 194.99348,88.617421 C 195.4057,89.28692 195.90649,89.038834 196.31855,87.960985 C 196.68287,87.008013 197.18846,86.436598 197.44209,86.691174 C 197.69571,86.94575 197.05471,88.824587 196.01765,90.866367 C 194.13207,94.578694 194.13207,94.578694 194.23144,91.059938 z M 213.00999,87.144757 C 213.23906,86.939028 215.00077,86.008879 216.9249,85.077761 C 220.42333,83.38482 220.42333,83.38482 217.92445,85.429507 C 215.96042,87.036559 211.33172,88.652075 213.00999,87.144757 z M 120.4683,80.788732 C 117.54321,78.200371 117.53095,78.151584 119.96852,78.800134 C 121.3429,79.165807 123.59189,79.484888 124.96627,79.509203 C 127.16639,79.548126 127.25351,79.677086 125.69491,80.587868 C 124.72128,81.15682 124.18558,82.046063 124.50447,82.563963 C 125.62113,84.377546 123.43971,83.418091 120.4683,80.788732 z M 226.1936,79.492393 C 227.59139,78.388761 229.1139,77.500809 229.57694,77.519168 C 230.76518,77.566279 225.92203,81.498998 224.67577,81.498998 C 224.11279,81.498998 224.79581,80.596026 226.1936,79.492393 z M 118.21931,77.137232 C 116.43261,76.548894 114.97077,75.654125 114.97077,75.148856 C 114.97077,74.643586 114.29607,74.792234 113.47144,75.479184 C 110.80501,77.700432 111.8808,75.686063 115.22066,72.203855 C 119.25978,67.992576 122.46085,66.695526 126.96537,67.444977 C 130.39609,68.01577 130.36496,68.041202 125.35681,68.759032 C 120.45304,69.4619 115.78037,72.613048 117.33217,74.170675 C 117.70795,74.547863 118.68104,73.902569 119.4946,72.73669 C 120.71458,70.988386 121.92495,70.639264 126.40143,70.744466 C 130.95006,70.851364 133.76772,72.469277 129.40526,72.469277 C 128.61307,72.469277 127.96492,73.356364 127.96492,74.440582 C 127.96492,78.053659 124.18156,79.10053 118.21931,77.137232 z M 123.36672,72.306493 C 123.02593,71.753015 122.21109,71.850129 121.37886,72.543407 C 119.47903,74.126048 119.60107,74.384474 121.95638,73.766236 C 123.0497,73.479252 123.68435,72.822368 123.36672,72.306493 z"
         style="fill:#000000" />
    </g>
  </g>
</svg>
