<?xml version="1.0" encoding="UTF-8" standalone="no"?>
<!-- Created with Inkscape (http://www.inkscape.org/) -->

<svg
   xmlns:dc="http://purl.org/dc/elements/1.1/"
   xmlns:cc="http://creativecommons.org/ns#"
   xmlns:rdf="http://www.w3.org/1999/02/22-rdf-syntax-ns#"
   xmlns:svg="http://www.w3.org/2000/svg"
   xmlns="http://www.w3.org/2000/svg"
   xmlns:sodipodi="http://sodipodi.sourceforge.net/DTD/sodipodi-0.dtd"
   xmlns:inkscape="http://www.inkscape.org/namespaces/inkscape"
   width="284.2851"
   height="388.24527"
   id="svg3967"
   version="1.1"
   inkscape:version="0.48+devel r9747"
   sodipodi:docname="swiss.svg">
  <defs
     id="defs3969" />
  <sodipodi:namedview
     id="base"
     pagecolor="#ffffff"
     bordercolor="#666666"
     borderopacity="1.0"
     inkscape:pageopacity="0.0"
     inkscape:pageshadow="2"
     inkscape:zoom="0.70410156"
     inkscape:cx="120.65483"
     inkscape:cy="185.60928"
     inkscape:document-units="px"
     inkscape:current-layer="layer1"
     showgrid="false"
     fit-margin-top="0"
     fit-margin-left="0"
     fit-margin-right="0"
     fit-margin-bottom="0"
     inkscape:window-width="1280"
     inkscape:window-height="712"
     inkscape:window-x="-4"
     inkscape:window-y="26"
     inkscape:window-maximized="1" />
  <metadata
     id="metadata3972">
    <rdf:RDF>
      <cc:Work
         rdf:about="">
        <dc:format>image/svg+xml</dc:format>
        <dc:type
           rdf:resource="http://purl.org/dc/dcmitype/StillImage" />
        <dc:title></dc:title>
      </cc:Work>
    </rdf:RDF>
  </metadata>
  <g
     inkscape:label="Layer 1"
     inkscape:groupmode="layer"
     id="layer1"
     transform="translate(-235.88192,-329.72618)">
    <g
       transform="translate(-7.5456104,32.220806)"
       id="g3816">
      <path
         inkscape:connector-curvature="0"
         id="path2831"
         d="m 249.77295,330.13095 c 13.20408,0 23.79622,17.78389 23.79622,30.98798 l 0,244.41368 c 4e-5,13.20409 10.59215,23.79623 23.79623,23.79623 l 64.30269,0 c 13.20409,0 23.90199,10.59214 23.90199,23.79623 0,-13.20409 10.6979,-23.79623 23.90199,-23.79623 l 64.30269,0 c 13.20408,0 23.79619,-10.59214 23.79623,-23.79623 l 0,-244.41368 c 0,-13.20409 10.59214,-30.98798 23.79622,-30.98798 0,0 -135.79713,0 -135.79713,0 0,0 -135.79713,0 -135.79713,0 z"
         style="fill:#ffffff;fill-opacity:1;fill-rule:evenodd;stroke:#000000;stroke-width:4;stroke-linejoin:miter;stroke-miterlimit:4;stroke-opacity:1;stroke-dasharray:none" />
    </g>
  </g>
</svg>
