<?xml version="1.0" encoding="UTF-8" standalone="no"?>
<!-- Created with Inkscape (http://www.inkscape.org/) -->

<svg
   xmlns:dc="http://purl.org/dc/elements/1.1/"
   xmlns:cc="http://creativecommons.org/ns#"
   xmlns:rdf="http://www.w3.org/1999/02/22-rdf-syntax-ns#"
   xmlns:svg="http://www.w3.org/2000/svg"
   xmlns="http://www.w3.org/2000/svg"
   xmlns:sodipodi="http://sodipodi.sourceforge.net/DTD/sodipodi-0.dtd"
   xmlns:inkscape="http://www.inkscape.org/namespaces/inkscape"
   width="286.40625"
   height="392.5"
   id="svg3967"
   version="1.1"
   inkscape:version="0.48+devel r9747"
   sodipodi:docname="portugue or spanish.svg">
  <defs
     id="defs3969" />
  <sodipodi:namedview
     id="base"
     pagecolor="#ffffff"
     bordercolor="#666666"
     borderopacity="1.0"
     inkscape:pageopacity="0.0"
     inkscape:pageshadow="2"
     inkscape:zoom="1"
     inkscape:cx="9.3057195"
     inkscape:cy="190.30011"
     inkscape:document-units="px"
     inkscape:current-layer="layer1"
     showgrid="false"
     fit-margin-top="0"
     fit-margin-left="0"
     fit-margin-right="0"
     fit-margin-bottom="0"
     inkscape:window-width="1280"
     inkscape:window-height="712"
     inkscape:window-x="-4"
     inkscape:window-y="26"
     inkscape:window-maximized="1" />
  <metadata
     id="metadata3972">
    <rdf:RDF>
      <cc:Work
         rdf:about="">
        <dc:format>image/svg+xml</dc:format>
        <dc:type
           rdf:resource="http://purl.org/dc/dcmitype/StillImage" />
        <dc:title></dc:title>
      </cc:Work>
    </rdf:RDF>
  </metadata>
  <g
     inkscape:label="Layer 1"
     inkscape:groupmode="layer"
     id="layer1"
     transform="translate(-233.19428,-330.16229)">
    <g
       id="g9969"
       transform="matrix(3.954061,0,0,3.954061,-1550.8734,295.52257)">
      <g
         id="g9964" />
    </g>
    <g
       id="g4217"
       transform="translate(-3.7969,1.74998)">
      <path
         style="fill:none;stroke:#000000;stroke-width:3.95406103px;stroke-linecap:butt;stroke-linejoin:miter;stroke-opacity:1"
         d="m 333.98122,346.92799 c -21.98332,0 -38.65775,44.44479 -75.86855,49.3022 0,121.77617 60.423,142.07524 60.423,201.90424 0,12.22842 -2.47133,14.69896 -2.47129,28.41981 0,35.49859 21.89355,82.29392 64.12992,82.29392 42.23637,0 64.12993,-46.79533 64.12993,-82.29392 0,-13.72085 -2.47129,-16.19139 -2.47129,-28.41981 0,-59.829 60.423,-80.12807 60.423,-201.90424 -37.21072,-4.85741 -53.88523,-49.3022 -75.86855,-49.3022 l -46.21309,0 -46.21308,0 z"
         id="path9060"
         inkscape:connector-curvature="0" />
      <path
         sodipodi:nodetypes="ccccccc"
         id="rect9954"
         d="m 342.11496,340.50001 9.55593,21.24609 -9.55593,13.59908 c 24.14235,-3.42503 50.13425,-3.34836 72.42709,0 l -6.16514,-13.29083 6.16514,-21.55434 c -22.60106,3.86868 -48.28474,4.04278 -72.42709,0 z"
         style="fill:#ffffff;fill-opacity:1;fill-rule:evenodd;stroke:#000000;stroke-width:3.95406103;stroke-linejoin:miter;stroke-miterlimit:0;stroke-opacity:1;stroke-dasharray:none"
         inkscape:connector-curvature="0" />
      <path
         sodipodi:nodetypes="csccsssc"
         id="path9950"
         d="m 259.20395,395.65422 c 37.69074,0 53.11261,-45.00533 75.8309,-45.00533 9.56353,0 11.71371,5.54478 11.71371,11.71372 -5.23375,1.88533 -9.3504,2.23041 -15.41277,-0.61651 0.89682,7.51359 6.78727,13.56324 14.79626,13.56324 7.48389,0 16.33754,-5.67194 16.33754,-16.6458 0,-9.15732 -8.76006,-18.18708 -24.04393,-18.18708 -34.59981,0 -39.98042,37.99566 -79.22171,55.17776 z"
         style="fill:#ffffff;fill-opacity:1;fill-rule:evenodd;stroke:#000000;stroke-width:3.95406103;stroke-linecap:butt;stroke-linejoin:miter;stroke-miterlimit:0;stroke-opacity:1;stroke-dasharray:none"
         inkscape:connector-curvature="0" />
      <path
         style="fill:#ffffff;fill-opacity:1;fill-rule:evenodd;stroke:#000000;stroke-width:3.95406103;stroke-linecap:butt;stroke-linejoin:miter;stroke-miterlimit:0;stroke-opacity:1;stroke-dasharray:none"
         d="m 501.18466,395.65422 c -37.69075,0 -53.11261,-45.00533 -75.83091,-45.00533 -9.56353,0 -11.7137,5.54478 -11.7137,11.71372 5.23375,1.88533 9.3504,2.23041 15.41277,-0.61651 -0.89682,7.51359 -6.78727,13.56324 -14.79626,13.56324 -7.48389,0 -16.33754,-5.67194 -16.33754,-16.6458 0,-9.15732 8.76006,-18.18708 24.04393,-18.18708 34.59981,0 39.98042,37.99566 79.22171,55.17776 z"
         id="path9952"
         sodipodi:nodetypes="csccsssc"
         inkscape:connector-curvature="0" />
    </g>
  </g>
</svg>
