<?xml version="1.0" encoding="UTF-8" standalone="no"?>
<!-- Created with Inkscape (http://www.inkscape.org/) -->

<svg
   xmlns:dc="http://purl.org/dc/elements/1.1/"
   xmlns:cc="http://creativecommons.org/ns#"
   xmlns:rdf="http://www.w3.org/1999/02/22-rdf-syntax-ns#"
   xmlns:svg="http://www.w3.org/2000/svg"
   xmlns="http://www.w3.org/2000/svg"
   xmlns:sodipodi="http://sodipodi.sourceforge.net/DTD/sodipodi-0.dtd"
   xmlns:inkscape="http://www.inkscape.org/namespaces/inkscape"
   width="286.40625"
   height="392.5"
   id="svg3967"
   version="1.1"
   inkscape:version="0.48.2 r9819"
   sodipodi:docname="transversal right to left.svg">
  <defs
     id="defs3969">
    <clipPath
       clipPathUnits="userSpaceOnUse"
       id="clipPath3598">
      <path
         style="fill:#ffffff;fill-opacity:1;fill-rule:evenodd;stroke:#000000;stroke-width:4.0915246;stroke-linejoin:miter;stroke-miterlimit:4;stroke-opacity:1;stroke-dasharray:none;display:inline"
         d="m 2.06084,2.05145 0,332.89699 c 0,15.96313 12.80539,28.76854 28.76856,28.76854 l 89.37425,0 c 15.96313,0 28.76854,12.80541 28.76854,28.76853 0,-15.96312 12.93323,-28.76853 28.89639,-28.76853 l 77.73898,0 c 15.96313,0 28.76845,-12.80541 28.76854,-28.76854 l 0,-332.89699 z"
         id="path3600"
         sodipodi:nodetypes="ccccsccccc"
         inkscape:connector-curvature="0" />
    </clipPath>
    <clipPath
       clipPathUnits="userSpaceOnUse"
       id="clipPath3602">
      <path
         style="fill:#ffffff;fill-opacity:1;fill-rule:evenodd;stroke:#000000;stroke-width:4.0915246;stroke-linejoin:miter;stroke-miterlimit:4;stroke-opacity:1;stroke-dasharray:none;display:inline"
         d="m 2.06084,2.05145 0,332.89699 c 0,15.96313 12.80539,28.76854 28.76856,28.76854 l 89.37425,0 c 15.96313,0 28.76854,12.80541 28.76854,28.76853 0,-15.96312 12.93323,-28.76853 28.89639,-28.76853 l 77.73898,0 c 15.96313,0 28.76845,-12.80541 28.76854,-28.76854 l 0,-332.89699 z"
         id="path3604"
         sodipodi:nodetypes="ccccsccccc"
         inkscape:connector-curvature="0" />
    </clipPath>
    <clipPath
       clipPathUnits="userSpaceOnUse"
       id="clipPath3606">
      <path
         style="fill:#ffffff;fill-opacity:1;fill-rule:evenodd;stroke:#000000;stroke-width:4.0915246;stroke-linejoin:miter;stroke-miterlimit:4;stroke-opacity:1;stroke-dasharray:none;display:inline"
         d="m 2.06084,2.05145 0,332.89699 c 0,15.96313 12.80539,28.76854 28.76856,28.76854 l 89.37425,0 c 15.96313,0 28.76854,12.80541 28.76854,28.76853 0,-15.96312 12.93323,-28.76853 28.89639,-28.76853 l 77.73898,0 c 15.96313,0 28.76845,-12.80541 28.76854,-28.76854 l 0,-332.89699 z"
         id="path3608"
         sodipodi:nodetypes="ccccsccccc"
         inkscape:connector-curvature="0" />
    </clipPath>
    <clipPath
       clipPathUnits="userSpaceOnUse"
       id="clipPath3610">
      <path
         style="fill:#ffffff;fill-opacity:1;fill-rule:evenodd;stroke:#000000;stroke-width:4.0915246;stroke-linejoin:miter;stroke-miterlimit:4;stroke-opacity:1;stroke-dasharray:none;display:inline"
         d="m 2.06084,2.05145 0,332.89699 c 0,15.96313 12.80539,28.76854 28.76856,28.76854 l 89.37425,0 c 15.96313,0 28.76854,12.80541 28.76854,28.76853 0,-15.96312 12.93323,-28.76853 28.89639,-28.76853 l 77.73898,0 c 15.96313,0 28.76845,-12.80541 28.76854,-28.76854 l 0,-332.89699 z"
         id="path3612"
         sodipodi:nodetypes="ccccsccccc"
         inkscape:connector-curvature="0" />
    </clipPath>
    <clipPath
       clipPathUnits="userSpaceOnUse"
       id="clipPath3614">
      <path
         style="fill:#ffffff;fill-opacity:1;fill-rule:evenodd;stroke:#000000;stroke-width:4.0915246;stroke-linejoin:miter;stroke-miterlimit:4;stroke-opacity:1;stroke-dasharray:none;display:inline"
         d="m 2.06084,2.05145 0,332.89699 c 0,15.96313 12.80539,28.76854 28.76856,28.76854 l 89.37425,0 c 15.96313,0 28.76854,12.80541 28.76854,28.76853 0,-15.96312 12.93323,-28.76853 28.89639,-28.76853 l 77.73898,0 c 15.96313,0 28.76845,-12.80541 28.76854,-28.76854 l 0,-332.89699 z"
         id="path3616"
         sodipodi:nodetypes="ccccsccccc"
         inkscape:connector-curvature="0" />
    </clipPath>
    <clipPath
       clipPathUnits="userSpaceOnUse"
       id="clipPath3618">
      <path
         style="fill:#ffffff;fill-opacity:1;fill-rule:evenodd;stroke:#000000;stroke-width:4.0915246;stroke-linejoin:miter;stroke-miterlimit:4;stroke-opacity:1;stroke-dasharray:none;display:inline"
         d="m 2.06084,2.05145 0,332.89699 c 0,15.96313 12.80539,28.76854 28.76856,28.76854 l 89.37425,0 c 15.96313,0 28.76854,12.80541 28.76854,28.76853 0,-15.96312 12.93323,-28.76853 28.89639,-28.76853 l 77.73898,0 c 15.96313,0 28.76845,-12.80541 28.76854,-28.76854 l 0,-332.89699 z"
         id="path3620"
         sodipodi:nodetypes="ccccsccccc"
         inkscape:connector-curvature="0" />
    </clipPath>
    <clipPath
       clipPathUnits="userSpaceOnUse"
       id="clipPath3622">
      <path
         style="fill:#ffffff;fill-opacity:1;fill-rule:evenodd;stroke:#000000;stroke-width:4.0915246;stroke-linejoin:miter;stroke-miterlimit:4;stroke-opacity:1;stroke-dasharray:none;display:inline"
         d="m 2.06084,2.05145 0,332.89699 c 0,15.96313 12.80539,28.76854 28.76856,28.76854 l 89.37425,0 c 15.96313,0 28.76854,12.80541 28.76854,28.76853 0,-15.96312 12.93323,-28.76853 28.89639,-28.76853 l 77.73898,0 c 15.96313,0 28.76845,-12.80541 28.76854,-28.76854 l 0,-332.89699 z"
         id="path3624"
         sodipodi:nodetypes="ccccsccccc"
         inkscape:connector-curvature="0" />
    </clipPath>
    <clipPath
       clipPathUnits="userSpaceOnUse"
       id="clipPath3626">
      <path
         style="fill:#ffffff;fill-opacity:1;fill-rule:evenodd;stroke:#000000;stroke-width:4.0915246;stroke-linejoin:miter;stroke-miterlimit:4;stroke-opacity:1;stroke-dasharray:none;display:inline"
         d="m 2.06084,2.05145 0,332.89699 c 0,15.96313 12.80539,28.76854 28.76856,28.76854 l 89.37425,0 c 15.96313,0 28.76854,12.80541 28.76854,28.76853 0,-15.96312 12.93323,-28.76853 28.89639,-28.76853 l 77.73898,0 c 15.96313,0 28.76845,-12.80541 28.76854,-28.76854 l 0,-332.89699 z"
         id="path3628"
         sodipodi:nodetypes="ccccsccccc"
         inkscape:connector-curvature="0" />
    </clipPath>
    <clipPath
       clipPathUnits="userSpaceOnUse"
       id="clipPath3630">
      <path
         style="fill:#ffffff;fill-opacity:1;fill-rule:evenodd;stroke:#000000;stroke-width:4.0915246;stroke-linejoin:miter;stroke-miterlimit:4;stroke-opacity:1;stroke-dasharray:none;display:inline"
         d="m 2.06084,2.05145 0,332.89699 c 0,15.96313 12.80539,28.76854 28.76856,28.76854 l 89.37425,0 c 15.96313,0 28.76854,12.80541 28.76854,28.76853 0,-15.96312 12.93323,-28.76853 28.89639,-28.76853 l 77.73898,0 c 15.96313,0 28.76845,-12.80541 28.76854,-28.76854 l 0,-332.89699 z"
         id="path3632"
         sodipodi:nodetypes="ccccsccccc"
         inkscape:connector-curvature="0" />
    </clipPath>
    <clipPath
       clipPathUnits="userSpaceOnUse"
       id="clipPath3634">
      <path
         style="fill:#ffffff;fill-opacity:1;fill-rule:evenodd;stroke:#000000;stroke-width:4.0915246;stroke-linejoin:miter;stroke-miterlimit:4;stroke-opacity:1;stroke-dasharray:none;display:inline"
         d="m 2.06084,2.05145 0,332.89699 c 0,15.96313 12.80539,28.76854 28.76856,28.76854 l 89.37425,0 c 15.96313,0 28.76854,12.80541 28.76854,28.76853 0,-15.96312 12.93323,-28.76853 28.89639,-28.76853 l 77.73898,0 c 15.96313,0 28.76845,-12.80541 28.76854,-28.76854 l 0,-332.89699 z"
         id="path3636"
         sodipodi:nodetypes="ccccsccccc"
         inkscape:connector-curvature="0" />
    </clipPath>
    <clipPath
       clipPathUnits="userSpaceOnUse"
       id="clipPath3638">
      <path
         style="fill:#ffffff;fill-opacity:1;fill-rule:evenodd;stroke:#000000;stroke-width:4.0915246;stroke-linejoin:miter;stroke-miterlimit:4;stroke-opacity:1;stroke-dasharray:none;display:inline"
         d="m 2.06084,2.05145 0,332.89699 c 0,15.96313 12.80539,28.76854 28.76856,28.76854 l 89.37425,0 c 15.96313,0 28.76854,12.80541 28.76854,28.76853 0,-15.96312 12.93323,-28.76853 28.89639,-28.76853 l 77.73898,0 c 15.96313,0 28.76845,-12.80541 28.76854,-28.76854 l 0,-332.89699 z"
         id="path3640"
         sodipodi:nodetypes="ccccsccccc"
         inkscape:connector-curvature="0" />
    </clipPath>
    <clipPath
       clipPathUnits="userSpaceOnUse"
       id="clipPath3642">
      <path
         style="fill:#ffffff;fill-opacity:1;fill-rule:evenodd;stroke:#000000;stroke-width:4.0915246;stroke-linejoin:miter;stroke-miterlimit:4;stroke-opacity:1;stroke-dasharray:none;display:inline"
         d="m 2.06084,2.05145 0,332.89699 c 0,15.96313 12.80539,28.76854 28.76856,28.76854 l 89.37425,0 c 15.96313,0 28.76854,12.80541 28.76854,28.76853 0,-15.96312 12.93323,-28.76853 28.89639,-28.76853 l 77.73898,0 c 15.96313,0 28.76845,-12.80541 28.76854,-28.76854 l 0,-332.89699 z"
         id="path3644"
         sodipodi:nodetypes="ccccsccccc"
         inkscape:connector-curvature="0" />
    </clipPath>
    <clipPath
       clipPathUnits="userSpaceOnUse"
       id="clipPath3646">
      <path
         style="fill:#ffffff;fill-opacity:1;fill-rule:evenodd;stroke:#000000;stroke-width:4.0915246;stroke-linejoin:miter;stroke-miterlimit:4;stroke-opacity:1;stroke-dasharray:none;display:inline"
         d="m 2.06084,2.05145 0,332.89699 c 0,15.96313 12.80539,28.76854 28.76856,28.76854 l 89.37425,0 c 15.96313,0 28.76854,12.80541 28.76854,28.76853 0,-15.96312 12.93323,-28.76853 28.89639,-28.76853 l 77.73898,0 c 15.96313,0 28.76845,-12.80541 28.76854,-28.76854 l 0,-332.89699 z"
         id="path3648"
         sodipodi:nodetypes="ccccsccccc"
         inkscape:connector-curvature="0" />
    </clipPath>
    <clipPath
       clipPathUnits="userSpaceOnUse"
       id="clipPath3650">
      <path
         style="fill:#ffffff;fill-opacity:1;fill-rule:evenodd;stroke:#000000;stroke-width:4.0915246;stroke-linejoin:miter;stroke-miterlimit:4;stroke-opacity:1;stroke-dasharray:none;display:inline"
         d="m 2.06084,2.05145 0,332.89699 c 0,15.96313 12.80539,28.76854 28.76856,28.76854 l 89.37425,0 c 15.96313,0 28.76854,12.80541 28.76854,28.76853 0,-15.96312 12.93323,-28.76853 28.89639,-28.76853 l 77.73898,0 c 15.96313,0 28.76845,-12.80541 28.76854,-28.76854 l 0,-332.89699 z"
         id="path3652"
         sodipodi:nodetypes="ccccsccccc"
         inkscape:connector-curvature="0" />
    </clipPath>
    <clipPath
       clipPathUnits="userSpaceOnUse"
       id="clipPath3654">
      <path
         style="fill:#ffffff;fill-opacity:1;fill-rule:evenodd;stroke:#000000;stroke-width:4.0915246;stroke-linejoin:miter;stroke-miterlimit:4;stroke-opacity:1;stroke-dasharray:none;display:inline"
         d="m 2.06084,2.05145 0,332.89699 c 0,15.96313 12.80539,28.76854 28.76856,28.76854 l 89.37425,0 c 15.96313,0 28.76854,12.80541 28.76854,28.76853 0,-15.96312 12.93323,-28.76853 28.89639,-28.76853 l 77.73898,0 c 15.96313,0 28.76845,-12.80541 28.76854,-28.76854 l 0,-332.89699 z"
         id="path3656"
         sodipodi:nodetypes="ccccsccccc"
         inkscape:connector-curvature="0" />
    </clipPath>
    <clipPath
       clipPathUnits="userSpaceOnUse"
       id="clipPath3658">
      <path
         style="fill:#ffffff;fill-opacity:1;fill-rule:evenodd;stroke:#000000;stroke-width:4.0915246;stroke-linejoin:miter;stroke-miterlimit:4;stroke-opacity:1;stroke-dasharray:none;display:inline"
         d="m 2.06084,2.05145 0,332.89699 c 0,15.96313 12.80539,28.76854 28.76856,28.76854 l 89.37425,0 c 15.96313,0 28.76854,12.80541 28.76854,28.76853 0,-15.96312 12.93323,-28.76853 28.89639,-28.76853 l 77.73898,0 c 15.96313,0 28.76845,-12.80541 28.76854,-28.76854 l 0,-332.89699 z"
         id="path3660"
         sodipodi:nodetypes="ccccsccccc"
         inkscape:connector-curvature="0" />
    </clipPath>
    <clipPath
       clipPathUnits="userSpaceOnUse"
       id="clipPath3662">
      <path
         style="fill:#ffffff;fill-opacity:1;fill-rule:evenodd;stroke:#000000;stroke-width:4.0915246;stroke-linejoin:miter;stroke-miterlimit:4;stroke-opacity:1;stroke-dasharray:none;display:inline"
         d="m 2.06084,2.05145 0,332.89699 c 0,15.96313 12.80539,28.76854 28.76856,28.76854 l 89.37425,0 c 15.96313,0 28.76854,12.80541 28.76854,28.76853 0,-15.96312 12.93323,-28.76853 28.89639,-28.76853 l 77.73898,0 c 15.96313,0 28.76845,-12.80541 28.76854,-28.76854 l 0,-332.89699 z"
         id="path3664"
         sodipodi:nodetypes="ccccsccccc"
         inkscape:connector-curvature="0" />
    </clipPath>
    <clipPath
       clipPathUnits="userSpaceOnUse"
       id="clipPath3666">
      <path
         style="fill:#ffffff;fill-opacity:1;fill-rule:evenodd;stroke:#000000;stroke-width:4.0915246;stroke-linejoin:miter;stroke-miterlimit:4;stroke-opacity:1;stroke-dasharray:none;display:inline"
         d="m 2.06084,2.05145 0,332.89699 c 0,15.96313 12.80539,28.76854 28.76856,28.76854 l 89.37425,0 c 15.96313,0 28.76854,12.80541 28.76854,28.76853 0,-15.96312 12.93323,-28.76853 28.89639,-28.76853 l 77.73898,0 c 15.96313,0 28.76845,-12.80541 28.76854,-28.76854 l 0,-332.89699 z"
         id="path3668"
         sodipodi:nodetypes="ccccsccccc"
         inkscape:connector-curvature="0" />
    </clipPath>
    <clipPath
       clipPathUnits="userSpaceOnUse"
       id="clipPath3670">
      <path
         style="fill:#ffffff;fill-opacity:1;fill-rule:evenodd;stroke:#000000;stroke-width:4.0915246;stroke-linejoin:miter;stroke-miterlimit:4;stroke-opacity:1;stroke-dasharray:none;display:inline"
         d="m 2.06084,2.05145 0,332.89699 c 0,15.96313 12.80539,28.76854 28.76856,28.76854 l 89.37425,0 c 15.96313,0 28.76854,12.80541 28.76854,28.76853 0,-15.96312 12.93323,-28.76853 28.89639,-28.76853 l 77.73898,0 c 15.96313,0 28.76845,-12.80541 28.76854,-28.76854 l 0,-332.89699 z"
         id="path3672"
         sodipodi:nodetypes="ccccsccccc"
         inkscape:connector-curvature="0" />
    </clipPath>
    <clipPath
       clipPathUnits="userSpaceOnUse"
       id="clipPath3674">
      <path
         style="fill:#ffffff;fill-opacity:1;fill-rule:evenodd;stroke:#000000;stroke-width:4.0915246;stroke-linejoin:miter;stroke-miterlimit:4;stroke-opacity:1;stroke-dasharray:none;display:inline"
         d="m 2.06084,2.05145 0,332.89699 c 0,15.96313 12.80539,28.76854 28.76856,28.76854 l 89.37425,0 c 15.96313,0 28.76854,12.80541 28.76854,28.76853 0,-15.96312 12.93323,-28.76853 28.89639,-28.76853 l 77.73898,0 c 15.96313,0 28.76845,-12.80541 28.76854,-28.76854 l 0,-332.89699 z"
         id="path3676"
         sodipodi:nodetypes="ccccsccccc"
         inkscape:connector-curvature="0" />
    </clipPath>
    <clipPath
       clipPathUnits="userSpaceOnUse"
       id="clipPath3678">
      <path
         style="fill:#ffffff;fill-opacity:1;fill-rule:evenodd;stroke:#000000;stroke-width:4.0915246;stroke-linejoin:miter;stroke-miterlimit:4;stroke-opacity:1;stroke-dasharray:none;display:inline"
         d="m 2.06084,2.05145 0,332.89699 c 0,15.96313 12.80539,28.76854 28.76856,28.76854 l 89.37425,0 c 15.96313,0 28.76854,12.80541 28.76854,28.76853 0,-15.96312 12.93323,-28.76853 28.89639,-28.76853 l 77.73898,0 c 15.96313,0 28.76845,-12.80541 28.76854,-28.76854 l 0,-332.89699 z"
         id="path3680"
         sodipodi:nodetypes="ccccsccccc"
         inkscape:connector-curvature="0" />
    </clipPath>
    <clipPath
       clipPathUnits="userSpaceOnUse"
       id="clipPath3682">
      <path
         style="fill:#ffffff;fill-opacity:1;fill-rule:evenodd;stroke:#000000;stroke-width:4.0915246;stroke-linejoin:miter;stroke-miterlimit:4;stroke-opacity:1;stroke-dasharray:none;display:inline"
         d="m 2.06084,2.05145 0,332.89699 c 0,15.96313 12.80539,28.76854 28.76856,28.76854 l 89.37425,0 c 15.96313,0 28.76854,12.80541 28.76854,28.76853 0,-15.96312 12.93323,-28.76853 28.89639,-28.76853 l 77.73898,0 c 15.96313,0 28.76845,-12.80541 28.76854,-28.76854 l 0,-332.89699 z"
         id="path3684"
         sodipodi:nodetypes="ccccsccccc"
         inkscape:connector-curvature="0" />
    </clipPath>
    <clipPath
       clipPathUnits="userSpaceOnUse"
       id="clipPath3686">
      <path
         style="fill:#ffffff;fill-opacity:1;fill-rule:evenodd;stroke:#000000;stroke-width:4.0915246;stroke-linejoin:miter;stroke-miterlimit:4;stroke-opacity:1;stroke-dasharray:none;display:inline"
         d="m 2.06084,2.05145 0,332.89699 c 0,15.96313 12.80539,28.76854 28.76856,28.76854 l 89.37425,0 c 15.96313,0 28.76854,12.80541 28.76854,28.76853 0,-15.96312 12.93323,-28.76853 28.89639,-28.76853 l 77.73898,0 c 15.96313,0 28.76845,-12.80541 28.76854,-28.76854 l 0,-332.89699 z"
         id="path3688"
         sodipodi:nodetypes="ccccsccccc"
         inkscape:connector-curvature="0" />
    </clipPath>
  </defs>
  <sodipodi:namedview
     id="base"
     pagecolor="#ffffff"
     bordercolor="#666666"
     borderopacity="1.0"
     inkscape:pageopacity="0.0"
     inkscape:pageshadow="2"
     inkscape:zoom="1.244211"
     inkscape:cx="49.182974"
     inkscape:cy="227.38041"
     inkscape:document-units="px"
     inkscape:current-layer="layer2"
     showgrid="false"
     fit-margin-top="0"
     fit-margin-left="0"
     fit-margin-right="0"
     fit-margin-bottom="0"
     inkscape:window-width="1920"
     inkscape:window-height="955"
     inkscape:window-x="-9"
     inkscape:window-y="-9"
     inkscape:window-maximized="1"
     showguides="true"
     inkscape:guide-bbox="true"
     inkscape:snap-global="false">
    <inkscape:grid
       type="xygrid"
       id="grid14852" />
  </sodipodi:namedview>
  <metadata
     id="metadata3972">
    <rdf:RDF>
      <cc:Work
         rdf:about="">
        <dc:format>image/svg+xml</dc:format>
        <dc:type
           rdf:resource="http://purl.org/dc/dcmitype/StillImage" />
        <dc:title />
      </cc:Work>
    </rdf:RDF>
  </metadata>
  <g
     style="display:none"
     inkscape:label="fill"
     id="g3690"
     inkscape:groupmode="layer">
    <path
       style="fill:#ff00ff;fill-opacity:1;fill-rule:evenodd;stroke:#000000;stroke-width:4.0915246;stroke-linejoin:miter;stroke-miterlimit:4;stroke-opacity:1;stroke-dasharray:none;display:inline"
       d="m 2.06084,2.05145 0,332.89699 c 0,15.96313 12.80539,28.76854 28.76856,28.76854 l 89.37425,0 c 15.96313,0 28.76854,12.80541 28.76854,28.76853 0,-15.96312 12.93323,-28.76853 28.89639,-28.76853 l 77.73898,0 c 15.96313,0 28.76845,-12.80541 28.76854,-28.76854 l 0,-332.89699 z"
       id="path3692"
       sodipodi:nodetypes="ccccsccccc"
       inkscape:connector-curvature="0" />
  </g>
  <g
     inkscape:groupmode="layer"
     id="layer2"
     inkscape:label="pattern"
     style="display:inline">
    <path
       style="fill:none;stroke:#ff00ff;stroke-width:2;stroke-linecap:butt;stroke-linejoin:miter;stroke-miterlimit:4;stroke-opacity:1;stroke-dasharray:none"
       d="M -214.2552,200.06437 164.04692,-178.23776"
       id="path14854-3"
       inkscape:connector-curvature="0"
       sodipodi:nodetypes="cc"
       clip-path="url(#clipPath3686)" />
    <path
       style="fill:none;stroke:#ff00ff;stroke-width:2;stroke-linecap:butt;stroke-linejoin:miter;stroke-miterlimit:4;stroke-opacity:1;stroke-dasharray:none"
       d="M -196.57753,217.74204 181.72459,-160.56009"
       id="path14854-1-1"
       inkscape:connector-curvature="0"
       sodipodi:nodetypes="cc"
       clip-path="url(#clipPath3682)" />
    <path
       style="fill:none;stroke:#ff00ff;stroke-width:2;stroke-linecap:butt;stroke-linejoin:miter;stroke-miterlimit:4;stroke-opacity:1;stroke-dasharray:none"
       d="M -178.89987,235.41971 199.40226,-142.88242"
       id="path14854-7-9"
       inkscape:connector-curvature="0"
       sodipodi:nodetypes="cc"
       clip-path="url(#clipPath3678)" />
    <path
       style="fill:none;stroke:#ff00ff;stroke-width:2;stroke-linecap:butt;stroke-linejoin:miter;stroke-miterlimit:4;stroke-opacity:1;stroke-dasharray:none"
       d="M -161.2222,253.09738 217.07993,-125.20475"
       id="path14854-11-86"
       inkscape:connector-curvature="0"
       sodipodi:nodetypes="cc"
       clip-path="url(#clipPath3674)" />
    <path
       style="fill:none;stroke:#ff00ff;stroke-width:2;stroke-linecap:butt;stroke-linejoin:miter;stroke-miterlimit:4;stroke-opacity:1;stroke-dasharray:none"
       d="M -143.54453,270.77505 234.7576,-107.52708"
       id="path14854-5-5"
       inkscape:connector-curvature="0"
       sodipodi:nodetypes="cc"
       clip-path="url(#clipPath3670)" />
    <path
       style="fill:none;stroke:#ff00ff;stroke-width:2;stroke-linecap:butt;stroke-linejoin:miter;stroke-miterlimit:4;stroke-opacity:1;stroke-dasharray:none"
       d="M -125.86686,288.45272 252.43527,-89.849412"
       id="path14854-2-0"
       inkscape:connector-curvature="0"
       sodipodi:nodetypes="cc"
       clip-path="url(#clipPath3666)" />
    <path
       style="fill:none;stroke:#ff00ff;stroke-width:2;stroke-linecap:butt;stroke-linejoin:miter;stroke-miterlimit:4;stroke-opacity:1;stroke-dasharray:none"
       d="M -108.18919,306.13039 270.11294,-72.171742"
       id="path14854-76-2"
       inkscape:connector-curvature="0"
       sodipodi:nodetypes="cc"
       clip-path="url(#clipPath3662)" />
    <path
       style="fill:none;stroke:#ff00ff;stroke-width:2;stroke-linecap:butt;stroke-linejoin:miter;stroke-miterlimit:4;stroke-opacity:1;stroke-dasharray:none"
       d="M -90.51152,323.80806 287.79061,-54.494073"
       id="path14854-14-8"
       inkscape:connector-curvature="0"
       sodipodi:nodetypes="cc"
       clip-path="url(#clipPath3658)" />
    <path
       style="fill:none;stroke:#ff00ff;stroke-width:2;stroke-linecap:butt;stroke-linejoin:miter;stroke-miterlimit:4;stroke-opacity:1;stroke-dasharray:none"
       d="M -72.83385,341.48572 305.46828,-36.816403"
       id="path14854-23-6"
       inkscape:connector-curvature="0"
       sodipodi:nodetypes="cc"
       clip-path="url(#clipPath3654)" />
    <path
       style="fill:none;stroke:#ff00ff;stroke-width:2;stroke-linecap:butt;stroke-linejoin:miter;stroke-miterlimit:4;stroke-opacity:1;stroke-dasharray:none"
       d="M -55.15618,359.16339 323.14595,-19.138733"
       id="path14854-22-0"
       inkscape:connector-curvature="0"
       sodipodi:nodetypes="cc"
       clip-path="url(#clipPath3650)" />
    <path
       style="fill:none;stroke:#ff00ff;stroke-width:2;stroke-linecap:butt;stroke-linejoin:miter;stroke-miterlimit:4;stroke-opacity:1;stroke-dasharray:none"
       d="M -37.47851,376.84106 340.82362,-1.461064"
       id="path14854-22-1-2"
       inkscape:connector-curvature="0"
       sodipodi:nodetypes="cc"
       clip-path="url(#clipPath3646)" />
    <path
       style="fill:none;stroke:#ff00ff;stroke-width:2;stroke-linecap:butt;stroke-linejoin:miter;stroke-miterlimit:4;stroke-opacity:1;stroke-dasharray:none"
       d="M -231.93287,182.3867 146.36925,-195.91543"
       id="path14854-22-6-4"
       inkscape:connector-curvature="0"
       sodipodi:nodetypes="cc"
       clip-path="url(#clipPath3642)" />
    <path
       style="fill:none;stroke:#ff00ff;stroke-width:2;stroke-linecap:butt;stroke-linejoin:miter;stroke-miterlimit:4;stroke-opacity:1;stroke-dasharray:none"
       d="M -19.80084,394.51873 358.50129,16.21661"
       id="path14854-57-8"
       inkscape:connector-curvature="0"
       sodipodi:nodetypes="cc"
       clip-path="url(#clipPath3638)" />
    <path
       style="fill:none;stroke:#ff00ff;stroke-width:2;stroke-linecap:butt;stroke-linejoin:miter;stroke-miterlimit:4;stroke-opacity:1;stroke-dasharray:none"
       d="M -37.47851,376.84106 340.82362,-1.461064"
       id="path14854-22-6-1-9"
       inkscape:connector-curvature="0"
       sodipodi:nodetypes="cc"
       clip-path="url(#clipPath3634)" />
    <path
       style="fill:none;stroke:#ff00ff;stroke-width:2;stroke-linecap:butt;stroke-linejoin:miter;stroke-miterlimit:4;stroke-opacity:1;stroke-dasharray:none"
       d="M -231.9351,182.38447 146.36703,-195.91766"
       id="path14854-22-1-3-7-9"
       inkscape:connector-curvature="0"
       sodipodi:nodetypes="cc"
       clip-path="url(#clipPath3630)" />
    <path
       style="fill:none;stroke:#ff00ff;stroke-width:2;stroke-linecap:butt;stroke-linejoin:miter;stroke-miterlimit:4;stroke-opacity:1;stroke-dasharray:none;display:inline"
       d="M -2.14561,412.17397 376.15652,33.87184"
       id="path14854-3-7"
       inkscape:connector-curvature="0"
       sodipodi:nodetypes="cc"
       clip-path="url(#clipPath3626)" />
    <path
       style="fill:none;stroke:#ff00ff;stroke-width:2;stroke-linecap:butt;stroke-linejoin:miter;stroke-miterlimit:4;stroke-opacity:1;stroke-dasharray:none;display:inline"
       d="M 15.53206,429.85164 393.83419,51.54951"
       id="path14854-1-1-8"
       inkscape:connector-curvature="0"
       sodipodi:nodetypes="cc"
       clip-path="url(#clipPath3622)" />
    <path
       style="fill:none;stroke:#ff00ff;stroke-width:2;stroke-linecap:butt;stroke-linejoin:miter;stroke-miterlimit:4;stroke-opacity:1;stroke-dasharray:none;display:inline"
       d="M 33.20973,447.52931 411.51186,69.22718"
       id="path14854-7-9-8"
       inkscape:connector-curvature="0"
       sodipodi:nodetypes="cc"
       clip-path="url(#clipPath3618)" />
    <path
       style="fill:none;stroke:#ff00ff;stroke-width:2;stroke-linecap:butt;stroke-linejoin:miter;stroke-miterlimit:4;stroke-opacity:1;stroke-dasharray:none;display:inline"
       d="M 50.8874,465.20698 429.18953,86.90485"
       id="path14854-11-86-2"
       inkscape:connector-curvature="0"
       sodipodi:nodetypes="cc"
       clip-path="url(#clipPath3614)" />
    <path
       style="fill:none;stroke:#ff00ff;stroke-width:2;stroke-linecap:butt;stroke-linejoin:miter;stroke-miterlimit:4;stroke-opacity:1;stroke-dasharray:none;display:inline"
       d="M 68.56507,482.88464 446.8672,104.58252"
       id="path14854-5-5-9"
       inkscape:connector-curvature="0"
       sodipodi:nodetypes="cc"
       clip-path="url(#clipPath3610)" />
    <path
       style="fill:none;stroke:#ff00ff;stroke-width:2;stroke-linecap:butt;stroke-linejoin:miter;stroke-miterlimit:4;stroke-opacity:1;stroke-dasharray:none;display:inline"
       d="M 86.24274,500.56231 464.54487,122.26019"
       id="path14854-2-0-1"
       inkscape:connector-curvature="0"
       sodipodi:nodetypes="cc"
       clip-path="url(#clipPath3606)" />
    <path
       style="fill:none;stroke:#ff00ff;stroke-width:2;stroke-linecap:butt;stroke-linejoin:miter;stroke-miterlimit:4;stroke-opacity:1;stroke-dasharray:none;display:inline"
       d="M 103.92041,518.23998 482.22254,139.93786"
       id="path14854-76-2-3"
       inkscape:connector-curvature="0"
       sodipodi:nodetypes="cc"
       clip-path="url(#clipPath3602)" />
    <path
       style="fill:none;stroke:#ff00ff;stroke-width:2;stroke-linecap:butt;stroke-linejoin:miter;stroke-miterlimit:4;stroke-opacity:1;stroke-dasharray:none;display:inline"
       d="M 121.59807,535.91765 499.9002,157.61552"
       id="path14854-14-8-5"
       inkscape:connector-curvature="0"
       sodipodi:nodetypes="cc"
       clip-path="url(#clipPath3598)" />
  </g>
  <g
     inkscape:groupmode="layer"
     id="layer3"
     inkscape:label="shield"
     style="display:inline"
     sodipodi:insensitive="true">
    <path
       inkscape:connector-curvature="0"
       sodipodi:nodetypes="ccccsccccc"
       id="path16176"
       d="m 2.06084,2.05145 0,332.89699 c 0,15.96313 12.80539,28.76854 28.76856,28.76854 l 89.37425,0 c 15.96313,0 28.76854,12.80541 28.76854,28.76853 0,-15.96312 12.93323,-28.76853 28.89639,-28.76853 l 77.73898,0 c 15.96313,0 28.76845,-12.80541 28.76854,-28.76854 l 0,-332.89699 z"
       style="fill:none;stroke:#000000;stroke-width:4.0915246;stroke-linejoin:miter;stroke-miterlimit:4;stroke-opacity:1;stroke-dasharray:none;display:inline" />
  </g>
</svg>
