<?xml version="1.0" encoding="UTF-8" standalone="no"?>
<!-- Created with Inkscape (http://www.inkscape.org/) -->

<svg
   xmlns:dc="http://purl.org/dc/elements/1.1/"
   xmlns:cc="http://creativecommons.org/ns#"
   xmlns:rdf="http://www.w3.org/1999/02/22-rdf-syntax-ns#"
   xmlns:svg="http://www.w3.org/2000/svg"
   xmlns="http://www.w3.org/2000/svg"
   xmlns:sodipodi="http://sodipodi.sourceforge.net/DTD/sodipodi-0.dtd"
   xmlns:inkscape="http://www.inkscape.org/namespaces/inkscape"
   width="286.40625"
   height="392.5"
   id="svg3967"
   version="1.1"
   inkscape:version="0.48.2 r9819"
   sodipodi:docname="transversal left to right.svg">
  <defs
     id="defs3969">
    <clipPath
       clipPathUnits="userSpaceOnUse"
       id="clipPath17084">
      <path
         inkscape:connector-curvature="0"
         sodipodi:nodetypes="ccccsccccc"
         id="path17086"
         d="m 22.06084,22.05145 0,332.89699 c 0,15.96313 12.80539,28.76854 28.76856,28.76854 l 89.37425,0 c 15.96313,0 28.76854,12.80541 28.76854,28.76853 0,-15.96312 12.93323,-28.76853 28.89639,-28.76853 l 77.73898,0 c 15.96313,0 28.76845,-12.80541 28.76854,-28.76854 l 0,-332.89699 z"
         style="fill:#ffffff;fill-opacity:1;fill-rule:evenodd;stroke:#000000;stroke-width:4.0915246;stroke-linejoin:miter;stroke-miterlimit:4;stroke-opacity:1;stroke-dasharray:none;display:inline" />
    </clipPath>
    <clipPath
       clipPathUnits="userSpaceOnUse"
       id="clipPath17088">
      <path
         inkscape:connector-curvature="0"
         sodipodi:nodetypes="ccccsccccc"
         id="path17090"
         d="m 22.06084,22.05145 0,332.89699 c 0,15.96313 12.80539,28.76854 28.76856,28.76854 l 89.37425,0 c 15.96313,0 28.76854,12.80541 28.76854,28.76853 0,-15.96312 12.93323,-28.76853 28.89639,-28.76853 l 77.73898,0 c 15.96313,0 28.76845,-12.80541 28.76854,-28.76854 l 0,-332.89699 z"
         style="fill:#ffffff;fill-opacity:1;fill-rule:evenodd;stroke:#000000;stroke-width:4.0915246;stroke-linejoin:miter;stroke-miterlimit:4;stroke-opacity:1;stroke-dasharray:none;display:inline" />
    </clipPath>
    <clipPath
       clipPathUnits="userSpaceOnUse"
       id="clipPath17092">
      <path
         inkscape:connector-curvature="0"
         sodipodi:nodetypes="ccccsccccc"
         id="path17094"
         d="m 22.06084,22.05145 0,332.89699 c 0,15.96313 12.80539,28.76854 28.76856,28.76854 l 89.37425,0 c 15.96313,0 28.76854,12.80541 28.76854,28.76853 0,-15.96312 12.93323,-28.76853 28.89639,-28.76853 l 77.73898,0 c 15.96313,0 28.76845,-12.80541 28.76854,-28.76854 l 0,-332.89699 z"
         style="fill:#ffffff;fill-opacity:1;fill-rule:evenodd;stroke:#000000;stroke-width:4.0915246;stroke-linejoin:miter;stroke-miterlimit:4;stroke-opacity:1;stroke-dasharray:none;display:inline" />
    </clipPath>
    <clipPath
       clipPathUnits="userSpaceOnUse"
       id="clipPath17096">
      <path
         inkscape:connector-curvature="0"
         sodipodi:nodetypes="ccccsccccc"
         id="path17098"
         d="m 22.06084,22.05145 0,332.89699 c 0,15.96313 12.80539,28.76854 28.76856,28.76854 l 89.37425,0 c 15.96313,0 28.76854,12.80541 28.76854,28.76853 0,-15.96312 12.93323,-28.76853 28.89639,-28.76853 l 77.73898,0 c 15.96313,0 28.76845,-12.80541 28.76854,-28.76854 l 0,-332.89699 z"
         style="fill:#ffffff;fill-opacity:1;fill-rule:evenodd;stroke:#000000;stroke-width:4.0915246;stroke-linejoin:miter;stroke-miterlimit:4;stroke-opacity:1;stroke-dasharray:none;display:inline" />
    </clipPath>
    <clipPath
       clipPathUnits="userSpaceOnUse"
       id="clipPath17100">
      <path
         inkscape:connector-curvature="0"
         sodipodi:nodetypes="ccccsccccc"
         id="path17102"
         d="m 22.06084,22.05145 0,332.89699 c 0,15.96313 12.80539,28.76854 28.76856,28.76854 l 89.37425,0 c 15.96313,0 28.76854,12.80541 28.76854,28.76853 0,-15.96312 12.93323,-28.76853 28.89639,-28.76853 l 77.73898,0 c 15.96313,0 28.76845,-12.80541 28.76854,-28.76854 l 0,-332.89699 z"
         style="fill:#ffffff;fill-opacity:1;fill-rule:evenodd;stroke:#000000;stroke-width:4.0915246;stroke-linejoin:miter;stroke-miterlimit:4;stroke-opacity:1;stroke-dasharray:none;display:inline" />
    </clipPath>
    <clipPath
       clipPathUnits="userSpaceOnUse"
       id="clipPath17104">
      <path
         inkscape:connector-curvature="0"
         sodipodi:nodetypes="ccccsccccc"
         id="path17106"
         d="m 22.06084,22.05145 0,332.89699 c 0,15.96313 12.80539,28.76854 28.76856,28.76854 l 89.37425,0 c 15.96313,0 28.76854,12.80541 28.76854,28.76853 0,-15.96312 12.93323,-28.76853 28.89639,-28.76853 l 77.73898,0 c 15.96313,0 28.76845,-12.80541 28.76854,-28.76854 l 0,-332.89699 z"
         style="fill:#ffffff;fill-opacity:1;fill-rule:evenodd;stroke:#000000;stroke-width:4.0915246;stroke-linejoin:miter;stroke-miterlimit:4;stroke-opacity:1;stroke-dasharray:none;display:inline" />
    </clipPath>
    <clipPath
       clipPathUnits="userSpaceOnUse"
       id="clipPath17108">
      <path
         inkscape:connector-curvature="0"
         sodipodi:nodetypes="ccccsccccc"
         id="path17110"
         d="m 22.06084,22.05145 0,332.89699 c 0,15.96313 12.80539,28.76854 28.76856,28.76854 l 89.37425,0 c 15.96313,0 28.76854,12.80541 28.76854,28.76853 0,-15.96312 12.93323,-28.76853 28.89639,-28.76853 l 77.73898,0 c 15.96313,0 28.76845,-12.80541 28.76854,-28.76854 l 0,-332.89699 z"
         style="fill:#ffffff;fill-opacity:1;fill-rule:evenodd;stroke:#000000;stroke-width:4.0915246;stroke-linejoin:miter;stroke-miterlimit:4;stroke-opacity:1;stroke-dasharray:none;display:inline" />
    </clipPath>
    <clipPath
       clipPathUnits="userSpaceOnUse"
       id="clipPath17112">
      <path
         inkscape:connector-curvature="0"
         sodipodi:nodetypes="ccccsccccc"
         id="path17114"
         d="m 22.06084,22.05145 0,332.89699 c 0,15.96313 12.80539,28.76854 28.76856,28.76854 l 89.37425,0 c 15.96313,0 28.76854,12.80541 28.76854,28.76853 0,-15.96312 12.93323,-28.76853 28.89639,-28.76853 l 77.73898,0 c 15.96313,0 28.76845,-12.80541 28.76854,-28.76854 l 0,-332.89699 z"
         style="fill:#ffffff;fill-opacity:1;fill-rule:evenodd;stroke:#000000;stroke-width:4.0915246;stroke-linejoin:miter;stroke-miterlimit:4;stroke-opacity:1;stroke-dasharray:none;display:inline" />
    </clipPath>
    <clipPath
       clipPathUnits="userSpaceOnUse"
       id="clipPath17116">
      <path
         inkscape:connector-curvature="0"
         sodipodi:nodetypes="ccccsccccc"
         id="path17118"
         d="m 22.06084,22.05145 0,332.89699 c 0,15.96313 12.80539,28.76854 28.76856,28.76854 l 89.37425,0 c 15.96313,0 28.76854,12.80541 28.76854,28.76853 0,-15.96312 12.93323,-28.76853 28.89639,-28.76853 l 77.73898,0 c 15.96313,0 28.76845,-12.80541 28.76854,-28.76854 l 0,-332.89699 z"
         style="fill:#ffffff;fill-opacity:1;fill-rule:evenodd;stroke:#000000;stroke-width:4.0915246;stroke-linejoin:miter;stroke-miterlimit:4;stroke-opacity:1;stroke-dasharray:none;display:inline" />
    </clipPath>
    <clipPath
       clipPathUnits="userSpaceOnUse"
       id="clipPath17120">
      <path
         inkscape:connector-curvature="0"
         sodipodi:nodetypes="ccccsccccc"
         id="path17122"
         d="m 22.06084,22.05145 0,332.89699 c 0,15.96313 12.80539,28.76854 28.76856,28.76854 l 89.37425,0 c 15.96313,0 28.76854,12.80541 28.76854,28.76853 0,-15.96312 12.93323,-28.76853 28.89639,-28.76853 l 77.73898,0 c 15.96313,0 28.76845,-12.80541 28.76854,-28.76854 l 0,-332.89699 z"
         style="fill:#ffffff;fill-opacity:1;fill-rule:evenodd;stroke:#000000;stroke-width:4.0915246;stroke-linejoin:miter;stroke-miterlimit:4;stroke-opacity:1;stroke-dasharray:none;display:inline" />
    </clipPath>
    <clipPath
       clipPathUnits="userSpaceOnUse"
       id="clipPath17124">
      <path
         inkscape:connector-curvature="0"
         sodipodi:nodetypes="ccccsccccc"
         id="path17126"
         d="m 22.06084,22.05145 0,332.89699 c 0,15.96313 12.80539,28.76854 28.76856,28.76854 l 89.37425,0 c 15.96313,0 28.76854,12.80541 28.76854,28.76853 0,-15.96312 12.93323,-28.76853 28.89639,-28.76853 l 77.73898,0 c 15.96313,0 28.76845,-12.80541 28.76854,-28.76854 l 0,-332.89699 z"
         style="fill:#ffffff;fill-opacity:1;fill-rule:evenodd;stroke:#000000;stroke-width:4.0915246;stroke-linejoin:miter;stroke-miterlimit:4;stroke-opacity:1;stroke-dasharray:none;display:inline" />
    </clipPath>
    <clipPath
       clipPathUnits="userSpaceOnUse"
       id="clipPath17128">
      <path
         inkscape:connector-curvature="0"
         sodipodi:nodetypes="ccccsccccc"
         id="path17130"
         d="m 22.06084,22.05145 0,332.89699 c 0,15.96313 12.80539,28.76854 28.76856,28.76854 l 89.37425,0 c 15.96313,0 28.76854,12.80541 28.76854,28.76853 0,-15.96312 12.93323,-28.76853 28.89639,-28.76853 l 77.73898,0 c 15.96313,0 28.76845,-12.80541 28.76854,-28.76854 l 0,-332.89699 z"
         style="fill:#ffffff;fill-opacity:1;fill-rule:evenodd;stroke:#000000;stroke-width:4.0915246;stroke-linejoin:miter;stroke-miterlimit:4;stroke-opacity:1;stroke-dasharray:none;display:inline" />
    </clipPath>
    <clipPath
       clipPathUnits="userSpaceOnUse"
       id="clipPath17132">
      <path
         inkscape:connector-curvature="0"
         sodipodi:nodetypes="ccccsccccc"
         id="path17134"
         d="m 22.06084,22.05145 0,332.89699 c 0,15.96313 12.80539,28.76854 28.76856,28.76854 l 89.37425,0 c 15.96313,0 28.76854,12.80541 28.76854,28.76853 0,-15.96312 12.93323,-28.76853 28.89639,-28.76853 l 77.73898,0 c 15.96313,0 28.76845,-12.80541 28.76854,-28.76854 l 0,-332.89699 z"
         style="fill:#ffffff;fill-opacity:1;fill-rule:evenodd;stroke:#000000;stroke-width:4.0915246;stroke-linejoin:miter;stroke-miterlimit:4;stroke-opacity:1;stroke-dasharray:none;display:inline" />
    </clipPath>
    <clipPath
       clipPathUnits="userSpaceOnUse"
       id="clipPath17136">
      <path
         inkscape:connector-curvature="0"
         sodipodi:nodetypes="ccccsccccc"
         id="path17138"
         d="m 22.06084,22.05145 0,332.89699 c 0,15.96313 12.80539,28.76854 28.76856,28.76854 l 89.37425,0 c 15.96313,0 28.76854,12.80541 28.76854,28.76853 0,-15.96312 12.93323,-28.76853 28.89639,-28.76853 l 77.73898,0 c 15.96313,0 28.76845,-12.80541 28.76854,-28.76854 l 0,-332.89699 z"
         style="fill:#ffffff;fill-opacity:1;fill-rule:evenodd;stroke:#000000;stroke-width:4.0915246;stroke-linejoin:miter;stroke-miterlimit:4;stroke-opacity:1;stroke-dasharray:none;display:inline" />
    </clipPath>
    <clipPath
       clipPathUnits="userSpaceOnUse"
       id="clipPath17140">
      <path
         inkscape:connector-curvature="0"
         sodipodi:nodetypes="ccccsccccc"
         id="path17142"
         d="m 22.06084,22.05145 0,332.89699 c 0,15.96313 12.80539,28.76854 28.76856,28.76854 l 89.37425,0 c 15.96313,0 28.76854,12.80541 28.76854,28.76853 0,-15.96312 12.93323,-28.76853 28.89639,-28.76853 l 77.73898,0 c 15.96313,0 28.76845,-12.80541 28.76854,-28.76854 l 0,-332.89699 z"
         style="fill:#ffffff;fill-opacity:1;fill-rule:evenodd;stroke:#000000;stroke-width:4.0915246;stroke-linejoin:miter;stroke-miterlimit:4;stroke-opacity:1;stroke-dasharray:none;display:inline" />
    </clipPath>
    <clipPath
       clipPathUnits="userSpaceOnUse"
       id="clipPath17144">
      <path
         inkscape:connector-curvature="0"
         sodipodi:nodetypes="ccccsccccc"
         id="path17146"
         d="m 22.06084,22.05145 0,332.89699 c 0,15.96313 12.80539,28.76854 28.76856,28.76854 l 89.37425,0 c 15.96313,0 28.76854,12.80541 28.76854,28.76853 0,-15.96312 12.93323,-28.76853 28.89639,-28.76853 l 77.73898,0 c 15.96313,0 28.76845,-12.80541 28.76854,-28.76854 l 0,-332.89699 z"
         style="fill:#ffffff;fill-opacity:1;fill-rule:evenodd;stroke:#000000;stroke-width:4.0915246;stroke-linejoin:miter;stroke-miterlimit:4;stroke-opacity:1;stroke-dasharray:none;display:inline" />
    </clipPath>
    <clipPath
       clipPathUnits="userSpaceOnUse"
       id="clipPath17148">
      <path
         inkscape:connector-curvature="0"
         sodipodi:nodetypes="ccccsccccc"
         id="path17150"
         d="m 22.06084,22.05145 0,332.89699 c 0,15.96313 12.80539,28.76854 28.76856,28.76854 l 89.37425,0 c 15.96313,0 28.76854,12.80541 28.76854,28.76853 0,-15.96312 12.93323,-28.76853 28.89639,-28.76853 l 77.73898,0 c 15.96313,0 28.76845,-12.80541 28.76854,-28.76854 l 0,-332.89699 z"
         style="fill:#ffffff;fill-opacity:1;fill-rule:evenodd;stroke:#000000;stroke-width:4.0915246;stroke-linejoin:miter;stroke-miterlimit:4;stroke-opacity:1;stroke-dasharray:none;display:inline" />
    </clipPath>
    <clipPath
       clipPathUnits="userSpaceOnUse"
       id="clipPath17152">
      <path
         inkscape:connector-curvature="0"
         sodipodi:nodetypes="ccccsccccc"
         id="path17154"
         d="m 22.06084,22.05145 0,332.89699 c 0,15.96313 12.80539,28.76854 28.76856,28.76854 l 89.37425,0 c 15.96313,0 28.76854,12.80541 28.76854,28.76853 0,-15.96312 12.93323,-28.76853 28.89639,-28.76853 l 77.73898,0 c 15.96313,0 28.76845,-12.80541 28.76854,-28.76854 l 0,-332.89699 z"
         style="fill:#ffffff;fill-opacity:1;fill-rule:evenodd;stroke:#000000;stroke-width:4.0915246;stroke-linejoin:miter;stroke-miterlimit:4;stroke-opacity:1;stroke-dasharray:none;display:inline" />
    </clipPath>
    <clipPath
       clipPathUnits="userSpaceOnUse"
       id="clipPath17156">
      <path
         inkscape:connector-curvature="0"
         sodipodi:nodetypes="ccccsccccc"
         id="path17158"
         d="m 22.06084,22.05145 0,332.89699 c 0,15.96313 12.80539,28.76854 28.76856,28.76854 l 89.37425,0 c 15.96313,0 28.76854,12.80541 28.76854,28.76853 0,-15.96312 12.93323,-28.76853 28.89639,-28.76853 l 77.73898,0 c 15.96313,0 28.76845,-12.80541 28.76854,-28.76854 l 0,-332.89699 z"
         style="fill:#ffffff;fill-opacity:1;fill-rule:evenodd;stroke:#000000;stroke-width:4.0915246;stroke-linejoin:miter;stroke-miterlimit:4;stroke-opacity:1;stroke-dasharray:none;display:inline" />
    </clipPath>
    <clipPath
       clipPathUnits="userSpaceOnUse"
       id="clipPath17160">
      <path
         inkscape:connector-curvature="0"
         sodipodi:nodetypes="ccccsccccc"
         id="path17162"
         d="m 22.06084,22.05145 0,332.89699 c 0,15.96313 12.80539,28.76854 28.76856,28.76854 l 89.37425,0 c 15.96313,0 28.76854,12.80541 28.76854,28.76853 0,-15.96312 12.93323,-28.76853 28.89639,-28.76853 l 77.73898,0 c 15.96313,0 28.76845,-12.80541 28.76854,-28.76854 l 0,-332.89699 z"
         style="fill:#ffffff;fill-opacity:1;fill-rule:evenodd;stroke:#000000;stroke-width:4.0915246;stroke-linejoin:miter;stroke-miterlimit:4;stroke-opacity:1;stroke-dasharray:none;display:inline" />
    </clipPath>
    <clipPath
       clipPathUnits="userSpaceOnUse"
       id="clipPath17164">
      <path
         inkscape:connector-curvature="0"
         sodipodi:nodetypes="ccccsccccc"
         id="path17166"
         d="m 22.06084,22.05145 0,332.89699 c 0,15.96313 12.80539,28.76854 28.76856,28.76854 l 89.37425,0 c 15.96313,0 28.76854,12.80541 28.76854,28.76853 0,-15.96312 12.93323,-28.76853 28.89639,-28.76853 l 77.73898,0 c 15.96313,0 28.76845,-12.80541 28.76854,-28.76854 l 0,-332.89699 z"
         style="fill:#ffffff;fill-opacity:1;fill-rule:evenodd;stroke:#000000;stroke-width:4.0915246;stroke-linejoin:miter;stroke-miterlimit:4;stroke-opacity:1;stroke-dasharray:none;display:inline" />
    </clipPath>
    <clipPath
       clipPathUnits="userSpaceOnUse"
       id="clipPath17168">
      <path
         inkscape:connector-curvature="0"
         sodipodi:nodetypes="ccccsccccc"
         id="path17170"
         d="m 22.06084,22.05145 0,332.89699 c 0,15.96313 12.80539,28.76854 28.76856,28.76854 l 89.37425,0 c 15.96313,0 28.76854,12.80541 28.76854,28.76853 0,-15.96312 12.93323,-28.76853 28.89639,-28.76853 l 77.73898,0 c 15.96313,0 28.76845,-12.80541 28.76854,-28.76854 l 0,-332.89699 z"
         style="fill:#ffffff;fill-opacity:1;fill-rule:evenodd;stroke:#000000;stroke-width:4.0915246;stroke-linejoin:miter;stroke-miterlimit:4;stroke-opacity:1;stroke-dasharray:none;display:inline" />
    </clipPath>
    <clipPath
       clipPathUnits="userSpaceOnUse"
       id="clipPath17172">
      <path
         inkscape:connector-curvature="0"
         sodipodi:nodetypes="ccccsccccc"
         id="path17174"
         d="m 22.06084,22.05145 0,332.89699 c 0,15.96313 12.80539,28.76854 28.76856,28.76854 l 89.37425,0 c 15.96313,0 28.76854,12.80541 28.76854,28.76853 0,-15.96312 12.93323,-28.76853 28.89639,-28.76853 l 77.73898,0 c 15.96313,0 28.76845,-12.80541 28.76854,-28.76854 l 0,-332.89699 z"
         style="fill:#ffffff;fill-opacity:1;fill-rule:evenodd;stroke:#000000;stroke-width:4.0915246;stroke-linejoin:miter;stroke-miterlimit:4;stroke-opacity:1;stroke-dasharray:none;display:inline" />
    </clipPath>
  </defs>
  <sodipodi:namedview
     id="base"
     pagecolor="#ffffff"
     bordercolor="#666666"
     borderopacity="1.0"
     inkscape:pageopacity="0.0"
     inkscape:pageshadow="2"
     inkscape:zoom="1.0887304"
     inkscape:cx="190.87936"
     inkscape:cy="101.8948"
     inkscape:document-units="px"
     inkscape:current-layer="layer2"
     showgrid="false"
     fit-margin-top="0"
     fit-margin-left="0"
     fit-margin-right="0"
     fit-margin-bottom="0"
     inkscape:window-width="1920"
     inkscape:window-height="955"
     inkscape:window-x="-9"
     inkscape:window-y="-9"
     inkscape:window-maximized="1"
     showguides="true"
     inkscape:guide-bbox="true"
     inkscape:snap-global="false">
    <inkscape:grid
       type="xygrid"
       id="grid14852" />
  </sodipodi:namedview>
  <metadata
     id="metadata3972">
    <rdf:RDF>
      <cc:Work
         rdf:about="">
        <dc:format>image/svg+xml</dc:format>
        <dc:type
           rdf:resource="http://purl.org/dc/dcmitype/StillImage" />
        <dc:title />
      </cc:Work>
    </rdf:RDF>
  </metadata>
  <g
     inkscape:groupmode="layer"
     id="layer2"
     inkscape:label="pattern"
     style="display:inline">
    <g
       id="g4279"
       transform="translate(-40,0)">
      <path
         transform="translate(20,-20)"
         clip-path="url(#clipPath17172)"
         sodipodi:nodetypes="cc"
         inkscape:connector-curvature="0"
         id="path14854-3"
         d="M 502.2203,220.06437 123.91818,-158.23776"
         style="fill:none;stroke:#00ff00;stroke-width:2;stroke-linecap:butt;stroke-linejoin:miter;stroke-miterlimit:4;stroke-opacity:1;stroke-dasharray:none" />
      <path
         transform="translate(20,-20)"
         clip-path="url(#clipPath17168)"
         sodipodi:nodetypes="cc"
         inkscape:connector-curvature="0"
         id="path14854-1-1"
         d="M 484.54263,237.74204 106.24051,-140.56009"
         style="fill:none;stroke:#00ff00;stroke-width:2;stroke-linecap:butt;stroke-linejoin:miter;stroke-miterlimit:4;stroke-opacity:1;stroke-dasharray:none" />
      <path
         transform="translate(20,-20)"
         clip-path="url(#clipPath17164)"
         sodipodi:nodetypes="cc"
         inkscape:connector-curvature="0"
         id="path14854-7-9"
         d="M 466.86497,255.41971 88.56284,-122.88242"
         style="fill:none;stroke:#00ff00;stroke-width:2;stroke-linecap:butt;stroke-linejoin:miter;stroke-miterlimit:4;stroke-opacity:1;stroke-dasharray:none" />
      <path
         transform="translate(20,-20)"
         clip-path="url(#clipPath17160)"
         sodipodi:nodetypes="cc"
         inkscape:connector-curvature="0"
         id="path14854-11-86"
         d="M 449.1873,273.09738 70.88517,-105.20475"
         style="fill:none;stroke:#00ff00;stroke-width:2;stroke-linecap:butt;stroke-linejoin:miter;stroke-miterlimit:4;stroke-opacity:1;stroke-dasharray:none" />
      <path
         transform="translate(20,-20)"
         clip-path="url(#clipPath17156)"
         sodipodi:nodetypes="cc"
         inkscape:connector-curvature="0"
         id="path14854-5-5"
         d="M 431.50963,290.77505 53.2075,-87.527081"
         style="fill:none;stroke:#00ff00;stroke-width:2;stroke-linecap:butt;stroke-linejoin:miter;stroke-miterlimit:4;stroke-opacity:1;stroke-dasharray:none" />
      <path
         transform="translate(20,-20)"
         clip-path="url(#clipPath17140)"
         sodipodi:nodetypes="cc"
         inkscape:connector-curvature="0"
         id="path14854-23-6"
         d="M 360.79895,361.48572 -17.50318,-16.816403"
         style="fill:none;stroke:#00ff00;stroke-width:2;stroke-linecap:butt;stroke-linejoin:miter;stroke-miterlimit:4;stroke-opacity:1;stroke-dasharray:none" />
      <path
         transform="translate(20,-20)"
         clip-path="url(#clipPath17152)"
         sodipodi:nodetypes="cc"
         inkscape:connector-curvature="0"
         id="path14854-2-0"
         d="M 413.83196,308.45272 35.52983,-69.849412"
         style="fill:none;stroke:#00ff00;stroke-width:2;stroke-linecap:butt;stroke-linejoin:miter;stroke-miterlimit:4;stroke-opacity:1;stroke-dasharray:none" />
      <path
         transform="translate(20,-20)"
         clip-path="url(#clipPath17148)"
         sodipodi:nodetypes="cc"
         inkscape:connector-curvature="0"
         id="path14854-76-2"
         d="M 396.15429,326.13039 17.85216,-52.171742"
         style="fill:none;stroke:#00ff00;stroke-width:2;stroke-linecap:butt;stroke-linejoin:miter;stroke-miterlimit:4;stroke-opacity:1;stroke-dasharray:none" />
      <path
         transform="translate(20,-20)"
         clip-path="url(#clipPath17144)"
         sodipodi:nodetypes="cc"
         inkscape:connector-curvature="0"
         id="path14854-14-8"
         d="M 378.47662,343.80806 0.17449,-34.494073"
         style="fill:none;stroke:#00ff00;stroke-width:2;stroke-linecap:butt;stroke-linejoin:miter;stroke-miterlimit:4;stroke-opacity:1;stroke-dasharray:none" />
      <path
         transform="translate(20,-20)"
         clip-path="url(#clipPath17136)"
         sodipodi:nodetypes="cc"
         inkscape:connector-curvature="0"
         id="path14854-22-0"
         d="M 343.12128,379.16339 -35.180849,0.861267"
         style="fill:none;stroke:#00ff00;stroke-width:2;stroke-linecap:butt;stroke-linejoin:miter;stroke-miterlimit:4;stroke-opacity:1;stroke-dasharray:none" />
      <path
         transform="translate(20,-20)"
         clip-path="url(#clipPath17132)"
         sodipodi:nodetypes="cc"
         inkscape:connector-curvature="0"
         id="path14854-22-1-2"
         d="M 325.44361,396.84106 -52.858519,18.538936"
         style="fill:none;stroke:#00ff00;stroke-width:2;stroke-linecap:butt;stroke-linejoin:miter;stroke-miterlimit:4;stroke-opacity:1;stroke-dasharray:none" />
      <path
         transform="translate(20,-20)"
         clip-path="url(#clipPath17128)"
         sodipodi:nodetypes="cc"
         inkscape:connector-curvature="0"
         id="path14854-22-6-4"
         d="M 519.89797,202.3867 141.59585,-175.91543"
         style="fill:none;stroke:#00ff00;stroke-width:2;stroke-linecap:butt;stroke-linejoin:miter;stroke-miterlimit:4;stroke-opacity:1;stroke-dasharray:none" />
      <path
         transform="translate(20,-20)"
         clip-path="url(#clipPath17124)"
         sodipodi:nodetypes="cc"
         inkscape:connector-curvature="0"
         id="path14854-57-8"
         d="M 307.76594,414.51873 -70.536189,36.21661"
         style="fill:none;stroke:#00ff00;stroke-width:2;stroke-linecap:butt;stroke-linejoin:miter;stroke-miterlimit:4;stroke-opacity:1;stroke-dasharray:none" />
      <path
         transform="translate(20,-20)"
         clip-path="url(#clipPath17120)"
         sodipodi:nodetypes="cc"
         inkscape:connector-curvature="0"
         id="path14854-22-6-1-9"
         d="M 325.44361,396.84106 -52.858519,18.538936"
         style="fill:none;stroke:#00ff00;stroke-width:2;stroke-linecap:butt;stroke-linejoin:miter;stroke-miterlimit:4;stroke-opacity:1;stroke-dasharray:none" />
      <path
         transform="translate(20,-20)"
         clip-path="url(#clipPath17116)"
         sodipodi:nodetypes="cc"
         inkscape:connector-curvature="0"
         id="path14854-22-1-3-7-9"
         d="M 519.9002,202.38447 141.59807,-175.91766"
         style="fill:none;stroke:#00ff00;stroke-width:2;stroke-linecap:butt;stroke-linejoin:miter;stroke-miterlimit:4;stroke-opacity:1;stroke-dasharray:none" />
      <path
         transform="translate(20,-20)"
         clip-path="url(#clipPath17112)"
         sodipodi:nodetypes="cc"
         inkscape:connector-curvature="0"
         id="path14854-3-7"
         d="M 290.11071,432.17397 -88.19142,53.87184"
         style="fill:none;stroke:#00ff00;stroke-width:2;stroke-linecap:butt;stroke-linejoin:miter;stroke-miterlimit:4;stroke-opacity:1;stroke-dasharray:none;display:inline" />
      <path
         transform="translate(20,-20)"
         clip-path="url(#clipPath17108)"
         sodipodi:nodetypes="cc"
         inkscape:connector-curvature="0"
         id="path14854-1-1-8"
         d="M 272.43304,449.85164 -105.86909,71.54951"
         style="fill:none;stroke:#00ff00;stroke-width:2;stroke-linecap:butt;stroke-linejoin:miter;stroke-miterlimit:4;stroke-opacity:1;stroke-dasharray:none;display:inline" />
      <path
         transform="translate(20,-20)"
         clip-path="url(#clipPath17104)"
         sodipodi:nodetypes="cc"
         inkscape:connector-curvature="0"
         id="path14854-7-9-8"
         d="M 254.75537,467.52931 -123.54676,89.22718"
         style="fill:none;stroke:#00ff00;stroke-width:2;stroke-linecap:butt;stroke-linejoin:miter;stroke-miterlimit:4;stroke-opacity:1;stroke-dasharray:none;display:inline" />
      <path
         transform="translate(20,-20)"
         clip-path="url(#clipPath17100)"
         sodipodi:nodetypes="cc"
         inkscape:connector-curvature="0"
         id="path14854-11-86-2"
         d="M 237.0777,485.20698 -141.22443,106.90485"
         style="fill:none;stroke:#00ff00;stroke-width:2;stroke-linecap:butt;stroke-linejoin:miter;stroke-miterlimit:4;stroke-opacity:1;stroke-dasharray:none;display:inline" />
      <path
         transform="translate(20,-20)"
         clip-path="url(#clipPath17096)"
         sodipodi:nodetypes="cc"
         inkscape:connector-curvature="0"
         id="path14854-5-5-9"
         d="M 219.40003,502.88464 -158.9021,124.58252"
         style="fill:none;stroke:#00ff00;stroke-width:2;stroke-linecap:butt;stroke-linejoin:miter;stroke-miterlimit:4;stroke-opacity:1;stroke-dasharray:none;display:inline" />
      <path
         transform="translate(20,-20)"
         clip-path="url(#clipPath17092)"
         sodipodi:nodetypes="cc"
         inkscape:connector-curvature="0"
         id="path14854-2-0-1"
         d="M 201.72236,520.56231 -176.57977,142.26019"
         style="fill:none;stroke:#00ff00;stroke-width:2;stroke-linecap:butt;stroke-linejoin:miter;stroke-miterlimit:4;stroke-opacity:1;stroke-dasharray:none;display:inline" />
      <path
         transform="translate(20,-20)"
         clip-path="url(#clipPath17088)"
         sodipodi:nodetypes="cc"
         inkscape:connector-curvature="0"
         id="path14854-76-2-3"
         d="M 184.04469,538.23998 -194.25744,159.93786"
         style="fill:none;stroke:#00ff00;stroke-width:2;stroke-linecap:butt;stroke-linejoin:miter;stroke-miterlimit:4;stroke-opacity:1;stroke-dasharray:none;display:inline" />
      <path
         transform="translate(20,-20)"
         clip-path="url(#clipPath17084)"
         sodipodi:nodetypes="cc"
         inkscape:connector-curvature="0"
         id="path14854-14-8-5"
         d="M 166.36703,555.91765 -211.9351,177.61552"
         style="fill:none;stroke:#00ff00;stroke-width:2;stroke-linecap:butt;stroke-linejoin:miter;stroke-miterlimit:4;stroke-opacity:1;stroke-dasharray:none;display:inline" />
    </g>
  </g>
  <g
     inkscape:groupmode="layer"
     id="layer3"
     inkscape:label="shield"
     style="display:inline"
     sodipodi:insensitive="true">
    <path
       inkscape:connector-curvature="0"
       sodipodi:nodetypes="ccccsccccc"
       id="path16176"
       d="m 2.06084,2.05145 0,332.89699 c 0,15.96313 12.80539,28.76854 28.76856,28.76854 l 89.37425,0 c 15.96313,0 28.76854,12.80541 28.76854,28.76853 0,-15.96312 12.93323,-28.76853 28.89639,-28.76853 l 77.73898,0 c 15.96313,0 28.76845,-12.80541 28.76854,-28.76854 l 0,-332.89699 z"
       style="fill:none;stroke:#000000;stroke-width:4.0915246;stroke-linejoin:miter;stroke-miterlimit:4;stroke-opacity:1;stroke-dasharray:none;display:inline" />
  </g>
</svg>
