<?xml version="1.0" encoding="UTF-8" standalone="no"?>
<!-- Created with Inkscape (http://www.inkscape.org/) -->

<svg
   xmlns:dc="http://purl.org/dc/elements/1.1/"
   xmlns:cc="http://creativecommons.org/ns#"
   xmlns:rdf="http://www.w3.org/1999/02/22-rdf-syntax-ns#"
   xmlns:svg="http://www.w3.org/2000/svg"
   xmlns="http://www.w3.org/2000/svg"
   xmlns:sodipodi="http://sodipodi.sourceforge.net/DTD/sodipodi-0.dtd"
   xmlns:inkscape="http://www.inkscape.org/namespaces/inkscape"
   width="286.40625"
   height="392.5"
   id="svg3967"
   version="1.1"
   inkscape:version="0.48.2 r9819"
   sodipodi:docname="transversal esquerda para direita.svg">
  <defs
     id="defs3969">
    <clipPath
       clipPathUnits="userSpaceOnUse"
       id="clipPath17264">
      <path
         inkscape:connector-curvature="0"
         sodipodi:nodetypes="ccccsccccc"
         id="path17266"
         d="m 22.06084,22.05145 0,332.89699 c 0,15.96313 12.80539,28.76854 28.76856,28.76854 l 89.37425,0 c 15.96313,0 28.76854,12.80541 28.76854,28.76853 0,-15.96312 12.93323,-28.76853 28.89639,-28.76853 l 77.73898,0 c 15.96313,0 28.76845,-12.80541 28.76854,-28.76854 l 0,-332.89699 z"
         style="fill:#ffffff;fill-opacity:1;fill-rule:evenodd;stroke:#000000;stroke-width:4.0915246;stroke-linejoin:miter;stroke-miterlimit:4;stroke-opacity:1;stroke-dasharray:none;display:inline" />
    </clipPath>
    <clipPath
       clipPathUnits="userSpaceOnUse"
       id="clipPath17268">
      <path
         inkscape:connector-curvature="0"
         sodipodi:nodetypes="ccccsccccc"
         id="path17270"
         d="m 22.06084,22.05145 0,332.89699 c 0,15.96313 12.80539,28.76854 28.76856,28.76854 l 89.37425,0 c 15.96313,0 28.76854,12.80541 28.76854,28.76853 0,-15.96312 12.93323,-28.76853 28.89639,-28.76853 l 77.73898,0 c 15.96313,0 28.76845,-12.80541 28.76854,-28.76854 l 0,-332.89699 z"
         style="fill:#ffffff;fill-opacity:1;fill-rule:evenodd;stroke:#000000;stroke-width:4.0915246;stroke-linejoin:miter;stroke-miterlimit:4;stroke-opacity:1;stroke-dasharray:none;display:inline" />
    </clipPath>
    <clipPath
       clipPathUnits="userSpaceOnUse"
       id="clipPath17272">
      <path
         inkscape:connector-curvature="0"
         sodipodi:nodetypes="ccccsccccc"
         id="path17274"
         d="m 22.06084,22.05145 0,332.89699 c 0,15.96313 12.80539,28.76854 28.76856,28.76854 l 89.37425,0 c 15.96313,0 28.76854,12.80541 28.76854,28.76853 0,-15.96312 12.93323,-28.76853 28.89639,-28.76853 l 77.73898,0 c 15.96313,0 28.76845,-12.80541 28.76854,-28.76854 l 0,-332.89699 z"
         style="fill:#ffffff;fill-opacity:1;fill-rule:evenodd;stroke:#000000;stroke-width:4.0915246;stroke-linejoin:miter;stroke-miterlimit:4;stroke-opacity:1;stroke-dasharray:none;display:inline" />
    </clipPath>
    <clipPath
       clipPathUnits="userSpaceOnUse"
       id="clipPath17276">
      <path
         inkscape:connector-curvature="0"
         sodipodi:nodetypes="ccccsccccc"
         id="path17278"
         d="m 22.06084,22.05145 0,332.89699 c 0,15.96313 12.80539,28.76854 28.76856,28.76854 l 89.37425,0 c 15.96313,0 28.76854,12.80541 28.76854,28.76853 0,-15.96312 12.93323,-28.76853 28.89639,-28.76853 l 77.73898,0 c 15.96313,0 28.76845,-12.80541 28.76854,-28.76854 l 0,-332.89699 z"
         style="fill:#ffffff;fill-opacity:1;fill-rule:evenodd;stroke:#000000;stroke-width:4.0915246;stroke-linejoin:miter;stroke-miterlimit:4;stroke-opacity:1;stroke-dasharray:none;display:inline" />
    </clipPath>
    <clipPath
       clipPathUnits="userSpaceOnUse"
       id="clipPath17280">
      <path
         inkscape:connector-curvature="0"
         sodipodi:nodetypes="ccccsccccc"
         id="path17282"
         d="m 22.06084,22.05145 0,332.89699 c 0,15.96313 12.80539,28.76854 28.76856,28.76854 l 89.37425,0 c 15.96313,0 28.76854,12.80541 28.76854,28.76853 0,-15.96312 12.93323,-28.76853 28.89639,-28.76853 l 77.73898,0 c 15.96313,0 28.76845,-12.80541 28.76854,-28.76854 l 0,-332.89699 z"
         style="fill:#ffffff;fill-opacity:1;fill-rule:evenodd;stroke:#000000;stroke-width:4.0915246;stroke-linejoin:miter;stroke-miterlimit:4;stroke-opacity:1;stroke-dasharray:none;display:inline" />
    </clipPath>
    <clipPath
       clipPathUnits="userSpaceOnUse"
       id="clipPath17284">
      <path
         inkscape:connector-curvature="0"
         sodipodi:nodetypes="ccccsccccc"
         id="path17286"
         d="m 22.06084,22.05145 0,332.89699 c 0,15.96313 12.80539,28.76854 28.76856,28.76854 l 89.37425,0 c 15.96313,0 28.76854,12.80541 28.76854,28.76853 0,-15.96312 12.93323,-28.76853 28.89639,-28.76853 l 77.73898,0 c 15.96313,0 28.76845,-12.80541 28.76854,-28.76854 l 0,-332.89699 z"
         style="fill:#ffffff;fill-opacity:1;fill-rule:evenodd;stroke:#000000;stroke-width:4.0915246;stroke-linejoin:miter;stroke-miterlimit:4;stroke-opacity:1;stroke-dasharray:none;display:inline" />
    </clipPath>
    <clipPath
       clipPathUnits="userSpaceOnUse"
       id="clipPath17288">
      <path
         inkscape:connector-curvature="0"
         sodipodi:nodetypes="ccccsccccc"
         id="path17290"
         d="m 22.06084,22.05145 0,332.89699 c 0,15.96313 12.80539,28.76854 28.76856,28.76854 l 89.37425,0 c 15.96313,0 28.76854,12.80541 28.76854,28.76853 0,-15.96312 12.93323,-28.76853 28.89639,-28.76853 l 77.73898,0 c 15.96313,0 28.76845,-12.80541 28.76854,-28.76854 l 0,-332.89699 z"
         style="fill:#ffffff;fill-opacity:1;fill-rule:evenodd;stroke:#000000;stroke-width:4.0915246;stroke-linejoin:miter;stroke-miterlimit:4;stroke-opacity:1;stroke-dasharray:none;display:inline" />
    </clipPath>
    <clipPath
       clipPathUnits="userSpaceOnUse"
       id="clipPath17292">
      <path
         inkscape:connector-curvature="0"
         sodipodi:nodetypes="ccccsccccc"
         id="path17294"
         d="m 22.06084,22.05145 0,332.89699 c 0,15.96313 12.80539,28.76854 28.76856,28.76854 l 89.37425,0 c 15.96313,0 28.76854,12.80541 28.76854,28.76853 0,-15.96312 12.93323,-28.76853 28.89639,-28.76853 l 77.73898,0 c 15.96313,0 28.76845,-12.80541 28.76854,-28.76854 l 0,-332.89699 z"
         style="fill:#ffffff;fill-opacity:1;fill-rule:evenodd;stroke:#000000;stroke-width:4.0915246;stroke-linejoin:miter;stroke-miterlimit:4;stroke-opacity:1;stroke-dasharray:none;display:inline" />
    </clipPath>
    <clipPath
       clipPathUnits="userSpaceOnUse"
       id="clipPath17296">
      <path
         inkscape:connector-curvature="0"
         sodipodi:nodetypes="ccccsccccc"
         id="path17298"
         d="m 22.06084,22.05145 0,332.89699 c 0,15.96313 12.80539,28.76854 28.76856,28.76854 l 89.37425,0 c 15.96313,0 28.76854,12.80541 28.76854,28.76853 0,-15.96312 12.93323,-28.76853 28.89639,-28.76853 l 77.73898,0 c 15.96313,0 28.76845,-12.80541 28.76854,-28.76854 l 0,-332.89699 z"
         style="fill:#ffffff;fill-opacity:1;fill-rule:evenodd;stroke:#000000;stroke-width:4.0915246;stroke-linejoin:miter;stroke-miterlimit:4;stroke-opacity:1;stroke-dasharray:none;display:inline" />
    </clipPath>
    <clipPath
       clipPathUnits="userSpaceOnUse"
       id="clipPath17300">
      <path
         inkscape:connector-curvature="0"
         sodipodi:nodetypes="ccccsccccc"
         id="path17302"
         d="m 22.06084,22.05145 0,332.89699 c 0,15.96313 12.80539,28.76854 28.76856,28.76854 l 89.37425,0 c 15.96313,0 28.76854,12.80541 28.76854,28.76853 0,-15.96312 12.93323,-28.76853 28.89639,-28.76853 l 77.73898,0 c 15.96313,0 28.76845,-12.80541 28.76854,-28.76854 l 0,-332.89699 z"
         style="fill:#ffffff;fill-opacity:1;fill-rule:evenodd;stroke:#000000;stroke-width:4.0915246;stroke-linejoin:miter;stroke-miterlimit:4;stroke-opacity:1;stroke-dasharray:none;display:inline" />
    </clipPath>
    <clipPath
       clipPathUnits="userSpaceOnUse"
       id="clipPath17304">
      <path
         inkscape:connector-curvature="0"
         sodipodi:nodetypes="ccccsccccc"
         id="path17306"
         d="m 22.06084,22.05145 0,332.89699 c 0,15.96313 12.80539,28.76854 28.76856,28.76854 l 89.37425,0 c 15.96313,0 28.76854,12.80541 28.76854,28.76853 0,-15.96312 12.93323,-28.76853 28.89639,-28.76853 l 77.73898,0 c 15.96313,0 28.76845,-12.80541 28.76854,-28.76854 l 0,-332.89699 z"
         style="fill:#ffffff;fill-opacity:1;fill-rule:evenodd;stroke:#000000;stroke-width:4.0915246;stroke-linejoin:miter;stroke-miterlimit:4;stroke-opacity:1;stroke-dasharray:none;display:inline" />
    </clipPath>
    <clipPath
       clipPathUnits="userSpaceOnUse"
       id="clipPath17308">
      <path
         inkscape:connector-curvature="0"
         sodipodi:nodetypes="ccccsccccc"
         id="path17310"
         d="m 22.06084,22.05145 0,332.89699 c 0,15.96313 12.80539,28.76854 28.76856,28.76854 l 89.37425,0 c 15.96313,0 28.76854,12.80541 28.76854,28.76853 0,-15.96312 12.93323,-28.76853 28.89639,-28.76853 l 77.73898,0 c 15.96313,0 28.76845,-12.80541 28.76854,-28.76854 l 0,-332.89699 z"
         style="fill:#ffffff;fill-opacity:1;fill-rule:evenodd;stroke:#000000;stroke-width:4.0915246;stroke-linejoin:miter;stroke-miterlimit:4;stroke-opacity:1;stroke-dasharray:none;display:inline" />
    </clipPath>
    <clipPath
       clipPathUnits="userSpaceOnUse"
       id="clipPath17312">
      <path
         inkscape:connector-curvature="0"
         sodipodi:nodetypes="ccccsccccc"
         id="path17314"
         d="m 22.06084,22.05145 0,332.89699 c 0,15.96313 12.80539,28.76854 28.76856,28.76854 l 89.37425,0 c 15.96313,0 28.76854,12.80541 28.76854,28.76853 0,-15.96312 12.93323,-28.76853 28.89639,-28.76853 l 77.73898,0 c 15.96313,0 28.76845,-12.80541 28.76854,-28.76854 l 0,-332.89699 z"
         style="fill:#ffffff;fill-opacity:1;fill-rule:evenodd;stroke:#000000;stroke-width:4.0915246;stroke-linejoin:miter;stroke-miterlimit:4;stroke-opacity:1;stroke-dasharray:none;display:inline" />
    </clipPath>
    <clipPath
       clipPathUnits="userSpaceOnUse"
       id="clipPath17316">
      <path
         inkscape:connector-curvature="0"
         sodipodi:nodetypes="ccccsccccc"
         id="path17318"
         d="m 22.06084,22.05145 0,332.89699 c 0,15.96313 12.80539,28.76854 28.76856,28.76854 l 89.37425,0 c 15.96313,0 28.76854,12.80541 28.76854,28.76853 0,-15.96312 12.93323,-28.76853 28.89639,-28.76853 l 77.73898,0 c 15.96313,0 28.76845,-12.80541 28.76854,-28.76854 l 0,-332.89699 z"
         style="fill:#ffffff;fill-opacity:1;fill-rule:evenodd;stroke:#000000;stroke-width:4.0915246;stroke-linejoin:miter;stroke-miterlimit:4;stroke-opacity:1;stroke-dasharray:none;display:inline" />
    </clipPath>
    <clipPath
       clipPathUnits="userSpaceOnUse"
       id="clipPath17320">
      <path
         inkscape:connector-curvature="0"
         sodipodi:nodetypes="ccccsccccc"
         id="path17322"
         d="m 22.06084,22.05145 0,332.89699 c 0,15.96313 12.80539,28.76854 28.76856,28.76854 l 89.37425,0 c 15.96313,0 28.76854,12.80541 28.76854,28.76853 0,-15.96312 12.93323,-28.76853 28.89639,-28.76853 l 77.73898,0 c 15.96313,0 28.76845,-12.80541 28.76854,-28.76854 l 0,-332.89699 z"
         style="fill:#ffffff;fill-opacity:1;fill-rule:evenodd;stroke:#000000;stroke-width:4.0915246;stroke-linejoin:miter;stroke-miterlimit:4;stroke-opacity:1;stroke-dasharray:none;display:inline" />
    </clipPath>
    <clipPath
       clipPathUnits="userSpaceOnUse"
       id="clipPath17324">
      <path
         inkscape:connector-curvature="0"
         sodipodi:nodetypes="ccccsccccc"
         id="path17326"
         d="m 22.06084,22.05145 0,332.89699 c 0,15.96313 12.80539,28.76854 28.76856,28.76854 l 89.37425,0 c 15.96313,0 28.76854,12.80541 28.76854,28.76853 0,-15.96312 12.93323,-28.76853 28.89639,-28.76853 l 77.73898,0 c 15.96313,0 28.76845,-12.80541 28.76854,-28.76854 l 0,-332.89699 z"
         style="fill:#ffffff;fill-opacity:1;fill-rule:evenodd;stroke:#000000;stroke-width:4.0915246;stroke-linejoin:miter;stroke-miterlimit:4;stroke-opacity:1;stroke-dasharray:none;display:inline" />
    </clipPath>
    <clipPath
       clipPathUnits="userSpaceOnUse"
       id="clipPath17328">
      <path
         inkscape:connector-curvature="0"
         sodipodi:nodetypes="ccccsccccc"
         id="path17330"
         d="m 22.06084,22.05145 0,332.89699 c 0,15.96313 12.80539,28.76854 28.76856,28.76854 l 89.37425,0 c 15.96313,0 28.76854,12.80541 28.76854,28.76853 0,-15.96312 12.93323,-28.76853 28.89639,-28.76853 l 77.73898,0 c 15.96313,0 28.76845,-12.80541 28.76854,-28.76854 l 0,-332.89699 z"
         style="fill:#ffffff;fill-opacity:1;fill-rule:evenodd;stroke:#000000;stroke-width:4.0915246;stroke-linejoin:miter;stroke-miterlimit:4;stroke-opacity:1;stroke-dasharray:none;display:inline" />
    </clipPath>
    <clipPath
       clipPathUnits="userSpaceOnUse"
       id="clipPath17332">
      <path
         inkscape:connector-curvature="0"
         sodipodi:nodetypes="ccccsccccc"
         id="path17334"
         d="m 22.06084,22.05145 0,332.89699 c 0,15.96313 12.80539,28.76854 28.76856,28.76854 l 89.37425,0 c 15.96313,0 28.76854,12.80541 28.76854,28.76853 0,-15.96312 12.93323,-28.76853 28.89639,-28.76853 l 77.73898,0 c 15.96313,0 28.76845,-12.80541 28.76854,-28.76854 l 0,-332.89699 z"
         style="fill:#ffffff;fill-opacity:1;fill-rule:evenodd;stroke:#000000;stroke-width:4.0915246;stroke-linejoin:miter;stroke-miterlimit:4;stroke-opacity:1;stroke-dasharray:none;display:inline" />
    </clipPath>
    <clipPath
       clipPathUnits="userSpaceOnUse"
       id="clipPath17336">
      <path
         inkscape:connector-curvature="0"
         sodipodi:nodetypes="ccccsccccc"
         id="path17338"
         d="m 22.06084,22.05145 0,332.89699 c 0,15.96313 12.80539,28.76854 28.76856,28.76854 l 89.37425,0 c 15.96313,0 28.76854,12.80541 28.76854,28.76853 0,-15.96312 12.93323,-28.76853 28.89639,-28.76853 l 77.73898,0 c 15.96313,0 28.76845,-12.80541 28.76854,-28.76854 l 0,-332.89699 z"
         style="fill:#ffffff;fill-opacity:1;fill-rule:evenodd;stroke:#000000;stroke-width:4.0915246;stroke-linejoin:miter;stroke-miterlimit:4;stroke-opacity:1;stroke-dasharray:none;display:inline" />
    </clipPath>
    <clipPath
       clipPathUnits="userSpaceOnUse"
       id="clipPath17340">
      <path
         inkscape:connector-curvature="0"
         sodipodi:nodetypes="ccccsccccc"
         id="path17342"
         d="m 22.06084,22.05145 0,332.89699 c 0,15.96313 12.80539,28.76854 28.76856,28.76854 l 89.37425,0 c 15.96313,0 28.76854,12.80541 28.76854,28.76853 0,-15.96312 12.93323,-28.76853 28.89639,-28.76853 l 77.73898,0 c 15.96313,0 28.76845,-12.80541 28.76854,-28.76854 l 0,-332.89699 z"
         style="fill:#ffffff;fill-opacity:1;fill-rule:evenodd;stroke:#000000;stroke-width:4.0915246;stroke-linejoin:miter;stroke-miterlimit:4;stroke-opacity:1;stroke-dasharray:none;display:inline" />
    </clipPath>
    <clipPath
       clipPathUnits="userSpaceOnUse"
       id="clipPath17344">
      <path
         inkscape:connector-curvature="0"
         sodipodi:nodetypes="ccccsccccc"
         id="path17346"
         d="m 22.06084,22.05145 0,332.89699 c 0,15.96313 12.80539,28.76854 28.76856,28.76854 l 89.37425,0 c 15.96313,0 28.76854,12.80541 28.76854,28.76853 0,-15.96312 12.93323,-28.76853 28.89639,-28.76853 l 77.73898,0 c 15.96313,0 28.76845,-12.80541 28.76854,-28.76854 l 0,-332.89699 z"
         style="fill:#ffffff;fill-opacity:1;fill-rule:evenodd;stroke:#000000;stroke-width:4.0915246;stroke-linejoin:miter;stroke-miterlimit:4;stroke-opacity:1;stroke-dasharray:none;display:inline" />
    </clipPath>
    <clipPath
       clipPathUnits="userSpaceOnUse"
       id="clipPath17348">
      <path
         inkscape:connector-curvature="0"
         sodipodi:nodetypes="ccccsccccc"
         id="path17350"
         d="m 22.06084,22.05145 0,332.89699 c 0,15.96313 12.80539,28.76854 28.76856,28.76854 l 89.37425,0 c 15.96313,0 28.76854,12.80541 28.76854,28.76853 0,-15.96312 12.93323,-28.76853 28.89639,-28.76853 l 77.73898,0 c 15.96313,0 28.76845,-12.80541 28.76854,-28.76854 l 0,-332.89699 z"
         style="fill:#ffffff;fill-opacity:1;fill-rule:evenodd;stroke:#000000;stroke-width:4.0915246;stroke-linejoin:miter;stroke-miterlimit:4;stroke-opacity:1;stroke-dasharray:none;display:inline" />
    </clipPath>
    <clipPath
       clipPathUnits="userSpaceOnUse"
       id="clipPath17352">
      <path
         inkscape:connector-curvature="0"
         sodipodi:nodetypes="ccccsccccc"
         id="path17354"
         d="m 22.06084,22.05145 0,332.89699 c 0,15.96313 12.80539,28.76854 28.76856,28.76854 l 89.37425,0 c 15.96313,0 28.76854,12.80541 28.76854,28.76853 0,-15.96312 12.93323,-28.76853 28.89639,-28.76853 l 77.73898,0 c 15.96313,0 28.76845,-12.80541 28.76854,-28.76854 l 0,-332.89699 z"
         style="fill:#ffffff;fill-opacity:1;fill-rule:evenodd;stroke:#000000;stroke-width:4.0915246;stroke-linejoin:miter;stroke-miterlimit:4;stroke-opacity:1;stroke-dasharray:none;display:inline" />
    </clipPath>
  </defs>
  <sodipodi:namedview
     id="base"
     pagecolor="#ffffff"
     bordercolor="#666666"
     borderopacity="1.0"
     inkscape:pageopacity="0.0"
     inkscape:pageshadow="2"
     inkscape:zoom="1.0887304"
     inkscape:cx="298.34398"
     inkscape:cy="101.8948"
     inkscape:document-units="px"
     inkscape:current-layer="layer2"
     showgrid="false"
     fit-margin-top="0"
     fit-margin-left="0"
     fit-margin-right="0"
     fit-margin-bottom="0"
     inkscape:window-width="1920"
     inkscape:window-height="955"
     inkscape:window-x="-9"
     inkscape:window-y="-9"
     inkscape:window-maximized="1"
     showguides="true"
     inkscape:guide-bbox="true"
     inkscape:snap-global="false">
    <inkscape:grid
       type="xygrid"
       id="grid14852" />
  </sodipodi:namedview>
  <metadata
     id="metadata3972">
    <rdf:RDF>
      <cc:Work
         rdf:about="">
        <dc:format>image/svg+xml</dc:format>
        <dc:type
           rdf:resource="http://purl.org/dc/dcmitype/StillImage" />
        <dc:title></dc:title>
      </cc:Work>
    </rdf:RDF>
  </metadata>
  <g
     inkscape:groupmode="layer"
     id="layer3"
     inkscape:label="shield"
     style="display:inline"
     sodipodi:insensitive="true">
    <path
       inkscape:connector-curvature="0"
       sodipodi:nodetypes="ccccsccccc"
       id="path16176"
       d="m 2.06084,2.05145 0,332.89699 c 0,15.96313 12.80539,28.76854 28.76856,28.76854 l 89.37425,0 c 15.96313,0 28.76854,12.80541 28.76854,28.76853 0,-15.96312 12.93323,-28.76853 28.89639,-28.76853 l 77.73898,0 c 15.96313,0 28.76845,-12.80541 28.76854,-28.76854 l 0,-332.89699 z"
       style="fill:#ffffff;fill-opacity:1;fill-rule:evenodd;stroke:#000000;stroke-width:4.0915246;stroke-linejoin:miter;stroke-miterlimit:4;stroke-opacity:1;stroke-dasharray:none;display:inline" />
  </g>
  <g
     inkscape:groupmode="layer"
     id="layer2"
     inkscape:label="pattern"
     style="display:inline">
    <path
       style="fill:none;stroke:#ff00ff;stroke-width:2;stroke-linecap:butt;stroke-linejoin:miter;stroke-miterlimit:4;stroke-opacity:1;stroke-dasharray:none"
       d="M -194.2552,220.06437 184.04692,-158.23776"
       id="path14854-3"
       inkscape:connector-curvature="0"
       sodipodi:nodetypes="cc"
       clip-path="url(#clipPath17352)"
       transform="translate(-20,-20)" />
    <path
       style="fill:none;stroke:#ff00ff;stroke-width:2;stroke-linecap:butt;stroke-linejoin:miter;stroke-miterlimit:4;stroke-opacity:1;stroke-dasharray:none"
       d="M -176.57753,237.74204 201.72459,-140.56009"
       id="path14854-1-1"
       inkscape:connector-curvature="0"
       sodipodi:nodetypes="cc"
       clip-path="url(#clipPath17348)"
       transform="translate(-20,-20)" />
    <path
       style="fill:none;stroke:#ff00ff;stroke-width:2;stroke-linecap:butt;stroke-linejoin:miter;stroke-miterlimit:4;stroke-opacity:1;stroke-dasharray:none"
       d="M -158.89987,255.41971 219.40226,-122.88242"
       id="path14854-7-9"
       inkscape:connector-curvature="0"
       sodipodi:nodetypes="cc"
       clip-path="url(#clipPath17344)"
       transform="translate(-20,-20)" />
    <path
       style="fill:none;stroke:#ff00ff;stroke-width:2;stroke-linecap:butt;stroke-linejoin:miter;stroke-miterlimit:4;stroke-opacity:1;stroke-dasharray:none"
       d="M -141.2222,273.09738 237.07993,-105.20475"
       id="path14854-11-86"
       inkscape:connector-curvature="0"
       sodipodi:nodetypes="cc"
       clip-path="url(#clipPath17340)"
       transform="translate(-20,-20)" />
    <path
       style="fill:none;stroke:#ff00ff;stroke-width:2;stroke-linecap:butt;stroke-linejoin:miter;stroke-miterlimit:4;stroke-opacity:1;stroke-dasharray:none"
       d="M -123.54453,290.77505 254.7576,-87.527081"
       id="path14854-5-5"
       inkscape:connector-curvature="0"
       sodipodi:nodetypes="cc"
       clip-path="url(#clipPath17336)"
       transform="translate(-20,-20)" />
    <path
       style="fill:none;stroke:#ff00ff;stroke-width:2;stroke-linecap:butt;stroke-linejoin:miter;stroke-miterlimit:4;stroke-opacity:1;stroke-dasharray:none"
       d="M -105.86686,308.45272 272.43527,-69.849412"
       id="path14854-2-0"
       inkscape:connector-curvature="0"
       sodipodi:nodetypes="cc"
       clip-path="url(#clipPath17332)"
       transform="translate(-20,-20)" />
    <path
       style="fill:none;stroke:#ff00ff;stroke-width:2;stroke-linecap:butt;stroke-linejoin:miter;stroke-miterlimit:4;stroke-opacity:1;stroke-dasharray:none"
       d="M -88.18919,326.13039 290.11294,-52.171742"
       id="path14854-76-2"
       inkscape:connector-curvature="0"
       sodipodi:nodetypes="cc"
       clip-path="url(#clipPath17328)"
       transform="translate(-20,-20)" />
    <path
       style="fill:none;stroke:#ff00ff;stroke-width:2;stroke-linecap:butt;stroke-linejoin:miter;stroke-miterlimit:4;stroke-opacity:1;stroke-dasharray:none"
       d="M -70.51152,343.80806 307.79061,-34.494073"
       id="path14854-14-8"
       inkscape:connector-curvature="0"
       sodipodi:nodetypes="cc"
       clip-path="url(#clipPath17324)"
       transform="translate(-20,-20)" />
    <path
       style="fill:none;stroke:#ff00ff;stroke-width:2;stroke-linecap:butt;stroke-linejoin:miter;stroke-miterlimit:4;stroke-opacity:1;stroke-dasharray:none"
       d="M -52.83385,361.48572 325.46828,-16.816403"
       id="path14854-23-6"
       inkscape:connector-curvature="0"
       sodipodi:nodetypes="cc"
       clip-path="url(#clipPath17320)"
       transform="translate(-20,-20)" />
    <path
       style="fill:none;stroke:#ff00ff;stroke-width:2;stroke-linecap:butt;stroke-linejoin:miter;stroke-miterlimit:4;stroke-opacity:1;stroke-dasharray:none"
       d="M -35.15618,379.16339 343.14595,0.861267"
       id="path14854-22-0"
       inkscape:connector-curvature="0"
       sodipodi:nodetypes="cc"
       clip-path="url(#clipPath17316)"
       transform="translate(-20,-20)" />
    <path
       style="fill:none;stroke:#ff00ff;stroke-width:2;stroke-linecap:butt;stroke-linejoin:miter;stroke-miterlimit:4;stroke-opacity:1;stroke-dasharray:none"
       d="M -17.47851,396.84106 360.82362,18.538936"
       id="path14854-22-1-2"
       inkscape:connector-curvature="0"
       sodipodi:nodetypes="cc"
       clip-path="url(#clipPath17312)"
       transform="translate(-20,-20)" />
    <path
       style="fill:none;stroke:#ff00ff;stroke-width:2;stroke-linecap:butt;stroke-linejoin:miter;stroke-miterlimit:4;stroke-opacity:1;stroke-dasharray:none"
       d="M -211.93287,202.3867 166.36925,-175.91543"
       id="path14854-22-6-4"
       inkscape:connector-curvature="0"
       sodipodi:nodetypes="cc"
       clip-path="url(#clipPath17308)"
       transform="translate(-20,-20)" />
    <path
       style="fill:none;stroke:#ff00ff;stroke-width:2;stroke-linecap:butt;stroke-linejoin:miter;stroke-miterlimit:4;stroke-opacity:1;stroke-dasharray:none"
       d="M 0.19916,414.51873 378.50129,36.21661"
       id="path14854-57-8"
       inkscape:connector-curvature="0"
       sodipodi:nodetypes="cc"
       clip-path="url(#clipPath17304)"
       transform="translate(-20,-20)" />
    <path
       style="fill:none;stroke:#ff00ff;stroke-width:2;stroke-linecap:butt;stroke-linejoin:miter;stroke-miterlimit:4;stroke-opacity:1;stroke-dasharray:none"
       d="M -17.47851,396.84106 360.82362,18.538936"
       id="path14854-22-6-1-9"
       inkscape:connector-curvature="0"
       sodipodi:nodetypes="cc"
       clip-path="url(#clipPath17300)"
       transform="translate(-20,-20)" />
    <path
       style="fill:none;stroke:#ff00ff;stroke-width:2;stroke-linecap:butt;stroke-linejoin:miter;stroke-miterlimit:4;stroke-opacity:1;stroke-dasharray:none"
       d="M -211.9351,202.38447 166.36703,-175.91766"
       id="path14854-22-1-3-7-9"
       inkscape:connector-curvature="0"
       sodipodi:nodetypes="cc"
       clip-path="url(#clipPath17296)"
       transform="translate(-20,-20)" />
    <path
       style="fill:none;stroke:#ff00ff;stroke-width:2;stroke-linecap:butt;stroke-linejoin:miter;stroke-miterlimit:4;stroke-opacity:1;stroke-dasharray:none;display:inline"
       d="M 17.85439,432.17397 396.15652,53.87184"
       id="path14854-3-7"
       inkscape:connector-curvature="0"
       sodipodi:nodetypes="cc"
       clip-path="url(#clipPath17292)"
       transform="translate(-20,-20)" />
    <path
       style="fill:none;stroke:#ff00ff;stroke-width:2;stroke-linecap:butt;stroke-linejoin:miter;stroke-miterlimit:4;stroke-opacity:1;stroke-dasharray:none;display:inline"
       d="M 35.53206,449.85164 413.83419,71.54951"
       id="path14854-1-1-8"
       inkscape:connector-curvature="0"
       sodipodi:nodetypes="cc"
       clip-path="url(#clipPath17288)"
       transform="translate(-20,-20)" />
    <path
       style="fill:none;stroke:#ff00ff;stroke-width:2;stroke-linecap:butt;stroke-linejoin:miter;stroke-miterlimit:4;stroke-opacity:1;stroke-dasharray:none;display:inline"
       d="M 53.20973,467.52931 431.51186,89.22718"
       id="path14854-7-9-8"
       inkscape:connector-curvature="0"
       sodipodi:nodetypes="cc"
       clip-path="url(#clipPath17284)"
       transform="translate(-20,-20)" />
    <path
       style="fill:none;stroke:#ff00ff;stroke-width:2;stroke-linecap:butt;stroke-linejoin:miter;stroke-miterlimit:4;stroke-opacity:1;stroke-dasharray:none;display:inline"
       d="M 70.8874,485.20698 449.18953,106.90485"
       id="path14854-11-86-2"
       inkscape:connector-curvature="0"
       sodipodi:nodetypes="cc"
       clip-path="url(#clipPath17280)"
       transform="translate(-20,-20)" />
    <path
       style="fill:none;stroke:#ff00ff;stroke-width:2;stroke-linecap:butt;stroke-linejoin:miter;stroke-miterlimit:4;stroke-opacity:1;stroke-dasharray:none;display:inline"
       d="M 88.56507,502.88464 466.8672,124.58252"
       id="path14854-5-5-9"
       inkscape:connector-curvature="0"
       sodipodi:nodetypes="cc"
       clip-path="url(#clipPath17276)"
       transform="translate(-20,-20)" />
    <path
       style="fill:none;stroke:#ff00ff;stroke-width:2;stroke-linecap:butt;stroke-linejoin:miter;stroke-miterlimit:4;stroke-opacity:1;stroke-dasharray:none;display:inline"
       d="M 106.24274,520.56231 484.54487,142.26019"
       id="path14854-2-0-1"
       inkscape:connector-curvature="0"
       sodipodi:nodetypes="cc"
       clip-path="url(#clipPath17272)"
       transform="translate(-20,-20)" />
    <path
       style="fill:none;stroke:#ff00ff;stroke-width:2;stroke-linecap:butt;stroke-linejoin:miter;stroke-miterlimit:4;stroke-opacity:1;stroke-dasharray:none;display:inline"
       d="M 123.92041,538.23998 502.22254,159.93786"
       id="path14854-76-2-3"
       inkscape:connector-curvature="0"
       sodipodi:nodetypes="cc"
       clip-path="url(#clipPath17268)"
       transform="translate(-20,-20)" />
    <path
       style="fill:none;stroke:#ff00ff;stroke-width:2;stroke-linecap:butt;stroke-linejoin:miter;stroke-miterlimit:4;stroke-opacity:1;stroke-dasharray:none;display:inline"
       d="M 141.59807,555.91765 519.9002,177.61552"
       id="path14854-14-8-5"
       inkscape:connector-curvature="0"
       sodipodi:nodetypes="cc"
       clip-path="url(#clipPath17264)"
       transform="translate(-20,-20)" />
  </g>
</svg>
