<?xml version="1.0" encoding="UTF-8" standalone="no"?>
<!-- Created with Inkscape (http://www.inkscape.org/) -->

<svg
   xmlns:dc="http://purl.org/dc/elements/1.1/"
   xmlns:cc="http://creativecommons.org/ns#"
   xmlns:rdf="http://www.w3.org/1999/02/22-rdf-syntax-ns#"
   xmlns:svg="http://www.w3.org/2000/svg"
   xmlns="http://www.w3.org/2000/svg"
   xmlns:sodipodi="http://sodipodi.sourceforge.net/DTD/sodipodi-0.dtd"
   xmlns:inkscape="http://www.inkscape.org/namespaces/inkscape"
   width="286.40625"
   height="392.5"
   id="svg3967"
   version="1.1"
   inkscape:version="0.48.2 r9819"
   sodipodi:docname="vertical.svg">
  <defs
     id="defs3969">
    <clipPath
       clipPathUnits="userSpaceOnUse"
       id="clipPath16746">
      <path
         inkscape:connector-curvature="0"
         sodipodi:nodetypes="ccccsccccc"
         id="path16748"
         d="m 2.06084,2.05145 0,332.89699 c 0,15.96313 12.80539,28.76854 28.76856,28.76854 l 89.37425,0 c 15.96313,0 28.76854,12.80541 28.76854,28.76853 0,-15.96312 12.93323,-28.76853 28.89639,-28.76853 l 77.73898,0 c 15.96313,0 28.76845,-12.80541 28.76854,-28.76854 l 0,-332.89699 z"
         style="fill:#ffffff;fill-opacity:1;fill-rule:evenodd;stroke:#0000ff;stroke-width:4.0915246;stroke-linejoin:miter;stroke-miterlimit:4;stroke-opacity:1;stroke-dasharray:none;display:inline" />
    </clipPath>
    <clipPath
       clipPathUnits="userSpaceOnUse"
       id="clipPath16750">
      <path
         inkscape:connector-curvature="0"
         sodipodi:nodetypes="ccccsccccc"
         id="path16752"
         d="m 2.06084,2.05145 0,332.89699 c 0,15.96313 12.80539,28.76854 28.76856,28.76854 l 89.37425,0 c 15.96313,0 28.76854,12.80541 28.76854,28.76853 0,-15.96312 12.93323,-28.76853 28.89639,-28.76853 l 77.73898,0 c 15.96313,0 28.76845,-12.80541 28.76854,-28.76854 l 0,-332.89699 z"
         style="fill:#ffffff;fill-opacity:1;fill-rule:evenodd;stroke:#0000ff;stroke-width:4.0915246;stroke-linejoin:miter;stroke-miterlimit:4;stroke-opacity:1;stroke-dasharray:none;display:inline" />
    </clipPath>
    <clipPath
       clipPathUnits="userSpaceOnUse"
       id="clipPath16754">
      <path
         inkscape:connector-curvature="0"
         sodipodi:nodetypes="ccccsccccc"
         id="path16756"
         d="m 2.06084,2.05145 0,332.89699 c 0,15.96313 12.80539,28.76854 28.76856,28.76854 l 89.37425,0 c 15.96313,0 28.76854,12.80541 28.76854,28.76853 0,-15.96312 12.93323,-28.76853 28.89639,-28.76853 l 77.73898,0 c 15.96313,0 28.76845,-12.80541 28.76854,-28.76854 l 0,-332.89699 z"
         style="fill:#ffffff;fill-opacity:1;fill-rule:evenodd;stroke:#0000ff;stroke-width:4.0915246;stroke-linejoin:miter;stroke-miterlimit:4;stroke-opacity:1;stroke-dasharray:none;display:inline" />
    </clipPath>
    <clipPath
       clipPathUnits="userSpaceOnUse"
       id="clipPath16758">
      <path
         inkscape:connector-curvature="0"
         sodipodi:nodetypes="ccccsccccc"
         id="path16760"
         d="m 2.06084,2.05145 0,332.89699 c 0,15.96313 12.80539,28.76854 28.76856,28.76854 l 89.37425,0 c 15.96313,0 28.76854,12.80541 28.76854,28.76853 0,-15.96312 12.93323,-28.76853 28.89639,-28.76853 l 77.73898,0 c 15.96313,0 28.76845,-12.80541 28.76854,-28.76854 l 0,-332.89699 z"
         style="fill:#ffffff;fill-opacity:1;fill-rule:evenodd;stroke:#0000ff;stroke-width:4.0915246;stroke-linejoin:miter;stroke-miterlimit:4;stroke-opacity:1;stroke-dasharray:none;display:inline" />
    </clipPath>
    <clipPath
       clipPathUnits="userSpaceOnUse"
       id="clipPath16762">
      <path
         inkscape:connector-curvature="0"
         sodipodi:nodetypes="ccccsccccc"
         id="path16764"
         d="m 2.06084,2.05145 0,332.89699 c 0,15.96313 12.80539,28.76854 28.76856,28.76854 l 89.37425,0 c 15.96313,0 28.76854,12.80541 28.76854,28.76853 0,-15.96312 12.93323,-28.76853 28.89639,-28.76853 l 77.73898,0 c 15.96313,0 28.76845,-12.80541 28.76854,-28.76854 l 0,-332.89699 z"
         style="fill:#ffffff;fill-opacity:1;fill-rule:evenodd;stroke:#0000ff;stroke-width:4.0915246;stroke-linejoin:miter;stroke-miterlimit:4;stroke-opacity:1;stroke-dasharray:none;display:inline" />
    </clipPath>
    <clipPath
       clipPathUnits="userSpaceOnUse"
       id="clipPath16766">
      <path
         inkscape:connector-curvature="0"
         sodipodi:nodetypes="ccccsccccc"
         id="path16768"
         d="m 2.06084,2.05145 0,332.89699 c 0,15.96313 12.80539,28.76854 28.76856,28.76854 l 89.37425,0 c 15.96313,0 28.76854,12.80541 28.76854,28.76853 0,-15.96312 12.93323,-28.76853 28.89639,-28.76853 l 77.73898,0 c 15.96313,0 28.76845,-12.80541 28.76854,-28.76854 l 0,-332.89699 z"
         style="fill:#ffffff;fill-opacity:1;fill-rule:evenodd;stroke:#0000ff;stroke-width:4.0915246;stroke-linejoin:miter;stroke-miterlimit:4;stroke-opacity:1;stroke-dasharray:none;display:inline" />
    </clipPath>
    <clipPath
       clipPathUnits="userSpaceOnUse"
       id="clipPath16770">
      <path
         inkscape:connector-curvature="0"
         sodipodi:nodetypes="ccccsccccc"
         id="path16772"
         d="m 2.06084,2.05145 0,332.89699 c 0,15.96313 12.80539,28.76854 28.76856,28.76854 l 89.37425,0 c 15.96313,0 28.76854,12.80541 28.76854,28.76853 0,-15.96312 12.93323,-28.76853 28.89639,-28.76853 l 77.73898,0 c 15.96313,0 28.76845,-12.80541 28.76854,-28.76854 l 0,-332.89699 z"
         style="fill:#ffffff;fill-opacity:1;fill-rule:evenodd;stroke:#0000ff;stroke-width:4.0915246;stroke-linejoin:miter;stroke-miterlimit:4;stroke-opacity:1;stroke-dasharray:none;display:inline" />
    </clipPath>
    <clipPath
       clipPathUnits="userSpaceOnUse"
       id="clipPath16774">
      <path
         inkscape:connector-curvature="0"
         sodipodi:nodetypes="ccccsccccc"
         id="path16776"
         d="m 2.06084,2.05145 0,332.89699 c 0,15.96313 12.80539,28.76854 28.76856,28.76854 l 89.37425,0 c 15.96313,0 28.76854,12.80541 28.76854,28.76853 0,-15.96312 12.93323,-28.76853 28.89639,-28.76853 l 77.73898,0 c 15.96313,0 28.76845,-12.80541 28.76854,-28.76854 l 0,-332.89699 z"
         style="fill:#ffffff;fill-opacity:1;fill-rule:evenodd;stroke:#0000ff;stroke-width:4.0915246;stroke-linejoin:miter;stroke-miterlimit:4;stroke-opacity:1;stroke-dasharray:none;display:inline" />
    </clipPath>
    <clipPath
       clipPathUnits="userSpaceOnUse"
       id="clipPath16778">
      <path
         inkscape:connector-curvature="0"
         sodipodi:nodetypes="ccccsccccc"
         id="path16780"
         d="m 2.06084,2.05145 0,332.89699 c 0,15.96313 12.80539,28.76854 28.76856,28.76854 l 89.37425,0 c 15.96313,0 28.76854,12.80541 28.76854,28.76853 0,-15.96312 12.93323,-28.76853 28.89639,-28.76853 l 77.73898,0 c 15.96313,0 28.76845,-12.80541 28.76854,-28.76854 l 0,-332.89699 z"
         style="fill:#ffffff;fill-opacity:1;fill-rule:evenodd;stroke:#0000ff;stroke-width:4.0915246;stroke-linejoin:miter;stroke-miterlimit:4;stroke-opacity:1;stroke-dasharray:none;display:inline" />
    </clipPath>
    <clipPath
       clipPathUnits="userSpaceOnUse"
       id="clipPath16782">
      <path
         inkscape:connector-curvature="0"
         sodipodi:nodetypes="ccccsccccc"
         id="path16784"
         d="m 2.06084,2.05145 0,332.89699 c 0,15.96313 12.80539,28.76854 28.76856,28.76854 l 89.37425,0 c 15.96313,0 28.76854,12.80541 28.76854,28.76853 0,-15.96312 12.93323,-28.76853 28.89639,-28.76853 l 77.73898,0 c 15.96313,0 28.76845,-12.80541 28.76854,-28.76854 l 0,-332.89699 z"
         style="fill:#ffffff;fill-opacity:1;fill-rule:evenodd;stroke:#0000ff;stroke-width:4.0915246;stroke-linejoin:miter;stroke-miterlimit:4;stroke-opacity:1;stroke-dasharray:none;display:inline" />
    </clipPath>
    <clipPath
       clipPathUnits="userSpaceOnUse"
       id="clipPath16786">
      <path
         inkscape:connector-curvature="0"
         sodipodi:nodetypes="ccccsccccc"
         id="path16788"
         d="m 2.06084,2.05145 0,332.89699 c 0,15.96313 12.80539,28.76854 28.76856,28.76854 l 89.37425,0 c 15.96313,0 28.76854,12.80541 28.76854,28.76853 0,-15.96312 12.93323,-28.76853 28.89639,-28.76853 l 77.73898,0 c 15.96313,0 28.76845,-12.80541 28.76854,-28.76854 l 0,-332.89699 z"
         style="fill:#ffffff;fill-opacity:1;fill-rule:evenodd;stroke:#0000ff;stroke-width:4.0915246;stroke-linejoin:miter;stroke-miterlimit:4;stroke-opacity:1;stroke-dasharray:none;display:inline" />
    </clipPath>
    <clipPath
       clipPathUnits="userSpaceOnUse"
       id="clipPath16790">
      <path
         inkscape:connector-curvature="0"
         sodipodi:nodetypes="ccccsccccc"
         id="path16792"
         d="m 2.06084,2.05145 0,332.89699 c 0,15.96313 12.80539,28.76854 28.76856,28.76854 l 89.37425,0 c 15.96313,0 28.76854,12.80541 28.76854,28.76853 0,-15.96312 12.93323,-28.76853 28.89639,-28.76853 l 77.73898,0 c 15.96313,0 28.76845,-12.80541 28.76854,-28.76854 l 0,-332.89699 z"
         style="fill:#ffffff;fill-opacity:1;fill-rule:evenodd;stroke:#0000ff;stroke-width:4.0915246;stroke-linejoin:miter;stroke-miterlimit:4;stroke-opacity:1;stroke-dasharray:none;display:inline" />
    </clipPath>
    <clipPath
       clipPathUnits="userSpaceOnUse"
       id="clipPath16794">
      <path
         inkscape:connector-curvature="0"
         sodipodi:nodetypes="ccccsccccc"
         id="path16796"
         d="m 2.06084,2.05145 0,332.89699 c 0,15.96313 12.80539,28.76854 28.76856,28.76854 l 89.37425,0 c 15.96313,0 28.76854,12.80541 28.76854,28.76853 0,-15.96312 12.93323,-28.76853 28.89639,-28.76853 l 77.73898,0 c 15.96313,0 28.76845,-12.80541 28.76854,-28.76854 l 0,-332.89699 z"
         style="fill:#ffffff;fill-opacity:1;fill-rule:evenodd;stroke:#0000ff;stroke-width:4.0915246;stroke-linejoin:miter;stroke-miterlimit:4;stroke-opacity:1;stroke-dasharray:none;display:inline" />
    </clipPath>
    <clipPath
       clipPathUnits="userSpaceOnUse"
       id="clipPath16798">
      <path
         inkscape:connector-curvature="0"
         sodipodi:nodetypes="ccccsccccc"
         id="path16800"
         d="m 2.06084,2.05145 0,332.89699 c 0,15.96313 12.80539,28.76854 28.76856,28.76854 l 89.37425,0 c 15.96313,0 28.76854,12.80541 28.76854,28.76853 0,-15.96312 12.93323,-28.76853 28.89639,-28.76853 l 77.73898,0 c 15.96313,0 28.76845,-12.80541 28.76854,-28.76854 l 0,-332.89699 z"
         style="fill:#ffffff;fill-opacity:1;fill-rule:evenodd;stroke:#0000ff;stroke-width:4.0915246;stroke-linejoin:miter;stroke-miterlimit:4;stroke-opacity:1;stroke-dasharray:none;display:inline" />
    </clipPath>
    <clipPath
       clipPathUnits="userSpaceOnUse"
       id="clipPath16802">
      <path
         inkscape:connector-curvature="0"
         sodipodi:nodetypes="ccccsccccc"
         id="path16804"
         d="m 2.06084,2.05145 0,332.89699 c 0,15.96313 12.80539,28.76854 28.76856,28.76854 l 89.37425,0 c 15.96313,0 28.76854,12.80541 28.76854,28.76853 0,-15.96312 12.93323,-28.76853 28.89639,-28.76853 l 77.73898,0 c 15.96313,0 28.76845,-12.80541 28.76854,-28.76854 l 0,-332.89699 z"
         style="fill:#ffffff;fill-opacity:1;fill-rule:evenodd;stroke:#0000ff;stroke-width:4.0915246;stroke-linejoin:miter;stroke-miterlimit:4;stroke-opacity:1;stroke-dasharray:none;display:inline" />
    </clipPath>
  </defs>
  <sodipodi:namedview
     id="base"
     pagecolor="#ffffff"
     bordercolor="#666666"
     borderopacity="1.0"
     inkscape:pageopacity="0.0"
     inkscape:pageshadow="2"
     inkscape:zoom="1.1116301"
     inkscape:cx="44.747592"
     inkscape:cy="202.5"
     inkscape:document-units="px"
     inkscape:current-layer="layer2"
     showgrid="false"
     fit-margin-top="0"
     fit-margin-left="0"
     fit-margin-right="0"
     fit-margin-bottom="0"
     inkscape:window-width="1920"
     inkscape:window-height="955"
     inkscape:window-x="-9"
     inkscape:window-y="-9"
     inkscape:window-maximized="1"
     showguides="true"
     inkscape:guide-bbox="true"
     inkscape:snap-global="false">
    <inkscape:grid
       type="xygrid"
       id="grid14852" />
  </sodipodi:namedview>
  <metadata
     id="metadata3972">
    <rdf:RDF>
      <cc:Work
         rdf:about="">
        <dc:format>image/svg+xml</dc:format>
        <dc:type
           rdf:resource="http://purl.org/dc/dcmitype/StillImage" />
        <dc:title />
      </cc:Work>
    </rdf:RDF>
  </metadata>
  <g
     inkscape:groupmode="layer"
     id="layer3"
     inkscape:label="shield"
     style="display:none"
     sodipodi:insensitive="true" />
  <g
     inkscape:groupmode="layer"
     id="layer2"
     inkscape:label="pattern"
     style="display:inline">
    <path
       style="fill:#ffffff;fill-opacity:1;fill-rule:evenodd;stroke:#000000;stroke-width:4.09152459999999960;stroke-linejoin:miter;stroke-miterlimit:4;stroke-opacity:1;stroke-dasharray:none;display:inline"
       d="m 2.06084,2.05145 0,332.89699 c 0,15.96313 12.80539,28.76854 28.76856,28.76854 l 89.37425,0 c 15.96313,0 28.76854,12.80541 28.76854,28.76853 0,-15.96312 12.93323,-28.76853 28.89639,-28.76853 l 77.73898,0 c 15.96313,0 28.76845,-12.80541 28.76854,-28.76854 l 0,-332.89699 z"
       id="path16744"
       sodipodi:nodetypes="ccccsccccc"
       inkscape:connector-curvature="0" />
    <path
       style="fill:none;stroke:#ff0000;stroke-width:2;stroke-linecap:butt;stroke-linejoin:miter;stroke-miterlimit:4;stroke-opacity:1;stroke-dasharray:none"
       d="m 25,-27.5 0,435"
       id="path14854-3"
       inkscape:connector-curvature="0"
       sodipodi:nodetypes="cc"
       clip-path="url(#clipPath16802)" />
    <path
       style="fill:none;stroke:#ff0000;stroke-width:2;stroke-linecap:butt;stroke-linejoin:miter;stroke-miterlimit:4;stroke-opacity:1;stroke-dasharray:none"
       d="m 50,-27.5 0,435"
       id="path14854-1-1"
       inkscape:connector-curvature="0"
       sodipodi:nodetypes="cc"
       clip-path="url(#clipPath16798)" />
    <path
       style="fill:none;stroke:#ff0000;stroke-width:2;stroke-linecap:butt;stroke-linejoin:miter;stroke-miterlimit:4;stroke-opacity:1;stroke-dasharray:none"
       d="m 75,-27.5 0,435"
       id="path14854-7-9"
       inkscape:connector-curvature="0"
       sodipodi:nodetypes="cc"
       clip-path="url(#clipPath16794)" />
    <path
       style="fill:none;stroke:#ff0000;stroke-width:2;stroke-linecap:butt;stroke-linejoin:miter;stroke-miterlimit:4;stroke-opacity:1;stroke-dasharray:none"
       d="m 100,-27.5 0,435"
       id="path14854-11-86"
       inkscape:connector-curvature="0"
       sodipodi:nodetypes="cc"
       clip-path="url(#clipPath16790)" />
    <path
       style="fill:none;stroke:#ff0000;stroke-width:2;stroke-linecap:butt;stroke-linejoin:miter;stroke-miterlimit:4;stroke-opacity:1;stroke-dasharray:none"
       d="m 125,-27.5 0,435"
       id="path14854-5-5"
       inkscape:connector-curvature="0"
       sodipodi:nodetypes="cc"
       clip-path="url(#clipPath16786)" />
    <path
       style="fill:none;stroke:#ff0000;stroke-width:2;stroke-linecap:butt;stroke-linejoin:miter;stroke-miterlimit:4;stroke-opacity:1;stroke-dasharray:none"
       d="m 150,-27.5 0,435"
       id="path14854-2-0"
       inkscape:connector-curvature="0"
       sodipodi:nodetypes="cc"
       clip-path="url(#clipPath16782)" />
    <path
       style="fill:none;stroke:#ff0000;stroke-width:2;stroke-linecap:butt;stroke-linejoin:miter;stroke-miterlimit:4;stroke-opacity:1;stroke-dasharray:none"
       d="m 175,-27.5 0,435"
       id="path14854-76-2"
       inkscape:connector-curvature="0"
       sodipodi:nodetypes="cc"
       clip-path="url(#clipPath16778)" />
    <path
       style="fill:none;stroke:#ff0000;stroke-width:2;stroke-linecap:butt;stroke-linejoin:miter;stroke-miterlimit:4;stroke-opacity:1;stroke-dasharray:none"
       d="m 200,-27.5 0,435"
       id="path14854-14-8"
       inkscape:connector-curvature="0"
       sodipodi:nodetypes="cc"
       clip-path="url(#clipPath16774)" />
    <path
       style="fill:none;stroke:#ff0000;stroke-width:2;stroke-linecap:butt;stroke-linejoin:miter;stroke-miterlimit:4;stroke-opacity:1;stroke-dasharray:none"
       d="m 225,-27.5 0,435"
       id="path14854-23-6"
       inkscape:connector-curvature="0"
       sodipodi:nodetypes="cc"
       clip-path="url(#clipPath16770)" />
    <path
       style="fill:none;stroke:#ff0000;stroke-width:2;stroke-linecap:butt;stroke-linejoin:miter;stroke-miterlimit:4;stroke-opacity:1;stroke-dasharray:none"
       d="m 250,-27.5 0,435"
       id="path14854-22-0"
       inkscape:connector-curvature="0"
       sodipodi:nodetypes="cc"
       clip-path="url(#clipPath16766)" />
    <path
       style="fill:none;stroke:#ff0000;stroke-width:2;stroke-linecap:butt;stroke-linejoin:miter;stroke-miterlimit:4;stroke-opacity:1;stroke-dasharray:none"
       d="m 275,-27.5 0,435"
       id="path14854-22-1-2"
       inkscape:connector-curvature="0"
       sodipodi:nodetypes="cc"
       clip-path="url(#clipPath16762)" />
    <path
       style="fill:none;stroke:#ff0000;stroke-width:2;stroke-linecap:butt;stroke-linejoin:miter;stroke-miterlimit:4;stroke-opacity:1;stroke-dasharray:none"
       d="m 0,-27.5 0,435"
       id="path14854-22-6-4"
       inkscape:connector-curvature="0"
       sodipodi:nodetypes="cc"
       clip-path="url(#clipPath16758)" />
    <path
       style="fill:none;stroke:#ff0000;stroke-width:2;stroke-linecap:butt;stroke-linejoin:miter;stroke-miterlimit:4;stroke-opacity:1;stroke-dasharray:none"
       d="m 300,-27.5 0,435"
       id="path14854-57-8"
       inkscape:connector-curvature="0"
       sodipodi:nodetypes="cc"
       clip-path="url(#clipPath16754)" />
    <path
       style="fill:none;stroke:#ff0000;stroke-width:2;stroke-linecap:butt;stroke-linejoin:miter;stroke-miterlimit:4;stroke-opacity:1;stroke-dasharray:none"
       d="m 275,-27.5 0,435"
       id="path14854-22-6-1-9"
       inkscape:connector-curvature="0"
       sodipodi:nodetypes="cc"
       clip-path="url(#clipPath16750)" />
    <path
       style="fill:none;stroke:#ff0000;stroke-width:2;stroke-linecap:butt;stroke-linejoin:miter;stroke-miterlimit:4;stroke-opacity:1;stroke-dasharray:none"
       d="m -0.00315,-27.5 0,435"
       id="path14854-22-1-3-7-9"
       inkscape:connector-curvature="0"
       sodipodi:nodetypes="cc"
       clip-path="url(#clipPath16746)" />
  </g>
</svg>
